G04 #@! TF.GenerationSoftware,KiCad,Pcbnew,(5.1.4-0-10_14)*
G04 #@! TF.CreationDate,2021-02-23T13:51:13-08:00*
G04 #@! TF.ProjectId,fourkey,666f7572-6b65-4792-9e6b-696361645f70,rev?*
G04 #@! TF.SameCoordinates,Original*
G04 #@! TF.FileFunction,Copper,L2,Bot*
G04 #@! TF.FilePolarity,Positive*
%FSLAX46Y46*%
G04 Gerber Fmt 4.6, Leading zero omitted, Abs format (unit mm)*
G04 Created by KiCad (PCBNEW (5.1.4-0-10_14)) date 2021-02-23 13:51:13*
%MOMM*%
%LPD*%
G04 APERTURE LIST*
%ADD10C,4.000000*%
%ADD11C,2.800000*%
%ADD12C,2.500000*%
%ADD13C,2.500000*%
%ADD14C,1.600000*%
%ADD15R,1.600000X1.600000*%
%ADD16C,0.254000*%
G04 APERTURE END LIST*
D10*
X172466000Y-61214000D03*
D11*
X130048000Y-122158000D03*
X209296000Y-122158000D03*
X130048000Y-101076000D03*
X209296000Y-101076000D03*
X130048000Y-71628000D03*
X130048000Y-50546000D03*
X209296000Y-50546000D03*
X209296000Y-71628000D03*
D12*
X144998000Y-89615000D03*
D13*
X144049185Y-90219462D02*
X145946815Y-89010538D01*
D12*
X146268000Y-83840000D03*
D13*
X145978672Y-83859724D02*
X146557328Y-83820276D01*
D14*
X135890000Y-78740000D03*
X138430000Y-78740000D03*
X140970000Y-78740000D03*
X143510000Y-78740000D03*
X146050000Y-78740000D03*
X148590000Y-78740000D03*
X151130000Y-78740000D03*
X153670000Y-78740000D03*
X156210000Y-78740000D03*
X158750000Y-78740000D03*
X161290000Y-78740000D03*
X163830000Y-78740000D03*
X163830000Y-93980000D03*
X161290000Y-93980000D03*
X158750000Y-93980000D03*
X156210000Y-93980000D03*
X153670000Y-93980000D03*
X151130000Y-93980000D03*
X148590000Y-93980000D03*
X146050000Y-93980000D03*
X143510000Y-93980000D03*
X140970000Y-93980000D03*
X138430000Y-93980000D03*
D15*
X135890000Y-93980000D03*
D12*
X165318000Y-83840000D03*
D13*
X165028672Y-83859724D02*
X165607328Y-83820276D01*
D12*
X164048000Y-89615000D03*
D13*
X163099185Y-90219462D02*
X164996815Y-89010538D01*
D12*
X183098000Y-89615000D03*
D13*
X182149185Y-90219462D02*
X184046815Y-89010538D01*
D12*
X184368000Y-83840000D03*
D13*
X184078672Y-83859724D02*
X184657328Y-83820276D01*
D12*
X203418000Y-83840000D03*
D13*
X203128672Y-83859724D02*
X203707328Y-83820276D01*
D12*
X202148000Y-89615000D03*
D13*
X201199185Y-90219462D02*
X203096815Y-89010538D01*
D16*
G36*
X196044392Y-77222090D02*
G01*
X196099366Y-77245652D01*
X196108169Y-77248377D01*
X196295006Y-77304786D01*
X196353686Y-77316405D01*
X196412196Y-77328842D01*
X196421361Y-77329805D01*
X196615594Y-77348850D01*
X196615598Y-77348850D01*
X196647581Y-77352000D01*
X207620001Y-77352000D01*
X207620000Y-95368000D01*
X196647581Y-95368000D01*
X196614613Y-95371247D01*
X196601633Y-95371247D01*
X196592468Y-95372210D01*
X196398518Y-95393965D01*
X196340019Y-95406400D01*
X196281325Y-95418022D01*
X196272522Y-95420747D01*
X196086491Y-95479760D01*
X196031509Y-95503326D01*
X196022033Y-95507232D01*
X195981758Y-95466957D01*
X195813272Y-95354378D01*
X195626061Y-95276833D01*
X195427318Y-95237300D01*
X195224682Y-95237300D01*
X195025939Y-95276833D01*
X194838728Y-95354378D01*
X194691000Y-95453087D01*
X194543272Y-95354378D01*
X194356061Y-95276833D01*
X194157318Y-95237300D01*
X193954682Y-95237300D01*
X193755939Y-95276833D01*
X193568728Y-95354378D01*
X193421000Y-95453087D01*
X193273272Y-95354378D01*
X193086061Y-95276833D01*
X192887318Y-95237300D01*
X192684682Y-95237300D01*
X192485939Y-95276833D01*
X192298728Y-95354378D01*
X192151000Y-95453087D01*
X192003272Y-95354378D01*
X191816061Y-95276833D01*
X191617318Y-95237300D01*
X191414682Y-95237300D01*
X191215939Y-95276833D01*
X191028728Y-95354378D01*
X190881000Y-95453087D01*
X190733272Y-95354378D01*
X190546061Y-95276833D01*
X190347318Y-95237300D01*
X190144682Y-95237300D01*
X189945939Y-95276833D01*
X189758728Y-95354378D01*
X189590242Y-95466957D01*
X189582186Y-95475013D01*
X189580634Y-95474348D01*
X189571831Y-95471623D01*
X189384995Y-95415214D01*
X189326307Y-95403594D01*
X189267804Y-95391158D01*
X189258639Y-95390195D01*
X189064405Y-95371150D01*
X189064402Y-95371150D01*
X189032419Y-95368000D01*
X164207617Y-95368000D01*
X164248574Y-95359853D01*
X164509727Y-95251680D01*
X164744759Y-95094637D01*
X164944637Y-94894759D01*
X165101680Y-94659727D01*
X165209853Y-94398574D01*
X165265000Y-94121335D01*
X165265000Y-93838665D01*
X165209853Y-93561426D01*
X165101680Y-93300273D01*
X164944637Y-93065241D01*
X164744759Y-92865363D01*
X164509727Y-92708320D01*
X164248574Y-92600147D01*
X163971335Y-92545000D01*
X163688665Y-92545000D01*
X163411426Y-92600147D01*
X163150273Y-92708320D01*
X162915241Y-92865363D01*
X162715363Y-93065241D01*
X162560000Y-93297759D01*
X162404637Y-93065241D01*
X162204759Y-92865363D01*
X161969727Y-92708320D01*
X161708574Y-92600147D01*
X161508943Y-92560437D01*
X161682174Y-92387206D01*
X161844788Y-92143838D01*
X161956798Y-91873421D01*
X161982353Y-91744946D01*
X162012763Y-91771034D01*
X162336336Y-91953172D01*
X162689223Y-92068683D01*
X163057865Y-92113131D01*
X163428096Y-92084806D01*
X163785686Y-91984796D01*
X164033899Y-91859007D01*
X164921328Y-91293652D01*
X178092100Y-91293652D01*
X178092100Y-91586348D01*
X178149202Y-91873421D01*
X178261212Y-92143838D01*
X178423826Y-92387206D01*
X178630794Y-92594174D01*
X178874162Y-92756788D01*
X179144579Y-92868798D01*
X179431652Y-92925900D01*
X179724348Y-92925900D01*
X180011421Y-92868798D01*
X180281838Y-92756788D01*
X180525206Y-92594174D01*
X180732174Y-92387206D01*
X180894788Y-92143838D01*
X181006798Y-91873421D01*
X181032353Y-91744946D01*
X181062763Y-91771034D01*
X181386336Y-91953172D01*
X181739223Y-92068683D01*
X182107865Y-92113131D01*
X182478096Y-92084806D01*
X182835686Y-91984796D01*
X183083899Y-91859007D01*
X183971328Y-91293652D01*
X197142100Y-91293652D01*
X197142100Y-91586348D01*
X197199202Y-91873421D01*
X197311212Y-92143838D01*
X197473826Y-92387206D01*
X197680794Y-92594174D01*
X197924162Y-92756788D01*
X198194579Y-92868798D01*
X198481652Y-92925900D01*
X198774348Y-92925900D01*
X199061421Y-92868798D01*
X199331838Y-92756788D01*
X199575206Y-92594174D01*
X199782174Y-92387206D01*
X199944788Y-92143838D01*
X200056798Y-91873421D01*
X200082353Y-91744946D01*
X200112763Y-91771034D01*
X200436336Y-91953172D01*
X200789223Y-92068683D01*
X201157865Y-92113131D01*
X201528096Y-92084806D01*
X201885686Y-91984796D01*
X202133899Y-91859007D01*
X204187720Y-90550578D01*
X204406623Y-90378782D01*
X204648387Y-90096961D01*
X204830524Y-89773389D01*
X204946036Y-89420501D01*
X204990483Y-89051859D01*
X204962158Y-88681627D01*
X204862149Y-88324037D01*
X204694299Y-87992829D01*
X204465058Y-87700730D01*
X204183237Y-87458966D01*
X203859664Y-87276829D01*
X203506777Y-87161317D01*
X203138134Y-87116869D01*
X202767903Y-87145195D01*
X202410312Y-87245204D01*
X202162100Y-87370994D01*
X200108280Y-88679422D01*
X199889377Y-88851218D01*
X199647613Y-89133040D01*
X199465475Y-89456613D01*
X199349964Y-89809500D01*
X199313076Y-90115441D01*
X199061421Y-90011202D01*
X198774348Y-89954100D01*
X198481652Y-89954100D01*
X198194579Y-90011202D01*
X197924162Y-90123212D01*
X197680794Y-90285826D01*
X197473826Y-90492794D01*
X197311212Y-90736162D01*
X197199202Y-91006579D01*
X197142100Y-91293652D01*
X183971328Y-91293652D01*
X185137720Y-90550578D01*
X185356623Y-90378782D01*
X185598387Y-90096961D01*
X185780524Y-89773389D01*
X185896036Y-89420501D01*
X185940483Y-89051859D01*
X185912158Y-88681627D01*
X185812149Y-88324037D01*
X185644299Y-87992829D01*
X185415058Y-87700730D01*
X185133237Y-87458966D01*
X184809664Y-87276829D01*
X184456777Y-87161317D01*
X184088134Y-87116869D01*
X183717903Y-87145195D01*
X183360312Y-87245204D01*
X183112100Y-87370994D01*
X181058280Y-88679422D01*
X180839377Y-88851218D01*
X180597613Y-89133040D01*
X180415475Y-89456613D01*
X180299964Y-89809500D01*
X180263076Y-90115441D01*
X180011421Y-90011202D01*
X179724348Y-89954100D01*
X179431652Y-89954100D01*
X179144579Y-90011202D01*
X178874162Y-90123212D01*
X178630794Y-90285826D01*
X178423826Y-90492794D01*
X178261212Y-90736162D01*
X178149202Y-91006579D01*
X178092100Y-91293652D01*
X164921328Y-91293652D01*
X166087720Y-90550578D01*
X166306623Y-90378782D01*
X166548387Y-90096961D01*
X166730524Y-89773389D01*
X166846036Y-89420501D01*
X166890483Y-89051859D01*
X166862158Y-88681627D01*
X166762149Y-88324037D01*
X166594299Y-87992829D01*
X166365058Y-87700730D01*
X166083237Y-87458966D01*
X165759664Y-87276829D01*
X165406777Y-87161317D01*
X165038134Y-87116869D01*
X164667903Y-87145195D01*
X164310312Y-87245204D01*
X164062100Y-87370994D01*
X162008280Y-88679422D01*
X161789377Y-88851218D01*
X161547613Y-89133040D01*
X161365475Y-89456613D01*
X161249964Y-89809500D01*
X161213076Y-90115441D01*
X160961421Y-90011202D01*
X160674348Y-89954100D01*
X160381652Y-89954100D01*
X160094579Y-90011202D01*
X159824162Y-90123212D01*
X159580794Y-90285826D01*
X159373826Y-90492794D01*
X159211212Y-90736162D01*
X159099202Y-91006579D01*
X159042100Y-91293652D01*
X159042100Y-91586348D01*
X159099202Y-91873421D01*
X159211212Y-92143838D01*
X159373826Y-92387206D01*
X159580794Y-92594174D01*
X159824162Y-92756788D01*
X160094579Y-92868798D01*
X160325811Y-92914793D01*
X160175363Y-93065241D01*
X160020000Y-93297759D01*
X159864637Y-93065241D01*
X159664759Y-92865363D01*
X159429727Y-92708320D01*
X159168574Y-92600147D01*
X158891335Y-92545000D01*
X158608665Y-92545000D01*
X158331426Y-92600147D01*
X158070273Y-92708320D01*
X157835241Y-92865363D01*
X157635363Y-93065241D01*
X157480000Y-93297759D01*
X157324637Y-93065241D01*
X157124759Y-92865363D01*
X156889727Y-92708320D01*
X156628574Y-92600147D01*
X156351335Y-92545000D01*
X156068665Y-92545000D01*
X155791426Y-92600147D01*
X155530273Y-92708320D01*
X155295241Y-92865363D01*
X155095363Y-93065241D01*
X154940000Y-93297759D01*
X154784637Y-93065241D01*
X154584759Y-92865363D01*
X154349727Y-92708320D01*
X154088574Y-92600147D01*
X153811335Y-92545000D01*
X153528665Y-92545000D01*
X153251426Y-92600147D01*
X152990273Y-92708320D01*
X152755241Y-92865363D01*
X152555363Y-93065241D01*
X152400000Y-93297759D01*
X152244637Y-93065241D01*
X152044759Y-92865363D01*
X151809727Y-92708320D01*
X151548574Y-92600147D01*
X151271335Y-92545000D01*
X150988665Y-92545000D01*
X150711426Y-92600147D01*
X150450273Y-92708320D01*
X150215241Y-92865363D01*
X150015363Y-93065241D01*
X149860000Y-93297759D01*
X149704637Y-93065241D01*
X149504759Y-92865363D01*
X149269727Y-92708320D01*
X149008574Y-92600147D01*
X148731335Y-92545000D01*
X148448665Y-92545000D01*
X148171426Y-92600147D01*
X147910273Y-92708320D01*
X147675241Y-92865363D01*
X147475363Y-93065241D01*
X147320000Y-93297759D01*
X147164637Y-93065241D01*
X146964759Y-92865363D01*
X146729727Y-92708320D01*
X146468574Y-92600147D01*
X146191335Y-92545000D01*
X145908665Y-92545000D01*
X145631426Y-92600147D01*
X145370273Y-92708320D01*
X145135241Y-92865363D01*
X144935363Y-93065241D01*
X144779085Y-93299128D01*
X144746671Y-93238486D01*
X144502702Y-93166903D01*
X143689605Y-93980000D01*
X144502702Y-94793097D01*
X144746671Y-94721514D01*
X144777194Y-94657008D01*
X144778320Y-94659727D01*
X144935363Y-94894759D01*
X145135241Y-95094637D01*
X145370273Y-95251680D01*
X145590468Y-95342888D01*
X145562728Y-95354378D01*
X145415000Y-95453087D01*
X145267272Y-95354378D01*
X145080061Y-95276833D01*
X144881318Y-95237300D01*
X144678682Y-95237300D01*
X144479939Y-95276833D01*
X144292728Y-95354378D01*
X144124242Y-95466957D01*
X144108985Y-95482214D01*
X144090634Y-95474348D01*
X144081831Y-95471623D01*
X143894995Y-95415214D01*
X143836307Y-95403594D01*
X143777804Y-95391158D01*
X143777121Y-95391086D01*
X143860130Y-95378787D01*
X144126292Y-95283603D01*
X144251514Y-95216671D01*
X144323097Y-94972702D01*
X143510000Y-94159605D01*
X142696903Y-94972702D01*
X142768486Y-95216671D01*
X143023996Y-95337571D01*
X143145390Y-95368000D01*
X141350294Y-95368000D01*
X141586292Y-95283603D01*
X141711514Y-95216671D01*
X141783097Y-94972702D01*
X140970000Y-94159605D01*
X140156903Y-94972702D01*
X140228486Y-95216671D01*
X140483996Y-95337571D01*
X140605390Y-95368000D01*
X138807617Y-95368000D01*
X138848574Y-95359853D01*
X139109727Y-95251680D01*
X139344759Y-95094637D01*
X139544637Y-94894759D01*
X139700915Y-94660872D01*
X139733329Y-94721514D01*
X139977298Y-94793097D01*
X140790395Y-93980000D01*
X141149605Y-93980000D01*
X141962702Y-94793097D01*
X142206671Y-94721514D01*
X142237971Y-94655364D01*
X142273329Y-94721514D01*
X142517298Y-94793097D01*
X143330395Y-93980000D01*
X142517298Y-93166903D01*
X142273329Y-93238486D01*
X142242029Y-93304636D01*
X142206671Y-93238486D01*
X141962702Y-93166903D01*
X141149605Y-93980000D01*
X140790395Y-93980000D01*
X139977298Y-93166903D01*
X139733329Y-93238486D01*
X139702806Y-93302992D01*
X139701680Y-93300273D01*
X139544637Y-93065241D01*
X139344759Y-92865363D01*
X139109727Y-92708320D01*
X138848574Y-92600147D01*
X138571335Y-92545000D01*
X138288665Y-92545000D01*
X138011426Y-92600147D01*
X137750273Y-92708320D01*
X137515241Y-92865363D01*
X137316643Y-93063961D01*
X137315812Y-93055518D01*
X137279502Y-92935820D01*
X137220537Y-92825506D01*
X137141185Y-92728815D01*
X137044494Y-92649463D01*
X136934180Y-92590498D01*
X136814482Y-92554188D01*
X136690000Y-92541928D01*
X135090000Y-92541928D01*
X134965518Y-92554188D01*
X134845820Y-92590498D01*
X134735506Y-92649463D01*
X134638815Y-92728815D01*
X134559463Y-92825506D01*
X134500498Y-92935820D01*
X134464188Y-93055518D01*
X134451928Y-93180000D01*
X134451928Y-94780000D01*
X134464188Y-94904482D01*
X134500498Y-95024180D01*
X134559463Y-95134494D01*
X134638815Y-95231185D01*
X134735506Y-95310537D01*
X134843010Y-95368000D01*
X132486000Y-95368000D01*
X132486000Y-91293652D01*
X139992100Y-91293652D01*
X139992100Y-91586348D01*
X140049202Y-91873421D01*
X140161212Y-92143838D01*
X140323826Y-92387206D01*
X140530794Y-92594174D01*
X140549213Y-92606481D01*
X140353708Y-92676397D01*
X140228486Y-92743329D01*
X140156903Y-92987298D01*
X140970000Y-93800395D01*
X141783097Y-92987298D01*
X142696903Y-92987298D01*
X143510000Y-93800395D01*
X144323097Y-92987298D01*
X144251514Y-92743329D01*
X143996004Y-92622429D01*
X143721816Y-92553700D01*
X143439488Y-92539783D01*
X143159870Y-92581213D01*
X142893708Y-92676397D01*
X142768486Y-92743329D01*
X142696903Y-92987298D01*
X141783097Y-92987298D01*
X141757322Y-92899450D01*
X141911421Y-92868798D01*
X142181838Y-92756788D01*
X142425206Y-92594174D01*
X142632174Y-92387206D01*
X142794788Y-92143838D01*
X142906798Y-91873421D01*
X142932353Y-91744946D01*
X142962763Y-91771034D01*
X143286336Y-91953172D01*
X143639223Y-92068683D01*
X144007865Y-92113131D01*
X144378096Y-92084806D01*
X144735686Y-91984796D01*
X144983899Y-91859007D01*
X147037720Y-90550578D01*
X147256623Y-90378782D01*
X147498387Y-90096961D01*
X147680524Y-89773389D01*
X147796036Y-89420501D01*
X147840483Y-89051859D01*
X147812158Y-88681627D01*
X147712149Y-88324037D01*
X147544299Y-87992829D01*
X147315058Y-87700730D01*
X147033237Y-87458966D01*
X146709664Y-87276829D01*
X146356777Y-87161317D01*
X145988134Y-87116869D01*
X145617903Y-87145195D01*
X145260312Y-87245204D01*
X145012100Y-87370994D01*
X142958280Y-88679422D01*
X142739377Y-88851218D01*
X142497613Y-89133040D01*
X142315475Y-89456613D01*
X142199964Y-89809500D01*
X142163076Y-90115441D01*
X141911421Y-90011202D01*
X141624348Y-89954100D01*
X141331652Y-89954100D01*
X141044579Y-90011202D01*
X140774162Y-90123212D01*
X140530794Y-90285826D01*
X140323826Y-90492794D01*
X140161212Y-90736162D01*
X140049202Y-91006579D01*
X139992100Y-91293652D01*
X132486000Y-91293652D01*
X132486000Y-86101076D01*
X138849100Y-86101076D01*
X138849100Y-86618924D01*
X138950127Y-87126822D01*
X139148299Y-87605251D01*
X139436000Y-88035826D01*
X139802174Y-88402000D01*
X140232749Y-88689701D01*
X140711178Y-88887873D01*
X141219076Y-88988900D01*
X141736924Y-88988900D01*
X142244822Y-88887873D01*
X142723251Y-88689701D01*
X143153826Y-88402000D01*
X143520000Y-88035826D01*
X143807701Y-87605251D01*
X144005873Y-87126822D01*
X144106900Y-86618924D01*
X144106900Y-86101076D01*
X157899100Y-86101076D01*
X157899100Y-86618924D01*
X158000127Y-87126822D01*
X158198299Y-87605251D01*
X158486000Y-88035826D01*
X158852174Y-88402000D01*
X159282749Y-88689701D01*
X159761178Y-88887873D01*
X160269076Y-88988900D01*
X160786924Y-88988900D01*
X161294822Y-88887873D01*
X161773251Y-88689701D01*
X162203826Y-88402000D01*
X162570000Y-88035826D01*
X162857701Y-87605251D01*
X163055873Y-87126822D01*
X163156900Y-86618924D01*
X163156900Y-86101076D01*
X176949100Y-86101076D01*
X176949100Y-86618924D01*
X177050127Y-87126822D01*
X177248299Y-87605251D01*
X177536000Y-88035826D01*
X177902174Y-88402000D01*
X178332749Y-88689701D01*
X178811178Y-88887873D01*
X179319076Y-88988900D01*
X179836924Y-88988900D01*
X180344822Y-88887873D01*
X180823251Y-88689701D01*
X181253826Y-88402000D01*
X181620000Y-88035826D01*
X181907701Y-87605251D01*
X182105873Y-87126822D01*
X182206900Y-86618924D01*
X182206900Y-86101076D01*
X195999100Y-86101076D01*
X195999100Y-86618924D01*
X196100127Y-87126822D01*
X196298299Y-87605251D01*
X196586000Y-88035826D01*
X196952174Y-88402000D01*
X197382749Y-88689701D01*
X197861178Y-88887873D01*
X198369076Y-88988900D01*
X198886924Y-88988900D01*
X199394822Y-88887873D01*
X199873251Y-88689701D01*
X200303826Y-88402000D01*
X200670000Y-88035826D01*
X200957701Y-87605251D01*
X201155873Y-87126822D01*
X201256900Y-86618924D01*
X201256900Y-86101076D01*
X201155873Y-85593178D01*
X200957701Y-85114749D01*
X200670000Y-84684174D01*
X200303826Y-84318000D01*
X199873251Y-84030299D01*
X199772461Y-83988550D01*
X201238939Y-83988550D01*
X201300382Y-84354743D01*
X201432085Y-84701913D01*
X201628989Y-85016719D01*
X201883523Y-85287061D01*
X202185908Y-85502552D01*
X202524523Y-85654910D01*
X202886355Y-85738279D01*
X203164495Y-85746656D01*
X203927916Y-85694613D01*
X204202347Y-85648566D01*
X204549517Y-85516863D01*
X204864323Y-85319959D01*
X205134665Y-85065425D01*
X205350156Y-84763040D01*
X205502514Y-84424425D01*
X205585883Y-84062593D01*
X205597061Y-83691450D01*
X205535618Y-83325257D01*
X205403914Y-82978087D01*
X205207011Y-82663281D01*
X204952477Y-82392939D01*
X204650092Y-82177448D01*
X204311477Y-82025090D01*
X203949645Y-81941721D01*
X203671504Y-81933344D01*
X202908084Y-81985387D01*
X202633653Y-82031434D01*
X202286483Y-82163137D01*
X201971677Y-82360041D01*
X201701335Y-82614575D01*
X201485844Y-82916960D01*
X201333486Y-83255575D01*
X201250117Y-83617407D01*
X201238939Y-83988550D01*
X199772461Y-83988550D01*
X199394822Y-83832127D01*
X198886924Y-83731100D01*
X198369076Y-83731100D01*
X197861178Y-83832127D01*
X197382749Y-84030299D01*
X196952174Y-84318000D01*
X196586000Y-84684174D01*
X196298299Y-85114749D01*
X196100127Y-85593178D01*
X195999100Y-86101076D01*
X182206900Y-86101076D01*
X182105873Y-85593178D01*
X181907701Y-85114749D01*
X181620000Y-84684174D01*
X181253826Y-84318000D01*
X180823251Y-84030299D01*
X180722461Y-83988550D01*
X182188939Y-83988550D01*
X182250382Y-84354743D01*
X182382085Y-84701913D01*
X182578989Y-85016719D01*
X182833523Y-85287061D01*
X183135908Y-85502552D01*
X183474523Y-85654910D01*
X183836355Y-85738279D01*
X184114495Y-85746656D01*
X184877916Y-85694613D01*
X185152347Y-85648566D01*
X185499517Y-85516863D01*
X185814323Y-85319959D01*
X186084665Y-85065425D01*
X186300156Y-84763040D01*
X186452514Y-84424425D01*
X186535883Y-84062593D01*
X186547061Y-83691450D01*
X186485618Y-83325257D01*
X186353914Y-82978087D01*
X186157011Y-82663281D01*
X185902477Y-82392939D01*
X185600092Y-82177448D01*
X185261477Y-82025090D01*
X184899645Y-81941721D01*
X184621504Y-81933344D01*
X183858084Y-81985387D01*
X183583653Y-82031434D01*
X183236483Y-82163137D01*
X182921677Y-82360041D01*
X182651335Y-82614575D01*
X182435844Y-82916960D01*
X182283486Y-83255575D01*
X182200117Y-83617407D01*
X182188939Y-83988550D01*
X180722461Y-83988550D01*
X180344822Y-83832127D01*
X179836924Y-83731100D01*
X179319076Y-83731100D01*
X178811178Y-83832127D01*
X178332749Y-84030299D01*
X177902174Y-84318000D01*
X177536000Y-84684174D01*
X177248299Y-85114749D01*
X177050127Y-85593178D01*
X176949100Y-86101076D01*
X163156900Y-86101076D01*
X163055873Y-85593178D01*
X162857701Y-85114749D01*
X162570000Y-84684174D01*
X162203826Y-84318000D01*
X161773251Y-84030299D01*
X161672461Y-83988550D01*
X163138939Y-83988550D01*
X163200382Y-84354743D01*
X163332085Y-84701913D01*
X163528989Y-85016719D01*
X163783523Y-85287061D01*
X164085908Y-85502552D01*
X164424523Y-85654910D01*
X164786355Y-85738279D01*
X165064495Y-85746656D01*
X165827916Y-85694613D01*
X166102347Y-85648566D01*
X166449517Y-85516863D01*
X166764323Y-85319959D01*
X167034665Y-85065425D01*
X167250156Y-84763040D01*
X167402514Y-84424425D01*
X167485883Y-84062593D01*
X167497061Y-83691450D01*
X167435618Y-83325257D01*
X167303914Y-82978087D01*
X167107011Y-82663281D01*
X166852477Y-82392939D01*
X166550092Y-82177448D01*
X166211477Y-82025090D01*
X165849645Y-81941721D01*
X165571504Y-81933344D01*
X164808084Y-81985387D01*
X164533653Y-82031434D01*
X164186483Y-82163137D01*
X163871677Y-82360041D01*
X163601335Y-82614575D01*
X163385844Y-82916960D01*
X163233486Y-83255575D01*
X163150117Y-83617407D01*
X163138939Y-83988550D01*
X161672461Y-83988550D01*
X161294822Y-83832127D01*
X160786924Y-83731100D01*
X160269076Y-83731100D01*
X159761178Y-83832127D01*
X159282749Y-84030299D01*
X158852174Y-84318000D01*
X158486000Y-84684174D01*
X158198299Y-85114749D01*
X158000127Y-85593178D01*
X157899100Y-86101076D01*
X144106900Y-86101076D01*
X144005873Y-85593178D01*
X143807701Y-85114749D01*
X143520000Y-84684174D01*
X143153826Y-84318000D01*
X142723251Y-84030299D01*
X142622461Y-83988550D01*
X144088939Y-83988550D01*
X144150382Y-84354743D01*
X144282085Y-84701913D01*
X144478989Y-85016719D01*
X144733523Y-85287061D01*
X145035908Y-85502552D01*
X145374523Y-85654910D01*
X145736355Y-85738279D01*
X146014495Y-85746656D01*
X146777916Y-85694613D01*
X147052347Y-85648566D01*
X147399517Y-85516863D01*
X147714323Y-85319959D01*
X147984665Y-85065425D01*
X148200156Y-84763040D01*
X148352514Y-84424425D01*
X148435883Y-84062593D01*
X148447061Y-83691450D01*
X148385618Y-83325257D01*
X148253914Y-82978087D01*
X148057011Y-82663281D01*
X147802477Y-82392939D01*
X147500092Y-82177448D01*
X147161477Y-82025090D01*
X146799645Y-81941721D01*
X146521504Y-81933344D01*
X145758084Y-81985387D01*
X145483653Y-82031434D01*
X145136483Y-82163137D01*
X144821677Y-82360041D01*
X144551335Y-82614575D01*
X144335844Y-82916960D01*
X144183486Y-83255575D01*
X144100117Y-83617407D01*
X144088939Y-83988550D01*
X142622461Y-83988550D01*
X142244822Y-83832127D01*
X141736924Y-83731100D01*
X141219076Y-83731100D01*
X140711178Y-83832127D01*
X140232749Y-84030299D01*
X139802174Y-84318000D01*
X139436000Y-84684174D01*
X139148299Y-85114749D01*
X138950127Y-85593178D01*
X138849100Y-86101076D01*
X132486000Y-86101076D01*
X132486000Y-77352000D01*
X135512383Y-77352000D01*
X135471426Y-77360147D01*
X135210273Y-77468320D01*
X134975241Y-77625363D01*
X134775363Y-77825241D01*
X134618320Y-78060273D01*
X134510147Y-78321426D01*
X134455000Y-78598665D01*
X134455000Y-78881335D01*
X134510147Y-79158574D01*
X134618320Y-79419727D01*
X134775363Y-79654759D01*
X134975241Y-79854637D01*
X135210273Y-80011680D01*
X135471426Y-80119853D01*
X135748665Y-80175000D01*
X136031335Y-80175000D01*
X136308574Y-80119853D01*
X136569727Y-80011680D01*
X136804759Y-79854637D01*
X136926694Y-79732702D01*
X137616903Y-79732702D01*
X137688486Y-79976671D01*
X137943996Y-80097571D01*
X138218184Y-80166300D01*
X138500512Y-80180217D01*
X138780130Y-80138787D01*
X139046292Y-80043603D01*
X139171514Y-79976671D01*
X139243097Y-79732702D01*
X138430000Y-78919605D01*
X137616903Y-79732702D01*
X136926694Y-79732702D01*
X137004637Y-79654759D01*
X137160915Y-79420872D01*
X137193329Y-79481514D01*
X137437298Y-79553097D01*
X138250395Y-78740000D01*
X137437298Y-77926903D01*
X137193329Y-77998486D01*
X137162806Y-78062992D01*
X137161680Y-78060273D01*
X137004637Y-77825241D01*
X136804759Y-77625363D01*
X136569727Y-77468320D01*
X136308574Y-77360147D01*
X136267617Y-77352000D01*
X138049706Y-77352000D01*
X137813708Y-77436397D01*
X137688486Y-77503329D01*
X137616903Y-77747298D01*
X138430000Y-78560395D01*
X139243097Y-77747298D01*
X139171514Y-77503329D01*
X138916004Y-77382429D01*
X138794610Y-77352000D01*
X140592383Y-77352000D01*
X140551426Y-77360147D01*
X140290273Y-77468320D01*
X140055241Y-77625363D01*
X139855363Y-77825241D01*
X139699085Y-78059128D01*
X139666671Y-77998486D01*
X139422702Y-77926903D01*
X138609605Y-78740000D01*
X139422702Y-79553097D01*
X139666671Y-79481514D01*
X139697194Y-79417008D01*
X139698320Y-79419727D01*
X139855363Y-79654759D01*
X140055241Y-79854637D01*
X140290273Y-80011680D01*
X140544208Y-80116863D01*
X140530794Y-80125826D01*
X140323826Y-80332794D01*
X140161212Y-80576162D01*
X140049202Y-80846579D01*
X139992100Y-81133652D01*
X139992100Y-81426348D01*
X140049202Y-81713421D01*
X140161212Y-81983838D01*
X140323826Y-82227206D01*
X140530794Y-82434174D01*
X140774162Y-82596788D01*
X141044579Y-82708798D01*
X141331652Y-82765900D01*
X141624348Y-82765900D01*
X141911421Y-82708798D01*
X142181838Y-82596788D01*
X142425206Y-82434174D01*
X142632174Y-82227206D01*
X142794788Y-81983838D01*
X142906798Y-81713421D01*
X142963900Y-81426348D01*
X142963900Y-81133652D01*
X142906798Y-80846579D01*
X142794788Y-80576162D01*
X142632174Y-80332794D01*
X142425206Y-80125826D01*
X142181838Y-79963212D01*
X141911421Y-79851202D01*
X141892048Y-79847348D01*
X142084637Y-79654759D01*
X142240000Y-79422241D01*
X142395363Y-79654759D01*
X142595241Y-79854637D01*
X142830273Y-80011680D01*
X143091426Y-80119853D01*
X143368665Y-80175000D01*
X143651335Y-80175000D01*
X143928574Y-80119853D01*
X144189727Y-80011680D01*
X144424759Y-79854637D01*
X144624637Y-79654759D01*
X144780000Y-79422241D01*
X144935363Y-79654759D01*
X145135241Y-79854637D01*
X145370273Y-80011680D01*
X145631426Y-80119853D01*
X145908665Y-80175000D01*
X146191335Y-80175000D01*
X146468574Y-80119853D01*
X146729727Y-80011680D01*
X146964759Y-79854637D01*
X147164637Y-79654759D01*
X147320000Y-79422241D01*
X147475363Y-79654759D01*
X147675241Y-79854637D01*
X147910273Y-80011680D01*
X148171426Y-80119853D01*
X148448665Y-80175000D01*
X148731335Y-80175000D01*
X149008574Y-80119853D01*
X149269727Y-80011680D01*
X149504759Y-79854637D01*
X149704637Y-79654759D01*
X149860000Y-79422241D01*
X150015363Y-79654759D01*
X150215241Y-79854637D01*
X150450273Y-80011680D01*
X150711426Y-80119853D01*
X150988665Y-80175000D01*
X151271335Y-80175000D01*
X151548574Y-80119853D01*
X151809727Y-80011680D01*
X152044759Y-79854637D01*
X152244637Y-79654759D01*
X152400000Y-79422241D01*
X152555363Y-79654759D01*
X152755241Y-79854637D01*
X152990273Y-80011680D01*
X153251426Y-80119853D01*
X153528665Y-80175000D01*
X153811335Y-80175000D01*
X154088574Y-80119853D01*
X154349727Y-80011680D01*
X154584759Y-79854637D01*
X154784637Y-79654759D01*
X154940000Y-79422241D01*
X155095363Y-79654759D01*
X155295241Y-79854637D01*
X155530273Y-80011680D01*
X155791426Y-80119853D01*
X156068665Y-80175000D01*
X156351335Y-80175000D01*
X156628574Y-80119853D01*
X156889727Y-80011680D01*
X157124759Y-79854637D01*
X157324637Y-79654759D01*
X157480000Y-79422241D01*
X157635363Y-79654759D01*
X157835241Y-79854637D01*
X158070273Y-80011680D01*
X158331426Y-80119853D01*
X158608665Y-80175000D01*
X158891335Y-80175000D01*
X159168574Y-80119853D01*
X159429727Y-80011680D01*
X159664759Y-79854637D01*
X159864637Y-79654759D01*
X160020000Y-79422241D01*
X160175363Y-79654759D01*
X160325811Y-79805207D01*
X160094579Y-79851202D01*
X159824162Y-79963212D01*
X159580794Y-80125826D01*
X159373826Y-80332794D01*
X159211212Y-80576162D01*
X159099202Y-80846579D01*
X159042100Y-81133652D01*
X159042100Y-81426348D01*
X159099202Y-81713421D01*
X159211212Y-81983838D01*
X159373826Y-82227206D01*
X159580794Y-82434174D01*
X159824162Y-82596788D01*
X160094579Y-82708798D01*
X160381652Y-82765900D01*
X160674348Y-82765900D01*
X160961421Y-82708798D01*
X161231838Y-82596788D01*
X161475206Y-82434174D01*
X161682174Y-82227206D01*
X161844788Y-81983838D01*
X161956798Y-81713421D01*
X162013900Y-81426348D01*
X162013900Y-81133652D01*
X178092100Y-81133652D01*
X178092100Y-81426348D01*
X178149202Y-81713421D01*
X178261212Y-81983838D01*
X178423826Y-82227206D01*
X178630794Y-82434174D01*
X178874162Y-82596788D01*
X179144579Y-82708798D01*
X179431652Y-82765900D01*
X179724348Y-82765900D01*
X180011421Y-82708798D01*
X180281838Y-82596788D01*
X180525206Y-82434174D01*
X180732174Y-82227206D01*
X180894788Y-81983838D01*
X181006798Y-81713421D01*
X181063900Y-81426348D01*
X181063900Y-81133652D01*
X197142100Y-81133652D01*
X197142100Y-81426348D01*
X197199202Y-81713421D01*
X197311212Y-81983838D01*
X197473826Y-82227206D01*
X197680794Y-82434174D01*
X197924162Y-82596788D01*
X198194579Y-82708798D01*
X198481652Y-82765900D01*
X198774348Y-82765900D01*
X199061421Y-82708798D01*
X199331838Y-82596788D01*
X199575206Y-82434174D01*
X199782174Y-82227206D01*
X199944788Y-81983838D01*
X200056798Y-81713421D01*
X200113900Y-81426348D01*
X200113900Y-81133652D01*
X200056798Y-80846579D01*
X199944788Y-80576162D01*
X199782174Y-80332794D01*
X199575206Y-80125826D01*
X199331838Y-79963212D01*
X199061421Y-79851202D01*
X198774348Y-79794100D01*
X198481652Y-79794100D01*
X198194579Y-79851202D01*
X197924162Y-79963212D01*
X197680794Y-80125826D01*
X197473826Y-80332794D01*
X197311212Y-80576162D01*
X197199202Y-80846579D01*
X197142100Y-81133652D01*
X181063900Y-81133652D01*
X181006798Y-80846579D01*
X180894788Y-80576162D01*
X180732174Y-80332794D01*
X180525206Y-80125826D01*
X180281838Y-79963212D01*
X180011421Y-79851202D01*
X179724348Y-79794100D01*
X179431652Y-79794100D01*
X179144579Y-79851202D01*
X178874162Y-79963212D01*
X178630794Y-80125826D01*
X178423826Y-80332794D01*
X178261212Y-80576162D01*
X178149202Y-80846579D01*
X178092100Y-81133652D01*
X162013900Y-81133652D01*
X161956798Y-80846579D01*
X161844788Y-80576162D01*
X161682174Y-80332794D01*
X161508943Y-80159563D01*
X161708574Y-80119853D01*
X161969727Y-80011680D01*
X162204759Y-79854637D01*
X162404637Y-79654759D01*
X162560000Y-79422241D01*
X162715363Y-79654759D01*
X162915241Y-79854637D01*
X163150273Y-80011680D01*
X163411426Y-80119853D01*
X163688665Y-80175000D01*
X163971335Y-80175000D01*
X164248574Y-80119853D01*
X164509727Y-80011680D01*
X164744759Y-79854637D01*
X164944637Y-79654759D01*
X165101680Y-79419727D01*
X165209853Y-79158574D01*
X165265000Y-78881335D01*
X165265000Y-78598665D01*
X165209853Y-78321426D01*
X165101680Y-78060273D01*
X164944637Y-77825241D01*
X164744759Y-77625363D01*
X164509727Y-77468320D01*
X164248574Y-77360147D01*
X164207617Y-77352000D01*
X189032419Y-77352000D01*
X189065387Y-77348753D01*
X189078367Y-77348753D01*
X189087532Y-77347790D01*
X189281481Y-77326035D01*
X189339966Y-77313603D01*
X189398676Y-77301978D01*
X189407479Y-77299253D01*
X189581309Y-77244110D01*
X189590242Y-77253043D01*
X189758728Y-77365622D01*
X189945939Y-77443167D01*
X190144682Y-77482700D01*
X190347318Y-77482700D01*
X190546061Y-77443167D01*
X190733272Y-77365622D01*
X190881000Y-77266913D01*
X191028728Y-77365622D01*
X191215939Y-77443167D01*
X191414682Y-77482700D01*
X191617318Y-77482700D01*
X191816061Y-77443167D01*
X192003272Y-77365622D01*
X192151000Y-77266913D01*
X192298728Y-77365622D01*
X192485939Y-77443167D01*
X192684682Y-77482700D01*
X192887318Y-77482700D01*
X193086061Y-77443167D01*
X193273272Y-77365622D01*
X193421000Y-77266913D01*
X193568728Y-77365622D01*
X193755939Y-77443167D01*
X193954682Y-77482700D01*
X194157318Y-77482700D01*
X194356061Y-77443167D01*
X194543272Y-77365622D01*
X194691000Y-77266913D01*
X194838728Y-77365622D01*
X195025939Y-77443167D01*
X195224682Y-77482700D01*
X195427318Y-77482700D01*
X195626061Y-77443167D01*
X195813272Y-77365622D01*
X195981758Y-77253043D01*
X196021958Y-77212843D01*
X196044392Y-77222090D01*
X196044392Y-77222090D01*
G37*
X196044392Y-77222090D02*
X196099366Y-77245652D01*
X196108169Y-77248377D01*
X196295006Y-77304786D01*
X196353686Y-77316405D01*
X196412196Y-77328842D01*
X196421361Y-77329805D01*
X196615594Y-77348850D01*
X196615598Y-77348850D01*
X196647581Y-77352000D01*
X207620001Y-77352000D01*
X207620000Y-95368000D01*
X196647581Y-95368000D01*
X196614613Y-95371247D01*
X196601633Y-95371247D01*
X196592468Y-95372210D01*
X196398518Y-95393965D01*
X196340019Y-95406400D01*
X196281325Y-95418022D01*
X196272522Y-95420747D01*
X196086491Y-95479760D01*
X196031509Y-95503326D01*
X196022033Y-95507232D01*
X195981758Y-95466957D01*
X195813272Y-95354378D01*
X195626061Y-95276833D01*
X195427318Y-95237300D01*
X195224682Y-95237300D01*
X195025939Y-95276833D01*
X194838728Y-95354378D01*
X194691000Y-95453087D01*
X194543272Y-95354378D01*
X194356061Y-95276833D01*
X194157318Y-95237300D01*
X193954682Y-95237300D01*
X193755939Y-95276833D01*
X193568728Y-95354378D01*
X193421000Y-95453087D01*
X193273272Y-95354378D01*
X193086061Y-95276833D01*
X192887318Y-95237300D01*
X192684682Y-95237300D01*
X192485939Y-95276833D01*
X192298728Y-95354378D01*
X192151000Y-95453087D01*
X192003272Y-95354378D01*
X191816061Y-95276833D01*
X191617318Y-95237300D01*
X191414682Y-95237300D01*
X191215939Y-95276833D01*
X191028728Y-95354378D01*
X190881000Y-95453087D01*
X190733272Y-95354378D01*
X190546061Y-95276833D01*
X190347318Y-95237300D01*
X190144682Y-95237300D01*
X189945939Y-95276833D01*
X189758728Y-95354378D01*
X189590242Y-95466957D01*
X189582186Y-95475013D01*
X189580634Y-95474348D01*
X189571831Y-95471623D01*
X189384995Y-95415214D01*
X189326307Y-95403594D01*
X189267804Y-95391158D01*
X189258639Y-95390195D01*
X189064405Y-95371150D01*
X189064402Y-95371150D01*
X189032419Y-95368000D01*
X164207617Y-95368000D01*
X164248574Y-95359853D01*
X164509727Y-95251680D01*
X164744759Y-95094637D01*
X164944637Y-94894759D01*
X165101680Y-94659727D01*
X165209853Y-94398574D01*
X165265000Y-94121335D01*
X165265000Y-93838665D01*
X165209853Y-93561426D01*
X165101680Y-93300273D01*
X164944637Y-93065241D01*
X164744759Y-92865363D01*
X164509727Y-92708320D01*
X164248574Y-92600147D01*
X163971335Y-92545000D01*
X163688665Y-92545000D01*
X163411426Y-92600147D01*
X163150273Y-92708320D01*
X162915241Y-92865363D01*
X162715363Y-93065241D01*
X162560000Y-93297759D01*
X162404637Y-93065241D01*
X162204759Y-92865363D01*
X161969727Y-92708320D01*
X161708574Y-92600147D01*
X161508943Y-92560437D01*
X161682174Y-92387206D01*
X161844788Y-92143838D01*
X161956798Y-91873421D01*
X161982353Y-91744946D01*
X162012763Y-91771034D01*
X162336336Y-91953172D01*
X162689223Y-92068683D01*
X163057865Y-92113131D01*
X163428096Y-92084806D01*
X163785686Y-91984796D01*
X164033899Y-91859007D01*
X164921328Y-91293652D01*
X178092100Y-91293652D01*
X178092100Y-91586348D01*
X178149202Y-91873421D01*
X178261212Y-92143838D01*
X178423826Y-92387206D01*
X178630794Y-92594174D01*
X178874162Y-92756788D01*
X179144579Y-92868798D01*
X179431652Y-92925900D01*
X179724348Y-92925900D01*
X180011421Y-92868798D01*
X180281838Y-92756788D01*
X180525206Y-92594174D01*
X180732174Y-92387206D01*
X180894788Y-92143838D01*
X181006798Y-91873421D01*
X181032353Y-91744946D01*
X181062763Y-91771034D01*
X181386336Y-91953172D01*
X181739223Y-92068683D01*
X182107865Y-92113131D01*
X182478096Y-92084806D01*
X182835686Y-91984796D01*
X183083899Y-91859007D01*
X183971328Y-91293652D01*
X197142100Y-91293652D01*
X197142100Y-91586348D01*
X197199202Y-91873421D01*
X197311212Y-92143838D01*
X197473826Y-92387206D01*
X197680794Y-92594174D01*
X197924162Y-92756788D01*
X198194579Y-92868798D01*
X198481652Y-92925900D01*
X198774348Y-92925900D01*
X199061421Y-92868798D01*
X199331838Y-92756788D01*
X199575206Y-92594174D01*
X199782174Y-92387206D01*
X199944788Y-92143838D01*
X200056798Y-91873421D01*
X200082353Y-91744946D01*
X200112763Y-91771034D01*
X200436336Y-91953172D01*
X200789223Y-92068683D01*
X201157865Y-92113131D01*
X201528096Y-92084806D01*
X201885686Y-91984796D01*
X202133899Y-91859007D01*
X204187720Y-90550578D01*
X204406623Y-90378782D01*
X204648387Y-90096961D01*
X204830524Y-89773389D01*
X204946036Y-89420501D01*
X204990483Y-89051859D01*
X204962158Y-88681627D01*
X204862149Y-88324037D01*
X204694299Y-87992829D01*
X204465058Y-87700730D01*
X204183237Y-87458966D01*
X203859664Y-87276829D01*
X203506777Y-87161317D01*
X203138134Y-87116869D01*
X202767903Y-87145195D01*
X202410312Y-87245204D01*
X202162100Y-87370994D01*
X200108280Y-88679422D01*
X199889377Y-88851218D01*
X199647613Y-89133040D01*
X199465475Y-89456613D01*
X199349964Y-89809500D01*
X199313076Y-90115441D01*
X199061421Y-90011202D01*
X198774348Y-89954100D01*
X198481652Y-89954100D01*
X198194579Y-90011202D01*
X197924162Y-90123212D01*
X197680794Y-90285826D01*
X197473826Y-90492794D01*
X197311212Y-90736162D01*
X197199202Y-91006579D01*
X197142100Y-91293652D01*
X183971328Y-91293652D01*
X185137720Y-90550578D01*
X185356623Y-90378782D01*
X185598387Y-90096961D01*
X185780524Y-89773389D01*
X185896036Y-89420501D01*
X185940483Y-89051859D01*
X185912158Y-88681627D01*
X185812149Y-88324037D01*
X185644299Y-87992829D01*
X185415058Y-87700730D01*
X185133237Y-87458966D01*
X184809664Y-87276829D01*
X184456777Y-87161317D01*
X184088134Y-87116869D01*
X183717903Y-87145195D01*
X183360312Y-87245204D01*
X183112100Y-87370994D01*
X181058280Y-88679422D01*
X180839377Y-88851218D01*
X180597613Y-89133040D01*
X180415475Y-89456613D01*
X180299964Y-89809500D01*
X180263076Y-90115441D01*
X180011421Y-90011202D01*
X179724348Y-89954100D01*
X179431652Y-89954100D01*
X179144579Y-90011202D01*
X178874162Y-90123212D01*
X178630794Y-90285826D01*
X178423826Y-90492794D01*
X178261212Y-90736162D01*
X178149202Y-91006579D01*
X178092100Y-91293652D01*
X164921328Y-91293652D01*
X166087720Y-90550578D01*
X166306623Y-90378782D01*
X166548387Y-90096961D01*
X166730524Y-89773389D01*
X166846036Y-89420501D01*
X166890483Y-89051859D01*
X166862158Y-88681627D01*
X166762149Y-88324037D01*
X166594299Y-87992829D01*
X166365058Y-87700730D01*
X166083237Y-87458966D01*
X165759664Y-87276829D01*
X165406777Y-87161317D01*
X165038134Y-87116869D01*
X164667903Y-87145195D01*
X164310312Y-87245204D01*
X164062100Y-87370994D01*
X162008280Y-88679422D01*
X161789377Y-88851218D01*
X161547613Y-89133040D01*
X161365475Y-89456613D01*
X161249964Y-89809500D01*
X161213076Y-90115441D01*
X160961421Y-90011202D01*
X160674348Y-89954100D01*
X160381652Y-89954100D01*
X160094579Y-90011202D01*
X159824162Y-90123212D01*
X159580794Y-90285826D01*
X159373826Y-90492794D01*
X159211212Y-90736162D01*
X159099202Y-91006579D01*
X159042100Y-91293652D01*
X159042100Y-91586348D01*
X159099202Y-91873421D01*
X159211212Y-92143838D01*
X159373826Y-92387206D01*
X159580794Y-92594174D01*
X159824162Y-92756788D01*
X160094579Y-92868798D01*
X160325811Y-92914793D01*
X160175363Y-93065241D01*
X160020000Y-93297759D01*
X159864637Y-93065241D01*
X159664759Y-92865363D01*
X159429727Y-92708320D01*
X159168574Y-92600147D01*
X158891335Y-92545000D01*
X158608665Y-92545000D01*
X158331426Y-92600147D01*
X158070273Y-92708320D01*
X157835241Y-92865363D01*
X157635363Y-93065241D01*
X157480000Y-93297759D01*
X157324637Y-93065241D01*
X157124759Y-92865363D01*
X156889727Y-92708320D01*
X156628574Y-92600147D01*
X156351335Y-92545000D01*
X156068665Y-92545000D01*
X155791426Y-92600147D01*
X155530273Y-92708320D01*
X155295241Y-92865363D01*
X155095363Y-93065241D01*
X154940000Y-93297759D01*
X154784637Y-93065241D01*
X154584759Y-92865363D01*
X154349727Y-92708320D01*
X154088574Y-92600147D01*
X153811335Y-92545000D01*
X153528665Y-92545000D01*
X153251426Y-92600147D01*
X152990273Y-92708320D01*
X152755241Y-92865363D01*
X152555363Y-93065241D01*
X152400000Y-93297759D01*
X152244637Y-93065241D01*
X152044759Y-92865363D01*
X151809727Y-92708320D01*
X151548574Y-92600147D01*
X151271335Y-92545000D01*
X150988665Y-92545000D01*
X150711426Y-92600147D01*
X150450273Y-92708320D01*
X150215241Y-92865363D01*
X150015363Y-93065241D01*
X149860000Y-93297759D01*
X149704637Y-93065241D01*
X149504759Y-92865363D01*
X149269727Y-92708320D01*
X149008574Y-92600147D01*
X148731335Y-92545000D01*
X148448665Y-92545000D01*
X148171426Y-92600147D01*
X147910273Y-92708320D01*
X147675241Y-92865363D01*
X147475363Y-93065241D01*
X147320000Y-93297759D01*
X147164637Y-93065241D01*
X146964759Y-92865363D01*
X146729727Y-92708320D01*
X146468574Y-92600147D01*
X146191335Y-92545000D01*
X145908665Y-92545000D01*
X145631426Y-92600147D01*
X145370273Y-92708320D01*
X145135241Y-92865363D01*
X144935363Y-93065241D01*
X144779085Y-93299128D01*
X144746671Y-93238486D01*
X144502702Y-93166903D01*
X143689605Y-93980000D01*
X144502702Y-94793097D01*
X144746671Y-94721514D01*
X144777194Y-94657008D01*
X144778320Y-94659727D01*
X144935363Y-94894759D01*
X145135241Y-95094637D01*
X145370273Y-95251680D01*
X145590468Y-95342888D01*
X145562728Y-95354378D01*
X145415000Y-95453087D01*
X145267272Y-95354378D01*
X145080061Y-95276833D01*
X144881318Y-95237300D01*
X144678682Y-95237300D01*
X144479939Y-95276833D01*
X144292728Y-95354378D01*
X144124242Y-95466957D01*
X144108985Y-95482214D01*
X144090634Y-95474348D01*
X144081831Y-95471623D01*
X143894995Y-95415214D01*
X143836307Y-95403594D01*
X143777804Y-95391158D01*
X143777121Y-95391086D01*
X143860130Y-95378787D01*
X144126292Y-95283603D01*
X144251514Y-95216671D01*
X144323097Y-94972702D01*
X143510000Y-94159605D01*
X142696903Y-94972702D01*
X142768486Y-95216671D01*
X143023996Y-95337571D01*
X143145390Y-95368000D01*
X141350294Y-95368000D01*
X141586292Y-95283603D01*
X141711514Y-95216671D01*
X141783097Y-94972702D01*
X140970000Y-94159605D01*
X140156903Y-94972702D01*
X140228486Y-95216671D01*
X140483996Y-95337571D01*
X140605390Y-95368000D01*
X138807617Y-95368000D01*
X138848574Y-95359853D01*
X139109727Y-95251680D01*
X139344759Y-95094637D01*
X139544637Y-94894759D01*
X139700915Y-94660872D01*
X139733329Y-94721514D01*
X139977298Y-94793097D01*
X140790395Y-93980000D01*
X141149605Y-93980000D01*
X141962702Y-94793097D01*
X142206671Y-94721514D01*
X142237971Y-94655364D01*
X142273329Y-94721514D01*
X142517298Y-94793097D01*
X143330395Y-93980000D01*
X142517298Y-93166903D01*
X142273329Y-93238486D01*
X142242029Y-93304636D01*
X142206671Y-93238486D01*
X141962702Y-93166903D01*
X141149605Y-93980000D01*
X140790395Y-93980000D01*
X139977298Y-93166903D01*
X139733329Y-93238486D01*
X139702806Y-93302992D01*
X139701680Y-93300273D01*
X139544637Y-93065241D01*
X139344759Y-92865363D01*
X139109727Y-92708320D01*
X138848574Y-92600147D01*
X138571335Y-92545000D01*
X138288665Y-92545000D01*
X138011426Y-92600147D01*
X137750273Y-92708320D01*
X137515241Y-92865363D01*
X137316643Y-93063961D01*
X137315812Y-93055518D01*
X137279502Y-92935820D01*
X137220537Y-92825506D01*
X137141185Y-92728815D01*
X137044494Y-92649463D01*
X136934180Y-92590498D01*
X136814482Y-92554188D01*
X136690000Y-92541928D01*
X135090000Y-92541928D01*
X134965518Y-92554188D01*
X134845820Y-92590498D01*
X134735506Y-92649463D01*
X134638815Y-92728815D01*
X134559463Y-92825506D01*
X134500498Y-92935820D01*
X134464188Y-93055518D01*
X134451928Y-93180000D01*
X134451928Y-94780000D01*
X134464188Y-94904482D01*
X134500498Y-95024180D01*
X134559463Y-95134494D01*
X134638815Y-95231185D01*
X134735506Y-95310537D01*
X134843010Y-95368000D01*
X132486000Y-95368000D01*
X132486000Y-91293652D01*
X139992100Y-91293652D01*
X139992100Y-91586348D01*
X140049202Y-91873421D01*
X140161212Y-92143838D01*
X140323826Y-92387206D01*
X140530794Y-92594174D01*
X140549213Y-92606481D01*
X140353708Y-92676397D01*
X140228486Y-92743329D01*
X140156903Y-92987298D01*
X140970000Y-93800395D01*
X141783097Y-92987298D01*
X142696903Y-92987298D01*
X143510000Y-93800395D01*
X144323097Y-92987298D01*
X144251514Y-92743329D01*
X143996004Y-92622429D01*
X143721816Y-92553700D01*
X143439488Y-92539783D01*
X143159870Y-92581213D01*
X142893708Y-92676397D01*
X142768486Y-92743329D01*
X142696903Y-92987298D01*
X141783097Y-92987298D01*
X141757322Y-92899450D01*
X141911421Y-92868798D01*
X142181838Y-92756788D01*
X142425206Y-92594174D01*
X142632174Y-92387206D01*
X142794788Y-92143838D01*
X142906798Y-91873421D01*
X142932353Y-91744946D01*
X142962763Y-91771034D01*
X143286336Y-91953172D01*
X143639223Y-92068683D01*
X144007865Y-92113131D01*
X144378096Y-92084806D01*
X144735686Y-91984796D01*
X144983899Y-91859007D01*
X147037720Y-90550578D01*
X147256623Y-90378782D01*
X147498387Y-90096961D01*
X147680524Y-89773389D01*
X147796036Y-89420501D01*
X147840483Y-89051859D01*
X147812158Y-88681627D01*
X147712149Y-88324037D01*
X147544299Y-87992829D01*
X147315058Y-87700730D01*
X147033237Y-87458966D01*
X146709664Y-87276829D01*
X146356777Y-87161317D01*
X145988134Y-87116869D01*
X145617903Y-87145195D01*
X145260312Y-87245204D01*
X145012100Y-87370994D01*
X142958280Y-88679422D01*
X142739377Y-88851218D01*
X142497613Y-89133040D01*
X142315475Y-89456613D01*
X142199964Y-89809500D01*
X142163076Y-90115441D01*
X141911421Y-90011202D01*
X141624348Y-89954100D01*
X141331652Y-89954100D01*
X141044579Y-90011202D01*
X140774162Y-90123212D01*
X140530794Y-90285826D01*
X140323826Y-90492794D01*
X140161212Y-90736162D01*
X140049202Y-91006579D01*
X139992100Y-91293652D01*
X132486000Y-91293652D01*
X132486000Y-86101076D01*
X138849100Y-86101076D01*
X138849100Y-86618924D01*
X138950127Y-87126822D01*
X139148299Y-87605251D01*
X139436000Y-88035826D01*
X139802174Y-88402000D01*
X140232749Y-88689701D01*
X140711178Y-88887873D01*
X141219076Y-88988900D01*
X141736924Y-88988900D01*
X142244822Y-88887873D01*
X142723251Y-88689701D01*
X143153826Y-88402000D01*
X143520000Y-88035826D01*
X143807701Y-87605251D01*
X144005873Y-87126822D01*
X144106900Y-86618924D01*
X144106900Y-86101076D01*
X157899100Y-86101076D01*
X157899100Y-86618924D01*
X158000127Y-87126822D01*
X158198299Y-87605251D01*
X158486000Y-88035826D01*
X158852174Y-88402000D01*
X159282749Y-88689701D01*
X159761178Y-88887873D01*
X160269076Y-88988900D01*
X160786924Y-88988900D01*
X161294822Y-88887873D01*
X161773251Y-88689701D01*
X162203826Y-88402000D01*
X162570000Y-88035826D01*
X162857701Y-87605251D01*
X163055873Y-87126822D01*
X163156900Y-86618924D01*
X163156900Y-86101076D01*
X176949100Y-86101076D01*
X176949100Y-86618924D01*
X177050127Y-87126822D01*
X177248299Y-87605251D01*
X177536000Y-88035826D01*
X177902174Y-88402000D01*
X178332749Y-88689701D01*
X178811178Y-88887873D01*
X179319076Y-88988900D01*
X179836924Y-88988900D01*
X180344822Y-88887873D01*
X180823251Y-88689701D01*
X181253826Y-88402000D01*
X181620000Y-88035826D01*
X181907701Y-87605251D01*
X182105873Y-87126822D01*
X182206900Y-86618924D01*
X182206900Y-86101076D01*
X195999100Y-86101076D01*
X195999100Y-86618924D01*
X196100127Y-87126822D01*
X196298299Y-87605251D01*
X196586000Y-88035826D01*
X196952174Y-88402000D01*
X197382749Y-88689701D01*
X197861178Y-88887873D01*
X198369076Y-88988900D01*
X198886924Y-88988900D01*
X199394822Y-88887873D01*
X199873251Y-88689701D01*
X200303826Y-88402000D01*
X200670000Y-88035826D01*
X200957701Y-87605251D01*
X201155873Y-87126822D01*
X201256900Y-86618924D01*
X201256900Y-86101076D01*
X201155873Y-85593178D01*
X200957701Y-85114749D01*
X200670000Y-84684174D01*
X200303826Y-84318000D01*
X199873251Y-84030299D01*
X199772461Y-83988550D01*
X201238939Y-83988550D01*
X201300382Y-84354743D01*
X201432085Y-84701913D01*
X201628989Y-85016719D01*
X201883523Y-85287061D01*
X202185908Y-85502552D01*
X202524523Y-85654910D01*
X202886355Y-85738279D01*
X203164495Y-85746656D01*
X203927916Y-85694613D01*
X204202347Y-85648566D01*
X204549517Y-85516863D01*
X204864323Y-85319959D01*
X205134665Y-85065425D01*
X205350156Y-84763040D01*
X205502514Y-84424425D01*
X205585883Y-84062593D01*
X205597061Y-83691450D01*
X205535618Y-83325257D01*
X205403914Y-82978087D01*
X205207011Y-82663281D01*
X204952477Y-82392939D01*
X204650092Y-82177448D01*
X204311477Y-82025090D01*
X203949645Y-81941721D01*
X203671504Y-81933344D01*
X202908084Y-81985387D01*
X202633653Y-82031434D01*
X202286483Y-82163137D01*
X201971677Y-82360041D01*
X201701335Y-82614575D01*
X201485844Y-82916960D01*
X201333486Y-83255575D01*
X201250117Y-83617407D01*
X201238939Y-83988550D01*
X199772461Y-83988550D01*
X199394822Y-83832127D01*
X198886924Y-83731100D01*
X198369076Y-83731100D01*
X197861178Y-83832127D01*
X197382749Y-84030299D01*
X196952174Y-84318000D01*
X196586000Y-84684174D01*
X196298299Y-85114749D01*
X196100127Y-85593178D01*
X195999100Y-86101076D01*
X182206900Y-86101076D01*
X182105873Y-85593178D01*
X181907701Y-85114749D01*
X181620000Y-84684174D01*
X181253826Y-84318000D01*
X180823251Y-84030299D01*
X180722461Y-83988550D01*
X182188939Y-83988550D01*
X182250382Y-84354743D01*
X182382085Y-84701913D01*
X182578989Y-85016719D01*
X182833523Y-85287061D01*
X183135908Y-85502552D01*
X183474523Y-85654910D01*
X183836355Y-85738279D01*
X184114495Y-85746656D01*
X184877916Y-85694613D01*
X185152347Y-85648566D01*
X185499517Y-85516863D01*
X185814323Y-85319959D01*
X186084665Y-85065425D01*
X186300156Y-84763040D01*
X186452514Y-84424425D01*
X186535883Y-84062593D01*
X186547061Y-83691450D01*
X186485618Y-83325257D01*
X186353914Y-82978087D01*
X186157011Y-82663281D01*
X185902477Y-82392939D01*
X185600092Y-82177448D01*
X185261477Y-82025090D01*
X184899645Y-81941721D01*
X184621504Y-81933344D01*
X183858084Y-81985387D01*
X183583653Y-82031434D01*
X183236483Y-82163137D01*
X182921677Y-82360041D01*
X182651335Y-82614575D01*
X182435844Y-82916960D01*
X182283486Y-83255575D01*
X182200117Y-83617407D01*
X182188939Y-83988550D01*
X180722461Y-83988550D01*
X180344822Y-83832127D01*
X179836924Y-83731100D01*
X179319076Y-83731100D01*
X178811178Y-83832127D01*
X178332749Y-84030299D01*
X177902174Y-84318000D01*
X177536000Y-84684174D01*
X177248299Y-85114749D01*
X177050127Y-85593178D01*
X176949100Y-86101076D01*
X163156900Y-86101076D01*
X163055873Y-85593178D01*
X162857701Y-85114749D01*
X162570000Y-84684174D01*
X162203826Y-84318000D01*
X161773251Y-84030299D01*
X161672461Y-83988550D01*
X163138939Y-83988550D01*
X163200382Y-84354743D01*
X163332085Y-84701913D01*
X163528989Y-85016719D01*
X163783523Y-85287061D01*
X164085908Y-85502552D01*
X164424523Y-85654910D01*
X164786355Y-85738279D01*
X165064495Y-85746656D01*
X165827916Y-85694613D01*
X166102347Y-85648566D01*
X166449517Y-85516863D01*
X166764323Y-85319959D01*
X167034665Y-85065425D01*
X167250156Y-84763040D01*
X167402514Y-84424425D01*
X167485883Y-84062593D01*
X167497061Y-83691450D01*
X167435618Y-83325257D01*
X167303914Y-82978087D01*
X167107011Y-82663281D01*
X166852477Y-82392939D01*
X166550092Y-82177448D01*
X166211477Y-82025090D01*
X165849645Y-81941721D01*
X165571504Y-81933344D01*
X164808084Y-81985387D01*
X164533653Y-82031434D01*
X164186483Y-82163137D01*
X163871677Y-82360041D01*
X163601335Y-82614575D01*
X163385844Y-82916960D01*
X163233486Y-83255575D01*
X163150117Y-83617407D01*
X163138939Y-83988550D01*
X161672461Y-83988550D01*
X161294822Y-83832127D01*
X160786924Y-83731100D01*
X160269076Y-83731100D01*
X159761178Y-83832127D01*
X159282749Y-84030299D01*
X158852174Y-84318000D01*
X158486000Y-84684174D01*
X158198299Y-85114749D01*
X158000127Y-85593178D01*
X157899100Y-86101076D01*
X144106900Y-86101076D01*
X144005873Y-85593178D01*
X143807701Y-85114749D01*
X143520000Y-84684174D01*
X143153826Y-84318000D01*
X142723251Y-84030299D01*
X142622461Y-83988550D01*
X144088939Y-83988550D01*
X144150382Y-84354743D01*
X144282085Y-84701913D01*
X144478989Y-85016719D01*
X144733523Y-85287061D01*
X145035908Y-85502552D01*
X145374523Y-85654910D01*
X145736355Y-85738279D01*
X146014495Y-85746656D01*
X146777916Y-85694613D01*
X147052347Y-85648566D01*
X147399517Y-85516863D01*
X147714323Y-85319959D01*
X147984665Y-85065425D01*
X148200156Y-84763040D01*
X148352514Y-84424425D01*
X148435883Y-84062593D01*
X148447061Y-83691450D01*
X148385618Y-83325257D01*
X148253914Y-82978087D01*
X148057011Y-82663281D01*
X147802477Y-82392939D01*
X147500092Y-82177448D01*
X147161477Y-82025090D01*
X146799645Y-81941721D01*
X146521504Y-81933344D01*
X145758084Y-81985387D01*
X145483653Y-82031434D01*
X145136483Y-82163137D01*
X144821677Y-82360041D01*
X144551335Y-82614575D01*
X144335844Y-82916960D01*
X144183486Y-83255575D01*
X144100117Y-83617407D01*
X144088939Y-83988550D01*
X142622461Y-83988550D01*
X142244822Y-83832127D01*
X141736924Y-83731100D01*
X141219076Y-83731100D01*
X140711178Y-83832127D01*
X140232749Y-84030299D01*
X139802174Y-84318000D01*
X139436000Y-84684174D01*
X139148299Y-85114749D01*
X138950127Y-85593178D01*
X138849100Y-86101076D01*
X132486000Y-86101076D01*
X132486000Y-77352000D01*
X135512383Y-77352000D01*
X135471426Y-77360147D01*
X135210273Y-77468320D01*
X134975241Y-77625363D01*
X134775363Y-77825241D01*
X134618320Y-78060273D01*
X134510147Y-78321426D01*
X134455000Y-78598665D01*
X134455000Y-78881335D01*
X134510147Y-79158574D01*
X134618320Y-79419727D01*
X134775363Y-79654759D01*
X134975241Y-79854637D01*
X135210273Y-80011680D01*
X135471426Y-80119853D01*
X135748665Y-80175000D01*
X136031335Y-80175000D01*
X136308574Y-80119853D01*
X136569727Y-80011680D01*
X136804759Y-79854637D01*
X136926694Y-79732702D01*
X137616903Y-79732702D01*
X137688486Y-79976671D01*
X137943996Y-80097571D01*
X138218184Y-80166300D01*
X138500512Y-80180217D01*
X138780130Y-80138787D01*
X139046292Y-80043603D01*
X139171514Y-79976671D01*
X139243097Y-79732702D01*
X138430000Y-78919605D01*
X137616903Y-79732702D01*
X136926694Y-79732702D01*
X137004637Y-79654759D01*
X137160915Y-79420872D01*
X137193329Y-79481514D01*
X137437298Y-79553097D01*
X138250395Y-78740000D01*
X137437298Y-77926903D01*
X137193329Y-77998486D01*
X137162806Y-78062992D01*
X137161680Y-78060273D01*
X137004637Y-77825241D01*
X136804759Y-77625363D01*
X136569727Y-77468320D01*
X136308574Y-77360147D01*
X136267617Y-77352000D01*
X138049706Y-77352000D01*
X137813708Y-77436397D01*
X137688486Y-77503329D01*
X137616903Y-77747298D01*
X138430000Y-78560395D01*
X139243097Y-77747298D01*
X139171514Y-77503329D01*
X138916004Y-77382429D01*
X138794610Y-77352000D01*
X140592383Y-77352000D01*
X140551426Y-77360147D01*
X140290273Y-77468320D01*
X140055241Y-77625363D01*
X139855363Y-77825241D01*
X139699085Y-78059128D01*
X139666671Y-77998486D01*
X139422702Y-77926903D01*
X138609605Y-78740000D01*
X139422702Y-79553097D01*
X139666671Y-79481514D01*
X139697194Y-79417008D01*
X139698320Y-79419727D01*
X139855363Y-79654759D01*
X140055241Y-79854637D01*
X140290273Y-80011680D01*
X140544208Y-80116863D01*
X140530794Y-80125826D01*
X140323826Y-80332794D01*
X140161212Y-80576162D01*
X140049202Y-80846579D01*
X139992100Y-81133652D01*
X139992100Y-81426348D01*
X140049202Y-81713421D01*
X140161212Y-81983838D01*
X140323826Y-82227206D01*
X140530794Y-82434174D01*
X140774162Y-82596788D01*
X141044579Y-82708798D01*
X141331652Y-82765900D01*
X141624348Y-82765900D01*
X141911421Y-82708798D01*
X142181838Y-82596788D01*
X142425206Y-82434174D01*
X142632174Y-82227206D01*
X142794788Y-81983838D01*
X142906798Y-81713421D01*
X142963900Y-81426348D01*
X142963900Y-81133652D01*
X142906798Y-80846579D01*
X142794788Y-80576162D01*
X142632174Y-80332794D01*
X142425206Y-80125826D01*
X142181838Y-79963212D01*
X141911421Y-79851202D01*
X141892048Y-79847348D01*
X142084637Y-79654759D01*
X142240000Y-79422241D01*
X142395363Y-79654759D01*
X142595241Y-79854637D01*
X142830273Y-80011680D01*
X143091426Y-80119853D01*
X143368665Y-80175000D01*
X143651335Y-80175000D01*
X143928574Y-80119853D01*
X144189727Y-80011680D01*
X144424759Y-79854637D01*
X144624637Y-79654759D01*
X144780000Y-79422241D01*
X144935363Y-79654759D01*
X145135241Y-79854637D01*
X145370273Y-80011680D01*
X145631426Y-80119853D01*
X145908665Y-80175000D01*
X146191335Y-80175000D01*
X146468574Y-80119853D01*
X146729727Y-80011680D01*
X146964759Y-79854637D01*
X147164637Y-79654759D01*
X147320000Y-79422241D01*
X147475363Y-79654759D01*
X147675241Y-79854637D01*
X147910273Y-80011680D01*
X148171426Y-80119853D01*
X148448665Y-80175000D01*
X148731335Y-80175000D01*
X149008574Y-80119853D01*
X149269727Y-80011680D01*
X149504759Y-79854637D01*
X149704637Y-79654759D01*
X149860000Y-79422241D01*
X150015363Y-79654759D01*
X150215241Y-79854637D01*
X150450273Y-80011680D01*
X150711426Y-80119853D01*
X150988665Y-80175000D01*
X151271335Y-80175000D01*
X151548574Y-80119853D01*
X151809727Y-80011680D01*
X152044759Y-79854637D01*
X152244637Y-79654759D01*
X152400000Y-79422241D01*
X152555363Y-79654759D01*
X152755241Y-79854637D01*
X152990273Y-80011680D01*
X153251426Y-80119853D01*
X153528665Y-80175000D01*
X153811335Y-80175000D01*
X154088574Y-80119853D01*
X154349727Y-80011680D01*
X154584759Y-79854637D01*
X154784637Y-79654759D01*
X154940000Y-79422241D01*
X155095363Y-79654759D01*
X155295241Y-79854637D01*
X155530273Y-80011680D01*
X155791426Y-80119853D01*
X156068665Y-80175000D01*
X156351335Y-80175000D01*
X156628574Y-80119853D01*
X156889727Y-80011680D01*
X157124759Y-79854637D01*
X157324637Y-79654759D01*
X157480000Y-79422241D01*
X157635363Y-79654759D01*
X157835241Y-79854637D01*
X158070273Y-80011680D01*
X158331426Y-80119853D01*
X158608665Y-80175000D01*
X158891335Y-80175000D01*
X159168574Y-80119853D01*
X159429727Y-80011680D01*
X159664759Y-79854637D01*
X159864637Y-79654759D01*
X160020000Y-79422241D01*
X160175363Y-79654759D01*
X160325811Y-79805207D01*
X160094579Y-79851202D01*
X159824162Y-79963212D01*
X159580794Y-80125826D01*
X159373826Y-80332794D01*
X159211212Y-80576162D01*
X159099202Y-80846579D01*
X159042100Y-81133652D01*
X159042100Y-81426348D01*
X159099202Y-81713421D01*
X159211212Y-81983838D01*
X159373826Y-82227206D01*
X159580794Y-82434174D01*
X159824162Y-82596788D01*
X160094579Y-82708798D01*
X160381652Y-82765900D01*
X160674348Y-82765900D01*
X160961421Y-82708798D01*
X161231838Y-82596788D01*
X161475206Y-82434174D01*
X161682174Y-82227206D01*
X161844788Y-81983838D01*
X161956798Y-81713421D01*
X162013900Y-81426348D01*
X162013900Y-81133652D01*
X178092100Y-81133652D01*
X178092100Y-81426348D01*
X178149202Y-81713421D01*
X178261212Y-81983838D01*
X178423826Y-82227206D01*
X178630794Y-82434174D01*
X178874162Y-82596788D01*
X179144579Y-82708798D01*
X179431652Y-82765900D01*
X179724348Y-82765900D01*
X180011421Y-82708798D01*
X180281838Y-82596788D01*
X180525206Y-82434174D01*
X180732174Y-82227206D01*
X180894788Y-81983838D01*
X181006798Y-81713421D01*
X181063900Y-81426348D01*
X181063900Y-81133652D01*
X197142100Y-81133652D01*
X197142100Y-81426348D01*
X197199202Y-81713421D01*
X197311212Y-81983838D01*
X197473826Y-82227206D01*
X197680794Y-82434174D01*
X197924162Y-82596788D01*
X198194579Y-82708798D01*
X198481652Y-82765900D01*
X198774348Y-82765900D01*
X199061421Y-82708798D01*
X199331838Y-82596788D01*
X199575206Y-82434174D01*
X199782174Y-82227206D01*
X199944788Y-81983838D01*
X200056798Y-81713421D01*
X200113900Y-81426348D01*
X200113900Y-81133652D01*
X200056798Y-80846579D01*
X199944788Y-80576162D01*
X199782174Y-80332794D01*
X199575206Y-80125826D01*
X199331838Y-79963212D01*
X199061421Y-79851202D01*
X198774348Y-79794100D01*
X198481652Y-79794100D01*
X198194579Y-79851202D01*
X197924162Y-79963212D01*
X197680794Y-80125826D01*
X197473826Y-80332794D01*
X197311212Y-80576162D01*
X197199202Y-80846579D01*
X197142100Y-81133652D01*
X181063900Y-81133652D01*
X181006798Y-80846579D01*
X180894788Y-80576162D01*
X180732174Y-80332794D01*
X180525206Y-80125826D01*
X180281838Y-79963212D01*
X180011421Y-79851202D01*
X179724348Y-79794100D01*
X179431652Y-79794100D01*
X179144579Y-79851202D01*
X178874162Y-79963212D01*
X178630794Y-80125826D01*
X178423826Y-80332794D01*
X178261212Y-80576162D01*
X178149202Y-80846579D01*
X178092100Y-81133652D01*
X162013900Y-81133652D01*
X161956798Y-80846579D01*
X161844788Y-80576162D01*
X161682174Y-80332794D01*
X161508943Y-80159563D01*
X161708574Y-80119853D01*
X161969727Y-80011680D01*
X162204759Y-79854637D01*
X162404637Y-79654759D01*
X162560000Y-79422241D01*
X162715363Y-79654759D01*
X162915241Y-79854637D01*
X163150273Y-80011680D01*
X163411426Y-80119853D01*
X163688665Y-80175000D01*
X163971335Y-80175000D01*
X164248574Y-80119853D01*
X164509727Y-80011680D01*
X164744759Y-79854637D01*
X164944637Y-79654759D01*
X165101680Y-79419727D01*
X165209853Y-79158574D01*
X165265000Y-78881335D01*
X165265000Y-78598665D01*
X165209853Y-78321426D01*
X165101680Y-78060273D01*
X164944637Y-77825241D01*
X164744759Y-77625363D01*
X164509727Y-77468320D01*
X164248574Y-77360147D01*
X164207617Y-77352000D01*
X189032419Y-77352000D01*
X189065387Y-77348753D01*
X189078367Y-77348753D01*
X189087532Y-77347790D01*
X189281481Y-77326035D01*
X189339966Y-77313603D01*
X189398676Y-77301978D01*
X189407479Y-77299253D01*
X189581309Y-77244110D01*
X189590242Y-77253043D01*
X189758728Y-77365622D01*
X189945939Y-77443167D01*
X190144682Y-77482700D01*
X190347318Y-77482700D01*
X190546061Y-77443167D01*
X190733272Y-77365622D01*
X190881000Y-77266913D01*
X191028728Y-77365622D01*
X191215939Y-77443167D01*
X191414682Y-77482700D01*
X191617318Y-77482700D01*
X191816061Y-77443167D01*
X192003272Y-77365622D01*
X192151000Y-77266913D01*
X192298728Y-77365622D01*
X192485939Y-77443167D01*
X192684682Y-77482700D01*
X192887318Y-77482700D01*
X193086061Y-77443167D01*
X193273272Y-77365622D01*
X193421000Y-77266913D01*
X193568728Y-77365622D01*
X193755939Y-77443167D01*
X193954682Y-77482700D01*
X194157318Y-77482700D01*
X194356061Y-77443167D01*
X194543272Y-77365622D01*
X194691000Y-77266913D01*
X194838728Y-77365622D01*
X195025939Y-77443167D01*
X195224682Y-77482700D01*
X195427318Y-77482700D01*
X195626061Y-77443167D01*
X195813272Y-77365622D01*
X195981758Y-77253043D01*
X196021958Y-77212843D01*
X196044392Y-77222090D01*
M02*
