M48
; DRILL file {KiCad (5.1.4-0-10_14)} date Tuesday, February 23, 2021 at 02:22:48 PM
; FORMAT={-:-/ absolute / inch / decimal}
; #@! TF.CreationDate,2021-02-23T14:22:48-08:00
; #@! TF.GenerationSoftware,Kicad,Pcbnew,(5.1.4-0-10_14)
FMAT,2
INCH
T1C0.0433
T2C0.0591
T3C0.1102
T4C0.1260
T5C0.0200
T6C0.0310
T7C0.0500
T8C0.0670
T9C0.1570
%
G90
G05
T1
X5.35Y-3.1
X5.35Y-3.7
X5.45Y-3.1
X5.45Y-3.7
X5.55Y-3.1
X5.55Y-3.7
X5.65Y-3.1
X5.65Y-3.7
X5.75Y-3.1
X5.75Y-3.7
X5.85Y-3.1
X5.85Y-3.7
X5.95Y-3.1
X5.95Y-3.7
X6.05Y-3.1
X6.05Y-3.7
X6.15Y-3.1
X6.15Y-3.7
X6.25Y-3.1
X6.25Y-3.7
X6.35Y-3.1
X6.35Y-3.7
X6.45Y-3.1
X6.45Y-3.7
T3
X8.24Y-3.9794
X5.12Y-3.9794
X8.24Y-4.8094
X5.12Y-4.8094
X8.24Y-1.99
X5.12Y-2.82
X8.24Y-2.82
X5.12Y-1.99
T4
X6.79Y-2.41
T6
X5.7Y-3.01
X5.75Y-3.01
X5.8Y-3.01
X5.7Y-3.85
X5.75Y-3.85
X5.85Y-3.01
X5.9Y-3.01
X7.49Y-3.01
X7.54Y-3.01
X7.59Y-3.01
X7.64Y-3.01
X7.69Y-3.01
X7.49Y-2.95
X7.54Y-2.95
X7.59Y-2.95
X7.64Y-2.95
X7.69Y-2.95
X7.49Y-3.85
X7.54Y-3.85
X7.59Y-3.85
X7.64Y-3.85
X7.69Y-3.85
X5.7Y-2.95
X5.75Y-2.95
X5.8Y-2.95
X5.85Y-2.95
X5.9Y-2.95
X5.8Y-3.85
X5.85Y-3.85
X5.9Y-3.85
X7.49Y-3.79
X7.54Y-3.79
X7.59Y-3.79
X7.64Y-3.79
X7.69Y-3.79
X5.7Y-3.79
X5.75Y-3.79
X5.8Y-3.79
X5.85Y-3.79
X5.9Y-3.79
T8
X7.07Y-3.2
X7.07Y-3.6
X5.57Y-3.2
X5.57Y-3.6
X7.82Y-3.2
X7.82Y-3.6
X6.32Y-3.2
X6.32Y-3.6
T9
X6.32Y-3.4
X7.07Y-3.4
X5.57Y-3.4
X7.82Y-3.4
T2
G00X7.1712Y-3.5519
M15
G01X7.2459Y-3.5044
M16
G05
G00X7.2472Y-3.3016
M15
G01X7.27Y-3.3
M16
G05
G00X5.6712Y-3.5519
M15
G01X5.7459Y-3.5044
M16
G05
G00X5.7472Y-3.3016
M15
G01X5.77Y-3.3
M16
G05
G00X7.9212Y-3.5519
M15
G01X7.9959Y-3.5044
M16
G05
G00X7.9972Y-3.3016
M15
G01X8.02Y-3.3
M16
G05
G00X6.4212Y-3.5519
M15
G01X6.4959Y-3.5044
M16
G05
G00X6.4972Y-3.3016
M15
G01X6.52Y-3.3
M16
G05
T5
G00X7.555Y-4.6864
M15
G01X7.555Y-4.0924
M16
G05
G00X7.555Y-4.0919
M15
G01X7.715Y-4.0919
M16
G05
G00X7.555Y-4.6869
M15
G01X7.715Y-4.6869
M16
G05
G00X7.715Y-4.1244
M15
G01X7.715Y-4.0919
M16
G05
G00X7.715Y-4.6869
M15
G01X7.715Y-4.6544
M16
G05
G00X7.715Y-4.1244
M15
G01X7.925Y-4.1244
M16
G05
G00X7.715Y-4.6544
M15
G01X7.925Y-4.6544
M16
G05
G00X7.925Y-4.1244
M15
G01X7.925Y-4.0919
M16
G05
G00X7.925Y-4.6869
M15
G01X7.925Y-4.6544
M16
G05
G00X6.805Y-4.6864
M15
G01X6.805Y-4.0924
M16
G05
G00X6.805Y-4.0919
M15
G01X6.965Y-4.0919
M16
G05
G00X6.805Y-4.6869
M15
G01X6.965Y-4.6869
M16
G05
G00X6.965Y-4.1244
M15
G01X6.965Y-4.0919
M16
G05
G00X7.925Y-4.0919
M15
G01X8.085Y-4.0919
M16
G05
G00X7.925Y-4.6869
M15
G01X8.085Y-4.6869
M16
G05
G00X8.085Y-4.6864
M15
G01X8.085Y-4.0924
M16
G05
G00X6.055Y-4.6864
M15
G01X6.055Y-4.0924
M16
G05
G00X6.055Y-4.0919
M15
G01X6.215Y-4.0919
M16
G05
G00X6.055Y-4.6869
M15
G01X6.215Y-4.6869
M16
G05
G00X6.215Y-4.1244
M15
G01X6.215Y-4.0919
M16
G05
G00X6.215Y-4.6869
M15
G01X6.215Y-4.6544
M16
G05
G00X6.215Y-4.1244
M15
G01X6.425Y-4.1244
M16
G05
G00X6.215Y-4.6544
M15
G01X6.425Y-4.6544
M16
G05
G00X6.425Y-4.1244
M15
G01X6.425Y-4.0919
M16
G05
G00X6.425Y-4.6869
M15
G01X6.425Y-4.6544
M16
G05
G00X6.425Y-4.0919
M15
G01X6.585Y-4.0919
M16
G05
G00X6.425Y-4.6869
M15
G01X6.585Y-4.6869
M16
G05
G00X6.585Y-4.6864
M15
G01X6.585Y-4.0924
M16
G05
G00X6.965Y-4.6869
M15
G01X6.965Y-4.6544
M16
G05
G00X5.305Y-4.6864
M15
G01X5.305Y-4.0924
M16
G05
G00X5.305Y-4.0919
M15
G01X5.465Y-4.0919
M16
G05
G00X5.305Y-4.6869
M15
G01X5.465Y-4.6869
M16
G05
G00X6.965Y-4.6544
M15
G01X7.175Y-4.6544
M16
G05
G00X6.965Y-4.1244
M15
G01X7.175Y-4.1244
M16
G05
G00X7.175Y-4.1244
M15
G01X7.175Y-4.0919
M16
G05
G00X7.175Y-4.6869
M15
G01X7.175Y-4.6544
M16
G05
G00X7.335Y-4.6864
M15
G01X7.335Y-4.0924
M16
G05
G00X5.835Y-4.6864
M15
G01X5.835Y-4.0924
M16
G05
G00X7.175Y-4.0919
M15
G01X7.335Y-4.0919
M16
G05
G00X7.175Y-4.6869
M15
G01X7.335Y-4.6869
M16
G05
G00X5.465Y-4.1244
M15
G01X5.465Y-4.0919
M16
G05
G00X5.465Y-4.6869
M15
G01X5.465Y-4.6544
M16
G05
G00X5.465Y-4.1244
M15
G01X5.675Y-4.1244
M16
G05
G00X5.465Y-4.6544
M15
G01X5.675Y-4.6544
M16
G05
G00X5.675Y-4.1244
M15
G01X5.675Y-4.0919
M16
G05
G00X5.675Y-4.6869
M15
G01X5.675Y-4.6544
M16
G05
G00X5.675Y-4.0919
M15
G01X5.835Y-4.0919
M16
G05
G00X5.675Y-4.6869
M15
G01X5.835Y-4.6869
M16
G05
T7
G00X7.545Y-4.4644
M15
G01X7.545Y-4.3144
M16
G05
G00X8.095Y-4.4644
M15
G01X8.095Y-4.3144
M16
G05
G00X6.045Y-4.4644
M15
G01X6.045Y-4.3144
M16
G05
G00X6.595Y-4.4644
M15
G01X6.595Y-4.3144
M16
G05
G00X5.295Y-4.4644
M15
G01X5.295Y-4.3144
M16
G05
G00X5.845Y-4.4644
M15
G01X5.845Y-4.3144
M16
G05
G00X6.795Y-4.4644
M15
G01X6.795Y-4.3144
M16
G05
G00X7.345Y-4.4644
M15
G01X7.345Y-4.3144
M16
G05
T0
M30
