G04 #@! TF.GenerationSoftware,KiCad,Pcbnew,(5.1.4-0-10_14)*
G04 #@! TF.CreationDate,2021-02-24T12:11:34-08:00*
G04 #@! TF.ProjectId,fourkey,666f7572-6b65-4792-9e6b-696361645f70,rev?*
G04 #@! TF.SameCoordinates,Original*
G04 #@! TF.FileFunction,Legend,Bot*
G04 #@! TF.FilePolarity,Positive*
%FSLAX46Y46*%
G04 Gerber Fmt 4.6, Leading zero omitted, Abs format (unit mm)*
G04 Created by KiCad (PCBNEW (5.1.4-0-10_14)) date 2021-02-24 12:11:34*
%MOMM*%
%LPD*%
G04 APERTURE LIST*
%ADD10C,0.150000*%
%ADD11C,0.381000*%
G04 APERTURE END LIST*
D10*
X133035858Y-93583238D02*
X133035858Y-95583238D01*
X133535858Y-94154666D01*
X134035858Y-95583238D01*
X134035858Y-93583238D01*
X134750143Y-93583238D02*
X134750143Y-95583238D01*
X136321572Y-93773714D02*
X136250143Y-93678476D01*
X136035858Y-93583238D01*
X135893001Y-93583238D01*
X135678715Y-93678476D01*
X135535858Y-93868952D01*
X135464429Y-94059428D01*
X135393001Y-94440380D01*
X135393001Y-94726095D01*
X135464429Y-95107047D01*
X135535858Y-95297523D01*
X135678715Y-95488000D01*
X135893001Y-95583238D01*
X136035858Y-95583238D01*
X136250143Y-95488000D01*
X136321572Y-95392761D01*
X75100142Y-95583238D02*
X75600142Y-93583238D01*
X76100142Y-95583238D01*
X76600142Y-93583238D02*
X76600142Y-95583238D01*
X77314428Y-94630857D02*
X77814428Y-94630857D01*
X78028714Y-93583238D02*
X77314428Y-93583238D01*
X77314428Y-95583238D01*
X78028714Y-95583238D01*
X78528714Y-95583238D02*
X78885857Y-93583238D01*
X79171571Y-95011809D01*
X79457285Y-93583238D01*
X79814428Y-95583238D01*
X93435858Y-93773714D02*
X93364429Y-93678476D01*
X93150143Y-93583238D01*
X93007286Y-93583238D01*
X92793001Y-93678476D01*
X92650143Y-93868952D01*
X92578715Y-94059428D01*
X92507286Y-94440380D01*
X92507286Y-94726095D01*
X92578715Y-95107047D01*
X92650143Y-95297523D01*
X92793001Y-95488000D01*
X93007286Y-95583238D01*
X93150143Y-95583238D01*
X93364429Y-95488000D01*
X93435858Y-95392761D01*
X94007286Y-94154666D02*
X94721572Y-94154666D01*
X93864429Y-93583238D02*
X94364429Y-95583238D01*
X94864429Y-93583238D01*
X95364429Y-93583238D02*
X95364429Y-95583238D01*
X95864429Y-94154666D01*
X96364429Y-95583238D01*
X96364429Y-93583238D01*
X97078715Y-94630857D02*
X97578715Y-94630857D01*
X97793001Y-93583238D02*
X97078715Y-93583238D01*
X97078715Y-95583238D01*
X97793001Y-95583238D01*
X99293001Y-93583238D02*
X98793001Y-94535619D01*
X98435858Y-93583238D02*
X98435858Y-95583238D01*
X99007286Y-95583238D01*
X99150143Y-95488000D01*
X99221572Y-95392761D01*
X99293001Y-95202285D01*
X99293001Y-94916571D01*
X99221572Y-94726095D01*
X99150143Y-94630857D01*
X99007286Y-94535619D01*
X98435858Y-94535619D01*
X99864429Y-94154666D02*
X100578715Y-94154666D01*
X99721572Y-93583238D02*
X100221572Y-95583238D01*
X100721572Y-93583238D01*
X112985858Y-93583238D02*
X112985858Y-95583238D01*
X112985858Y-94630857D02*
X113843001Y-94630857D01*
X113843001Y-93583238D02*
X113843001Y-95583238D01*
X114485858Y-94154666D02*
X115200143Y-94154666D01*
X114343001Y-93583238D02*
X114843001Y-95583238D01*
X115343001Y-93583238D01*
X115843001Y-93583238D02*
X115843001Y-95583238D01*
X116700143Y-93583238D01*
X116700143Y-95583238D01*
X117414429Y-93583238D02*
X117414429Y-95583238D01*
X117771572Y-95583238D01*
X117985858Y-95488000D01*
X118128715Y-95297523D01*
X118200143Y-95107047D01*
X118271572Y-94726095D01*
X118271572Y-94440380D01*
X118200143Y-94059428D01*
X118128715Y-93868952D01*
X117985858Y-93678476D01*
X117771572Y-93583238D01*
X117414429Y-93583238D01*
X136250142Y-115966761D02*
X136250142Y-113966761D01*
X135750142Y-115395333D01*
X135250142Y-113966761D01*
X135250142Y-115966761D01*
X134535857Y-115966761D02*
X134535857Y-113966761D01*
X132964428Y-115776285D02*
X133035857Y-115871523D01*
X133250142Y-115966761D01*
X133393000Y-115966761D01*
X133607285Y-115871523D01*
X133750142Y-115681047D01*
X133821571Y-115490571D01*
X133893000Y-115109619D01*
X133893000Y-114823904D01*
X133821571Y-114442952D01*
X133750142Y-114252476D01*
X133607285Y-114062000D01*
X133393000Y-113966761D01*
X133250142Y-113966761D01*
X133035857Y-114062000D01*
X132964428Y-114157238D01*
X118200142Y-115966761D02*
X118200142Y-113966761D01*
X118200142Y-114919142D02*
X117343000Y-114919142D01*
X117343000Y-115966761D02*
X117343000Y-113966761D01*
X116700142Y-115395333D02*
X115985857Y-115395333D01*
X116843000Y-115966761D02*
X116343000Y-113966761D01*
X115843000Y-115966761D01*
X115343000Y-115966761D02*
X115343000Y-113966761D01*
X114485857Y-115966761D01*
X114485857Y-113966761D01*
X113771571Y-115966761D02*
X113771571Y-113966761D01*
X113414428Y-113966761D01*
X113200142Y-114062000D01*
X113057285Y-114252476D01*
X112985857Y-114442952D01*
X112914428Y-114823904D01*
X112914428Y-115109619D01*
X112985857Y-115490571D01*
X113057285Y-115681047D01*
X113200142Y-115871523D01*
X113414428Y-115966761D01*
X113771571Y-115966761D01*
X99650142Y-115776285D02*
X99721571Y-115871523D01*
X99935857Y-115966761D01*
X100078714Y-115966761D01*
X100293000Y-115871523D01*
X100435857Y-115681047D01*
X100507285Y-115490571D01*
X100578714Y-115109619D01*
X100578714Y-114823904D01*
X100507285Y-114442952D01*
X100435857Y-114252476D01*
X100293000Y-114062000D01*
X100078714Y-113966761D01*
X99935857Y-113966761D01*
X99721571Y-114062000D01*
X99650142Y-114157238D01*
X99078714Y-115395333D02*
X98364428Y-115395333D01*
X99221571Y-115966761D02*
X98721571Y-113966761D01*
X98221571Y-115966761D01*
X97721571Y-115966761D02*
X97721571Y-113966761D01*
X97221571Y-115395333D01*
X96721571Y-113966761D01*
X96721571Y-115966761D01*
X96007285Y-114919142D02*
X95507285Y-114919142D01*
X95293000Y-115966761D02*
X96007285Y-115966761D01*
X96007285Y-113966761D01*
X95293000Y-113966761D01*
X93793000Y-115966761D02*
X94293000Y-115014380D01*
X94650142Y-115966761D02*
X94650142Y-113966761D01*
X94078714Y-113966761D01*
X93935857Y-114062000D01*
X93864428Y-114157238D01*
X93793000Y-114347714D01*
X93793000Y-114633428D01*
X93864428Y-114823904D01*
X93935857Y-114919142D01*
X94078714Y-115014380D01*
X94650142Y-115014380D01*
X93221571Y-115395333D02*
X92507285Y-115395333D01*
X93364428Y-115966761D02*
X92864428Y-113966761D01*
X92364428Y-115966761D01*
X79885856Y-113966761D02*
X79385856Y-115966761D01*
X78885856Y-113966761D01*
X78385856Y-115966761D02*
X78385856Y-113966761D01*
X77671570Y-114919142D02*
X77171570Y-114919142D01*
X76957284Y-115966761D02*
X77671570Y-115966761D01*
X77671570Y-113966761D01*
X76957284Y-113966761D01*
X76457284Y-113966761D02*
X76100141Y-115966761D01*
X75814427Y-114538190D01*
X75528713Y-115966761D01*
X75171570Y-113966761D01*
X104007142Y-53927428D02*
X104007142Y-55546476D01*
X104078571Y-55736952D01*
X104150000Y-55832190D01*
X104292857Y-55927428D01*
X104507142Y-55927428D01*
X104650000Y-55832190D01*
X104007142Y-55165523D02*
X104150000Y-55260761D01*
X104435714Y-55260761D01*
X104578571Y-55165523D01*
X104650000Y-55070285D01*
X104721428Y-54879809D01*
X104721428Y-54308380D01*
X104650000Y-54117904D01*
X104578571Y-54022666D01*
X104435714Y-53927428D01*
X104150000Y-53927428D01*
X104007142Y-54022666D01*
X103292857Y-55260761D02*
X103292857Y-53927428D01*
X103292857Y-53260761D02*
X103364285Y-53356000D01*
X103292857Y-53451238D01*
X103221428Y-53356000D01*
X103292857Y-53260761D01*
X103292857Y-53451238D01*
X102792857Y-53927428D02*
X102221428Y-53927428D01*
X102578571Y-53260761D02*
X102578571Y-54975047D01*
X102507142Y-55165523D01*
X102364285Y-55260761D01*
X102221428Y-55260761D01*
X101721428Y-55260761D02*
X101721428Y-53260761D01*
X101078571Y-55260761D02*
X101078571Y-54213142D01*
X101150000Y-54022666D01*
X101292857Y-53927428D01*
X101507142Y-53927428D01*
X101650000Y-54022666D01*
X101721428Y-54117904D01*
X99721428Y-53927428D02*
X99721428Y-55260761D01*
X100364285Y-53927428D02*
X100364285Y-54975047D01*
X100292857Y-55165523D01*
X100150000Y-55260761D01*
X99935714Y-55260761D01*
X99792857Y-55165523D01*
X99721428Y-55070285D01*
X99007142Y-55260761D02*
X99007142Y-53260761D01*
X99007142Y-54022666D02*
X98864285Y-53927428D01*
X98578571Y-53927428D01*
X98435714Y-54022666D01*
X98364285Y-54117904D01*
X98292857Y-54308380D01*
X98292857Y-54879809D01*
X98364285Y-55070285D01*
X98435714Y-55165523D01*
X98578571Y-55260761D01*
X98864285Y-55260761D01*
X99007142Y-55165523D01*
X97650000Y-55070285D02*
X97578571Y-55165523D01*
X97650000Y-55260761D01*
X97721428Y-55165523D01*
X97650000Y-55070285D01*
X97650000Y-55260761D01*
X96292857Y-55165523D02*
X96435714Y-55260761D01*
X96721428Y-55260761D01*
X96864285Y-55165523D01*
X96935714Y-55070285D01*
X97007142Y-54879809D01*
X97007142Y-54308380D01*
X96935714Y-54117904D01*
X96864285Y-54022666D01*
X96721428Y-53927428D01*
X96435714Y-53927428D01*
X96292857Y-54022666D01*
X95435714Y-55260761D02*
X95578571Y-55165523D01*
X95650000Y-55070285D01*
X95721428Y-54879809D01*
X95721428Y-54308380D01*
X95650000Y-54117904D01*
X95578571Y-54022666D01*
X95435714Y-53927428D01*
X95221428Y-53927428D01*
X95078571Y-54022666D01*
X95007142Y-54117904D01*
X94935714Y-54308380D01*
X94935714Y-54879809D01*
X95007142Y-55070285D01*
X95078571Y-55165523D01*
X95221428Y-55260761D01*
X95435714Y-55260761D01*
X94292857Y-55260761D02*
X94292857Y-53927428D01*
X94292857Y-54117904D02*
X94221428Y-54022666D01*
X94078571Y-53927428D01*
X93864285Y-53927428D01*
X93721428Y-54022666D01*
X93650000Y-54213142D01*
X93650000Y-55260761D01*
X93650000Y-54213142D02*
X93578571Y-54022666D01*
X93435714Y-53927428D01*
X93221428Y-53927428D01*
X93078571Y-54022666D01*
X93007142Y-54213142D01*
X93007142Y-55260761D01*
X91221428Y-53165523D02*
X92507142Y-55736952D01*
X90935714Y-53927428D02*
X90364285Y-53927428D01*
X90721428Y-53260761D02*
X90721428Y-54975047D01*
X90650000Y-55165523D01*
X90507142Y-55260761D01*
X90364285Y-55260761D01*
X89864285Y-55260761D02*
X89864285Y-53927428D01*
X89864285Y-54308380D02*
X89792857Y-54117904D01*
X89721428Y-54022666D01*
X89578571Y-53927428D01*
X89435714Y-53927428D01*
X88364285Y-55165523D02*
X88507142Y-55260761D01*
X88792857Y-55260761D01*
X88935714Y-55165523D01*
X89007142Y-54975047D01*
X89007142Y-54213142D01*
X88935714Y-54022666D01*
X88792857Y-53927428D01*
X88507142Y-53927428D01*
X88364285Y-54022666D01*
X88292857Y-54213142D01*
X88292857Y-54403619D01*
X89007142Y-54594095D01*
X87650000Y-53927428D02*
X87650000Y-55927428D01*
X87650000Y-54022666D02*
X87507142Y-53927428D01*
X87221428Y-53927428D01*
X87078571Y-54022666D01*
X87007142Y-54117904D01*
X86935714Y-54308380D01*
X86935714Y-54879809D01*
X87007142Y-55070285D01*
X87078571Y-55165523D01*
X87221428Y-55260761D01*
X87507142Y-55260761D01*
X87650000Y-55165523D01*
X86292857Y-55260761D02*
X86292857Y-53927428D01*
X86292857Y-54117904D02*
X86221428Y-54022666D01*
X86078571Y-53927428D01*
X85864285Y-53927428D01*
X85721428Y-54022666D01*
X85650000Y-54213142D01*
X85650000Y-55260761D01*
X85650000Y-54213142D02*
X85578571Y-54022666D01*
X85435714Y-53927428D01*
X85221428Y-53927428D01*
X85078571Y-54022666D01*
X85007142Y-54213142D01*
X85007142Y-55260761D01*
X83650000Y-55260761D02*
X83650000Y-54213142D01*
X83721428Y-54022666D01*
X83864285Y-53927428D01*
X84150000Y-53927428D01*
X84292857Y-54022666D01*
X83650000Y-55165523D02*
X83792857Y-55260761D01*
X84150000Y-55260761D01*
X84292857Y-55165523D01*
X84364285Y-54975047D01*
X84364285Y-54784571D01*
X84292857Y-54594095D01*
X84150000Y-54498857D01*
X83792857Y-54498857D01*
X83650000Y-54403619D01*
X82721428Y-55260761D02*
X82864285Y-55165523D01*
X82935714Y-54975047D01*
X82935714Y-53260761D01*
X81078571Y-53165523D02*
X82364285Y-55736952D01*
X80792857Y-53927428D02*
X80221428Y-53927428D01*
X80578571Y-55260761D02*
X80578571Y-53546476D01*
X80507142Y-53356000D01*
X80364285Y-53260761D01*
X80221428Y-53260761D01*
X79507142Y-55260761D02*
X79650000Y-55165523D01*
X79721428Y-55070285D01*
X79792857Y-54879809D01*
X79792857Y-54308380D01*
X79721428Y-54117904D01*
X79650000Y-54022666D01*
X79507142Y-53927428D01*
X79292857Y-53927428D01*
X79150000Y-54022666D01*
X79078571Y-54117904D01*
X79007142Y-54308380D01*
X79007142Y-54879809D01*
X79078571Y-55070285D01*
X79150000Y-55165523D01*
X79292857Y-55260761D01*
X79507142Y-55260761D01*
X77721428Y-53927428D02*
X77721428Y-55260761D01*
X78364285Y-53927428D02*
X78364285Y-54975047D01*
X78292857Y-55165523D01*
X78150000Y-55260761D01*
X77935714Y-55260761D01*
X77792857Y-55165523D01*
X77721428Y-55070285D01*
X77007142Y-55260761D02*
X77007142Y-53927428D01*
X77007142Y-54308380D02*
X76935714Y-54117904D01*
X76864285Y-54022666D01*
X76721428Y-53927428D01*
X76578571Y-53927428D01*
X76078571Y-55260761D02*
X76078571Y-53260761D01*
X75935714Y-54498857D02*
X75507142Y-55260761D01*
X75507142Y-53927428D02*
X76078571Y-54689333D01*
X74292857Y-55165523D02*
X74435714Y-55260761D01*
X74721428Y-55260761D01*
X74864285Y-55165523D01*
X74935714Y-54975047D01*
X74935714Y-54213142D01*
X74864285Y-54022666D01*
X74721428Y-53927428D01*
X74435714Y-53927428D01*
X74292857Y-54022666D01*
X74221428Y-54213142D01*
X74221428Y-54403619D01*
X74935714Y-54594095D01*
X73721428Y-53927428D02*
X73364285Y-55260761D01*
X73007142Y-53927428D02*
X73364285Y-55260761D01*
X73507142Y-55736952D01*
X73578571Y-55832190D01*
X73721428Y-55927428D01*
D11*
X102997000Y-85852000D02*
X102997000Y-84074000D01*
X102997000Y-74930000D02*
X102997000Y-73152000D01*
X102997000Y-73152000D02*
X101219000Y-73152000D01*
X92075000Y-73152000D02*
X90297000Y-73152000D01*
X90297000Y-73152000D02*
X90297000Y-74930000D01*
X90297000Y-84074000D02*
X90297000Y-85852000D01*
X90297000Y-85852000D02*
X92075000Y-85852000D01*
X101219000Y-85852000D02*
X102997000Y-85852000D01*
X82169000Y-85852000D02*
X83947000Y-85852000D01*
X71247000Y-85852000D02*
X73025000Y-85852000D01*
X71247000Y-84074000D02*
X71247000Y-85852000D01*
X71247000Y-73152000D02*
X71247000Y-74930000D01*
X73025000Y-73152000D02*
X71247000Y-73152000D01*
X83947000Y-73152000D02*
X82169000Y-73152000D01*
X83947000Y-74930000D02*
X83947000Y-73152000D01*
X83947000Y-85852000D02*
X83947000Y-84074000D01*
D10*
X101600000Y-88392000D02*
X101600000Y-70612000D01*
X71120000Y-88392000D02*
X101600000Y-88392000D01*
X71120000Y-83312000D02*
X71120000Y-88392000D01*
X68580000Y-83312000D02*
X71120000Y-83312000D01*
X68580000Y-75692000D02*
X68580000Y-83312000D01*
X71120000Y-75692000D02*
X68580000Y-75692000D01*
X71120000Y-70612000D02*
X71120000Y-75692000D01*
X71120000Y-70612000D02*
X101600000Y-70612000D01*
D11*
X120269000Y-85852000D02*
X122047000Y-85852000D01*
X109347000Y-85852000D02*
X111125000Y-85852000D01*
X109347000Y-84074000D02*
X109347000Y-85852000D01*
X109347000Y-73152000D02*
X109347000Y-74930000D01*
X111125000Y-73152000D02*
X109347000Y-73152000D01*
X122047000Y-73152000D02*
X120269000Y-73152000D01*
X122047000Y-74930000D02*
X122047000Y-73152000D01*
X122047000Y-85852000D02*
X122047000Y-84074000D01*
X141097000Y-85852000D02*
X141097000Y-84074000D01*
X141097000Y-74930000D02*
X141097000Y-73152000D01*
X141097000Y-73152000D02*
X139319000Y-73152000D01*
X130175000Y-73152000D02*
X128397000Y-73152000D01*
X128397000Y-73152000D02*
X128397000Y-74930000D01*
X128397000Y-84074000D02*
X128397000Y-85852000D01*
X128397000Y-85852000D02*
X130175000Y-85852000D01*
X139319000Y-85852000D02*
X141097000Y-85852000D01*
M02*
