G04 #@! TF.GenerationSoftware,KiCad,Pcbnew,(5.1.4-0-10_14)*
G04 #@! TF.CreationDate,2021-02-22T23:38:52-08:00*
G04 #@! TF.ProjectId,fourkey,666f7572-6b65-4792-9e6b-696361645f70,rev?*
G04 #@! TF.SameCoordinates,Original*
G04 #@! TF.FileFunction,Copper,L2,Bot*
G04 #@! TF.FilePolarity,Positive*
%FSLAX46Y46*%
G04 Gerber Fmt 4.6, Leading zero omitted, Abs format (unit mm)*
G04 Created by KiCad (PCBNEW (5.1.4-0-10_14)) date 2021-02-22 23:38:52*
%MOMM*%
%LPD*%
G04 APERTURE LIST*
%ADD10C,2.500000*%
%ADD11C,2.500000*%
%ADD12C,1.600000*%
%ADD13R,1.600000X1.600000*%
%ADD14C,0.254000*%
G04 APERTURE END LIST*
D10*
X142458000Y-91393000D03*
D11*
X141509185Y-91997462D02*
X143406815Y-90788538D01*
D10*
X143728000Y-85618000D03*
D11*
X143438672Y-85637724D02*
X144017328Y-85598276D01*
D12*
X133350000Y-80518000D03*
X135890000Y-80518000D03*
X138430000Y-80518000D03*
X140970000Y-80518000D03*
X143510000Y-80518000D03*
X146050000Y-80518000D03*
X148590000Y-80518000D03*
X151130000Y-80518000D03*
X153670000Y-80518000D03*
X156210000Y-80518000D03*
X158750000Y-80518000D03*
X161290000Y-80518000D03*
X161290000Y-95758000D03*
X158750000Y-95758000D03*
X156210000Y-95758000D03*
X153670000Y-95758000D03*
X151130000Y-95758000D03*
X148590000Y-95758000D03*
X146050000Y-95758000D03*
X143510000Y-95758000D03*
X140970000Y-95758000D03*
X138430000Y-95758000D03*
X135890000Y-95758000D03*
D13*
X133350000Y-95758000D03*
D10*
X162778000Y-85618000D03*
D11*
X162488672Y-85637724D02*
X163067328Y-85598276D01*
D10*
X161508000Y-91393000D03*
D11*
X160559185Y-91997462D02*
X162456815Y-90788538D01*
D10*
X180558000Y-91393000D03*
D11*
X179609185Y-91997462D02*
X181506815Y-90788538D01*
D10*
X181828000Y-85618000D03*
D11*
X181538672Y-85637724D02*
X182117328Y-85598276D01*
D10*
X200878000Y-85618000D03*
D11*
X200588672Y-85637724D02*
X201167328Y-85598276D01*
D10*
X199608000Y-91393000D03*
D11*
X198659185Y-91997462D02*
X200556815Y-90788538D01*
D14*
G36*
X192389550Y-78615383D02*
G01*
X192427290Y-78739793D01*
X192488575Y-78854450D01*
X192571052Y-78954948D01*
X192671550Y-79037425D01*
X192786207Y-79098710D01*
X192910617Y-79136450D01*
X193007581Y-79146000D01*
X193040000Y-79149193D01*
X193072419Y-79146000D01*
X205080001Y-79146000D01*
X205080000Y-97130000D01*
X193072419Y-97130000D01*
X193040000Y-97126807D01*
X193007581Y-97130000D01*
X192910617Y-97139550D01*
X192786207Y-97177290D01*
X192671550Y-97238575D01*
X192571052Y-97321052D01*
X192488575Y-97421550D01*
X192427290Y-97536207D01*
X192389550Y-97660617D01*
X192389315Y-97663000D01*
X188610685Y-97663000D01*
X188610450Y-97660617D01*
X188572710Y-97536207D01*
X188511425Y-97421550D01*
X188428948Y-97321052D01*
X188328450Y-97238575D01*
X188213793Y-97177290D01*
X188089383Y-97139550D01*
X187992419Y-97130000D01*
X187960000Y-97126807D01*
X187927581Y-97130000D01*
X161727533Y-97130000D01*
X161969727Y-97029680D01*
X162204759Y-96872637D01*
X162404637Y-96672759D01*
X162561680Y-96437727D01*
X162669853Y-96176574D01*
X162725000Y-95899335D01*
X162725000Y-95616665D01*
X162669853Y-95339426D01*
X162561680Y-95078273D01*
X162404637Y-94843241D01*
X162204759Y-94643363D01*
X161969727Y-94486320D01*
X161708574Y-94378147D01*
X161431335Y-94323000D01*
X161148665Y-94323000D01*
X160871426Y-94378147D01*
X160610273Y-94486320D01*
X160375241Y-94643363D01*
X160175363Y-94843241D01*
X160020000Y-95075759D01*
X159864637Y-94843241D01*
X159664759Y-94643363D01*
X159429727Y-94486320D01*
X159168574Y-94378147D01*
X158968943Y-94338437D01*
X159142174Y-94165206D01*
X159304788Y-93921838D01*
X159416798Y-93651421D01*
X159442353Y-93522946D01*
X159472763Y-93549034D01*
X159796336Y-93731172D01*
X160149223Y-93846683D01*
X160517865Y-93891131D01*
X160888096Y-93862806D01*
X161245686Y-93762796D01*
X161493899Y-93637007D01*
X162381328Y-93071652D01*
X175552100Y-93071652D01*
X175552100Y-93364348D01*
X175609202Y-93651421D01*
X175721212Y-93921838D01*
X175883826Y-94165206D01*
X176090794Y-94372174D01*
X176334162Y-94534788D01*
X176604579Y-94646798D01*
X176891652Y-94703900D01*
X177184348Y-94703900D01*
X177471421Y-94646798D01*
X177741838Y-94534788D01*
X177985206Y-94372174D01*
X178192174Y-94165206D01*
X178354788Y-93921838D01*
X178466798Y-93651421D01*
X178492353Y-93522946D01*
X178522763Y-93549034D01*
X178846336Y-93731172D01*
X179199223Y-93846683D01*
X179567865Y-93891131D01*
X179938096Y-93862806D01*
X180295686Y-93762796D01*
X180543899Y-93637007D01*
X181431328Y-93071652D01*
X194602100Y-93071652D01*
X194602100Y-93364348D01*
X194659202Y-93651421D01*
X194771212Y-93921838D01*
X194933826Y-94165206D01*
X195140794Y-94372174D01*
X195384162Y-94534788D01*
X195654579Y-94646798D01*
X195941652Y-94703900D01*
X196234348Y-94703900D01*
X196521421Y-94646798D01*
X196791838Y-94534788D01*
X197035206Y-94372174D01*
X197242174Y-94165206D01*
X197404788Y-93921838D01*
X197516798Y-93651421D01*
X197542353Y-93522946D01*
X197572763Y-93549034D01*
X197896336Y-93731172D01*
X198249223Y-93846683D01*
X198617865Y-93891131D01*
X198988096Y-93862806D01*
X199345686Y-93762796D01*
X199593899Y-93637007D01*
X201647720Y-92328578D01*
X201866623Y-92156782D01*
X202108387Y-91874961D01*
X202290524Y-91551389D01*
X202406036Y-91198501D01*
X202450483Y-90829859D01*
X202422158Y-90459627D01*
X202322149Y-90102037D01*
X202154299Y-89770829D01*
X201925058Y-89478730D01*
X201643237Y-89236966D01*
X201319664Y-89054829D01*
X200966777Y-88939317D01*
X200598134Y-88894869D01*
X200227903Y-88923195D01*
X199870312Y-89023204D01*
X199622100Y-89148994D01*
X197568280Y-90457422D01*
X197349377Y-90629218D01*
X197107613Y-90911040D01*
X196925475Y-91234613D01*
X196809964Y-91587500D01*
X196773076Y-91893441D01*
X196521421Y-91789202D01*
X196234348Y-91732100D01*
X195941652Y-91732100D01*
X195654579Y-91789202D01*
X195384162Y-91901212D01*
X195140794Y-92063826D01*
X194933826Y-92270794D01*
X194771212Y-92514162D01*
X194659202Y-92784579D01*
X194602100Y-93071652D01*
X181431328Y-93071652D01*
X182597720Y-92328578D01*
X182816623Y-92156782D01*
X183058387Y-91874961D01*
X183240524Y-91551389D01*
X183356036Y-91198501D01*
X183400483Y-90829859D01*
X183372158Y-90459627D01*
X183272149Y-90102037D01*
X183104299Y-89770829D01*
X182875058Y-89478730D01*
X182593237Y-89236966D01*
X182269664Y-89054829D01*
X181916777Y-88939317D01*
X181548134Y-88894869D01*
X181177903Y-88923195D01*
X180820312Y-89023204D01*
X180572100Y-89148994D01*
X178518280Y-90457422D01*
X178299377Y-90629218D01*
X178057613Y-90911040D01*
X177875475Y-91234613D01*
X177759964Y-91587500D01*
X177723076Y-91893441D01*
X177471421Y-91789202D01*
X177184348Y-91732100D01*
X176891652Y-91732100D01*
X176604579Y-91789202D01*
X176334162Y-91901212D01*
X176090794Y-92063826D01*
X175883826Y-92270794D01*
X175721212Y-92514162D01*
X175609202Y-92784579D01*
X175552100Y-93071652D01*
X162381328Y-93071652D01*
X163547720Y-92328578D01*
X163766623Y-92156782D01*
X164008387Y-91874961D01*
X164190524Y-91551389D01*
X164306036Y-91198501D01*
X164350483Y-90829859D01*
X164322158Y-90459627D01*
X164222149Y-90102037D01*
X164054299Y-89770829D01*
X163825058Y-89478730D01*
X163543237Y-89236966D01*
X163219664Y-89054829D01*
X162866777Y-88939317D01*
X162498134Y-88894869D01*
X162127903Y-88923195D01*
X161770312Y-89023204D01*
X161522100Y-89148994D01*
X159468280Y-90457422D01*
X159249377Y-90629218D01*
X159007613Y-90911040D01*
X158825475Y-91234613D01*
X158709964Y-91587500D01*
X158673076Y-91893441D01*
X158421421Y-91789202D01*
X158134348Y-91732100D01*
X157841652Y-91732100D01*
X157554579Y-91789202D01*
X157284162Y-91901212D01*
X157040794Y-92063826D01*
X156833826Y-92270794D01*
X156671212Y-92514162D01*
X156559202Y-92784579D01*
X156502100Y-93071652D01*
X156502100Y-93364348D01*
X156559202Y-93651421D01*
X156671212Y-93921838D01*
X156833826Y-94165206D01*
X157040794Y-94372174D01*
X157284162Y-94534788D01*
X157554579Y-94646798D01*
X157785811Y-94692793D01*
X157635363Y-94843241D01*
X157480000Y-95075759D01*
X157324637Y-94843241D01*
X157124759Y-94643363D01*
X156889727Y-94486320D01*
X156628574Y-94378147D01*
X156351335Y-94323000D01*
X156068665Y-94323000D01*
X155791426Y-94378147D01*
X155530273Y-94486320D01*
X155295241Y-94643363D01*
X155095363Y-94843241D01*
X154940000Y-95075759D01*
X154784637Y-94843241D01*
X154584759Y-94643363D01*
X154349727Y-94486320D01*
X154088574Y-94378147D01*
X153811335Y-94323000D01*
X153528665Y-94323000D01*
X153251426Y-94378147D01*
X152990273Y-94486320D01*
X152755241Y-94643363D01*
X152555363Y-94843241D01*
X152400000Y-95075759D01*
X152244637Y-94843241D01*
X152044759Y-94643363D01*
X151809727Y-94486320D01*
X151548574Y-94378147D01*
X151271335Y-94323000D01*
X150988665Y-94323000D01*
X150711426Y-94378147D01*
X150450273Y-94486320D01*
X150215241Y-94643363D01*
X150015363Y-94843241D01*
X149860000Y-95075759D01*
X149704637Y-94843241D01*
X149504759Y-94643363D01*
X149269727Y-94486320D01*
X149008574Y-94378147D01*
X148731335Y-94323000D01*
X148448665Y-94323000D01*
X148171426Y-94378147D01*
X147910273Y-94486320D01*
X147675241Y-94643363D01*
X147475363Y-94843241D01*
X147320000Y-95075759D01*
X147164637Y-94843241D01*
X146964759Y-94643363D01*
X146729727Y-94486320D01*
X146468574Y-94378147D01*
X146191335Y-94323000D01*
X145908665Y-94323000D01*
X145631426Y-94378147D01*
X145370273Y-94486320D01*
X145135241Y-94643363D01*
X144935363Y-94843241D01*
X144780000Y-95075759D01*
X144624637Y-94843241D01*
X144424759Y-94643363D01*
X144189727Y-94486320D01*
X143928574Y-94378147D01*
X143651335Y-94323000D01*
X143368665Y-94323000D01*
X143091426Y-94378147D01*
X142830273Y-94486320D01*
X142595241Y-94643363D01*
X142395363Y-94843241D01*
X142239085Y-95077128D01*
X142206671Y-95016486D01*
X141962702Y-94944903D01*
X141149605Y-95758000D01*
X141962702Y-96571097D01*
X142206671Y-96499514D01*
X142237194Y-96435008D01*
X142238320Y-96437727D01*
X142395363Y-96672759D01*
X142595241Y-96872637D01*
X142830273Y-97029680D01*
X143091426Y-97137853D01*
X143368665Y-97193000D01*
X143651335Y-97193000D01*
X143928574Y-97137853D01*
X144189727Y-97029680D01*
X144424759Y-96872637D01*
X144624637Y-96672759D01*
X144780000Y-96440241D01*
X144935363Y-96672759D01*
X145135241Y-96872637D01*
X145370273Y-97029680D01*
X145631426Y-97137853D01*
X145908665Y-97193000D01*
X146191335Y-97193000D01*
X146468574Y-97137853D01*
X146729727Y-97029680D01*
X146964759Y-96872637D01*
X147164637Y-96672759D01*
X147320000Y-96440241D01*
X147475363Y-96672759D01*
X147675241Y-96872637D01*
X147910273Y-97029680D01*
X148152467Y-97130000D01*
X147352419Y-97130000D01*
X147320000Y-97126807D01*
X147287581Y-97130000D01*
X147190617Y-97139550D01*
X147066207Y-97177290D01*
X146951550Y-97238575D01*
X146851052Y-97321052D01*
X146768575Y-97421550D01*
X146707290Y-97536207D01*
X146669550Y-97660617D01*
X146669315Y-97663000D01*
X142890685Y-97663000D01*
X142890450Y-97660617D01*
X142852710Y-97536207D01*
X142791425Y-97421550D01*
X142708948Y-97321052D01*
X142608450Y-97238575D01*
X142493793Y-97177290D01*
X142369383Y-97139550D01*
X142272419Y-97130000D01*
X142240000Y-97126807D01*
X142207581Y-97130000D01*
X141395034Y-97130000D01*
X141586292Y-97061603D01*
X141711514Y-96994671D01*
X141783097Y-96750702D01*
X140970000Y-95937605D01*
X140156903Y-96750702D01*
X140228486Y-96994671D01*
X140483996Y-97115571D01*
X140541559Y-97130000D01*
X138855034Y-97130000D01*
X139046292Y-97061603D01*
X139171514Y-96994671D01*
X139243097Y-96750702D01*
X138430000Y-95937605D01*
X137616903Y-96750702D01*
X137688486Y-96994671D01*
X137943996Y-97115571D01*
X138001559Y-97130000D01*
X136327533Y-97130000D01*
X136569727Y-97029680D01*
X136804759Y-96872637D01*
X137004637Y-96672759D01*
X137160915Y-96438872D01*
X137193329Y-96499514D01*
X137437298Y-96571097D01*
X138250395Y-95758000D01*
X138609605Y-95758000D01*
X139422702Y-96571097D01*
X139666671Y-96499514D01*
X139697971Y-96433364D01*
X139733329Y-96499514D01*
X139977298Y-96571097D01*
X140790395Y-95758000D01*
X139977298Y-94944903D01*
X139733329Y-95016486D01*
X139702029Y-95082636D01*
X139666671Y-95016486D01*
X139422702Y-94944903D01*
X138609605Y-95758000D01*
X138250395Y-95758000D01*
X137437298Y-94944903D01*
X137193329Y-95016486D01*
X137162806Y-95080992D01*
X137161680Y-95078273D01*
X137004637Y-94843241D01*
X136804759Y-94643363D01*
X136569727Y-94486320D01*
X136308574Y-94378147D01*
X136031335Y-94323000D01*
X135748665Y-94323000D01*
X135471426Y-94378147D01*
X135210273Y-94486320D01*
X134975241Y-94643363D01*
X134776643Y-94841961D01*
X134775812Y-94833518D01*
X134739502Y-94713820D01*
X134680537Y-94603506D01*
X134601185Y-94506815D01*
X134504494Y-94427463D01*
X134394180Y-94368498D01*
X134274482Y-94332188D01*
X134150000Y-94319928D01*
X132550000Y-94319928D01*
X132425518Y-94332188D01*
X132305820Y-94368498D01*
X132195506Y-94427463D01*
X132098815Y-94506815D01*
X132019463Y-94603506D01*
X131960498Y-94713820D01*
X131924188Y-94833518D01*
X131911928Y-94958000D01*
X131911928Y-96558000D01*
X131924188Y-96682482D01*
X131960498Y-96802180D01*
X132019463Y-96912494D01*
X132098815Y-97009185D01*
X132195506Y-97088537D01*
X132273077Y-97130000D01*
X129946000Y-97130000D01*
X129946000Y-93071652D01*
X137452100Y-93071652D01*
X137452100Y-93364348D01*
X137509202Y-93651421D01*
X137621212Y-93921838D01*
X137783826Y-94165206D01*
X137990794Y-94372174D01*
X138009213Y-94384481D01*
X137813708Y-94454397D01*
X137688486Y-94521329D01*
X137616903Y-94765298D01*
X138430000Y-95578395D01*
X139243097Y-94765298D01*
X140156903Y-94765298D01*
X140970000Y-95578395D01*
X141783097Y-94765298D01*
X141711514Y-94521329D01*
X141456004Y-94400429D01*
X141181816Y-94331700D01*
X140899488Y-94317783D01*
X140619870Y-94359213D01*
X140353708Y-94454397D01*
X140228486Y-94521329D01*
X140156903Y-94765298D01*
X139243097Y-94765298D01*
X139217322Y-94677450D01*
X139371421Y-94646798D01*
X139641838Y-94534788D01*
X139885206Y-94372174D01*
X140092174Y-94165206D01*
X140254788Y-93921838D01*
X140366798Y-93651421D01*
X140392353Y-93522946D01*
X140422763Y-93549034D01*
X140746336Y-93731172D01*
X141099223Y-93846683D01*
X141467865Y-93891131D01*
X141838096Y-93862806D01*
X142195686Y-93762796D01*
X142443899Y-93637007D01*
X144497720Y-92328578D01*
X144716623Y-92156782D01*
X144958387Y-91874961D01*
X145140524Y-91551389D01*
X145256036Y-91198501D01*
X145300483Y-90829859D01*
X145272158Y-90459627D01*
X145172149Y-90102037D01*
X145004299Y-89770829D01*
X144775058Y-89478730D01*
X144493237Y-89236966D01*
X144169664Y-89054829D01*
X143816777Y-88939317D01*
X143448134Y-88894869D01*
X143077903Y-88923195D01*
X142720312Y-89023204D01*
X142472100Y-89148994D01*
X140418280Y-90457422D01*
X140199377Y-90629218D01*
X139957613Y-90911040D01*
X139775475Y-91234613D01*
X139659964Y-91587500D01*
X139623076Y-91893441D01*
X139371421Y-91789202D01*
X139084348Y-91732100D01*
X138791652Y-91732100D01*
X138504579Y-91789202D01*
X138234162Y-91901212D01*
X137990794Y-92063826D01*
X137783826Y-92270794D01*
X137621212Y-92514162D01*
X137509202Y-92784579D01*
X137452100Y-93071652D01*
X129946000Y-93071652D01*
X129946000Y-87879076D01*
X136309100Y-87879076D01*
X136309100Y-88396924D01*
X136410127Y-88904822D01*
X136608299Y-89383251D01*
X136896000Y-89813826D01*
X137262174Y-90180000D01*
X137692749Y-90467701D01*
X138171178Y-90665873D01*
X138679076Y-90766900D01*
X139196924Y-90766900D01*
X139704822Y-90665873D01*
X140183251Y-90467701D01*
X140613826Y-90180000D01*
X140980000Y-89813826D01*
X141267701Y-89383251D01*
X141465873Y-88904822D01*
X141566900Y-88396924D01*
X141566900Y-87879076D01*
X155359100Y-87879076D01*
X155359100Y-88396924D01*
X155460127Y-88904822D01*
X155658299Y-89383251D01*
X155946000Y-89813826D01*
X156312174Y-90180000D01*
X156742749Y-90467701D01*
X157221178Y-90665873D01*
X157729076Y-90766900D01*
X158246924Y-90766900D01*
X158754822Y-90665873D01*
X159233251Y-90467701D01*
X159663826Y-90180000D01*
X160030000Y-89813826D01*
X160317701Y-89383251D01*
X160515873Y-88904822D01*
X160616900Y-88396924D01*
X160616900Y-87879076D01*
X174409100Y-87879076D01*
X174409100Y-88396924D01*
X174510127Y-88904822D01*
X174708299Y-89383251D01*
X174996000Y-89813826D01*
X175362174Y-90180000D01*
X175792749Y-90467701D01*
X176271178Y-90665873D01*
X176779076Y-90766900D01*
X177296924Y-90766900D01*
X177804822Y-90665873D01*
X178283251Y-90467701D01*
X178713826Y-90180000D01*
X179080000Y-89813826D01*
X179367701Y-89383251D01*
X179565873Y-88904822D01*
X179666900Y-88396924D01*
X179666900Y-87879076D01*
X193459100Y-87879076D01*
X193459100Y-88396924D01*
X193560127Y-88904822D01*
X193758299Y-89383251D01*
X194046000Y-89813826D01*
X194412174Y-90180000D01*
X194842749Y-90467701D01*
X195321178Y-90665873D01*
X195829076Y-90766900D01*
X196346924Y-90766900D01*
X196854822Y-90665873D01*
X197333251Y-90467701D01*
X197763826Y-90180000D01*
X198130000Y-89813826D01*
X198417701Y-89383251D01*
X198615873Y-88904822D01*
X198716900Y-88396924D01*
X198716900Y-87879076D01*
X198615873Y-87371178D01*
X198417701Y-86892749D01*
X198130000Y-86462174D01*
X197763826Y-86096000D01*
X197333251Y-85808299D01*
X197232461Y-85766550D01*
X198698939Y-85766550D01*
X198760382Y-86132743D01*
X198892085Y-86479913D01*
X199088989Y-86794719D01*
X199343523Y-87065061D01*
X199645908Y-87280552D01*
X199984523Y-87432910D01*
X200346355Y-87516279D01*
X200624495Y-87524656D01*
X201387916Y-87472613D01*
X201662347Y-87426566D01*
X202009517Y-87294863D01*
X202324323Y-87097959D01*
X202594665Y-86843425D01*
X202810156Y-86541040D01*
X202962514Y-86202425D01*
X203045883Y-85840593D01*
X203057061Y-85469450D01*
X202995618Y-85103257D01*
X202863914Y-84756087D01*
X202667011Y-84441281D01*
X202412477Y-84170939D01*
X202110092Y-83955448D01*
X201771477Y-83803090D01*
X201409645Y-83719721D01*
X201131504Y-83711344D01*
X200368084Y-83763387D01*
X200093653Y-83809434D01*
X199746483Y-83941137D01*
X199431677Y-84138041D01*
X199161335Y-84392575D01*
X198945844Y-84694960D01*
X198793486Y-85033575D01*
X198710117Y-85395407D01*
X198698939Y-85766550D01*
X197232461Y-85766550D01*
X196854822Y-85610127D01*
X196346924Y-85509100D01*
X195829076Y-85509100D01*
X195321178Y-85610127D01*
X194842749Y-85808299D01*
X194412174Y-86096000D01*
X194046000Y-86462174D01*
X193758299Y-86892749D01*
X193560127Y-87371178D01*
X193459100Y-87879076D01*
X179666900Y-87879076D01*
X179565873Y-87371178D01*
X179367701Y-86892749D01*
X179080000Y-86462174D01*
X178713826Y-86096000D01*
X178283251Y-85808299D01*
X178182461Y-85766550D01*
X179648939Y-85766550D01*
X179710382Y-86132743D01*
X179842085Y-86479913D01*
X180038989Y-86794719D01*
X180293523Y-87065061D01*
X180595908Y-87280552D01*
X180934523Y-87432910D01*
X181296355Y-87516279D01*
X181574495Y-87524656D01*
X182337916Y-87472613D01*
X182612347Y-87426566D01*
X182959517Y-87294863D01*
X183274323Y-87097959D01*
X183544665Y-86843425D01*
X183760156Y-86541040D01*
X183912514Y-86202425D01*
X183995883Y-85840593D01*
X184007061Y-85469450D01*
X183945618Y-85103257D01*
X183813914Y-84756087D01*
X183617011Y-84441281D01*
X183362477Y-84170939D01*
X183060092Y-83955448D01*
X182721477Y-83803090D01*
X182359645Y-83719721D01*
X182081504Y-83711344D01*
X181318084Y-83763387D01*
X181043653Y-83809434D01*
X180696483Y-83941137D01*
X180381677Y-84138041D01*
X180111335Y-84392575D01*
X179895844Y-84694960D01*
X179743486Y-85033575D01*
X179660117Y-85395407D01*
X179648939Y-85766550D01*
X178182461Y-85766550D01*
X177804822Y-85610127D01*
X177296924Y-85509100D01*
X176779076Y-85509100D01*
X176271178Y-85610127D01*
X175792749Y-85808299D01*
X175362174Y-86096000D01*
X174996000Y-86462174D01*
X174708299Y-86892749D01*
X174510127Y-87371178D01*
X174409100Y-87879076D01*
X160616900Y-87879076D01*
X160515873Y-87371178D01*
X160317701Y-86892749D01*
X160030000Y-86462174D01*
X159663826Y-86096000D01*
X159233251Y-85808299D01*
X159132461Y-85766550D01*
X160598939Y-85766550D01*
X160660382Y-86132743D01*
X160792085Y-86479913D01*
X160988989Y-86794719D01*
X161243523Y-87065061D01*
X161545908Y-87280552D01*
X161884523Y-87432910D01*
X162246355Y-87516279D01*
X162524495Y-87524656D01*
X163287916Y-87472613D01*
X163562347Y-87426566D01*
X163909517Y-87294863D01*
X164224323Y-87097959D01*
X164494665Y-86843425D01*
X164710156Y-86541040D01*
X164862514Y-86202425D01*
X164945883Y-85840593D01*
X164957061Y-85469450D01*
X164895618Y-85103257D01*
X164763914Y-84756087D01*
X164567011Y-84441281D01*
X164312477Y-84170939D01*
X164010092Y-83955448D01*
X163671477Y-83803090D01*
X163309645Y-83719721D01*
X163031504Y-83711344D01*
X162268084Y-83763387D01*
X161993653Y-83809434D01*
X161646483Y-83941137D01*
X161331677Y-84138041D01*
X161061335Y-84392575D01*
X160845844Y-84694960D01*
X160693486Y-85033575D01*
X160610117Y-85395407D01*
X160598939Y-85766550D01*
X159132461Y-85766550D01*
X158754822Y-85610127D01*
X158246924Y-85509100D01*
X157729076Y-85509100D01*
X157221178Y-85610127D01*
X156742749Y-85808299D01*
X156312174Y-86096000D01*
X155946000Y-86462174D01*
X155658299Y-86892749D01*
X155460127Y-87371178D01*
X155359100Y-87879076D01*
X141566900Y-87879076D01*
X141465873Y-87371178D01*
X141267701Y-86892749D01*
X140980000Y-86462174D01*
X140613826Y-86096000D01*
X140183251Y-85808299D01*
X140082461Y-85766550D01*
X141548939Y-85766550D01*
X141610382Y-86132743D01*
X141742085Y-86479913D01*
X141938989Y-86794719D01*
X142193523Y-87065061D01*
X142495908Y-87280552D01*
X142834523Y-87432910D01*
X143196355Y-87516279D01*
X143474495Y-87524656D01*
X144237916Y-87472613D01*
X144512347Y-87426566D01*
X144859517Y-87294863D01*
X145174323Y-87097959D01*
X145444665Y-86843425D01*
X145660156Y-86541040D01*
X145812514Y-86202425D01*
X145895883Y-85840593D01*
X145907061Y-85469450D01*
X145845618Y-85103257D01*
X145713914Y-84756087D01*
X145517011Y-84441281D01*
X145262477Y-84170939D01*
X144960092Y-83955448D01*
X144621477Y-83803090D01*
X144259645Y-83719721D01*
X143981504Y-83711344D01*
X143218084Y-83763387D01*
X142943653Y-83809434D01*
X142596483Y-83941137D01*
X142281677Y-84138041D01*
X142011335Y-84392575D01*
X141795844Y-84694960D01*
X141643486Y-85033575D01*
X141560117Y-85395407D01*
X141548939Y-85766550D01*
X140082461Y-85766550D01*
X139704822Y-85610127D01*
X139196924Y-85509100D01*
X138679076Y-85509100D01*
X138171178Y-85610127D01*
X137692749Y-85808299D01*
X137262174Y-86096000D01*
X136896000Y-86462174D01*
X136608299Y-86892749D01*
X136410127Y-87371178D01*
X136309100Y-87879076D01*
X129946000Y-87879076D01*
X129946000Y-79146000D01*
X132912467Y-79146000D01*
X132670273Y-79246320D01*
X132435241Y-79403363D01*
X132235363Y-79603241D01*
X132078320Y-79838273D01*
X131970147Y-80099426D01*
X131915000Y-80376665D01*
X131915000Y-80659335D01*
X131970147Y-80936574D01*
X132078320Y-81197727D01*
X132235363Y-81432759D01*
X132435241Y-81632637D01*
X132670273Y-81789680D01*
X132931426Y-81897853D01*
X133208665Y-81953000D01*
X133491335Y-81953000D01*
X133768574Y-81897853D01*
X134029727Y-81789680D01*
X134264759Y-81632637D01*
X134386694Y-81510702D01*
X135076903Y-81510702D01*
X135148486Y-81754671D01*
X135403996Y-81875571D01*
X135678184Y-81944300D01*
X135960512Y-81958217D01*
X136240130Y-81916787D01*
X136506292Y-81821603D01*
X136631514Y-81754671D01*
X136703097Y-81510702D01*
X135890000Y-80697605D01*
X135076903Y-81510702D01*
X134386694Y-81510702D01*
X134464637Y-81432759D01*
X134620915Y-81198872D01*
X134653329Y-81259514D01*
X134897298Y-81331097D01*
X135710395Y-80518000D01*
X134897298Y-79704903D01*
X134653329Y-79776486D01*
X134622806Y-79840992D01*
X134621680Y-79838273D01*
X134464637Y-79603241D01*
X134264759Y-79403363D01*
X134029727Y-79246320D01*
X133787533Y-79146000D01*
X135464966Y-79146000D01*
X135273708Y-79214397D01*
X135148486Y-79281329D01*
X135076903Y-79525298D01*
X135890000Y-80338395D01*
X136703097Y-79525298D01*
X136631514Y-79281329D01*
X136376004Y-79160429D01*
X136318441Y-79146000D01*
X137992467Y-79146000D01*
X137750273Y-79246320D01*
X137515241Y-79403363D01*
X137315363Y-79603241D01*
X137159085Y-79837128D01*
X137126671Y-79776486D01*
X136882702Y-79704903D01*
X136069605Y-80518000D01*
X136882702Y-81331097D01*
X137126671Y-81259514D01*
X137157194Y-81195008D01*
X137158320Y-81197727D01*
X137315363Y-81432759D01*
X137515241Y-81632637D01*
X137750273Y-81789680D01*
X138004208Y-81894863D01*
X137990794Y-81903826D01*
X137783826Y-82110794D01*
X137621212Y-82354162D01*
X137509202Y-82624579D01*
X137452100Y-82911652D01*
X137452100Y-83204348D01*
X137509202Y-83491421D01*
X137621212Y-83761838D01*
X137783826Y-84005206D01*
X137990794Y-84212174D01*
X138234162Y-84374788D01*
X138504579Y-84486798D01*
X138791652Y-84543900D01*
X139084348Y-84543900D01*
X139371421Y-84486798D01*
X139641838Y-84374788D01*
X139885206Y-84212174D01*
X140092174Y-84005206D01*
X140254788Y-83761838D01*
X140366798Y-83491421D01*
X140423900Y-83204348D01*
X140423900Y-82911652D01*
X140366798Y-82624579D01*
X140254788Y-82354162D01*
X140092174Y-82110794D01*
X139885206Y-81903826D01*
X139641838Y-81741212D01*
X139371421Y-81629202D01*
X139352048Y-81625348D01*
X139544637Y-81432759D01*
X139700000Y-81200241D01*
X139855363Y-81432759D01*
X140055241Y-81632637D01*
X140290273Y-81789680D01*
X140551426Y-81897853D01*
X140828665Y-81953000D01*
X141111335Y-81953000D01*
X141388574Y-81897853D01*
X141649727Y-81789680D01*
X141884759Y-81632637D01*
X142084637Y-81432759D01*
X142240000Y-81200241D01*
X142395363Y-81432759D01*
X142595241Y-81632637D01*
X142830273Y-81789680D01*
X143091426Y-81897853D01*
X143368665Y-81953000D01*
X143651335Y-81953000D01*
X143928574Y-81897853D01*
X144189727Y-81789680D01*
X144424759Y-81632637D01*
X144624637Y-81432759D01*
X144780000Y-81200241D01*
X144935363Y-81432759D01*
X145135241Y-81632637D01*
X145370273Y-81789680D01*
X145631426Y-81897853D01*
X145908665Y-81953000D01*
X146191335Y-81953000D01*
X146468574Y-81897853D01*
X146729727Y-81789680D01*
X146964759Y-81632637D01*
X147164637Y-81432759D01*
X147320000Y-81200241D01*
X147475363Y-81432759D01*
X147675241Y-81632637D01*
X147910273Y-81789680D01*
X148171426Y-81897853D01*
X148448665Y-81953000D01*
X148731335Y-81953000D01*
X149008574Y-81897853D01*
X149269727Y-81789680D01*
X149504759Y-81632637D01*
X149704637Y-81432759D01*
X149860000Y-81200241D01*
X150015363Y-81432759D01*
X150215241Y-81632637D01*
X150450273Y-81789680D01*
X150711426Y-81897853D01*
X150988665Y-81953000D01*
X151271335Y-81953000D01*
X151548574Y-81897853D01*
X151809727Y-81789680D01*
X152044759Y-81632637D01*
X152244637Y-81432759D01*
X152400000Y-81200241D01*
X152555363Y-81432759D01*
X152755241Y-81632637D01*
X152990273Y-81789680D01*
X153251426Y-81897853D01*
X153528665Y-81953000D01*
X153811335Y-81953000D01*
X154088574Y-81897853D01*
X154349727Y-81789680D01*
X154584759Y-81632637D01*
X154784637Y-81432759D01*
X154940000Y-81200241D01*
X155095363Y-81432759D01*
X155295241Y-81632637D01*
X155530273Y-81789680D01*
X155791426Y-81897853D01*
X156068665Y-81953000D01*
X156351335Y-81953000D01*
X156628574Y-81897853D01*
X156889727Y-81789680D01*
X157124759Y-81632637D01*
X157324637Y-81432759D01*
X157480000Y-81200241D01*
X157635363Y-81432759D01*
X157785811Y-81583207D01*
X157554579Y-81629202D01*
X157284162Y-81741212D01*
X157040794Y-81903826D01*
X156833826Y-82110794D01*
X156671212Y-82354162D01*
X156559202Y-82624579D01*
X156502100Y-82911652D01*
X156502100Y-83204348D01*
X156559202Y-83491421D01*
X156671212Y-83761838D01*
X156833826Y-84005206D01*
X157040794Y-84212174D01*
X157284162Y-84374788D01*
X157554579Y-84486798D01*
X157841652Y-84543900D01*
X158134348Y-84543900D01*
X158421421Y-84486798D01*
X158691838Y-84374788D01*
X158935206Y-84212174D01*
X159142174Y-84005206D01*
X159304788Y-83761838D01*
X159416798Y-83491421D01*
X159473900Y-83204348D01*
X159473900Y-82911652D01*
X175552100Y-82911652D01*
X175552100Y-83204348D01*
X175609202Y-83491421D01*
X175721212Y-83761838D01*
X175883826Y-84005206D01*
X176090794Y-84212174D01*
X176334162Y-84374788D01*
X176604579Y-84486798D01*
X176891652Y-84543900D01*
X177184348Y-84543900D01*
X177471421Y-84486798D01*
X177741838Y-84374788D01*
X177985206Y-84212174D01*
X178192174Y-84005206D01*
X178354788Y-83761838D01*
X178466798Y-83491421D01*
X178523900Y-83204348D01*
X178523900Y-82911652D01*
X194602100Y-82911652D01*
X194602100Y-83204348D01*
X194659202Y-83491421D01*
X194771212Y-83761838D01*
X194933826Y-84005206D01*
X195140794Y-84212174D01*
X195384162Y-84374788D01*
X195654579Y-84486798D01*
X195941652Y-84543900D01*
X196234348Y-84543900D01*
X196521421Y-84486798D01*
X196791838Y-84374788D01*
X197035206Y-84212174D01*
X197242174Y-84005206D01*
X197404788Y-83761838D01*
X197516798Y-83491421D01*
X197573900Y-83204348D01*
X197573900Y-82911652D01*
X197516798Y-82624579D01*
X197404788Y-82354162D01*
X197242174Y-82110794D01*
X197035206Y-81903826D01*
X196791838Y-81741212D01*
X196521421Y-81629202D01*
X196234348Y-81572100D01*
X195941652Y-81572100D01*
X195654579Y-81629202D01*
X195384162Y-81741212D01*
X195140794Y-81903826D01*
X194933826Y-82110794D01*
X194771212Y-82354162D01*
X194659202Y-82624579D01*
X194602100Y-82911652D01*
X178523900Y-82911652D01*
X178466798Y-82624579D01*
X178354788Y-82354162D01*
X178192174Y-82110794D01*
X177985206Y-81903826D01*
X177741838Y-81741212D01*
X177471421Y-81629202D01*
X177184348Y-81572100D01*
X176891652Y-81572100D01*
X176604579Y-81629202D01*
X176334162Y-81741212D01*
X176090794Y-81903826D01*
X175883826Y-82110794D01*
X175721212Y-82354162D01*
X175609202Y-82624579D01*
X175552100Y-82911652D01*
X159473900Y-82911652D01*
X159416798Y-82624579D01*
X159304788Y-82354162D01*
X159142174Y-82110794D01*
X158968943Y-81937563D01*
X159168574Y-81897853D01*
X159429727Y-81789680D01*
X159664759Y-81632637D01*
X159864637Y-81432759D01*
X160020000Y-81200241D01*
X160175363Y-81432759D01*
X160375241Y-81632637D01*
X160610273Y-81789680D01*
X160871426Y-81897853D01*
X161148665Y-81953000D01*
X161431335Y-81953000D01*
X161708574Y-81897853D01*
X161969727Y-81789680D01*
X162204759Y-81632637D01*
X162404637Y-81432759D01*
X162561680Y-81197727D01*
X162669853Y-80936574D01*
X162725000Y-80659335D01*
X162725000Y-80376665D01*
X162669853Y-80099426D01*
X162561680Y-79838273D01*
X162404637Y-79603241D01*
X162204759Y-79403363D01*
X161969727Y-79246320D01*
X161727533Y-79146000D01*
X187927581Y-79146000D01*
X187960000Y-79149193D01*
X187992419Y-79146000D01*
X188089383Y-79136450D01*
X188213793Y-79098710D01*
X188328450Y-79037425D01*
X188428948Y-78954948D01*
X188511425Y-78854450D01*
X188572710Y-78739793D01*
X188610450Y-78615383D01*
X188610685Y-78613000D01*
X192389315Y-78613000D01*
X192389550Y-78615383D01*
X192389550Y-78615383D01*
G37*
X192389550Y-78615383D02*
X192427290Y-78739793D01*
X192488575Y-78854450D01*
X192571052Y-78954948D01*
X192671550Y-79037425D01*
X192786207Y-79098710D01*
X192910617Y-79136450D01*
X193007581Y-79146000D01*
X193040000Y-79149193D01*
X193072419Y-79146000D01*
X205080001Y-79146000D01*
X205080000Y-97130000D01*
X193072419Y-97130000D01*
X193040000Y-97126807D01*
X193007581Y-97130000D01*
X192910617Y-97139550D01*
X192786207Y-97177290D01*
X192671550Y-97238575D01*
X192571052Y-97321052D01*
X192488575Y-97421550D01*
X192427290Y-97536207D01*
X192389550Y-97660617D01*
X192389315Y-97663000D01*
X188610685Y-97663000D01*
X188610450Y-97660617D01*
X188572710Y-97536207D01*
X188511425Y-97421550D01*
X188428948Y-97321052D01*
X188328450Y-97238575D01*
X188213793Y-97177290D01*
X188089383Y-97139550D01*
X187992419Y-97130000D01*
X187960000Y-97126807D01*
X187927581Y-97130000D01*
X161727533Y-97130000D01*
X161969727Y-97029680D01*
X162204759Y-96872637D01*
X162404637Y-96672759D01*
X162561680Y-96437727D01*
X162669853Y-96176574D01*
X162725000Y-95899335D01*
X162725000Y-95616665D01*
X162669853Y-95339426D01*
X162561680Y-95078273D01*
X162404637Y-94843241D01*
X162204759Y-94643363D01*
X161969727Y-94486320D01*
X161708574Y-94378147D01*
X161431335Y-94323000D01*
X161148665Y-94323000D01*
X160871426Y-94378147D01*
X160610273Y-94486320D01*
X160375241Y-94643363D01*
X160175363Y-94843241D01*
X160020000Y-95075759D01*
X159864637Y-94843241D01*
X159664759Y-94643363D01*
X159429727Y-94486320D01*
X159168574Y-94378147D01*
X158968943Y-94338437D01*
X159142174Y-94165206D01*
X159304788Y-93921838D01*
X159416798Y-93651421D01*
X159442353Y-93522946D01*
X159472763Y-93549034D01*
X159796336Y-93731172D01*
X160149223Y-93846683D01*
X160517865Y-93891131D01*
X160888096Y-93862806D01*
X161245686Y-93762796D01*
X161493899Y-93637007D01*
X162381328Y-93071652D01*
X175552100Y-93071652D01*
X175552100Y-93364348D01*
X175609202Y-93651421D01*
X175721212Y-93921838D01*
X175883826Y-94165206D01*
X176090794Y-94372174D01*
X176334162Y-94534788D01*
X176604579Y-94646798D01*
X176891652Y-94703900D01*
X177184348Y-94703900D01*
X177471421Y-94646798D01*
X177741838Y-94534788D01*
X177985206Y-94372174D01*
X178192174Y-94165206D01*
X178354788Y-93921838D01*
X178466798Y-93651421D01*
X178492353Y-93522946D01*
X178522763Y-93549034D01*
X178846336Y-93731172D01*
X179199223Y-93846683D01*
X179567865Y-93891131D01*
X179938096Y-93862806D01*
X180295686Y-93762796D01*
X180543899Y-93637007D01*
X181431328Y-93071652D01*
X194602100Y-93071652D01*
X194602100Y-93364348D01*
X194659202Y-93651421D01*
X194771212Y-93921838D01*
X194933826Y-94165206D01*
X195140794Y-94372174D01*
X195384162Y-94534788D01*
X195654579Y-94646798D01*
X195941652Y-94703900D01*
X196234348Y-94703900D01*
X196521421Y-94646798D01*
X196791838Y-94534788D01*
X197035206Y-94372174D01*
X197242174Y-94165206D01*
X197404788Y-93921838D01*
X197516798Y-93651421D01*
X197542353Y-93522946D01*
X197572763Y-93549034D01*
X197896336Y-93731172D01*
X198249223Y-93846683D01*
X198617865Y-93891131D01*
X198988096Y-93862806D01*
X199345686Y-93762796D01*
X199593899Y-93637007D01*
X201647720Y-92328578D01*
X201866623Y-92156782D01*
X202108387Y-91874961D01*
X202290524Y-91551389D01*
X202406036Y-91198501D01*
X202450483Y-90829859D01*
X202422158Y-90459627D01*
X202322149Y-90102037D01*
X202154299Y-89770829D01*
X201925058Y-89478730D01*
X201643237Y-89236966D01*
X201319664Y-89054829D01*
X200966777Y-88939317D01*
X200598134Y-88894869D01*
X200227903Y-88923195D01*
X199870312Y-89023204D01*
X199622100Y-89148994D01*
X197568280Y-90457422D01*
X197349377Y-90629218D01*
X197107613Y-90911040D01*
X196925475Y-91234613D01*
X196809964Y-91587500D01*
X196773076Y-91893441D01*
X196521421Y-91789202D01*
X196234348Y-91732100D01*
X195941652Y-91732100D01*
X195654579Y-91789202D01*
X195384162Y-91901212D01*
X195140794Y-92063826D01*
X194933826Y-92270794D01*
X194771212Y-92514162D01*
X194659202Y-92784579D01*
X194602100Y-93071652D01*
X181431328Y-93071652D01*
X182597720Y-92328578D01*
X182816623Y-92156782D01*
X183058387Y-91874961D01*
X183240524Y-91551389D01*
X183356036Y-91198501D01*
X183400483Y-90829859D01*
X183372158Y-90459627D01*
X183272149Y-90102037D01*
X183104299Y-89770829D01*
X182875058Y-89478730D01*
X182593237Y-89236966D01*
X182269664Y-89054829D01*
X181916777Y-88939317D01*
X181548134Y-88894869D01*
X181177903Y-88923195D01*
X180820312Y-89023204D01*
X180572100Y-89148994D01*
X178518280Y-90457422D01*
X178299377Y-90629218D01*
X178057613Y-90911040D01*
X177875475Y-91234613D01*
X177759964Y-91587500D01*
X177723076Y-91893441D01*
X177471421Y-91789202D01*
X177184348Y-91732100D01*
X176891652Y-91732100D01*
X176604579Y-91789202D01*
X176334162Y-91901212D01*
X176090794Y-92063826D01*
X175883826Y-92270794D01*
X175721212Y-92514162D01*
X175609202Y-92784579D01*
X175552100Y-93071652D01*
X162381328Y-93071652D01*
X163547720Y-92328578D01*
X163766623Y-92156782D01*
X164008387Y-91874961D01*
X164190524Y-91551389D01*
X164306036Y-91198501D01*
X164350483Y-90829859D01*
X164322158Y-90459627D01*
X164222149Y-90102037D01*
X164054299Y-89770829D01*
X163825058Y-89478730D01*
X163543237Y-89236966D01*
X163219664Y-89054829D01*
X162866777Y-88939317D01*
X162498134Y-88894869D01*
X162127903Y-88923195D01*
X161770312Y-89023204D01*
X161522100Y-89148994D01*
X159468280Y-90457422D01*
X159249377Y-90629218D01*
X159007613Y-90911040D01*
X158825475Y-91234613D01*
X158709964Y-91587500D01*
X158673076Y-91893441D01*
X158421421Y-91789202D01*
X158134348Y-91732100D01*
X157841652Y-91732100D01*
X157554579Y-91789202D01*
X157284162Y-91901212D01*
X157040794Y-92063826D01*
X156833826Y-92270794D01*
X156671212Y-92514162D01*
X156559202Y-92784579D01*
X156502100Y-93071652D01*
X156502100Y-93364348D01*
X156559202Y-93651421D01*
X156671212Y-93921838D01*
X156833826Y-94165206D01*
X157040794Y-94372174D01*
X157284162Y-94534788D01*
X157554579Y-94646798D01*
X157785811Y-94692793D01*
X157635363Y-94843241D01*
X157480000Y-95075759D01*
X157324637Y-94843241D01*
X157124759Y-94643363D01*
X156889727Y-94486320D01*
X156628574Y-94378147D01*
X156351335Y-94323000D01*
X156068665Y-94323000D01*
X155791426Y-94378147D01*
X155530273Y-94486320D01*
X155295241Y-94643363D01*
X155095363Y-94843241D01*
X154940000Y-95075759D01*
X154784637Y-94843241D01*
X154584759Y-94643363D01*
X154349727Y-94486320D01*
X154088574Y-94378147D01*
X153811335Y-94323000D01*
X153528665Y-94323000D01*
X153251426Y-94378147D01*
X152990273Y-94486320D01*
X152755241Y-94643363D01*
X152555363Y-94843241D01*
X152400000Y-95075759D01*
X152244637Y-94843241D01*
X152044759Y-94643363D01*
X151809727Y-94486320D01*
X151548574Y-94378147D01*
X151271335Y-94323000D01*
X150988665Y-94323000D01*
X150711426Y-94378147D01*
X150450273Y-94486320D01*
X150215241Y-94643363D01*
X150015363Y-94843241D01*
X149860000Y-95075759D01*
X149704637Y-94843241D01*
X149504759Y-94643363D01*
X149269727Y-94486320D01*
X149008574Y-94378147D01*
X148731335Y-94323000D01*
X148448665Y-94323000D01*
X148171426Y-94378147D01*
X147910273Y-94486320D01*
X147675241Y-94643363D01*
X147475363Y-94843241D01*
X147320000Y-95075759D01*
X147164637Y-94843241D01*
X146964759Y-94643363D01*
X146729727Y-94486320D01*
X146468574Y-94378147D01*
X146191335Y-94323000D01*
X145908665Y-94323000D01*
X145631426Y-94378147D01*
X145370273Y-94486320D01*
X145135241Y-94643363D01*
X144935363Y-94843241D01*
X144780000Y-95075759D01*
X144624637Y-94843241D01*
X144424759Y-94643363D01*
X144189727Y-94486320D01*
X143928574Y-94378147D01*
X143651335Y-94323000D01*
X143368665Y-94323000D01*
X143091426Y-94378147D01*
X142830273Y-94486320D01*
X142595241Y-94643363D01*
X142395363Y-94843241D01*
X142239085Y-95077128D01*
X142206671Y-95016486D01*
X141962702Y-94944903D01*
X141149605Y-95758000D01*
X141962702Y-96571097D01*
X142206671Y-96499514D01*
X142237194Y-96435008D01*
X142238320Y-96437727D01*
X142395363Y-96672759D01*
X142595241Y-96872637D01*
X142830273Y-97029680D01*
X143091426Y-97137853D01*
X143368665Y-97193000D01*
X143651335Y-97193000D01*
X143928574Y-97137853D01*
X144189727Y-97029680D01*
X144424759Y-96872637D01*
X144624637Y-96672759D01*
X144780000Y-96440241D01*
X144935363Y-96672759D01*
X145135241Y-96872637D01*
X145370273Y-97029680D01*
X145631426Y-97137853D01*
X145908665Y-97193000D01*
X146191335Y-97193000D01*
X146468574Y-97137853D01*
X146729727Y-97029680D01*
X146964759Y-96872637D01*
X147164637Y-96672759D01*
X147320000Y-96440241D01*
X147475363Y-96672759D01*
X147675241Y-96872637D01*
X147910273Y-97029680D01*
X148152467Y-97130000D01*
X147352419Y-97130000D01*
X147320000Y-97126807D01*
X147287581Y-97130000D01*
X147190617Y-97139550D01*
X147066207Y-97177290D01*
X146951550Y-97238575D01*
X146851052Y-97321052D01*
X146768575Y-97421550D01*
X146707290Y-97536207D01*
X146669550Y-97660617D01*
X146669315Y-97663000D01*
X142890685Y-97663000D01*
X142890450Y-97660617D01*
X142852710Y-97536207D01*
X142791425Y-97421550D01*
X142708948Y-97321052D01*
X142608450Y-97238575D01*
X142493793Y-97177290D01*
X142369383Y-97139550D01*
X142272419Y-97130000D01*
X142240000Y-97126807D01*
X142207581Y-97130000D01*
X141395034Y-97130000D01*
X141586292Y-97061603D01*
X141711514Y-96994671D01*
X141783097Y-96750702D01*
X140970000Y-95937605D01*
X140156903Y-96750702D01*
X140228486Y-96994671D01*
X140483996Y-97115571D01*
X140541559Y-97130000D01*
X138855034Y-97130000D01*
X139046292Y-97061603D01*
X139171514Y-96994671D01*
X139243097Y-96750702D01*
X138430000Y-95937605D01*
X137616903Y-96750702D01*
X137688486Y-96994671D01*
X137943996Y-97115571D01*
X138001559Y-97130000D01*
X136327533Y-97130000D01*
X136569727Y-97029680D01*
X136804759Y-96872637D01*
X137004637Y-96672759D01*
X137160915Y-96438872D01*
X137193329Y-96499514D01*
X137437298Y-96571097D01*
X138250395Y-95758000D01*
X138609605Y-95758000D01*
X139422702Y-96571097D01*
X139666671Y-96499514D01*
X139697971Y-96433364D01*
X139733329Y-96499514D01*
X139977298Y-96571097D01*
X140790395Y-95758000D01*
X139977298Y-94944903D01*
X139733329Y-95016486D01*
X139702029Y-95082636D01*
X139666671Y-95016486D01*
X139422702Y-94944903D01*
X138609605Y-95758000D01*
X138250395Y-95758000D01*
X137437298Y-94944903D01*
X137193329Y-95016486D01*
X137162806Y-95080992D01*
X137161680Y-95078273D01*
X137004637Y-94843241D01*
X136804759Y-94643363D01*
X136569727Y-94486320D01*
X136308574Y-94378147D01*
X136031335Y-94323000D01*
X135748665Y-94323000D01*
X135471426Y-94378147D01*
X135210273Y-94486320D01*
X134975241Y-94643363D01*
X134776643Y-94841961D01*
X134775812Y-94833518D01*
X134739502Y-94713820D01*
X134680537Y-94603506D01*
X134601185Y-94506815D01*
X134504494Y-94427463D01*
X134394180Y-94368498D01*
X134274482Y-94332188D01*
X134150000Y-94319928D01*
X132550000Y-94319928D01*
X132425518Y-94332188D01*
X132305820Y-94368498D01*
X132195506Y-94427463D01*
X132098815Y-94506815D01*
X132019463Y-94603506D01*
X131960498Y-94713820D01*
X131924188Y-94833518D01*
X131911928Y-94958000D01*
X131911928Y-96558000D01*
X131924188Y-96682482D01*
X131960498Y-96802180D01*
X132019463Y-96912494D01*
X132098815Y-97009185D01*
X132195506Y-97088537D01*
X132273077Y-97130000D01*
X129946000Y-97130000D01*
X129946000Y-93071652D01*
X137452100Y-93071652D01*
X137452100Y-93364348D01*
X137509202Y-93651421D01*
X137621212Y-93921838D01*
X137783826Y-94165206D01*
X137990794Y-94372174D01*
X138009213Y-94384481D01*
X137813708Y-94454397D01*
X137688486Y-94521329D01*
X137616903Y-94765298D01*
X138430000Y-95578395D01*
X139243097Y-94765298D01*
X140156903Y-94765298D01*
X140970000Y-95578395D01*
X141783097Y-94765298D01*
X141711514Y-94521329D01*
X141456004Y-94400429D01*
X141181816Y-94331700D01*
X140899488Y-94317783D01*
X140619870Y-94359213D01*
X140353708Y-94454397D01*
X140228486Y-94521329D01*
X140156903Y-94765298D01*
X139243097Y-94765298D01*
X139217322Y-94677450D01*
X139371421Y-94646798D01*
X139641838Y-94534788D01*
X139885206Y-94372174D01*
X140092174Y-94165206D01*
X140254788Y-93921838D01*
X140366798Y-93651421D01*
X140392353Y-93522946D01*
X140422763Y-93549034D01*
X140746336Y-93731172D01*
X141099223Y-93846683D01*
X141467865Y-93891131D01*
X141838096Y-93862806D01*
X142195686Y-93762796D01*
X142443899Y-93637007D01*
X144497720Y-92328578D01*
X144716623Y-92156782D01*
X144958387Y-91874961D01*
X145140524Y-91551389D01*
X145256036Y-91198501D01*
X145300483Y-90829859D01*
X145272158Y-90459627D01*
X145172149Y-90102037D01*
X145004299Y-89770829D01*
X144775058Y-89478730D01*
X144493237Y-89236966D01*
X144169664Y-89054829D01*
X143816777Y-88939317D01*
X143448134Y-88894869D01*
X143077903Y-88923195D01*
X142720312Y-89023204D01*
X142472100Y-89148994D01*
X140418280Y-90457422D01*
X140199377Y-90629218D01*
X139957613Y-90911040D01*
X139775475Y-91234613D01*
X139659964Y-91587500D01*
X139623076Y-91893441D01*
X139371421Y-91789202D01*
X139084348Y-91732100D01*
X138791652Y-91732100D01*
X138504579Y-91789202D01*
X138234162Y-91901212D01*
X137990794Y-92063826D01*
X137783826Y-92270794D01*
X137621212Y-92514162D01*
X137509202Y-92784579D01*
X137452100Y-93071652D01*
X129946000Y-93071652D01*
X129946000Y-87879076D01*
X136309100Y-87879076D01*
X136309100Y-88396924D01*
X136410127Y-88904822D01*
X136608299Y-89383251D01*
X136896000Y-89813826D01*
X137262174Y-90180000D01*
X137692749Y-90467701D01*
X138171178Y-90665873D01*
X138679076Y-90766900D01*
X139196924Y-90766900D01*
X139704822Y-90665873D01*
X140183251Y-90467701D01*
X140613826Y-90180000D01*
X140980000Y-89813826D01*
X141267701Y-89383251D01*
X141465873Y-88904822D01*
X141566900Y-88396924D01*
X141566900Y-87879076D01*
X155359100Y-87879076D01*
X155359100Y-88396924D01*
X155460127Y-88904822D01*
X155658299Y-89383251D01*
X155946000Y-89813826D01*
X156312174Y-90180000D01*
X156742749Y-90467701D01*
X157221178Y-90665873D01*
X157729076Y-90766900D01*
X158246924Y-90766900D01*
X158754822Y-90665873D01*
X159233251Y-90467701D01*
X159663826Y-90180000D01*
X160030000Y-89813826D01*
X160317701Y-89383251D01*
X160515873Y-88904822D01*
X160616900Y-88396924D01*
X160616900Y-87879076D01*
X174409100Y-87879076D01*
X174409100Y-88396924D01*
X174510127Y-88904822D01*
X174708299Y-89383251D01*
X174996000Y-89813826D01*
X175362174Y-90180000D01*
X175792749Y-90467701D01*
X176271178Y-90665873D01*
X176779076Y-90766900D01*
X177296924Y-90766900D01*
X177804822Y-90665873D01*
X178283251Y-90467701D01*
X178713826Y-90180000D01*
X179080000Y-89813826D01*
X179367701Y-89383251D01*
X179565873Y-88904822D01*
X179666900Y-88396924D01*
X179666900Y-87879076D01*
X193459100Y-87879076D01*
X193459100Y-88396924D01*
X193560127Y-88904822D01*
X193758299Y-89383251D01*
X194046000Y-89813826D01*
X194412174Y-90180000D01*
X194842749Y-90467701D01*
X195321178Y-90665873D01*
X195829076Y-90766900D01*
X196346924Y-90766900D01*
X196854822Y-90665873D01*
X197333251Y-90467701D01*
X197763826Y-90180000D01*
X198130000Y-89813826D01*
X198417701Y-89383251D01*
X198615873Y-88904822D01*
X198716900Y-88396924D01*
X198716900Y-87879076D01*
X198615873Y-87371178D01*
X198417701Y-86892749D01*
X198130000Y-86462174D01*
X197763826Y-86096000D01*
X197333251Y-85808299D01*
X197232461Y-85766550D01*
X198698939Y-85766550D01*
X198760382Y-86132743D01*
X198892085Y-86479913D01*
X199088989Y-86794719D01*
X199343523Y-87065061D01*
X199645908Y-87280552D01*
X199984523Y-87432910D01*
X200346355Y-87516279D01*
X200624495Y-87524656D01*
X201387916Y-87472613D01*
X201662347Y-87426566D01*
X202009517Y-87294863D01*
X202324323Y-87097959D01*
X202594665Y-86843425D01*
X202810156Y-86541040D01*
X202962514Y-86202425D01*
X203045883Y-85840593D01*
X203057061Y-85469450D01*
X202995618Y-85103257D01*
X202863914Y-84756087D01*
X202667011Y-84441281D01*
X202412477Y-84170939D01*
X202110092Y-83955448D01*
X201771477Y-83803090D01*
X201409645Y-83719721D01*
X201131504Y-83711344D01*
X200368084Y-83763387D01*
X200093653Y-83809434D01*
X199746483Y-83941137D01*
X199431677Y-84138041D01*
X199161335Y-84392575D01*
X198945844Y-84694960D01*
X198793486Y-85033575D01*
X198710117Y-85395407D01*
X198698939Y-85766550D01*
X197232461Y-85766550D01*
X196854822Y-85610127D01*
X196346924Y-85509100D01*
X195829076Y-85509100D01*
X195321178Y-85610127D01*
X194842749Y-85808299D01*
X194412174Y-86096000D01*
X194046000Y-86462174D01*
X193758299Y-86892749D01*
X193560127Y-87371178D01*
X193459100Y-87879076D01*
X179666900Y-87879076D01*
X179565873Y-87371178D01*
X179367701Y-86892749D01*
X179080000Y-86462174D01*
X178713826Y-86096000D01*
X178283251Y-85808299D01*
X178182461Y-85766550D01*
X179648939Y-85766550D01*
X179710382Y-86132743D01*
X179842085Y-86479913D01*
X180038989Y-86794719D01*
X180293523Y-87065061D01*
X180595908Y-87280552D01*
X180934523Y-87432910D01*
X181296355Y-87516279D01*
X181574495Y-87524656D01*
X182337916Y-87472613D01*
X182612347Y-87426566D01*
X182959517Y-87294863D01*
X183274323Y-87097959D01*
X183544665Y-86843425D01*
X183760156Y-86541040D01*
X183912514Y-86202425D01*
X183995883Y-85840593D01*
X184007061Y-85469450D01*
X183945618Y-85103257D01*
X183813914Y-84756087D01*
X183617011Y-84441281D01*
X183362477Y-84170939D01*
X183060092Y-83955448D01*
X182721477Y-83803090D01*
X182359645Y-83719721D01*
X182081504Y-83711344D01*
X181318084Y-83763387D01*
X181043653Y-83809434D01*
X180696483Y-83941137D01*
X180381677Y-84138041D01*
X180111335Y-84392575D01*
X179895844Y-84694960D01*
X179743486Y-85033575D01*
X179660117Y-85395407D01*
X179648939Y-85766550D01*
X178182461Y-85766550D01*
X177804822Y-85610127D01*
X177296924Y-85509100D01*
X176779076Y-85509100D01*
X176271178Y-85610127D01*
X175792749Y-85808299D01*
X175362174Y-86096000D01*
X174996000Y-86462174D01*
X174708299Y-86892749D01*
X174510127Y-87371178D01*
X174409100Y-87879076D01*
X160616900Y-87879076D01*
X160515873Y-87371178D01*
X160317701Y-86892749D01*
X160030000Y-86462174D01*
X159663826Y-86096000D01*
X159233251Y-85808299D01*
X159132461Y-85766550D01*
X160598939Y-85766550D01*
X160660382Y-86132743D01*
X160792085Y-86479913D01*
X160988989Y-86794719D01*
X161243523Y-87065061D01*
X161545908Y-87280552D01*
X161884523Y-87432910D01*
X162246355Y-87516279D01*
X162524495Y-87524656D01*
X163287916Y-87472613D01*
X163562347Y-87426566D01*
X163909517Y-87294863D01*
X164224323Y-87097959D01*
X164494665Y-86843425D01*
X164710156Y-86541040D01*
X164862514Y-86202425D01*
X164945883Y-85840593D01*
X164957061Y-85469450D01*
X164895618Y-85103257D01*
X164763914Y-84756087D01*
X164567011Y-84441281D01*
X164312477Y-84170939D01*
X164010092Y-83955448D01*
X163671477Y-83803090D01*
X163309645Y-83719721D01*
X163031504Y-83711344D01*
X162268084Y-83763387D01*
X161993653Y-83809434D01*
X161646483Y-83941137D01*
X161331677Y-84138041D01*
X161061335Y-84392575D01*
X160845844Y-84694960D01*
X160693486Y-85033575D01*
X160610117Y-85395407D01*
X160598939Y-85766550D01*
X159132461Y-85766550D01*
X158754822Y-85610127D01*
X158246924Y-85509100D01*
X157729076Y-85509100D01*
X157221178Y-85610127D01*
X156742749Y-85808299D01*
X156312174Y-86096000D01*
X155946000Y-86462174D01*
X155658299Y-86892749D01*
X155460127Y-87371178D01*
X155359100Y-87879076D01*
X141566900Y-87879076D01*
X141465873Y-87371178D01*
X141267701Y-86892749D01*
X140980000Y-86462174D01*
X140613826Y-86096000D01*
X140183251Y-85808299D01*
X140082461Y-85766550D01*
X141548939Y-85766550D01*
X141610382Y-86132743D01*
X141742085Y-86479913D01*
X141938989Y-86794719D01*
X142193523Y-87065061D01*
X142495908Y-87280552D01*
X142834523Y-87432910D01*
X143196355Y-87516279D01*
X143474495Y-87524656D01*
X144237916Y-87472613D01*
X144512347Y-87426566D01*
X144859517Y-87294863D01*
X145174323Y-87097959D01*
X145444665Y-86843425D01*
X145660156Y-86541040D01*
X145812514Y-86202425D01*
X145895883Y-85840593D01*
X145907061Y-85469450D01*
X145845618Y-85103257D01*
X145713914Y-84756087D01*
X145517011Y-84441281D01*
X145262477Y-84170939D01*
X144960092Y-83955448D01*
X144621477Y-83803090D01*
X144259645Y-83719721D01*
X143981504Y-83711344D01*
X143218084Y-83763387D01*
X142943653Y-83809434D01*
X142596483Y-83941137D01*
X142281677Y-84138041D01*
X142011335Y-84392575D01*
X141795844Y-84694960D01*
X141643486Y-85033575D01*
X141560117Y-85395407D01*
X141548939Y-85766550D01*
X140082461Y-85766550D01*
X139704822Y-85610127D01*
X139196924Y-85509100D01*
X138679076Y-85509100D01*
X138171178Y-85610127D01*
X137692749Y-85808299D01*
X137262174Y-86096000D01*
X136896000Y-86462174D01*
X136608299Y-86892749D01*
X136410127Y-87371178D01*
X136309100Y-87879076D01*
X129946000Y-87879076D01*
X129946000Y-79146000D01*
X132912467Y-79146000D01*
X132670273Y-79246320D01*
X132435241Y-79403363D01*
X132235363Y-79603241D01*
X132078320Y-79838273D01*
X131970147Y-80099426D01*
X131915000Y-80376665D01*
X131915000Y-80659335D01*
X131970147Y-80936574D01*
X132078320Y-81197727D01*
X132235363Y-81432759D01*
X132435241Y-81632637D01*
X132670273Y-81789680D01*
X132931426Y-81897853D01*
X133208665Y-81953000D01*
X133491335Y-81953000D01*
X133768574Y-81897853D01*
X134029727Y-81789680D01*
X134264759Y-81632637D01*
X134386694Y-81510702D01*
X135076903Y-81510702D01*
X135148486Y-81754671D01*
X135403996Y-81875571D01*
X135678184Y-81944300D01*
X135960512Y-81958217D01*
X136240130Y-81916787D01*
X136506292Y-81821603D01*
X136631514Y-81754671D01*
X136703097Y-81510702D01*
X135890000Y-80697605D01*
X135076903Y-81510702D01*
X134386694Y-81510702D01*
X134464637Y-81432759D01*
X134620915Y-81198872D01*
X134653329Y-81259514D01*
X134897298Y-81331097D01*
X135710395Y-80518000D01*
X134897298Y-79704903D01*
X134653329Y-79776486D01*
X134622806Y-79840992D01*
X134621680Y-79838273D01*
X134464637Y-79603241D01*
X134264759Y-79403363D01*
X134029727Y-79246320D01*
X133787533Y-79146000D01*
X135464966Y-79146000D01*
X135273708Y-79214397D01*
X135148486Y-79281329D01*
X135076903Y-79525298D01*
X135890000Y-80338395D01*
X136703097Y-79525298D01*
X136631514Y-79281329D01*
X136376004Y-79160429D01*
X136318441Y-79146000D01*
X137992467Y-79146000D01*
X137750273Y-79246320D01*
X137515241Y-79403363D01*
X137315363Y-79603241D01*
X137159085Y-79837128D01*
X137126671Y-79776486D01*
X136882702Y-79704903D01*
X136069605Y-80518000D01*
X136882702Y-81331097D01*
X137126671Y-81259514D01*
X137157194Y-81195008D01*
X137158320Y-81197727D01*
X137315363Y-81432759D01*
X137515241Y-81632637D01*
X137750273Y-81789680D01*
X138004208Y-81894863D01*
X137990794Y-81903826D01*
X137783826Y-82110794D01*
X137621212Y-82354162D01*
X137509202Y-82624579D01*
X137452100Y-82911652D01*
X137452100Y-83204348D01*
X137509202Y-83491421D01*
X137621212Y-83761838D01*
X137783826Y-84005206D01*
X137990794Y-84212174D01*
X138234162Y-84374788D01*
X138504579Y-84486798D01*
X138791652Y-84543900D01*
X139084348Y-84543900D01*
X139371421Y-84486798D01*
X139641838Y-84374788D01*
X139885206Y-84212174D01*
X140092174Y-84005206D01*
X140254788Y-83761838D01*
X140366798Y-83491421D01*
X140423900Y-83204348D01*
X140423900Y-82911652D01*
X140366798Y-82624579D01*
X140254788Y-82354162D01*
X140092174Y-82110794D01*
X139885206Y-81903826D01*
X139641838Y-81741212D01*
X139371421Y-81629202D01*
X139352048Y-81625348D01*
X139544637Y-81432759D01*
X139700000Y-81200241D01*
X139855363Y-81432759D01*
X140055241Y-81632637D01*
X140290273Y-81789680D01*
X140551426Y-81897853D01*
X140828665Y-81953000D01*
X141111335Y-81953000D01*
X141388574Y-81897853D01*
X141649727Y-81789680D01*
X141884759Y-81632637D01*
X142084637Y-81432759D01*
X142240000Y-81200241D01*
X142395363Y-81432759D01*
X142595241Y-81632637D01*
X142830273Y-81789680D01*
X143091426Y-81897853D01*
X143368665Y-81953000D01*
X143651335Y-81953000D01*
X143928574Y-81897853D01*
X144189727Y-81789680D01*
X144424759Y-81632637D01*
X144624637Y-81432759D01*
X144780000Y-81200241D01*
X144935363Y-81432759D01*
X145135241Y-81632637D01*
X145370273Y-81789680D01*
X145631426Y-81897853D01*
X145908665Y-81953000D01*
X146191335Y-81953000D01*
X146468574Y-81897853D01*
X146729727Y-81789680D01*
X146964759Y-81632637D01*
X147164637Y-81432759D01*
X147320000Y-81200241D01*
X147475363Y-81432759D01*
X147675241Y-81632637D01*
X147910273Y-81789680D01*
X148171426Y-81897853D01*
X148448665Y-81953000D01*
X148731335Y-81953000D01*
X149008574Y-81897853D01*
X149269727Y-81789680D01*
X149504759Y-81632637D01*
X149704637Y-81432759D01*
X149860000Y-81200241D01*
X150015363Y-81432759D01*
X150215241Y-81632637D01*
X150450273Y-81789680D01*
X150711426Y-81897853D01*
X150988665Y-81953000D01*
X151271335Y-81953000D01*
X151548574Y-81897853D01*
X151809727Y-81789680D01*
X152044759Y-81632637D01*
X152244637Y-81432759D01*
X152400000Y-81200241D01*
X152555363Y-81432759D01*
X152755241Y-81632637D01*
X152990273Y-81789680D01*
X153251426Y-81897853D01*
X153528665Y-81953000D01*
X153811335Y-81953000D01*
X154088574Y-81897853D01*
X154349727Y-81789680D01*
X154584759Y-81632637D01*
X154784637Y-81432759D01*
X154940000Y-81200241D01*
X155095363Y-81432759D01*
X155295241Y-81632637D01*
X155530273Y-81789680D01*
X155791426Y-81897853D01*
X156068665Y-81953000D01*
X156351335Y-81953000D01*
X156628574Y-81897853D01*
X156889727Y-81789680D01*
X157124759Y-81632637D01*
X157324637Y-81432759D01*
X157480000Y-81200241D01*
X157635363Y-81432759D01*
X157785811Y-81583207D01*
X157554579Y-81629202D01*
X157284162Y-81741212D01*
X157040794Y-81903826D01*
X156833826Y-82110794D01*
X156671212Y-82354162D01*
X156559202Y-82624579D01*
X156502100Y-82911652D01*
X156502100Y-83204348D01*
X156559202Y-83491421D01*
X156671212Y-83761838D01*
X156833826Y-84005206D01*
X157040794Y-84212174D01*
X157284162Y-84374788D01*
X157554579Y-84486798D01*
X157841652Y-84543900D01*
X158134348Y-84543900D01*
X158421421Y-84486798D01*
X158691838Y-84374788D01*
X158935206Y-84212174D01*
X159142174Y-84005206D01*
X159304788Y-83761838D01*
X159416798Y-83491421D01*
X159473900Y-83204348D01*
X159473900Y-82911652D01*
X175552100Y-82911652D01*
X175552100Y-83204348D01*
X175609202Y-83491421D01*
X175721212Y-83761838D01*
X175883826Y-84005206D01*
X176090794Y-84212174D01*
X176334162Y-84374788D01*
X176604579Y-84486798D01*
X176891652Y-84543900D01*
X177184348Y-84543900D01*
X177471421Y-84486798D01*
X177741838Y-84374788D01*
X177985206Y-84212174D01*
X178192174Y-84005206D01*
X178354788Y-83761838D01*
X178466798Y-83491421D01*
X178523900Y-83204348D01*
X178523900Y-82911652D01*
X194602100Y-82911652D01*
X194602100Y-83204348D01*
X194659202Y-83491421D01*
X194771212Y-83761838D01*
X194933826Y-84005206D01*
X195140794Y-84212174D01*
X195384162Y-84374788D01*
X195654579Y-84486798D01*
X195941652Y-84543900D01*
X196234348Y-84543900D01*
X196521421Y-84486798D01*
X196791838Y-84374788D01*
X197035206Y-84212174D01*
X197242174Y-84005206D01*
X197404788Y-83761838D01*
X197516798Y-83491421D01*
X197573900Y-83204348D01*
X197573900Y-82911652D01*
X197516798Y-82624579D01*
X197404788Y-82354162D01*
X197242174Y-82110794D01*
X197035206Y-81903826D01*
X196791838Y-81741212D01*
X196521421Y-81629202D01*
X196234348Y-81572100D01*
X195941652Y-81572100D01*
X195654579Y-81629202D01*
X195384162Y-81741212D01*
X195140794Y-81903826D01*
X194933826Y-82110794D01*
X194771212Y-82354162D01*
X194659202Y-82624579D01*
X194602100Y-82911652D01*
X178523900Y-82911652D01*
X178466798Y-82624579D01*
X178354788Y-82354162D01*
X178192174Y-82110794D01*
X177985206Y-81903826D01*
X177741838Y-81741212D01*
X177471421Y-81629202D01*
X177184348Y-81572100D01*
X176891652Y-81572100D01*
X176604579Y-81629202D01*
X176334162Y-81741212D01*
X176090794Y-81903826D01*
X175883826Y-82110794D01*
X175721212Y-82354162D01*
X175609202Y-82624579D01*
X175552100Y-82911652D01*
X159473900Y-82911652D01*
X159416798Y-82624579D01*
X159304788Y-82354162D01*
X159142174Y-82110794D01*
X158968943Y-81937563D01*
X159168574Y-81897853D01*
X159429727Y-81789680D01*
X159664759Y-81632637D01*
X159864637Y-81432759D01*
X160020000Y-81200241D01*
X160175363Y-81432759D01*
X160375241Y-81632637D01*
X160610273Y-81789680D01*
X160871426Y-81897853D01*
X161148665Y-81953000D01*
X161431335Y-81953000D01*
X161708574Y-81897853D01*
X161969727Y-81789680D01*
X162204759Y-81632637D01*
X162404637Y-81432759D01*
X162561680Y-81197727D01*
X162669853Y-80936574D01*
X162725000Y-80659335D01*
X162725000Y-80376665D01*
X162669853Y-80099426D01*
X162561680Y-79838273D01*
X162404637Y-79603241D01*
X162204759Y-79403363D01*
X161969727Y-79246320D01*
X161727533Y-79146000D01*
X187927581Y-79146000D01*
X187960000Y-79149193D01*
X187992419Y-79146000D01*
X188089383Y-79136450D01*
X188213793Y-79098710D01*
X188328450Y-79037425D01*
X188428948Y-78954948D01*
X188511425Y-78854450D01*
X188572710Y-78739793D01*
X188610450Y-78615383D01*
X188610685Y-78613000D01*
X192389315Y-78613000D01*
X192389550Y-78615383D01*
M02*
