G04 #@! TF.GenerationSoftware,KiCad,Pcbnew,(5.1.4-0-10_14)*
G04 #@! TF.CreationDate,2021-02-23T15:33:27-08:00*
G04 #@! TF.ProjectId,fourkey,666f7572-6b65-4792-9e6b-696361645f70,rev?*
G04 #@! TF.SameCoordinates,Original*
G04 #@! TF.FileFunction,Soldermask,Bot*
G04 #@! TF.FilePolarity,Negative*
%FSLAX46Y46*%
G04 Gerber Fmt 4.6, Leading zero omitted, Abs format (unit mm)*
G04 Created by KiCad (PCBNEW (5.1.4-0-10_14)) date 2021-02-23 15:33:27*
%MOMM*%
%LPD*%
G04 APERTURE LIST*
%ADD10C,0.100000*%
G04 APERTURE END LIST*
D10*
G36*
X146267241Y-113952760D02*
G01*
X146531305Y-114062139D01*
X146768958Y-114220934D01*
X146971066Y-114423042D01*
X147129861Y-114660695D01*
X147239240Y-114924759D01*
X147295000Y-115205088D01*
X147295000Y-115490912D01*
X147239240Y-115771241D01*
X147129861Y-116035305D01*
X146971066Y-116272958D01*
X146768958Y-116475066D01*
X146531305Y-116633861D01*
X146267241Y-116743240D01*
X145986912Y-116799000D01*
X145701088Y-116799000D01*
X145420759Y-116743240D01*
X145156695Y-116633861D01*
X144919042Y-116475066D01*
X144716934Y-116272958D01*
X144558139Y-116035305D01*
X144448760Y-115771241D01*
X144393000Y-115490912D01*
X144393000Y-115205088D01*
X144448760Y-114924759D01*
X144558139Y-114660695D01*
X144716934Y-114423042D01*
X144919042Y-114220934D01*
X145156695Y-114062139D01*
X145420759Y-113952760D01*
X145701088Y-113897000D01*
X145986912Y-113897000D01*
X146267241Y-113952760D01*
X146267241Y-113952760D01*
G37*
G36*
X66923241Y-113952760D02*
G01*
X67187305Y-114062139D01*
X67424958Y-114220934D01*
X67627066Y-114423042D01*
X67785861Y-114660695D01*
X67895240Y-114924759D01*
X67951000Y-115205088D01*
X67951000Y-115490912D01*
X67895240Y-115771241D01*
X67785861Y-116035305D01*
X67627066Y-116272958D01*
X67424958Y-116475066D01*
X67187305Y-116633861D01*
X66923241Y-116743240D01*
X66642912Y-116799000D01*
X66357088Y-116799000D01*
X66076759Y-116743240D01*
X65812695Y-116633861D01*
X65575042Y-116475066D01*
X65372934Y-116272958D01*
X65214139Y-116035305D01*
X65104760Y-115771241D01*
X65049000Y-115490912D01*
X65049000Y-115205088D01*
X65104760Y-114924759D01*
X65214139Y-114660695D01*
X65372934Y-114423042D01*
X65575042Y-114220934D01*
X65812695Y-114062139D01*
X66076759Y-113952760D01*
X66357088Y-113897000D01*
X66642912Y-113897000D01*
X66923241Y-113952760D01*
X66923241Y-113952760D01*
G37*
G36*
X146267241Y-92774760D02*
G01*
X146531305Y-92884139D01*
X146768958Y-93042934D01*
X146971066Y-93245042D01*
X147129861Y-93482695D01*
X147239240Y-93746759D01*
X147295000Y-94027088D01*
X147295000Y-94312912D01*
X147239240Y-94593241D01*
X147129861Y-94857305D01*
X146971066Y-95094958D01*
X146768958Y-95297066D01*
X146531305Y-95455861D01*
X146267241Y-95565240D01*
X145986912Y-95621000D01*
X145701088Y-95621000D01*
X145420759Y-95565240D01*
X145156695Y-95455861D01*
X144919042Y-95297066D01*
X144716934Y-95094958D01*
X144558139Y-94857305D01*
X144448760Y-94593241D01*
X144393000Y-94312912D01*
X144393000Y-94027088D01*
X144448760Y-93746759D01*
X144558139Y-93482695D01*
X144716934Y-93245042D01*
X144919042Y-93042934D01*
X145156695Y-92884139D01*
X145420759Y-92774760D01*
X145701088Y-92719000D01*
X145986912Y-92719000D01*
X146267241Y-92774760D01*
X146267241Y-92774760D01*
G37*
G36*
X66923241Y-92774760D02*
G01*
X67187305Y-92884139D01*
X67424958Y-93042934D01*
X67627066Y-93245042D01*
X67785861Y-93482695D01*
X67895240Y-93746759D01*
X67951000Y-94027088D01*
X67951000Y-94312912D01*
X67895240Y-94593241D01*
X67785861Y-94857305D01*
X67627066Y-95094958D01*
X67424958Y-95297066D01*
X67187305Y-95455861D01*
X66923241Y-95565240D01*
X66642912Y-95621000D01*
X66357088Y-95621000D01*
X66076759Y-95565240D01*
X65812695Y-95455861D01*
X65575042Y-95297066D01*
X65372934Y-95094958D01*
X65214139Y-94857305D01*
X65104760Y-94593241D01*
X65049000Y-94312912D01*
X65049000Y-94027088D01*
X65104760Y-93746759D01*
X65214139Y-93482695D01*
X65372934Y-93245042D01*
X65575042Y-93042934D01*
X65812695Y-92884139D01*
X66076759Y-92774760D01*
X66357088Y-92719000D01*
X66642912Y-92719000D01*
X66923241Y-92774760D01*
X66923241Y-92774760D01*
G37*
G36*
X126875714Y-90504389D02*
G01*
X126956645Y-90537912D01*
X127029480Y-90586579D01*
X127091421Y-90648520D01*
X127140088Y-90721355D01*
X127173611Y-90802286D01*
X127190700Y-90888201D01*
X127190700Y-90975799D01*
X127173611Y-91061714D01*
X127140088Y-91142645D01*
X127091421Y-91215480D01*
X127029480Y-91277421D01*
X126956645Y-91326088D01*
X126956644Y-91326089D01*
X126956643Y-91326089D01*
X126875714Y-91359611D01*
X126789801Y-91376700D01*
X126702199Y-91376700D01*
X126616286Y-91359611D01*
X126535357Y-91326089D01*
X126535356Y-91326089D01*
X126535355Y-91326088D01*
X126462520Y-91277421D01*
X126400579Y-91215480D01*
X126351912Y-91142645D01*
X126318389Y-91061714D01*
X126301300Y-90975799D01*
X126301300Y-90888201D01*
X126318389Y-90802286D01*
X126351912Y-90721355D01*
X126400579Y-90648520D01*
X126462520Y-90586579D01*
X126535355Y-90537912D01*
X126616286Y-90504389D01*
X126702199Y-90487300D01*
X126789801Y-90487300D01*
X126875714Y-90504389D01*
X126875714Y-90504389D01*
G37*
G36*
X86489714Y-90504389D02*
G01*
X86570645Y-90537912D01*
X86643480Y-90586579D01*
X86705421Y-90648520D01*
X86754088Y-90721355D01*
X86787611Y-90802286D01*
X86804700Y-90888201D01*
X86804700Y-90975799D01*
X86787611Y-91061714D01*
X86754088Y-91142645D01*
X86705421Y-91215480D01*
X86643480Y-91277421D01*
X86570645Y-91326088D01*
X86570644Y-91326089D01*
X86570643Y-91326089D01*
X86489714Y-91359611D01*
X86403801Y-91376700D01*
X86316199Y-91376700D01*
X86230286Y-91359611D01*
X86149357Y-91326089D01*
X86149356Y-91326089D01*
X86149355Y-91326088D01*
X86076520Y-91277421D01*
X86014579Y-91215480D01*
X85965912Y-91142645D01*
X85932389Y-91061714D01*
X85915300Y-90975799D01*
X85915300Y-90888201D01*
X85932389Y-90802286D01*
X85965912Y-90721355D01*
X86014579Y-90648520D01*
X86076520Y-90586579D01*
X86149355Y-90537912D01*
X86230286Y-90504389D01*
X86316199Y-90487300D01*
X86403801Y-90487300D01*
X86489714Y-90504389D01*
X86489714Y-90504389D01*
G37*
G36*
X85219714Y-90504389D02*
G01*
X85300645Y-90537912D01*
X85373480Y-90586579D01*
X85435421Y-90648520D01*
X85484088Y-90721355D01*
X85517611Y-90802286D01*
X85534700Y-90888201D01*
X85534700Y-90975799D01*
X85517611Y-91061714D01*
X85484088Y-91142645D01*
X85435421Y-91215480D01*
X85373480Y-91277421D01*
X85300645Y-91326088D01*
X85300644Y-91326089D01*
X85300643Y-91326089D01*
X85219714Y-91359611D01*
X85133801Y-91376700D01*
X85046199Y-91376700D01*
X84960286Y-91359611D01*
X84879357Y-91326089D01*
X84879356Y-91326089D01*
X84879355Y-91326088D01*
X84806520Y-91277421D01*
X84744579Y-91215480D01*
X84695912Y-91142645D01*
X84662389Y-91061714D01*
X84645300Y-90975799D01*
X84645300Y-90888201D01*
X84662389Y-90802286D01*
X84695912Y-90721355D01*
X84744579Y-90648520D01*
X84806520Y-90586579D01*
X84879355Y-90537912D01*
X84960286Y-90504389D01*
X85046199Y-90487300D01*
X85133801Y-90487300D01*
X85219714Y-90504389D01*
X85219714Y-90504389D01*
G37*
G36*
X83949714Y-90504389D02*
G01*
X84030645Y-90537912D01*
X84103480Y-90586579D01*
X84165421Y-90648520D01*
X84214088Y-90721355D01*
X84247611Y-90802286D01*
X84264700Y-90888201D01*
X84264700Y-90975799D01*
X84247611Y-91061714D01*
X84214088Y-91142645D01*
X84165421Y-91215480D01*
X84103480Y-91277421D01*
X84030645Y-91326088D01*
X84030644Y-91326089D01*
X84030643Y-91326089D01*
X83949714Y-91359611D01*
X83863801Y-91376700D01*
X83776199Y-91376700D01*
X83690286Y-91359611D01*
X83609357Y-91326089D01*
X83609356Y-91326089D01*
X83609355Y-91326088D01*
X83536520Y-91277421D01*
X83474579Y-91215480D01*
X83425912Y-91142645D01*
X83392389Y-91061714D01*
X83375300Y-90975799D01*
X83375300Y-90888201D01*
X83392389Y-90802286D01*
X83425912Y-90721355D01*
X83474579Y-90648520D01*
X83536520Y-90586579D01*
X83609355Y-90537912D01*
X83690286Y-90504389D01*
X83776199Y-90487300D01*
X83863801Y-90487300D01*
X83949714Y-90504389D01*
X83949714Y-90504389D01*
G37*
G36*
X82679714Y-90504389D02*
G01*
X82760645Y-90537912D01*
X82833480Y-90586579D01*
X82895421Y-90648520D01*
X82944088Y-90721355D01*
X82977611Y-90802286D01*
X82994700Y-90888201D01*
X82994700Y-90975799D01*
X82977611Y-91061714D01*
X82944088Y-91142645D01*
X82895421Y-91215480D01*
X82833480Y-91277421D01*
X82760645Y-91326088D01*
X82760644Y-91326089D01*
X82760643Y-91326089D01*
X82679714Y-91359611D01*
X82593801Y-91376700D01*
X82506199Y-91376700D01*
X82420286Y-91359611D01*
X82339357Y-91326089D01*
X82339356Y-91326089D01*
X82339355Y-91326088D01*
X82266520Y-91277421D01*
X82204579Y-91215480D01*
X82155912Y-91142645D01*
X82122389Y-91061714D01*
X82105300Y-90975799D01*
X82105300Y-90888201D01*
X82122389Y-90802286D01*
X82155912Y-90721355D01*
X82204579Y-90648520D01*
X82266520Y-90586579D01*
X82339355Y-90537912D01*
X82420286Y-90504389D01*
X82506199Y-90487300D01*
X82593801Y-90487300D01*
X82679714Y-90504389D01*
X82679714Y-90504389D01*
G37*
G36*
X81409714Y-90504389D02*
G01*
X81490645Y-90537912D01*
X81563480Y-90586579D01*
X81625421Y-90648520D01*
X81674088Y-90721355D01*
X81707611Y-90802286D01*
X81724700Y-90888201D01*
X81724700Y-90975799D01*
X81707611Y-91061714D01*
X81674088Y-91142645D01*
X81625421Y-91215480D01*
X81563480Y-91277421D01*
X81490645Y-91326088D01*
X81490644Y-91326089D01*
X81490643Y-91326089D01*
X81409714Y-91359611D01*
X81323801Y-91376700D01*
X81236199Y-91376700D01*
X81150286Y-91359611D01*
X81069357Y-91326089D01*
X81069356Y-91326089D01*
X81069355Y-91326088D01*
X80996520Y-91277421D01*
X80934579Y-91215480D01*
X80885912Y-91142645D01*
X80852389Y-91061714D01*
X80835300Y-90975799D01*
X80835300Y-90888201D01*
X80852389Y-90802286D01*
X80885912Y-90721355D01*
X80934579Y-90648520D01*
X80996520Y-90586579D01*
X81069355Y-90537912D01*
X81150286Y-90504389D01*
X81236199Y-90487300D01*
X81323801Y-90487300D01*
X81409714Y-90504389D01*
X81409714Y-90504389D01*
G37*
G36*
X131955714Y-90504389D02*
G01*
X132036645Y-90537912D01*
X132109480Y-90586579D01*
X132171421Y-90648520D01*
X132220088Y-90721355D01*
X132253611Y-90802286D01*
X132270700Y-90888201D01*
X132270700Y-90975799D01*
X132253611Y-91061714D01*
X132220088Y-91142645D01*
X132171421Y-91215480D01*
X132109480Y-91277421D01*
X132036645Y-91326088D01*
X132036644Y-91326089D01*
X132036643Y-91326089D01*
X131955714Y-91359611D01*
X131869801Y-91376700D01*
X131782199Y-91376700D01*
X131696286Y-91359611D01*
X131615357Y-91326089D01*
X131615356Y-91326089D01*
X131615355Y-91326088D01*
X131542520Y-91277421D01*
X131480579Y-91215480D01*
X131431912Y-91142645D01*
X131398389Y-91061714D01*
X131381300Y-90975799D01*
X131381300Y-90888201D01*
X131398389Y-90802286D01*
X131431912Y-90721355D01*
X131480579Y-90648520D01*
X131542520Y-90586579D01*
X131615355Y-90537912D01*
X131696286Y-90504389D01*
X131782199Y-90487300D01*
X131869801Y-90487300D01*
X131955714Y-90504389D01*
X131955714Y-90504389D01*
G37*
G36*
X130685714Y-90504389D02*
G01*
X130766645Y-90537912D01*
X130839480Y-90586579D01*
X130901421Y-90648520D01*
X130950088Y-90721355D01*
X130983611Y-90802286D01*
X131000700Y-90888201D01*
X131000700Y-90975799D01*
X130983611Y-91061714D01*
X130950088Y-91142645D01*
X130901421Y-91215480D01*
X130839480Y-91277421D01*
X130766645Y-91326088D01*
X130766644Y-91326089D01*
X130766643Y-91326089D01*
X130685714Y-91359611D01*
X130599801Y-91376700D01*
X130512199Y-91376700D01*
X130426286Y-91359611D01*
X130345357Y-91326089D01*
X130345356Y-91326089D01*
X130345355Y-91326088D01*
X130272520Y-91277421D01*
X130210579Y-91215480D01*
X130161912Y-91142645D01*
X130128389Y-91061714D01*
X130111300Y-90975799D01*
X130111300Y-90888201D01*
X130128389Y-90802286D01*
X130161912Y-90721355D01*
X130210579Y-90648520D01*
X130272520Y-90586579D01*
X130345355Y-90537912D01*
X130426286Y-90504389D01*
X130512199Y-90487300D01*
X130599801Y-90487300D01*
X130685714Y-90504389D01*
X130685714Y-90504389D01*
G37*
G36*
X129415714Y-90504389D02*
G01*
X129496645Y-90537912D01*
X129569480Y-90586579D01*
X129631421Y-90648520D01*
X129680088Y-90721355D01*
X129713611Y-90802286D01*
X129730700Y-90888201D01*
X129730700Y-90975799D01*
X129713611Y-91061714D01*
X129680088Y-91142645D01*
X129631421Y-91215480D01*
X129569480Y-91277421D01*
X129496645Y-91326088D01*
X129496644Y-91326089D01*
X129496643Y-91326089D01*
X129415714Y-91359611D01*
X129329801Y-91376700D01*
X129242199Y-91376700D01*
X129156286Y-91359611D01*
X129075357Y-91326089D01*
X129075356Y-91326089D01*
X129075355Y-91326088D01*
X129002520Y-91277421D01*
X128940579Y-91215480D01*
X128891912Y-91142645D01*
X128858389Y-91061714D01*
X128841300Y-90975799D01*
X128841300Y-90888201D01*
X128858389Y-90802286D01*
X128891912Y-90721355D01*
X128940579Y-90648520D01*
X129002520Y-90586579D01*
X129075355Y-90537912D01*
X129156286Y-90504389D01*
X129242199Y-90487300D01*
X129329801Y-90487300D01*
X129415714Y-90504389D01*
X129415714Y-90504389D01*
G37*
G36*
X128145714Y-90504389D02*
G01*
X128226645Y-90537912D01*
X128299480Y-90586579D01*
X128361421Y-90648520D01*
X128410088Y-90721355D01*
X128443611Y-90802286D01*
X128460700Y-90888201D01*
X128460700Y-90975799D01*
X128443611Y-91061714D01*
X128410088Y-91142645D01*
X128361421Y-91215480D01*
X128299480Y-91277421D01*
X128226645Y-91326088D01*
X128226644Y-91326089D01*
X128226643Y-91326089D01*
X128145714Y-91359611D01*
X128059801Y-91376700D01*
X127972199Y-91376700D01*
X127886286Y-91359611D01*
X127805357Y-91326089D01*
X127805356Y-91326089D01*
X127805355Y-91326088D01*
X127732520Y-91277421D01*
X127670579Y-91215480D01*
X127621912Y-91142645D01*
X127588389Y-91061714D01*
X127571300Y-90975799D01*
X127571300Y-90888201D01*
X127588389Y-90802286D01*
X127621912Y-90721355D01*
X127670579Y-90648520D01*
X127732520Y-90586579D01*
X127805355Y-90537912D01*
X127886286Y-90504389D01*
X127972199Y-90487300D01*
X128059801Y-90487300D01*
X128145714Y-90504389D01*
X128145714Y-90504389D01*
G37*
G36*
X81409714Y-88980389D02*
G01*
X81490645Y-89013912D01*
X81563480Y-89062579D01*
X81625421Y-89124520D01*
X81674088Y-89197355D01*
X81707611Y-89278286D01*
X81724700Y-89364201D01*
X81724700Y-89451799D01*
X81707611Y-89537714D01*
X81674088Y-89618645D01*
X81625421Y-89691480D01*
X81563480Y-89753421D01*
X81490645Y-89802088D01*
X81490644Y-89802089D01*
X81490643Y-89802089D01*
X81409714Y-89835611D01*
X81323801Y-89852700D01*
X81236199Y-89852700D01*
X81150286Y-89835611D01*
X81069357Y-89802089D01*
X81069356Y-89802089D01*
X81069355Y-89802088D01*
X80996520Y-89753421D01*
X80934579Y-89691480D01*
X80885912Y-89618645D01*
X80852389Y-89537714D01*
X80835300Y-89451799D01*
X80835300Y-89364201D01*
X80852389Y-89278286D01*
X80885912Y-89197355D01*
X80934579Y-89124520D01*
X80996520Y-89062579D01*
X81069355Y-89013912D01*
X81150286Y-88980389D01*
X81236199Y-88963300D01*
X81323801Y-88963300D01*
X81409714Y-88980389D01*
X81409714Y-88980389D01*
G37*
G36*
X82679714Y-88980389D02*
G01*
X82760645Y-89013912D01*
X82833480Y-89062579D01*
X82895421Y-89124520D01*
X82944088Y-89197355D01*
X82977611Y-89278286D01*
X82994700Y-89364201D01*
X82994700Y-89451799D01*
X82977611Y-89537714D01*
X82944088Y-89618645D01*
X82895421Y-89691480D01*
X82833480Y-89753421D01*
X82760645Y-89802088D01*
X82760644Y-89802089D01*
X82760643Y-89802089D01*
X82679714Y-89835611D01*
X82593801Y-89852700D01*
X82506199Y-89852700D01*
X82420286Y-89835611D01*
X82339357Y-89802089D01*
X82339356Y-89802089D01*
X82339355Y-89802088D01*
X82266520Y-89753421D01*
X82204579Y-89691480D01*
X82155912Y-89618645D01*
X82122389Y-89537714D01*
X82105300Y-89451799D01*
X82105300Y-89364201D01*
X82122389Y-89278286D01*
X82155912Y-89197355D01*
X82204579Y-89124520D01*
X82266520Y-89062579D01*
X82339355Y-89013912D01*
X82420286Y-88980389D01*
X82506199Y-88963300D01*
X82593801Y-88963300D01*
X82679714Y-88980389D01*
X82679714Y-88980389D01*
G37*
G36*
X83949714Y-88980389D02*
G01*
X84030645Y-89013912D01*
X84103480Y-89062579D01*
X84165421Y-89124520D01*
X84214088Y-89197355D01*
X84247611Y-89278286D01*
X84264700Y-89364201D01*
X84264700Y-89451799D01*
X84247611Y-89537714D01*
X84214088Y-89618645D01*
X84165421Y-89691480D01*
X84103480Y-89753421D01*
X84030645Y-89802088D01*
X84030644Y-89802089D01*
X84030643Y-89802089D01*
X83949714Y-89835611D01*
X83863801Y-89852700D01*
X83776199Y-89852700D01*
X83690286Y-89835611D01*
X83609357Y-89802089D01*
X83609356Y-89802089D01*
X83609355Y-89802088D01*
X83536520Y-89753421D01*
X83474579Y-89691480D01*
X83425912Y-89618645D01*
X83392389Y-89537714D01*
X83375300Y-89451799D01*
X83375300Y-89364201D01*
X83392389Y-89278286D01*
X83425912Y-89197355D01*
X83474579Y-89124520D01*
X83536520Y-89062579D01*
X83609355Y-89013912D01*
X83690286Y-88980389D01*
X83776199Y-88963300D01*
X83863801Y-88963300D01*
X83949714Y-88980389D01*
X83949714Y-88980389D01*
G37*
G36*
X85219714Y-88980389D02*
G01*
X85300645Y-89013912D01*
X85373480Y-89062579D01*
X85435421Y-89124520D01*
X85484088Y-89197355D01*
X85517611Y-89278286D01*
X85534700Y-89364201D01*
X85534700Y-89451799D01*
X85517611Y-89537714D01*
X85484088Y-89618645D01*
X85435421Y-89691480D01*
X85373480Y-89753421D01*
X85300645Y-89802088D01*
X85300644Y-89802089D01*
X85300643Y-89802089D01*
X85219714Y-89835611D01*
X85133801Y-89852700D01*
X85046199Y-89852700D01*
X84960286Y-89835611D01*
X84879357Y-89802089D01*
X84879356Y-89802089D01*
X84879355Y-89802088D01*
X84806520Y-89753421D01*
X84744579Y-89691480D01*
X84695912Y-89618645D01*
X84662389Y-89537714D01*
X84645300Y-89451799D01*
X84645300Y-89364201D01*
X84662389Y-89278286D01*
X84695912Y-89197355D01*
X84744579Y-89124520D01*
X84806520Y-89062579D01*
X84879355Y-89013912D01*
X84960286Y-88980389D01*
X85046199Y-88963300D01*
X85133801Y-88963300D01*
X85219714Y-88980389D01*
X85219714Y-88980389D01*
G37*
G36*
X86489714Y-88980389D02*
G01*
X86570645Y-89013912D01*
X86643480Y-89062579D01*
X86705421Y-89124520D01*
X86754088Y-89197355D01*
X86787611Y-89278286D01*
X86804700Y-89364201D01*
X86804700Y-89451799D01*
X86787611Y-89537714D01*
X86754088Y-89618645D01*
X86705421Y-89691480D01*
X86643480Y-89753421D01*
X86570645Y-89802088D01*
X86570644Y-89802089D01*
X86570643Y-89802089D01*
X86489714Y-89835611D01*
X86403801Y-89852700D01*
X86316199Y-89852700D01*
X86230286Y-89835611D01*
X86149357Y-89802089D01*
X86149356Y-89802089D01*
X86149355Y-89802088D01*
X86076520Y-89753421D01*
X86014579Y-89691480D01*
X85965912Y-89618645D01*
X85932389Y-89537714D01*
X85915300Y-89451799D01*
X85915300Y-89364201D01*
X85932389Y-89278286D01*
X85965912Y-89197355D01*
X86014579Y-89124520D01*
X86076520Y-89062579D01*
X86149355Y-89013912D01*
X86230286Y-88980389D01*
X86316199Y-88963300D01*
X86403801Y-88963300D01*
X86489714Y-88980389D01*
X86489714Y-88980389D01*
G37*
G36*
X126875714Y-88980389D02*
G01*
X126956645Y-89013912D01*
X127029480Y-89062579D01*
X127091421Y-89124520D01*
X127140088Y-89197355D01*
X127173611Y-89278286D01*
X127190700Y-89364201D01*
X127190700Y-89451799D01*
X127173611Y-89537714D01*
X127140088Y-89618645D01*
X127091421Y-89691480D01*
X127029480Y-89753421D01*
X126956645Y-89802088D01*
X126956644Y-89802089D01*
X126956643Y-89802089D01*
X126875714Y-89835611D01*
X126789801Y-89852700D01*
X126702199Y-89852700D01*
X126616286Y-89835611D01*
X126535357Y-89802089D01*
X126535356Y-89802089D01*
X126535355Y-89802088D01*
X126462520Y-89753421D01*
X126400579Y-89691480D01*
X126351912Y-89618645D01*
X126318389Y-89537714D01*
X126301300Y-89451799D01*
X126301300Y-89364201D01*
X126318389Y-89278286D01*
X126351912Y-89197355D01*
X126400579Y-89124520D01*
X126462520Y-89062579D01*
X126535355Y-89013912D01*
X126616286Y-88980389D01*
X126702199Y-88963300D01*
X126789801Y-88963300D01*
X126875714Y-88980389D01*
X126875714Y-88980389D01*
G37*
G36*
X131955714Y-88980389D02*
G01*
X132036645Y-89013912D01*
X132109480Y-89062579D01*
X132171421Y-89124520D01*
X132220088Y-89197355D01*
X132253611Y-89278286D01*
X132270700Y-89364201D01*
X132270700Y-89451799D01*
X132253611Y-89537714D01*
X132220088Y-89618645D01*
X132171421Y-89691480D01*
X132109480Y-89753421D01*
X132036645Y-89802088D01*
X132036644Y-89802089D01*
X132036643Y-89802089D01*
X131955714Y-89835611D01*
X131869801Y-89852700D01*
X131782199Y-89852700D01*
X131696286Y-89835611D01*
X131615357Y-89802089D01*
X131615356Y-89802089D01*
X131615355Y-89802088D01*
X131542520Y-89753421D01*
X131480579Y-89691480D01*
X131431912Y-89618645D01*
X131398389Y-89537714D01*
X131381300Y-89451799D01*
X131381300Y-89364201D01*
X131398389Y-89278286D01*
X131431912Y-89197355D01*
X131480579Y-89124520D01*
X131542520Y-89062579D01*
X131615355Y-89013912D01*
X131696286Y-88980389D01*
X131782199Y-88963300D01*
X131869801Y-88963300D01*
X131955714Y-88980389D01*
X131955714Y-88980389D01*
G37*
G36*
X130685714Y-88980389D02*
G01*
X130766645Y-89013912D01*
X130839480Y-89062579D01*
X130901421Y-89124520D01*
X130950088Y-89197355D01*
X130983611Y-89278286D01*
X131000700Y-89364201D01*
X131000700Y-89451799D01*
X130983611Y-89537714D01*
X130950088Y-89618645D01*
X130901421Y-89691480D01*
X130839480Y-89753421D01*
X130766645Y-89802088D01*
X130766644Y-89802089D01*
X130766643Y-89802089D01*
X130685714Y-89835611D01*
X130599801Y-89852700D01*
X130512199Y-89852700D01*
X130426286Y-89835611D01*
X130345357Y-89802089D01*
X130345356Y-89802089D01*
X130345355Y-89802088D01*
X130272520Y-89753421D01*
X130210579Y-89691480D01*
X130161912Y-89618645D01*
X130128389Y-89537714D01*
X130111300Y-89451799D01*
X130111300Y-89364201D01*
X130128389Y-89278286D01*
X130161912Y-89197355D01*
X130210579Y-89124520D01*
X130272520Y-89062579D01*
X130345355Y-89013912D01*
X130426286Y-88980389D01*
X130512199Y-88963300D01*
X130599801Y-88963300D01*
X130685714Y-88980389D01*
X130685714Y-88980389D01*
G37*
G36*
X128145714Y-88980389D02*
G01*
X128226645Y-89013912D01*
X128299480Y-89062579D01*
X128361421Y-89124520D01*
X128410088Y-89197355D01*
X128443611Y-89278286D01*
X128460700Y-89364201D01*
X128460700Y-89451799D01*
X128443611Y-89537714D01*
X128410088Y-89618645D01*
X128361421Y-89691480D01*
X128299480Y-89753421D01*
X128226645Y-89802088D01*
X128226644Y-89802089D01*
X128226643Y-89802089D01*
X128145714Y-89835611D01*
X128059801Y-89852700D01*
X127972199Y-89852700D01*
X127886286Y-89835611D01*
X127805357Y-89802089D01*
X127805356Y-89802089D01*
X127805355Y-89802088D01*
X127732520Y-89753421D01*
X127670579Y-89691480D01*
X127621912Y-89618645D01*
X127588389Y-89537714D01*
X127571300Y-89451799D01*
X127571300Y-89364201D01*
X127588389Y-89278286D01*
X127621912Y-89197355D01*
X127670579Y-89124520D01*
X127732520Y-89062579D01*
X127805355Y-89013912D01*
X127886286Y-88980389D01*
X127972199Y-88963300D01*
X128059801Y-88963300D01*
X128145714Y-88980389D01*
X128145714Y-88980389D01*
G37*
G36*
X129415714Y-88980389D02*
G01*
X129496645Y-89013912D01*
X129569480Y-89062579D01*
X129631421Y-89124520D01*
X129680088Y-89197355D01*
X129713611Y-89278286D01*
X129730700Y-89364201D01*
X129730700Y-89451799D01*
X129713611Y-89537714D01*
X129680088Y-89618645D01*
X129631421Y-89691480D01*
X129569480Y-89753421D01*
X129496645Y-89802088D01*
X129496644Y-89802089D01*
X129496643Y-89802089D01*
X129415714Y-89835611D01*
X129329801Y-89852700D01*
X129242199Y-89852700D01*
X129156286Y-89835611D01*
X129075357Y-89802089D01*
X129075356Y-89802089D01*
X129075355Y-89802088D01*
X129002520Y-89753421D01*
X128940579Y-89691480D01*
X128891912Y-89618645D01*
X128858389Y-89537714D01*
X128841300Y-89451799D01*
X128841300Y-89364201D01*
X128858389Y-89278286D01*
X128891912Y-89197355D01*
X128940579Y-89124520D01*
X129002520Y-89062579D01*
X129075355Y-89013912D01*
X129156286Y-88980389D01*
X129242199Y-88963300D01*
X129329801Y-88963300D01*
X129415714Y-88980389D01*
X129415714Y-88980389D01*
G37*
G36*
X92958228Y-86303703D02*
G01*
X93113100Y-86367853D01*
X93252481Y-86460985D01*
X93371015Y-86579519D01*
X93464147Y-86718900D01*
X93528297Y-86873772D01*
X93561000Y-87038184D01*
X93561000Y-87205816D01*
X93528297Y-87370228D01*
X93464147Y-87525100D01*
X93371015Y-87664481D01*
X93252481Y-87783015D01*
X93113100Y-87876147D01*
X92958228Y-87940297D01*
X92793816Y-87973000D01*
X92626184Y-87973000D01*
X92461772Y-87940297D01*
X92306900Y-87876147D01*
X92167519Y-87783015D01*
X92048985Y-87664481D01*
X91955853Y-87525100D01*
X91891703Y-87370228D01*
X91859000Y-87205816D01*
X91859000Y-87038184D01*
X91891703Y-86873772D01*
X91955853Y-86718900D01*
X92048985Y-86579519D01*
X92167519Y-86460985D01*
X92306900Y-86367853D01*
X92461772Y-86303703D01*
X92626184Y-86271000D01*
X92793816Y-86271000D01*
X92958228Y-86303703D01*
X92958228Y-86303703D01*
G37*
G36*
X73241000Y-87973000D02*
G01*
X71539000Y-87973000D01*
X71539000Y-86271000D01*
X73241000Y-86271000D01*
X73241000Y-87973000D01*
X73241000Y-87973000D01*
G37*
G36*
X75178228Y-86303703D02*
G01*
X75333100Y-86367853D01*
X75472481Y-86460985D01*
X75591015Y-86579519D01*
X75684147Y-86718900D01*
X75748297Y-86873772D01*
X75781000Y-87038184D01*
X75781000Y-87205816D01*
X75748297Y-87370228D01*
X75684147Y-87525100D01*
X75591015Y-87664481D01*
X75472481Y-87783015D01*
X75333100Y-87876147D01*
X75178228Y-87940297D01*
X75013816Y-87973000D01*
X74846184Y-87973000D01*
X74681772Y-87940297D01*
X74526900Y-87876147D01*
X74387519Y-87783015D01*
X74268985Y-87664481D01*
X74175853Y-87525100D01*
X74111703Y-87370228D01*
X74079000Y-87205816D01*
X74079000Y-87038184D01*
X74111703Y-86873772D01*
X74175853Y-86718900D01*
X74268985Y-86579519D01*
X74387519Y-86460985D01*
X74526900Y-86367853D01*
X74681772Y-86303703D01*
X74846184Y-86271000D01*
X75013816Y-86271000D01*
X75178228Y-86303703D01*
X75178228Y-86303703D01*
G37*
G36*
X77718228Y-86303703D02*
G01*
X77873100Y-86367853D01*
X78012481Y-86460985D01*
X78131015Y-86579519D01*
X78224147Y-86718900D01*
X78288297Y-86873772D01*
X78321000Y-87038184D01*
X78321000Y-87205816D01*
X78288297Y-87370228D01*
X78224147Y-87525100D01*
X78131015Y-87664481D01*
X78012481Y-87783015D01*
X77873100Y-87876147D01*
X77718228Y-87940297D01*
X77553816Y-87973000D01*
X77386184Y-87973000D01*
X77221772Y-87940297D01*
X77066900Y-87876147D01*
X76927519Y-87783015D01*
X76808985Y-87664481D01*
X76715853Y-87525100D01*
X76651703Y-87370228D01*
X76619000Y-87205816D01*
X76619000Y-87038184D01*
X76651703Y-86873772D01*
X76715853Y-86718900D01*
X76808985Y-86579519D01*
X76927519Y-86460985D01*
X77066900Y-86367853D01*
X77221772Y-86303703D01*
X77386184Y-86271000D01*
X77553816Y-86271000D01*
X77718228Y-86303703D01*
X77718228Y-86303703D01*
G37*
G36*
X80258228Y-86303703D02*
G01*
X80413100Y-86367853D01*
X80552481Y-86460985D01*
X80671015Y-86579519D01*
X80764147Y-86718900D01*
X80828297Y-86873772D01*
X80861000Y-87038184D01*
X80861000Y-87205816D01*
X80828297Y-87370228D01*
X80764147Y-87525100D01*
X80671015Y-87664481D01*
X80552481Y-87783015D01*
X80413100Y-87876147D01*
X80258228Y-87940297D01*
X80093816Y-87973000D01*
X79926184Y-87973000D01*
X79761772Y-87940297D01*
X79606900Y-87876147D01*
X79467519Y-87783015D01*
X79348985Y-87664481D01*
X79255853Y-87525100D01*
X79191703Y-87370228D01*
X79159000Y-87205816D01*
X79159000Y-87038184D01*
X79191703Y-86873772D01*
X79255853Y-86718900D01*
X79348985Y-86579519D01*
X79467519Y-86460985D01*
X79606900Y-86367853D01*
X79761772Y-86303703D01*
X79926184Y-86271000D01*
X80093816Y-86271000D01*
X80258228Y-86303703D01*
X80258228Y-86303703D01*
G37*
G36*
X82798228Y-86303703D02*
G01*
X82953100Y-86367853D01*
X83092481Y-86460985D01*
X83211015Y-86579519D01*
X83304147Y-86718900D01*
X83368297Y-86873772D01*
X83401000Y-87038184D01*
X83401000Y-87205816D01*
X83368297Y-87370228D01*
X83304147Y-87525100D01*
X83211015Y-87664481D01*
X83092481Y-87783015D01*
X82953100Y-87876147D01*
X82798228Y-87940297D01*
X82633816Y-87973000D01*
X82466184Y-87973000D01*
X82301772Y-87940297D01*
X82146900Y-87876147D01*
X82007519Y-87783015D01*
X81888985Y-87664481D01*
X81795853Y-87525100D01*
X81731703Y-87370228D01*
X81699000Y-87205816D01*
X81699000Y-87038184D01*
X81731703Y-86873772D01*
X81795853Y-86718900D01*
X81888985Y-86579519D01*
X82007519Y-86460985D01*
X82146900Y-86367853D01*
X82301772Y-86303703D01*
X82466184Y-86271000D01*
X82633816Y-86271000D01*
X82798228Y-86303703D01*
X82798228Y-86303703D01*
G37*
G36*
X85338228Y-86303703D02*
G01*
X85493100Y-86367853D01*
X85632481Y-86460985D01*
X85751015Y-86579519D01*
X85844147Y-86718900D01*
X85908297Y-86873772D01*
X85941000Y-87038184D01*
X85941000Y-87205816D01*
X85908297Y-87370228D01*
X85844147Y-87525100D01*
X85751015Y-87664481D01*
X85632481Y-87783015D01*
X85493100Y-87876147D01*
X85338228Y-87940297D01*
X85173816Y-87973000D01*
X85006184Y-87973000D01*
X84841772Y-87940297D01*
X84686900Y-87876147D01*
X84547519Y-87783015D01*
X84428985Y-87664481D01*
X84335853Y-87525100D01*
X84271703Y-87370228D01*
X84239000Y-87205816D01*
X84239000Y-87038184D01*
X84271703Y-86873772D01*
X84335853Y-86718900D01*
X84428985Y-86579519D01*
X84547519Y-86460985D01*
X84686900Y-86367853D01*
X84841772Y-86303703D01*
X85006184Y-86271000D01*
X85173816Y-86271000D01*
X85338228Y-86303703D01*
X85338228Y-86303703D01*
G37*
G36*
X87878228Y-86303703D02*
G01*
X88033100Y-86367853D01*
X88172481Y-86460985D01*
X88291015Y-86579519D01*
X88384147Y-86718900D01*
X88448297Y-86873772D01*
X88481000Y-87038184D01*
X88481000Y-87205816D01*
X88448297Y-87370228D01*
X88384147Y-87525100D01*
X88291015Y-87664481D01*
X88172481Y-87783015D01*
X88033100Y-87876147D01*
X87878228Y-87940297D01*
X87713816Y-87973000D01*
X87546184Y-87973000D01*
X87381772Y-87940297D01*
X87226900Y-87876147D01*
X87087519Y-87783015D01*
X86968985Y-87664481D01*
X86875853Y-87525100D01*
X86811703Y-87370228D01*
X86779000Y-87205816D01*
X86779000Y-87038184D01*
X86811703Y-86873772D01*
X86875853Y-86718900D01*
X86968985Y-86579519D01*
X87087519Y-86460985D01*
X87226900Y-86367853D01*
X87381772Y-86303703D01*
X87546184Y-86271000D01*
X87713816Y-86271000D01*
X87878228Y-86303703D01*
X87878228Y-86303703D01*
G37*
G36*
X90418228Y-86303703D02*
G01*
X90573100Y-86367853D01*
X90712481Y-86460985D01*
X90831015Y-86579519D01*
X90924147Y-86718900D01*
X90988297Y-86873772D01*
X91021000Y-87038184D01*
X91021000Y-87205816D01*
X90988297Y-87370228D01*
X90924147Y-87525100D01*
X90831015Y-87664481D01*
X90712481Y-87783015D01*
X90573100Y-87876147D01*
X90418228Y-87940297D01*
X90253816Y-87973000D01*
X90086184Y-87973000D01*
X89921772Y-87940297D01*
X89766900Y-87876147D01*
X89627519Y-87783015D01*
X89508985Y-87664481D01*
X89415853Y-87525100D01*
X89351703Y-87370228D01*
X89319000Y-87205816D01*
X89319000Y-87038184D01*
X89351703Y-86873772D01*
X89415853Y-86718900D01*
X89508985Y-86579519D01*
X89627519Y-86460985D01*
X89766900Y-86367853D01*
X89921772Y-86303703D01*
X90086184Y-86271000D01*
X90253816Y-86271000D01*
X90418228Y-86303703D01*
X90418228Y-86303703D01*
G37*
G36*
X95498228Y-86303703D02*
G01*
X95653100Y-86367853D01*
X95792481Y-86460985D01*
X95911015Y-86579519D01*
X96004147Y-86718900D01*
X96068297Y-86873772D01*
X96101000Y-87038184D01*
X96101000Y-87205816D01*
X96068297Y-87370228D01*
X96004147Y-87525100D01*
X95911015Y-87664481D01*
X95792481Y-87783015D01*
X95653100Y-87876147D01*
X95498228Y-87940297D01*
X95333816Y-87973000D01*
X95166184Y-87973000D01*
X95001772Y-87940297D01*
X94846900Y-87876147D01*
X94707519Y-87783015D01*
X94588985Y-87664481D01*
X94495853Y-87525100D01*
X94431703Y-87370228D01*
X94399000Y-87205816D01*
X94399000Y-87038184D01*
X94431703Y-86873772D01*
X94495853Y-86718900D01*
X94588985Y-86579519D01*
X94707519Y-86460985D01*
X94846900Y-86367853D01*
X95001772Y-86303703D01*
X95166184Y-86271000D01*
X95333816Y-86271000D01*
X95498228Y-86303703D01*
X95498228Y-86303703D01*
G37*
G36*
X98038228Y-86303703D02*
G01*
X98193100Y-86367853D01*
X98332481Y-86460985D01*
X98451015Y-86579519D01*
X98544147Y-86718900D01*
X98608297Y-86873772D01*
X98641000Y-87038184D01*
X98641000Y-87205816D01*
X98608297Y-87370228D01*
X98544147Y-87525100D01*
X98451015Y-87664481D01*
X98332481Y-87783015D01*
X98193100Y-87876147D01*
X98038228Y-87940297D01*
X97873816Y-87973000D01*
X97706184Y-87973000D01*
X97541772Y-87940297D01*
X97386900Y-87876147D01*
X97247519Y-87783015D01*
X97128985Y-87664481D01*
X97035853Y-87525100D01*
X96971703Y-87370228D01*
X96939000Y-87205816D01*
X96939000Y-87038184D01*
X96971703Y-86873772D01*
X97035853Y-86718900D01*
X97128985Y-86579519D01*
X97247519Y-86460985D01*
X97386900Y-86367853D01*
X97541772Y-86303703D01*
X97706184Y-86271000D01*
X97873816Y-86271000D01*
X98038228Y-86303703D01*
X98038228Y-86303703D01*
G37*
G36*
X100578228Y-86303703D02*
G01*
X100733100Y-86367853D01*
X100872481Y-86460985D01*
X100991015Y-86579519D01*
X101084147Y-86718900D01*
X101148297Y-86873772D01*
X101181000Y-87038184D01*
X101181000Y-87205816D01*
X101148297Y-87370228D01*
X101084147Y-87525100D01*
X100991015Y-87664481D01*
X100872481Y-87783015D01*
X100733100Y-87876147D01*
X100578228Y-87940297D01*
X100413816Y-87973000D01*
X100246184Y-87973000D01*
X100081772Y-87940297D01*
X99926900Y-87876147D01*
X99787519Y-87783015D01*
X99668985Y-87664481D01*
X99575853Y-87525100D01*
X99511703Y-87370228D01*
X99479000Y-87205816D01*
X99479000Y-87038184D01*
X99511703Y-86873772D01*
X99575853Y-86718900D01*
X99668985Y-86579519D01*
X99787519Y-86460985D01*
X99926900Y-86367853D01*
X100081772Y-86303703D01*
X100246184Y-86271000D01*
X100413816Y-86271000D01*
X100578228Y-86303703D01*
X100578228Y-86303703D01*
G37*
G36*
X78153952Y-83697429D02*
G01*
X78241075Y-83714759D01*
X78350498Y-83760084D01*
X78405211Y-83782747D01*
X78483825Y-83835275D01*
X78552928Y-83881448D01*
X78678552Y-84007072D01*
X78678554Y-84007075D01*
X78777253Y-84154789D01*
X78777253Y-84154790D01*
X78845241Y-84318925D01*
X78879900Y-84493171D01*
X78879900Y-84670829D01*
X78845241Y-84845075D01*
X78799916Y-84954498D01*
X78777253Y-85009211D01*
X78679217Y-85155933D01*
X78678552Y-85156928D01*
X78552928Y-85282552D01*
X78552925Y-85282554D01*
X78405211Y-85381253D01*
X78350498Y-85403916D01*
X78241075Y-85449241D01*
X78153952Y-85466571D01*
X78066831Y-85483900D01*
X77889169Y-85483900D01*
X77802048Y-85466571D01*
X77714925Y-85449241D01*
X77605502Y-85403916D01*
X77550789Y-85381253D01*
X77403075Y-85282554D01*
X77403072Y-85282552D01*
X77277448Y-85156928D01*
X77276783Y-85155933D01*
X77178747Y-85009211D01*
X77156084Y-84954498D01*
X77110759Y-84845075D01*
X77076100Y-84670829D01*
X77076100Y-84493171D01*
X77110759Y-84318925D01*
X77178747Y-84154790D01*
X77178747Y-84154789D01*
X77277446Y-84007075D01*
X77277448Y-84007072D01*
X77403072Y-83881448D01*
X77472175Y-83835275D01*
X77550789Y-83782747D01*
X77605502Y-83760084D01*
X77714925Y-83714759D01*
X77802048Y-83697429D01*
X77889169Y-83680100D01*
X78066831Y-83680100D01*
X78153952Y-83697429D01*
X78153952Y-83697429D01*
G37*
G36*
X97203952Y-83697429D02*
G01*
X97291075Y-83714759D01*
X97400498Y-83760084D01*
X97455211Y-83782747D01*
X97533825Y-83835275D01*
X97602928Y-83881448D01*
X97728552Y-84007072D01*
X97728554Y-84007075D01*
X97827253Y-84154789D01*
X97827253Y-84154790D01*
X97895241Y-84318925D01*
X97929900Y-84493171D01*
X97929900Y-84670829D01*
X97895241Y-84845075D01*
X97849916Y-84954498D01*
X97827253Y-85009211D01*
X97729217Y-85155933D01*
X97728552Y-85156928D01*
X97602928Y-85282552D01*
X97602925Y-85282554D01*
X97455211Y-85381253D01*
X97400498Y-85403916D01*
X97291075Y-85449241D01*
X97203952Y-85466571D01*
X97116831Y-85483900D01*
X96939169Y-85483900D01*
X96852048Y-85466571D01*
X96764925Y-85449241D01*
X96655502Y-85403916D01*
X96600789Y-85381253D01*
X96453075Y-85282554D01*
X96453072Y-85282552D01*
X96327448Y-85156928D01*
X96326783Y-85155933D01*
X96228747Y-85009211D01*
X96206084Y-84954498D01*
X96160759Y-84845075D01*
X96126100Y-84670829D01*
X96126100Y-84493171D01*
X96160759Y-84318925D01*
X96228747Y-84154790D01*
X96228747Y-84154789D01*
X96327446Y-84007075D01*
X96327448Y-84007072D01*
X96453072Y-83881448D01*
X96522175Y-83835275D01*
X96600789Y-83782747D01*
X96655502Y-83760084D01*
X96764925Y-83714759D01*
X96852048Y-83697429D01*
X96939169Y-83680100D01*
X97116831Y-83680100D01*
X97203952Y-83697429D01*
X97203952Y-83697429D01*
G37*
G36*
X116253952Y-83697429D02*
G01*
X116341075Y-83714759D01*
X116450498Y-83760084D01*
X116505211Y-83782747D01*
X116583825Y-83835275D01*
X116652928Y-83881448D01*
X116778552Y-84007072D01*
X116778554Y-84007075D01*
X116877253Y-84154789D01*
X116877253Y-84154790D01*
X116945241Y-84318925D01*
X116979900Y-84493171D01*
X116979900Y-84670829D01*
X116945241Y-84845075D01*
X116899916Y-84954498D01*
X116877253Y-85009211D01*
X116779217Y-85155933D01*
X116778552Y-85156928D01*
X116652928Y-85282552D01*
X116652925Y-85282554D01*
X116505211Y-85381253D01*
X116450498Y-85403916D01*
X116341075Y-85449241D01*
X116253952Y-85466571D01*
X116166831Y-85483900D01*
X115989169Y-85483900D01*
X115902048Y-85466571D01*
X115814925Y-85449241D01*
X115705502Y-85403916D01*
X115650789Y-85381253D01*
X115503075Y-85282554D01*
X115503072Y-85282552D01*
X115377448Y-85156928D01*
X115376783Y-85155933D01*
X115278747Y-85009211D01*
X115256084Y-84954498D01*
X115210759Y-84845075D01*
X115176100Y-84670829D01*
X115176100Y-84493171D01*
X115210759Y-84318925D01*
X115278747Y-84154790D01*
X115278747Y-84154789D01*
X115377446Y-84007075D01*
X115377448Y-84007072D01*
X115503072Y-83881448D01*
X115572175Y-83835275D01*
X115650789Y-83782747D01*
X115705502Y-83760084D01*
X115814925Y-83714759D01*
X115902048Y-83697429D01*
X115989169Y-83680100D01*
X116166831Y-83680100D01*
X116253952Y-83697429D01*
X116253952Y-83697429D01*
G37*
G36*
X135303952Y-83697429D02*
G01*
X135391075Y-83714759D01*
X135500498Y-83760084D01*
X135555211Y-83782747D01*
X135633825Y-83835275D01*
X135702928Y-83881448D01*
X135828552Y-84007072D01*
X135828554Y-84007075D01*
X135927253Y-84154789D01*
X135927253Y-84154790D01*
X135995241Y-84318925D01*
X136029900Y-84493171D01*
X136029900Y-84670829D01*
X135995241Y-84845075D01*
X135949916Y-84954498D01*
X135927253Y-85009211D01*
X135829217Y-85155933D01*
X135828552Y-85156928D01*
X135702928Y-85282552D01*
X135702925Y-85282554D01*
X135555211Y-85381253D01*
X135500498Y-85403916D01*
X135391075Y-85449241D01*
X135303952Y-85466571D01*
X135216831Y-85483900D01*
X135039169Y-85483900D01*
X134952048Y-85466571D01*
X134864925Y-85449241D01*
X134755502Y-85403916D01*
X134700789Y-85381253D01*
X134553075Y-85282554D01*
X134553072Y-85282552D01*
X134427448Y-85156928D01*
X134426783Y-85155933D01*
X134328747Y-85009211D01*
X134306084Y-84954498D01*
X134260759Y-84845075D01*
X134226100Y-84670829D01*
X134226100Y-84493171D01*
X134260759Y-84318925D01*
X134328747Y-84154790D01*
X134328747Y-84154789D01*
X134427446Y-84007075D01*
X134427448Y-84007072D01*
X134553072Y-83881448D01*
X134622175Y-83835275D01*
X134700789Y-83782747D01*
X134755502Y-83760084D01*
X134864925Y-83714759D01*
X134952048Y-83697429D01*
X135039169Y-83680100D01*
X135216831Y-83680100D01*
X135303952Y-83697429D01*
X135303952Y-83697429D01*
G37*
G36*
X82729761Y-80876232D02*
G01*
X82729764Y-80876233D01*
X82973322Y-80955957D01*
X83196647Y-81081666D01*
X83391157Y-81248528D01*
X83549375Y-81450130D01*
X83665223Y-81678725D01*
X83721867Y-81881264D01*
X83734247Y-81925529D01*
X83753797Y-82181059D01*
X83723121Y-82435485D01*
X83643394Y-82679052D01*
X83517688Y-82902370D01*
X83517687Y-82902371D01*
X83350825Y-83096881D01*
X83199738Y-83215455D01*
X81194315Y-84493050D01*
X81108656Y-84536460D01*
X81022999Y-84579870D01*
X80969059Y-84594955D01*
X80776194Y-84648895D01*
X80520667Y-84668444D01*
X80520666Y-84668444D01*
X80266239Y-84637768D01*
X80259889Y-84635689D01*
X80022678Y-84558043D01*
X79907216Y-84493050D01*
X79799350Y-84432333D01*
X79604846Y-84265476D01*
X79584129Y-84239078D01*
X79446625Y-84063870D01*
X79417842Y-84007075D01*
X79330778Y-83835278D01*
X79330777Y-83835275D01*
X79261752Y-83588471D01*
X79242203Y-83332944D01*
X79242203Y-83332943D01*
X79272879Y-83078516D01*
X79330537Y-82902370D01*
X79352604Y-82834955D01*
X79440361Y-82679052D01*
X79478314Y-82611627D01*
X79645174Y-82417120D01*
X79742750Y-82340543D01*
X79796262Y-82298546D01*
X81801684Y-81020950D01*
X81929931Y-80955957D01*
X81973000Y-80934130D01*
X82026940Y-80919045D01*
X82219805Y-80865105D01*
X82475333Y-80845556D01*
X82475334Y-80845556D01*
X82729761Y-80876232D01*
X82729761Y-80876232D01*
G37*
G36*
X101779761Y-80876232D02*
G01*
X101779764Y-80876233D01*
X102023322Y-80955957D01*
X102246647Y-81081666D01*
X102441157Y-81248528D01*
X102599375Y-81450130D01*
X102715223Y-81678725D01*
X102771867Y-81881264D01*
X102784247Y-81925529D01*
X102803797Y-82181059D01*
X102773121Y-82435485D01*
X102693394Y-82679052D01*
X102567688Y-82902370D01*
X102567687Y-82902371D01*
X102400825Y-83096881D01*
X102249738Y-83215455D01*
X100244315Y-84493050D01*
X100158656Y-84536460D01*
X100072999Y-84579870D01*
X100019059Y-84594955D01*
X99826194Y-84648895D01*
X99570667Y-84668444D01*
X99570666Y-84668444D01*
X99316239Y-84637768D01*
X99309889Y-84635689D01*
X99072678Y-84558043D01*
X98957216Y-84493050D01*
X98849350Y-84432333D01*
X98654846Y-84265476D01*
X98634129Y-84239078D01*
X98496625Y-84063870D01*
X98467842Y-84007075D01*
X98380778Y-83835278D01*
X98380777Y-83835275D01*
X98311752Y-83588471D01*
X98292203Y-83332944D01*
X98292203Y-83332943D01*
X98322879Y-83078516D01*
X98380537Y-82902370D01*
X98402604Y-82834955D01*
X98490361Y-82679052D01*
X98528314Y-82611627D01*
X98695174Y-82417120D01*
X98792750Y-82340543D01*
X98846262Y-82298546D01*
X100851684Y-81020950D01*
X100979931Y-80955957D01*
X101023000Y-80934130D01*
X101076940Y-80919045D01*
X101269805Y-80865105D01*
X101525333Y-80845556D01*
X101525334Y-80845556D01*
X101779761Y-80876232D01*
X101779761Y-80876232D01*
G37*
G36*
X120829761Y-80876232D02*
G01*
X120829764Y-80876233D01*
X121073322Y-80955957D01*
X121296647Y-81081666D01*
X121491157Y-81248528D01*
X121649375Y-81450130D01*
X121765223Y-81678725D01*
X121821867Y-81881264D01*
X121834247Y-81925529D01*
X121853797Y-82181059D01*
X121823121Y-82435485D01*
X121743394Y-82679052D01*
X121617688Y-82902370D01*
X121617687Y-82902371D01*
X121450825Y-83096881D01*
X121299738Y-83215455D01*
X119294315Y-84493050D01*
X119122999Y-84579870D01*
X119069059Y-84594955D01*
X118876194Y-84648895D01*
X118620667Y-84668444D01*
X118620666Y-84668444D01*
X118366239Y-84637768D01*
X118359889Y-84635689D01*
X118122678Y-84558043D01*
X118007216Y-84493050D01*
X117899350Y-84432333D01*
X117704846Y-84265476D01*
X117684129Y-84239078D01*
X117546625Y-84063870D01*
X117517842Y-84007075D01*
X117430778Y-83835278D01*
X117430777Y-83835275D01*
X117361752Y-83588471D01*
X117342203Y-83332944D01*
X117342203Y-83332943D01*
X117372879Y-83078516D01*
X117430537Y-82902370D01*
X117452604Y-82834955D01*
X117540361Y-82679052D01*
X117578314Y-82611627D01*
X117745174Y-82417120D01*
X117842750Y-82340543D01*
X117896262Y-82298546D01*
X119901684Y-81020950D01*
X120029931Y-80955957D01*
X120073000Y-80934130D01*
X120126940Y-80919045D01*
X120319805Y-80865105D01*
X120575333Y-80845556D01*
X120575334Y-80845556D01*
X120829761Y-80876232D01*
X120829761Y-80876232D01*
G37*
G36*
X139879761Y-80876232D02*
G01*
X139879764Y-80876233D01*
X140123322Y-80955957D01*
X140346647Y-81081666D01*
X140541157Y-81248528D01*
X140699375Y-81450130D01*
X140815223Y-81678725D01*
X140871867Y-81881264D01*
X140884247Y-81925529D01*
X140903797Y-82181059D01*
X140873121Y-82435485D01*
X140793394Y-82679052D01*
X140667688Y-82902370D01*
X140667687Y-82902371D01*
X140500825Y-83096881D01*
X140349738Y-83215455D01*
X138344315Y-84493050D01*
X138172999Y-84579870D01*
X138119059Y-84594955D01*
X137926194Y-84648895D01*
X137670667Y-84668444D01*
X137670666Y-84668444D01*
X137416239Y-84637768D01*
X137409889Y-84635689D01*
X137172678Y-84558043D01*
X137057216Y-84493050D01*
X136949350Y-84432333D01*
X136754846Y-84265476D01*
X136734129Y-84239078D01*
X136596625Y-84063870D01*
X136567842Y-84007075D01*
X136480778Y-83835278D01*
X136480777Y-83835275D01*
X136411752Y-83588471D01*
X136392203Y-83332944D01*
X136392203Y-83332943D01*
X136422879Y-83078516D01*
X136480537Y-82902370D01*
X136502604Y-82834955D01*
X136590361Y-82679052D01*
X136628314Y-82611627D01*
X136795174Y-82417120D01*
X136892750Y-82340543D01*
X136946262Y-82298546D01*
X138951684Y-81020950D01*
X139079931Y-80955957D01*
X139123000Y-80934130D01*
X139176940Y-80919045D01*
X139369805Y-80865105D01*
X139625333Y-80845556D01*
X139625334Y-80845556D01*
X139879761Y-80876232D01*
X139879761Y-80876232D01*
G37*
G36*
X135724474Y-77535684D02*
G01*
X135911034Y-77612960D01*
X136096623Y-77689833D01*
X136431548Y-77913623D01*
X136716377Y-78198452D01*
X136940167Y-78533377D01*
X136940167Y-78533378D01*
X137094316Y-78905526D01*
X137172900Y-79300594D01*
X137172900Y-79703406D01*
X137094316Y-80098474D01*
X137004017Y-80316474D01*
X136940167Y-80470623D01*
X136716377Y-80805548D01*
X136431548Y-81090377D01*
X136096623Y-81314167D01*
X135942474Y-81378017D01*
X135724474Y-81468316D01*
X135329406Y-81546900D01*
X134926594Y-81546900D01*
X134531526Y-81468316D01*
X134313526Y-81378017D01*
X134159377Y-81314167D01*
X133824452Y-81090377D01*
X133539623Y-80805548D01*
X133315833Y-80470623D01*
X133251983Y-80316474D01*
X133161684Y-80098474D01*
X133083100Y-79703406D01*
X133083100Y-79300594D01*
X133161684Y-78905526D01*
X133315833Y-78533378D01*
X133315833Y-78533377D01*
X133539623Y-78198452D01*
X133824452Y-77913623D01*
X134159377Y-77689833D01*
X134344966Y-77612960D01*
X134531526Y-77535684D01*
X134926594Y-77457100D01*
X135329406Y-77457100D01*
X135724474Y-77535684D01*
X135724474Y-77535684D01*
G37*
G36*
X78574474Y-77535684D02*
G01*
X78761034Y-77612960D01*
X78946623Y-77689833D01*
X79281548Y-77913623D01*
X79566377Y-78198452D01*
X79790167Y-78533377D01*
X79790167Y-78533378D01*
X79944316Y-78905526D01*
X80022900Y-79300594D01*
X80022900Y-79703406D01*
X79944316Y-80098474D01*
X79854017Y-80316474D01*
X79790167Y-80470623D01*
X79566377Y-80805548D01*
X79281548Y-81090377D01*
X78946623Y-81314167D01*
X78792474Y-81378017D01*
X78574474Y-81468316D01*
X78179406Y-81546900D01*
X77776594Y-81546900D01*
X77381526Y-81468316D01*
X77163526Y-81378017D01*
X77009377Y-81314167D01*
X76674452Y-81090377D01*
X76389623Y-80805548D01*
X76165833Y-80470623D01*
X76101983Y-80316474D01*
X76011684Y-80098474D01*
X75933100Y-79703406D01*
X75933100Y-79300594D01*
X76011684Y-78905526D01*
X76165833Y-78533378D01*
X76165833Y-78533377D01*
X76389623Y-78198452D01*
X76674452Y-77913623D01*
X77009377Y-77689833D01*
X77194966Y-77612960D01*
X77381526Y-77535684D01*
X77776594Y-77457100D01*
X78179406Y-77457100D01*
X78574474Y-77535684D01*
X78574474Y-77535684D01*
G37*
G36*
X116674474Y-77535684D02*
G01*
X116861034Y-77612960D01*
X117046623Y-77689833D01*
X117381548Y-77913623D01*
X117666377Y-78198452D01*
X117890167Y-78533377D01*
X117890167Y-78533378D01*
X118044316Y-78905526D01*
X118122900Y-79300594D01*
X118122900Y-79703406D01*
X118044316Y-80098474D01*
X117954017Y-80316474D01*
X117890167Y-80470623D01*
X117666377Y-80805548D01*
X117381548Y-81090377D01*
X117046623Y-81314167D01*
X116892474Y-81378017D01*
X116674474Y-81468316D01*
X116279406Y-81546900D01*
X115876594Y-81546900D01*
X115481526Y-81468316D01*
X115263526Y-81378017D01*
X115109377Y-81314167D01*
X114774452Y-81090377D01*
X114489623Y-80805548D01*
X114265833Y-80470623D01*
X114201983Y-80316474D01*
X114111684Y-80098474D01*
X114033100Y-79703406D01*
X114033100Y-79300594D01*
X114111684Y-78905526D01*
X114265833Y-78533378D01*
X114265833Y-78533377D01*
X114489623Y-78198452D01*
X114774452Y-77913623D01*
X115109377Y-77689833D01*
X115294966Y-77612960D01*
X115481526Y-77535684D01*
X115876594Y-77457100D01*
X116279406Y-77457100D01*
X116674474Y-77535684D01*
X116674474Y-77535684D01*
G37*
G36*
X97624474Y-77535684D02*
G01*
X97811034Y-77612960D01*
X97996623Y-77689833D01*
X98331548Y-77913623D01*
X98616377Y-78198452D01*
X98840167Y-78533377D01*
X98840167Y-78533378D01*
X98994316Y-78905526D01*
X99072900Y-79300594D01*
X99072900Y-79703406D01*
X98994316Y-80098474D01*
X98904017Y-80316474D01*
X98840167Y-80470623D01*
X98616377Y-80805548D01*
X98331548Y-81090377D01*
X97996623Y-81314167D01*
X97842474Y-81378017D01*
X97624474Y-81468316D01*
X97229406Y-81546900D01*
X96826594Y-81546900D01*
X96431526Y-81468316D01*
X96213526Y-81378017D01*
X96059377Y-81314167D01*
X95724452Y-81090377D01*
X95439623Y-80805548D01*
X95215833Y-80470623D01*
X95151983Y-80316474D01*
X95061684Y-80098474D01*
X94983100Y-79703406D01*
X94983100Y-79300594D01*
X95061684Y-78905526D01*
X95215833Y-78533378D01*
X95215833Y-78533377D01*
X95439623Y-78198452D01*
X95724452Y-77913623D01*
X96059377Y-77689833D01*
X96244966Y-77612960D01*
X96431526Y-77535684D01*
X96826594Y-77457100D01*
X97229406Y-77457100D01*
X97624474Y-77535684D01*
X97624474Y-77535684D01*
G37*
G36*
X83224572Y-75665724D02*
G01*
X83408421Y-75708085D01*
X83474303Y-75723265D01*
X83708010Y-75828420D01*
X83760450Y-75865791D01*
X83916712Y-75977148D01*
X84072243Y-76142340D01*
X84092387Y-76163735D01*
X84228287Y-76381009D01*
X84319187Y-76620621D01*
X84361594Y-76873362D01*
X84353880Y-77129519D01*
X84296339Y-77379251D01*
X84191184Y-77612958D01*
X84153813Y-77665398D01*
X84042456Y-77821660D01*
X83867004Y-77986851D01*
X83855869Y-77997335D01*
X83638595Y-78133235D01*
X83398983Y-78224135D01*
X83236787Y-78251350D01*
X83209572Y-78255916D01*
X82503392Y-78304058D01*
X82311428Y-78298276D01*
X82061701Y-78240736D01*
X82061697Y-78240735D01*
X81827990Y-78135580D01*
X81775550Y-78098209D01*
X81619288Y-77986852D01*
X81443613Y-77800265D01*
X81307714Y-77582992D01*
X81307713Y-77582991D01*
X81216813Y-77343379D01*
X81174406Y-77090638D01*
X81182120Y-76834481D01*
X81239661Y-76584749D01*
X81344816Y-76351042D01*
X81382187Y-76298602D01*
X81493544Y-76142340D01*
X81680131Y-75966665D01*
X81897405Y-75830765D01*
X82137017Y-75739865D01*
X82326429Y-75708084D01*
X82789072Y-75676545D01*
X83032606Y-75659942D01*
X83224572Y-75665724D01*
X83224572Y-75665724D01*
G37*
G36*
X102274572Y-75665724D02*
G01*
X102458421Y-75708085D01*
X102524303Y-75723265D01*
X102758010Y-75828420D01*
X102810450Y-75865791D01*
X102966712Y-75977148D01*
X103122243Y-76142340D01*
X103142387Y-76163735D01*
X103278287Y-76381009D01*
X103369187Y-76620621D01*
X103411594Y-76873362D01*
X103403880Y-77129519D01*
X103346339Y-77379251D01*
X103241184Y-77612958D01*
X103203813Y-77665398D01*
X103092456Y-77821660D01*
X102917004Y-77986851D01*
X102905869Y-77997335D01*
X102688595Y-78133235D01*
X102448983Y-78224135D01*
X102286787Y-78251350D01*
X102259572Y-78255916D01*
X101553392Y-78304058D01*
X101361428Y-78298276D01*
X101111701Y-78240736D01*
X101111697Y-78240735D01*
X100877990Y-78135580D01*
X100825550Y-78098209D01*
X100669288Y-77986852D01*
X100493613Y-77800265D01*
X100357714Y-77582992D01*
X100357713Y-77582991D01*
X100266813Y-77343379D01*
X100224406Y-77090638D01*
X100232120Y-76834481D01*
X100289661Y-76584749D01*
X100394816Y-76351042D01*
X100432187Y-76298602D01*
X100543544Y-76142340D01*
X100730131Y-75966665D01*
X100947405Y-75830765D01*
X101187017Y-75739865D01*
X101376429Y-75708084D01*
X101839072Y-75676545D01*
X102082606Y-75659942D01*
X102274572Y-75665724D01*
X102274572Y-75665724D01*
G37*
G36*
X121324572Y-75665724D02*
G01*
X121508421Y-75708085D01*
X121574303Y-75723265D01*
X121808010Y-75828420D01*
X121860450Y-75865791D01*
X122016712Y-75977148D01*
X122172243Y-76142340D01*
X122192387Y-76163735D01*
X122328287Y-76381009D01*
X122419187Y-76620621D01*
X122461594Y-76873362D01*
X122453880Y-77129519D01*
X122396339Y-77379251D01*
X122291184Y-77612958D01*
X122253813Y-77665398D01*
X122142456Y-77821660D01*
X121967004Y-77986851D01*
X121955869Y-77997335D01*
X121738595Y-78133235D01*
X121498983Y-78224135D01*
X121336787Y-78251350D01*
X121309572Y-78255916D01*
X120603392Y-78304058D01*
X120411428Y-78298276D01*
X120161701Y-78240736D01*
X120161697Y-78240735D01*
X119927990Y-78135580D01*
X119875550Y-78098209D01*
X119719288Y-77986852D01*
X119543613Y-77800265D01*
X119407714Y-77582992D01*
X119407713Y-77582991D01*
X119316813Y-77343379D01*
X119274406Y-77090638D01*
X119282120Y-76834481D01*
X119339661Y-76584749D01*
X119444816Y-76351042D01*
X119482187Y-76298602D01*
X119593544Y-76142340D01*
X119780131Y-75966665D01*
X119997405Y-75830765D01*
X120237017Y-75739865D01*
X120426429Y-75708084D01*
X120889072Y-75676545D01*
X121132606Y-75659942D01*
X121324572Y-75665724D01*
X121324572Y-75665724D01*
G37*
G36*
X140374572Y-75665724D02*
G01*
X140558421Y-75708085D01*
X140624303Y-75723265D01*
X140858010Y-75828420D01*
X140910450Y-75865791D01*
X141066712Y-75977148D01*
X141222243Y-76142340D01*
X141242387Y-76163735D01*
X141378287Y-76381009D01*
X141469187Y-76620621D01*
X141511594Y-76873362D01*
X141503880Y-77129519D01*
X141446339Y-77379251D01*
X141341184Y-77612958D01*
X141303813Y-77665398D01*
X141192456Y-77821660D01*
X141017004Y-77986851D01*
X141005869Y-77997335D01*
X140788595Y-78133235D01*
X140548983Y-78224135D01*
X140386787Y-78251350D01*
X140359572Y-78255916D01*
X139653392Y-78304058D01*
X139461428Y-78298276D01*
X139211701Y-78240736D01*
X139211697Y-78240735D01*
X138977990Y-78135580D01*
X138925550Y-78098209D01*
X138769288Y-77986852D01*
X138593613Y-77800265D01*
X138457714Y-77582992D01*
X138457713Y-77582991D01*
X138366813Y-77343379D01*
X138324406Y-77090638D01*
X138332120Y-76834481D01*
X138389661Y-76584749D01*
X138494816Y-76351042D01*
X138532187Y-76298602D01*
X138643544Y-76142340D01*
X138830131Y-75966665D01*
X139047405Y-75830765D01*
X139287017Y-75739865D01*
X139476429Y-75708084D01*
X139939072Y-75676545D01*
X140182606Y-75659942D01*
X140374572Y-75665724D01*
X140374572Y-75665724D01*
G37*
G36*
X135303952Y-73537430D02*
G01*
X135391075Y-73554759D01*
X135500498Y-73600084D01*
X135555211Y-73622747D01*
X135701933Y-73720783D01*
X135702928Y-73721448D01*
X135828552Y-73847072D01*
X135828554Y-73847075D01*
X135927253Y-73994789D01*
X135927253Y-73994790D01*
X135995241Y-74158925D01*
X136029900Y-74333171D01*
X136029900Y-74510829D01*
X135995241Y-74685075D01*
X135949916Y-74794498D01*
X135927253Y-74849211D01*
X135829217Y-74995933D01*
X135828552Y-74996928D01*
X135702928Y-75122552D01*
X135702925Y-75122554D01*
X135555211Y-75221253D01*
X135500498Y-75243916D01*
X135391075Y-75289241D01*
X135303952Y-75306571D01*
X135216831Y-75323900D01*
X135039169Y-75323900D01*
X134952048Y-75306571D01*
X134864925Y-75289241D01*
X134755502Y-75243916D01*
X134700789Y-75221253D01*
X134553075Y-75122554D01*
X134553072Y-75122552D01*
X134427448Y-74996928D01*
X134426783Y-74995933D01*
X134328747Y-74849211D01*
X134306084Y-74794498D01*
X134260759Y-74685075D01*
X134226100Y-74510829D01*
X134226100Y-74333171D01*
X134260759Y-74158925D01*
X134328747Y-73994790D01*
X134328747Y-73994789D01*
X134427446Y-73847075D01*
X134427448Y-73847072D01*
X134553072Y-73721448D01*
X134554067Y-73720783D01*
X134700789Y-73622747D01*
X134755502Y-73600084D01*
X134864925Y-73554759D01*
X134952048Y-73537430D01*
X135039169Y-73520100D01*
X135216831Y-73520100D01*
X135303952Y-73537430D01*
X135303952Y-73537430D01*
G37*
G36*
X116253952Y-73537430D02*
G01*
X116341075Y-73554759D01*
X116450498Y-73600084D01*
X116505211Y-73622747D01*
X116651933Y-73720783D01*
X116652928Y-73721448D01*
X116778552Y-73847072D01*
X116778554Y-73847075D01*
X116877253Y-73994789D01*
X116877253Y-73994790D01*
X116945241Y-74158925D01*
X116979900Y-74333171D01*
X116979900Y-74510829D01*
X116945241Y-74685075D01*
X116899916Y-74794498D01*
X116877253Y-74849211D01*
X116779217Y-74995933D01*
X116778552Y-74996928D01*
X116652928Y-75122552D01*
X116652925Y-75122554D01*
X116505211Y-75221253D01*
X116450498Y-75243916D01*
X116341075Y-75289241D01*
X116253952Y-75306571D01*
X116166831Y-75323900D01*
X115989169Y-75323900D01*
X115902048Y-75306571D01*
X115814925Y-75289241D01*
X115705502Y-75243916D01*
X115650789Y-75221253D01*
X115503075Y-75122554D01*
X115503072Y-75122552D01*
X115377448Y-74996928D01*
X115376783Y-74995933D01*
X115278747Y-74849211D01*
X115256084Y-74794498D01*
X115210759Y-74685075D01*
X115176100Y-74510829D01*
X115176100Y-74333171D01*
X115210759Y-74158925D01*
X115278747Y-73994790D01*
X115278747Y-73994789D01*
X115377446Y-73847075D01*
X115377448Y-73847072D01*
X115503072Y-73721448D01*
X115504067Y-73720783D01*
X115650789Y-73622747D01*
X115705502Y-73600084D01*
X115814925Y-73554759D01*
X115902048Y-73537430D01*
X115989169Y-73520100D01*
X116166831Y-73520100D01*
X116253952Y-73537430D01*
X116253952Y-73537430D01*
G37*
G36*
X97203952Y-73537430D02*
G01*
X97291075Y-73554759D01*
X97400498Y-73600084D01*
X97455211Y-73622747D01*
X97601933Y-73720783D01*
X97602928Y-73721448D01*
X97728552Y-73847072D01*
X97728554Y-73847075D01*
X97827253Y-73994789D01*
X97827253Y-73994790D01*
X97895241Y-74158925D01*
X97929900Y-74333171D01*
X97929900Y-74510829D01*
X97895241Y-74685075D01*
X97849916Y-74794498D01*
X97827253Y-74849211D01*
X97729217Y-74995933D01*
X97728552Y-74996928D01*
X97602928Y-75122552D01*
X97602925Y-75122554D01*
X97455211Y-75221253D01*
X97400498Y-75243916D01*
X97291075Y-75289241D01*
X97203952Y-75306571D01*
X97116831Y-75323900D01*
X96939169Y-75323900D01*
X96852048Y-75306571D01*
X96764925Y-75289241D01*
X96655502Y-75243916D01*
X96600789Y-75221253D01*
X96453075Y-75122554D01*
X96453072Y-75122552D01*
X96327448Y-74996928D01*
X96326783Y-74995933D01*
X96228747Y-74849211D01*
X96206084Y-74794498D01*
X96160759Y-74685075D01*
X96126100Y-74510829D01*
X96126100Y-74333171D01*
X96160759Y-74158925D01*
X96228747Y-73994790D01*
X96228747Y-73994789D01*
X96327446Y-73847075D01*
X96327448Y-73847072D01*
X96453072Y-73721448D01*
X96454067Y-73720783D01*
X96600789Y-73622747D01*
X96655502Y-73600084D01*
X96764925Y-73554759D01*
X96852048Y-73537430D01*
X96939169Y-73520100D01*
X97116831Y-73520100D01*
X97203952Y-73537430D01*
X97203952Y-73537430D01*
G37*
G36*
X78153952Y-73537430D02*
G01*
X78241075Y-73554759D01*
X78350498Y-73600084D01*
X78405211Y-73622747D01*
X78551933Y-73720783D01*
X78552928Y-73721448D01*
X78678552Y-73847072D01*
X78678554Y-73847075D01*
X78777253Y-73994789D01*
X78777253Y-73994790D01*
X78845241Y-74158925D01*
X78879900Y-74333171D01*
X78879900Y-74510829D01*
X78845241Y-74685075D01*
X78799916Y-74794498D01*
X78777253Y-74849211D01*
X78679217Y-74995933D01*
X78678552Y-74996928D01*
X78552928Y-75122552D01*
X78552925Y-75122554D01*
X78405211Y-75221253D01*
X78350498Y-75243916D01*
X78241075Y-75289241D01*
X78153952Y-75306571D01*
X78066831Y-75323900D01*
X77889169Y-75323900D01*
X77802048Y-75306571D01*
X77714925Y-75289241D01*
X77605502Y-75243916D01*
X77550789Y-75221253D01*
X77403075Y-75122554D01*
X77403072Y-75122552D01*
X77277448Y-74996928D01*
X77276783Y-74995933D01*
X77178747Y-74849211D01*
X77156084Y-74794498D01*
X77110759Y-74685075D01*
X77076100Y-74510829D01*
X77076100Y-74333171D01*
X77110759Y-74158925D01*
X77178747Y-73994790D01*
X77178747Y-73994789D01*
X77277446Y-73847075D01*
X77277448Y-73847072D01*
X77403072Y-73721448D01*
X77404067Y-73720783D01*
X77550789Y-73622747D01*
X77605502Y-73600084D01*
X77714925Y-73554759D01*
X77802048Y-73537430D01*
X77889169Y-73520100D01*
X78066831Y-73520100D01*
X78153952Y-73537430D01*
X78153952Y-73537430D01*
G37*
G36*
X95498228Y-71063703D02*
G01*
X95653100Y-71127853D01*
X95792481Y-71220985D01*
X95911015Y-71339519D01*
X96004147Y-71478900D01*
X96068297Y-71633772D01*
X96101000Y-71798184D01*
X96101000Y-71965816D01*
X96068297Y-72130228D01*
X96004147Y-72285100D01*
X95911015Y-72424481D01*
X95792481Y-72543015D01*
X95653100Y-72636147D01*
X95498228Y-72700297D01*
X95333816Y-72733000D01*
X95166184Y-72733000D01*
X95001772Y-72700297D01*
X94846900Y-72636147D01*
X94707519Y-72543015D01*
X94588985Y-72424481D01*
X94495853Y-72285100D01*
X94431703Y-72130228D01*
X94399000Y-71965816D01*
X94399000Y-71798184D01*
X94431703Y-71633772D01*
X94495853Y-71478900D01*
X94588985Y-71339519D01*
X94707519Y-71220985D01*
X94846900Y-71127853D01*
X95001772Y-71063703D01*
X95166184Y-71031000D01*
X95333816Y-71031000D01*
X95498228Y-71063703D01*
X95498228Y-71063703D01*
G37*
G36*
X90418228Y-71063703D02*
G01*
X90573100Y-71127853D01*
X90712481Y-71220985D01*
X90831015Y-71339519D01*
X90924147Y-71478900D01*
X90988297Y-71633772D01*
X91021000Y-71798184D01*
X91021000Y-71965816D01*
X90988297Y-72130228D01*
X90924147Y-72285100D01*
X90831015Y-72424481D01*
X90712481Y-72543015D01*
X90573100Y-72636147D01*
X90418228Y-72700297D01*
X90253816Y-72733000D01*
X90086184Y-72733000D01*
X89921772Y-72700297D01*
X89766900Y-72636147D01*
X89627519Y-72543015D01*
X89508985Y-72424481D01*
X89415853Y-72285100D01*
X89351703Y-72130228D01*
X89319000Y-71965816D01*
X89319000Y-71798184D01*
X89351703Y-71633772D01*
X89415853Y-71478900D01*
X89508985Y-71339519D01*
X89627519Y-71220985D01*
X89766900Y-71127853D01*
X89921772Y-71063703D01*
X90086184Y-71031000D01*
X90253816Y-71031000D01*
X90418228Y-71063703D01*
X90418228Y-71063703D01*
G37*
G36*
X87878228Y-71063703D02*
G01*
X88033100Y-71127853D01*
X88172481Y-71220985D01*
X88291015Y-71339519D01*
X88384147Y-71478900D01*
X88448297Y-71633772D01*
X88481000Y-71798184D01*
X88481000Y-71965816D01*
X88448297Y-72130228D01*
X88384147Y-72285100D01*
X88291015Y-72424481D01*
X88172481Y-72543015D01*
X88033100Y-72636147D01*
X87878228Y-72700297D01*
X87713816Y-72733000D01*
X87546184Y-72733000D01*
X87381772Y-72700297D01*
X87226900Y-72636147D01*
X87087519Y-72543015D01*
X86968985Y-72424481D01*
X86875853Y-72285100D01*
X86811703Y-72130228D01*
X86779000Y-71965816D01*
X86779000Y-71798184D01*
X86811703Y-71633772D01*
X86875853Y-71478900D01*
X86968985Y-71339519D01*
X87087519Y-71220985D01*
X87226900Y-71127853D01*
X87381772Y-71063703D01*
X87546184Y-71031000D01*
X87713816Y-71031000D01*
X87878228Y-71063703D01*
X87878228Y-71063703D01*
G37*
G36*
X85338228Y-71063703D02*
G01*
X85493100Y-71127853D01*
X85632481Y-71220985D01*
X85751015Y-71339519D01*
X85844147Y-71478900D01*
X85908297Y-71633772D01*
X85941000Y-71798184D01*
X85941000Y-71965816D01*
X85908297Y-72130228D01*
X85844147Y-72285100D01*
X85751015Y-72424481D01*
X85632481Y-72543015D01*
X85493100Y-72636147D01*
X85338228Y-72700297D01*
X85173816Y-72733000D01*
X85006184Y-72733000D01*
X84841772Y-72700297D01*
X84686900Y-72636147D01*
X84547519Y-72543015D01*
X84428985Y-72424481D01*
X84335853Y-72285100D01*
X84271703Y-72130228D01*
X84239000Y-71965816D01*
X84239000Y-71798184D01*
X84271703Y-71633772D01*
X84335853Y-71478900D01*
X84428985Y-71339519D01*
X84547519Y-71220985D01*
X84686900Y-71127853D01*
X84841772Y-71063703D01*
X85006184Y-71031000D01*
X85173816Y-71031000D01*
X85338228Y-71063703D01*
X85338228Y-71063703D01*
G37*
G36*
X82798228Y-71063703D02*
G01*
X82953100Y-71127853D01*
X83092481Y-71220985D01*
X83211015Y-71339519D01*
X83304147Y-71478900D01*
X83368297Y-71633772D01*
X83401000Y-71798184D01*
X83401000Y-71965816D01*
X83368297Y-72130228D01*
X83304147Y-72285100D01*
X83211015Y-72424481D01*
X83092481Y-72543015D01*
X82953100Y-72636147D01*
X82798228Y-72700297D01*
X82633816Y-72733000D01*
X82466184Y-72733000D01*
X82301772Y-72700297D01*
X82146900Y-72636147D01*
X82007519Y-72543015D01*
X81888985Y-72424481D01*
X81795853Y-72285100D01*
X81731703Y-72130228D01*
X81699000Y-71965816D01*
X81699000Y-71798184D01*
X81731703Y-71633772D01*
X81795853Y-71478900D01*
X81888985Y-71339519D01*
X82007519Y-71220985D01*
X82146900Y-71127853D01*
X82301772Y-71063703D01*
X82466184Y-71031000D01*
X82633816Y-71031000D01*
X82798228Y-71063703D01*
X82798228Y-71063703D01*
G37*
G36*
X80258228Y-71063703D02*
G01*
X80413100Y-71127853D01*
X80552481Y-71220985D01*
X80671015Y-71339519D01*
X80764147Y-71478900D01*
X80828297Y-71633772D01*
X80861000Y-71798184D01*
X80861000Y-71965816D01*
X80828297Y-72130228D01*
X80764147Y-72285100D01*
X80671015Y-72424481D01*
X80552481Y-72543015D01*
X80413100Y-72636147D01*
X80258228Y-72700297D01*
X80093816Y-72733000D01*
X79926184Y-72733000D01*
X79761772Y-72700297D01*
X79606900Y-72636147D01*
X79467519Y-72543015D01*
X79348985Y-72424481D01*
X79255853Y-72285100D01*
X79191703Y-72130228D01*
X79159000Y-71965816D01*
X79159000Y-71798184D01*
X79191703Y-71633772D01*
X79255853Y-71478900D01*
X79348985Y-71339519D01*
X79467519Y-71220985D01*
X79606900Y-71127853D01*
X79761772Y-71063703D01*
X79926184Y-71031000D01*
X80093816Y-71031000D01*
X80258228Y-71063703D01*
X80258228Y-71063703D01*
G37*
G36*
X77718228Y-71063703D02*
G01*
X77873100Y-71127853D01*
X78012481Y-71220985D01*
X78131015Y-71339519D01*
X78224147Y-71478900D01*
X78288297Y-71633772D01*
X78321000Y-71798184D01*
X78321000Y-71965816D01*
X78288297Y-72130228D01*
X78224147Y-72285100D01*
X78131015Y-72424481D01*
X78012481Y-72543015D01*
X77873100Y-72636147D01*
X77718228Y-72700297D01*
X77553816Y-72733000D01*
X77386184Y-72733000D01*
X77221772Y-72700297D01*
X77066900Y-72636147D01*
X76927519Y-72543015D01*
X76808985Y-72424481D01*
X76715853Y-72285100D01*
X76651703Y-72130228D01*
X76619000Y-71965816D01*
X76619000Y-71798184D01*
X76651703Y-71633772D01*
X76715853Y-71478900D01*
X76808985Y-71339519D01*
X76927519Y-71220985D01*
X77066900Y-71127853D01*
X77221772Y-71063703D01*
X77386184Y-71031000D01*
X77553816Y-71031000D01*
X77718228Y-71063703D01*
X77718228Y-71063703D01*
G37*
G36*
X75178228Y-71063703D02*
G01*
X75333100Y-71127853D01*
X75472481Y-71220985D01*
X75591015Y-71339519D01*
X75684147Y-71478900D01*
X75748297Y-71633772D01*
X75781000Y-71798184D01*
X75781000Y-71965816D01*
X75748297Y-72130228D01*
X75684147Y-72285100D01*
X75591015Y-72424481D01*
X75472481Y-72543015D01*
X75333100Y-72636147D01*
X75178228Y-72700297D01*
X75013816Y-72733000D01*
X74846184Y-72733000D01*
X74681772Y-72700297D01*
X74526900Y-72636147D01*
X74387519Y-72543015D01*
X74268985Y-72424481D01*
X74175853Y-72285100D01*
X74111703Y-72130228D01*
X74079000Y-71965816D01*
X74079000Y-71798184D01*
X74111703Y-71633772D01*
X74175853Y-71478900D01*
X74268985Y-71339519D01*
X74387519Y-71220985D01*
X74526900Y-71127853D01*
X74681772Y-71063703D01*
X74846184Y-71031000D01*
X75013816Y-71031000D01*
X75178228Y-71063703D01*
X75178228Y-71063703D01*
G37*
G36*
X72638228Y-71063703D02*
G01*
X72793100Y-71127853D01*
X72932481Y-71220985D01*
X73051015Y-71339519D01*
X73144147Y-71478900D01*
X73208297Y-71633772D01*
X73241000Y-71798184D01*
X73241000Y-71965816D01*
X73208297Y-72130228D01*
X73144147Y-72285100D01*
X73051015Y-72424481D01*
X72932481Y-72543015D01*
X72793100Y-72636147D01*
X72638228Y-72700297D01*
X72473816Y-72733000D01*
X72306184Y-72733000D01*
X72141772Y-72700297D01*
X71986900Y-72636147D01*
X71847519Y-72543015D01*
X71728985Y-72424481D01*
X71635853Y-72285100D01*
X71571703Y-72130228D01*
X71539000Y-71965816D01*
X71539000Y-71798184D01*
X71571703Y-71633772D01*
X71635853Y-71478900D01*
X71728985Y-71339519D01*
X71847519Y-71220985D01*
X71986900Y-71127853D01*
X72141772Y-71063703D01*
X72306184Y-71031000D01*
X72473816Y-71031000D01*
X72638228Y-71063703D01*
X72638228Y-71063703D01*
G37*
G36*
X98038228Y-71063703D02*
G01*
X98193100Y-71127853D01*
X98332481Y-71220985D01*
X98451015Y-71339519D01*
X98544147Y-71478900D01*
X98608297Y-71633772D01*
X98641000Y-71798184D01*
X98641000Y-71965816D01*
X98608297Y-72130228D01*
X98544147Y-72285100D01*
X98451015Y-72424481D01*
X98332481Y-72543015D01*
X98193100Y-72636147D01*
X98038228Y-72700297D01*
X97873816Y-72733000D01*
X97706184Y-72733000D01*
X97541772Y-72700297D01*
X97386900Y-72636147D01*
X97247519Y-72543015D01*
X97128985Y-72424481D01*
X97035853Y-72285100D01*
X96971703Y-72130228D01*
X96939000Y-71965816D01*
X96939000Y-71798184D01*
X96971703Y-71633772D01*
X97035853Y-71478900D01*
X97128985Y-71339519D01*
X97247519Y-71220985D01*
X97386900Y-71127853D01*
X97541772Y-71063703D01*
X97706184Y-71031000D01*
X97873816Y-71031000D01*
X98038228Y-71063703D01*
X98038228Y-71063703D01*
G37*
G36*
X100578228Y-71063703D02*
G01*
X100733100Y-71127853D01*
X100872481Y-71220985D01*
X100991015Y-71339519D01*
X101084147Y-71478900D01*
X101148297Y-71633772D01*
X101181000Y-71798184D01*
X101181000Y-71965816D01*
X101148297Y-72130228D01*
X101084147Y-72285100D01*
X100991015Y-72424481D01*
X100872481Y-72543015D01*
X100733100Y-72636147D01*
X100578228Y-72700297D01*
X100413816Y-72733000D01*
X100246184Y-72733000D01*
X100081772Y-72700297D01*
X99926900Y-72636147D01*
X99787519Y-72543015D01*
X99668985Y-72424481D01*
X99575853Y-72285100D01*
X99511703Y-72130228D01*
X99479000Y-71965816D01*
X99479000Y-71798184D01*
X99511703Y-71633772D01*
X99575853Y-71478900D01*
X99668985Y-71339519D01*
X99787519Y-71220985D01*
X99926900Y-71127853D01*
X100081772Y-71063703D01*
X100246184Y-71031000D01*
X100413816Y-71031000D01*
X100578228Y-71063703D01*
X100578228Y-71063703D01*
G37*
G36*
X92958228Y-71063703D02*
G01*
X93113100Y-71127853D01*
X93252481Y-71220985D01*
X93371015Y-71339519D01*
X93464147Y-71478900D01*
X93528297Y-71633772D01*
X93561000Y-71798184D01*
X93561000Y-71965816D01*
X93528297Y-72130228D01*
X93464147Y-72285100D01*
X93371015Y-72424481D01*
X93252481Y-72543015D01*
X93113100Y-72636147D01*
X92958228Y-72700297D01*
X92793816Y-72733000D01*
X92626184Y-72733000D01*
X92461772Y-72700297D01*
X92306900Y-72636147D01*
X92167519Y-72543015D01*
X92048985Y-72424481D01*
X91955853Y-72285100D01*
X91891703Y-72130228D01*
X91859000Y-71965816D01*
X91859000Y-71798184D01*
X91891703Y-71633772D01*
X91955853Y-71478900D01*
X92048985Y-71339519D01*
X92167519Y-71220985D01*
X92306900Y-71127853D01*
X92461772Y-71063703D01*
X92626184Y-71031000D01*
X92793816Y-71031000D01*
X92958228Y-71063703D01*
X92958228Y-71063703D01*
G37*
G36*
X130685714Y-69168389D02*
G01*
X130766645Y-69201912D01*
X130839480Y-69250579D01*
X130901421Y-69312520D01*
X130950088Y-69385355D01*
X130983611Y-69466286D01*
X131000700Y-69552201D01*
X131000700Y-69639799D01*
X130983611Y-69725714D01*
X130950088Y-69806645D01*
X130901421Y-69879480D01*
X130839480Y-69941421D01*
X130766645Y-69990088D01*
X130766644Y-69990089D01*
X130766643Y-69990089D01*
X130685714Y-70023611D01*
X130599801Y-70040700D01*
X130512199Y-70040700D01*
X130426286Y-70023611D01*
X130345357Y-69990089D01*
X130345356Y-69990089D01*
X130345355Y-69990088D01*
X130272520Y-69941421D01*
X130210579Y-69879480D01*
X130161912Y-69806645D01*
X130128389Y-69725714D01*
X130111300Y-69639799D01*
X130111300Y-69552201D01*
X130128389Y-69466286D01*
X130161912Y-69385355D01*
X130210579Y-69312520D01*
X130272520Y-69250579D01*
X130345355Y-69201912D01*
X130426286Y-69168389D01*
X130512199Y-69151300D01*
X130599801Y-69151300D01*
X130685714Y-69168389D01*
X130685714Y-69168389D01*
G37*
G36*
X129415714Y-69168389D02*
G01*
X129496645Y-69201912D01*
X129569480Y-69250579D01*
X129631421Y-69312520D01*
X129680088Y-69385355D01*
X129713611Y-69466286D01*
X129730700Y-69552201D01*
X129730700Y-69639799D01*
X129713611Y-69725714D01*
X129680088Y-69806645D01*
X129631421Y-69879480D01*
X129569480Y-69941421D01*
X129496645Y-69990088D01*
X129496644Y-69990089D01*
X129496643Y-69990089D01*
X129415714Y-70023611D01*
X129329801Y-70040700D01*
X129242199Y-70040700D01*
X129156286Y-70023611D01*
X129075357Y-69990089D01*
X129075356Y-69990089D01*
X129075355Y-69990088D01*
X129002520Y-69941421D01*
X128940579Y-69879480D01*
X128891912Y-69806645D01*
X128858389Y-69725714D01*
X128841300Y-69639799D01*
X128841300Y-69552201D01*
X128858389Y-69466286D01*
X128891912Y-69385355D01*
X128940579Y-69312520D01*
X129002520Y-69250579D01*
X129075355Y-69201912D01*
X129156286Y-69168389D01*
X129242199Y-69151300D01*
X129329801Y-69151300D01*
X129415714Y-69168389D01*
X129415714Y-69168389D01*
G37*
G36*
X128145714Y-69168389D02*
G01*
X128226645Y-69201912D01*
X128299480Y-69250579D01*
X128361421Y-69312520D01*
X128410088Y-69385355D01*
X128443611Y-69466286D01*
X128460700Y-69552201D01*
X128460700Y-69639799D01*
X128443611Y-69725714D01*
X128410088Y-69806645D01*
X128361421Y-69879480D01*
X128299480Y-69941421D01*
X128226645Y-69990088D01*
X128226644Y-69990089D01*
X128226643Y-69990089D01*
X128145714Y-70023611D01*
X128059801Y-70040700D01*
X127972199Y-70040700D01*
X127886286Y-70023611D01*
X127805357Y-69990089D01*
X127805356Y-69990089D01*
X127805355Y-69990088D01*
X127732520Y-69941421D01*
X127670579Y-69879480D01*
X127621912Y-69806645D01*
X127588389Y-69725714D01*
X127571300Y-69639799D01*
X127571300Y-69552201D01*
X127588389Y-69466286D01*
X127621912Y-69385355D01*
X127670579Y-69312520D01*
X127732520Y-69250579D01*
X127805355Y-69201912D01*
X127886286Y-69168389D01*
X127972199Y-69151300D01*
X128059801Y-69151300D01*
X128145714Y-69168389D01*
X128145714Y-69168389D01*
G37*
G36*
X126875714Y-69168389D02*
G01*
X126956645Y-69201912D01*
X127029480Y-69250579D01*
X127091421Y-69312520D01*
X127140088Y-69385355D01*
X127173611Y-69466286D01*
X127190700Y-69552201D01*
X127190700Y-69639799D01*
X127173611Y-69725714D01*
X127140088Y-69806645D01*
X127091421Y-69879480D01*
X127029480Y-69941421D01*
X126956645Y-69990088D01*
X126956644Y-69990089D01*
X126956643Y-69990089D01*
X126875714Y-70023611D01*
X126789801Y-70040700D01*
X126702199Y-70040700D01*
X126616286Y-70023611D01*
X126535357Y-69990089D01*
X126535356Y-69990089D01*
X126535355Y-69990088D01*
X126462520Y-69941421D01*
X126400579Y-69879480D01*
X126351912Y-69806645D01*
X126318389Y-69725714D01*
X126301300Y-69639799D01*
X126301300Y-69552201D01*
X126318389Y-69466286D01*
X126351912Y-69385355D01*
X126400579Y-69312520D01*
X126462520Y-69250579D01*
X126535355Y-69201912D01*
X126616286Y-69168389D01*
X126702199Y-69151300D01*
X126789801Y-69151300D01*
X126875714Y-69168389D01*
X126875714Y-69168389D01*
G37*
G36*
X86489714Y-69168389D02*
G01*
X86570645Y-69201912D01*
X86643480Y-69250579D01*
X86705421Y-69312520D01*
X86754088Y-69385355D01*
X86787611Y-69466286D01*
X86804700Y-69552201D01*
X86804700Y-69639799D01*
X86787611Y-69725714D01*
X86754088Y-69806645D01*
X86705421Y-69879480D01*
X86643480Y-69941421D01*
X86570645Y-69990088D01*
X86570644Y-69990089D01*
X86570643Y-69990089D01*
X86489714Y-70023611D01*
X86403801Y-70040700D01*
X86316199Y-70040700D01*
X86230286Y-70023611D01*
X86149357Y-69990089D01*
X86149356Y-69990089D01*
X86149355Y-69990088D01*
X86076520Y-69941421D01*
X86014579Y-69879480D01*
X85965912Y-69806645D01*
X85932389Y-69725714D01*
X85915300Y-69639799D01*
X85915300Y-69552201D01*
X85932389Y-69466286D01*
X85965912Y-69385355D01*
X86014579Y-69312520D01*
X86076520Y-69250579D01*
X86149355Y-69201912D01*
X86230286Y-69168389D01*
X86316199Y-69151300D01*
X86403801Y-69151300D01*
X86489714Y-69168389D01*
X86489714Y-69168389D01*
G37*
G36*
X85219714Y-69168389D02*
G01*
X85300645Y-69201912D01*
X85373480Y-69250579D01*
X85435421Y-69312520D01*
X85484088Y-69385355D01*
X85517611Y-69466286D01*
X85534700Y-69552201D01*
X85534700Y-69639799D01*
X85517611Y-69725714D01*
X85484088Y-69806645D01*
X85435421Y-69879480D01*
X85373480Y-69941421D01*
X85300645Y-69990088D01*
X85300644Y-69990089D01*
X85300643Y-69990089D01*
X85219714Y-70023611D01*
X85133801Y-70040700D01*
X85046199Y-70040700D01*
X84960286Y-70023611D01*
X84879357Y-69990089D01*
X84879356Y-69990089D01*
X84879355Y-69990088D01*
X84806520Y-69941421D01*
X84744579Y-69879480D01*
X84695912Y-69806645D01*
X84662389Y-69725714D01*
X84645300Y-69639799D01*
X84645300Y-69552201D01*
X84662389Y-69466286D01*
X84695912Y-69385355D01*
X84744579Y-69312520D01*
X84806520Y-69250579D01*
X84879355Y-69201912D01*
X84960286Y-69168389D01*
X85046199Y-69151300D01*
X85133801Y-69151300D01*
X85219714Y-69168389D01*
X85219714Y-69168389D01*
G37*
G36*
X83949714Y-69168389D02*
G01*
X84030645Y-69201912D01*
X84103480Y-69250579D01*
X84165421Y-69312520D01*
X84214088Y-69385355D01*
X84247611Y-69466286D01*
X84264700Y-69552201D01*
X84264700Y-69639799D01*
X84247611Y-69725714D01*
X84214088Y-69806645D01*
X84165421Y-69879480D01*
X84103480Y-69941421D01*
X84030645Y-69990088D01*
X84030644Y-69990089D01*
X84030643Y-69990089D01*
X83949714Y-70023611D01*
X83863801Y-70040700D01*
X83776199Y-70040700D01*
X83690286Y-70023611D01*
X83609357Y-69990089D01*
X83609356Y-69990089D01*
X83609355Y-69990088D01*
X83536520Y-69941421D01*
X83474579Y-69879480D01*
X83425912Y-69806645D01*
X83392389Y-69725714D01*
X83375300Y-69639799D01*
X83375300Y-69552201D01*
X83392389Y-69466286D01*
X83425912Y-69385355D01*
X83474579Y-69312520D01*
X83536520Y-69250579D01*
X83609355Y-69201912D01*
X83690286Y-69168389D01*
X83776199Y-69151300D01*
X83863801Y-69151300D01*
X83949714Y-69168389D01*
X83949714Y-69168389D01*
G37*
G36*
X82679714Y-69168389D02*
G01*
X82760645Y-69201912D01*
X82833480Y-69250579D01*
X82895421Y-69312520D01*
X82944088Y-69385355D01*
X82977611Y-69466286D01*
X82994700Y-69552201D01*
X82994700Y-69639799D01*
X82977611Y-69725714D01*
X82944088Y-69806645D01*
X82895421Y-69879480D01*
X82833480Y-69941421D01*
X82760645Y-69990088D01*
X82760644Y-69990089D01*
X82760643Y-69990089D01*
X82679714Y-70023611D01*
X82593801Y-70040700D01*
X82506199Y-70040700D01*
X82420286Y-70023611D01*
X82339357Y-69990089D01*
X82339356Y-69990089D01*
X82339355Y-69990088D01*
X82266520Y-69941421D01*
X82204579Y-69879480D01*
X82155912Y-69806645D01*
X82122389Y-69725714D01*
X82105300Y-69639799D01*
X82105300Y-69552201D01*
X82122389Y-69466286D01*
X82155912Y-69385355D01*
X82204579Y-69312520D01*
X82266520Y-69250579D01*
X82339355Y-69201912D01*
X82420286Y-69168389D01*
X82506199Y-69151300D01*
X82593801Y-69151300D01*
X82679714Y-69168389D01*
X82679714Y-69168389D01*
G37*
G36*
X81409714Y-69168389D02*
G01*
X81490645Y-69201912D01*
X81563480Y-69250579D01*
X81625421Y-69312520D01*
X81674088Y-69385355D01*
X81707611Y-69466286D01*
X81724700Y-69552201D01*
X81724700Y-69639799D01*
X81707611Y-69725714D01*
X81674088Y-69806645D01*
X81625421Y-69879480D01*
X81563480Y-69941421D01*
X81490645Y-69990088D01*
X81490644Y-69990089D01*
X81490643Y-69990089D01*
X81409714Y-70023611D01*
X81323801Y-70040700D01*
X81236199Y-70040700D01*
X81150286Y-70023611D01*
X81069357Y-69990089D01*
X81069356Y-69990089D01*
X81069355Y-69990088D01*
X80996520Y-69941421D01*
X80934579Y-69879480D01*
X80885912Y-69806645D01*
X80852389Y-69725714D01*
X80835300Y-69639799D01*
X80835300Y-69552201D01*
X80852389Y-69466286D01*
X80885912Y-69385355D01*
X80934579Y-69312520D01*
X80996520Y-69250579D01*
X81069355Y-69201912D01*
X81150286Y-69168389D01*
X81236199Y-69151300D01*
X81323801Y-69151300D01*
X81409714Y-69168389D01*
X81409714Y-69168389D01*
G37*
G36*
X131955714Y-69168389D02*
G01*
X132036645Y-69201912D01*
X132109480Y-69250579D01*
X132171421Y-69312520D01*
X132220088Y-69385355D01*
X132253611Y-69466286D01*
X132270700Y-69552201D01*
X132270700Y-69639799D01*
X132253611Y-69725714D01*
X132220088Y-69806645D01*
X132171421Y-69879480D01*
X132109480Y-69941421D01*
X132036645Y-69990088D01*
X132036644Y-69990089D01*
X132036643Y-69990089D01*
X131955714Y-70023611D01*
X131869801Y-70040700D01*
X131782199Y-70040700D01*
X131696286Y-70023611D01*
X131615357Y-69990089D01*
X131615356Y-69990089D01*
X131615355Y-69990088D01*
X131542520Y-69941421D01*
X131480579Y-69879480D01*
X131431912Y-69806645D01*
X131398389Y-69725714D01*
X131381300Y-69639799D01*
X131381300Y-69552201D01*
X131398389Y-69466286D01*
X131431912Y-69385355D01*
X131480579Y-69312520D01*
X131542520Y-69250579D01*
X131615355Y-69201912D01*
X131696286Y-69168389D01*
X131782199Y-69151300D01*
X131869801Y-69151300D01*
X131955714Y-69168389D01*
X131955714Y-69168389D01*
G37*
G36*
X131955714Y-67644389D02*
G01*
X132036645Y-67677912D01*
X132109480Y-67726579D01*
X132171421Y-67788520D01*
X132220088Y-67861355D01*
X132253611Y-67942286D01*
X132270700Y-68028201D01*
X132270700Y-68115799D01*
X132253611Y-68201714D01*
X132220088Y-68282645D01*
X132171421Y-68355480D01*
X132109480Y-68417421D01*
X132036645Y-68466088D01*
X132036644Y-68466089D01*
X132036643Y-68466089D01*
X131955714Y-68499611D01*
X131869801Y-68516700D01*
X131782199Y-68516700D01*
X131696286Y-68499611D01*
X131615357Y-68466089D01*
X131615356Y-68466089D01*
X131615355Y-68466088D01*
X131542520Y-68417421D01*
X131480579Y-68355480D01*
X131431912Y-68282645D01*
X131398389Y-68201714D01*
X131381300Y-68115799D01*
X131381300Y-68028201D01*
X131398389Y-67942286D01*
X131431912Y-67861355D01*
X131480579Y-67788520D01*
X131542520Y-67726579D01*
X131615355Y-67677912D01*
X131696286Y-67644389D01*
X131782199Y-67627300D01*
X131869801Y-67627300D01*
X131955714Y-67644389D01*
X131955714Y-67644389D01*
G37*
G36*
X86489714Y-67644389D02*
G01*
X86570645Y-67677912D01*
X86643480Y-67726579D01*
X86705421Y-67788520D01*
X86754088Y-67861355D01*
X86787611Y-67942286D01*
X86804700Y-68028201D01*
X86804700Y-68115799D01*
X86787611Y-68201714D01*
X86754088Y-68282645D01*
X86705421Y-68355480D01*
X86643480Y-68417421D01*
X86570645Y-68466088D01*
X86570644Y-68466089D01*
X86570643Y-68466089D01*
X86489714Y-68499611D01*
X86403801Y-68516700D01*
X86316199Y-68516700D01*
X86230286Y-68499611D01*
X86149357Y-68466089D01*
X86149356Y-68466089D01*
X86149355Y-68466088D01*
X86076520Y-68417421D01*
X86014579Y-68355480D01*
X85965912Y-68282645D01*
X85932389Y-68201714D01*
X85915300Y-68115799D01*
X85915300Y-68028201D01*
X85932389Y-67942286D01*
X85965912Y-67861355D01*
X86014579Y-67788520D01*
X86076520Y-67726579D01*
X86149355Y-67677912D01*
X86230286Y-67644389D01*
X86316199Y-67627300D01*
X86403801Y-67627300D01*
X86489714Y-67644389D01*
X86489714Y-67644389D01*
G37*
G36*
X85219714Y-67644389D02*
G01*
X85300645Y-67677912D01*
X85373480Y-67726579D01*
X85435421Y-67788520D01*
X85484088Y-67861355D01*
X85517611Y-67942286D01*
X85534700Y-68028201D01*
X85534700Y-68115799D01*
X85517611Y-68201714D01*
X85484088Y-68282645D01*
X85435421Y-68355480D01*
X85373480Y-68417421D01*
X85300645Y-68466088D01*
X85300644Y-68466089D01*
X85300643Y-68466089D01*
X85219714Y-68499611D01*
X85133801Y-68516700D01*
X85046199Y-68516700D01*
X84960286Y-68499611D01*
X84879357Y-68466089D01*
X84879356Y-68466089D01*
X84879355Y-68466088D01*
X84806520Y-68417421D01*
X84744579Y-68355480D01*
X84695912Y-68282645D01*
X84662389Y-68201714D01*
X84645300Y-68115799D01*
X84645300Y-68028201D01*
X84662389Y-67942286D01*
X84695912Y-67861355D01*
X84744579Y-67788520D01*
X84806520Y-67726579D01*
X84879355Y-67677912D01*
X84960286Y-67644389D01*
X85046199Y-67627300D01*
X85133801Y-67627300D01*
X85219714Y-67644389D01*
X85219714Y-67644389D01*
G37*
G36*
X81409714Y-67644389D02*
G01*
X81490645Y-67677912D01*
X81563480Y-67726579D01*
X81625421Y-67788520D01*
X81674088Y-67861355D01*
X81707611Y-67942286D01*
X81724700Y-68028201D01*
X81724700Y-68115799D01*
X81707611Y-68201714D01*
X81674088Y-68282645D01*
X81625421Y-68355480D01*
X81563480Y-68417421D01*
X81490645Y-68466088D01*
X81490644Y-68466089D01*
X81490643Y-68466089D01*
X81409714Y-68499611D01*
X81323801Y-68516700D01*
X81236199Y-68516700D01*
X81150286Y-68499611D01*
X81069357Y-68466089D01*
X81069356Y-68466089D01*
X81069355Y-68466088D01*
X80996520Y-68417421D01*
X80934579Y-68355480D01*
X80885912Y-68282645D01*
X80852389Y-68201714D01*
X80835300Y-68115799D01*
X80835300Y-68028201D01*
X80852389Y-67942286D01*
X80885912Y-67861355D01*
X80934579Y-67788520D01*
X80996520Y-67726579D01*
X81069355Y-67677912D01*
X81150286Y-67644389D01*
X81236199Y-67627300D01*
X81323801Y-67627300D01*
X81409714Y-67644389D01*
X81409714Y-67644389D01*
G37*
G36*
X82679714Y-67644389D02*
G01*
X82760645Y-67677912D01*
X82833480Y-67726579D01*
X82895421Y-67788520D01*
X82944088Y-67861355D01*
X82977611Y-67942286D01*
X82994700Y-68028201D01*
X82994700Y-68115799D01*
X82977611Y-68201714D01*
X82944088Y-68282645D01*
X82895421Y-68355480D01*
X82833480Y-68417421D01*
X82760645Y-68466088D01*
X82760644Y-68466089D01*
X82760643Y-68466089D01*
X82679714Y-68499611D01*
X82593801Y-68516700D01*
X82506199Y-68516700D01*
X82420286Y-68499611D01*
X82339357Y-68466089D01*
X82339356Y-68466089D01*
X82339355Y-68466088D01*
X82266520Y-68417421D01*
X82204579Y-68355480D01*
X82155912Y-68282645D01*
X82122389Y-68201714D01*
X82105300Y-68115799D01*
X82105300Y-68028201D01*
X82122389Y-67942286D01*
X82155912Y-67861355D01*
X82204579Y-67788520D01*
X82266520Y-67726579D01*
X82339355Y-67677912D01*
X82420286Y-67644389D01*
X82506199Y-67627300D01*
X82593801Y-67627300D01*
X82679714Y-67644389D01*
X82679714Y-67644389D01*
G37*
G36*
X83949714Y-67644389D02*
G01*
X84030645Y-67677912D01*
X84103480Y-67726579D01*
X84165421Y-67788520D01*
X84214088Y-67861355D01*
X84247611Y-67942286D01*
X84264700Y-68028201D01*
X84264700Y-68115799D01*
X84247611Y-68201714D01*
X84214088Y-68282645D01*
X84165421Y-68355480D01*
X84103480Y-68417421D01*
X84030645Y-68466088D01*
X84030644Y-68466089D01*
X84030643Y-68466089D01*
X83949714Y-68499611D01*
X83863801Y-68516700D01*
X83776199Y-68516700D01*
X83690286Y-68499611D01*
X83609357Y-68466089D01*
X83609356Y-68466089D01*
X83609355Y-68466088D01*
X83536520Y-68417421D01*
X83474579Y-68355480D01*
X83425912Y-68282645D01*
X83392389Y-68201714D01*
X83375300Y-68115799D01*
X83375300Y-68028201D01*
X83392389Y-67942286D01*
X83425912Y-67861355D01*
X83474579Y-67788520D01*
X83536520Y-67726579D01*
X83609355Y-67677912D01*
X83690286Y-67644389D01*
X83776199Y-67627300D01*
X83863801Y-67627300D01*
X83949714Y-67644389D01*
X83949714Y-67644389D01*
G37*
G36*
X130685714Y-67644389D02*
G01*
X130766645Y-67677912D01*
X130839480Y-67726579D01*
X130901421Y-67788520D01*
X130950088Y-67861355D01*
X130983611Y-67942286D01*
X131000700Y-68028201D01*
X131000700Y-68115799D01*
X130983611Y-68201714D01*
X130950088Y-68282645D01*
X130901421Y-68355480D01*
X130839480Y-68417421D01*
X130766645Y-68466088D01*
X130766644Y-68466089D01*
X130766643Y-68466089D01*
X130685714Y-68499611D01*
X130599801Y-68516700D01*
X130512199Y-68516700D01*
X130426286Y-68499611D01*
X130345357Y-68466089D01*
X130345356Y-68466089D01*
X130345355Y-68466088D01*
X130272520Y-68417421D01*
X130210579Y-68355480D01*
X130161912Y-68282645D01*
X130128389Y-68201714D01*
X130111300Y-68115799D01*
X130111300Y-68028201D01*
X130128389Y-67942286D01*
X130161912Y-67861355D01*
X130210579Y-67788520D01*
X130272520Y-67726579D01*
X130345355Y-67677912D01*
X130426286Y-67644389D01*
X130512199Y-67627300D01*
X130599801Y-67627300D01*
X130685714Y-67644389D01*
X130685714Y-67644389D01*
G37*
G36*
X126875714Y-67644389D02*
G01*
X126956645Y-67677912D01*
X127029480Y-67726579D01*
X127091421Y-67788520D01*
X127140088Y-67861355D01*
X127173611Y-67942286D01*
X127190700Y-68028201D01*
X127190700Y-68115799D01*
X127173611Y-68201714D01*
X127140088Y-68282645D01*
X127091421Y-68355480D01*
X127029480Y-68417421D01*
X126956645Y-68466088D01*
X126956644Y-68466089D01*
X126956643Y-68466089D01*
X126875714Y-68499611D01*
X126789801Y-68516700D01*
X126702199Y-68516700D01*
X126616286Y-68499611D01*
X126535357Y-68466089D01*
X126535356Y-68466089D01*
X126535355Y-68466088D01*
X126462520Y-68417421D01*
X126400579Y-68355480D01*
X126351912Y-68282645D01*
X126318389Y-68201714D01*
X126301300Y-68115799D01*
X126301300Y-68028201D01*
X126318389Y-67942286D01*
X126351912Y-67861355D01*
X126400579Y-67788520D01*
X126462520Y-67726579D01*
X126535355Y-67677912D01*
X126616286Y-67644389D01*
X126702199Y-67627300D01*
X126789801Y-67627300D01*
X126875714Y-67644389D01*
X126875714Y-67644389D01*
G37*
G36*
X128145714Y-67644389D02*
G01*
X128226645Y-67677912D01*
X128299480Y-67726579D01*
X128361421Y-67788520D01*
X128410088Y-67861355D01*
X128443611Y-67942286D01*
X128460700Y-68028201D01*
X128460700Y-68115799D01*
X128443611Y-68201714D01*
X128410088Y-68282645D01*
X128361421Y-68355480D01*
X128299480Y-68417421D01*
X128226645Y-68466088D01*
X128226644Y-68466089D01*
X128226643Y-68466089D01*
X128145714Y-68499611D01*
X128059801Y-68516700D01*
X127972199Y-68516700D01*
X127886286Y-68499611D01*
X127805357Y-68466089D01*
X127805356Y-68466089D01*
X127805355Y-68466088D01*
X127732520Y-68417421D01*
X127670579Y-68355480D01*
X127621912Y-68282645D01*
X127588389Y-68201714D01*
X127571300Y-68115799D01*
X127571300Y-68028201D01*
X127588389Y-67942286D01*
X127621912Y-67861355D01*
X127670579Y-67788520D01*
X127732520Y-67726579D01*
X127805355Y-67677912D01*
X127886286Y-67644389D01*
X127972199Y-67627300D01*
X128059801Y-67627300D01*
X128145714Y-67644389D01*
X128145714Y-67644389D01*
G37*
G36*
X129415714Y-67644389D02*
G01*
X129496645Y-67677912D01*
X129569480Y-67726579D01*
X129631421Y-67788520D01*
X129680088Y-67861355D01*
X129713611Y-67942286D01*
X129730700Y-68028201D01*
X129730700Y-68115799D01*
X129713611Y-68201714D01*
X129680088Y-68282645D01*
X129631421Y-68355480D01*
X129569480Y-68417421D01*
X129496645Y-68466088D01*
X129496644Y-68466089D01*
X129496643Y-68466089D01*
X129415714Y-68499611D01*
X129329801Y-68516700D01*
X129242199Y-68516700D01*
X129156286Y-68499611D01*
X129075357Y-68466089D01*
X129075356Y-68466089D01*
X129075355Y-68466088D01*
X129002520Y-68417421D01*
X128940579Y-68355480D01*
X128891912Y-68282645D01*
X128858389Y-68201714D01*
X128841300Y-68115799D01*
X128841300Y-68028201D01*
X128858389Y-67942286D01*
X128891912Y-67861355D01*
X128940579Y-67788520D01*
X129002520Y-67726579D01*
X129075355Y-67677912D01*
X129156286Y-67644389D01*
X129242199Y-67627300D01*
X129329801Y-67627300D01*
X129415714Y-67644389D01*
X129415714Y-67644389D01*
G37*
G36*
X146267241Y-63438760D02*
G01*
X146531305Y-63548139D01*
X146768958Y-63706934D01*
X146971066Y-63909042D01*
X147129861Y-64146695D01*
X147239240Y-64410759D01*
X147295000Y-64691088D01*
X147295000Y-64976912D01*
X147239240Y-65257241D01*
X147129861Y-65521305D01*
X146971066Y-65758958D01*
X146768958Y-65961066D01*
X146531305Y-66119861D01*
X146267241Y-66229240D01*
X145986912Y-66285000D01*
X145701088Y-66285000D01*
X145420759Y-66229240D01*
X145156695Y-66119861D01*
X144919042Y-65961066D01*
X144716934Y-65758958D01*
X144558139Y-65521305D01*
X144448760Y-65257241D01*
X144393000Y-64976912D01*
X144393000Y-64691088D01*
X144448760Y-64410759D01*
X144558139Y-64146695D01*
X144716934Y-63909042D01*
X144919042Y-63706934D01*
X145156695Y-63548139D01*
X145420759Y-63438760D01*
X145701088Y-63383000D01*
X145986912Y-63383000D01*
X146267241Y-63438760D01*
X146267241Y-63438760D01*
G37*
G36*
X66923241Y-63438760D02*
G01*
X67187305Y-63548139D01*
X67424958Y-63706934D01*
X67627066Y-63909042D01*
X67785861Y-64146695D01*
X67895240Y-64410759D01*
X67951000Y-64691088D01*
X67951000Y-64976912D01*
X67895240Y-65257241D01*
X67785861Y-65521305D01*
X67627066Y-65758958D01*
X67424958Y-65961066D01*
X67187305Y-66119861D01*
X66923241Y-66229240D01*
X66642912Y-66285000D01*
X66357088Y-66285000D01*
X66076759Y-66229240D01*
X65812695Y-66119861D01*
X65575042Y-65961066D01*
X65372934Y-65758958D01*
X65214139Y-65521305D01*
X65104760Y-65257241D01*
X65049000Y-64976912D01*
X65049000Y-64691088D01*
X65104760Y-64410759D01*
X65214139Y-64146695D01*
X65372934Y-63909042D01*
X65575042Y-63706934D01*
X65812695Y-63548139D01*
X66076759Y-63438760D01*
X66357088Y-63383000D01*
X66642912Y-63383000D01*
X66923241Y-63438760D01*
X66923241Y-63438760D01*
G37*
G36*
X109564254Y-52383818D02*
G01*
X109937511Y-52538426D01*
X109937513Y-52538427D01*
X110273436Y-52762884D01*
X110559116Y-53048564D01*
X110783574Y-53384489D01*
X110938182Y-53757746D01*
X111017000Y-54153993D01*
X111017000Y-54558007D01*
X110938182Y-54954254D01*
X110783574Y-55327511D01*
X110783573Y-55327513D01*
X110559116Y-55663436D01*
X110273436Y-55949116D01*
X109937513Y-56173573D01*
X109937512Y-56173574D01*
X109937511Y-56173574D01*
X109564254Y-56328182D01*
X109168007Y-56407000D01*
X108763993Y-56407000D01*
X108367746Y-56328182D01*
X107994489Y-56173574D01*
X107994488Y-56173574D01*
X107994487Y-56173573D01*
X107658564Y-55949116D01*
X107372884Y-55663436D01*
X107148427Y-55327513D01*
X107148426Y-55327511D01*
X106993818Y-54954254D01*
X106915000Y-54558007D01*
X106915000Y-54153993D01*
X106993818Y-53757746D01*
X107148426Y-53384489D01*
X107372884Y-53048564D01*
X107658564Y-52762884D01*
X107994487Y-52538427D01*
X107994489Y-52538426D01*
X108367746Y-52383818D01*
X108763993Y-52305000D01*
X109168007Y-52305000D01*
X109564254Y-52383818D01*
X109564254Y-52383818D01*
G37*
G36*
X146267241Y-42260760D02*
G01*
X146531305Y-42370139D01*
X146768958Y-42528934D01*
X146971066Y-42731042D01*
X147129861Y-42968695D01*
X147239240Y-43232759D01*
X147295000Y-43513088D01*
X147295000Y-43798912D01*
X147239240Y-44079241D01*
X147129861Y-44343305D01*
X146971066Y-44580958D01*
X146768958Y-44783066D01*
X146531305Y-44941861D01*
X146267241Y-45051240D01*
X145986912Y-45107000D01*
X145701088Y-45107000D01*
X145420759Y-45051240D01*
X145156695Y-44941861D01*
X144919042Y-44783066D01*
X144716934Y-44580958D01*
X144558139Y-44343305D01*
X144448760Y-44079241D01*
X144393000Y-43798912D01*
X144393000Y-43513088D01*
X144448760Y-43232759D01*
X144558139Y-42968695D01*
X144716934Y-42731042D01*
X144919042Y-42528934D01*
X145156695Y-42370139D01*
X145420759Y-42260760D01*
X145701088Y-42205000D01*
X145986912Y-42205000D01*
X146267241Y-42260760D01*
X146267241Y-42260760D01*
G37*
G36*
X66923241Y-42260760D02*
G01*
X67187305Y-42370139D01*
X67424958Y-42528934D01*
X67627066Y-42731042D01*
X67785861Y-42968695D01*
X67895240Y-43232759D01*
X67951000Y-43513088D01*
X67951000Y-43798912D01*
X67895240Y-44079241D01*
X67785861Y-44343305D01*
X67627066Y-44580958D01*
X67424958Y-44783066D01*
X67187305Y-44941861D01*
X66923241Y-45051240D01*
X66642912Y-45107000D01*
X66357088Y-45107000D01*
X66076759Y-45051240D01*
X65812695Y-44941861D01*
X65575042Y-44783066D01*
X65372934Y-44580958D01*
X65214139Y-44343305D01*
X65104760Y-44079241D01*
X65049000Y-43798912D01*
X65049000Y-43513088D01*
X65104760Y-43232759D01*
X65214139Y-42968695D01*
X65372934Y-42731042D01*
X65575042Y-42528934D01*
X65812695Y-42370139D01*
X66076759Y-42260760D01*
X66357088Y-42205000D01*
X66642912Y-42205000D01*
X66923241Y-42260760D01*
X66923241Y-42260760D01*
G37*
M02*
