G04 #@! TF.GenerationSoftware,KiCad,Pcbnew,(5.1.4-0-10_14)*
G04 #@! TF.CreationDate,2021-02-22T23:38:52-08:00*
G04 #@! TF.ProjectId,fourkey,666f7572-6b65-4792-9e6b-696361645f70,rev?*
G04 #@! TF.SameCoordinates,Original*
G04 #@! TF.FileFunction,Copper,L1,Top*
G04 #@! TF.FilePolarity,Positive*
%FSLAX46Y46*%
G04 Gerber Fmt 4.6, Leading zero omitted, Abs format (unit mm)*
G04 Created by KiCad (PCBNEW (5.1.4-0-10_14)) date 2021-02-22 23:38:52*
%MOMM*%
%LPD*%
G04 APERTURE LIST*
%ADD10C,2.500000*%
%ADD11C,2.500000*%
%ADD12C,1.600000*%
%ADD13R,1.600000X1.600000*%
%ADD14R,1.700000X1.000000*%
%ADD15C,0.250000*%
%ADD16C,0.254000*%
G04 APERTURE END LIST*
D10*
X142458000Y-91393000D03*
D11*
X141509185Y-91997462D02*
X143406815Y-90788538D01*
D10*
X143728000Y-85618000D03*
D11*
X143438672Y-85637724D02*
X144017328Y-85598276D01*
D12*
X133350000Y-80518000D03*
X135890000Y-80518000D03*
X138430000Y-80518000D03*
X140970000Y-80518000D03*
X143510000Y-80518000D03*
X146050000Y-80518000D03*
X148590000Y-80518000D03*
X151130000Y-80518000D03*
X153670000Y-80518000D03*
X156210000Y-80518000D03*
X158750000Y-80518000D03*
X161290000Y-80518000D03*
X161290000Y-95758000D03*
X158750000Y-95758000D03*
X156210000Y-95758000D03*
X153670000Y-95758000D03*
X151130000Y-95758000D03*
X148590000Y-95758000D03*
X146050000Y-95758000D03*
X143510000Y-95758000D03*
X140970000Y-95758000D03*
X138430000Y-95758000D03*
X135890000Y-95758000D03*
D13*
X133350000Y-95758000D03*
D10*
X162778000Y-85618000D03*
D11*
X162488672Y-85637724D02*
X163067328Y-85598276D01*
D10*
X161508000Y-91393000D03*
D11*
X160559185Y-91997462D02*
X162456815Y-90788538D01*
D10*
X180558000Y-91393000D03*
D11*
X179609185Y-91997462D02*
X181506815Y-90788538D01*
D10*
X181828000Y-85618000D03*
D11*
X181538672Y-85637724D02*
X182117328Y-85598276D01*
D10*
X200878000Y-85618000D03*
D11*
X200588672Y-85637724D02*
X201167328Y-85598276D01*
D10*
X199608000Y-91393000D03*
D11*
X198659185Y-91997462D02*
X200556815Y-90788538D01*
D14*
X166776000Y-86238000D03*
X173076000Y-86238000D03*
X166776000Y-90038000D03*
X173076000Y-90038000D03*
D15*
X148570000Y-85618000D02*
X153670000Y-80518000D01*
X143728000Y-85618000D02*
X148570000Y-85618000D01*
X159042099Y-81882099D02*
X161703469Y-84543469D01*
X157574099Y-81882099D02*
X159042099Y-81882099D01*
X161703469Y-84543469D02*
X162778000Y-85618000D01*
X156210000Y-80518000D02*
X157574099Y-81882099D01*
X143728000Y-80736000D02*
X143510000Y-80518000D01*
X159549999Y-81317999D02*
X158750000Y-80518000D01*
X159875001Y-81643001D02*
X159549999Y-81317999D01*
X173882667Y-81643001D02*
X159875001Y-81643001D01*
X177857666Y-85618000D02*
X173882667Y-81643001D01*
X181828000Y-85618000D02*
X177857666Y-85618000D01*
X159549999Y-94958001D02*
X158750000Y-95758000D01*
X159875001Y-94632999D02*
X159549999Y-94958001D01*
X173938620Y-94632999D02*
X159875001Y-94632999D01*
X179356901Y-89214718D02*
X173938620Y-94632999D01*
X181041282Y-89214718D02*
X179356901Y-89214718D01*
X184638000Y-85618000D02*
X181041282Y-89214718D01*
X200878000Y-85618000D02*
X184638000Y-85618000D01*
X166776000Y-86238000D02*
X173076000Y-86238000D01*
X164338000Y-87630000D02*
X165676000Y-86238000D01*
X165676000Y-86238000D02*
X166776000Y-86238000D01*
X159479099Y-85819099D02*
X161290000Y-87630000D01*
X138430000Y-80518000D02*
X141224000Y-83312000D01*
X155064026Y-87630000D02*
X156874927Y-85819099D01*
X142494000Y-87630000D02*
X155064026Y-87630000D01*
X141224000Y-86360000D02*
X142494000Y-87630000D01*
X161290000Y-87630000D02*
X164338000Y-87630000D01*
X156874927Y-85819099D02*
X159479099Y-85819099D01*
X141224000Y-83312000D02*
X141224000Y-86360000D01*
X165676000Y-90038000D02*
X164284000Y-88646000D01*
X166776000Y-90038000D02*
X165676000Y-90038000D01*
X164284000Y-88646000D02*
X160911974Y-88646000D01*
X167876000Y-90038000D02*
X173076000Y-90038000D01*
X166776000Y-90038000D02*
X167876000Y-90038000D01*
X159101073Y-90456901D02*
X160911974Y-88646000D01*
X146271099Y-90456901D02*
X159101073Y-90456901D01*
X140970000Y-95758000D02*
X146271099Y-90456901D01*
D16*
G36*
X147475363Y-96672759D02*
G01*
X147675241Y-96872637D01*
X147910273Y-97029680D01*
X148152467Y-97130000D01*
X147352419Y-97130000D01*
X147320000Y-97126807D01*
X147287581Y-97130000D01*
X147190617Y-97139550D01*
X147066207Y-97177290D01*
X146951550Y-97238575D01*
X146851052Y-97321052D01*
X146768575Y-97421550D01*
X146707290Y-97536207D01*
X146669550Y-97660617D01*
X146669315Y-97663000D01*
X142890685Y-97663000D01*
X142890450Y-97660617D01*
X142852710Y-97536207D01*
X142791425Y-97421550D01*
X142708948Y-97321052D01*
X142608450Y-97238575D01*
X142493793Y-97177290D01*
X142369383Y-97139550D01*
X142272419Y-97130000D01*
X142240000Y-97126807D01*
X142207581Y-97130000D01*
X141407533Y-97130000D01*
X141649727Y-97029680D01*
X141884759Y-96872637D01*
X142084637Y-96672759D01*
X142240000Y-96440241D01*
X142395363Y-96672759D01*
X142595241Y-96872637D01*
X142830273Y-97029680D01*
X143091426Y-97137853D01*
X143368665Y-97193000D01*
X143651335Y-97193000D01*
X143928574Y-97137853D01*
X144189727Y-97029680D01*
X144424759Y-96872637D01*
X144624637Y-96672759D01*
X144780000Y-96440241D01*
X144935363Y-96672759D01*
X145135241Y-96872637D01*
X145370273Y-97029680D01*
X145631426Y-97137853D01*
X145908665Y-97193000D01*
X146191335Y-97193000D01*
X146468574Y-97137853D01*
X146729727Y-97029680D01*
X146964759Y-96872637D01*
X147164637Y-96672759D01*
X147320000Y-96440241D01*
X147475363Y-96672759D01*
X147475363Y-96672759D01*
G37*
X147475363Y-96672759D02*
X147675241Y-96872637D01*
X147910273Y-97029680D01*
X148152467Y-97130000D01*
X147352419Y-97130000D01*
X147320000Y-97126807D01*
X147287581Y-97130000D01*
X147190617Y-97139550D01*
X147066207Y-97177290D01*
X146951550Y-97238575D01*
X146851052Y-97321052D01*
X146768575Y-97421550D01*
X146707290Y-97536207D01*
X146669550Y-97660617D01*
X146669315Y-97663000D01*
X142890685Y-97663000D01*
X142890450Y-97660617D01*
X142852710Y-97536207D01*
X142791425Y-97421550D01*
X142708948Y-97321052D01*
X142608450Y-97238575D01*
X142493793Y-97177290D01*
X142369383Y-97139550D01*
X142272419Y-97130000D01*
X142240000Y-97126807D01*
X142207581Y-97130000D01*
X141407533Y-97130000D01*
X141649727Y-97029680D01*
X141884759Y-96872637D01*
X142084637Y-96672759D01*
X142240000Y-96440241D01*
X142395363Y-96672759D01*
X142595241Y-96872637D01*
X142830273Y-97029680D01*
X143091426Y-97137853D01*
X143368665Y-97193000D01*
X143651335Y-97193000D01*
X143928574Y-97137853D01*
X144189727Y-97029680D01*
X144424759Y-96872637D01*
X144624637Y-96672759D01*
X144780000Y-96440241D01*
X144935363Y-96672759D01*
X145135241Y-96872637D01*
X145370273Y-97029680D01*
X145631426Y-97137853D01*
X145908665Y-97193000D01*
X146191335Y-97193000D01*
X146468574Y-97137853D01*
X146729727Y-97029680D01*
X146964759Y-96872637D01*
X147164637Y-96672759D01*
X147320000Y-96440241D01*
X147475363Y-96672759D01*
G36*
X192389550Y-78615383D02*
G01*
X192427290Y-78739793D01*
X192488575Y-78854450D01*
X192571052Y-78954948D01*
X192671550Y-79037425D01*
X192786207Y-79098710D01*
X192910617Y-79136450D01*
X193007581Y-79146000D01*
X193040000Y-79149193D01*
X193072419Y-79146000D01*
X205080001Y-79146000D01*
X205080000Y-97130000D01*
X193072419Y-97130000D01*
X193040000Y-97126807D01*
X193007581Y-97130000D01*
X192910617Y-97139550D01*
X192786207Y-97177290D01*
X192671550Y-97238575D01*
X192571052Y-97321052D01*
X192488575Y-97421550D01*
X192427290Y-97536207D01*
X192389550Y-97660617D01*
X192389315Y-97663000D01*
X188610685Y-97663000D01*
X188610450Y-97660617D01*
X188572710Y-97536207D01*
X188511425Y-97421550D01*
X188428948Y-97321052D01*
X188328450Y-97238575D01*
X188213793Y-97177290D01*
X188089383Y-97139550D01*
X187992419Y-97130000D01*
X187960000Y-97126807D01*
X187927581Y-97130000D01*
X161727533Y-97130000D01*
X161969727Y-97029680D01*
X162204759Y-96872637D01*
X162404637Y-96672759D01*
X162561680Y-96437727D01*
X162669853Y-96176574D01*
X162725000Y-95899335D01*
X162725000Y-95616665D01*
X162680509Y-95392999D01*
X173901298Y-95392999D01*
X173938620Y-95396675D01*
X173975942Y-95392999D01*
X173975953Y-95392999D01*
X174087606Y-95382002D01*
X174230867Y-95338545D01*
X174362896Y-95267973D01*
X174478621Y-95173000D01*
X174502424Y-95143996D01*
X175722562Y-93923858D01*
X175883826Y-94165206D01*
X176090794Y-94372174D01*
X176334162Y-94534788D01*
X176604579Y-94646798D01*
X176891652Y-94703900D01*
X177184348Y-94703900D01*
X177471421Y-94646798D01*
X177741838Y-94534788D01*
X177985206Y-94372174D01*
X178192174Y-94165206D01*
X178354788Y-93921838D01*
X178466798Y-93651421D01*
X178492353Y-93522946D01*
X178522763Y-93549034D01*
X178846336Y-93731172D01*
X179199223Y-93846683D01*
X179567865Y-93891131D01*
X179938096Y-93862806D01*
X180295686Y-93762796D01*
X180543899Y-93637007D01*
X181431328Y-93071652D01*
X194602100Y-93071652D01*
X194602100Y-93364348D01*
X194659202Y-93651421D01*
X194771212Y-93921838D01*
X194933826Y-94165206D01*
X195140794Y-94372174D01*
X195384162Y-94534788D01*
X195654579Y-94646798D01*
X195941652Y-94703900D01*
X196234348Y-94703900D01*
X196521421Y-94646798D01*
X196791838Y-94534788D01*
X197035206Y-94372174D01*
X197242174Y-94165206D01*
X197404788Y-93921838D01*
X197516798Y-93651421D01*
X197542353Y-93522946D01*
X197572763Y-93549034D01*
X197896336Y-93731172D01*
X198249223Y-93846683D01*
X198617865Y-93891131D01*
X198988096Y-93862806D01*
X199345686Y-93762796D01*
X199593899Y-93637007D01*
X201647720Y-92328578D01*
X201866623Y-92156782D01*
X202108387Y-91874961D01*
X202290524Y-91551389D01*
X202406036Y-91198501D01*
X202450483Y-90829859D01*
X202422158Y-90459627D01*
X202322149Y-90102037D01*
X202154299Y-89770829D01*
X201925058Y-89478730D01*
X201643237Y-89236966D01*
X201319664Y-89054829D01*
X200966777Y-88939317D01*
X200598134Y-88894869D01*
X200227903Y-88923195D01*
X199870312Y-89023204D01*
X199622100Y-89148994D01*
X197568280Y-90457422D01*
X197349377Y-90629218D01*
X197107613Y-90911040D01*
X196925475Y-91234613D01*
X196809964Y-91587500D01*
X196773076Y-91893441D01*
X196521421Y-91789202D01*
X196234348Y-91732100D01*
X195941652Y-91732100D01*
X195654579Y-91789202D01*
X195384162Y-91901212D01*
X195140794Y-92063826D01*
X194933826Y-92270794D01*
X194771212Y-92514162D01*
X194659202Y-92784579D01*
X194602100Y-93071652D01*
X181431328Y-93071652D01*
X182597720Y-92328578D01*
X182816623Y-92156782D01*
X183058387Y-91874961D01*
X183240524Y-91551389D01*
X183356036Y-91198501D01*
X183400483Y-90829859D01*
X183372158Y-90459627D01*
X183272149Y-90102037D01*
X183104299Y-89770829D01*
X182875058Y-89478730D01*
X182593237Y-89236966D01*
X182273700Y-89057101D01*
X184952803Y-86378000D01*
X194130174Y-86378000D01*
X194046000Y-86462174D01*
X193758299Y-86892749D01*
X193560127Y-87371178D01*
X193459100Y-87879076D01*
X193459100Y-88396924D01*
X193560127Y-88904822D01*
X193758299Y-89383251D01*
X194046000Y-89813826D01*
X194412174Y-90180000D01*
X194842749Y-90467701D01*
X195321178Y-90665873D01*
X195829076Y-90766900D01*
X196346924Y-90766900D01*
X196854822Y-90665873D01*
X197333251Y-90467701D01*
X197763826Y-90180000D01*
X198130000Y-89813826D01*
X198417701Y-89383251D01*
X198615873Y-88904822D01*
X198716900Y-88396924D01*
X198716900Y-87879076D01*
X198615873Y-87371178D01*
X198417701Y-86892749D01*
X198130000Y-86462174D01*
X198045826Y-86378000D01*
X198853423Y-86378000D01*
X198892085Y-86479913D01*
X199088989Y-86794719D01*
X199343523Y-87065061D01*
X199645908Y-87280552D01*
X199984523Y-87432910D01*
X200346355Y-87516279D01*
X200624495Y-87524656D01*
X201387916Y-87472613D01*
X201662347Y-87426566D01*
X202009517Y-87294863D01*
X202324323Y-87097959D01*
X202594665Y-86843425D01*
X202810156Y-86541040D01*
X202962514Y-86202425D01*
X203045883Y-85840593D01*
X203057061Y-85469450D01*
X202995618Y-85103257D01*
X202863914Y-84756087D01*
X202667011Y-84441281D01*
X202412477Y-84170939D01*
X202110092Y-83955448D01*
X201771477Y-83803090D01*
X201409645Y-83719721D01*
X201131504Y-83711344D01*
X200368084Y-83763387D01*
X200093653Y-83809434D01*
X199746483Y-83941137D01*
X199431677Y-84138041D01*
X199161335Y-84392575D01*
X198945844Y-84694960D01*
X198872485Y-84858000D01*
X184675322Y-84858000D01*
X184637999Y-84854324D01*
X184600676Y-84858000D01*
X184600667Y-84858000D01*
X184489014Y-84868997D01*
X184345753Y-84912454D01*
X184213724Y-84983026D01*
X184213722Y-84983027D01*
X184213723Y-84983027D01*
X184126996Y-85054201D01*
X184126992Y-85054205D01*
X184097999Y-85077999D01*
X184074205Y-85106992D01*
X183964630Y-85216567D01*
X183945618Y-85103257D01*
X183813914Y-84756087D01*
X183617011Y-84441281D01*
X183362477Y-84170939D01*
X183060092Y-83955448D01*
X182721477Y-83803090D01*
X182359645Y-83719721D01*
X182081504Y-83711344D01*
X181318084Y-83763387D01*
X181043653Y-83809434D01*
X180696483Y-83941137D01*
X180381677Y-84138041D01*
X180111335Y-84392575D01*
X179895844Y-84694960D01*
X179822485Y-84858000D01*
X178172469Y-84858000D01*
X177704657Y-84390189D01*
X177741838Y-84374788D01*
X177985206Y-84212174D01*
X178192174Y-84005206D01*
X178354788Y-83761838D01*
X178466798Y-83491421D01*
X178523900Y-83204348D01*
X178523900Y-82911652D01*
X194602100Y-82911652D01*
X194602100Y-83204348D01*
X194659202Y-83491421D01*
X194771212Y-83761838D01*
X194933826Y-84005206D01*
X195140794Y-84212174D01*
X195384162Y-84374788D01*
X195654579Y-84486798D01*
X195941652Y-84543900D01*
X196234348Y-84543900D01*
X196521421Y-84486798D01*
X196791838Y-84374788D01*
X197035206Y-84212174D01*
X197242174Y-84005206D01*
X197404788Y-83761838D01*
X197516798Y-83491421D01*
X197573900Y-83204348D01*
X197573900Y-82911652D01*
X197516798Y-82624579D01*
X197404788Y-82354162D01*
X197242174Y-82110794D01*
X197035206Y-81903826D01*
X196791838Y-81741212D01*
X196521421Y-81629202D01*
X196234348Y-81572100D01*
X195941652Y-81572100D01*
X195654579Y-81629202D01*
X195384162Y-81741212D01*
X195140794Y-81903826D01*
X194933826Y-82110794D01*
X194771212Y-82354162D01*
X194659202Y-82624579D01*
X194602100Y-82911652D01*
X178523900Y-82911652D01*
X178466798Y-82624579D01*
X178354788Y-82354162D01*
X178192174Y-82110794D01*
X177985206Y-81903826D01*
X177741838Y-81741212D01*
X177471421Y-81629202D01*
X177184348Y-81572100D01*
X176891652Y-81572100D01*
X176604579Y-81629202D01*
X176334162Y-81741212D01*
X176090794Y-81903826D01*
X175883826Y-82110794D01*
X175721212Y-82354162D01*
X175705811Y-82391343D01*
X174446471Y-81132004D01*
X174422668Y-81103000D01*
X174306943Y-81008027D01*
X174174914Y-80937455D01*
X174031653Y-80893998D01*
X173920000Y-80883001D01*
X173919989Y-80883001D01*
X173882667Y-80879325D01*
X173845345Y-80883001D01*
X162680509Y-80883001D01*
X162725000Y-80659335D01*
X162725000Y-80376665D01*
X162669853Y-80099426D01*
X162561680Y-79838273D01*
X162404637Y-79603241D01*
X162204759Y-79403363D01*
X161969727Y-79246320D01*
X161727533Y-79146000D01*
X187927581Y-79146000D01*
X187960000Y-79149193D01*
X187992419Y-79146000D01*
X188089383Y-79136450D01*
X188213793Y-79098710D01*
X188328450Y-79037425D01*
X188428948Y-78954948D01*
X188511425Y-78854450D01*
X188572710Y-78739793D01*
X188610450Y-78615383D01*
X188610685Y-78613000D01*
X192389315Y-78613000D01*
X192389550Y-78615383D01*
X192389550Y-78615383D01*
G37*
X192389550Y-78615383D02*
X192427290Y-78739793D01*
X192488575Y-78854450D01*
X192571052Y-78954948D01*
X192671550Y-79037425D01*
X192786207Y-79098710D01*
X192910617Y-79136450D01*
X193007581Y-79146000D01*
X193040000Y-79149193D01*
X193072419Y-79146000D01*
X205080001Y-79146000D01*
X205080000Y-97130000D01*
X193072419Y-97130000D01*
X193040000Y-97126807D01*
X193007581Y-97130000D01*
X192910617Y-97139550D01*
X192786207Y-97177290D01*
X192671550Y-97238575D01*
X192571052Y-97321052D01*
X192488575Y-97421550D01*
X192427290Y-97536207D01*
X192389550Y-97660617D01*
X192389315Y-97663000D01*
X188610685Y-97663000D01*
X188610450Y-97660617D01*
X188572710Y-97536207D01*
X188511425Y-97421550D01*
X188428948Y-97321052D01*
X188328450Y-97238575D01*
X188213793Y-97177290D01*
X188089383Y-97139550D01*
X187992419Y-97130000D01*
X187960000Y-97126807D01*
X187927581Y-97130000D01*
X161727533Y-97130000D01*
X161969727Y-97029680D01*
X162204759Y-96872637D01*
X162404637Y-96672759D01*
X162561680Y-96437727D01*
X162669853Y-96176574D01*
X162725000Y-95899335D01*
X162725000Y-95616665D01*
X162680509Y-95392999D01*
X173901298Y-95392999D01*
X173938620Y-95396675D01*
X173975942Y-95392999D01*
X173975953Y-95392999D01*
X174087606Y-95382002D01*
X174230867Y-95338545D01*
X174362896Y-95267973D01*
X174478621Y-95173000D01*
X174502424Y-95143996D01*
X175722562Y-93923858D01*
X175883826Y-94165206D01*
X176090794Y-94372174D01*
X176334162Y-94534788D01*
X176604579Y-94646798D01*
X176891652Y-94703900D01*
X177184348Y-94703900D01*
X177471421Y-94646798D01*
X177741838Y-94534788D01*
X177985206Y-94372174D01*
X178192174Y-94165206D01*
X178354788Y-93921838D01*
X178466798Y-93651421D01*
X178492353Y-93522946D01*
X178522763Y-93549034D01*
X178846336Y-93731172D01*
X179199223Y-93846683D01*
X179567865Y-93891131D01*
X179938096Y-93862806D01*
X180295686Y-93762796D01*
X180543899Y-93637007D01*
X181431328Y-93071652D01*
X194602100Y-93071652D01*
X194602100Y-93364348D01*
X194659202Y-93651421D01*
X194771212Y-93921838D01*
X194933826Y-94165206D01*
X195140794Y-94372174D01*
X195384162Y-94534788D01*
X195654579Y-94646798D01*
X195941652Y-94703900D01*
X196234348Y-94703900D01*
X196521421Y-94646798D01*
X196791838Y-94534788D01*
X197035206Y-94372174D01*
X197242174Y-94165206D01*
X197404788Y-93921838D01*
X197516798Y-93651421D01*
X197542353Y-93522946D01*
X197572763Y-93549034D01*
X197896336Y-93731172D01*
X198249223Y-93846683D01*
X198617865Y-93891131D01*
X198988096Y-93862806D01*
X199345686Y-93762796D01*
X199593899Y-93637007D01*
X201647720Y-92328578D01*
X201866623Y-92156782D01*
X202108387Y-91874961D01*
X202290524Y-91551389D01*
X202406036Y-91198501D01*
X202450483Y-90829859D01*
X202422158Y-90459627D01*
X202322149Y-90102037D01*
X202154299Y-89770829D01*
X201925058Y-89478730D01*
X201643237Y-89236966D01*
X201319664Y-89054829D01*
X200966777Y-88939317D01*
X200598134Y-88894869D01*
X200227903Y-88923195D01*
X199870312Y-89023204D01*
X199622100Y-89148994D01*
X197568280Y-90457422D01*
X197349377Y-90629218D01*
X197107613Y-90911040D01*
X196925475Y-91234613D01*
X196809964Y-91587500D01*
X196773076Y-91893441D01*
X196521421Y-91789202D01*
X196234348Y-91732100D01*
X195941652Y-91732100D01*
X195654579Y-91789202D01*
X195384162Y-91901212D01*
X195140794Y-92063826D01*
X194933826Y-92270794D01*
X194771212Y-92514162D01*
X194659202Y-92784579D01*
X194602100Y-93071652D01*
X181431328Y-93071652D01*
X182597720Y-92328578D01*
X182816623Y-92156782D01*
X183058387Y-91874961D01*
X183240524Y-91551389D01*
X183356036Y-91198501D01*
X183400483Y-90829859D01*
X183372158Y-90459627D01*
X183272149Y-90102037D01*
X183104299Y-89770829D01*
X182875058Y-89478730D01*
X182593237Y-89236966D01*
X182273700Y-89057101D01*
X184952803Y-86378000D01*
X194130174Y-86378000D01*
X194046000Y-86462174D01*
X193758299Y-86892749D01*
X193560127Y-87371178D01*
X193459100Y-87879076D01*
X193459100Y-88396924D01*
X193560127Y-88904822D01*
X193758299Y-89383251D01*
X194046000Y-89813826D01*
X194412174Y-90180000D01*
X194842749Y-90467701D01*
X195321178Y-90665873D01*
X195829076Y-90766900D01*
X196346924Y-90766900D01*
X196854822Y-90665873D01*
X197333251Y-90467701D01*
X197763826Y-90180000D01*
X198130000Y-89813826D01*
X198417701Y-89383251D01*
X198615873Y-88904822D01*
X198716900Y-88396924D01*
X198716900Y-87879076D01*
X198615873Y-87371178D01*
X198417701Y-86892749D01*
X198130000Y-86462174D01*
X198045826Y-86378000D01*
X198853423Y-86378000D01*
X198892085Y-86479913D01*
X199088989Y-86794719D01*
X199343523Y-87065061D01*
X199645908Y-87280552D01*
X199984523Y-87432910D01*
X200346355Y-87516279D01*
X200624495Y-87524656D01*
X201387916Y-87472613D01*
X201662347Y-87426566D01*
X202009517Y-87294863D01*
X202324323Y-87097959D01*
X202594665Y-86843425D01*
X202810156Y-86541040D01*
X202962514Y-86202425D01*
X203045883Y-85840593D01*
X203057061Y-85469450D01*
X202995618Y-85103257D01*
X202863914Y-84756087D01*
X202667011Y-84441281D01*
X202412477Y-84170939D01*
X202110092Y-83955448D01*
X201771477Y-83803090D01*
X201409645Y-83719721D01*
X201131504Y-83711344D01*
X200368084Y-83763387D01*
X200093653Y-83809434D01*
X199746483Y-83941137D01*
X199431677Y-84138041D01*
X199161335Y-84392575D01*
X198945844Y-84694960D01*
X198872485Y-84858000D01*
X184675322Y-84858000D01*
X184637999Y-84854324D01*
X184600676Y-84858000D01*
X184600667Y-84858000D01*
X184489014Y-84868997D01*
X184345753Y-84912454D01*
X184213724Y-84983026D01*
X184213722Y-84983027D01*
X184213723Y-84983027D01*
X184126996Y-85054201D01*
X184126992Y-85054205D01*
X184097999Y-85077999D01*
X184074205Y-85106992D01*
X183964630Y-85216567D01*
X183945618Y-85103257D01*
X183813914Y-84756087D01*
X183617011Y-84441281D01*
X183362477Y-84170939D01*
X183060092Y-83955448D01*
X182721477Y-83803090D01*
X182359645Y-83719721D01*
X182081504Y-83711344D01*
X181318084Y-83763387D01*
X181043653Y-83809434D01*
X180696483Y-83941137D01*
X180381677Y-84138041D01*
X180111335Y-84392575D01*
X179895844Y-84694960D01*
X179822485Y-84858000D01*
X178172469Y-84858000D01*
X177704657Y-84390189D01*
X177741838Y-84374788D01*
X177985206Y-84212174D01*
X178192174Y-84005206D01*
X178354788Y-83761838D01*
X178466798Y-83491421D01*
X178523900Y-83204348D01*
X178523900Y-82911652D01*
X194602100Y-82911652D01*
X194602100Y-83204348D01*
X194659202Y-83491421D01*
X194771212Y-83761838D01*
X194933826Y-84005206D01*
X195140794Y-84212174D01*
X195384162Y-84374788D01*
X195654579Y-84486798D01*
X195941652Y-84543900D01*
X196234348Y-84543900D01*
X196521421Y-84486798D01*
X196791838Y-84374788D01*
X197035206Y-84212174D01*
X197242174Y-84005206D01*
X197404788Y-83761838D01*
X197516798Y-83491421D01*
X197573900Y-83204348D01*
X197573900Y-82911652D01*
X197516798Y-82624579D01*
X197404788Y-82354162D01*
X197242174Y-82110794D01*
X197035206Y-81903826D01*
X196791838Y-81741212D01*
X196521421Y-81629202D01*
X196234348Y-81572100D01*
X195941652Y-81572100D01*
X195654579Y-81629202D01*
X195384162Y-81741212D01*
X195140794Y-81903826D01*
X194933826Y-82110794D01*
X194771212Y-82354162D01*
X194659202Y-82624579D01*
X194602100Y-82911652D01*
X178523900Y-82911652D01*
X178466798Y-82624579D01*
X178354788Y-82354162D01*
X178192174Y-82110794D01*
X177985206Y-81903826D01*
X177741838Y-81741212D01*
X177471421Y-81629202D01*
X177184348Y-81572100D01*
X176891652Y-81572100D01*
X176604579Y-81629202D01*
X176334162Y-81741212D01*
X176090794Y-81903826D01*
X175883826Y-82110794D01*
X175721212Y-82354162D01*
X175705811Y-82391343D01*
X174446471Y-81132004D01*
X174422668Y-81103000D01*
X174306943Y-81008027D01*
X174174914Y-80937455D01*
X174031653Y-80893998D01*
X173920000Y-80883001D01*
X173919989Y-80883001D01*
X173882667Y-80879325D01*
X173845345Y-80883001D01*
X162680509Y-80883001D01*
X162725000Y-80659335D01*
X162725000Y-80376665D01*
X162669853Y-80099426D01*
X162561680Y-79838273D01*
X162404637Y-79603241D01*
X162204759Y-79403363D01*
X161969727Y-79246320D01*
X161727533Y-79146000D01*
X187927581Y-79146000D01*
X187960000Y-79149193D01*
X187992419Y-79146000D01*
X188089383Y-79136450D01*
X188213793Y-79098710D01*
X188328450Y-79037425D01*
X188428948Y-78954948D01*
X188511425Y-78854450D01*
X188572710Y-78739793D01*
X188610450Y-78615383D01*
X188610685Y-78613000D01*
X192389315Y-78613000D01*
X192389550Y-78615383D01*
G36*
X134975241Y-96872637D02*
G01*
X135210273Y-97029680D01*
X135452467Y-97130000D01*
X134426923Y-97130000D01*
X134504494Y-97088537D01*
X134601185Y-97009185D01*
X134680537Y-96912494D01*
X134739502Y-96802180D01*
X134775812Y-96682482D01*
X134776643Y-96674039D01*
X134975241Y-96872637D01*
X134975241Y-96872637D01*
G37*
X134975241Y-96872637D02*
X135210273Y-97029680D01*
X135452467Y-97130000D01*
X134426923Y-97130000D01*
X134504494Y-97088537D01*
X134601185Y-97009185D01*
X134680537Y-96912494D01*
X134739502Y-96802180D01*
X134775812Y-96682482D01*
X134776643Y-96674039D01*
X134975241Y-96872637D01*
G36*
X160175363Y-96672759D02*
G01*
X160375241Y-96872637D01*
X160610273Y-97029680D01*
X160852467Y-97130000D01*
X159187533Y-97130000D01*
X159429727Y-97029680D01*
X159664759Y-96872637D01*
X159864637Y-96672759D01*
X160020000Y-96440241D01*
X160175363Y-96672759D01*
X160175363Y-96672759D01*
G37*
X160175363Y-96672759D02*
X160375241Y-96872637D01*
X160610273Y-97029680D01*
X160852467Y-97130000D01*
X159187533Y-97130000D01*
X159429727Y-97029680D01*
X159664759Y-96872637D01*
X159864637Y-96672759D01*
X160020000Y-96440241D01*
X160175363Y-96672759D01*
G36*
X139855363Y-96672759D02*
G01*
X140055241Y-96872637D01*
X140290273Y-97029680D01*
X140532467Y-97130000D01*
X138867533Y-97130000D01*
X139109727Y-97029680D01*
X139344759Y-96872637D01*
X139544637Y-96672759D01*
X139700000Y-96440241D01*
X139855363Y-96672759D01*
X139855363Y-96672759D01*
G37*
X139855363Y-96672759D02*
X140055241Y-96872637D01*
X140290273Y-97029680D01*
X140532467Y-97130000D01*
X138867533Y-97130000D01*
X139109727Y-97029680D01*
X139344759Y-96872637D01*
X139544637Y-96672759D01*
X139700000Y-96440241D01*
X139855363Y-96672759D01*
G36*
X137315363Y-96672759D02*
G01*
X137515241Y-96872637D01*
X137750273Y-97029680D01*
X137992467Y-97130000D01*
X136327533Y-97130000D01*
X136569727Y-97029680D01*
X136804759Y-96872637D01*
X137004637Y-96672759D01*
X137160000Y-96440241D01*
X137315363Y-96672759D01*
X137315363Y-96672759D01*
G37*
X137315363Y-96672759D02*
X137515241Y-96872637D01*
X137750273Y-97029680D01*
X137992467Y-97130000D01*
X136327533Y-97130000D01*
X136569727Y-97029680D01*
X136804759Y-96872637D01*
X137004637Y-96672759D01*
X137160000Y-96440241D01*
X137315363Y-96672759D01*
G36*
X150015363Y-96672759D02*
G01*
X150215241Y-96872637D01*
X150450273Y-97029680D01*
X150692467Y-97130000D01*
X149027533Y-97130000D01*
X149269727Y-97029680D01*
X149504759Y-96872637D01*
X149704637Y-96672759D01*
X149860000Y-96440241D01*
X150015363Y-96672759D01*
X150015363Y-96672759D01*
G37*
X150015363Y-96672759D02*
X150215241Y-96872637D01*
X150450273Y-97029680D01*
X150692467Y-97130000D01*
X149027533Y-97130000D01*
X149269727Y-97029680D01*
X149504759Y-96872637D01*
X149704637Y-96672759D01*
X149860000Y-96440241D01*
X150015363Y-96672759D01*
G36*
X152555363Y-96672759D02*
G01*
X152755241Y-96872637D01*
X152990273Y-97029680D01*
X153232467Y-97130000D01*
X151567533Y-97130000D01*
X151809727Y-97029680D01*
X152044759Y-96872637D01*
X152244637Y-96672759D01*
X152400000Y-96440241D01*
X152555363Y-96672759D01*
X152555363Y-96672759D01*
G37*
X152555363Y-96672759D02*
X152755241Y-96872637D01*
X152990273Y-97029680D01*
X153232467Y-97130000D01*
X151567533Y-97130000D01*
X151809727Y-97029680D01*
X152044759Y-96872637D01*
X152244637Y-96672759D01*
X152400000Y-96440241D01*
X152555363Y-96672759D01*
G36*
X155095363Y-96672759D02*
G01*
X155295241Y-96872637D01*
X155530273Y-97029680D01*
X155772467Y-97130000D01*
X154107533Y-97130000D01*
X154349727Y-97029680D01*
X154584759Y-96872637D01*
X154784637Y-96672759D01*
X154940000Y-96440241D01*
X155095363Y-96672759D01*
X155095363Y-96672759D01*
G37*
X155095363Y-96672759D02*
X155295241Y-96872637D01*
X155530273Y-97029680D01*
X155772467Y-97130000D01*
X154107533Y-97130000D01*
X154349727Y-97029680D01*
X154584759Y-96872637D01*
X154784637Y-96672759D01*
X154940000Y-96440241D01*
X155095363Y-96672759D01*
G36*
X157635363Y-96672759D02*
G01*
X157835241Y-96872637D01*
X158070273Y-97029680D01*
X158312467Y-97130000D01*
X156647533Y-97130000D01*
X156889727Y-97029680D01*
X157124759Y-96872637D01*
X157324637Y-96672759D01*
X157480000Y-96440241D01*
X157635363Y-96672759D01*
X157635363Y-96672759D01*
G37*
X157635363Y-96672759D02*
X157835241Y-96872637D01*
X158070273Y-97029680D01*
X158312467Y-97130000D01*
X156647533Y-97130000D01*
X156889727Y-97029680D01*
X157124759Y-96872637D01*
X157324637Y-96672759D01*
X157480000Y-96440241D01*
X157635363Y-96672759D01*
G36*
X132670273Y-79246320D02*
G01*
X132435241Y-79403363D01*
X132235363Y-79603241D01*
X132078320Y-79838273D01*
X131970147Y-80099426D01*
X131915000Y-80376665D01*
X131915000Y-80659335D01*
X131970147Y-80936574D01*
X132078320Y-81197727D01*
X132235363Y-81432759D01*
X132435241Y-81632637D01*
X132670273Y-81789680D01*
X132931426Y-81897853D01*
X133208665Y-81953000D01*
X133491335Y-81953000D01*
X133768574Y-81897853D01*
X134029727Y-81789680D01*
X134264759Y-81632637D01*
X134464637Y-81432759D01*
X134620000Y-81200241D01*
X134775363Y-81432759D01*
X134975241Y-81632637D01*
X135210273Y-81789680D01*
X135471426Y-81897853D01*
X135748665Y-81953000D01*
X136031335Y-81953000D01*
X136308574Y-81897853D01*
X136569727Y-81789680D01*
X136804759Y-81632637D01*
X137004637Y-81432759D01*
X137160000Y-81200241D01*
X137315363Y-81432759D01*
X137515241Y-81632637D01*
X137750273Y-81789680D01*
X138004208Y-81894863D01*
X137990794Y-81903826D01*
X137783826Y-82110794D01*
X137621212Y-82354162D01*
X137509202Y-82624579D01*
X137452100Y-82911652D01*
X137452100Y-83204348D01*
X137509202Y-83491421D01*
X137621212Y-83761838D01*
X137783826Y-84005206D01*
X137990794Y-84212174D01*
X138234162Y-84374788D01*
X138504579Y-84486798D01*
X138791652Y-84543900D01*
X139084348Y-84543900D01*
X139371421Y-84486798D01*
X139641838Y-84374788D01*
X139885206Y-84212174D01*
X140092174Y-84005206D01*
X140254788Y-83761838D01*
X140355616Y-83518418D01*
X140464000Y-83626802D01*
X140464001Y-85995890D01*
X140183251Y-85808299D01*
X139704822Y-85610127D01*
X139196924Y-85509100D01*
X138679076Y-85509100D01*
X138171178Y-85610127D01*
X137692749Y-85808299D01*
X137262174Y-86096000D01*
X136896000Y-86462174D01*
X136608299Y-86892749D01*
X136410127Y-87371178D01*
X136309100Y-87879076D01*
X136309100Y-88396924D01*
X136410127Y-88904822D01*
X136608299Y-89383251D01*
X136896000Y-89813826D01*
X137262174Y-90180000D01*
X137692749Y-90467701D01*
X138171178Y-90665873D01*
X138679076Y-90766900D01*
X139196924Y-90766900D01*
X139704822Y-90665873D01*
X140183251Y-90467701D01*
X140613826Y-90180000D01*
X140980000Y-89813826D01*
X141267701Y-89383251D01*
X141465873Y-88904822D01*
X141566900Y-88396924D01*
X141566900Y-87879076D01*
X141541729Y-87752530D01*
X141930201Y-88141003D01*
X141953999Y-88170001D01*
X142069724Y-88264974D01*
X142201753Y-88335546D01*
X142345014Y-88379003D01*
X142456667Y-88390000D01*
X142456676Y-88390000D01*
X142493999Y-88393676D01*
X142531322Y-88390000D01*
X155026704Y-88390000D01*
X155064026Y-88393676D01*
X155101348Y-88390000D01*
X155101359Y-88390000D01*
X155213012Y-88379003D01*
X155356273Y-88335546D01*
X155359100Y-88334035D01*
X155359100Y-88396924D01*
X155460127Y-88904822D01*
X155658299Y-89383251D01*
X155867873Y-89696901D01*
X146308421Y-89696901D01*
X146271098Y-89693225D01*
X146233775Y-89696901D01*
X146233766Y-89696901D01*
X146122113Y-89707898D01*
X145997320Y-89745753D01*
X145978852Y-89751355D01*
X145846822Y-89821927D01*
X145812991Y-89849692D01*
X145731098Y-89916900D01*
X145707300Y-89945898D01*
X145254983Y-90398215D01*
X145172149Y-90102037D01*
X145004299Y-89770829D01*
X144775058Y-89478730D01*
X144493237Y-89236966D01*
X144169664Y-89054829D01*
X143816777Y-88939317D01*
X143448134Y-88894869D01*
X143077903Y-88923195D01*
X142720312Y-89023204D01*
X142472100Y-89148994D01*
X140418280Y-90457422D01*
X140199377Y-90629218D01*
X139957613Y-90911040D01*
X139775475Y-91234613D01*
X139659964Y-91587500D01*
X139623076Y-91893441D01*
X139371421Y-91789202D01*
X139084348Y-91732100D01*
X138791652Y-91732100D01*
X138504579Y-91789202D01*
X138234162Y-91901212D01*
X137990794Y-92063826D01*
X137783826Y-92270794D01*
X137621212Y-92514162D01*
X137509202Y-92784579D01*
X137452100Y-93071652D01*
X137452100Y-93364348D01*
X137509202Y-93651421D01*
X137621212Y-93921838D01*
X137783826Y-94165206D01*
X137990794Y-94372174D01*
X138004208Y-94381137D01*
X137750273Y-94486320D01*
X137515241Y-94643363D01*
X137315363Y-94843241D01*
X137160000Y-95075759D01*
X137004637Y-94843241D01*
X136804759Y-94643363D01*
X136569727Y-94486320D01*
X136308574Y-94378147D01*
X136031335Y-94323000D01*
X135748665Y-94323000D01*
X135471426Y-94378147D01*
X135210273Y-94486320D01*
X134975241Y-94643363D01*
X134776643Y-94841961D01*
X134775812Y-94833518D01*
X134739502Y-94713820D01*
X134680537Y-94603506D01*
X134601185Y-94506815D01*
X134504494Y-94427463D01*
X134394180Y-94368498D01*
X134274482Y-94332188D01*
X134150000Y-94319928D01*
X132550000Y-94319928D01*
X132425518Y-94332188D01*
X132305820Y-94368498D01*
X132195506Y-94427463D01*
X132098815Y-94506815D01*
X132019463Y-94603506D01*
X131960498Y-94713820D01*
X131924188Y-94833518D01*
X131911928Y-94958000D01*
X131911928Y-96558000D01*
X131924188Y-96682482D01*
X131960498Y-96802180D01*
X132019463Y-96912494D01*
X132098815Y-97009185D01*
X132195506Y-97088537D01*
X132273077Y-97130000D01*
X129946000Y-97130000D01*
X129946000Y-79146000D01*
X132912467Y-79146000D01*
X132670273Y-79246320D01*
X132670273Y-79246320D01*
G37*
X132670273Y-79246320D02*
X132435241Y-79403363D01*
X132235363Y-79603241D01*
X132078320Y-79838273D01*
X131970147Y-80099426D01*
X131915000Y-80376665D01*
X131915000Y-80659335D01*
X131970147Y-80936574D01*
X132078320Y-81197727D01*
X132235363Y-81432759D01*
X132435241Y-81632637D01*
X132670273Y-81789680D01*
X132931426Y-81897853D01*
X133208665Y-81953000D01*
X133491335Y-81953000D01*
X133768574Y-81897853D01*
X134029727Y-81789680D01*
X134264759Y-81632637D01*
X134464637Y-81432759D01*
X134620000Y-81200241D01*
X134775363Y-81432759D01*
X134975241Y-81632637D01*
X135210273Y-81789680D01*
X135471426Y-81897853D01*
X135748665Y-81953000D01*
X136031335Y-81953000D01*
X136308574Y-81897853D01*
X136569727Y-81789680D01*
X136804759Y-81632637D01*
X137004637Y-81432759D01*
X137160000Y-81200241D01*
X137315363Y-81432759D01*
X137515241Y-81632637D01*
X137750273Y-81789680D01*
X138004208Y-81894863D01*
X137990794Y-81903826D01*
X137783826Y-82110794D01*
X137621212Y-82354162D01*
X137509202Y-82624579D01*
X137452100Y-82911652D01*
X137452100Y-83204348D01*
X137509202Y-83491421D01*
X137621212Y-83761838D01*
X137783826Y-84005206D01*
X137990794Y-84212174D01*
X138234162Y-84374788D01*
X138504579Y-84486798D01*
X138791652Y-84543900D01*
X139084348Y-84543900D01*
X139371421Y-84486798D01*
X139641838Y-84374788D01*
X139885206Y-84212174D01*
X140092174Y-84005206D01*
X140254788Y-83761838D01*
X140355616Y-83518418D01*
X140464000Y-83626802D01*
X140464001Y-85995890D01*
X140183251Y-85808299D01*
X139704822Y-85610127D01*
X139196924Y-85509100D01*
X138679076Y-85509100D01*
X138171178Y-85610127D01*
X137692749Y-85808299D01*
X137262174Y-86096000D01*
X136896000Y-86462174D01*
X136608299Y-86892749D01*
X136410127Y-87371178D01*
X136309100Y-87879076D01*
X136309100Y-88396924D01*
X136410127Y-88904822D01*
X136608299Y-89383251D01*
X136896000Y-89813826D01*
X137262174Y-90180000D01*
X137692749Y-90467701D01*
X138171178Y-90665873D01*
X138679076Y-90766900D01*
X139196924Y-90766900D01*
X139704822Y-90665873D01*
X140183251Y-90467701D01*
X140613826Y-90180000D01*
X140980000Y-89813826D01*
X141267701Y-89383251D01*
X141465873Y-88904822D01*
X141566900Y-88396924D01*
X141566900Y-87879076D01*
X141541729Y-87752530D01*
X141930201Y-88141003D01*
X141953999Y-88170001D01*
X142069724Y-88264974D01*
X142201753Y-88335546D01*
X142345014Y-88379003D01*
X142456667Y-88390000D01*
X142456676Y-88390000D01*
X142493999Y-88393676D01*
X142531322Y-88390000D01*
X155026704Y-88390000D01*
X155064026Y-88393676D01*
X155101348Y-88390000D01*
X155101359Y-88390000D01*
X155213012Y-88379003D01*
X155356273Y-88335546D01*
X155359100Y-88334035D01*
X155359100Y-88396924D01*
X155460127Y-88904822D01*
X155658299Y-89383251D01*
X155867873Y-89696901D01*
X146308421Y-89696901D01*
X146271098Y-89693225D01*
X146233775Y-89696901D01*
X146233766Y-89696901D01*
X146122113Y-89707898D01*
X145997320Y-89745753D01*
X145978852Y-89751355D01*
X145846822Y-89821927D01*
X145812991Y-89849692D01*
X145731098Y-89916900D01*
X145707300Y-89945898D01*
X145254983Y-90398215D01*
X145172149Y-90102037D01*
X145004299Y-89770829D01*
X144775058Y-89478730D01*
X144493237Y-89236966D01*
X144169664Y-89054829D01*
X143816777Y-88939317D01*
X143448134Y-88894869D01*
X143077903Y-88923195D01*
X142720312Y-89023204D01*
X142472100Y-89148994D01*
X140418280Y-90457422D01*
X140199377Y-90629218D01*
X139957613Y-90911040D01*
X139775475Y-91234613D01*
X139659964Y-91587500D01*
X139623076Y-91893441D01*
X139371421Y-91789202D01*
X139084348Y-91732100D01*
X138791652Y-91732100D01*
X138504579Y-91789202D01*
X138234162Y-91901212D01*
X137990794Y-92063826D01*
X137783826Y-92270794D01*
X137621212Y-92514162D01*
X137509202Y-92784579D01*
X137452100Y-93071652D01*
X137452100Y-93364348D01*
X137509202Y-93651421D01*
X137621212Y-93921838D01*
X137783826Y-94165206D01*
X137990794Y-94372174D01*
X138004208Y-94381137D01*
X137750273Y-94486320D01*
X137515241Y-94643363D01*
X137315363Y-94843241D01*
X137160000Y-95075759D01*
X137004637Y-94843241D01*
X136804759Y-94643363D01*
X136569727Y-94486320D01*
X136308574Y-94378147D01*
X136031335Y-94323000D01*
X135748665Y-94323000D01*
X135471426Y-94378147D01*
X135210273Y-94486320D01*
X134975241Y-94643363D01*
X134776643Y-94841961D01*
X134775812Y-94833518D01*
X134739502Y-94713820D01*
X134680537Y-94603506D01*
X134601185Y-94506815D01*
X134504494Y-94427463D01*
X134394180Y-94368498D01*
X134274482Y-94332188D01*
X134150000Y-94319928D01*
X132550000Y-94319928D01*
X132425518Y-94332188D01*
X132305820Y-94368498D01*
X132195506Y-94427463D01*
X132098815Y-94506815D01*
X132019463Y-94603506D01*
X131960498Y-94713820D01*
X131924188Y-94833518D01*
X131911928Y-94958000D01*
X131911928Y-96558000D01*
X131924188Y-96682482D01*
X131960498Y-96802180D01*
X132019463Y-96912494D01*
X132098815Y-97009185D01*
X132195506Y-97088537D01*
X132273077Y-97130000D01*
X129946000Y-97130000D01*
X129946000Y-79146000D01*
X132912467Y-79146000D01*
X132670273Y-79246320D01*
G36*
X158825475Y-91234613D02*
G01*
X158709964Y-91587500D01*
X158673076Y-91893441D01*
X158421421Y-91789202D01*
X158134348Y-91732100D01*
X157841652Y-91732100D01*
X157554579Y-91789202D01*
X157284162Y-91901212D01*
X157040794Y-92063826D01*
X156833826Y-92270794D01*
X156671212Y-92514162D01*
X156559202Y-92784579D01*
X156502100Y-93071652D01*
X156502100Y-93364348D01*
X156559202Y-93651421D01*
X156671212Y-93921838D01*
X156833826Y-94165206D01*
X157040794Y-94372174D01*
X157284162Y-94534788D01*
X157554579Y-94646798D01*
X157785811Y-94692793D01*
X157635363Y-94843241D01*
X157480000Y-95075759D01*
X157324637Y-94843241D01*
X157124759Y-94643363D01*
X156889727Y-94486320D01*
X156628574Y-94378147D01*
X156351335Y-94323000D01*
X156068665Y-94323000D01*
X155791426Y-94378147D01*
X155530273Y-94486320D01*
X155295241Y-94643363D01*
X155095363Y-94843241D01*
X154940000Y-95075759D01*
X154784637Y-94843241D01*
X154584759Y-94643363D01*
X154349727Y-94486320D01*
X154088574Y-94378147D01*
X153811335Y-94323000D01*
X153528665Y-94323000D01*
X153251426Y-94378147D01*
X152990273Y-94486320D01*
X152755241Y-94643363D01*
X152555363Y-94843241D01*
X152400000Y-95075759D01*
X152244637Y-94843241D01*
X152044759Y-94643363D01*
X151809727Y-94486320D01*
X151548574Y-94378147D01*
X151271335Y-94323000D01*
X150988665Y-94323000D01*
X150711426Y-94378147D01*
X150450273Y-94486320D01*
X150215241Y-94643363D01*
X150015363Y-94843241D01*
X149860000Y-95075759D01*
X149704637Y-94843241D01*
X149504759Y-94643363D01*
X149269727Y-94486320D01*
X149008574Y-94378147D01*
X148731335Y-94323000D01*
X148448665Y-94323000D01*
X148171426Y-94378147D01*
X147910273Y-94486320D01*
X147675241Y-94643363D01*
X147475363Y-94843241D01*
X147320000Y-95075759D01*
X147164637Y-94843241D01*
X146964759Y-94643363D01*
X146729727Y-94486320D01*
X146468574Y-94378147D01*
X146191335Y-94323000D01*
X145908665Y-94323000D01*
X145631426Y-94378147D01*
X145370273Y-94486320D01*
X145135241Y-94643363D01*
X144935363Y-94843241D01*
X144780000Y-95075759D01*
X144624637Y-94843241D01*
X144424759Y-94643363D01*
X144189727Y-94486320D01*
X143928574Y-94378147D01*
X143651335Y-94323000D01*
X143479801Y-94323000D01*
X146585901Y-91216901D01*
X158835445Y-91216901D01*
X158825475Y-91234613D01*
X158825475Y-91234613D01*
G37*
X158825475Y-91234613D02*
X158709964Y-91587500D01*
X158673076Y-91893441D01*
X158421421Y-91789202D01*
X158134348Y-91732100D01*
X157841652Y-91732100D01*
X157554579Y-91789202D01*
X157284162Y-91901212D01*
X157040794Y-92063826D01*
X156833826Y-92270794D01*
X156671212Y-92514162D01*
X156559202Y-92784579D01*
X156502100Y-93071652D01*
X156502100Y-93364348D01*
X156559202Y-93651421D01*
X156671212Y-93921838D01*
X156833826Y-94165206D01*
X157040794Y-94372174D01*
X157284162Y-94534788D01*
X157554579Y-94646798D01*
X157785811Y-94692793D01*
X157635363Y-94843241D01*
X157480000Y-95075759D01*
X157324637Y-94843241D01*
X157124759Y-94643363D01*
X156889727Y-94486320D01*
X156628574Y-94378147D01*
X156351335Y-94323000D01*
X156068665Y-94323000D01*
X155791426Y-94378147D01*
X155530273Y-94486320D01*
X155295241Y-94643363D01*
X155095363Y-94843241D01*
X154940000Y-95075759D01*
X154784637Y-94843241D01*
X154584759Y-94643363D01*
X154349727Y-94486320D01*
X154088574Y-94378147D01*
X153811335Y-94323000D01*
X153528665Y-94323000D01*
X153251426Y-94378147D01*
X152990273Y-94486320D01*
X152755241Y-94643363D01*
X152555363Y-94843241D01*
X152400000Y-95075759D01*
X152244637Y-94843241D01*
X152044759Y-94643363D01*
X151809727Y-94486320D01*
X151548574Y-94378147D01*
X151271335Y-94323000D01*
X150988665Y-94323000D01*
X150711426Y-94378147D01*
X150450273Y-94486320D01*
X150215241Y-94643363D01*
X150015363Y-94843241D01*
X149860000Y-95075759D01*
X149704637Y-94843241D01*
X149504759Y-94643363D01*
X149269727Y-94486320D01*
X149008574Y-94378147D01*
X148731335Y-94323000D01*
X148448665Y-94323000D01*
X148171426Y-94378147D01*
X147910273Y-94486320D01*
X147675241Y-94643363D01*
X147475363Y-94843241D01*
X147320000Y-95075759D01*
X147164637Y-94843241D01*
X146964759Y-94643363D01*
X146729727Y-94486320D01*
X146468574Y-94378147D01*
X146191335Y-94323000D01*
X145908665Y-94323000D01*
X145631426Y-94378147D01*
X145370273Y-94486320D01*
X145135241Y-94643363D01*
X144935363Y-94843241D01*
X144780000Y-95075759D01*
X144624637Y-94843241D01*
X144424759Y-94643363D01*
X144189727Y-94486320D01*
X143928574Y-94378147D01*
X143651335Y-94323000D01*
X143479801Y-94323000D01*
X146585901Y-91216901D01*
X158835445Y-91216901D01*
X158825475Y-91234613D01*
G36*
X140422763Y-93549034D02*
G01*
X140746336Y-93731172D01*
X141099223Y-93846683D01*
X141467865Y-93891131D01*
X141786441Y-93866758D01*
X141293887Y-94359312D01*
X141111335Y-94323000D01*
X140828665Y-94323000D01*
X140551426Y-94378147D01*
X140290273Y-94486320D01*
X140055241Y-94643363D01*
X139855363Y-94843241D01*
X139700000Y-95075759D01*
X139544637Y-94843241D01*
X139352048Y-94650652D01*
X139371421Y-94646798D01*
X139641838Y-94534788D01*
X139885206Y-94372174D01*
X140092174Y-94165206D01*
X140254788Y-93921838D01*
X140366798Y-93651421D01*
X140392353Y-93522946D01*
X140422763Y-93549034D01*
X140422763Y-93549034D01*
G37*
X140422763Y-93549034D02*
X140746336Y-93731172D01*
X141099223Y-93846683D01*
X141467865Y-93891131D01*
X141786441Y-93866758D01*
X141293887Y-94359312D01*
X141111335Y-94323000D01*
X140828665Y-94323000D01*
X140551426Y-94378147D01*
X140290273Y-94486320D01*
X140055241Y-94643363D01*
X139855363Y-94843241D01*
X139700000Y-95075759D01*
X139544637Y-94843241D01*
X139352048Y-94650652D01*
X139371421Y-94646798D01*
X139641838Y-94534788D01*
X139885206Y-94372174D01*
X140092174Y-94165206D01*
X140254788Y-93921838D01*
X140366798Y-93651421D01*
X140392353Y-93522946D01*
X140422763Y-93549034D01*
G36*
X159472763Y-93549034D02*
G01*
X159796336Y-93731172D01*
X160149223Y-93846683D01*
X160367482Y-93872999D01*
X159912323Y-93872999D01*
X159875000Y-93869323D01*
X159837677Y-93872999D01*
X159837668Y-93872999D01*
X159726015Y-93883996D01*
X159582754Y-93927453D01*
X159450725Y-93998025D01*
X159335000Y-94092998D01*
X159311197Y-94122002D01*
X159073887Y-94359312D01*
X158968943Y-94338437D01*
X159142174Y-94165206D01*
X159304788Y-93921838D01*
X159416798Y-93651421D01*
X159442353Y-93522946D01*
X159472763Y-93549034D01*
X159472763Y-93549034D01*
G37*
X159472763Y-93549034D02*
X159796336Y-93731172D01*
X160149223Y-93846683D01*
X160367482Y-93872999D01*
X159912323Y-93872999D01*
X159875000Y-93869323D01*
X159837677Y-93872999D01*
X159837668Y-93872999D01*
X159726015Y-93883996D01*
X159582754Y-93927453D01*
X159450725Y-93998025D01*
X159335000Y-94092998D01*
X159311197Y-94122002D01*
X159073887Y-94359312D01*
X158968943Y-94338437D01*
X159142174Y-94165206D01*
X159304788Y-93921838D01*
X159416798Y-93651421D01*
X159442353Y-93522946D01*
X159472763Y-93549034D01*
G36*
X176691403Y-85526539D02*
G01*
X176271178Y-85610127D01*
X175792749Y-85808299D01*
X175362174Y-86096000D01*
X174996000Y-86462174D01*
X174708299Y-86892749D01*
X174510127Y-87371178D01*
X174409100Y-87879076D01*
X174409100Y-88396924D01*
X174510127Y-88904822D01*
X174708299Y-89383251D01*
X174996000Y-89813826D01*
X175362174Y-90180000D01*
X175792749Y-90467701D01*
X176271178Y-90665873D01*
X176738073Y-90758744D01*
X173623819Y-93872999D01*
X160754865Y-93872999D01*
X160888096Y-93862806D01*
X161245686Y-93762796D01*
X161493899Y-93637007D01*
X163547720Y-92328578D01*
X163766623Y-92156782D01*
X164008387Y-91874961D01*
X164190524Y-91551389D01*
X164306036Y-91198501D01*
X164350483Y-90829859D01*
X164322158Y-90459627D01*
X164222149Y-90102037D01*
X164054299Y-89770829D01*
X163825058Y-89478730D01*
X163740278Y-89406000D01*
X163969199Y-89406000D01*
X165112201Y-90549003D01*
X165135999Y-90578001D01*
X165251724Y-90672974D01*
X165313366Y-90705923D01*
X165336498Y-90782180D01*
X165395463Y-90892494D01*
X165474815Y-90989185D01*
X165571506Y-91068537D01*
X165681820Y-91127502D01*
X165801518Y-91163812D01*
X165926000Y-91176072D01*
X167626000Y-91176072D01*
X167750482Y-91163812D01*
X167870180Y-91127502D01*
X167980494Y-91068537D01*
X168077185Y-90989185D01*
X168156537Y-90892494D01*
X168207046Y-90798000D01*
X171644954Y-90798000D01*
X171695463Y-90892494D01*
X171774815Y-90989185D01*
X171871506Y-91068537D01*
X171981820Y-91127502D01*
X172101518Y-91163812D01*
X172226000Y-91176072D01*
X173926000Y-91176072D01*
X174050482Y-91163812D01*
X174170180Y-91127502D01*
X174280494Y-91068537D01*
X174377185Y-90989185D01*
X174456537Y-90892494D01*
X174515502Y-90782180D01*
X174551812Y-90662482D01*
X174564072Y-90538000D01*
X174564072Y-89538000D01*
X174551812Y-89413518D01*
X174515502Y-89293820D01*
X174456537Y-89183506D01*
X174377185Y-89086815D01*
X174280494Y-89007463D01*
X174170180Y-88948498D01*
X174050482Y-88912188D01*
X173926000Y-88899928D01*
X172226000Y-88899928D01*
X172101518Y-88912188D01*
X171981820Y-88948498D01*
X171871506Y-89007463D01*
X171774815Y-89086815D01*
X171695463Y-89183506D01*
X171644954Y-89278000D01*
X168207046Y-89278000D01*
X168156537Y-89183506D01*
X168077185Y-89086815D01*
X167980494Y-89007463D01*
X167870180Y-88948498D01*
X167750482Y-88912188D01*
X167626000Y-88899928D01*
X165926000Y-88899928D01*
X165801518Y-88912188D01*
X165681820Y-88948498D01*
X165668447Y-88955646D01*
X164880165Y-88167364D01*
X164906581Y-88135176D01*
X165682674Y-87327761D01*
X165801518Y-87363812D01*
X165926000Y-87376072D01*
X167626000Y-87376072D01*
X167750482Y-87363812D01*
X167870180Y-87327502D01*
X167980494Y-87268537D01*
X168077185Y-87189185D01*
X168156537Y-87092494D01*
X168207046Y-86998000D01*
X171644954Y-86998000D01*
X171695463Y-87092494D01*
X171774815Y-87189185D01*
X171871506Y-87268537D01*
X171981820Y-87327502D01*
X172101518Y-87363812D01*
X172226000Y-87376072D01*
X173926000Y-87376072D01*
X174050482Y-87363812D01*
X174170180Y-87327502D01*
X174280494Y-87268537D01*
X174377185Y-87189185D01*
X174456537Y-87092494D01*
X174515502Y-86982180D01*
X174551812Y-86862482D01*
X174564072Y-86738000D01*
X174564072Y-85738000D01*
X174551812Y-85613518D01*
X174515502Y-85493820D01*
X174456537Y-85383506D01*
X174377185Y-85286815D01*
X174280494Y-85207463D01*
X174170180Y-85148498D01*
X174050482Y-85112188D01*
X173926000Y-85099928D01*
X172226000Y-85099928D01*
X172101518Y-85112188D01*
X171981820Y-85148498D01*
X171871506Y-85207463D01*
X171774815Y-85286815D01*
X171695463Y-85383506D01*
X171644954Y-85478000D01*
X168207046Y-85478000D01*
X168156537Y-85383506D01*
X168077185Y-85286815D01*
X167980494Y-85207463D01*
X167870180Y-85148498D01*
X167750482Y-85112188D01*
X167626000Y-85099928D01*
X165926000Y-85099928D01*
X165801518Y-85112188D01*
X165681820Y-85148498D01*
X165571506Y-85207463D01*
X165474815Y-85286815D01*
X165395463Y-85383506D01*
X165336498Y-85493820D01*
X165313387Y-85570008D01*
X165311113Y-85571281D01*
X165251724Y-85603026D01*
X165245864Y-85607835D01*
X165239249Y-85611541D01*
X165188048Y-85655283D01*
X165135999Y-85697999D01*
X165107425Y-85732817D01*
X164927613Y-85919885D01*
X164945883Y-85840593D01*
X164957061Y-85469450D01*
X164895618Y-85103257D01*
X164763914Y-84756087D01*
X164567011Y-84441281D01*
X164312477Y-84170939D01*
X164010092Y-83955448D01*
X163671477Y-83803090D01*
X163309645Y-83719721D01*
X163031504Y-83711344D01*
X162268084Y-83763387D01*
X162036968Y-83802166D01*
X160637802Y-82403001D01*
X173567866Y-82403001D01*
X176691403Y-85526539D01*
X176691403Y-85526539D01*
G37*
X176691403Y-85526539D02*
X176271178Y-85610127D01*
X175792749Y-85808299D01*
X175362174Y-86096000D01*
X174996000Y-86462174D01*
X174708299Y-86892749D01*
X174510127Y-87371178D01*
X174409100Y-87879076D01*
X174409100Y-88396924D01*
X174510127Y-88904822D01*
X174708299Y-89383251D01*
X174996000Y-89813826D01*
X175362174Y-90180000D01*
X175792749Y-90467701D01*
X176271178Y-90665873D01*
X176738073Y-90758744D01*
X173623819Y-93872999D01*
X160754865Y-93872999D01*
X160888096Y-93862806D01*
X161245686Y-93762796D01*
X161493899Y-93637007D01*
X163547720Y-92328578D01*
X163766623Y-92156782D01*
X164008387Y-91874961D01*
X164190524Y-91551389D01*
X164306036Y-91198501D01*
X164350483Y-90829859D01*
X164322158Y-90459627D01*
X164222149Y-90102037D01*
X164054299Y-89770829D01*
X163825058Y-89478730D01*
X163740278Y-89406000D01*
X163969199Y-89406000D01*
X165112201Y-90549003D01*
X165135999Y-90578001D01*
X165251724Y-90672974D01*
X165313366Y-90705923D01*
X165336498Y-90782180D01*
X165395463Y-90892494D01*
X165474815Y-90989185D01*
X165571506Y-91068537D01*
X165681820Y-91127502D01*
X165801518Y-91163812D01*
X165926000Y-91176072D01*
X167626000Y-91176072D01*
X167750482Y-91163812D01*
X167870180Y-91127502D01*
X167980494Y-91068537D01*
X168077185Y-90989185D01*
X168156537Y-90892494D01*
X168207046Y-90798000D01*
X171644954Y-90798000D01*
X171695463Y-90892494D01*
X171774815Y-90989185D01*
X171871506Y-91068537D01*
X171981820Y-91127502D01*
X172101518Y-91163812D01*
X172226000Y-91176072D01*
X173926000Y-91176072D01*
X174050482Y-91163812D01*
X174170180Y-91127502D01*
X174280494Y-91068537D01*
X174377185Y-90989185D01*
X174456537Y-90892494D01*
X174515502Y-90782180D01*
X174551812Y-90662482D01*
X174564072Y-90538000D01*
X174564072Y-89538000D01*
X174551812Y-89413518D01*
X174515502Y-89293820D01*
X174456537Y-89183506D01*
X174377185Y-89086815D01*
X174280494Y-89007463D01*
X174170180Y-88948498D01*
X174050482Y-88912188D01*
X173926000Y-88899928D01*
X172226000Y-88899928D01*
X172101518Y-88912188D01*
X171981820Y-88948498D01*
X171871506Y-89007463D01*
X171774815Y-89086815D01*
X171695463Y-89183506D01*
X171644954Y-89278000D01*
X168207046Y-89278000D01*
X168156537Y-89183506D01*
X168077185Y-89086815D01*
X167980494Y-89007463D01*
X167870180Y-88948498D01*
X167750482Y-88912188D01*
X167626000Y-88899928D01*
X165926000Y-88899928D01*
X165801518Y-88912188D01*
X165681820Y-88948498D01*
X165668447Y-88955646D01*
X164880165Y-88167364D01*
X164906581Y-88135176D01*
X165682674Y-87327761D01*
X165801518Y-87363812D01*
X165926000Y-87376072D01*
X167626000Y-87376072D01*
X167750482Y-87363812D01*
X167870180Y-87327502D01*
X167980494Y-87268537D01*
X168077185Y-87189185D01*
X168156537Y-87092494D01*
X168207046Y-86998000D01*
X171644954Y-86998000D01*
X171695463Y-87092494D01*
X171774815Y-87189185D01*
X171871506Y-87268537D01*
X171981820Y-87327502D01*
X172101518Y-87363812D01*
X172226000Y-87376072D01*
X173926000Y-87376072D01*
X174050482Y-87363812D01*
X174170180Y-87327502D01*
X174280494Y-87268537D01*
X174377185Y-87189185D01*
X174456537Y-87092494D01*
X174515502Y-86982180D01*
X174551812Y-86862482D01*
X174564072Y-86738000D01*
X174564072Y-85738000D01*
X174551812Y-85613518D01*
X174515502Y-85493820D01*
X174456537Y-85383506D01*
X174377185Y-85286815D01*
X174280494Y-85207463D01*
X174170180Y-85148498D01*
X174050482Y-85112188D01*
X173926000Y-85099928D01*
X172226000Y-85099928D01*
X172101518Y-85112188D01*
X171981820Y-85148498D01*
X171871506Y-85207463D01*
X171774815Y-85286815D01*
X171695463Y-85383506D01*
X171644954Y-85478000D01*
X168207046Y-85478000D01*
X168156537Y-85383506D01*
X168077185Y-85286815D01*
X167980494Y-85207463D01*
X167870180Y-85148498D01*
X167750482Y-85112188D01*
X167626000Y-85099928D01*
X165926000Y-85099928D01*
X165801518Y-85112188D01*
X165681820Y-85148498D01*
X165571506Y-85207463D01*
X165474815Y-85286815D01*
X165395463Y-85383506D01*
X165336498Y-85493820D01*
X165313387Y-85570008D01*
X165311113Y-85571281D01*
X165251724Y-85603026D01*
X165245864Y-85607835D01*
X165239249Y-85611541D01*
X165188048Y-85655283D01*
X165135999Y-85697999D01*
X165107425Y-85732817D01*
X164927613Y-85919885D01*
X164945883Y-85840593D01*
X164957061Y-85469450D01*
X164895618Y-85103257D01*
X164763914Y-84756087D01*
X164567011Y-84441281D01*
X164312477Y-84170939D01*
X164010092Y-83955448D01*
X163671477Y-83803090D01*
X163309645Y-83719721D01*
X163031504Y-83711344D01*
X162268084Y-83763387D01*
X162036968Y-83802166D01*
X160637802Y-82403001D01*
X173567866Y-82403001D01*
X176691403Y-85526539D01*
G36*
X179842085Y-86479913D02*
G01*
X180038989Y-86794719D01*
X180293523Y-87065061D01*
X180595908Y-87280552D01*
X180934523Y-87432910D01*
X181296355Y-87516279D01*
X181574495Y-87524656D01*
X181662545Y-87518654D01*
X180726481Y-88454718D01*
X179655404Y-88454718D01*
X179666900Y-88396924D01*
X179666900Y-87879076D01*
X179565873Y-87371178D01*
X179367701Y-86892749D01*
X179080000Y-86462174D01*
X178995826Y-86378000D01*
X179803423Y-86378000D01*
X179842085Y-86479913D01*
X179842085Y-86479913D01*
G37*
X179842085Y-86479913D02*
X180038989Y-86794719D01*
X180293523Y-87065061D01*
X180595908Y-87280552D01*
X180934523Y-87432910D01*
X181296355Y-87516279D01*
X181574495Y-87524656D01*
X181662545Y-87518654D01*
X180726481Y-88454718D01*
X179655404Y-88454718D01*
X179666900Y-88396924D01*
X179666900Y-87879076D01*
X179565873Y-87371178D01*
X179367701Y-86892749D01*
X179080000Y-86462174D01*
X178995826Y-86378000D01*
X179803423Y-86378000D01*
X179842085Y-86479913D01*
G36*
X155095363Y-81432759D02*
G01*
X155295241Y-81632637D01*
X155530273Y-81789680D01*
X155791426Y-81897853D01*
X156068665Y-81953000D01*
X156351335Y-81953000D01*
X156533886Y-81916688D01*
X156791435Y-82174237D01*
X156671212Y-82354162D01*
X156559202Y-82624579D01*
X156502100Y-82911652D01*
X156502100Y-83204348D01*
X156559202Y-83491421D01*
X156671212Y-83761838D01*
X156833826Y-84005206D01*
X157040794Y-84212174D01*
X157284162Y-84374788D01*
X157554579Y-84486798D01*
X157841652Y-84543900D01*
X158134348Y-84543900D01*
X158421421Y-84486798D01*
X158691838Y-84374788D01*
X158935206Y-84212174D01*
X159142174Y-84005206D01*
X159304788Y-83761838D01*
X159416798Y-83491421D01*
X159443314Y-83358115D01*
X160825460Y-84740262D01*
X160693486Y-85033575D01*
X160610117Y-85395407D01*
X160598939Y-85766550D01*
X160618614Y-85883813D01*
X160042903Y-85308102D01*
X160019100Y-85279098D01*
X159903375Y-85184125D01*
X159771346Y-85113553D01*
X159628085Y-85070096D01*
X159516432Y-85059099D01*
X159516421Y-85059099D01*
X159479099Y-85055423D01*
X159441777Y-85059099D01*
X156912252Y-85059099D01*
X156874927Y-85055423D01*
X156837602Y-85059099D01*
X156837594Y-85059099D01*
X156725941Y-85070096D01*
X156582680Y-85113553D01*
X156450651Y-85184125D01*
X156334926Y-85279098D01*
X156311128Y-85308096D01*
X154749225Y-86870000D01*
X145416440Y-86870000D01*
X145444665Y-86843425D01*
X145660156Y-86541040D01*
X145733515Y-86378000D01*
X148532678Y-86378000D01*
X148570000Y-86381676D01*
X148607322Y-86378000D01*
X148607333Y-86378000D01*
X148718986Y-86367003D01*
X148862247Y-86323546D01*
X148994276Y-86252974D01*
X149110001Y-86158001D01*
X149133804Y-86128997D01*
X153346114Y-81916688D01*
X153528665Y-81953000D01*
X153811335Y-81953000D01*
X154088574Y-81897853D01*
X154349727Y-81789680D01*
X154584759Y-81632637D01*
X154784637Y-81432759D01*
X154940000Y-81200241D01*
X155095363Y-81432759D01*
X155095363Y-81432759D01*
G37*
X155095363Y-81432759D02*
X155295241Y-81632637D01*
X155530273Y-81789680D01*
X155791426Y-81897853D01*
X156068665Y-81953000D01*
X156351335Y-81953000D01*
X156533886Y-81916688D01*
X156791435Y-82174237D01*
X156671212Y-82354162D01*
X156559202Y-82624579D01*
X156502100Y-82911652D01*
X156502100Y-83204348D01*
X156559202Y-83491421D01*
X156671212Y-83761838D01*
X156833826Y-84005206D01*
X157040794Y-84212174D01*
X157284162Y-84374788D01*
X157554579Y-84486798D01*
X157841652Y-84543900D01*
X158134348Y-84543900D01*
X158421421Y-84486798D01*
X158691838Y-84374788D01*
X158935206Y-84212174D01*
X159142174Y-84005206D01*
X159304788Y-83761838D01*
X159416798Y-83491421D01*
X159443314Y-83358115D01*
X160825460Y-84740262D01*
X160693486Y-85033575D01*
X160610117Y-85395407D01*
X160598939Y-85766550D01*
X160618614Y-85883813D01*
X160042903Y-85308102D01*
X160019100Y-85279098D01*
X159903375Y-85184125D01*
X159771346Y-85113553D01*
X159628085Y-85070096D01*
X159516432Y-85059099D01*
X159516421Y-85059099D01*
X159479099Y-85055423D01*
X159441777Y-85059099D01*
X156912252Y-85059099D01*
X156874927Y-85055423D01*
X156837602Y-85059099D01*
X156837594Y-85059099D01*
X156725941Y-85070096D01*
X156582680Y-85113553D01*
X156450651Y-85184125D01*
X156334926Y-85279098D01*
X156311128Y-85308096D01*
X154749225Y-86870000D01*
X145416440Y-86870000D01*
X145444665Y-86843425D01*
X145660156Y-86541040D01*
X145733515Y-86378000D01*
X148532678Y-86378000D01*
X148570000Y-86381676D01*
X148607322Y-86378000D01*
X148607333Y-86378000D01*
X148718986Y-86367003D01*
X148862247Y-86323546D01*
X148994276Y-86252974D01*
X149110001Y-86158001D01*
X149133804Y-86128997D01*
X153346114Y-81916688D01*
X153528665Y-81953000D01*
X153811335Y-81953000D01*
X154088574Y-81897853D01*
X154349727Y-81789680D01*
X154584759Y-81632637D01*
X154784637Y-81432759D01*
X154940000Y-81200241D01*
X155095363Y-81432759D01*
G36*
X150015363Y-81432759D02*
G01*
X150215241Y-81632637D01*
X150450273Y-81789680D01*
X150711426Y-81897853D01*
X150988665Y-81953000D01*
X151160198Y-81953000D01*
X148255199Y-84858000D01*
X145752576Y-84858000D01*
X145713914Y-84756087D01*
X145517011Y-84441281D01*
X145262477Y-84170939D01*
X144960092Y-83955448D01*
X144621477Y-83803090D01*
X144259645Y-83719721D01*
X143981504Y-83711344D01*
X143218084Y-83763387D01*
X142943653Y-83809434D01*
X142596483Y-83941137D01*
X142281677Y-84138041D01*
X142011335Y-84392575D01*
X141984000Y-84430932D01*
X141984000Y-83349325D01*
X141987676Y-83312000D01*
X141984000Y-83274675D01*
X141984000Y-83274667D01*
X141973003Y-83163014D01*
X141929546Y-83019753D01*
X141858974Y-82887724D01*
X141764001Y-82771999D01*
X141735004Y-82748202D01*
X140939802Y-81953000D01*
X141111335Y-81953000D01*
X141388574Y-81897853D01*
X141649727Y-81789680D01*
X141884759Y-81632637D01*
X142084637Y-81432759D01*
X142240000Y-81200241D01*
X142395363Y-81432759D01*
X142595241Y-81632637D01*
X142830273Y-81789680D01*
X143091426Y-81897853D01*
X143368665Y-81953000D01*
X143651335Y-81953000D01*
X143928574Y-81897853D01*
X144189727Y-81789680D01*
X144424759Y-81632637D01*
X144624637Y-81432759D01*
X144780000Y-81200241D01*
X144935363Y-81432759D01*
X145135241Y-81632637D01*
X145370273Y-81789680D01*
X145631426Y-81897853D01*
X145908665Y-81953000D01*
X146191335Y-81953000D01*
X146468574Y-81897853D01*
X146729727Y-81789680D01*
X146964759Y-81632637D01*
X147164637Y-81432759D01*
X147320000Y-81200241D01*
X147475363Y-81432759D01*
X147675241Y-81632637D01*
X147910273Y-81789680D01*
X148171426Y-81897853D01*
X148448665Y-81953000D01*
X148731335Y-81953000D01*
X149008574Y-81897853D01*
X149269727Y-81789680D01*
X149504759Y-81632637D01*
X149704637Y-81432759D01*
X149860000Y-81200241D01*
X150015363Y-81432759D01*
X150015363Y-81432759D01*
G37*
X150015363Y-81432759D02*
X150215241Y-81632637D01*
X150450273Y-81789680D01*
X150711426Y-81897853D01*
X150988665Y-81953000D01*
X151160198Y-81953000D01*
X148255199Y-84858000D01*
X145752576Y-84858000D01*
X145713914Y-84756087D01*
X145517011Y-84441281D01*
X145262477Y-84170939D01*
X144960092Y-83955448D01*
X144621477Y-83803090D01*
X144259645Y-83719721D01*
X143981504Y-83711344D01*
X143218084Y-83763387D01*
X142943653Y-83809434D01*
X142596483Y-83941137D01*
X142281677Y-84138041D01*
X142011335Y-84392575D01*
X141984000Y-84430932D01*
X141984000Y-83349325D01*
X141987676Y-83312000D01*
X141984000Y-83274675D01*
X141984000Y-83274667D01*
X141973003Y-83163014D01*
X141929546Y-83019753D01*
X141858974Y-82887724D01*
X141764001Y-82771999D01*
X141735004Y-82748202D01*
X140939802Y-81953000D01*
X141111335Y-81953000D01*
X141388574Y-81897853D01*
X141649727Y-81789680D01*
X141884759Y-81632637D01*
X142084637Y-81432759D01*
X142240000Y-81200241D01*
X142395363Y-81432759D01*
X142595241Y-81632637D01*
X142830273Y-81789680D01*
X143091426Y-81897853D01*
X143368665Y-81953000D01*
X143651335Y-81953000D01*
X143928574Y-81897853D01*
X144189727Y-81789680D01*
X144424759Y-81632637D01*
X144624637Y-81432759D01*
X144780000Y-81200241D01*
X144935363Y-81432759D01*
X145135241Y-81632637D01*
X145370273Y-81789680D01*
X145631426Y-81897853D01*
X145908665Y-81953000D01*
X146191335Y-81953000D01*
X146468574Y-81897853D01*
X146729727Y-81789680D01*
X146964759Y-81632637D01*
X147164637Y-81432759D01*
X147320000Y-81200241D01*
X147475363Y-81432759D01*
X147675241Y-81632637D01*
X147910273Y-81789680D01*
X148171426Y-81897853D01*
X148448665Y-81953000D01*
X148731335Y-81953000D01*
X149008574Y-81897853D01*
X149269727Y-81789680D01*
X149504759Y-81632637D01*
X149704637Y-81432759D01*
X149860000Y-81200241D01*
X150015363Y-81432759D01*
G36*
X146669550Y-78615383D02*
G01*
X146707290Y-78739793D01*
X146768575Y-78854450D01*
X146851052Y-78954948D01*
X146951550Y-79037425D01*
X147066207Y-79098710D01*
X147190617Y-79136450D01*
X147287581Y-79146000D01*
X147320000Y-79149193D01*
X147352419Y-79146000D01*
X148152467Y-79146000D01*
X147910273Y-79246320D01*
X147675241Y-79403363D01*
X147475363Y-79603241D01*
X147320000Y-79835759D01*
X147164637Y-79603241D01*
X146964759Y-79403363D01*
X146729727Y-79246320D01*
X146468574Y-79138147D01*
X146191335Y-79083000D01*
X145908665Y-79083000D01*
X145631426Y-79138147D01*
X145370273Y-79246320D01*
X145135241Y-79403363D01*
X144935363Y-79603241D01*
X144780000Y-79835759D01*
X144624637Y-79603241D01*
X144424759Y-79403363D01*
X144189727Y-79246320D01*
X143928574Y-79138147D01*
X143651335Y-79083000D01*
X143368665Y-79083000D01*
X143091426Y-79138147D01*
X142830273Y-79246320D01*
X142595241Y-79403363D01*
X142395363Y-79603241D01*
X142240000Y-79835759D01*
X142084637Y-79603241D01*
X141884759Y-79403363D01*
X141649727Y-79246320D01*
X141407533Y-79146000D01*
X142207581Y-79146000D01*
X142240000Y-79149193D01*
X142272419Y-79146000D01*
X142369383Y-79136450D01*
X142493793Y-79098710D01*
X142608450Y-79037425D01*
X142708948Y-78954948D01*
X142791425Y-78854450D01*
X142852710Y-78739793D01*
X142890450Y-78615383D01*
X142890685Y-78613000D01*
X146669315Y-78613000D01*
X146669550Y-78615383D01*
X146669550Y-78615383D01*
G37*
X146669550Y-78615383D02*
X146707290Y-78739793D01*
X146768575Y-78854450D01*
X146851052Y-78954948D01*
X146951550Y-79037425D01*
X147066207Y-79098710D01*
X147190617Y-79136450D01*
X147287581Y-79146000D01*
X147320000Y-79149193D01*
X147352419Y-79146000D01*
X148152467Y-79146000D01*
X147910273Y-79246320D01*
X147675241Y-79403363D01*
X147475363Y-79603241D01*
X147320000Y-79835759D01*
X147164637Y-79603241D01*
X146964759Y-79403363D01*
X146729727Y-79246320D01*
X146468574Y-79138147D01*
X146191335Y-79083000D01*
X145908665Y-79083000D01*
X145631426Y-79138147D01*
X145370273Y-79246320D01*
X145135241Y-79403363D01*
X144935363Y-79603241D01*
X144780000Y-79835759D01*
X144624637Y-79603241D01*
X144424759Y-79403363D01*
X144189727Y-79246320D01*
X143928574Y-79138147D01*
X143651335Y-79083000D01*
X143368665Y-79083000D01*
X143091426Y-79138147D01*
X142830273Y-79246320D01*
X142595241Y-79403363D01*
X142395363Y-79603241D01*
X142240000Y-79835759D01*
X142084637Y-79603241D01*
X141884759Y-79403363D01*
X141649727Y-79246320D01*
X141407533Y-79146000D01*
X142207581Y-79146000D01*
X142240000Y-79149193D01*
X142272419Y-79146000D01*
X142369383Y-79136450D01*
X142493793Y-79098710D01*
X142608450Y-79037425D01*
X142708948Y-78954948D01*
X142791425Y-78854450D01*
X142852710Y-78739793D01*
X142890450Y-78615383D01*
X142890685Y-78613000D01*
X146669315Y-78613000D01*
X146669550Y-78615383D01*
G36*
X135210273Y-79246320D02*
G01*
X134975241Y-79403363D01*
X134775363Y-79603241D01*
X134620000Y-79835759D01*
X134464637Y-79603241D01*
X134264759Y-79403363D01*
X134029727Y-79246320D01*
X133787533Y-79146000D01*
X135452467Y-79146000D01*
X135210273Y-79246320D01*
X135210273Y-79246320D01*
G37*
X135210273Y-79246320D02*
X134975241Y-79403363D01*
X134775363Y-79603241D01*
X134620000Y-79835759D01*
X134464637Y-79603241D01*
X134264759Y-79403363D01*
X134029727Y-79246320D01*
X133787533Y-79146000D01*
X135452467Y-79146000D01*
X135210273Y-79246320D01*
G36*
X137750273Y-79246320D02*
G01*
X137515241Y-79403363D01*
X137315363Y-79603241D01*
X137160000Y-79835759D01*
X137004637Y-79603241D01*
X136804759Y-79403363D01*
X136569727Y-79246320D01*
X136327533Y-79146000D01*
X137992467Y-79146000D01*
X137750273Y-79246320D01*
X137750273Y-79246320D01*
G37*
X137750273Y-79246320D02*
X137515241Y-79403363D01*
X137315363Y-79603241D01*
X137160000Y-79835759D01*
X137004637Y-79603241D01*
X136804759Y-79403363D01*
X136569727Y-79246320D01*
X136327533Y-79146000D01*
X137992467Y-79146000D01*
X137750273Y-79246320D01*
G36*
X140290273Y-79246320D02*
G01*
X140055241Y-79403363D01*
X139855363Y-79603241D01*
X139700000Y-79835759D01*
X139544637Y-79603241D01*
X139344759Y-79403363D01*
X139109727Y-79246320D01*
X138867533Y-79146000D01*
X140532467Y-79146000D01*
X140290273Y-79246320D01*
X140290273Y-79246320D01*
G37*
X140290273Y-79246320D02*
X140055241Y-79403363D01*
X139855363Y-79603241D01*
X139700000Y-79835759D01*
X139544637Y-79603241D01*
X139344759Y-79403363D01*
X139109727Y-79246320D01*
X138867533Y-79146000D01*
X140532467Y-79146000D01*
X140290273Y-79246320D01*
G36*
X150450273Y-79246320D02*
G01*
X150215241Y-79403363D01*
X150015363Y-79603241D01*
X149860000Y-79835759D01*
X149704637Y-79603241D01*
X149504759Y-79403363D01*
X149269727Y-79246320D01*
X149027533Y-79146000D01*
X150692467Y-79146000D01*
X150450273Y-79246320D01*
X150450273Y-79246320D01*
G37*
X150450273Y-79246320D02*
X150215241Y-79403363D01*
X150015363Y-79603241D01*
X149860000Y-79835759D01*
X149704637Y-79603241D01*
X149504759Y-79403363D01*
X149269727Y-79246320D01*
X149027533Y-79146000D01*
X150692467Y-79146000D01*
X150450273Y-79246320D01*
G36*
X152990273Y-79246320D02*
G01*
X152755241Y-79403363D01*
X152555363Y-79603241D01*
X152400000Y-79835759D01*
X152244637Y-79603241D01*
X152044759Y-79403363D01*
X151809727Y-79246320D01*
X151567533Y-79146000D01*
X153232467Y-79146000D01*
X152990273Y-79246320D01*
X152990273Y-79246320D01*
G37*
X152990273Y-79246320D02*
X152755241Y-79403363D01*
X152555363Y-79603241D01*
X152400000Y-79835759D01*
X152244637Y-79603241D01*
X152044759Y-79403363D01*
X151809727Y-79246320D01*
X151567533Y-79146000D01*
X153232467Y-79146000D01*
X152990273Y-79246320D01*
G36*
X155530273Y-79246320D02*
G01*
X155295241Y-79403363D01*
X155095363Y-79603241D01*
X154940000Y-79835759D01*
X154784637Y-79603241D01*
X154584759Y-79403363D01*
X154349727Y-79246320D01*
X154107533Y-79146000D01*
X155772467Y-79146000D01*
X155530273Y-79246320D01*
X155530273Y-79246320D01*
G37*
X155530273Y-79246320D02*
X155295241Y-79403363D01*
X155095363Y-79603241D01*
X154940000Y-79835759D01*
X154784637Y-79603241D01*
X154584759Y-79403363D01*
X154349727Y-79246320D01*
X154107533Y-79146000D01*
X155772467Y-79146000D01*
X155530273Y-79246320D01*
G36*
X158070273Y-79246320D02*
G01*
X157835241Y-79403363D01*
X157635363Y-79603241D01*
X157480000Y-79835759D01*
X157324637Y-79603241D01*
X157124759Y-79403363D01*
X156889727Y-79246320D01*
X156647533Y-79146000D01*
X158312467Y-79146000D01*
X158070273Y-79246320D01*
X158070273Y-79246320D01*
G37*
X158070273Y-79246320D02*
X157835241Y-79403363D01*
X157635363Y-79603241D01*
X157480000Y-79835759D01*
X157324637Y-79603241D01*
X157124759Y-79403363D01*
X156889727Y-79246320D01*
X156647533Y-79146000D01*
X158312467Y-79146000D01*
X158070273Y-79246320D01*
G36*
X160610273Y-79246320D02*
G01*
X160375241Y-79403363D01*
X160175363Y-79603241D01*
X160020000Y-79835759D01*
X159864637Y-79603241D01*
X159664759Y-79403363D01*
X159429727Y-79246320D01*
X159187533Y-79146000D01*
X160852467Y-79146000D01*
X160610273Y-79246320D01*
X160610273Y-79246320D01*
G37*
X160610273Y-79246320D02*
X160375241Y-79403363D01*
X160175363Y-79603241D01*
X160020000Y-79835759D01*
X159864637Y-79603241D01*
X159664759Y-79403363D01*
X159429727Y-79246320D01*
X159187533Y-79146000D01*
X160852467Y-79146000D01*
X160610273Y-79246320D01*
M02*
