G04 #@! TF.GenerationSoftware,KiCad,Pcbnew,(5.1.4-0-10_14)*
G04 #@! TF.CreationDate,2021-02-23T13:51:13-08:00*
G04 #@! TF.ProjectId,fourkey,666f7572-6b65-4792-9e6b-696361645f70,rev?*
G04 #@! TF.SameCoordinates,Original*
G04 #@! TF.FileFunction,Copper,L1,Top*
G04 #@! TF.FilePolarity,Positive*
%FSLAX46Y46*%
G04 Gerber Fmt 4.6, Leading zero omitted, Abs format (unit mm)*
G04 Created by KiCad (PCBNEW (5.1.4-0-10_14)) date 2021-02-23 13:51:13*
%MOMM*%
%LPD*%
G04 APERTURE LIST*
%ADD10C,4.000000*%
%ADD11C,2.800000*%
%ADD12C,2.500000*%
%ADD13C,2.500000*%
%ADD14C,1.600000*%
%ADD15R,1.600000X1.600000*%
%ADD16R,1.700000X1.000000*%
%ADD17C,0.250000*%
%ADD18C,0.254000*%
G04 APERTURE END LIST*
D10*
X172466000Y-61214000D03*
D11*
X130048000Y-122158000D03*
X209296000Y-122158000D03*
X130048000Y-101076000D03*
X209296000Y-101076000D03*
X130048000Y-71628000D03*
X130048000Y-50546000D03*
X209296000Y-50546000D03*
X209296000Y-71628000D03*
D12*
X144998000Y-89615000D03*
D13*
X144049185Y-90219462D02*
X145946815Y-89010538D01*
D12*
X146268000Y-83840000D03*
D13*
X145978672Y-83859724D02*
X146557328Y-83820276D01*
D14*
X135890000Y-78740000D03*
X138430000Y-78740000D03*
X140970000Y-78740000D03*
X143510000Y-78740000D03*
X146050000Y-78740000D03*
X148590000Y-78740000D03*
X151130000Y-78740000D03*
X153670000Y-78740000D03*
X156210000Y-78740000D03*
X158750000Y-78740000D03*
X161290000Y-78740000D03*
X163830000Y-78740000D03*
X163830000Y-93980000D03*
X161290000Y-93980000D03*
X158750000Y-93980000D03*
X156210000Y-93980000D03*
X153670000Y-93980000D03*
X151130000Y-93980000D03*
X148590000Y-93980000D03*
X146050000Y-93980000D03*
X143510000Y-93980000D03*
X140970000Y-93980000D03*
X138430000Y-93980000D03*
D15*
X135890000Y-93980000D03*
D12*
X165318000Y-83840000D03*
D13*
X165028672Y-83859724D02*
X165607328Y-83820276D01*
D12*
X164048000Y-89615000D03*
D13*
X163099185Y-90219462D02*
X164996815Y-89010538D01*
D12*
X183098000Y-89615000D03*
D13*
X182149185Y-90219462D02*
X184046815Y-89010538D01*
D12*
X184368000Y-83840000D03*
D13*
X184078672Y-83859724D02*
X184657328Y-83820276D01*
D12*
X203418000Y-83840000D03*
D13*
X203128672Y-83859724D02*
X203707328Y-83820276D01*
D12*
X202148000Y-89615000D03*
D13*
X201199185Y-90219462D02*
X203096815Y-89010538D01*
D16*
X169316000Y-84460000D03*
X175616000Y-84460000D03*
X169316000Y-88260000D03*
X175616000Y-88260000D03*
D17*
X151110000Y-83840000D02*
X156210000Y-78740000D01*
X146268000Y-83840000D02*
X151110000Y-83840000D01*
X161582099Y-80104099D02*
X164243469Y-82765469D01*
X160114099Y-80104099D02*
X161582099Y-80104099D01*
X164243469Y-82765469D02*
X165318000Y-83840000D01*
X158750000Y-78740000D02*
X160114099Y-80104099D01*
X146268000Y-78958000D02*
X146050000Y-78740000D01*
X162089999Y-79539999D02*
X161290000Y-78740000D01*
X162415001Y-79865001D02*
X162089999Y-79539999D01*
X176422667Y-79865001D02*
X162415001Y-79865001D01*
X180397666Y-83840000D02*
X176422667Y-79865001D01*
X184368000Y-83840000D02*
X180397666Y-83840000D01*
X162089999Y-93180001D02*
X161290000Y-93980000D01*
X162415001Y-92854999D02*
X162089999Y-93180001D01*
X176478620Y-92854999D02*
X162415001Y-92854999D01*
X181896901Y-87436718D02*
X176478620Y-92854999D01*
X183581282Y-87436718D02*
X181896901Y-87436718D01*
X187178000Y-83840000D02*
X183581282Y-87436718D01*
X203418000Y-83840000D02*
X187178000Y-83840000D01*
X169316000Y-84460000D02*
X175616000Y-84460000D01*
X166878000Y-85852000D02*
X168216000Y-84460000D01*
X168216000Y-84460000D02*
X169316000Y-84460000D01*
X162019099Y-84041099D02*
X163830000Y-85852000D01*
X140970000Y-78740000D02*
X143764000Y-81534000D01*
X157604026Y-85852000D02*
X159414927Y-84041099D01*
X145034000Y-85852000D02*
X157604026Y-85852000D01*
X143764000Y-84582000D02*
X145034000Y-85852000D01*
X163830000Y-85852000D02*
X166878000Y-85852000D01*
X159414927Y-84041099D02*
X162019099Y-84041099D01*
X143764000Y-81534000D02*
X143764000Y-84582000D01*
X168216000Y-88260000D02*
X166824000Y-86868000D01*
X169316000Y-88260000D02*
X168216000Y-88260000D01*
X166824000Y-86868000D02*
X163451974Y-86868000D01*
X170416000Y-88260000D02*
X175616000Y-88260000D01*
X169316000Y-88260000D02*
X170416000Y-88260000D01*
X161641073Y-88678901D02*
X163451974Y-86868000D01*
X148811099Y-88678901D02*
X161641073Y-88678901D01*
X143510000Y-93980000D02*
X148811099Y-88678901D01*
D18*
G36*
X196044392Y-77222090D02*
G01*
X196099366Y-77245652D01*
X196108169Y-77248377D01*
X196295006Y-77304786D01*
X196353686Y-77316405D01*
X196412196Y-77328842D01*
X196421361Y-77329805D01*
X196615594Y-77348850D01*
X196615598Y-77348850D01*
X196647581Y-77352000D01*
X207620001Y-77352000D01*
X207620000Y-95368000D01*
X196647581Y-95368000D01*
X196614613Y-95371247D01*
X196601633Y-95371247D01*
X196592468Y-95372210D01*
X196398518Y-95393965D01*
X196340019Y-95406400D01*
X196281325Y-95418022D01*
X196272522Y-95420747D01*
X196086491Y-95479760D01*
X196031509Y-95503326D01*
X196022033Y-95507232D01*
X195981758Y-95466957D01*
X195813272Y-95354378D01*
X195626061Y-95276833D01*
X195427318Y-95237300D01*
X195224682Y-95237300D01*
X195025939Y-95276833D01*
X194838728Y-95354378D01*
X194691000Y-95453087D01*
X194543272Y-95354378D01*
X194356061Y-95276833D01*
X194157318Y-95237300D01*
X193954682Y-95237300D01*
X193755939Y-95276833D01*
X193568728Y-95354378D01*
X193421000Y-95453087D01*
X193273272Y-95354378D01*
X193086061Y-95276833D01*
X192887318Y-95237300D01*
X192684682Y-95237300D01*
X192485939Y-95276833D01*
X192298728Y-95354378D01*
X192151000Y-95453087D01*
X192003272Y-95354378D01*
X191816061Y-95276833D01*
X191617318Y-95237300D01*
X191414682Y-95237300D01*
X191215939Y-95276833D01*
X191028728Y-95354378D01*
X190881000Y-95453087D01*
X190733272Y-95354378D01*
X190546061Y-95276833D01*
X190347318Y-95237300D01*
X190144682Y-95237300D01*
X189945939Y-95276833D01*
X189758728Y-95354378D01*
X189590242Y-95466957D01*
X189582186Y-95475013D01*
X189580634Y-95474348D01*
X189571831Y-95471623D01*
X189384995Y-95415214D01*
X189326307Y-95403594D01*
X189267804Y-95391158D01*
X189258639Y-95390195D01*
X189064405Y-95371150D01*
X189064402Y-95371150D01*
X189032419Y-95368000D01*
X164207617Y-95368000D01*
X164248574Y-95359853D01*
X164509727Y-95251680D01*
X164744759Y-95094637D01*
X164944637Y-94894759D01*
X165101680Y-94659727D01*
X165209853Y-94398574D01*
X165265000Y-94121335D01*
X165265000Y-93838665D01*
X165220509Y-93614999D01*
X176441298Y-93614999D01*
X176478620Y-93618675D01*
X176515942Y-93614999D01*
X176515953Y-93614999D01*
X176627606Y-93604002D01*
X176770867Y-93560545D01*
X176902896Y-93489973D01*
X177018621Y-93395000D01*
X177042424Y-93365996D01*
X178262562Y-92145858D01*
X178423826Y-92387206D01*
X178630794Y-92594174D01*
X178874162Y-92756788D01*
X179144579Y-92868798D01*
X179431652Y-92925900D01*
X179724348Y-92925900D01*
X180011421Y-92868798D01*
X180281838Y-92756788D01*
X180525206Y-92594174D01*
X180732174Y-92387206D01*
X180894788Y-92143838D01*
X181006798Y-91873421D01*
X181032353Y-91744946D01*
X181062763Y-91771034D01*
X181386336Y-91953172D01*
X181739223Y-92068683D01*
X182107865Y-92113131D01*
X182478096Y-92084806D01*
X182835686Y-91984796D01*
X183083899Y-91859007D01*
X183971328Y-91293652D01*
X197142100Y-91293652D01*
X197142100Y-91586348D01*
X197199202Y-91873421D01*
X197311212Y-92143838D01*
X197473826Y-92387206D01*
X197680794Y-92594174D01*
X197924162Y-92756788D01*
X198194579Y-92868798D01*
X198481652Y-92925900D01*
X198774348Y-92925900D01*
X199061421Y-92868798D01*
X199331838Y-92756788D01*
X199575206Y-92594174D01*
X199782174Y-92387206D01*
X199944788Y-92143838D01*
X200056798Y-91873421D01*
X200082353Y-91744946D01*
X200112763Y-91771034D01*
X200436336Y-91953172D01*
X200789223Y-92068683D01*
X201157865Y-92113131D01*
X201528096Y-92084806D01*
X201885686Y-91984796D01*
X202133899Y-91859007D01*
X204187720Y-90550578D01*
X204406623Y-90378782D01*
X204648387Y-90096961D01*
X204830524Y-89773389D01*
X204946036Y-89420501D01*
X204990483Y-89051859D01*
X204962158Y-88681627D01*
X204862149Y-88324037D01*
X204694299Y-87992829D01*
X204465058Y-87700730D01*
X204183237Y-87458966D01*
X203859664Y-87276829D01*
X203506777Y-87161317D01*
X203138134Y-87116869D01*
X202767903Y-87145195D01*
X202410312Y-87245204D01*
X202162100Y-87370994D01*
X200108280Y-88679422D01*
X199889377Y-88851218D01*
X199647613Y-89133040D01*
X199465475Y-89456613D01*
X199349964Y-89809500D01*
X199313076Y-90115441D01*
X199061421Y-90011202D01*
X198774348Y-89954100D01*
X198481652Y-89954100D01*
X198194579Y-90011202D01*
X197924162Y-90123212D01*
X197680794Y-90285826D01*
X197473826Y-90492794D01*
X197311212Y-90736162D01*
X197199202Y-91006579D01*
X197142100Y-91293652D01*
X183971328Y-91293652D01*
X185137720Y-90550578D01*
X185356623Y-90378782D01*
X185598387Y-90096961D01*
X185780524Y-89773389D01*
X185896036Y-89420501D01*
X185940483Y-89051859D01*
X185912158Y-88681627D01*
X185812149Y-88324037D01*
X185644299Y-87992829D01*
X185415058Y-87700730D01*
X185133237Y-87458966D01*
X184813700Y-87279101D01*
X187492803Y-84600000D01*
X196670174Y-84600000D01*
X196586000Y-84684174D01*
X196298299Y-85114749D01*
X196100127Y-85593178D01*
X195999100Y-86101076D01*
X195999100Y-86618924D01*
X196100127Y-87126822D01*
X196298299Y-87605251D01*
X196586000Y-88035826D01*
X196952174Y-88402000D01*
X197382749Y-88689701D01*
X197861178Y-88887873D01*
X198369076Y-88988900D01*
X198886924Y-88988900D01*
X199394822Y-88887873D01*
X199873251Y-88689701D01*
X200303826Y-88402000D01*
X200670000Y-88035826D01*
X200957701Y-87605251D01*
X201155873Y-87126822D01*
X201256900Y-86618924D01*
X201256900Y-86101076D01*
X201155873Y-85593178D01*
X200957701Y-85114749D01*
X200670000Y-84684174D01*
X200585826Y-84600000D01*
X201393423Y-84600000D01*
X201432085Y-84701913D01*
X201628989Y-85016719D01*
X201883523Y-85287061D01*
X202185908Y-85502552D01*
X202524523Y-85654910D01*
X202886355Y-85738279D01*
X203164495Y-85746656D01*
X203927916Y-85694613D01*
X204202347Y-85648566D01*
X204549517Y-85516863D01*
X204864323Y-85319959D01*
X205134665Y-85065425D01*
X205350156Y-84763040D01*
X205502514Y-84424425D01*
X205585883Y-84062593D01*
X205597061Y-83691450D01*
X205535618Y-83325257D01*
X205403914Y-82978087D01*
X205207011Y-82663281D01*
X204952477Y-82392939D01*
X204650092Y-82177448D01*
X204311477Y-82025090D01*
X203949645Y-81941721D01*
X203671504Y-81933344D01*
X202908084Y-81985387D01*
X202633653Y-82031434D01*
X202286483Y-82163137D01*
X201971677Y-82360041D01*
X201701335Y-82614575D01*
X201485844Y-82916960D01*
X201412485Y-83080000D01*
X187215322Y-83080000D01*
X187177999Y-83076324D01*
X187140676Y-83080000D01*
X187140667Y-83080000D01*
X187029014Y-83090997D01*
X186885753Y-83134454D01*
X186753724Y-83205026D01*
X186753722Y-83205027D01*
X186753723Y-83205027D01*
X186666996Y-83276201D01*
X186666992Y-83276205D01*
X186637999Y-83299999D01*
X186614205Y-83328992D01*
X186504630Y-83438567D01*
X186485618Y-83325257D01*
X186353914Y-82978087D01*
X186157011Y-82663281D01*
X185902477Y-82392939D01*
X185600092Y-82177448D01*
X185261477Y-82025090D01*
X184899645Y-81941721D01*
X184621504Y-81933344D01*
X183858084Y-81985387D01*
X183583653Y-82031434D01*
X183236483Y-82163137D01*
X182921677Y-82360041D01*
X182651335Y-82614575D01*
X182435844Y-82916960D01*
X182362485Y-83080000D01*
X180712469Y-83080000D01*
X180244657Y-82612189D01*
X180281838Y-82596788D01*
X180525206Y-82434174D01*
X180732174Y-82227206D01*
X180894788Y-81983838D01*
X181006798Y-81713421D01*
X181063900Y-81426348D01*
X181063900Y-81133652D01*
X197142100Y-81133652D01*
X197142100Y-81426348D01*
X197199202Y-81713421D01*
X197311212Y-81983838D01*
X197473826Y-82227206D01*
X197680794Y-82434174D01*
X197924162Y-82596788D01*
X198194579Y-82708798D01*
X198481652Y-82765900D01*
X198774348Y-82765900D01*
X199061421Y-82708798D01*
X199331838Y-82596788D01*
X199575206Y-82434174D01*
X199782174Y-82227206D01*
X199944788Y-81983838D01*
X200056798Y-81713421D01*
X200113900Y-81426348D01*
X200113900Y-81133652D01*
X200056798Y-80846579D01*
X199944788Y-80576162D01*
X199782174Y-80332794D01*
X199575206Y-80125826D01*
X199331838Y-79963212D01*
X199061421Y-79851202D01*
X198774348Y-79794100D01*
X198481652Y-79794100D01*
X198194579Y-79851202D01*
X197924162Y-79963212D01*
X197680794Y-80125826D01*
X197473826Y-80332794D01*
X197311212Y-80576162D01*
X197199202Y-80846579D01*
X197142100Y-81133652D01*
X181063900Y-81133652D01*
X181006798Y-80846579D01*
X180894788Y-80576162D01*
X180732174Y-80332794D01*
X180525206Y-80125826D01*
X180281838Y-79963212D01*
X180011421Y-79851202D01*
X179724348Y-79794100D01*
X179431652Y-79794100D01*
X179144579Y-79851202D01*
X178874162Y-79963212D01*
X178630794Y-80125826D01*
X178423826Y-80332794D01*
X178261212Y-80576162D01*
X178245811Y-80613343D01*
X176986471Y-79354004D01*
X176962668Y-79325000D01*
X176846943Y-79230027D01*
X176714914Y-79159455D01*
X176571653Y-79115998D01*
X176460000Y-79105001D01*
X176459989Y-79105001D01*
X176422667Y-79101325D01*
X176385345Y-79105001D01*
X165220509Y-79105001D01*
X165265000Y-78881335D01*
X165265000Y-78598665D01*
X165209853Y-78321426D01*
X165101680Y-78060273D01*
X164944637Y-77825241D01*
X164744759Y-77625363D01*
X164509727Y-77468320D01*
X164248574Y-77360147D01*
X164207617Y-77352000D01*
X189032419Y-77352000D01*
X189065387Y-77348753D01*
X189078367Y-77348753D01*
X189087532Y-77347790D01*
X189281481Y-77326035D01*
X189339966Y-77313603D01*
X189398676Y-77301978D01*
X189407479Y-77299253D01*
X189581309Y-77244110D01*
X189590242Y-77253043D01*
X189758728Y-77365622D01*
X189945939Y-77443167D01*
X190144682Y-77482700D01*
X190347318Y-77482700D01*
X190546061Y-77443167D01*
X190733272Y-77365622D01*
X190881000Y-77266913D01*
X191028728Y-77365622D01*
X191215939Y-77443167D01*
X191414682Y-77482700D01*
X191617318Y-77482700D01*
X191816061Y-77443167D01*
X192003272Y-77365622D01*
X192151000Y-77266913D01*
X192298728Y-77365622D01*
X192485939Y-77443167D01*
X192684682Y-77482700D01*
X192887318Y-77482700D01*
X193086061Y-77443167D01*
X193273272Y-77365622D01*
X193421000Y-77266913D01*
X193568728Y-77365622D01*
X193755939Y-77443167D01*
X193954682Y-77482700D01*
X194157318Y-77482700D01*
X194356061Y-77443167D01*
X194543272Y-77365622D01*
X194691000Y-77266913D01*
X194838728Y-77365622D01*
X195025939Y-77443167D01*
X195224682Y-77482700D01*
X195427318Y-77482700D01*
X195626061Y-77443167D01*
X195813272Y-77365622D01*
X195981758Y-77253043D01*
X196021958Y-77212843D01*
X196044392Y-77222090D01*
X196044392Y-77222090D01*
G37*
X196044392Y-77222090D02*
X196099366Y-77245652D01*
X196108169Y-77248377D01*
X196295006Y-77304786D01*
X196353686Y-77316405D01*
X196412196Y-77328842D01*
X196421361Y-77329805D01*
X196615594Y-77348850D01*
X196615598Y-77348850D01*
X196647581Y-77352000D01*
X207620001Y-77352000D01*
X207620000Y-95368000D01*
X196647581Y-95368000D01*
X196614613Y-95371247D01*
X196601633Y-95371247D01*
X196592468Y-95372210D01*
X196398518Y-95393965D01*
X196340019Y-95406400D01*
X196281325Y-95418022D01*
X196272522Y-95420747D01*
X196086491Y-95479760D01*
X196031509Y-95503326D01*
X196022033Y-95507232D01*
X195981758Y-95466957D01*
X195813272Y-95354378D01*
X195626061Y-95276833D01*
X195427318Y-95237300D01*
X195224682Y-95237300D01*
X195025939Y-95276833D01*
X194838728Y-95354378D01*
X194691000Y-95453087D01*
X194543272Y-95354378D01*
X194356061Y-95276833D01*
X194157318Y-95237300D01*
X193954682Y-95237300D01*
X193755939Y-95276833D01*
X193568728Y-95354378D01*
X193421000Y-95453087D01*
X193273272Y-95354378D01*
X193086061Y-95276833D01*
X192887318Y-95237300D01*
X192684682Y-95237300D01*
X192485939Y-95276833D01*
X192298728Y-95354378D01*
X192151000Y-95453087D01*
X192003272Y-95354378D01*
X191816061Y-95276833D01*
X191617318Y-95237300D01*
X191414682Y-95237300D01*
X191215939Y-95276833D01*
X191028728Y-95354378D01*
X190881000Y-95453087D01*
X190733272Y-95354378D01*
X190546061Y-95276833D01*
X190347318Y-95237300D01*
X190144682Y-95237300D01*
X189945939Y-95276833D01*
X189758728Y-95354378D01*
X189590242Y-95466957D01*
X189582186Y-95475013D01*
X189580634Y-95474348D01*
X189571831Y-95471623D01*
X189384995Y-95415214D01*
X189326307Y-95403594D01*
X189267804Y-95391158D01*
X189258639Y-95390195D01*
X189064405Y-95371150D01*
X189064402Y-95371150D01*
X189032419Y-95368000D01*
X164207617Y-95368000D01*
X164248574Y-95359853D01*
X164509727Y-95251680D01*
X164744759Y-95094637D01*
X164944637Y-94894759D01*
X165101680Y-94659727D01*
X165209853Y-94398574D01*
X165265000Y-94121335D01*
X165265000Y-93838665D01*
X165220509Y-93614999D01*
X176441298Y-93614999D01*
X176478620Y-93618675D01*
X176515942Y-93614999D01*
X176515953Y-93614999D01*
X176627606Y-93604002D01*
X176770867Y-93560545D01*
X176902896Y-93489973D01*
X177018621Y-93395000D01*
X177042424Y-93365996D01*
X178262562Y-92145858D01*
X178423826Y-92387206D01*
X178630794Y-92594174D01*
X178874162Y-92756788D01*
X179144579Y-92868798D01*
X179431652Y-92925900D01*
X179724348Y-92925900D01*
X180011421Y-92868798D01*
X180281838Y-92756788D01*
X180525206Y-92594174D01*
X180732174Y-92387206D01*
X180894788Y-92143838D01*
X181006798Y-91873421D01*
X181032353Y-91744946D01*
X181062763Y-91771034D01*
X181386336Y-91953172D01*
X181739223Y-92068683D01*
X182107865Y-92113131D01*
X182478096Y-92084806D01*
X182835686Y-91984796D01*
X183083899Y-91859007D01*
X183971328Y-91293652D01*
X197142100Y-91293652D01*
X197142100Y-91586348D01*
X197199202Y-91873421D01*
X197311212Y-92143838D01*
X197473826Y-92387206D01*
X197680794Y-92594174D01*
X197924162Y-92756788D01*
X198194579Y-92868798D01*
X198481652Y-92925900D01*
X198774348Y-92925900D01*
X199061421Y-92868798D01*
X199331838Y-92756788D01*
X199575206Y-92594174D01*
X199782174Y-92387206D01*
X199944788Y-92143838D01*
X200056798Y-91873421D01*
X200082353Y-91744946D01*
X200112763Y-91771034D01*
X200436336Y-91953172D01*
X200789223Y-92068683D01*
X201157865Y-92113131D01*
X201528096Y-92084806D01*
X201885686Y-91984796D01*
X202133899Y-91859007D01*
X204187720Y-90550578D01*
X204406623Y-90378782D01*
X204648387Y-90096961D01*
X204830524Y-89773389D01*
X204946036Y-89420501D01*
X204990483Y-89051859D01*
X204962158Y-88681627D01*
X204862149Y-88324037D01*
X204694299Y-87992829D01*
X204465058Y-87700730D01*
X204183237Y-87458966D01*
X203859664Y-87276829D01*
X203506777Y-87161317D01*
X203138134Y-87116869D01*
X202767903Y-87145195D01*
X202410312Y-87245204D01*
X202162100Y-87370994D01*
X200108280Y-88679422D01*
X199889377Y-88851218D01*
X199647613Y-89133040D01*
X199465475Y-89456613D01*
X199349964Y-89809500D01*
X199313076Y-90115441D01*
X199061421Y-90011202D01*
X198774348Y-89954100D01*
X198481652Y-89954100D01*
X198194579Y-90011202D01*
X197924162Y-90123212D01*
X197680794Y-90285826D01*
X197473826Y-90492794D01*
X197311212Y-90736162D01*
X197199202Y-91006579D01*
X197142100Y-91293652D01*
X183971328Y-91293652D01*
X185137720Y-90550578D01*
X185356623Y-90378782D01*
X185598387Y-90096961D01*
X185780524Y-89773389D01*
X185896036Y-89420501D01*
X185940483Y-89051859D01*
X185912158Y-88681627D01*
X185812149Y-88324037D01*
X185644299Y-87992829D01*
X185415058Y-87700730D01*
X185133237Y-87458966D01*
X184813700Y-87279101D01*
X187492803Y-84600000D01*
X196670174Y-84600000D01*
X196586000Y-84684174D01*
X196298299Y-85114749D01*
X196100127Y-85593178D01*
X195999100Y-86101076D01*
X195999100Y-86618924D01*
X196100127Y-87126822D01*
X196298299Y-87605251D01*
X196586000Y-88035826D01*
X196952174Y-88402000D01*
X197382749Y-88689701D01*
X197861178Y-88887873D01*
X198369076Y-88988900D01*
X198886924Y-88988900D01*
X199394822Y-88887873D01*
X199873251Y-88689701D01*
X200303826Y-88402000D01*
X200670000Y-88035826D01*
X200957701Y-87605251D01*
X201155873Y-87126822D01*
X201256900Y-86618924D01*
X201256900Y-86101076D01*
X201155873Y-85593178D01*
X200957701Y-85114749D01*
X200670000Y-84684174D01*
X200585826Y-84600000D01*
X201393423Y-84600000D01*
X201432085Y-84701913D01*
X201628989Y-85016719D01*
X201883523Y-85287061D01*
X202185908Y-85502552D01*
X202524523Y-85654910D01*
X202886355Y-85738279D01*
X203164495Y-85746656D01*
X203927916Y-85694613D01*
X204202347Y-85648566D01*
X204549517Y-85516863D01*
X204864323Y-85319959D01*
X205134665Y-85065425D01*
X205350156Y-84763040D01*
X205502514Y-84424425D01*
X205585883Y-84062593D01*
X205597061Y-83691450D01*
X205535618Y-83325257D01*
X205403914Y-82978087D01*
X205207011Y-82663281D01*
X204952477Y-82392939D01*
X204650092Y-82177448D01*
X204311477Y-82025090D01*
X203949645Y-81941721D01*
X203671504Y-81933344D01*
X202908084Y-81985387D01*
X202633653Y-82031434D01*
X202286483Y-82163137D01*
X201971677Y-82360041D01*
X201701335Y-82614575D01*
X201485844Y-82916960D01*
X201412485Y-83080000D01*
X187215322Y-83080000D01*
X187177999Y-83076324D01*
X187140676Y-83080000D01*
X187140667Y-83080000D01*
X187029014Y-83090997D01*
X186885753Y-83134454D01*
X186753724Y-83205026D01*
X186753722Y-83205027D01*
X186753723Y-83205027D01*
X186666996Y-83276201D01*
X186666992Y-83276205D01*
X186637999Y-83299999D01*
X186614205Y-83328992D01*
X186504630Y-83438567D01*
X186485618Y-83325257D01*
X186353914Y-82978087D01*
X186157011Y-82663281D01*
X185902477Y-82392939D01*
X185600092Y-82177448D01*
X185261477Y-82025090D01*
X184899645Y-81941721D01*
X184621504Y-81933344D01*
X183858084Y-81985387D01*
X183583653Y-82031434D01*
X183236483Y-82163137D01*
X182921677Y-82360041D01*
X182651335Y-82614575D01*
X182435844Y-82916960D01*
X182362485Y-83080000D01*
X180712469Y-83080000D01*
X180244657Y-82612189D01*
X180281838Y-82596788D01*
X180525206Y-82434174D01*
X180732174Y-82227206D01*
X180894788Y-81983838D01*
X181006798Y-81713421D01*
X181063900Y-81426348D01*
X181063900Y-81133652D01*
X197142100Y-81133652D01*
X197142100Y-81426348D01*
X197199202Y-81713421D01*
X197311212Y-81983838D01*
X197473826Y-82227206D01*
X197680794Y-82434174D01*
X197924162Y-82596788D01*
X198194579Y-82708798D01*
X198481652Y-82765900D01*
X198774348Y-82765900D01*
X199061421Y-82708798D01*
X199331838Y-82596788D01*
X199575206Y-82434174D01*
X199782174Y-82227206D01*
X199944788Y-81983838D01*
X200056798Y-81713421D01*
X200113900Y-81426348D01*
X200113900Y-81133652D01*
X200056798Y-80846579D01*
X199944788Y-80576162D01*
X199782174Y-80332794D01*
X199575206Y-80125826D01*
X199331838Y-79963212D01*
X199061421Y-79851202D01*
X198774348Y-79794100D01*
X198481652Y-79794100D01*
X198194579Y-79851202D01*
X197924162Y-79963212D01*
X197680794Y-80125826D01*
X197473826Y-80332794D01*
X197311212Y-80576162D01*
X197199202Y-80846579D01*
X197142100Y-81133652D01*
X181063900Y-81133652D01*
X181006798Y-80846579D01*
X180894788Y-80576162D01*
X180732174Y-80332794D01*
X180525206Y-80125826D01*
X180281838Y-79963212D01*
X180011421Y-79851202D01*
X179724348Y-79794100D01*
X179431652Y-79794100D01*
X179144579Y-79851202D01*
X178874162Y-79963212D01*
X178630794Y-80125826D01*
X178423826Y-80332794D01*
X178261212Y-80576162D01*
X178245811Y-80613343D01*
X176986471Y-79354004D01*
X176962668Y-79325000D01*
X176846943Y-79230027D01*
X176714914Y-79159455D01*
X176571653Y-79115998D01*
X176460000Y-79105001D01*
X176459989Y-79105001D01*
X176422667Y-79101325D01*
X176385345Y-79105001D01*
X165220509Y-79105001D01*
X165265000Y-78881335D01*
X165265000Y-78598665D01*
X165209853Y-78321426D01*
X165101680Y-78060273D01*
X164944637Y-77825241D01*
X164744759Y-77625363D01*
X164509727Y-77468320D01*
X164248574Y-77360147D01*
X164207617Y-77352000D01*
X189032419Y-77352000D01*
X189065387Y-77348753D01*
X189078367Y-77348753D01*
X189087532Y-77347790D01*
X189281481Y-77326035D01*
X189339966Y-77313603D01*
X189398676Y-77301978D01*
X189407479Y-77299253D01*
X189581309Y-77244110D01*
X189590242Y-77253043D01*
X189758728Y-77365622D01*
X189945939Y-77443167D01*
X190144682Y-77482700D01*
X190347318Y-77482700D01*
X190546061Y-77443167D01*
X190733272Y-77365622D01*
X190881000Y-77266913D01*
X191028728Y-77365622D01*
X191215939Y-77443167D01*
X191414682Y-77482700D01*
X191617318Y-77482700D01*
X191816061Y-77443167D01*
X192003272Y-77365622D01*
X192151000Y-77266913D01*
X192298728Y-77365622D01*
X192485939Y-77443167D01*
X192684682Y-77482700D01*
X192887318Y-77482700D01*
X193086061Y-77443167D01*
X193273272Y-77365622D01*
X193421000Y-77266913D01*
X193568728Y-77365622D01*
X193755939Y-77443167D01*
X193954682Y-77482700D01*
X194157318Y-77482700D01*
X194356061Y-77443167D01*
X194543272Y-77365622D01*
X194691000Y-77266913D01*
X194838728Y-77365622D01*
X195025939Y-77443167D01*
X195224682Y-77482700D01*
X195427318Y-77482700D01*
X195626061Y-77443167D01*
X195813272Y-77365622D01*
X195981758Y-77253043D01*
X196021958Y-77212843D01*
X196044392Y-77222090D01*
G36*
X144935363Y-94894759D02*
G01*
X145135241Y-95094637D01*
X145370273Y-95251680D01*
X145590468Y-95342888D01*
X145562728Y-95354378D01*
X145415000Y-95453087D01*
X145267272Y-95354378D01*
X145080061Y-95276833D01*
X144881318Y-95237300D01*
X144678682Y-95237300D01*
X144479939Y-95276833D01*
X144292728Y-95354378D01*
X144124242Y-95466957D01*
X144108985Y-95482214D01*
X144090634Y-95474348D01*
X144081831Y-95471623D01*
X143894995Y-95415214D01*
X143836307Y-95403594D01*
X143777804Y-95391158D01*
X143773480Y-95390704D01*
X143928574Y-95359853D01*
X144189727Y-95251680D01*
X144424759Y-95094637D01*
X144624637Y-94894759D01*
X144780000Y-94662241D01*
X144935363Y-94894759D01*
X144935363Y-94894759D01*
G37*
X144935363Y-94894759D02*
X145135241Y-95094637D01*
X145370273Y-95251680D01*
X145590468Y-95342888D01*
X145562728Y-95354378D01*
X145415000Y-95453087D01*
X145267272Y-95354378D01*
X145080061Y-95276833D01*
X144881318Y-95237300D01*
X144678682Y-95237300D01*
X144479939Y-95276833D01*
X144292728Y-95354378D01*
X144124242Y-95466957D01*
X144108985Y-95482214D01*
X144090634Y-95474348D01*
X144081831Y-95471623D01*
X143894995Y-95415214D01*
X143836307Y-95403594D01*
X143777804Y-95391158D01*
X143773480Y-95390704D01*
X143928574Y-95359853D01*
X144189727Y-95251680D01*
X144424759Y-95094637D01*
X144624637Y-94894759D01*
X144780000Y-94662241D01*
X144935363Y-94894759D01*
G36*
X150015363Y-94894759D02*
G01*
X150215241Y-95094637D01*
X150450273Y-95251680D01*
X150711426Y-95359853D01*
X150867629Y-95390924D01*
X150840518Y-95393965D01*
X150782019Y-95406400D01*
X150723325Y-95418022D01*
X150714522Y-95420747D01*
X150528544Y-95479743D01*
X150515758Y-95466957D01*
X150347272Y-95354378D01*
X150160061Y-95276833D01*
X149961318Y-95237300D01*
X149758682Y-95237300D01*
X149559939Y-95276833D01*
X149372728Y-95354378D01*
X149225000Y-95453087D01*
X149077272Y-95354378D01*
X149049532Y-95342888D01*
X149269727Y-95251680D01*
X149504759Y-95094637D01*
X149704637Y-94894759D01*
X149860000Y-94662241D01*
X150015363Y-94894759D01*
X150015363Y-94894759D01*
G37*
X150015363Y-94894759D02*
X150215241Y-95094637D01*
X150450273Y-95251680D01*
X150711426Y-95359853D01*
X150867629Y-95390924D01*
X150840518Y-95393965D01*
X150782019Y-95406400D01*
X150723325Y-95418022D01*
X150714522Y-95420747D01*
X150528544Y-95479743D01*
X150515758Y-95466957D01*
X150347272Y-95354378D01*
X150160061Y-95276833D01*
X149961318Y-95237300D01*
X149758682Y-95237300D01*
X149559939Y-95276833D01*
X149372728Y-95354378D01*
X149225000Y-95453087D01*
X149077272Y-95354378D01*
X149049532Y-95342888D01*
X149269727Y-95251680D01*
X149504759Y-95094637D01*
X149704637Y-94894759D01*
X149860000Y-94662241D01*
X150015363Y-94894759D01*
G36*
X147475363Y-94894759D02*
G01*
X147675241Y-95094637D01*
X147910273Y-95251680D01*
X148130468Y-95342888D01*
X148102728Y-95354378D01*
X147955000Y-95453087D01*
X147807272Y-95354378D01*
X147620061Y-95276833D01*
X147421318Y-95237300D01*
X147218682Y-95237300D01*
X147019939Y-95276833D01*
X146832728Y-95354378D01*
X146685000Y-95453087D01*
X146537272Y-95354378D01*
X146509532Y-95342888D01*
X146729727Y-95251680D01*
X146964759Y-95094637D01*
X147164637Y-94894759D01*
X147320000Y-94662241D01*
X147475363Y-94894759D01*
X147475363Y-94894759D01*
G37*
X147475363Y-94894759D02*
X147675241Y-95094637D01*
X147910273Y-95251680D01*
X148130468Y-95342888D01*
X148102728Y-95354378D01*
X147955000Y-95453087D01*
X147807272Y-95354378D01*
X147620061Y-95276833D01*
X147421318Y-95237300D01*
X147218682Y-95237300D01*
X147019939Y-95276833D01*
X146832728Y-95354378D01*
X146685000Y-95453087D01*
X146537272Y-95354378D01*
X146509532Y-95342888D01*
X146729727Y-95251680D01*
X146964759Y-95094637D01*
X147164637Y-94894759D01*
X147320000Y-94662241D01*
X147475363Y-94894759D01*
G36*
X135471426Y-77360147D02*
G01*
X135210273Y-77468320D01*
X134975241Y-77625363D01*
X134775363Y-77825241D01*
X134618320Y-78060273D01*
X134510147Y-78321426D01*
X134455000Y-78598665D01*
X134455000Y-78881335D01*
X134510147Y-79158574D01*
X134618320Y-79419727D01*
X134775363Y-79654759D01*
X134975241Y-79854637D01*
X135210273Y-80011680D01*
X135471426Y-80119853D01*
X135748665Y-80175000D01*
X136031335Y-80175000D01*
X136308574Y-80119853D01*
X136569727Y-80011680D01*
X136804759Y-79854637D01*
X137004637Y-79654759D01*
X137160000Y-79422241D01*
X137315363Y-79654759D01*
X137515241Y-79854637D01*
X137750273Y-80011680D01*
X138011426Y-80119853D01*
X138288665Y-80175000D01*
X138571335Y-80175000D01*
X138848574Y-80119853D01*
X139109727Y-80011680D01*
X139344759Y-79854637D01*
X139544637Y-79654759D01*
X139700000Y-79422241D01*
X139855363Y-79654759D01*
X140055241Y-79854637D01*
X140290273Y-80011680D01*
X140544208Y-80116863D01*
X140530794Y-80125826D01*
X140323826Y-80332794D01*
X140161212Y-80576162D01*
X140049202Y-80846579D01*
X139992100Y-81133652D01*
X139992100Y-81426348D01*
X140049202Y-81713421D01*
X140161212Y-81983838D01*
X140323826Y-82227206D01*
X140530794Y-82434174D01*
X140774162Y-82596788D01*
X141044579Y-82708798D01*
X141331652Y-82765900D01*
X141624348Y-82765900D01*
X141911421Y-82708798D01*
X142181838Y-82596788D01*
X142425206Y-82434174D01*
X142632174Y-82227206D01*
X142794788Y-81983838D01*
X142895616Y-81740418D01*
X143004000Y-81848802D01*
X143004001Y-84217890D01*
X142723251Y-84030299D01*
X142244822Y-83832127D01*
X141736924Y-83731100D01*
X141219076Y-83731100D01*
X140711178Y-83832127D01*
X140232749Y-84030299D01*
X139802174Y-84318000D01*
X139436000Y-84684174D01*
X139148299Y-85114749D01*
X138950127Y-85593178D01*
X138849100Y-86101076D01*
X138849100Y-86618924D01*
X138950127Y-87126822D01*
X139148299Y-87605251D01*
X139436000Y-88035826D01*
X139802174Y-88402000D01*
X140232749Y-88689701D01*
X140711178Y-88887873D01*
X141219076Y-88988900D01*
X141736924Y-88988900D01*
X142244822Y-88887873D01*
X142723251Y-88689701D01*
X143153826Y-88402000D01*
X143520000Y-88035826D01*
X143807701Y-87605251D01*
X144005873Y-87126822D01*
X144106900Y-86618924D01*
X144106900Y-86101076D01*
X144081729Y-85974530D01*
X144470201Y-86363003D01*
X144493999Y-86392001D01*
X144609724Y-86486974D01*
X144741753Y-86557546D01*
X144885014Y-86601003D01*
X144996667Y-86612000D01*
X144996676Y-86612000D01*
X145033999Y-86615676D01*
X145071322Y-86612000D01*
X157566704Y-86612000D01*
X157604026Y-86615676D01*
X157641348Y-86612000D01*
X157641359Y-86612000D01*
X157753012Y-86601003D01*
X157896273Y-86557546D01*
X157899100Y-86556035D01*
X157899100Y-86618924D01*
X158000127Y-87126822D01*
X158198299Y-87605251D01*
X158407873Y-87918901D01*
X148848421Y-87918901D01*
X148811098Y-87915225D01*
X148773775Y-87918901D01*
X148773766Y-87918901D01*
X148662113Y-87929898D01*
X148537320Y-87967753D01*
X148518852Y-87973355D01*
X148386822Y-88043927D01*
X148352991Y-88071692D01*
X148271098Y-88138900D01*
X148247300Y-88167898D01*
X147794983Y-88620215D01*
X147712149Y-88324037D01*
X147544299Y-87992829D01*
X147315058Y-87700730D01*
X147033237Y-87458966D01*
X146709664Y-87276829D01*
X146356777Y-87161317D01*
X145988134Y-87116869D01*
X145617903Y-87145195D01*
X145260312Y-87245204D01*
X145012100Y-87370994D01*
X142958280Y-88679422D01*
X142739377Y-88851218D01*
X142497613Y-89133040D01*
X142315475Y-89456613D01*
X142199964Y-89809500D01*
X142163076Y-90115441D01*
X141911421Y-90011202D01*
X141624348Y-89954100D01*
X141331652Y-89954100D01*
X141044579Y-90011202D01*
X140774162Y-90123212D01*
X140530794Y-90285826D01*
X140323826Y-90492794D01*
X140161212Y-90736162D01*
X140049202Y-91006579D01*
X139992100Y-91293652D01*
X139992100Y-91586348D01*
X140049202Y-91873421D01*
X140161212Y-92143838D01*
X140323826Y-92387206D01*
X140530794Y-92594174D01*
X140544208Y-92603137D01*
X140290273Y-92708320D01*
X140055241Y-92865363D01*
X139855363Y-93065241D01*
X139700000Y-93297759D01*
X139544637Y-93065241D01*
X139344759Y-92865363D01*
X139109727Y-92708320D01*
X138848574Y-92600147D01*
X138571335Y-92545000D01*
X138288665Y-92545000D01*
X138011426Y-92600147D01*
X137750273Y-92708320D01*
X137515241Y-92865363D01*
X137316643Y-93063961D01*
X137315812Y-93055518D01*
X137279502Y-92935820D01*
X137220537Y-92825506D01*
X137141185Y-92728815D01*
X137044494Y-92649463D01*
X136934180Y-92590498D01*
X136814482Y-92554188D01*
X136690000Y-92541928D01*
X135090000Y-92541928D01*
X134965518Y-92554188D01*
X134845820Y-92590498D01*
X134735506Y-92649463D01*
X134638815Y-92728815D01*
X134559463Y-92825506D01*
X134500498Y-92935820D01*
X134464188Y-93055518D01*
X134451928Y-93180000D01*
X134451928Y-94780000D01*
X134464188Y-94904482D01*
X134500498Y-95024180D01*
X134559463Y-95134494D01*
X134638815Y-95231185D01*
X134735506Y-95310537D01*
X134843010Y-95368000D01*
X132486000Y-95368000D01*
X132486000Y-77352000D01*
X135512383Y-77352000D01*
X135471426Y-77360147D01*
X135471426Y-77360147D01*
G37*
X135471426Y-77360147D02*
X135210273Y-77468320D01*
X134975241Y-77625363D01*
X134775363Y-77825241D01*
X134618320Y-78060273D01*
X134510147Y-78321426D01*
X134455000Y-78598665D01*
X134455000Y-78881335D01*
X134510147Y-79158574D01*
X134618320Y-79419727D01*
X134775363Y-79654759D01*
X134975241Y-79854637D01*
X135210273Y-80011680D01*
X135471426Y-80119853D01*
X135748665Y-80175000D01*
X136031335Y-80175000D01*
X136308574Y-80119853D01*
X136569727Y-80011680D01*
X136804759Y-79854637D01*
X137004637Y-79654759D01*
X137160000Y-79422241D01*
X137315363Y-79654759D01*
X137515241Y-79854637D01*
X137750273Y-80011680D01*
X138011426Y-80119853D01*
X138288665Y-80175000D01*
X138571335Y-80175000D01*
X138848574Y-80119853D01*
X139109727Y-80011680D01*
X139344759Y-79854637D01*
X139544637Y-79654759D01*
X139700000Y-79422241D01*
X139855363Y-79654759D01*
X140055241Y-79854637D01*
X140290273Y-80011680D01*
X140544208Y-80116863D01*
X140530794Y-80125826D01*
X140323826Y-80332794D01*
X140161212Y-80576162D01*
X140049202Y-80846579D01*
X139992100Y-81133652D01*
X139992100Y-81426348D01*
X140049202Y-81713421D01*
X140161212Y-81983838D01*
X140323826Y-82227206D01*
X140530794Y-82434174D01*
X140774162Y-82596788D01*
X141044579Y-82708798D01*
X141331652Y-82765900D01*
X141624348Y-82765900D01*
X141911421Y-82708798D01*
X142181838Y-82596788D01*
X142425206Y-82434174D01*
X142632174Y-82227206D01*
X142794788Y-81983838D01*
X142895616Y-81740418D01*
X143004000Y-81848802D01*
X143004001Y-84217890D01*
X142723251Y-84030299D01*
X142244822Y-83832127D01*
X141736924Y-83731100D01*
X141219076Y-83731100D01*
X140711178Y-83832127D01*
X140232749Y-84030299D01*
X139802174Y-84318000D01*
X139436000Y-84684174D01*
X139148299Y-85114749D01*
X138950127Y-85593178D01*
X138849100Y-86101076D01*
X138849100Y-86618924D01*
X138950127Y-87126822D01*
X139148299Y-87605251D01*
X139436000Y-88035826D01*
X139802174Y-88402000D01*
X140232749Y-88689701D01*
X140711178Y-88887873D01*
X141219076Y-88988900D01*
X141736924Y-88988900D01*
X142244822Y-88887873D01*
X142723251Y-88689701D01*
X143153826Y-88402000D01*
X143520000Y-88035826D01*
X143807701Y-87605251D01*
X144005873Y-87126822D01*
X144106900Y-86618924D01*
X144106900Y-86101076D01*
X144081729Y-85974530D01*
X144470201Y-86363003D01*
X144493999Y-86392001D01*
X144609724Y-86486974D01*
X144741753Y-86557546D01*
X144885014Y-86601003D01*
X144996667Y-86612000D01*
X144996676Y-86612000D01*
X145033999Y-86615676D01*
X145071322Y-86612000D01*
X157566704Y-86612000D01*
X157604026Y-86615676D01*
X157641348Y-86612000D01*
X157641359Y-86612000D01*
X157753012Y-86601003D01*
X157896273Y-86557546D01*
X157899100Y-86556035D01*
X157899100Y-86618924D01*
X158000127Y-87126822D01*
X158198299Y-87605251D01*
X158407873Y-87918901D01*
X148848421Y-87918901D01*
X148811098Y-87915225D01*
X148773775Y-87918901D01*
X148773766Y-87918901D01*
X148662113Y-87929898D01*
X148537320Y-87967753D01*
X148518852Y-87973355D01*
X148386822Y-88043927D01*
X148352991Y-88071692D01*
X148271098Y-88138900D01*
X148247300Y-88167898D01*
X147794983Y-88620215D01*
X147712149Y-88324037D01*
X147544299Y-87992829D01*
X147315058Y-87700730D01*
X147033237Y-87458966D01*
X146709664Y-87276829D01*
X146356777Y-87161317D01*
X145988134Y-87116869D01*
X145617903Y-87145195D01*
X145260312Y-87245204D01*
X145012100Y-87370994D01*
X142958280Y-88679422D01*
X142739377Y-88851218D01*
X142497613Y-89133040D01*
X142315475Y-89456613D01*
X142199964Y-89809500D01*
X142163076Y-90115441D01*
X141911421Y-90011202D01*
X141624348Y-89954100D01*
X141331652Y-89954100D01*
X141044579Y-90011202D01*
X140774162Y-90123212D01*
X140530794Y-90285826D01*
X140323826Y-90492794D01*
X140161212Y-90736162D01*
X140049202Y-91006579D01*
X139992100Y-91293652D01*
X139992100Y-91586348D01*
X140049202Y-91873421D01*
X140161212Y-92143838D01*
X140323826Y-92387206D01*
X140530794Y-92594174D01*
X140544208Y-92603137D01*
X140290273Y-92708320D01*
X140055241Y-92865363D01*
X139855363Y-93065241D01*
X139700000Y-93297759D01*
X139544637Y-93065241D01*
X139344759Y-92865363D01*
X139109727Y-92708320D01*
X138848574Y-92600147D01*
X138571335Y-92545000D01*
X138288665Y-92545000D01*
X138011426Y-92600147D01*
X137750273Y-92708320D01*
X137515241Y-92865363D01*
X137316643Y-93063961D01*
X137315812Y-93055518D01*
X137279502Y-92935820D01*
X137220537Y-92825506D01*
X137141185Y-92728815D01*
X137044494Y-92649463D01*
X136934180Y-92590498D01*
X136814482Y-92554188D01*
X136690000Y-92541928D01*
X135090000Y-92541928D01*
X134965518Y-92554188D01*
X134845820Y-92590498D01*
X134735506Y-92649463D01*
X134638815Y-92728815D01*
X134559463Y-92825506D01*
X134500498Y-92935820D01*
X134464188Y-93055518D01*
X134451928Y-93180000D01*
X134451928Y-94780000D01*
X134464188Y-94904482D01*
X134500498Y-95024180D01*
X134559463Y-95134494D01*
X134638815Y-95231185D01*
X134735506Y-95310537D01*
X134843010Y-95368000D01*
X132486000Y-95368000D01*
X132486000Y-77352000D01*
X135512383Y-77352000D01*
X135471426Y-77360147D01*
G36*
X155095363Y-94894759D02*
G01*
X155295241Y-95094637D01*
X155530273Y-95251680D01*
X155791426Y-95359853D01*
X155832383Y-95368000D01*
X154047617Y-95368000D01*
X154088574Y-95359853D01*
X154349727Y-95251680D01*
X154584759Y-95094637D01*
X154784637Y-94894759D01*
X154940000Y-94662241D01*
X155095363Y-94894759D01*
X155095363Y-94894759D01*
G37*
X155095363Y-94894759D02*
X155295241Y-95094637D01*
X155530273Y-95251680D01*
X155791426Y-95359853D01*
X155832383Y-95368000D01*
X154047617Y-95368000D01*
X154088574Y-95359853D01*
X154349727Y-95251680D01*
X154584759Y-95094637D01*
X154784637Y-94894759D01*
X154940000Y-94662241D01*
X155095363Y-94894759D01*
G36*
X157635363Y-94894759D02*
G01*
X157835241Y-95094637D01*
X158070273Y-95251680D01*
X158331426Y-95359853D01*
X158372383Y-95368000D01*
X156587617Y-95368000D01*
X156628574Y-95359853D01*
X156889727Y-95251680D01*
X157124759Y-95094637D01*
X157324637Y-94894759D01*
X157480000Y-94662241D01*
X157635363Y-94894759D01*
X157635363Y-94894759D01*
G37*
X157635363Y-94894759D02*
X157835241Y-95094637D01*
X158070273Y-95251680D01*
X158331426Y-95359853D01*
X158372383Y-95368000D01*
X156587617Y-95368000D01*
X156628574Y-95359853D01*
X156889727Y-95251680D01*
X157124759Y-95094637D01*
X157324637Y-94894759D01*
X157480000Y-94662241D01*
X157635363Y-94894759D01*
G36*
X160175363Y-94894759D02*
G01*
X160375241Y-95094637D01*
X160610273Y-95251680D01*
X160871426Y-95359853D01*
X160912383Y-95368000D01*
X159127617Y-95368000D01*
X159168574Y-95359853D01*
X159429727Y-95251680D01*
X159664759Y-95094637D01*
X159864637Y-94894759D01*
X160020000Y-94662241D01*
X160175363Y-94894759D01*
X160175363Y-94894759D01*
G37*
X160175363Y-94894759D02*
X160375241Y-95094637D01*
X160610273Y-95251680D01*
X160871426Y-95359853D01*
X160912383Y-95368000D01*
X159127617Y-95368000D01*
X159168574Y-95359853D01*
X159429727Y-95251680D01*
X159664759Y-95094637D01*
X159864637Y-94894759D01*
X160020000Y-94662241D01*
X160175363Y-94894759D01*
G36*
X162715363Y-94894759D02*
G01*
X162915241Y-95094637D01*
X163150273Y-95251680D01*
X163411426Y-95359853D01*
X163452383Y-95368000D01*
X161667617Y-95368000D01*
X161708574Y-95359853D01*
X161969727Y-95251680D01*
X162204759Y-95094637D01*
X162404637Y-94894759D01*
X162560000Y-94662241D01*
X162715363Y-94894759D01*
X162715363Y-94894759D01*
G37*
X162715363Y-94894759D02*
X162915241Y-95094637D01*
X163150273Y-95251680D01*
X163411426Y-95359853D01*
X163452383Y-95368000D01*
X161667617Y-95368000D01*
X161708574Y-95359853D01*
X161969727Y-95251680D01*
X162204759Y-95094637D01*
X162404637Y-94894759D01*
X162560000Y-94662241D01*
X162715363Y-94894759D01*
G36*
X142395363Y-94894759D02*
G01*
X142595241Y-95094637D01*
X142830273Y-95251680D01*
X143091426Y-95359853D01*
X143132383Y-95368000D01*
X141347617Y-95368000D01*
X141388574Y-95359853D01*
X141649727Y-95251680D01*
X141884759Y-95094637D01*
X142084637Y-94894759D01*
X142240000Y-94662241D01*
X142395363Y-94894759D01*
X142395363Y-94894759D01*
G37*
X142395363Y-94894759D02*
X142595241Y-95094637D01*
X142830273Y-95251680D01*
X143091426Y-95359853D01*
X143132383Y-95368000D01*
X141347617Y-95368000D01*
X141388574Y-95359853D01*
X141649727Y-95251680D01*
X141884759Y-95094637D01*
X142084637Y-94894759D01*
X142240000Y-94662241D01*
X142395363Y-94894759D01*
G36*
X152555363Y-94894759D02*
G01*
X152755241Y-95094637D01*
X152990273Y-95251680D01*
X153251426Y-95359853D01*
X153292383Y-95368000D01*
X151507617Y-95368000D01*
X151548574Y-95359853D01*
X151809727Y-95251680D01*
X152044759Y-95094637D01*
X152244637Y-94894759D01*
X152400000Y-94662241D01*
X152555363Y-94894759D01*
X152555363Y-94894759D01*
G37*
X152555363Y-94894759D02*
X152755241Y-95094637D01*
X152990273Y-95251680D01*
X153251426Y-95359853D01*
X153292383Y-95368000D01*
X151507617Y-95368000D01*
X151548574Y-95359853D01*
X151809727Y-95251680D01*
X152044759Y-95094637D01*
X152244637Y-94894759D01*
X152400000Y-94662241D01*
X152555363Y-94894759D01*
G36*
X137515241Y-95094637D02*
G01*
X137750273Y-95251680D01*
X138011426Y-95359853D01*
X138052383Y-95368000D01*
X136936990Y-95368000D01*
X137044494Y-95310537D01*
X137141185Y-95231185D01*
X137220537Y-95134494D01*
X137279502Y-95024180D01*
X137315812Y-94904482D01*
X137316643Y-94896039D01*
X137515241Y-95094637D01*
X137515241Y-95094637D01*
G37*
X137515241Y-95094637D02*
X137750273Y-95251680D01*
X138011426Y-95359853D01*
X138052383Y-95368000D01*
X136936990Y-95368000D01*
X137044494Y-95310537D01*
X137141185Y-95231185D01*
X137220537Y-95134494D01*
X137279502Y-95024180D01*
X137315812Y-94904482D01*
X137316643Y-94896039D01*
X137515241Y-95094637D01*
G36*
X139855363Y-94894759D02*
G01*
X140055241Y-95094637D01*
X140290273Y-95251680D01*
X140551426Y-95359853D01*
X140592383Y-95368000D01*
X138807617Y-95368000D01*
X138848574Y-95359853D01*
X139109727Y-95251680D01*
X139344759Y-95094637D01*
X139544637Y-94894759D01*
X139700000Y-94662241D01*
X139855363Y-94894759D01*
X139855363Y-94894759D01*
G37*
X139855363Y-94894759D02*
X140055241Y-95094637D01*
X140290273Y-95251680D01*
X140551426Y-95359853D01*
X140592383Y-95368000D01*
X138807617Y-95368000D01*
X138848574Y-95359853D01*
X139109727Y-95251680D01*
X139344759Y-95094637D01*
X139544637Y-94894759D01*
X139700000Y-94662241D01*
X139855363Y-94894759D01*
G36*
X161365475Y-89456613D02*
G01*
X161249964Y-89809500D01*
X161213076Y-90115441D01*
X160961421Y-90011202D01*
X160674348Y-89954100D01*
X160381652Y-89954100D01*
X160094579Y-90011202D01*
X159824162Y-90123212D01*
X159580794Y-90285826D01*
X159373826Y-90492794D01*
X159211212Y-90736162D01*
X159099202Y-91006579D01*
X159042100Y-91293652D01*
X159042100Y-91586348D01*
X159099202Y-91873421D01*
X159211212Y-92143838D01*
X159373826Y-92387206D01*
X159580794Y-92594174D01*
X159824162Y-92756788D01*
X160094579Y-92868798D01*
X160325811Y-92914793D01*
X160175363Y-93065241D01*
X160020000Y-93297759D01*
X159864637Y-93065241D01*
X159664759Y-92865363D01*
X159429727Y-92708320D01*
X159168574Y-92600147D01*
X158891335Y-92545000D01*
X158608665Y-92545000D01*
X158331426Y-92600147D01*
X158070273Y-92708320D01*
X157835241Y-92865363D01*
X157635363Y-93065241D01*
X157480000Y-93297759D01*
X157324637Y-93065241D01*
X157124759Y-92865363D01*
X156889727Y-92708320D01*
X156628574Y-92600147D01*
X156351335Y-92545000D01*
X156068665Y-92545000D01*
X155791426Y-92600147D01*
X155530273Y-92708320D01*
X155295241Y-92865363D01*
X155095363Y-93065241D01*
X154940000Y-93297759D01*
X154784637Y-93065241D01*
X154584759Y-92865363D01*
X154349727Y-92708320D01*
X154088574Y-92600147D01*
X153811335Y-92545000D01*
X153528665Y-92545000D01*
X153251426Y-92600147D01*
X152990273Y-92708320D01*
X152755241Y-92865363D01*
X152555363Y-93065241D01*
X152400000Y-93297759D01*
X152244637Y-93065241D01*
X152044759Y-92865363D01*
X151809727Y-92708320D01*
X151548574Y-92600147D01*
X151271335Y-92545000D01*
X150988665Y-92545000D01*
X150711426Y-92600147D01*
X150450273Y-92708320D01*
X150215241Y-92865363D01*
X150015363Y-93065241D01*
X149860000Y-93297759D01*
X149704637Y-93065241D01*
X149504759Y-92865363D01*
X149269727Y-92708320D01*
X149008574Y-92600147D01*
X148731335Y-92545000D01*
X148448665Y-92545000D01*
X148171426Y-92600147D01*
X147910273Y-92708320D01*
X147675241Y-92865363D01*
X147475363Y-93065241D01*
X147320000Y-93297759D01*
X147164637Y-93065241D01*
X146964759Y-92865363D01*
X146729727Y-92708320D01*
X146468574Y-92600147D01*
X146191335Y-92545000D01*
X146019801Y-92545000D01*
X149125901Y-89438901D01*
X161375445Y-89438901D01*
X161365475Y-89456613D01*
X161365475Y-89456613D01*
G37*
X161365475Y-89456613D02*
X161249964Y-89809500D01*
X161213076Y-90115441D01*
X160961421Y-90011202D01*
X160674348Y-89954100D01*
X160381652Y-89954100D01*
X160094579Y-90011202D01*
X159824162Y-90123212D01*
X159580794Y-90285826D01*
X159373826Y-90492794D01*
X159211212Y-90736162D01*
X159099202Y-91006579D01*
X159042100Y-91293652D01*
X159042100Y-91586348D01*
X159099202Y-91873421D01*
X159211212Y-92143838D01*
X159373826Y-92387206D01*
X159580794Y-92594174D01*
X159824162Y-92756788D01*
X160094579Y-92868798D01*
X160325811Y-92914793D01*
X160175363Y-93065241D01*
X160020000Y-93297759D01*
X159864637Y-93065241D01*
X159664759Y-92865363D01*
X159429727Y-92708320D01*
X159168574Y-92600147D01*
X158891335Y-92545000D01*
X158608665Y-92545000D01*
X158331426Y-92600147D01*
X158070273Y-92708320D01*
X157835241Y-92865363D01*
X157635363Y-93065241D01*
X157480000Y-93297759D01*
X157324637Y-93065241D01*
X157124759Y-92865363D01*
X156889727Y-92708320D01*
X156628574Y-92600147D01*
X156351335Y-92545000D01*
X156068665Y-92545000D01*
X155791426Y-92600147D01*
X155530273Y-92708320D01*
X155295241Y-92865363D01*
X155095363Y-93065241D01*
X154940000Y-93297759D01*
X154784637Y-93065241D01*
X154584759Y-92865363D01*
X154349727Y-92708320D01*
X154088574Y-92600147D01*
X153811335Y-92545000D01*
X153528665Y-92545000D01*
X153251426Y-92600147D01*
X152990273Y-92708320D01*
X152755241Y-92865363D01*
X152555363Y-93065241D01*
X152400000Y-93297759D01*
X152244637Y-93065241D01*
X152044759Y-92865363D01*
X151809727Y-92708320D01*
X151548574Y-92600147D01*
X151271335Y-92545000D01*
X150988665Y-92545000D01*
X150711426Y-92600147D01*
X150450273Y-92708320D01*
X150215241Y-92865363D01*
X150015363Y-93065241D01*
X149860000Y-93297759D01*
X149704637Y-93065241D01*
X149504759Y-92865363D01*
X149269727Y-92708320D01*
X149008574Y-92600147D01*
X148731335Y-92545000D01*
X148448665Y-92545000D01*
X148171426Y-92600147D01*
X147910273Y-92708320D01*
X147675241Y-92865363D01*
X147475363Y-93065241D01*
X147320000Y-93297759D01*
X147164637Y-93065241D01*
X146964759Y-92865363D01*
X146729727Y-92708320D01*
X146468574Y-92600147D01*
X146191335Y-92545000D01*
X146019801Y-92545000D01*
X149125901Y-89438901D01*
X161375445Y-89438901D01*
X161365475Y-89456613D01*
G36*
X142962763Y-91771034D02*
G01*
X143286336Y-91953172D01*
X143639223Y-92068683D01*
X144007865Y-92113131D01*
X144326441Y-92088758D01*
X143833887Y-92581312D01*
X143651335Y-92545000D01*
X143368665Y-92545000D01*
X143091426Y-92600147D01*
X142830273Y-92708320D01*
X142595241Y-92865363D01*
X142395363Y-93065241D01*
X142240000Y-93297759D01*
X142084637Y-93065241D01*
X141892048Y-92872652D01*
X141911421Y-92868798D01*
X142181838Y-92756788D01*
X142425206Y-92594174D01*
X142632174Y-92387206D01*
X142794788Y-92143838D01*
X142906798Y-91873421D01*
X142932353Y-91744946D01*
X142962763Y-91771034D01*
X142962763Y-91771034D01*
G37*
X142962763Y-91771034D02*
X143286336Y-91953172D01*
X143639223Y-92068683D01*
X144007865Y-92113131D01*
X144326441Y-92088758D01*
X143833887Y-92581312D01*
X143651335Y-92545000D01*
X143368665Y-92545000D01*
X143091426Y-92600147D01*
X142830273Y-92708320D01*
X142595241Y-92865363D01*
X142395363Y-93065241D01*
X142240000Y-93297759D01*
X142084637Y-93065241D01*
X141892048Y-92872652D01*
X141911421Y-92868798D01*
X142181838Y-92756788D01*
X142425206Y-92594174D01*
X142632174Y-92387206D01*
X142794788Y-92143838D01*
X142906798Y-91873421D01*
X142932353Y-91744946D01*
X142962763Y-91771034D01*
G36*
X162012763Y-91771034D02*
G01*
X162336336Y-91953172D01*
X162689223Y-92068683D01*
X162907482Y-92094999D01*
X162452323Y-92094999D01*
X162415000Y-92091323D01*
X162377677Y-92094999D01*
X162377668Y-92094999D01*
X162266015Y-92105996D01*
X162122754Y-92149453D01*
X161990725Y-92220025D01*
X161875000Y-92314998D01*
X161851197Y-92344002D01*
X161613887Y-92581312D01*
X161508943Y-92560437D01*
X161682174Y-92387206D01*
X161844788Y-92143838D01*
X161956798Y-91873421D01*
X161982353Y-91744946D01*
X162012763Y-91771034D01*
X162012763Y-91771034D01*
G37*
X162012763Y-91771034D02*
X162336336Y-91953172D01*
X162689223Y-92068683D01*
X162907482Y-92094999D01*
X162452323Y-92094999D01*
X162415000Y-92091323D01*
X162377677Y-92094999D01*
X162377668Y-92094999D01*
X162266015Y-92105996D01*
X162122754Y-92149453D01*
X161990725Y-92220025D01*
X161875000Y-92314998D01*
X161851197Y-92344002D01*
X161613887Y-92581312D01*
X161508943Y-92560437D01*
X161682174Y-92387206D01*
X161844788Y-92143838D01*
X161956798Y-91873421D01*
X161982353Y-91744946D01*
X162012763Y-91771034D01*
G36*
X179231403Y-83748539D02*
G01*
X178811178Y-83832127D01*
X178332749Y-84030299D01*
X177902174Y-84318000D01*
X177536000Y-84684174D01*
X177248299Y-85114749D01*
X177050127Y-85593178D01*
X176949100Y-86101076D01*
X176949100Y-86618924D01*
X177050127Y-87126822D01*
X177248299Y-87605251D01*
X177536000Y-88035826D01*
X177902174Y-88402000D01*
X178332749Y-88689701D01*
X178811178Y-88887873D01*
X179278073Y-88980744D01*
X176163819Y-92094999D01*
X163294865Y-92094999D01*
X163428096Y-92084806D01*
X163785686Y-91984796D01*
X164033899Y-91859007D01*
X166087720Y-90550578D01*
X166306623Y-90378782D01*
X166548387Y-90096961D01*
X166730524Y-89773389D01*
X166846036Y-89420501D01*
X166890483Y-89051859D01*
X166862158Y-88681627D01*
X166762149Y-88324037D01*
X166594299Y-87992829D01*
X166365058Y-87700730D01*
X166280278Y-87628000D01*
X166509199Y-87628000D01*
X167652201Y-88771003D01*
X167675999Y-88800001D01*
X167791724Y-88894974D01*
X167853366Y-88927923D01*
X167876498Y-89004180D01*
X167935463Y-89114494D01*
X168014815Y-89211185D01*
X168111506Y-89290537D01*
X168221820Y-89349502D01*
X168341518Y-89385812D01*
X168466000Y-89398072D01*
X170166000Y-89398072D01*
X170290482Y-89385812D01*
X170410180Y-89349502D01*
X170520494Y-89290537D01*
X170617185Y-89211185D01*
X170696537Y-89114494D01*
X170747046Y-89020000D01*
X174184954Y-89020000D01*
X174235463Y-89114494D01*
X174314815Y-89211185D01*
X174411506Y-89290537D01*
X174521820Y-89349502D01*
X174641518Y-89385812D01*
X174766000Y-89398072D01*
X176466000Y-89398072D01*
X176590482Y-89385812D01*
X176710180Y-89349502D01*
X176820494Y-89290537D01*
X176917185Y-89211185D01*
X176996537Y-89114494D01*
X177055502Y-89004180D01*
X177091812Y-88884482D01*
X177104072Y-88760000D01*
X177104072Y-87760000D01*
X177091812Y-87635518D01*
X177055502Y-87515820D01*
X176996537Y-87405506D01*
X176917185Y-87308815D01*
X176820494Y-87229463D01*
X176710180Y-87170498D01*
X176590482Y-87134188D01*
X176466000Y-87121928D01*
X174766000Y-87121928D01*
X174641518Y-87134188D01*
X174521820Y-87170498D01*
X174411506Y-87229463D01*
X174314815Y-87308815D01*
X174235463Y-87405506D01*
X174184954Y-87500000D01*
X170747046Y-87500000D01*
X170696537Y-87405506D01*
X170617185Y-87308815D01*
X170520494Y-87229463D01*
X170410180Y-87170498D01*
X170290482Y-87134188D01*
X170166000Y-87121928D01*
X168466000Y-87121928D01*
X168341518Y-87134188D01*
X168221820Y-87170498D01*
X168208447Y-87177646D01*
X167420165Y-86389364D01*
X167446581Y-86357176D01*
X168222674Y-85549761D01*
X168341518Y-85585812D01*
X168466000Y-85598072D01*
X170166000Y-85598072D01*
X170290482Y-85585812D01*
X170410180Y-85549502D01*
X170520494Y-85490537D01*
X170617185Y-85411185D01*
X170696537Y-85314494D01*
X170747046Y-85220000D01*
X174184954Y-85220000D01*
X174235463Y-85314494D01*
X174314815Y-85411185D01*
X174411506Y-85490537D01*
X174521820Y-85549502D01*
X174641518Y-85585812D01*
X174766000Y-85598072D01*
X176466000Y-85598072D01*
X176590482Y-85585812D01*
X176710180Y-85549502D01*
X176820494Y-85490537D01*
X176917185Y-85411185D01*
X176996537Y-85314494D01*
X177055502Y-85204180D01*
X177091812Y-85084482D01*
X177104072Y-84960000D01*
X177104072Y-83960000D01*
X177091812Y-83835518D01*
X177055502Y-83715820D01*
X176996537Y-83605506D01*
X176917185Y-83508815D01*
X176820494Y-83429463D01*
X176710180Y-83370498D01*
X176590482Y-83334188D01*
X176466000Y-83321928D01*
X174766000Y-83321928D01*
X174641518Y-83334188D01*
X174521820Y-83370498D01*
X174411506Y-83429463D01*
X174314815Y-83508815D01*
X174235463Y-83605506D01*
X174184954Y-83700000D01*
X170747046Y-83700000D01*
X170696537Y-83605506D01*
X170617185Y-83508815D01*
X170520494Y-83429463D01*
X170410180Y-83370498D01*
X170290482Y-83334188D01*
X170166000Y-83321928D01*
X168466000Y-83321928D01*
X168341518Y-83334188D01*
X168221820Y-83370498D01*
X168111506Y-83429463D01*
X168014815Y-83508815D01*
X167935463Y-83605506D01*
X167876498Y-83715820D01*
X167853387Y-83792008D01*
X167851113Y-83793281D01*
X167791724Y-83825026D01*
X167785864Y-83829835D01*
X167779249Y-83833541D01*
X167728048Y-83877283D01*
X167675999Y-83919999D01*
X167647425Y-83954817D01*
X167467613Y-84141885D01*
X167485883Y-84062593D01*
X167497061Y-83691450D01*
X167435618Y-83325257D01*
X167303914Y-82978087D01*
X167107011Y-82663281D01*
X166852477Y-82392939D01*
X166550092Y-82177448D01*
X166211477Y-82025090D01*
X165849645Y-81941721D01*
X165571504Y-81933344D01*
X164808084Y-81985387D01*
X164576968Y-82024166D01*
X163177802Y-80625001D01*
X176107866Y-80625001D01*
X179231403Y-83748539D01*
X179231403Y-83748539D01*
G37*
X179231403Y-83748539D02*
X178811178Y-83832127D01*
X178332749Y-84030299D01*
X177902174Y-84318000D01*
X177536000Y-84684174D01*
X177248299Y-85114749D01*
X177050127Y-85593178D01*
X176949100Y-86101076D01*
X176949100Y-86618924D01*
X177050127Y-87126822D01*
X177248299Y-87605251D01*
X177536000Y-88035826D01*
X177902174Y-88402000D01*
X178332749Y-88689701D01*
X178811178Y-88887873D01*
X179278073Y-88980744D01*
X176163819Y-92094999D01*
X163294865Y-92094999D01*
X163428096Y-92084806D01*
X163785686Y-91984796D01*
X164033899Y-91859007D01*
X166087720Y-90550578D01*
X166306623Y-90378782D01*
X166548387Y-90096961D01*
X166730524Y-89773389D01*
X166846036Y-89420501D01*
X166890483Y-89051859D01*
X166862158Y-88681627D01*
X166762149Y-88324037D01*
X166594299Y-87992829D01*
X166365058Y-87700730D01*
X166280278Y-87628000D01*
X166509199Y-87628000D01*
X167652201Y-88771003D01*
X167675999Y-88800001D01*
X167791724Y-88894974D01*
X167853366Y-88927923D01*
X167876498Y-89004180D01*
X167935463Y-89114494D01*
X168014815Y-89211185D01*
X168111506Y-89290537D01*
X168221820Y-89349502D01*
X168341518Y-89385812D01*
X168466000Y-89398072D01*
X170166000Y-89398072D01*
X170290482Y-89385812D01*
X170410180Y-89349502D01*
X170520494Y-89290537D01*
X170617185Y-89211185D01*
X170696537Y-89114494D01*
X170747046Y-89020000D01*
X174184954Y-89020000D01*
X174235463Y-89114494D01*
X174314815Y-89211185D01*
X174411506Y-89290537D01*
X174521820Y-89349502D01*
X174641518Y-89385812D01*
X174766000Y-89398072D01*
X176466000Y-89398072D01*
X176590482Y-89385812D01*
X176710180Y-89349502D01*
X176820494Y-89290537D01*
X176917185Y-89211185D01*
X176996537Y-89114494D01*
X177055502Y-89004180D01*
X177091812Y-88884482D01*
X177104072Y-88760000D01*
X177104072Y-87760000D01*
X177091812Y-87635518D01*
X177055502Y-87515820D01*
X176996537Y-87405506D01*
X176917185Y-87308815D01*
X176820494Y-87229463D01*
X176710180Y-87170498D01*
X176590482Y-87134188D01*
X176466000Y-87121928D01*
X174766000Y-87121928D01*
X174641518Y-87134188D01*
X174521820Y-87170498D01*
X174411506Y-87229463D01*
X174314815Y-87308815D01*
X174235463Y-87405506D01*
X174184954Y-87500000D01*
X170747046Y-87500000D01*
X170696537Y-87405506D01*
X170617185Y-87308815D01*
X170520494Y-87229463D01*
X170410180Y-87170498D01*
X170290482Y-87134188D01*
X170166000Y-87121928D01*
X168466000Y-87121928D01*
X168341518Y-87134188D01*
X168221820Y-87170498D01*
X168208447Y-87177646D01*
X167420165Y-86389364D01*
X167446581Y-86357176D01*
X168222674Y-85549761D01*
X168341518Y-85585812D01*
X168466000Y-85598072D01*
X170166000Y-85598072D01*
X170290482Y-85585812D01*
X170410180Y-85549502D01*
X170520494Y-85490537D01*
X170617185Y-85411185D01*
X170696537Y-85314494D01*
X170747046Y-85220000D01*
X174184954Y-85220000D01*
X174235463Y-85314494D01*
X174314815Y-85411185D01*
X174411506Y-85490537D01*
X174521820Y-85549502D01*
X174641518Y-85585812D01*
X174766000Y-85598072D01*
X176466000Y-85598072D01*
X176590482Y-85585812D01*
X176710180Y-85549502D01*
X176820494Y-85490537D01*
X176917185Y-85411185D01*
X176996537Y-85314494D01*
X177055502Y-85204180D01*
X177091812Y-85084482D01*
X177104072Y-84960000D01*
X177104072Y-83960000D01*
X177091812Y-83835518D01*
X177055502Y-83715820D01*
X176996537Y-83605506D01*
X176917185Y-83508815D01*
X176820494Y-83429463D01*
X176710180Y-83370498D01*
X176590482Y-83334188D01*
X176466000Y-83321928D01*
X174766000Y-83321928D01*
X174641518Y-83334188D01*
X174521820Y-83370498D01*
X174411506Y-83429463D01*
X174314815Y-83508815D01*
X174235463Y-83605506D01*
X174184954Y-83700000D01*
X170747046Y-83700000D01*
X170696537Y-83605506D01*
X170617185Y-83508815D01*
X170520494Y-83429463D01*
X170410180Y-83370498D01*
X170290482Y-83334188D01*
X170166000Y-83321928D01*
X168466000Y-83321928D01*
X168341518Y-83334188D01*
X168221820Y-83370498D01*
X168111506Y-83429463D01*
X168014815Y-83508815D01*
X167935463Y-83605506D01*
X167876498Y-83715820D01*
X167853387Y-83792008D01*
X167851113Y-83793281D01*
X167791724Y-83825026D01*
X167785864Y-83829835D01*
X167779249Y-83833541D01*
X167728048Y-83877283D01*
X167675999Y-83919999D01*
X167647425Y-83954817D01*
X167467613Y-84141885D01*
X167485883Y-84062593D01*
X167497061Y-83691450D01*
X167435618Y-83325257D01*
X167303914Y-82978087D01*
X167107011Y-82663281D01*
X166852477Y-82392939D01*
X166550092Y-82177448D01*
X166211477Y-82025090D01*
X165849645Y-81941721D01*
X165571504Y-81933344D01*
X164808084Y-81985387D01*
X164576968Y-82024166D01*
X163177802Y-80625001D01*
X176107866Y-80625001D01*
X179231403Y-83748539D01*
G36*
X182382085Y-84701913D02*
G01*
X182578989Y-85016719D01*
X182833523Y-85287061D01*
X183135908Y-85502552D01*
X183474523Y-85654910D01*
X183836355Y-85738279D01*
X184114495Y-85746656D01*
X184202545Y-85740654D01*
X183266481Y-86676718D01*
X182195404Y-86676718D01*
X182206900Y-86618924D01*
X182206900Y-86101076D01*
X182105873Y-85593178D01*
X181907701Y-85114749D01*
X181620000Y-84684174D01*
X181535826Y-84600000D01*
X182343423Y-84600000D01*
X182382085Y-84701913D01*
X182382085Y-84701913D01*
G37*
X182382085Y-84701913D02*
X182578989Y-85016719D01*
X182833523Y-85287061D01*
X183135908Y-85502552D01*
X183474523Y-85654910D01*
X183836355Y-85738279D01*
X184114495Y-85746656D01*
X184202545Y-85740654D01*
X183266481Y-86676718D01*
X182195404Y-86676718D01*
X182206900Y-86618924D01*
X182206900Y-86101076D01*
X182105873Y-85593178D01*
X181907701Y-85114749D01*
X181620000Y-84684174D01*
X181535826Y-84600000D01*
X182343423Y-84600000D01*
X182382085Y-84701913D01*
G36*
X157635363Y-79654759D02*
G01*
X157835241Y-79854637D01*
X158070273Y-80011680D01*
X158331426Y-80119853D01*
X158608665Y-80175000D01*
X158891335Y-80175000D01*
X159073886Y-80138688D01*
X159331435Y-80396237D01*
X159211212Y-80576162D01*
X159099202Y-80846579D01*
X159042100Y-81133652D01*
X159042100Y-81426348D01*
X159099202Y-81713421D01*
X159211212Y-81983838D01*
X159373826Y-82227206D01*
X159580794Y-82434174D01*
X159824162Y-82596788D01*
X160094579Y-82708798D01*
X160381652Y-82765900D01*
X160674348Y-82765900D01*
X160961421Y-82708798D01*
X161231838Y-82596788D01*
X161475206Y-82434174D01*
X161682174Y-82227206D01*
X161844788Y-81983838D01*
X161956798Y-81713421D01*
X161983314Y-81580115D01*
X163365460Y-82962262D01*
X163233486Y-83255575D01*
X163150117Y-83617407D01*
X163138939Y-83988550D01*
X163158614Y-84105813D01*
X162582903Y-83530102D01*
X162559100Y-83501098D01*
X162443375Y-83406125D01*
X162311346Y-83335553D01*
X162168085Y-83292096D01*
X162056432Y-83281099D01*
X162056421Y-83281099D01*
X162019099Y-83277423D01*
X161981777Y-83281099D01*
X159452252Y-83281099D01*
X159414927Y-83277423D01*
X159377602Y-83281099D01*
X159377594Y-83281099D01*
X159265941Y-83292096D01*
X159122680Y-83335553D01*
X158990651Y-83406125D01*
X158874926Y-83501098D01*
X158851128Y-83530096D01*
X157289225Y-85092000D01*
X147956440Y-85092000D01*
X147984665Y-85065425D01*
X148200156Y-84763040D01*
X148273515Y-84600000D01*
X151072678Y-84600000D01*
X151110000Y-84603676D01*
X151147322Y-84600000D01*
X151147333Y-84600000D01*
X151258986Y-84589003D01*
X151402247Y-84545546D01*
X151534276Y-84474974D01*
X151650001Y-84380001D01*
X151673804Y-84350997D01*
X155886114Y-80138688D01*
X156068665Y-80175000D01*
X156351335Y-80175000D01*
X156628574Y-80119853D01*
X156889727Y-80011680D01*
X157124759Y-79854637D01*
X157324637Y-79654759D01*
X157480000Y-79422241D01*
X157635363Y-79654759D01*
X157635363Y-79654759D01*
G37*
X157635363Y-79654759D02*
X157835241Y-79854637D01*
X158070273Y-80011680D01*
X158331426Y-80119853D01*
X158608665Y-80175000D01*
X158891335Y-80175000D01*
X159073886Y-80138688D01*
X159331435Y-80396237D01*
X159211212Y-80576162D01*
X159099202Y-80846579D01*
X159042100Y-81133652D01*
X159042100Y-81426348D01*
X159099202Y-81713421D01*
X159211212Y-81983838D01*
X159373826Y-82227206D01*
X159580794Y-82434174D01*
X159824162Y-82596788D01*
X160094579Y-82708798D01*
X160381652Y-82765900D01*
X160674348Y-82765900D01*
X160961421Y-82708798D01*
X161231838Y-82596788D01*
X161475206Y-82434174D01*
X161682174Y-82227206D01*
X161844788Y-81983838D01*
X161956798Y-81713421D01*
X161983314Y-81580115D01*
X163365460Y-82962262D01*
X163233486Y-83255575D01*
X163150117Y-83617407D01*
X163138939Y-83988550D01*
X163158614Y-84105813D01*
X162582903Y-83530102D01*
X162559100Y-83501098D01*
X162443375Y-83406125D01*
X162311346Y-83335553D01*
X162168085Y-83292096D01*
X162056432Y-83281099D01*
X162056421Y-83281099D01*
X162019099Y-83277423D01*
X161981777Y-83281099D01*
X159452252Y-83281099D01*
X159414927Y-83277423D01*
X159377602Y-83281099D01*
X159377594Y-83281099D01*
X159265941Y-83292096D01*
X159122680Y-83335553D01*
X158990651Y-83406125D01*
X158874926Y-83501098D01*
X158851128Y-83530096D01*
X157289225Y-85092000D01*
X147956440Y-85092000D01*
X147984665Y-85065425D01*
X148200156Y-84763040D01*
X148273515Y-84600000D01*
X151072678Y-84600000D01*
X151110000Y-84603676D01*
X151147322Y-84600000D01*
X151147333Y-84600000D01*
X151258986Y-84589003D01*
X151402247Y-84545546D01*
X151534276Y-84474974D01*
X151650001Y-84380001D01*
X151673804Y-84350997D01*
X155886114Y-80138688D01*
X156068665Y-80175000D01*
X156351335Y-80175000D01*
X156628574Y-80119853D01*
X156889727Y-80011680D01*
X157124759Y-79854637D01*
X157324637Y-79654759D01*
X157480000Y-79422241D01*
X157635363Y-79654759D01*
G36*
X152555363Y-79654759D02*
G01*
X152755241Y-79854637D01*
X152990273Y-80011680D01*
X153251426Y-80119853D01*
X153528665Y-80175000D01*
X153700198Y-80175000D01*
X150795199Y-83080000D01*
X148292576Y-83080000D01*
X148253914Y-82978087D01*
X148057011Y-82663281D01*
X147802477Y-82392939D01*
X147500092Y-82177448D01*
X147161477Y-82025090D01*
X146799645Y-81941721D01*
X146521504Y-81933344D01*
X145758084Y-81985387D01*
X145483653Y-82031434D01*
X145136483Y-82163137D01*
X144821677Y-82360041D01*
X144551335Y-82614575D01*
X144524000Y-82652932D01*
X144524000Y-81571325D01*
X144527676Y-81534000D01*
X144524000Y-81496675D01*
X144524000Y-81496667D01*
X144513003Y-81385014D01*
X144469546Y-81241753D01*
X144398974Y-81109724D01*
X144304001Y-80993999D01*
X144275004Y-80970202D01*
X143479802Y-80175000D01*
X143651335Y-80175000D01*
X143928574Y-80119853D01*
X144189727Y-80011680D01*
X144424759Y-79854637D01*
X144624637Y-79654759D01*
X144780000Y-79422241D01*
X144935363Y-79654759D01*
X145135241Y-79854637D01*
X145370273Y-80011680D01*
X145631426Y-80119853D01*
X145908665Y-80175000D01*
X146191335Y-80175000D01*
X146468574Y-80119853D01*
X146729727Y-80011680D01*
X146964759Y-79854637D01*
X147164637Y-79654759D01*
X147320000Y-79422241D01*
X147475363Y-79654759D01*
X147675241Y-79854637D01*
X147910273Y-80011680D01*
X148171426Y-80119853D01*
X148448665Y-80175000D01*
X148731335Y-80175000D01*
X149008574Y-80119853D01*
X149269727Y-80011680D01*
X149504759Y-79854637D01*
X149704637Y-79654759D01*
X149860000Y-79422241D01*
X150015363Y-79654759D01*
X150215241Y-79854637D01*
X150450273Y-80011680D01*
X150711426Y-80119853D01*
X150988665Y-80175000D01*
X151271335Y-80175000D01*
X151548574Y-80119853D01*
X151809727Y-80011680D01*
X152044759Y-79854637D01*
X152244637Y-79654759D01*
X152400000Y-79422241D01*
X152555363Y-79654759D01*
X152555363Y-79654759D01*
G37*
X152555363Y-79654759D02*
X152755241Y-79854637D01*
X152990273Y-80011680D01*
X153251426Y-80119853D01*
X153528665Y-80175000D01*
X153700198Y-80175000D01*
X150795199Y-83080000D01*
X148292576Y-83080000D01*
X148253914Y-82978087D01*
X148057011Y-82663281D01*
X147802477Y-82392939D01*
X147500092Y-82177448D01*
X147161477Y-82025090D01*
X146799645Y-81941721D01*
X146521504Y-81933344D01*
X145758084Y-81985387D01*
X145483653Y-82031434D01*
X145136483Y-82163137D01*
X144821677Y-82360041D01*
X144551335Y-82614575D01*
X144524000Y-82652932D01*
X144524000Y-81571325D01*
X144527676Y-81534000D01*
X144524000Y-81496675D01*
X144524000Y-81496667D01*
X144513003Y-81385014D01*
X144469546Y-81241753D01*
X144398974Y-81109724D01*
X144304001Y-80993999D01*
X144275004Y-80970202D01*
X143479802Y-80175000D01*
X143651335Y-80175000D01*
X143928574Y-80119853D01*
X144189727Y-80011680D01*
X144424759Y-79854637D01*
X144624637Y-79654759D01*
X144780000Y-79422241D01*
X144935363Y-79654759D01*
X145135241Y-79854637D01*
X145370273Y-80011680D01*
X145631426Y-80119853D01*
X145908665Y-80175000D01*
X146191335Y-80175000D01*
X146468574Y-80119853D01*
X146729727Y-80011680D01*
X146964759Y-79854637D01*
X147164637Y-79654759D01*
X147320000Y-79422241D01*
X147475363Y-79654759D01*
X147675241Y-79854637D01*
X147910273Y-80011680D01*
X148171426Y-80119853D01*
X148448665Y-80175000D01*
X148731335Y-80175000D01*
X149008574Y-80119853D01*
X149269727Y-80011680D01*
X149504759Y-79854637D01*
X149704637Y-79654759D01*
X149860000Y-79422241D01*
X150015363Y-79654759D01*
X150215241Y-79854637D01*
X150450273Y-80011680D01*
X150711426Y-80119853D01*
X150988665Y-80175000D01*
X151271335Y-80175000D01*
X151548574Y-80119853D01*
X151809727Y-80011680D01*
X152044759Y-79854637D01*
X152244637Y-79654759D01*
X152400000Y-79422241D01*
X152555363Y-79654759D01*
G36*
X144124242Y-77253043D02*
G01*
X144292728Y-77365622D01*
X144479939Y-77443167D01*
X144678682Y-77482700D01*
X144881318Y-77482700D01*
X145080061Y-77443167D01*
X145267272Y-77365622D01*
X145415000Y-77266913D01*
X145562728Y-77365622D01*
X145590468Y-77377112D01*
X145370273Y-77468320D01*
X145135241Y-77625363D01*
X144935363Y-77825241D01*
X144780000Y-78057759D01*
X144624637Y-77825241D01*
X144424759Y-77625363D01*
X144189727Y-77468320D01*
X143928574Y-77360147D01*
X143769486Y-77328502D01*
X143791481Y-77326035D01*
X143849966Y-77313603D01*
X143908676Y-77301978D01*
X143917479Y-77299253D01*
X144103509Y-77240240D01*
X144109060Y-77237861D01*
X144124242Y-77253043D01*
X144124242Y-77253043D01*
G37*
X144124242Y-77253043D02*
X144292728Y-77365622D01*
X144479939Y-77443167D01*
X144678682Y-77482700D01*
X144881318Y-77482700D01*
X145080061Y-77443167D01*
X145267272Y-77365622D01*
X145415000Y-77266913D01*
X145562728Y-77365622D01*
X145590468Y-77377112D01*
X145370273Y-77468320D01*
X145135241Y-77625363D01*
X144935363Y-77825241D01*
X144780000Y-78057759D01*
X144624637Y-77825241D01*
X144424759Y-77625363D01*
X144189727Y-77468320D01*
X143928574Y-77360147D01*
X143769486Y-77328502D01*
X143791481Y-77326035D01*
X143849966Y-77313603D01*
X143908676Y-77301978D01*
X143917479Y-77299253D01*
X144103509Y-77240240D01*
X144109060Y-77237861D01*
X144124242Y-77253043D01*
G36*
X148102728Y-77365622D02*
G01*
X148130468Y-77377112D01*
X147910273Y-77468320D01*
X147675241Y-77625363D01*
X147475363Y-77825241D01*
X147320000Y-78057759D01*
X147164637Y-77825241D01*
X146964759Y-77625363D01*
X146729727Y-77468320D01*
X146509532Y-77377112D01*
X146537272Y-77365622D01*
X146685000Y-77266913D01*
X146832728Y-77365622D01*
X147019939Y-77443167D01*
X147218682Y-77482700D01*
X147421318Y-77482700D01*
X147620061Y-77443167D01*
X147807272Y-77365622D01*
X147955000Y-77266913D01*
X148102728Y-77365622D01*
X148102728Y-77365622D01*
G37*
X148102728Y-77365622D02*
X148130468Y-77377112D01*
X147910273Y-77468320D01*
X147675241Y-77625363D01*
X147475363Y-77825241D01*
X147320000Y-78057759D01*
X147164637Y-77825241D01*
X146964759Y-77625363D01*
X146729727Y-77468320D01*
X146509532Y-77377112D01*
X146537272Y-77365622D01*
X146685000Y-77266913D01*
X146832728Y-77365622D01*
X147019939Y-77443167D01*
X147218682Y-77482700D01*
X147421318Y-77482700D01*
X147620061Y-77443167D01*
X147807272Y-77365622D01*
X147955000Y-77266913D01*
X148102728Y-77365622D01*
G36*
X150541366Y-77245652D02*
G01*
X150550169Y-77248377D01*
X150737006Y-77304786D01*
X150795686Y-77316405D01*
X150854196Y-77328842D01*
X150863361Y-77329805D01*
X150863765Y-77329845D01*
X150711426Y-77360147D01*
X150450273Y-77468320D01*
X150215241Y-77625363D01*
X150015363Y-77825241D01*
X149860000Y-78057759D01*
X149704637Y-77825241D01*
X149504759Y-77625363D01*
X149269727Y-77468320D01*
X149049532Y-77377112D01*
X149077272Y-77365622D01*
X149225000Y-77266913D01*
X149372728Y-77365622D01*
X149559939Y-77443167D01*
X149758682Y-77482700D01*
X149961318Y-77482700D01*
X150160061Y-77443167D01*
X150347272Y-77365622D01*
X150515758Y-77253043D01*
X150528614Y-77240187D01*
X150541366Y-77245652D01*
X150541366Y-77245652D01*
G37*
X150541366Y-77245652D02*
X150550169Y-77248377D01*
X150737006Y-77304786D01*
X150795686Y-77316405D01*
X150854196Y-77328842D01*
X150863361Y-77329805D01*
X150863765Y-77329845D01*
X150711426Y-77360147D01*
X150450273Y-77468320D01*
X150215241Y-77625363D01*
X150015363Y-77825241D01*
X149860000Y-78057759D01*
X149704637Y-77825241D01*
X149504759Y-77625363D01*
X149269727Y-77468320D01*
X149049532Y-77377112D01*
X149077272Y-77365622D01*
X149225000Y-77266913D01*
X149372728Y-77365622D01*
X149559939Y-77443167D01*
X149758682Y-77482700D01*
X149961318Y-77482700D01*
X150160061Y-77443167D01*
X150347272Y-77365622D01*
X150515758Y-77253043D01*
X150528614Y-77240187D01*
X150541366Y-77245652D01*
G36*
X153251426Y-77360147D02*
G01*
X152990273Y-77468320D01*
X152755241Y-77625363D01*
X152555363Y-77825241D01*
X152400000Y-78057759D01*
X152244637Y-77825241D01*
X152044759Y-77625363D01*
X151809727Y-77468320D01*
X151548574Y-77360147D01*
X151507617Y-77352000D01*
X153292383Y-77352000D01*
X153251426Y-77360147D01*
X153251426Y-77360147D01*
G37*
X153251426Y-77360147D02*
X152990273Y-77468320D01*
X152755241Y-77625363D01*
X152555363Y-77825241D01*
X152400000Y-78057759D01*
X152244637Y-77825241D01*
X152044759Y-77625363D01*
X151809727Y-77468320D01*
X151548574Y-77360147D01*
X151507617Y-77352000D01*
X153292383Y-77352000D01*
X153251426Y-77360147D01*
G36*
X140551426Y-77360147D02*
G01*
X140290273Y-77468320D01*
X140055241Y-77625363D01*
X139855363Y-77825241D01*
X139700000Y-78057759D01*
X139544637Y-77825241D01*
X139344759Y-77625363D01*
X139109727Y-77468320D01*
X138848574Y-77360147D01*
X138807617Y-77352000D01*
X140592383Y-77352000D01*
X140551426Y-77360147D01*
X140551426Y-77360147D01*
G37*
X140551426Y-77360147D02*
X140290273Y-77468320D01*
X140055241Y-77625363D01*
X139855363Y-77825241D01*
X139700000Y-78057759D01*
X139544637Y-77825241D01*
X139344759Y-77625363D01*
X139109727Y-77468320D01*
X138848574Y-77360147D01*
X138807617Y-77352000D01*
X140592383Y-77352000D01*
X140551426Y-77360147D01*
G36*
X138011426Y-77360147D02*
G01*
X137750273Y-77468320D01*
X137515241Y-77625363D01*
X137315363Y-77825241D01*
X137160000Y-78057759D01*
X137004637Y-77825241D01*
X136804759Y-77625363D01*
X136569727Y-77468320D01*
X136308574Y-77360147D01*
X136267617Y-77352000D01*
X138052383Y-77352000D01*
X138011426Y-77360147D01*
X138011426Y-77360147D01*
G37*
X138011426Y-77360147D02*
X137750273Y-77468320D01*
X137515241Y-77625363D01*
X137315363Y-77825241D01*
X137160000Y-78057759D01*
X137004637Y-77825241D01*
X136804759Y-77625363D01*
X136569727Y-77468320D01*
X136308574Y-77360147D01*
X136267617Y-77352000D01*
X138052383Y-77352000D01*
X138011426Y-77360147D01*
G36*
X155791426Y-77360147D02*
G01*
X155530273Y-77468320D01*
X155295241Y-77625363D01*
X155095363Y-77825241D01*
X154940000Y-78057759D01*
X154784637Y-77825241D01*
X154584759Y-77625363D01*
X154349727Y-77468320D01*
X154088574Y-77360147D01*
X154047617Y-77352000D01*
X155832383Y-77352000D01*
X155791426Y-77360147D01*
X155791426Y-77360147D01*
G37*
X155791426Y-77360147D02*
X155530273Y-77468320D01*
X155295241Y-77625363D01*
X155095363Y-77825241D01*
X154940000Y-78057759D01*
X154784637Y-77825241D01*
X154584759Y-77625363D01*
X154349727Y-77468320D01*
X154088574Y-77360147D01*
X154047617Y-77352000D01*
X155832383Y-77352000D01*
X155791426Y-77360147D01*
G36*
X158331426Y-77360147D02*
G01*
X158070273Y-77468320D01*
X157835241Y-77625363D01*
X157635363Y-77825241D01*
X157480000Y-78057759D01*
X157324637Y-77825241D01*
X157124759Y-77625363D01*
X156889727Y-77468320D01*
X156628574Y-77360147D01*
X156587617Y-77352000D01*
X158372383Y-77352000D01*
X158331426Y-77360147D01*
X158331426Y-77360147D01*
G37*
X158331426Y-77360147D02*
X158070273Y-77468320D01*
X157835241Y-77625363D01*
X157635363Y-77825241D01*
X157480000Y-78057759D01*
X157324637Y-77825241D01*
X157124759Y-77625363D01*
X156889727Y-77468320D01*
X156628574Y-77360147D01*
X156587617Y-77352000D01*
X158372383Y-77352000D01*
X158331426Y-77360147D01*
G36*
X160871426Y-77360147D02*
G01*
X160610273Y-77468320D01*
X160375241Y-77625363D01*
X160175363Y-77825241D01*
X160020000Y-78057759D01*
X159864637Y-77825241D01*
X159664759Y-77625363D01*
X159429727Y-77468320D01*
X159168574Y-77360147D01*
X159127617Y-77352000D01*
X160912383Y-77352000D01*
X160871426Y-77360147D01*
X160871426Y-77360147D01*
G37*
X160871426Y-77360147D02*
X160610273Y-77468320D01*
X160375241Y-77625363D01*
X160175363Y-77825241D01*
X160020000Y-78057759D01*
X159864637Y-77825241D01*
X159664759Y-77625363D01*
X159429727Y-77468320D01*
X159168574Y-77360147D01*
X159127617Y-77352000D01*
X160912383Y-77352000D01*
X160871426Y-77360147D01*
G36*
X143091426Y-77360147D02*
G01*
X142830273Y-77468320D01*
X142595241Y-77625363D01*
X142395363Y-77825241D01*
X142240000Y-78057759D01*
X142084637Y-77825241D01*
X141884759Y-77625363D01*
X141649727Y-77468320D01*
X141388574Y-77360147D01*
X141347617Y-77352000D01*
X143132383Y-77352000D01*
X143091426Y-77360147D01*
X143091426Y-77360147D01*
G37*
X143091426Y-77360147D02*
X142830273Y-77468320D01*
X142595241Y-77625363D01*
X142395363Y-77825241D01*
X142240000Y-78057759D01*
X142084637Y-77825241D01*
X141884759Y-77625363D01*
X141649727Y-77468320D01*
X141388574Y-77360147D01*
X141347617Y-77352000D01*
X143132383Y-77352000D01*
X143091426Y-77360147D01*
G36*
X163411426Y-77360147D02*
G01*
X163150273Y-77468320D01*
X162915241Y-77625363D01*
X162715363Y-77825241D01*
X162560000Y-78057759D01*
X162404637Y-77825241D01*
X162204759Y-77625363D01*
X161969727Y-77468320D01*
X161708574Y-77360147D01*
X161667617Y-77352000D01*
X163452383Y-77352000D01*
X163411426Y-77360147D01*
X163411426Y-77360147D01*
G37*
X163411426Y-77360147D02*
X163150273Y-77468320D01*
X162915241Y-77625363D01*
X162715363Y-77825241D01*
X162560000Y-78057759D01*
X162404637Y-77825241D01*
X162204759Y-77625363D01*
X161969727Y-77468320D01*
X161708574Y-77360147D01*
X161667617Y-77352000D01*
X163452383Y-77352000D01*
X163411426Y-77360147D01*
M02*
