M48
; DRILL file {KiCad (5.1.4-0-10_14)} date Monday, February 22, 2021 at 11:39:34 PM
; FORMAT={-:-/ absolute / inch / decimal}
; #@! TF.CreationDate,2021-02-22T23:39:34-08:00
; #@! TF.GenerationSoftware,Kicad,Pcbnew,(5.1.4-0-10_14)
FMAT,2
INCH
T1C0.0433
T2C0.0591
T3C0.0670
T4C0.1570
%
G90
G05
T1
X5.25Y-3.17
X5.25Y-3.77
X5.35Y-3.17
X5.35Y-3.77
X5.45Y-3.17
X5.45Y-3.77
X5.55Y-3.17
X5.55Y-3.77
X5.65Y-3.17
X5.65Y-3.77
X5.75Y-3.17
X5.75Y-3.77
X5.85Y-3.17
X5.85Y-3.77
X5.95Y-3.17
X5.95Y-3.77
X6.05Y-3.17
X6.05Y-3.77
X6.15Y-3.17
X6.15Y-3.77
X6.25Y-3.17
X6.25Y-3.77
X6.35Y-3.17
X6.35Y-3.77
T3
X5.47Y-3.27
X5.47Y-3.67
X7.72Y-3.27
X7.72Y-3.67
X6.22Y-3.27
X6.22Y-3.67
X6.97Y-3.27
X6.97Y-3.67
T4
X6.97Y-3.47
X5.47Y-3.47
X7.72Y-3.47
X6.22Y-3.47
T2
G00X5.5712Y-3.6219
M15
G01X5.6459Y-3.5744
M16
G05
G00X5.6472Y-3.3716
M15
G01X5.67Y-3.37
M16
G05
G00X6.3212Y-3.6219
M15
G01X6.3959Y-3.5744
M16
G05
G00X6.3972Y-3.3716
M15
G01X6.42Y-3.37
M16
G05
G00X7.0712Y-3.6219
M15
G01X7.1459Y-3.5744
M16
G05
G00X7.1472Y-3.3716
M15
G01X7.17Y-3.37
M16
G05
G00X7.8212Y-3.6219
M15
G01X7.8959Y-3.5744
M16
G05
G00X7.8972Y-3.3716
M15
G01X7.92Y-3.37
M16
G05
T0
M30
