G04 #@! TF.GenerationSoftware,KiCad,Pcbnew,(5.1.4-0-10_14)*
G04 #@! TF.CreationDate,2021-02-23T13:51:13-08:00*
G04 #@! TF.ProjectId,fourkey,666f7572-6b65-4792-9e6b-696361645f70,rev?*
G04 #@! TF.SameCoordinates,Original*
G04 #@! TF.FileFunction,Soldermask,Top*
G04 #@! TF.FilePolarity,Negative*
%FSLAX46Y46*%
G04 Gerber Fmt 4.6, Leading zero omitted, Abs format (unit mm)*
G04 Created by KiCad (PCBNEW (5.1.4-0-10_14)) date 2021-02-23 13:51:13*
%MOMM*%
%LPD*%
G04 APERTURE LIST*
%ADD10C,0.100000*%
G04 APERTURE END LIST*
D10*
G36*
X209719241Y-120762760D02*
G01*
X209983305Y-120872139D01*
X210220958Y-121030934D01*
X210423066Y-121233042D01*
X210581861Y-121470695D01*
X210691240Y-121734759D01*
X210747000Y-122015088D01*
X210747000Y-122300912D01*
X210691240Y-122581241D01*
X210581861Y-122845305D01*
X210423066Y-123082958D01*
X210220958Y-123285066D01*
X209983305Y-123443861D01*
X209719241Y-123553240D01*
X209438912Y-123609000D01*
X209153088Y-123609000D01*
X208872759Y-123553240D01*
X208608695Y-123443861D01*
X208371042Y-123285066D01*
X208168934Y-123082958D01*
X208010139Y-122845305D01*
X207900760Y-122581241D01*
X207845000Y-122300912D01*
X207845000Y-122015088D01*
X207900760Y-121734759D01*
X208010139Y-121470695D01*
X208168934Y-121233042D01*
X208371042Y-121030934D01*
X208608695Y-120872139D01*
X208872759Y-120762760D01*
X209153088Y-120707000D01*
X209438912Y-120707000D01*
X209719241Y-120762760D01*
X209719241Y-120762760D01*
G37*
G36*
X130471241Y-120762760D02*
G01*
X130735305Y-120872139D01*
X130972958Y-121030934D01*
X131175066Y-121233042D01*
X131333861Y-121470695D01*
X131443240Y-121734759D01*
X131499000Y-122015088D01*
X131499000Y-122300912D01*
X131443240Y-122581241D01*
X131333861Y-122845305D01*
X131175066Y-123082958D01*
X130972958Y-123285066D01*
X130735305Y-123443861D01*
X130471241Y-123553240D01*
X130190912Y-123609000D01*
X129905088Y-123609000D01*
X129624759Y-123553240D01*
X129360695Y-123443861D01*
X129123042Y-123285066D01*
X128920934Y-123082958D01*
X128762139Y-122845305D01*
X128652760Y-122581241D01*
X128597000Y-122300912D01*
X128597000Y-122015088D01*
X128652760Y-121734759D01*
X128762139Y-121470695D01*
X128920934Y-121233042D01*
X129123042Y-121030934D01*
X129360695Y-120872139D01*
X129624759Y-120762760D01*
X129905088Y-120707000D01*
X130190912Y-120707000D01*
X130471241Y-120762760D01*
X130471241Y-120762760D01*
G37*
G36*
X144153867Y-103627898D02*
G01*
X144166119Y-103628500D01*
X148223979Y-103628500D01*
X148268791Y-103632913D01*
X148326278Y-103650352D01*
X148326280Y-103650353D01*
X148326283Y-103650354D01*
X148379268Y-103678675D01*
X148379269Y-103678676D01*
X148379271Y-103678677D01*
X148425711Y-103716789D01*
X148436134Y-103729489D01*
X148463825Y-103763232D01*
X148492146Y-103816217D01*
X148492146Y-103816218D01*
X148492148Y-103816222D01*
X148509587Y-103873709D01*
X148515475Y-103933500D01*
X148514602Y-103942367D01*
X148514000Y-103954619D01*
X148514000Y-108790898D01*
X148516402Y-108815284D01*
X148523515Y-108838733D01*
X148535066Y-108860344D01*
X148550611Y-108879286D01*
X148569553Y-108894831D01*
X148591164Y-108906382D01*
X148602708Y-108910512D01*
X148651133Y-108925202D01*
X148726792Y-108948152D01*
X148845963Y-109011851D01*
X148950423Y-109097578D01*
X149036149Y-109202036D01*
X149099847Y-109321205D01*
X149139074Y-109450522D01*
X149149000Y-109551300D01*
X149149000Y-113428700D01*
X149139074Y-113529478D01*
X149099847Y-113658795D01*
X149036149Y-113777964D01*
X148950423Y-113882423D01*
X148845964Y-113968149D01*
X148726794Y-114031847D01*
X148602714Y-114069486D01*
X148580075Y-114078864D01*
X148559701Y-114092477D01*
X148542374Y-114109804D01*
X148528760Y-114130179D01*
X148519383Y-114152817D01*
X148514602Y-114176851D01*
X148514000Y-114189103D01*
X148514000Y-119025381D01*
X148514602Y-119037633D01*
X148515475Y-119046500D01*
X148509587Y-119106291D01*
X148492148Y-119163778D01*
X148492146Y-119163783D01*
X148470613Y-119204068D01*
X148463823Y-119216771D01*
X148425711Y-119263211D01*
X148379271Y-119301323D01*
X148379269Y-119301324D01*
X148379268Y-119301325D01*
X148326283Y-119329646D01*
X148326280Y-119329647D01*
X148326278Y-119329648D01*
X148268791Y-119347087D01*
X148223979Y-119351500D01*
X144166119Y-119351500D01*
X144153867Y-119352102D01*
X144145000Y-119352975D01*
X144136133Y-119352102D01*
X144085209Y-119347087D01*
X144027722Y-119329648D01*
X144027720Y-119329647D01*
X144027717Y-119329646D01*
X143974732Y-119301325D01*
X143974731Y-119301324D01*
X143974729Y-119301323D01*
X143928289Y-119263211D01*
X143890177Y-119216771D01*
X143883387Y-119204068D01*
X143861854Y-119163783D01*
X143861852Y-119163778D01*
X143844413Y-119106291D01*
X143838525Y-119046500D01*
X143839399Y-119037623D01*
X143840001Y-119025371D01*
X143840001Y-118650999D01*
X143837599Y-118626613D01*
X143830486Y-118603164D01*
X143818935Y-118581553D01*
X143803390Y-118562611D01*
X143784448Y-118547066D01*
X143762837Y-118535515D01*
X143739388Y-118528402D01*
X143715002Y-118526000D01*
X139240999Y-118526000D01*
X139216613Y-118528402D01*
X139193164Y-118535515D01*
X139171553Y-118547066D01*
X139152611Y-118562611D01*
X139137066Y-118581553D01*
X139125515Y-118603164D01*
X139118402Y-118626613D01*
X139116000Y-118650999D01*
X139116000Y-119025381D01*
X139116602Y-119037633D01*
X139117475Y-119046500D01*
X139111587Y-119106291D01*
X139094148Y-119163778D01*
X139094146Y-119163783D01*
X139072613Y-119204068D01*
X139065823Y-119216771D01*
X139027711Y-119263211D01*
X138981271Y-119301323D01*
X138981269Y-119301324D01*
X138981268Y-119301325D01*
X138928283Y-119329646D01*
X138928280Y-119329647D01*
X138928278Y-119329648D01*
X138870791Y-119347087D01*
X138819867Y-119352102D01*
X138811000Y-119352975D01*
X138802133Y-119352102D01*
X138789881Y-119351500D01*
X134732021Y-119351500D01*
X134687209Y-119347087D01*
X134629722Y-119329648D01*
X134629720Y-119329647D01*
X134629717Y-119329646D01*
X134576732Y-119301325D01*
X134576731Y-119301324D01*
X134576729Y-119301323D01*
X134530289Y-119263211D01*
X134492177Y-119216771D01*
X134485387Y-119204068D01*
X134463854Y-119163783D01*
X134463852Y-119163778D01*
X134446413Y-119106291D01*
X134440525Y-119046500D01*
X134441399Y-119037623D01*
X134442001Y-119025371D01*
X134442001Y-114189103D01*
X134439599Y-114164717D01*
X134432486Y-114141268D01*
X134420935Y-114119657D01*
X134405390Y-114100715D01*
X134386448Y-114085170D01*
X134364837Y-114073619D01*
X134353287Y-114069486D01*
X134229207Y-114031847D01*
X134110037Y-113968149D01*
X134005578Y-113882423D01*
X133919852Y-113777964D01*
X133856154Y-113658795D01*
X133816927Y-113529478D01*
X133807001Y-113428700D01*
X133807000Y-109551301D01*
X133816926Y-109450523D01*
X133816927Y-109450521D01*
X133856152Y-109321210D01*
X133856153Y-109321206D01*
X133919851Y-109202037D01*
X134005578Y-109097577D01*
X134110036Y-109011851D01*
X134229206Y-108948153D01*
X134353286Y-108910514D01*
X134375925Y-108901136D01*
X134396299Y-108887523D01*
X134413626Y-108870196D01*
X134427240Y-108849821D01*
X134436617Y-108827183D01*
X134441398Y-108803149D01*
X134442000Y-108790897D01*
X134442000Y-104363499D01*
X135052000Y-104363499D01*
X135052000Y-109144255D01*
X135054402Y-109168641D01*
X135061515Y-109192090D01*
X135066760Y-109203179D01*
X135129847Y-109321206D01*
X135169074Y-109450522D01*
X135179000Y-109551300D01*
X135179000Y-113428700D01*
X135169074Y-113529478D01*
X135129847Y-113658794D01*
X135066760Y-113776821D01*
X135057383Y-113799459D01*
X135052602Y-113823493D01*
X135052000Y-113835745D01*
X135052000Y-118616501D01*
X135054402Y-118640887D01*
X135061515Y-118664336D01*
X135073066Y-118685947D01*
X135088611Y-118704889D01*
X135107553Y-118720434D01*
X135129164Y-118731985D01*
X135152613Y-118739098D01*
X135176999Y-118741500D01*
X138381001Y-118741500D01*
X138405387Y-118739098D01*
X138428836Y-118731985D01*
X138450447Y-118720434D01*
X138469389Y-118704889D01*
X138484934Y-118685947D01*
X138496485Y-118664336D01*
X138503598Y-118640887D01*
X138506000Y-118616501D01*
X138506000Y-118242120D01*
X138505398Y-118229869D01*
X138504525Y-118221000D01*
X138510413Y-118161209D01*
X138527852Y-118103722D01*
X138527854Y-118103718D01*
X138527854Y-118103717D01*
X138556175Y-118050732D01*
X138594289Y-118004289D01*
X138640729Y-117966177D01*
X138640731Y-117966176D01*
X138640732Y-117966175D01*
X138693717Y-117937854D01*
X138693720Y-117937853D01*
X138693722Y-117937852D01*
X138751209Y-117920413D01*
X138802133Y-117915398D01*
X138811000Y-117914525D01*
X138819867Y-117915398D01*
X138832119Y-117916000D01*
X144123881Y-117916000D01*
X144136133Y-117915398D01*
X144145000Y-117914525D01*
X144153867Y-117915398D01*
X144204791Y-117920413D01*
X144262278Y-117937852D01*
X144262280Y-117937853D01*
X144262283Y-117937854D01*
X144315268Y-117966175D01*
X144315269Y-117966176D01*
X144315271Y-117966177D01*
X144361711Y-118004289D01*
X144399825Y-118050732D01*
X144428146Y-118103717D01*
X144428146Y-118103718D01*
X144428148Y-118103722D01*
X144445587Y-118161209D01*
X144451475Y-118221000D01*
X144450602Y-118229867D01*
X144450000Y-118242119D01*
X144450000Y-118616501D01*
X144452402Y-118640887D01*
X144459515Y-118664336D01*
X144471066Y-118685947D01*
X144486611Y-118704889D01*
X144505553Y-118720434D01*
X144527164Y-118731985D01*
X144550613Y-118739098D01*
X144574999Y-118741500D01*
X147779002Y-118741500D01*
X147803388Y-118739098D01*
X147826837Y-118731985D01*
X147848448Y-118720434D01*
X147867390Y-118704889D01*
X147882935Y-118685947D01*
X147894486Y-118664336D01*
X147901599Y-118640887D01*
X147904001Y-118616501D01*
X147904001Y-113835745D01*
X147901599Y-113811359D01*
X147894486Y-113787910D01*
X147889241Y-113776821D01*
X147826154Y-113658794D01*
X147786927Y-113529478D01*
X147777001Y-113428700D01*
X147777000Y-109551301D01*
X147786926Y-109450523D01*
X147786927Y-109450521D01*
X147826152Y-109321210D01*
X147826153Y-109321206D01*
X147889240Y-109203179D01*
X147898618Y-109180540D01*
X147904000Y-109144255D01*
X147904000Y-104363499D01*
X147901598Y-104339113D01*
X147894485Y-104315664D01*
X147882934Y-104294053D01*
X147867389Y-104275111D01*
X147848447Y-104259566D01*
X147826836Y-104248015D01*
X147803387Y-104240902D01*
X147779001Y-104238500D01*
X144574999Y-104238500D01*
X144550613Y-104240902D01*
X144527164Y-104248015D01*
X144505553Y-104259566D01*
X144486611Y-104275111D01*
X144471066Y-104294053D01*
X144459515Y-104315664D01*
X144452402Y-104339113D01*
X144450000Y-104363499D01*
X144450000Y-104737881D01*
X144450602Y-104750133D01*
X144451475Y-104759000D01*
X144445587Y-104818791D01*
X144428148Y-104876278D01*
X144428146Y-104876283D01*
X144399825Y-104929268D01*
X144399823Y-104929271D01*
X144361711Y-104975711D01*
X144315271Y-105013823D01*
X144315269Y-105013824D01*
X144315268Y-105013825D01*
X144262283Y-105042146D01*
X144262280Y-105042147D01*
X144262278Y-105042148D01*
X144204791Y-105059587D01*
X144153867Y-105064602D01*
X144145000Y-105065475D01*
X144136133Y-105064602D01*
X144123881Y-105064000D01*
X138832119Y-105064000D01*
X138819867Y-105064602D01*
X138811000Y-105065475D01*
X138802133Y-105064602D01*
X138751209Y-105059587D01*
X138693722Y-105042148D01*
X138693720Y-105042147D01*
X138693717Y-105042146D01*
X138640732Y-105013825D01*
X138640731Y-105013824D01*
X138640729Y-105013823D01*
X138594289Y-104975711D01*
X138556177Y-104929271D01*
X138556175Y-104929268D01*
X138527854Y-104876283D01*
X138527852Y-104876278D01*
X138510413Y-104818791D01*
X138504525Y-104759000D01*
X138505399Y-104750123D01*
X138506001Y-104737871D01*
X138506001Y-104363499D01*
X138503599Y-104339113D01*
X138496486Y-104315664D01*
X138484935Y-104294053D01*
X138469390Y-104275111D01*
X138450448Y-104259566D01*
X138428837Y-104248015D01*
X138405388Y-104240902D01*
X138381002Y-104238500D01*
X135176999Y-104238500D01*
X135152613Y-104240902D01*
X135129164Y-104248015D01*
X135107553Y-104259566D01*
X135088611Y-104275111D01*
X135073066Y-104294053D01*
X135061515Y-104315664D01*
X135054402Y-104339113D01*
X135052000Y-104363499D01*
X134442000Y-104363499D01*
X134442000Y-103954619D01*
X134441398Y-103942367D01*
X134440525Y-103933500D01*
X134446413Y-103873709D01*
X134463852Y-103816222D01*
X134463854Y-103816218D01*
X134463854Y-103816217D01*
X134492175Y-103763232D01*
X134519867Y-103729489D01*
X134530289Y-103716789D01*
X134576729Y-103678677D01*
X134576731Y-103678676D01*
X134576732Y-103678675D01*
X134629717Y-103650354D01*
X134629720Y-103650353D01*
X134629722Y-103650352D01*
X134687209Y-103632913D01*
X134732021Y-103628500D01*
X138789881Y-103628500D01*
X138802133Y-103627898D01*
X138811000Y-103627025D01*
X138819867Y-103627898D01*
X138870791Y-103632913D01*
X138928278Y-103650352D01*
X138928280Y-103650353D01*
X138928283Y-103650354D01*
X138981268Y-103678675D01*
X138981269Y-103678676D01*
X138981271Y-103678677D01*
X139027711Y-103716789D01*
X139038134Y-103729489D01*
X139065825Y-103763232D01*
X139094146Y-103816217D01*
X139094146Y-103816218D01*
X139094148Y-103816222D01*
X139111587Y-103873709D01*
X139117475Y-103933500D01*
X139116602Y-103942367D01*
X139116000Y-103954619D01*
X139116000Y-104329001D01*
X139118402Y-104353387D01*
X139125515Y-104376836D01*
X139137066Y-104398447D01*
X139152611Y-104417389D01*
X139171553Y-104432934D01*
X139193164Y-104444485D01*
X139216613Y-104451598D01*
X139240999Y-104454000D01*
X143715001Y-104454000D01*
X143739387Y-104451598D01*
X143762836Y-104444485D01*
X143784447Y-104432934D01*
X143803389Y-104417389D01*
X143818934Y-104398447D01*
X143830485Y-104376836D01*
X143837598Y-104353387D01*
X143840000Y-104329001D01*
X143840000Y-103954620D01*
X143839398Y-103942369D01*
X143838525Y-103933500D01*
X143844413Y-103873709D01*
X143861852Y-103816222D01*
X143861854Y-103816218D01*
X143861854Y-103816217D01*
X143890175Y-103763232D01*
X143917867Y-103729489D01*
X143928289Y-103716789D01*
X143974729Y-103678677D01*
X143974731Y-103678676D01*
X143974732Y-103678675D01*
X144027717Y-103650354D01*
X144027720Y-103650353D01*
X144027722Y-103650352D01*
X144085209Y-103632913D01*
X144136133Y-103627898D01*
X144145000Y-103627025D01*
X144153867Y-103627898D01*
X144153867Y-103627898D01*
G37*
G36*
X163203867Y-103627898D02*
G01*
X163216119Y-103628500D01*
X167273979Y-103628500D01*
X167318791Y-103632913D01*
X167376278Y-103650352D01*
X167376280Y-103650353D01*
X167376283Y-103650354D01*
X167429268Y-103678675D01*
X167429269Y-103678676D01*
X167429271Y-103678677D01*
X167475711Y-103716789D01*
X167486134Y-103729489D01*
X167513825Y-103763232D01*
X167542146Y-103816217D01*
X167542146Y-103816218D01*
X167542148Y-103816222D01*
X167559587Y-103873709D01*
X167565475Y-103933500D01*
X167564602Y-103942367D01*
X167564000Y-103954619D01*
X167564000Y-108790898D01*
X167566402Y-108815284D01*
X167573515Y-108838733D01*
X167585066Y-108860344D01*
X167600611Y-108879286D01*
X167619553Y-108894831D01*
X167641164Y-108906382D01*
X167652708Y-108910512D01*
X167701133Y-108925202D01*
X167776792Y-108948152D01*
X167895963Y-109011851D01*
X168000423Y-109097578D01*
X168086149Y-109202036D01*
X168149847Y-109321205D01*
X168189074Y-109450522D01*
X168199000Y-109551300D01*
X168199000Y-113428700D01*
X168189074Y-113529478D01*
X168149847Y-113658795D01*
X168086149Y-113777964D01*
X168000423Y-113882423D01*
X167895964Y-113968149D01*
X167776794Y-114031847D01*
X167652714Y-114069486D01*
X167630075Y-114078864D01*
X167609701Y-114092477D01*
X167592374Y-114109804D01*
X167578760Y-114130179D01*
X167569383Y-114152817D01*
X167564602Y-114176851D01*
X167564000Y-114189103D01*
X167564000Y-119025381D01*
X167564602Y-119037633D01*
X167565475Y-119046500D01*
X167559587Y-119106291D01*
X167542148Y-119163778D01*
X167542146Y-119163783D01*
X167520613Y-119204068D01*
X167513823Y-119216771D01*
X167475711Y-119263211D01*
X167429271Y-119301323D01*
X167429269Y-119301324D01*
X167429268Y-119301325D01*
X167376283Y-119329646D01*
X167376280Y-119329647D01*
X167376278Y-119329648D01*
X167318791Y-119347087D01*
X167273979Y-119351500D01*
X163216119Y-119351500D01*
X163203867Y-119352102D01*
X163195000Y-119352975D01*
X163186133Y-119352102D01*
X163135209Y-119347087D01*
X163077722Y-119329648D01*
X163077720Y-119329647D01*
X163077717Y-119329646D01*
X163024732Y-119301325D01*
X163024731Y-119301324D01*
X163024729Y-119301323D01*
X162978289Y-119263211D01*
X162940177Y-119216771D01*
X162933387Y-119204068D01*
X162911854Y-119163783D01*
X162911852Y-119163778D01*
X162894413Y-119106291D01*
X162888525Y-119046500D01*
X162889399Y-119037623D01*
X162890001Y-119025371D01*
X162890001Y-118650999D01*
X162887599Y-118626613D01*
X162880486Y-118603164D01*
X162868935Y-118581553D01*
X162853390Y-118562611D01*
X162834448Y-118547066D01*
X162812837Y-118535515D01*
X162789388Y-118528402D01*
X162765002Y-118526000D01*
X158290999Y-118526000D01*
X158266613Y-118528402D01*
X158243164Y-118535515D01*
X158221553Y-118547066D01*
X158202611Y-118562611D01*
X158187066Y-118581553D01*
X158175515Y-118603164D01*
X158168402Y-118626613D01*
X158166000Y-118650999D01*
X158166000Y-119025381D01*
X158166602Y-119037633D01*
X158167475Y-119046500D01*
X158161587Y-119106291D01*
X158144148Y-119163778D01*
X158144146Y-119163783D01*
X158122613Y-119204068D01*
X158115823Y-119216771D01*
X158077711Y-119263211D01*
X158031271Y-119301323D01*
X158031269Y-119301324D01*
X158031268Y-119301325D01*
X157978283Y-119329646D01*
X157978280Y-119329647D01*
X157978278Y-119329648D01*
X157920791Y-119347087D01*
X157869867Y-119352102D01*
X157861000Y-119352975D01*
X157852133Y-119352102D01*
X157839881Y-119351500D01*
X153782021Y-119351500D01*
X153737209Y-119347087D01*
X153679722Y-119329648D01*
X153679720Y-119329647D01*
X153679717Y-119329646D01*
X153626732Y-119301325D01*
X153626731Y-119301324D01*
X153626729Y-119301323D01*
X153580289Y-119263211D01*
X153542177Y-119216771D01*
X153535387Y-119204068D01*
X153513854Y-119163783D01*
X153513852Y-119163778D01*
X153496413Y-119106291D01*
X153490525Y-119046500D01*
X153491399Y-119037623D01*
X153492001Y-119025371D01*
X153492001Y-114189103D01*
X153489599Y-114164717D01*
X153482486Y-114141268D01*
X153470935Y-114119657D01*
X153455390Y-114100715D01*
X153436448Y-114085170D01*
X153414837Y-114073619D01*
X153403287Y-114069486D01*
X153279207Y-114031847D01*
X153160037Y-113968149D01*
X153055578Y-113882423D01*
X152969852Y-113777964D01*
X152906154Y-113658795D01*
X152866927Y-113529478D01*
X152857001Y-113428700D01*
X152857000Y-109551301D01*
X152866926Y-109450523D01*
X152866927Y-109450521D01*
X152906152Y-109321210D01*
X152906153Y-109321206D01*
X152969851Y-109202037D01*
X153055578Y-109097577D01*
X153160036Y-109011851D01*
X153279206Y-108948153D01*
X153403286Y-108910514D01*
X153425925Y-108901136D01*
X153446299Y-108887523D01*
X153463626Y-108870196D01*
X153477240Y-108849821D01*
X153486617Y-108827183D01*
X153491398Y-108803149D01*
X153492000Y-108790897D01*
X153492000Y-104363499D01*
X154102000Y-104363499D01*
X154102000Y-109144255D01*
X154104402Y-109168641D01*
X154111515Y-109192090D01*
X154116760Y-109203179D01*
X154179847Y-109321206D01*
X154219074Y-109450522D01*
X154229000Y-109551300D01*
X154229000Y-113428700D01*
X154219074Y-113529478D01*
X154179847Y-113658794D01*
X154116760Y-113776821D01*
X154107383Y-113799459D01*
X154102602Y-113823493D01*
X154102000Y-113835745D01*
X154102000Y-118616501D01*
X154104402Y-118640887D01*
X154111515Y-118664336D01*
X154123066Y-118685947D01*
X154138611Y-118704889D01*
X154157553Y-118720434D01*
X154179164Y-118731985D01*
X154202613Y-118739098D01*
X154226999Y-118741500D01*
X157431001Y-118741500D01*
X157455387Y-118739098D01*
X157478836Y-118731985D01*
X157500447Y-118720434D01*
X157519389Y-118704889D01*
X157534934Y-118685947D01*
X157546485Y-118664336D01*
X157553598Y-118640887D01*
X157556000Y-118616501D01*
X157556000Y-118242120D01*
X157555398Y-118229869D01*
X157554525Y-118221000D01*
X157560413Y-118161209D01*
X157577852Y-118103722D01*
X157577854Y-118103718D01*
X157577854Y-118103717D01*
X157606175Y-118050732D01*
X157644289Y-118004289D01*
X157690729Y-117966177D01*
X157690731Y-117966176D01*
X157690732Y-117966175D01*
X157743717Y-117937854D01*
X157743720Y-117937853D01*
X157743722Y-117937852D01*
X157801209Y-117920413D01*
X157852133Y-117915398D01*
X157861000Y-117914525D01*
X157869867Y-117915398D01*
X157882119Y-117916000D01*
X163173881Y-117916000D01*
X163186133Y-117915398D01*
X163195000Y-117914525D01*
X163203867Y-117915398D01*
X163254791Y-117920413D01*
X163312278Y-117937852D01*
X163312280Y-117937853D01*
X163312283Y-117937854D01*
X163365268Y-117966175D01*
X163365269Y-117966176D01*
X163365271Y-117966177D01*
X163411711Y-118004289D01*
X163449825Y-118050732D01*
X163478146Y-118103717D01*
X163478146Y-118103718D01*
X163478148Y-118103722D01*
X163495587Y-118161209D01*
X163501475Y-118221000D01*
X163500602Y-118229867D01*
X163500000Y-118242119D01*
X163500000Y-118616501D01*
X163502402Y-118640887D01*
X163509515Y-118664336D01*
X163521066Y-118685947D01*
X163536611Y-118704889D01*
X163555553Y-118720434D01*
X163577164Y-118731985D01*
X163600613Y-118739098D01*
X163624999Y-118741500D01*
X166829002Y-118741500D01*
X166853388Y-118739098D01*
X166876837Y-118731985D01*
X166898448Y-118720434D01*
X166917390Y-118704889D01*
X166932935Y-118685947D01*
X166944486Y-118664336D01*
X166951599Y-118640887D01*
X166954001Y-118616501D01*
X166954001Y-113835745D01*
X166951599Y-113811359D01*
X166944486Y-113787910D01*
X166939241Y-113776821D01*
X166876154Y-113658794D01*
X166836927Y-113529478D01*
X166827001Y-113428700D01*
X166827000Y-109551301D01*
X166836926Y-109450523D01*
X166836927Y-109450521D01*
X166876152Y-109321210D01*
X166876153Y-109321206D01*
X166939240Y-109203179D01*
X166948618Y-109180540D01*
X166954000Y-109144255D01*
X166954000Y-104363499D01*
X166951598Y-104339113D01*
X166944485Y-104315664D01*
X166932934Y-104294053D01*
X166917389Y-104275111D01*
X166898447Y-104259566D01*
X166876836Y-104248015D01*
X166853387Y-104240902D01*
X166829001Y-104238500D01*
X163624999Y-104238500D01*
X163600613Y-104240902D01*
X163577164Y-104248015D01*
X163555553Y-104259566D01*
X163536611Y-104275111D01*
X163521066Y-104294053D01*
X163509515Y-104315664D01*
X163502402Y-104339113D01*
X163500000Y-104363499D01*
X163500000Y-104737881D01*
X163500602Y-104750133D01*
X163501475Y-104759000D01*
X163495587Y-104818791D01*
X163478148Y-104876278D01*
X163478146Y-104876283D01*
X163449825Y-104929268D01*
X163449823Y-104929271D01*
X163411711Y-104975711D01*
X163365271Y-105013823D01*
X163365269Y-105013824D01*
X163365268Y-105013825D01*
X163312283Y-105042146D01*
X163312280Y-105042147D01*
X163312278Y-105042148D01*
X163254791Y-105059587D01*
X163203867Y-105064602D01*
X163195000Y-105065475D01*
X163186133Y-105064602D01*
X163173881Y-105064000D01*
X157882119Y-105064000D01*
X157869867Y-105064602D01*
X157861000Y-105065475D01*
X157852133Y-105064602D01*
X157801209Y-105059587D01*
X157743722Y-105042148D01*
X157743720Y-105042147D01*
X157743717Y-105042146D01*
X157690732Y-105013825D01*
X157690731Y-105013824D01*
X157690729Y-105013823D01*
X157644289Y-104975711D01*
X157606177Y-104929271D01*
X157606175Y-104929268D01*
X157577854Y-104876283D01*
X157577852Y-104876278D01*
X157560413Y-104818791D01*
X157554525Y-104759000D01*
X157555399Y-104750123D01*
X157556001Y-104737871D01*
X157556001Y-104363499D01*
X157553599Y-104339113D01*
X157546486Y-104315664D01*
X157534935Y-104294053D01*
X157519390Y-104275111D01*
X157500448Y-104259566D01*
X157478837Y-104248015D01*
X157455388Y-104240902D01*
X157431002Y-104238500D01*
X154226999Y-104238500D01*
X154202613Y-104240902D01*
X154179164Y-104248015D01*
X154157553Y-104259566D01*
X154138611Y-104275111D01*
X154123066Y-104294053D01*
X154111515Y-104315664D01*
X154104402Y-104339113D01*
X154102000Y-104363499D01*
X153492000Y-104363499D01*
X153492000Y-103954619D01*
X153491398Y-103942367D01*
X153490525Y-103933500D01*
X153496413Y-103873709D01*
X153513852Y-103816222D01*
X153513854Y-103816218D01*
X153513854Y-103816217D01*
X153542175Y-103763232D01*
X153569867Y-103729489D01*
X153580289Y-103716789D01*
X153626729Y-103678677D01*
X153626731Y-103678676D01*
X153626732Y-103678675D01*
X153679717Y-103650354D01*
X153679720Y-103650353D01*
X153679722Y-103650352D01*
X153737209Y-103632913D01*
X153782021Y-103628500D01*
X157839881Y-103628500D01*
X157852133Y-103627898D01*
X157861000Y-103627025D01*
X157869867Y-103627898D01*
X157920791Y-103632913D01*
X157978278Y-103650352D01*
X157978280Y-103650353D01*
X157978283Y-103650354D01*
X158031268Y-103678675D01*
X158031269Y-103678676D01*
X158031271Y-103678677D01*
X158077711Y-103716789D01*
X158088134Y-103729489D01*
X158115825Y-103763232D01*
X158144146Y-103816217D01*
X158144146Y-103816218D01*
X158144148Y-103816222D01*
X158161587Y-103873709D01*
X158167475Y-103933500D01*
X158166602Y-103942367D01*
X158166000Y-103954619D01*
X158166000Y-104329001D01*
X158168402Y-104353387D01*
X158175515Y-104376836D01*
X158187066Y-104398447D01*
X158202611Y-104417389D01*
X158221553Y-104432934D01*
X158243164Y-104444485D01*
X158266613Y-104451598D01*
X158290999Y-104454000D01*
X162765001Y-104454000D01*
X162789387Y-104451598D01*
X162812836Y-104444485D01*
X162834447Y-104432934D01*
X162853389Y-104417389D01*
X162868934Y-104398447D01*
X162880485Y-104376836D01*
X162887598Y-104353387D01*
X162890000Y-104329001D01*
X162890000Y-103954620D01*
X162889398Y-103942369D01*
X162888525Y-103933500D01*
X162894413Y-103873709D01*
X162911852Y-103816222D01*
X162911854Y-103816218D01*
X162911854Y-103816217D01*
X162940175Y-103763232D01*
X162967867Y-103729489D01*
X162978289Y-103716789D01*
X163024729Y-103678677D01*
X163024731Y-103678676D01*
X163024732Y-103678675D01*
X163077717Y-103650354D01*
X163077720Y-103650353D01*
X163077722Y-103650352D01*
X163135209Y-103632913D01*
X163186133Y-103627898D01*
X163195000Y-103627025D01*
X163203867Y-103627898D01*
X163203867Y-103627898D01*
G37*
G36*
X201303867Y-103627898D02*
G01*
X201316119Y-103628500D01*
X205373979Y-103628500D01*
X205418791Y-103632913D01*
X205476278Y-103650352D01*
X205476280Y-103650353D01*
X205476283Y-103650354D01*
X205529268Y-103678675D01*
X205529269Y-103678676D01*
X205529271Y-103678677D01*
X205575711Y-103716789D01*
X205586134Y-103729489D01*
X205613825Y-103763232D01*
X205642146Y-103816217D01*
X205642146Y-103816218D01*
X205642148Y-103816222D01*
X205659587Y-103873709D01*
X205665475Y-103933500D01*
X205664602Y-103942367D01*
X205664000Y-103954619D01*
X205664000Y-108790898D01*
X205666402Y-108815284D01*
X205673515Y-108838733D01*
X205685066Y-108860344D01*
X205700611Y-108879286D01*
X205719553Y-108894831D01*
X205741164Y-108906382D01*
X205752708Y-108910512D01*
X205801133Y-108925202D01*
X205876792Y-108948152D01*
X205995963Y-109011851D01*
X206100423Y-109097578D01*
X206186149Y-109202036D01*
X206249847Y-109321205D01*
X206289074Y-109450522D01*
X206299000Y-109551300D01*
X206299000Y-113428700D01*
X206289074Y-113529478D01*
X206249847Y-113658795D01*
X206186149Y-113777964D01*
X206100423Y-113882423D01*
X205995964Y-113968149D01*
X205876794Y-114031847D01*
X205752714Y-114069486D01*
X205730075Y-114078864D01*
X205709701Y-114092477D01*
X205692374Y-114109804D01*
X205678760Y-114130179D01*
X205669383Y-114152817D01*
X205664602Y-114176851D01*
X205664000Y-114189103D01*
X205664000Y-119025381D01*
X205664602Y-119037633D01*
X205665475Y-119046500D01*
X205659587Y-119106291D01*
X205642148Y-119163778D01*
X205642146Y-119163783D01*
X205620613Y-119204068D01*
X205613823Y-119216771D01*
X205575711Y-119263211D01*
X205529271Y-119301323D01*
X205529269Y-119301324D01*
X205529268Y-119301325D01*
X205476283Y-119329646D01*
X205476280Y-119329647D01*
X205476278Y-119329648D01*
X205418791Y-119347087D01*
X205373979Y-119351500D01*
X201316119Y-119351500D01*
X201303867Y-119352102D01*
X201295000Y-119352975D01*
X201286133Y-119352102D01*
X201235209Y-119347087D01*
X201177722Y-119329648D01*
X201177720Y-119329647D01*
X201177717Y-119329646D01*
X201124732Y-119301325D01*
X201124731Y-119301324D01*
X201124729Y-119301323D01*
X201078289Y-119263211D01*
X201040177Y-119216771D01*
X201033387Y-119204068D01*
X201011854Y-119163783D01*
X201011852Y-119163778D01*
X200994413Y-119106291D01*
X200988525Y-119046500D01*
X200989399Y-119037623D01*
X200990001Y-119025371D01*
X200990001Y-118650999D01*
X200987599Y-118626613D01*
X200980486Y-118603164D01*
X200968935Y-118581553D01*
X200953390Y-118562611D01*
X200934448Y-118547066D01*
X200912837Y-118535515D01*
X200889388Y-118528402D01*
X200865002Y-118526000D01*
X196390999Y-118526000D01*
X196366613Y-118528402D01*
X196343164Y-118535515D01*
X196321553Y-118547066D01*
X196302611Y-118562611D01*
X196287066Y-118581553D01*
X196275515Y-118603164D01*
X196268402Y-118626613D01*
X196266000Y-118650999D01*
X196266000Y-119025381D01*
X196266602Y-119037633D01*
X196267475Y-119046500D01*
X196261587Y-119106291D01*
X196244148Y-119163778D01*
X196244146Y-119163783D01*
X196222613Y-119204068D01*
X196215823Y-119216771D01*
X196177711Y-119263211D01*
X196131271Y-119301323D01*
X196131269Y-119301324D01*
X196131268Y-119301325D01*
X196078283Y-119329646D01*
X196078280Y-119329647D01*
X196078278Y-119329648D01*
X196020791Y-119347087D01*
X195969867Y-119352102D01*
X195961000Y-119352975D01*
X195952133Y-119352102D01*
X195939881Y-119351500D01*
X191882021Y-119351500D01*
X191837209Y-119347087D01*
X191779722Y-119329648D01*
X191779720Y-119329647D01*
X191779717Y-119329646D01*
X191726732Y-119301325D01*
X191726731Y-119301324D01*
X191726729Y-119301323D01*
X191680289Y-119263211D01*
X191642177Y-119216771D01*
X191635387Y-119204068D01*
X191613854Y-119163783D01*
X191613852Y-119163778D01*
X191596413Y-119106291D01*
X191590525Y-119046500D01*
X191591399Y-119037623D01*
X191592001Y-119025371D01*
X191592001Y-114189103D01*
X191589599Y-114164717D01*
X191582486Y-114141268D01*
X191570935Y-114119657D01*
X191555390Y-114100715D01*
X191536448Y-114085170D01*
X191514837Y-114073619D01*
X191503287Y-114069486D01*
X191379207Y-114031847D01*
X191260037Y-113968149D01*
X191155578Y-113882423D01*
X191069852Y-113777964D01*
X191006154Y-113658795D01*
X190966927Y-113529478D01*
X190957001Y-113428700D01*
X190957000Y-109551301D01*
X190966926Y-109450523D01*
X190966927Y-109450521D01*
X191006152Y-109321210D01*
X191006153Y-109321206D01*
X191069851Y-109202037D01*
X191155578Y-109097577D01*
X191260036Y-109011851D01*
X191379206Y-108948153D01*
X191503286Y-108910514D01*
X191525925Y-108901136D01*
X191546299Y-108887523D01*
X191563626Y-108870196D01*
X191577240Y-108849821D01*
X191586617Y-108827183D01*
X191591398Y-108803149D01*
X191592000Y-108790897D01*
X191592000Y-104363499D01*
X192202000Y-104363499D01*
X192202000Y-109144255D01*
X192204402Y-109168641D01*
X192211515Y-109192090D01*
X192216760Y-109203179D01*
X192279847Y-109321206D01*
X192319074Y-109450522D01*
X192329000Y-109551300D01*
X192329000Y-113428700D01*
X192319074Y-113529478D01*
X192279847Y-113658794D01*
X192216760Y-113776821D01*
X192207383Y-113799459D01*
X192202602Y-113823493D01*
X192202000Y-113835745D01*
X192202000Y-118616501D01*
X192204402Y-118640887D01*
X192211515Y-118664336D01*
X192223066Y-118685947D01*
X192238611Y-118704889D01*
X192257553Y-118720434D01*
X192279164Y-118731985D01*
X192302613Y-118739098D01*
X192326999Y-118741500D01*
X195531001Y-118741500D01*
X195555387Y-118739098D01*
X195578836Y-118731985D01*
X195600447Y-118720434D01*
X195619389Y-118704889D01*
X195634934Y-118685947D01*
X195646485Y-118664336D01*
X195653598Y-118640887D01*
X195656000Y-118616501D01*
X195656000Y-118242120D01*
X195655398Y-118229869D01*
X195654525Y-118221000D01*
X195660413Y-118161209D01*
X195677852Y-118103722D01*
X195677854Y-118103718D01*
X195677854Y-118103717D01*
X195706175Y-118050732D01*
X195744289Y-118004289D01*
X195790729Y-117966177D01*
X195790731Y-117966176D01*
X195790732Y-117966175D01*
X195843717Y-117937854D01*
X195843720Y-117937853D01*
X195843722Y-117937852D01*
X195901209Y-117920413D01*
X195952133Y-117915398D01*
X195961000Y-117914525D01*
X195969867Y-117915398D01*
X195982119Y-117916000D01*
X201273881Y-117916000D01*
X201286133Y-117915398D01*
X201295000Y-117914525D01*
X201303867Y-117915398D01*
X201354791Y-117920413D01*
X201412278Y-117937852D01*
X201412280Y-117937853D01*
X201412283Y-117937854D01*
X201465268Y-117966175D01*
X201465269Y-117966176D01*
X201465271Y-117966177D01*
X201511711Y-118004289D01*
X201549825Y-118050732D01*
X201578146Y-118103717D01*
X201578146Y-118103718D01*
X201578148Y-118103722D01*
X201595587Y-118161209D01*
X201601475Y-118221000D01*
X201600602Y-118229867D01*
X201600000Y-118242119D01*
X201600000Y-118616501D01*
X201602402Y-118640887D01*
X201609515Y-118664336D01*
X201621066Y-118685947D01*
X201636611Y-118704889D01*
X201655553Y-118720434D01*
X201677164Y-118731985D01*
X201700613Y-118739098D01*
X201724999Y-118741500D01*
X204929002Y-118741500D01*
X204953388Y-118739098D01*
X204976837Y-118731985D01*
X204998448Y-118720434D01*
X205017390Y-118704889D01*
X205032935Y-118685947D01*
X205044486Y-118664336D01*
X205051599Y-118640887D01*
X205054001Y-118616501D01*
X205054001Y-113835745D01*
X205051599Y-113811359D01*
X205044486Y-113787910D01*
X205039241Y-113776821D01*
X204976154Y-113658794D01*
X204936927Y-113529478D01*
X204927001Y-113428700D01*
X204927000Y-109551301D01*
X204936926Y-109450523D01*
X204936927Y-109450521D01*
X204976152Y-109321210D01*
X204976153Y-109321206D01*
X205039240Y-109203179D01*
X205048618Y-109180540D01*
X205054000Y-109144255D01*
X205054000Y-104363499D01*
X205051598Y-104339113D01*
X205044485Y-104315664D01*
X205032934Y-104294053D01*
X205017389Y-104275111D01*
X204998447Y-104259566D01*
X204976836Y-104248015D01*
X204953387Y-104240902D01*
X204929001Y-104238500D01*
X201724999Y-104238500D01*
X201700613Y-104240902D01*
X201677164Y-104248015D01*
X201655553Y-104259566D01*
X201636611Y-104275111D01*
X201621066Y-104294053D01*
X201609515Y-104315664D01*
X201602402Y-104339113D01*
X201600000Y-104363499D01*
X201600000Y-104737881D01*
X201600602Y-104750133D01*
X201601475Y-104759000D01*
X201595587Y-104818791D01*
X201578148Y-104876278D01*
X201578146Y-104876283D01*
X201549825Y-104929268D01*
X201549823Y-104929271D01*
X201511711Y-104975711D01*
X201465271Y-105013823D01*
X201465269Y-105013824D01*
X201465268Y-105013825D01*
X201412283Y-105042146D01*
X201412280Y-105042147D01*
X201412278Y-105042148D01*
X201354791Y-105059587D01*
X201303867Y-105064602D01*
X201295000Y-105065475D01*
X201286133Y-105064602D01*
X201273881Y-105064000D01*
X195982119Y-105064000D01*
X195969867Y-105064602D01*
X195961000Y-105065475D01*
X195952133Y-105064602D01*
X195901209Y-105059587D01*
X195843722Y-105042148D01*
X195843720Y-105042147D01*
X195843717Y-105042146D01*
X195790732Y-105013825D01*
X195790731Y-105013824D01*
X195790729Y-105013823D01*
X195744289Y-104975711D01*
X195706177Y-104929271D01*
X195706175Y-104929268D01*
X195677854Y-104876283D01*
X195677852Y-104876278D01*
X195660413Y-104818791D01*
X195654525Y-104759000D01*
X195655399Y-104750123D01*
X195656001Y-104737871D01*
X195656001Y-104363499D01*
X195653599Y-104339113D01*
X195646486Y-104315664D01*
X195634935Y-104294053D01*
X195619390Y-104275111D01*
X195600448Y-104259566D01*
X195578837Y-104248015D01*
X195555388Y-104240902D01*
X195531002Y-104238500D01*
X192326999Y-104238500D01*
X192302613Y-104240902D01*
X192279164Y-104248015D01*
X192257553Y-104259566D01*
X192238611Y-104275111D01*
X192223066Y-104294053D01*
X192211515Y-104315664D01*
X192204402Y-104339113D01*
X192202000Y-104363499D01*
X191592000Y-104363499D01*
X191592000Y-103954619D01*
X191591398Y-103942367D01*
X191590525Y-103933500D01*
X191596413Y-103873709D01*
X191613852Y-103816222D01*
X191613854Y-103816218D01*
X191613854Y-103816217D01*
X191642175Y-103763232D01*
X191669867Y-103729489D01*
X191680289Y-103716789D01*
X191726729Y-103678677D01*
X191726731Y-103678676D01*
X191726732Y-103678675D01*
X191779717Y-103650354D01*
X191779720Y-103650353D01*
X191779722Y-103650352D01*
X191837209Y-103632913D01*
X191882021Y-103628500D01*
X195939881Y-103628500D01*
X195952133Y-103627898D01*
X195961000Y-103627025D01*
X195969867Y-103627898D01*
X196020791Y-103632913D01*
X196078278Y-103650352D01*
X196078280Y-103650353D01*
X196078283Y-103650354D01*
X196131268Y-103678675D01*
X196131269Y-103678676D01*
X196131271Y-103678677D01*
X196177711Y-103716789D01*
X196188134Y-103729489D01*
X196215825Y-103763232D01*
X196244146Y-103816217D01*
X196244146Y-103816218D01*
X196244148Y-103816222D01*
X196261587Y-103873709D01*
X196267475Y-103933500D01*
X196266602Y-103942367D01*
X196266000Y-103954619D01*
X196266000Y-104329001D01*
X196268402Y-104353387D01*
X196275515Y-104376836D01*
X196287066Y-104398447D01*
X196302611Y-104417389D01*
X196321553Y-104432934D01*
X196343164Y-104444485D01*
X196366613Y-104451598D01*
X196390999Y-104454000D01*
X200865001Y-104454000D01*
X200889387Y-104451598D01*
X200912836Y-104444485D01*
X200934447Y-104432934D01*
X200953389Y-104417389D01*
X200968934Y-104398447D01*
X200980485Y-104376836D01*
X200987598Y-104353387D01*
X200990000Y-104329001D01*
X200990000Y-103954620D01*
X200989398Y-103942369D01*
X200988525Y-103933500D01*
X200994413Y-103873709D01*
X201011852Y-103816222D01*
X201011854Y-103816218D01*
X201011854Y-103816217D01*
X201040175Y-103763232D01*
X201067867Y-103729489D01*
X201078289Y-103716789D01*
X201124729Y-103678677D01*
X201124731Y-103678676D01*
X201124732Y-103678675D01*
X201177717Y-103650354D01*
X201177720Y-103650353D01*
X201177722Y-103650352D01*
X201235209Y-103632913D01*
X201286133Y-103627898D01*
X201295000Y-103627025D01*
X201303867Y-103627898D01*
X201303867Y-103627898D01*
G37*
G36*
X182253867Y-103627898D02*
G01*
X182266119Y-103628500D01*
X186323979Y-103628500D01*
X186368791Y-103632913D01*
X186426278Y-103650352D01*
X186426280Y-103650353D01*
X186426283Y-103650354D01*
X186479268Y-103678675D01*
X186479269Y-103678676D01*
X186479271Y-103678677D01*
X186525711Y-103716789D01*
X186536134Y-103729489D01*
X186563825Y-103763232D01*
X186592146Y-103816217D01*
X186592146Y-103816218D01*
X186592148Y-103816222D01*
X186609587Y-103873709D01*
X186615475Y-103933500D01*
X186614602Y-103942367D01*
X186614000Y-103954619D01*
X186614000Y-108790898D01*
X186616402Y-108815284D01*
X186623515Y-108838733D01*
X186635066Y-108860344D01*
X186650611Y-108879286D01*
X186669553Y-108894831D01*
X186691164Y-108906382D01*
X186702708Y-108910512D01*
X186751133Y-108925202D01*
X186826792Y-108948152D01*
X186945963Y-109011851D01*
X187050423Y-109097578D01*
X187136149Y-109202036D01*
X187199847Y-109321205D01*
X187239074Y-109450522D01*
X187249000Y-109551300D01*
X187249000Y-113428700D01*
X187239074Y-113529478D01*
X187199847Y-113658795D01*
X187136149Y-113777964D01*
X187050423Y-113882423D01*
X186945964Y-113968149D01*
X186826794Y-114031847D01*
X186702714Y-114069486D01*
X186680075Y-114078864D01*
X186659701Y-114092477D01*
X186642374Y-114109804D01*
X186628760Y-114130179D01*
X186619383Y-114152817D01*
X186614602Y-114176851D01*
X186614000Y-114189103D01*
X186614000Y-119025381D01*
X186614602Y-119037633D01*
X186615475Y-119046500D01*
X186609587Y-119106291D01*
X186592148Y-119163778D01*
X186592146Y-119163783D01*
X186570613Y-119204068D01*
X186563823Y-119216771D01*
X186525711Y-119263211D01*
X186479271Y-119301323D01*
X186479269Y-119301324D01*
X186479268Y-119301325D01*
X186426283Y-119329646D01*
X186426280Y-119329647D01*
X186426278Y-119329648D01*
X186368791Y-119347087D01*
X186323979Y-119351500D01*
X182266119Y-119351500D01*
X182253867Y-119352102D01*
X182245000Y-119352975D01*
X182236133Y-119352102D01*
X182185209Y-119347087D01*
X182127722Y-119329648D01*
X182127720Y-119329647D01*
X182127717Y-119329646D01*
X182074732Y-119301325D01*
X182074731Y-119301324D01*
X182074729Y-119301323D01*
X182028289Y-119263211D01*
X181990177Y-119216771D01*
X181983387Y-119204068D01*
X181961854Y-119163783D01*
X181961852Y-119163778D01*
X181944413Y-119106291D01*
X181938525Y-119046500D01*
X181939399Y-119037623D01*
X181940001Y-119025371D01*
X181940001Y-118650999D01*
X181937599Y-118626613D01*
X181930486Y-118603164D01*
X181918935Y-118581553D01*
X181903390Y-118562611D01*
X181884448Y-118547066D01*
X181862837Y-118535515D01*
X181839388Y-118528402D01*
X181815002Y-118526000D01*
X177340999Y-118526000D01*
X177316613Y-118528402D01*
X177293164Y-118535515D01*
X177271553Y-118547066D01*
X177252611Y-118562611D01*
X177237066Y-118581553D01*
X177225515Y-118603164D01*
X177218402Y-118626613D01*
X177216000Y-118650999D01*
X177216000Y-119025381D01*
X177216602Y-119037633D01*
X177217475Y-119046500D01*
X177211587Y-119106291D01*
X177194148Y-119163778D01*
X177194146Y-119163783D01*
X177172613Y-119204068D01*
X177165823Y-119216771D01*
X177127711Y-119263211D01*
X177081271Y-119301323D01*
X177081269Y-119301324D01*
X177081268Y-119301325D01*
X177028283Y-119329646D01*
X177028280Y-119329647D01*
X177028278Y-119329648D01*
X176970791Y-119347087D01*
X176919867Y-119352102D01*
X176911000Y-119352975D01*
X176902133Y-119352102D01*
X176889881Y-119351500D01*
X172832021Y-119351500D01*
X172787209Y-119347087D01*
X172729722Y-119329648D01*
X172729720Y-119329647D01*
X172729717Y-119329646D01*
X172676732Y-119301325D01*
X172676731Y-119301324D01*
X172676729Y-119301323D01*
X172630289Y-119263211D01*
X172592177Y-119216771D01*
X172585387Y-119204068D01*
X172563854Y-119163783D01*
X172563852Y-119163778D01*
X172546413Y-119106291D01*
X172540525Y-119046500D01*
X172541399Y-119037623D01*
X172542001Y-119025371D01*
X172542001Y-114189103D01*
X172539599Y-114164717D01*
X172532486Y-114141268D01*
X172520935Y-114119657D01*
X172505390Y-114100715D01*
X172486448Y-114085170D01*
X172464837Y-114073619D01*
X172453287Y-114069486D01*
X172329207Y-114031847D01*
X172210037Y-113968149D01*
X172105578Y-113882423D01*
X172019852Y-113777964D01*
X171956154Y-113658795D01*
X171916927Y-113529478D01*
X171907001Y-113428700D01*
X171907000Y-109551301D01*
X171916926Y-109450523D01*
X171916927Y-109450521D01*
X171956152Y-109321210D01*
X171956153Y-109321206D01*
X172019851Y-109202037D01*
X172105578Y-109097577D01*
X172210036Y-109011851D01*
X172329206Y-108948153D01*
X172453286Y-108910514D01*
X172475925Y-108901136D01*
X172496299Y-108887523D01*
X172513626Y-108870196D01*
X172527240Y-108849821D01*
X172536617Y-108827183D01*
X172541398Y-108803149D01*
X172542000Y-108790897D01*
X172542000Y-104363499D01*
X173152000Y-104363499D01*
X173152000Y-109144255D01*
X173154402Y-109168641D01*
X173161515Y-109192090D01*
X173166760Y-109203179D01*
X173229847Y-109321206D01*
X173269074Y-109450522D01*
X173279000Y-109551300D01*
X173279000Y-113428700D01*
X173269074Y-113529478D01*
X173229847Y-113658794D01*
X173166760Y-113776821D01*
X173157383Y-113799459D01*
X173152602Y-113823493D01*
X173152000Y-113835745D01*
X173152000Y-118616501D01*
X173154402Y-118640887D01*
X173161515Y-118664336D01*
X173173066Y-118685947D01*
X173188611Y-118704889D01*
X173207553Y-118720434D01*
X173229164Y-118731985D01*
X173252613Y-118739098D01*
X173276999Y-118741500D01*
X176481001Y-118741500D01*
X176505387Y-118739098D01*
X176528836Y-118731985D01*
X176550447Y-118720434D01*
X176569389Y-118704889D01*
X176584934Y-118685947D01*
X176596485Y-118664336D01*
X176603598Y-118640887D01*
X176606000Y-118616501D01*
X176606000Y-118242120D01*
X176605398Y-118229869D01*
X176604525Y-118221000D01*
X176610413Y-118161209D01*
X176627852Y-118103722D01*
X176627854Y-118103718D01*
X176627854Y-118103717D01*
X176656175Y-118050732D01*
X176694289Y-118004289D01*
X176740729Y-117966177D01*
X176740731Y-117966176D01*
X176740732Y-117966175D01*
X176793717Y-117937854D01*
X176793720Y-117937853D01*
X176793722Y-117937852D01*
X176851209Y-117920413D01*
X176902133Y-117915398D01*
X176911000Y-117914525D01*
X176919867Y-117915398D01*
X176932119Y-117916000D01*
X182223881Y-117916000D01*
X182236133Y-117915398D01*
X182245000Y-117914525D01*
X182253867Y-117915398D01*
X182304791Y-117920413D01*
X182362278Y-117937852D01*
X182362280Y-117937853D01*
X182362283Y-117937854D01*
X182415268Y-117966175D01*
X182415269Y-117966176D01*
X182415271Y-117966177D01*
X182461711Y-118004289D01*
X182499825Y-118050732D01*
X182528146Y-118103717D01*
X182528146Y-118103718D01*
X182528148Y-118103722D01*
X182545587Y-118161209D01*
X182551475Y-118221000D01*
X182550602Y-118229867D01*
X182550000Y-118242119D01*
X182550000Y-118616501D01*
X182552402Y-118640887D01*
X182559515Y-118664336D01*
X182571066Y-118685947D01*
X182586611Y-118704889D01*
X182605553Y-118720434D01*
X182627164Y-118731985D01*
X182650613Y-118739098D01*
X182674999Y-118741500D01*
X185879002Y-118741500D01*
X185903388Y-118739098D01*
X185926837Y-118731985D01*
X185948448Y-118720434D01*
X185967390Y-118704889D01*
X185982935Y-118685947D01*
X185994486Y-118664336D01*
X186001599Y-118640887D01*
X186004001Y-118616501D01*
X186004001Y-113835745D01*
X186001599Y-113811359D01*
X185994486Y-113787910D01*
X185989241Y-113776821D01*
X185926154Y-113658794D01*
X185886927Y-113529478D01*
X185877001Y-113428700D01*
X185877000Y-109551301D01*
X185886926Y-109450523D01*
X185886927Y-109450521D01*
X185926152Y-109321210D01*
X185926153Y-109321206D01*
X185989240Y-109203179D01*
X185998618Y-109180540D01*
X186004000Y-109144255D01*
X186004000Y-104363499D01*
X186001598Y-104339113D01*
X185994485Y-104315664D01*
X185982934Y-104294053D01*
X185967389Y-104275111D01*
X185948447Y-104259566D01*
X185926836Y-104248015D01*
X185903387Y-104240902D01*
X185879001Y-104238500D01*
X182674999Y-104238500D01*
X182650613Y-104240902D01*
X182627164Y-104248015D01*
X182605553Y-104259566D01*
X182586611Y-104275111D01*
X182571066Y-104294053D01*
X182559515Y-104315664D01*
X182552402Y-104339113D01*
X182550000Y-104363499D01*
X182550000Y-104737881D01*
X182550602Y-104750133D01*
X182551475Y-104759000D01*
X182545587Y-104818791D01*
X182528148Y-104876278D01*
X182528146Y-104876283D01*
X182499825Y-104929268D01*
X182499823Y-104929271D01*
X182461711Y-104975711D01*
X182415271Y-105013823D01*
X182415269Y-105013824D01*
X182415268Y-105013825D01*
X182362283Y-105042146D01*
X182362280Y-105042147D01*
X182362278Y-105042148D01*
X182304791Y-105059587D01*
X182253867Y-105064602D01*
X182245000Y-105065475D01*
X182236133Y-105064602D01*
X182223881Y-105064000D01*
X176932119Y-105064000D01*
X176919867Y-105064602D01*
X176911000Y-105065475D01*
X176902133Y-105064602D01*
X176851209Y-105059587D01*
X176793722Y-105042148D01*
X176793720Y-105042147D01*
X176793717Y-105042146D01*
X176740732Y-105013825D01*
X176740731Y-105013824D01*
X176740729Y-105013823D01*
X176694289Y-104975711D01*
X176656177Y-104929271D01*
X176656175Y-104929268D01*
X176627854Y-104876283D01*
X176627852Y-104876278D01*
X176610413Y-104818791D01*
X176604525Y-104759000D01*
X176605399Y-104750123D01*
X176606001Y-104737871D01*
X176606001Y-104363499D01*
X176603599Y-104339113D01*
X176596486Y-104315664D01*
X176584935Y-104294053D01*
X176569390Y-104275111D01*
X176550448Y-104259566D01*
X176528837Y-104248015D01*
X176505388Y-104240902D01*
X176481002Y-104238500D01*
X173276999Y-104238500D01*
X173252613Y-104240902D01*
X173229164Y-104248015D01*
X173207553Y-104259566D01*
X173188611Y-104275111D01*
X173173066Y-104294053D01*
X173161515Y-104315664D01*
X173154402Y-104339113D01*
X173152000Y-104363499D01*
X172542000Y-104363499D01*
X172542000Y-103954619D01*
X172541398Y-103942367D01*
X172540525Y-103933500D01*
X172546413Y-103873709D01*
X172563852Y-103816222D01*
X172563854Y-103816218D01*
X172563854Y-103816217D01*
X172592175Y-103763232D01*
X172619867Y-103729489D01*
X172630289Y-103716789D01*
X172676729Y-103678677D01*
X172676731Y-103678676D01*
X172676732Y-103678675D01*
X172729717Y-103650354D01*
X172729720Y-103650353D01*
X172729722Y-103650352D01*
X172787209Y-103632913D01*
X172832021Y-103628500D01*
X176889881Y-103628500D01*
X176902133Y-103627898D01*
X176911000Y-103627025D01*
X176919867Y-103627898D01*
X176970791Y-103632913D01*
X177028278Y-103650352D01*
X177028280Y-103650353D01*
X177028283Y-103650354D01*
X177081268Y-103678675D01*
X177081269Y-103678676D01*
X177081271Y-103678677D01*
X177127711Y-103716789D01*
X177138134Y-103729489D01*
X177165825Y-103763232D01*
X177194146Y-103816217D01*
X177194146Y-103816218D01*
X177194148Y-103816222D01*
X177211587Y-103873709D01*
X177217475Y-103933500D01*
X177216602Y-103942367D01*
X177216000Y-103954619D01*
X177216000Y-104329001D01*
X177218402Y-104353387D01*
X177225515Y-104376836D01*
X177237066Y-104398447D01*
X177252611Y-104417389D01*
X177271553Y-104432934D01*
X177293164Y-104444485D01*
X177316613Y-104451598D01*
X177340999Y-104454000D01*
X181815001Y-104454000D01*
X181839387Y-104451598D01*
X181862836Y-104444485D01*
X181884447Y-104432934D01*
X181903389Y-104417389D01*
X181918934Y-104398447D01*
X181930485Y-104376836D01*
X181937598Y-104353387D01*
X181940000Y-104329001D01*
X181940000Y-103954620D01*
X181939398Y-103942369D01*
X181938525Y-103933500D01*
X181944413Y-103873709D01*
X181961852Y-103816222D01*
X181961854Y-103816218D01*
X181961854Y-103816217D01*
X181990175Y-103763232D01*
X182017867Y-103729489D01*
X182028289Y-103716789D01*
X182074729Y-103678677D01*
X182074731Y-103678676D01*
X182074732Y-103678675D01*
X182127717Y-103650354D01*
X182127720Y-103650353D01*
X182127722Y-103650352D01*
X182185209Y-103632913D01*
X182236133Y-103627898D01*
X182245000Y-103627025D01*
X182253867Y-103627898D01*
X182253867Y-103627898D01*
G37*
G36*
X209719241Y-99680760D02*
G01*
X209983305Y-99790139D01*
X210220958Y-99948934D01*
X210423066Y-100151042D01*
X210581861Y-100388695D01*
X210691240Y-100652759D01*
X210747000Y-100933088D01*
X210747000Y-101218912D01*
X210691240Y-101499241D01*
X210581861Y-101763305D01*
X210423066Y-102000958D01*
X210220958Y-102203066D01*
X209983305Y-102361861D01*
X209719241Y-102471240D01*
X209438912Y-102527000D01*
X209153088Y-102527000D01*
X208872759Y-102471240D01*
X208608695Y-102361861D01*
X208371042Y-102203066D01*
X208168934Y-102000958D01*
X208010139Y-101763305D01*
X207900760Y-101499241D01*
X207845000Y-101218912D01*
X207845000Y-100933088D01*
X207900760Y-100652759D01*
X208010139Y-100388695D01*
X208168934Y-100151042D01*
X208371042Y-99948934D01*
X208608695Y-99790139D01*
X208872759Y-99680760D01*
X209153088Y-99625000D01*
X209438912Y-99625000D01*
X209719241Y-99680760D01*
X209719241Y-99680760D01*
G37*
G36*
X130471241Y-99680760D02*
G01*
X130735305Y-99790139D01*
X130972958Y-99948934D01*
X131175066Y-100151042D01*
X131333861Y-100388695D01*
X131443240Y-100652759D01*
X131499000Y-100933088D01*
X131499000Y-101218912D01*
X131443240Y-101499241D01*
X131333861Y-101763305D01*
X131175066Y-102000958D01*
X130972958Y-102203066D01*
X130735305Y-102361861D01*
X130471241Y-102471240D01*
X130190912Y-102527000D01*
X129905088Y-102527000D01*
X129624759Y-102471240D01*
X129360695Y-102361861D01*
X129123042Y-102203066D01*
X128920934Y-102000958D01*
X128762139Y-101763305D01*
X128652760Y-101499241D01*
X128597000Y-101218912D01*
X128597000Y-100933088D01*
X128652760Y-100652759D01*
X128762139Y-100388695D01*
X128920934Y-100151042D01*
X129123042Y-99948934D01*
X129360695Y-99790139D01*
X129624759Y-99680760D01*
X129905088Y-99625000D01*
X130190912Y-99625000D01*
X130471241Y-99680760D01*
X130471241Y-99680760D01*
G37*
G36*
X190375714Y-95838389D02*
G01*
X190456645Y-95871912D01*
X190529480Y-95920579D01*
X190591421Y-95982520D01*
X190640088Y-96055355D01*
X190673611Y-96136286D01*
X190690700Y-96222201D01*
X190690700Y-96309799D01*
X190673611Y-96395714D01*
X190640088Y-96476645D01*
X190591421Y-96549480D01*
X190529480Y-96611421D01*
X190456645Y-96660088D01*
X190456644Y-96660089D01*
X190456643Y-96660089D01*
X190375714Y-96693611D01*
X190289801Y-96710700D01*
X190202199Y-96710700D01*
X190116286Y-96693611D01*
X190035357Y-96660089D01*
X190035356Y-96660089D01*
X190035355Y-96660088D01*
X189962520Y-96611421D01*
X189900579Y-96549480D01*
X189851912Y-96476645D01*
X189818389Y-96395714D01*
X189801300Y-96309799D01*
X189801300Y-96222201D01*
X189818389Y-96136286D01*
X189851912Y-96055355D01*
X189900579Y-95982520D01*
X189962520Y-95920579D01*
X190035355Y-95871912D01*
X190116286Y-95838389D01*
X190202199Y-95821300D01*
X190289801Y-95821300D01*
X190375714Y-95838389D01*
X190375714Y-95838389D01*
G37*
G36*
X147449714Y-95838389D02*
G01*
X147530645Y-95871912D01*
X147603480Y-95920579D01*
X147665421Y-95982520D01*
X147714088Y-96055355D01*
X147747611Y-96136286D01*
X147764700Y-96222201D01*
X147764700Y-96309799D01*
X147747611Y-96395714D01*
X147714088Y-96476645D01*
X147665421Y-96549480D01*
X147603480Y-96611421D01*
X147530645Y-96660088D01*
X147530644Y-96660089D01*
X147530643Y-96660089D01*
X147449714Y-96693611D01*
X147363801Y-96710700D01*
X147276199Y-96710700D01*
X147190286Y-96693611D01*
X147109357Y-96660089D01*
X147109356Y-96660089D01*
X147109355Y-96660088D01*
X147036520Y-96611421D01*
X146974579Y-96549480D01*
X146925912Y-96476645D01*
X146892389Y-96395714D01*
X146875300Y-96309799D01*
X146875300Y-96222201D01*
X146892389Y-96136286D01*
X146925912Y-96055355D01*
X146974579Y-95982520D01*
X147036520Y-95920579D01*
X147109355Y-95871912D01*
X147190286Y-95838389D01*
X147276199Y-95821300D01*
X147363801Y-95821300D01*
X147449714Y-95838389D01*
X147449714Y-95838389D01*
G37*
G36*
X146179714Y-95838389D02*
G01*
X146260645Y-95871912D01*
X146333480Y-95920579D01*
X146395421Y-95982520D01*
X146444088Y-96055355D01*
X146477611Y-96136286D01*
X146494700Y-96222201D01*
X146494700Y-96309799D01*
X146477611Y-96395714D01*
X146444088Y-96476645D01*
X146395421Y-96549480D01*
X146333480Y-96611421D01*
X146260645Y-96660088D01*
X146260644Y-96660089D01*
X146260643Y-96660089D01*
X146179714Y-96693611D01*
X146093801Y-96710700D01*
X146006199Y-96710700D01*
X145920286Y-96693611D01*
X145839357Y-96660089D01*
X145839356Y-96660089D01*
X145839355Y-96660088D01*
X145766520Y-96611421D01*
X145704579Y-96549480D01*
X145655912Y-96476645D01*
X145622389Y-96395714D01*
X145605300Y-96309799D01*
X145605300Y-96222201D01*
X145622389Y-96136286D01*
X145655912Y-96055355D01*
X145704579Y-95982520D01*
X145766520Y-95920579D01*
X145839355Y-95871912D01*
X145920286Y-95838389D01*
X146006199Y-95821300D01*
X146093801Y-95821300D01*
X146179714Y-95838389D01*
X146179714Y-95838389D01*
G37*
G36*
X144909714Y-95838389D02*
G01*
X144990645Y-95871912D01*
X145063480Y-95920579D01*
X145125421Y-95982520D01*
X145174088Y-96055355D01*
X145207611Y-96136286D01*
X145224700Y-96222201D01*
X145224700Y-96309799D01*
X145207611Y-96395714D01*
X145174088Y-96476645D01*
X145125421Y-96549480D01*
X145063480Y-96611421D01*
X144990645Y-96660088D01*
X144990644Y-96660089D01*
X144990643Y-96660089D01*
X144909714Y-96693611D01*
X144823801Y-96710700D01*
X144736199Y-96710700D01*
X144650286Y-96693611D01*
X144569357Y-96660089D01*
X144569356Y-96660089D01*
X144569355Y-96660088D01*
X144496520Y-96611421D01*
X144434579Y-96549480D01*
X144385912Y-96476645D01*
X144352389Y-96395714D01*
X144335300Y-96309799D01*
X144335300Y-96222201D01*
X144352389Y-96136286D01*
X144385912Y-96055355D01*
X144434579Y-95982520D01*
X144496520Y-95920579D01*
X144569355Y-95871912D01*
X144650286Y-95838389D01*
X144736199Y-95821300D01*
X144823801Y-95821300D01*
X144909714Y-95838389D01*
X144909714Y-95838389D01*
G37*
G36*
X148719714Y-95838389D02*
G01*
X148800645Y-95871912D01*
X148873480Y-95920579D01*
X148935421Y-95982520D01*
X148984088Y-96055355D01*
X149017611Y-96136286D01*
X149034700Y-96222201D01*
X149034700Y-96309799D01*
X149017611Y-96395714D01*
X148984088Y-96476645D01*
X148935421Y-96549480D01*
X148873480Y-96611421D01*
X148800645Y-96660088D01*
X148800644Y-96660089D01*
X148800643Y-96660089D01*
X148719714Y-96693611D01*
X148633801Y-96710700D01*
X148546199Y-96710700D01*
X148460286Y-96693611D01*
X148379357Y-96660089D01*
X148379356Y-96660089D01*
X148379355Y-96660088D01*
X148306520Y-96611421D01*
X148244579Y-96549480D01*
X148195912Y-96476645D01*
X148162389Y-96395714D01*
X148145300Y-96309799D01*
X148145300Y-96222201D01*
X148162389Y-96136286D01*
X148195912Y-96055355D01*
X148244579Y-95982520D01*
X148306520Y-95920579D01*
X148379355Y-95871912D01*
X148460286Y-95838389D01*
X148546199Y-95821300D01*
X148633801Y-95821300D01*
X148719714Y-95838389D01*
X148719714Y-95838389D01*
G37*
G36*
X149989714Y-95838389D02*
G01*
X150070645Y-95871912D01*
X150143480Y-95920579D01*
X150205421Y-95982520D01*
X150254088Y-96055355D01*
X150287611Y-96136286D01*
X150304700Y-96222201D01*
X150304700Y-96309799D01*
X150287611Y-96395714D01*
X150254088Y-96476645D01*
X150205421Y-96549480D01*
X150143480Y-96611421D01*
X150070645Y-96660088D01*
X150070644Y-96660089D01*
X150070643Y-96660089D01*
X149989714Y-96693611D01*
X149903801Y-96710700D01*
X149816199Y-96710700D01*
X149730286Y-96693611D01*
X149649357Y-96660089D01*
X149649356Y-96660089D01*
X149649355Y-96660088D01*
X149576520Y-96611421D01*
X149514579Y-96549480D01*
X149465912Y-96476645D01*
X149432389Y-96395714D01*
X149415300Y-96309799D01*
X149415300Y-96222201D01*
X149432389Y-96136286D01*
X149465912Y-96055355D01*
X149514579Y-95982520D01*
X149576520Y-95920579D01*
X149649355Y-95871912D01*
X149730286Y-95838389D01*
X149816199Y-95821300D01*
X149903801Y-95821300D01*
X149989714Y-95838389D01*
X149989714Y-95838389D01*
G37*
G36*
X191645714Y-95838389D02*
G01*
X191726645Y-95871912D01*
X191799480Y-95920579D01*
X191861421Y-95982520D01*
X191910088Y-96055355D01*
X191943611Y-96136286D01*
X191960700Y-96222201D01*
X191960700Y-96309799D01*
X191943611Y-96395714D01*
X191910088Y-96476645D01*
X191861421Y-96549480D01*
X191799480Y-96611421D01*
X191726645Y-96660088D01*
X191726644Y-96660089D01*
X191726643Y-96660089D01*
X191645714Y-96693611D01*
X191559801Y-96710700D01*
X191472199Y-96710700D01*
X191386286Y-96693611D01*
X191305357Y-96660089D01*
X191305356Y-96660089D01*
X191305355Y-96660088D01*
X191232520Y-96611421D01*
X191170579Y-96549480D01*
X191121912Y-96476645D01*
X191088389Y-96395714D01*
X191071300Y-96309799D01*
X191071300Y-96222201D01*
X191088389Y-96136286D01*
X191121912Y-96055355D01*
X191170579Y-95982520D01*
X191232520Y-95920579D01*
X191305355Y-95871912D01*
X191386286Y-95838389D01*
X191472199Y-95821300D01*
X191559801Y-95821300D01*
X191645714Y-95838389D01*
X191645714Y-95838389D01*
G37*
G36*
X192915714Y-95838389D02*
G01*
X192996645Y-95871912D01*
X193069480Y-95920579D01*
X193131421Y-95982520D01*
X193180088Y-96055355D01*
X193213611Y-96136286D01*
X193230700Y-96222201D01*
X193230700Y-96309799D01*
X193213611Y-96395714D01*
X193180088Y-96476645D01*
X193131421Y-96549480D01*
X193069480Y-96611421D01*
X192996645Y-96660088D01*
X192996644Y-96660089D01*
X192996643Y-96660089D01*
X192915714Y-96693611D01*
X192829801Y-96710700D01*
X192742199Y-96710700D01*
X192656286Y-96693611D01*
X192575357Y-96660089D01*
X192575356Y-96660089D01*
X192575355Y-96660088D01*
X192502520Y-96611421D01*
X192440579Y-96549480D01*
X192391912Y-96476645D01*
X192358389Y-96395714D01*
X192341300Y-96309799D01*
X192341300Y-96222201D01*
X192358389Y-96136286D01*
X192391912Y-96055355D01*
X192440579Y-95982520D01*
X192502520Y-95920579D01*
X192575355Y-95871912D01*
X192656286Y-95838389D01*
X192742199Y-95821300D01*
X192829801Y-95821300D01*
X192915714Y-95838389D01*
X192915714Y-95838389D01*
G37*
G36*
X194185714Y-95838389D02*
G01*
X194266645Y-95871912D01*
X194339480Y-95920579D01*
X194401421Y-95982520D01*
X194450088Y-96055355D01*
X194483611Y-96136286D01*
X194500700Y-96222201D01*
X194500700Y-96309799D01*
X194483611Y-96395714D01*
X194450088Y-96476645D01*
X194401421Y-96549480D01*
X194339480Y-96611421D01*
X194266645Y-96660088D01*
X194266644Y-96660089D01*
X194266643Y-96660089D01*
X194185714Y-96693611D01*
X194099801Y-96710700D01*
X194012199Y-96710700D01*
X193926286Y-96693611D01*
X193845357Y-96660089D01*
X193845356Y-96660089D01*
X193845355Y-96660088D01*
X193772520Y-96611421D01*
X193710579Y-96549480D01*
X193661912Y-96476645D01*
X193628389Y-96395714D01*
X193611300Y-96309799D01*
X193611300Y-96222201D01*
X193628389Y-96136286D01*
X193661912Y-96055355D01*
X193710579Y-95982520D01*
X193772520Y-95920579D01*
X193845355Y-95871912D01*
X193926286Y-95838389D01*
X194012199Y-95821300D01*
X194099801Y-95821300D01*
X194185714Y-95838389D01*
X194185714Y-95838389D01*
G37*
G36*
X195455714Y-95838389D02*
G01*
X195536645Y-95871912D01*
X195609480Y-95920579D01*
X195671421Y-95982520D01*
X195720088Y-96055355D01*
X195753611Y-96136286D01*
X195770700Y-96222201D01*
X195770700Y-96309799D01*
X195753611Y-96395714D01*
X195720088Y-96476645D01*
X195671421Y-96549480D01*
X195609480Y-96611421D01*
X195536645Y-96660088D01*
X195536644Y-96660089D01*
X195536643Y-96660089D01*
X195455714Y-96693611D01*
X195369801Y-96710700D01*
X195282199Y-96710700D01*
X195196286Y-96693611D01*
X195115357Y-96660089D01*
X195115356Y-96660089D01*
X195115355Y-96660088D01*
X195042520Y-96611421D01*
X194980579Y-96549480D01*
X194931912Y-96476645D01*
X194898389Y-96395714D01*
X194881300Y-96309799D01*
X194881300Y-96222201D01*
X194898389Y-96136286D01*
X194931912Y-96055355D01*
X194980579Y-95982520D01*
X195042520Y-95920579D01*
X195115355Y-95871912D01*
X195196286Y-95838389D01*
X195282199Y-95821300D01*
X195369801Y-95821300D01*
X195455714Y-95838389D01*
X195455714Y-95838389D01*
G37*
G36*
X151378228Y-93161703D02*
G01*
X151533100Y-93225853D01*
X151672481Y-93318985D01*
X151791015Y-93437519D01*
X151884147Y-93576900D01*
X151948297Y-93731772D01*
X151981000Y-93896184D01*
X151981000Y-94063816D01*
X151948297Y-94228228D01*
X151884147Y-94383100D01*
X151791015Y-94522481D01*
X151672481Y-94641015D01*
X151533100Y-94734147D01*
X151378228Y-94798297D01*
X151213816Y-94831000D01*
X151046184Y-94831000D01*
X150881772Y-94798297D01*
X150726900Y-94734147D01*
X150587519Y-94641015D01*
X150468985Y-94522481D01*
X150375853Y-94383100D01*
X150311703Y-94228228D01*
X150279000Y-94063816D01*
X150279000Y-93896184D01*
X150311703Y-93731772D01*
X150375853Y-93576900D01*
X150468985Y-93437519D01*
X150587519Y-93318985D01*
X150726900Y-93225853D01*
X150881772Y-93161703D01*
X151046184Y-93129000D01*
X151213816Y-93129000D01*
X151378228Y-93161703D01*
X151378228Y-93161703D01*
G37*
G36*
X153918228Y-93161703D02*
G01*
X154073100Y-93225853D01*
X154212481Y-93318985D01*
X154331015Y-93437519D01*
X154424147Y-93576900D01*
X154488297Y-93731772D01*
X154521000Y-93896184D01*
X154521000Y-94063816D01*
X154488297Y-94228228D01*
X154424147Y-94383100D01*
X154331015Y-94522481D01*
X154212481Y-94641015D01*
X154073100Y-94734147D01*
X153918228Y-94798297D01*
X153753816Y-94831000D01*
X153586184Y-94831000D01*
X153421772Y-94798297D01*
X153266900Y-94734147D01*
X153127519Y-94641015D01*
X153008985Y-94522481D01*
X152915853Y-94383100D01*
X152851703Y-94228228D01*
X152819000Y-94063816D01*
X152819000Y-93896184D01*
X152851703Y-93731772D01*
X152915853Y-93576900D01*
X153008985Y-93437519D01*
X153127519Y-93318985D01*
X153266900Y-93225853D01*
X153421772Y-93161703D01*
X153586184Y-93129000D01*
X153753816Y-93129000D01*
X153918228Y-93161703D01*
X153918228Y-93161703D01*
G37*
G36*
X164078228Y-93161703D02*
G01*
X164233100Y-93225853D01*
X164372481Y-93318985D01*
X164491015Y-93437519D01*
X164584147Y-93576900D01*
X164648297Y-93731772D01*
X164681000Y-93896184D01*
X164681000Y-94063816D01*
X164648297Y-94228228D01*
X164584147Y-94383100D01*
X164491015Y-94522481D01*
X164372481Y-94641015D01*
X164233100Y-94734147D01*
X164078228Y-94798297D01*
X163913816Y-94831000D01*
X163746184Y-94831000D01*
X163581772Y-94798297D01*
X163426900Y-94734147D01*
X163287519Y-94641015D01*
X163168985Y-94522481D01*
X163075853Y-94383100D01*
X163011703Y-94228228D01*
X162979000Y-94063816D01*
X162979000Y-93896184D01*
X163011703Y-93731772D01*
X163075853Y-93576900D01*
X163168985Y-93437519D01*
X163287519Y-93318985D01*
X163426900Y-93225853D01*
X163581772Y-93161703D01*
X163746184Y-93129000D01*
X163913816Y-93129000D01*
X164078228Y-93161703D01*
X164078228Y-93161703D01*
G37*
G36*
X161538228Y-93161703D02*
G01*
X161693100Y-93225853D01*
X161832481Y-93318985D01*
X161951015Y-93437519D01*
X162044147Y-93576900D01*
X162108297Y-93731772D01*
X162141000Y-93896184D01*
X162141000Y-94063816D01*
X162108297Y-94228228D01*
X162044147Y-94383100D01*
X161951015Y-94522481D01*
X161832481Y-94641015D01*
X161693100Y-94734147D01*
X161538228Y-94798297D01*
X161373816Y-94831000D01*
X161206184Y-94831000D01*
X161041772Y-94798297D01*
X160886900Y-94734147D01*
X160747519Y-94641015D01*
X160628985Y-94522481D01*
X160535853Y-94383100D01*
X160471703Y-94228228D01*
X160439000Y-94063816D01*
X160439000Y-93896184D01*
X160471703Y-93731772D01*
X160535853Y-93576900D01*
X160628985Y-93437519D01*
X160747519Y-93318985D01*
X160886900Y-93225853D01*
X161041772Y-93161703D01*
X161206184Y-93129000D01*
X161373816Y-93129000D01*
X161538228Y-93161703D01*
X161538228Y-93161703D01*
G37*
G36*
X158998228Y-93161703D02*
G01*
X159153100Y-93225853D01*
X159292481Y-93318985D01*
X159411015Y-93437519D01*
X159504147Y-93576900D01*
X159568297Y-93731772D01*
X159601000Y-93896184D01*
X159601000Y-94063816D01*
X159568297Y-94228228D01*
X159504147Y-94383100D01*
X159411015Y-94522481D01*
X159292481Y-94641015D01*
X159153100Y-94734147D01*
X158998228Y-94798297D01*
X158833816Y-94831000D01*
X158666184Y-94831000D01*
X158501772Y-94798297D01*
X158346900Y-94734147D01*
X158207519Y-94641015D01*
X158088985Y-94522481D01*
X157995853Y-94383100D01*
X157931703Y-94228228D01*
X157899000Y-94063816D01*
X157899000Y-93896184D01*
X157931703Y-93731772D01*
X157995853Y-93576900D01*
X158088985Y-93437519D01*
X158207519Y-93318985D01*
X158346900Y-93225853D01*
X158501772Y-93161703D01*
X158666184Y-93129000D01*
X158833816Y-93129000D01*
X158998228Y-93161703D01*
X158998228Y-93161703D01*
G37*
G36*
X156458228Y-93161703D02*
G01*
X156613100Y-93225853D01*
X156752481Y-93318985D01*
X156871015Y-93437519D01*
X156964147Y-93576900D01*
X157028297Y-93731772D01*
X157061000Y-93896184D01*
X157061000Y-94063816D01*
X157028297Y-94228228D01*
X156964147Y-94383100D01*
X156871015Y-94522481D01*
X156752481Y-94641015D01*
X156613100Y-94734147D01*
X156458228Y-94798297D01*
X156293816Y-94831000D01*
X156126184Y-94831000D01*
X155961772Y-94798297D01*
X155806900Y-94734147D01*
X155667519Y-94641015D01*
X155548985Y-94522481D01*
X155455853Y-94383100D01*
X155391703Y-94228228D01*
X155359000Y-94063816D01*
X155359000Y-93896184D01*
X155391703Y-93731772D01*
X155455853Y-93576900D01*
X155548985Y-93437519D01*
X155667519Y-93318985D01*
X155806900Y-93225853D01*
X155961772Y-93161703D01*
X156126184Y-93129000D01*
X156293816Y-93129000D01*
X156458228Y-93161703D01*
X156458228Y-93161703D01*
G37*
G36*
X148838228Y-93161703D02*
G01*
X148993100Y-93225853D01*
X149132481Y-93318985D01*
X149251015Y-93437519D01*
X149344147Y-93576900D01*
X149408297Y-93731772D01*
X149441000Y-93896184D01*
X149441000Y-94063816D01*
X149408297Y-94228228D01*
X149344147Y-94383100D01*
X149251015Y-94522481D01*
X149132481Y-94641015D01*
X148993100Y-94734147D01*
X148838228Y-94798297D01*
X148673816Y-94831000D01*
X148506184Y-94831000D01*
X148341772Y-94798297D01*
X148186900Y-94734147D01*
X148047519Y-94641015D01*
X147928985Y-94522481D01*
X147835853Y-94383100D01*
X147771703Y-94228228D01*
X147739000Y-94063816D01*
X147739000Y-93896184D01*
X147771703Y-93731772D01*
X147835853Y-93576900D01*
X147928985Y-93437519D01*
X148047519Y-93318985D01*
X148186900Y-93225853D01*
X148341772Y-93161703D01*
X148506184Y-93129000D01*
X148673816Y-93129000D01*
X148838228Y-93161703D01*
X148838228Y-93161703D01*
G37*
G36*
X146298228Y-93161703D02*
G01*
X146453100Y-93225853D01*
X146592481Y-93318985D01*
X146711015Y-93437519D01*
X146804147Y-93576900D01*
X146868297Y-93731772D01*
X146901000Y-93896184D01*
X146901000Y-94063816D01*
X146868297Y-94228228D01*
X146804147Y-94383100D01*
X146711015Y-94522481D01*
X146592481Y-94641015D01*
X146453100Y-94734147D01*
X146298228Y-94798297D01*
X146133816Y-94831000D01*
X145966184Y-94831000D01*
X145801772Y-94798297D01*
X145646900Y-94734147D01*
X145507519Y-94641015D01*
X145388985Y-94522481D01*
X145295853Y-94383100D01*
X145231703Y-94228228D01*
X145199000Y-94063816D01*
X145199000Y-93896184D01*
X145231703Y-93731772D01*
X145295853Y-93576900D01*
X145388985Y-93437519D01*
X145507519Y-93318985D01*
X145646900Y-93225853D01*
X145801772Y-93161703D01*
X145966184Y-93129000D01*
X146133816Y-93129000D01*
X146298228Y-93161703D01*
X146298228Y-93161703D01*
G37*
G36*
X143758228Y-93161703D02*
G01*
X143913100Y-93225853D01*
X144052481Y-93318985D01*
X144171015Y-93437519D01*
X144264147Y-93576900D01*
X144328297Y-93731772D01*
X144361000Y-93896184D01*
X144361000Y-94063816D01*
X144328297Y-94228228D01*
X144264147Y-94383100D01*
X144171015Y-94522481D01*
X144052481Y-94641015D01*
X143913100Y-94734147D01*
X143758228Y-94798297D01*
X143593816Y-94831000D01*
X143426184Y-94831000D01*
X143261772Y-94798297D01*
X143106900Y-94734147D01*
X142967519Y-94641015D01*
X142848985Y-94522481D01*
X142755853Y-94383100D01*
X142691703Y-94228228D01*
X142659000Y-94063816D01*
X142659000Y-93896184D01*
X142691703Y-93731772D01*
X142755853Y-93576900D01*
X142848985Y-93437519D01*
X142967519Y-93318985D01*
X143106900Y-93225853D01*
X143261772Y-93161703D01*
X143426184Y-93129000D01*
X143593816Y-93129000D01*
X143758228Y-93161703D01*
X143758228Y-93161703D01*
G37*
G36*
X141218228Y-93161703D02*
G01*
X141373100Y-93225853D01*
X141512481Y-93318985D01*
X141631015Y-93437519D01*
X141724147Y-93576900D01*
X141788297Y-93731772D01*
X141821000Y-93896184D01*
X141821000Y-94063816D01*
X141788297Y-94228228D01*
X141724147Y-94383100D01*
X141631015Y-94522481D01*
X141512481Y-94641015D01*
X141373100Y-94734147D01*
X141218228Y-94798297D01*
X141053816Y-94831000D01*
X140886184Y-94831000D01*
X140721772Y-94798297D01*
X140566900Y-94734147D01*
X140427519Y-94641015D01*
X140308985Y-94522481D01*
X140215853Y-94383100D01*
X140151703Y-94228228D01*
X140119000Y-94063816D01*
X140119000Y-93896184D01*
X140151703Y-93731772D01*
X140215853Y-93576900D01*
X140308985Y-93437519D01*
X140427519Y-93318985D01*
X140566900Y-93225853D01*
X140721772Y-93161703D01*
X140886184Y-93129000D01*
X141053816Y-93129000D01*
X141218228Y-93161703D01*
X141218228Y-93161703D01*
G37*
G36*
X138678228Y-93161703D02*
G01*
X138833100Y-93225853D01*
X138972481Y-93318985D01*
X139091015Y-93437519D01*
X139184147Y-93576900D01*
X139248297Y-93731772D01*
X139281000Y-93896184D01*
X139281000Y-94063816D01*
X139248297Y-94228228D01*
X139184147Y-94383100D01*
X139091015Y-94522481D01*
X138972481Y-94641015D01*
X138833100Y-94734147D01*
X138678228Y-94798297D01*
X138513816Y-94831000D01*
X138346184Y-94831000D01*
X138181772Y-94798297D01*
X138026900Y-94734147D01*
X137887519Y-94641015D01*
X137768985Y-94522481D01*
X137675853Y-94383100D01*
X137611703Y-94228228D01*
X137579000Y-94063816D01*
X137579000Y-93896184D01*
X137611703Y-93731772D01*
X137675853Y-93576900D01*
X137768985Y-93437519D01*
X137887519Y-93318985D01*
X138026900Y-93225853D01*
X138181772Y-93161703D01*
X138346184Y-93129000D01*
X138513816Y-93129000D01*
X138678228Y-93161703D01*
X138678228Y-93161703D01*
G37*
G36*
X136741000Y-94831000D02*
G01*
X135039000Y-94831000D01*
X135039000Y-93129000D01*
X136741000Y-93129000D01*
X136741000Y-94831000D01*
X136741000Y-94831000D01*
G37*
G36*
X160703952Y-90555429D02*
G01*
X160791075Y-90572759D01*
X160900498Y-90618084D01*
X160955211Y-90640747D01*
X161033825Y-90693275D01*
X161102928Y-90739448D01*
X161228552Y-90865072D01*
X161228554Y-90865075D01*
X161327253Y-91012789D01*
X161327253Y-91012790D01*
X161395241Y-91176925D01*
X161429900Y-91351171D01*
X161429900Y-91528829D01*
X161395241Y-91703075D01*
X161349916Y-91812498D01*
X161327253Y-91867211D01*
X161229217Y-92013933D01*
X161228552Y-92014928D01*
X161102928Y-92140552D01*
X161102925Y-92140554D01*
X160955211Y-92239253D01*
X160900498Y-92261916D01*
X160791075Y-92307241D01*
X160703952Y-92324570D01*
X160616831Y-92341900D01*
X160439169Y-92341900D01*
X160352048Y-92324571D01*
X160264925Y-92307241D01*
X160155502Y-92261916D01*
X160100789Y-92239253D01*
X159953075Y-92140554D01*
X159953072Y-92140552D01*
X159827448Y-92014928D01*
X159826783Y-92013933D01*
X159728747Y-91867211D01*
X159706084Y-91812498D01*
X159660759Y-91703075D01*
X159626100Y-91528829D01*
X159626100Y-91351171D01*
X159660759Y-91176925D01*
X159728747Y-91012790D01*
X159728747Y-91012789D01*
X159827446Y-90865075D01*
X159827448Y-90865072D01*
X159953072Y-90739448D01*
X160022175Y-90693275D01*
X160100789Y-90640747D01*
X160155502Y-90618084D01*
X160264925Y-90572759D01*
X160352048Y-90555430D01*
X160439169Y-90538100D01*
X160616831Y-90538100D01*
X160703952Y-90555429D01*
X160703952Y-90555429D01*
G37*
G36*
X141653952Y-90555429D02*
G01*
X141741075Y-90572759D01*
X141850498Y-90618084D01*
X141905211Y-90640747D01*
X141983825Y-90693275D01*
X142052928Y-90739448D01*
X142178552Y-90865072D01*
X142178554Y-90865075D01*
X142277253Y-91012789D01*
X142277253Y-91012790D01*
X142345241Y-91176925D01*
X142379900Y-91351171D01*
X142379900Y-91528829D01*
X142345241Y-91703075D01*
X142299916Y-91812498D01*
X142277253Y-91867211D01*
X142179217Y-92013933D01*
X142178552Y-92014928D01*
X142052928Y-92140552D01*
X142052925Y-92140554D01*
X141905211Y-92239253D01*
X141850498Y-92261916D01*
X141741075Y-92307241D01*
X141653952Y-92324570D01*
X141566831Y-92341900D01*
X141389169Y-92341900D01*
X141302048Y-92324571D01*
X141214925Y-92307241D01*
X141105502Y-92261916D01*
X141050789Y-92239253D01*
X140903075Y-92140554D01*
X140903072Y-92140552D01*
X140777448Y-92014928D01*
X140776783Y-92013933D01*
X140678747Y-91867211D01*
X140656084Y-91812498D01*
X140610759Y-91703075D01*
X140576100Y-91528829D01*
X140576100Y-91351171D01*
X140610759Y-91176925D01*
X140678747Y-91012790D01*
X140678747Y-91012789D01*
X140777446Y-90865075D01*
X140777448Y-90865072D01*
X140903072Y-90739448D01*
X140972175Y-90693275D01*
X141050789Y-90640747D01*
X141105502Y-90618084D01*
X141214925Y-90572759D01*
X141302048Y-90555430D01*
X141389169Y-90538100D01*
X141566831Y-90538100D01*
X141653952Y-90555429D01*
X141653952Y-90555429D01*
G37*
G36*
X179753952Y-90555429D02*
G01*
X179841075Y-90572759D01*
X179950498Y-90618084D01*
X180005211Y-90640747D01*
X180083825Y-90693275D01*
X180152928Y-90739448D01*
X180278552Y-90865072D01*
X180278554Y-90865075D01*
X180377253Y-91012789D01*
X180377253Y-91012790D01*
X180445241Y-91176925D01*
X180479900Y-91351171D01*
X180479900Y-91528829D01*
X180445241Y-91703075D01*
X180399916Y-91812498D01*
X180377253Y-91867211D01*
X180279217Y-92013933D01*
X180278552Y-92014928D01*
X180152928Y-92140552D01*
X180152925Y-92140554D01*
X180005211Y-92239253D01*
X179950498Y-92261916D01*
X179841075Y-92307241D01*
X179753952Y-92324570D01*
X179666831Y-92341900D01*
X179489169Y-92341900D01*
X179402048Y-92324571D01*
X179314925Y-92307241D01*
X179205502Y-92261916D01*
X179150789Y-92239253D01*
X179003075Y-92140554D01*
X179003072Y-92140552D01*
X178877448Y-92014928D01*
X178876783Y-92013933D01*
X178778747Y-91867211D01*
X178756084Y-91812498D01*
X178710759Y-91703075D01*
X178676100Y-91528829D01*
X178676100Y-91351171D01*
X178710759Y-91176925D01*
X178778747Y-91012790D01*
X178778747Y-91012789D01*
X178877446Y-90865075D01*
X178877448Y-90865072D01*
X179003072Y-90739448D01*
X179072175Y-90693275D01*
X179150789Y-90640747D01*
X179205502Y-90618084D01*
X179314925Y-90572759D01*
X179402048Y-90555430D01*
X179489169Y-90538100D01*
X179666831Y-90538100D01*
X179753952Y-90555429D01*
X179753952Y-90555429D01*
G37*
G36*
X198803952Y-90555429D02*
G01*
X198891075Y-90572759D01*
X199000498Y-90618084D01*
X199055211Y-90640747D01*
X199133825Y-90693275D01*
X199202928Y-90739448D01*
X199328552Y-90865072D01*
X199328554Y-90865075D01*
X199427253Y-91012789D01*
X199427253Y-91012790D01*
X199495241Y-91176925D01*
X199529900Y-91351171D01*
X199529900Y-91528829D01*
X199495241Y-91703075D01*
X199449916Y-91812498D01*
X199427253Y-91867211D01*
X199329217Y-92013933D01*
X199328552Y-92014928D01*
X199202928Y-92140552D01*
X199202925Y-92140554D01*
X199055211Y-92239253D01*
X199000498Y-92261916D01*
X198891075Y-92307241D01*
X198803952Y-92324570D01*
X198716831Y-92341900D01*
X198539169Y-92341900D01*
X198452048Y-92324571D01*
X198364925Y-92307241D01*
X198255502Y-92261916D01*
X198200789Y-92239253D01*
X198053075Y-92140554D01*
X198053072Y-92140552D01*
X197927448Y-92014928D01*
X197926783Y-92013933D01*
X197828747Y-91867211D01*
X197806084Y-91812498D01*
X197760759Y-91703075D01*
X197726100Y-91528829D01*
X197726100Y-91351171D01*
X197760759Y-91176925D01*
X197828747Y-91012790D01*
X197828747Y-91012789D01*
X197927446Y-90865075D01*
X197927448Y-90865072D01*
X198053072Y-90739448D01*
X198122175Y-90693275D01*
X198200789Y-90640747D01*
X198255502Y-90618084D01*
X198364925Y-90572759D01*
X198452048Y-90555430D01*
X198539169Y-90538100D01*
X198716831Y-90538100D01*
X198803952Y-90555429D01*
X198803952Y-90555429D01*
G37*
G36*
X146229761Y-87734232D02*
G01*
X146229764Y-87734233D01*
X146473322Y-87813957D01*
X146696647Y-87939666D01*
X146891157Y-88106528D01*
X147049375Y-88308130D01*
X147165223Y-88536725D01*
X147221867Y-88739264D01*
X147234247Y-88783529D01*
X147253797Y-89039059D01*
X147223121Y-89293485D01*
X147143394Y-89537052D01*
X147017688Y-89760370D01*
X147017687Y-89760371D01*
X146850825Y-89954881D01*
X146699738Y-90073455D01*
X144694315Y-91351050D01*
X144608656Y-91394460D01*
X144522999Y-91437870D01*
X144469059Y-91452955D01*
X144276194Y-91506895D01*
X144020667Y-91526444D01*
X144020666Y-91526444D01*
X143766239Y-91495768D01*
X143759889Y-91493689D01*
X143522678Y-91416043D01*
X143407216Y-91351050D01*
X143299350Y-91290333D01*
X143104846Y-91123476D01*
X143084129Y-91097078D01*
X142946625Y-90921870D01*
X142917842Y-90865075D01*
X142830778Y-90693278D01*
X142830777Y-90693275D01*
X142761752Y-90446471D01*
X142742203Y-90190944D01*
X142742203Y-90190943D01*
X142772879Y-89936516D01*
X142830537Y-89760370D01*
X142852604Y-89692955D01*
X142940361Y-89537052D01*
X142978314Y-89469627D01*
X143145174Y-89275120D01*
X143242750Y-89198543D01*
X143296262Y-89156546D01*
X145301684Y-87878950D01*
X145429931Y-87813957D01*
X145473000Y-87792130D01*
X145526940Y-87777045D01*
X145719805Y-87723105D01*
X145975333Y-87703556D01*
X145975334Y-87703556D01*
X146229761Y-87734232D01*
X146229761Y-87734232D01*
G37*
G36*
X165279761Y-87734232D02*
G01*
X165279764Y-87734233D01*
X165523322Y-87813957D01*
X165746647Y-87939666D01*
X165941157Y-88106528D01*
X166099375Y-88308130D01*
X166215223Y-88536725D01*
X166271867Y-88739264D01*
X166284247Y-88783529D01*
X166303797Y-89039059D01*
X166273121Y-89293485D01*
X166193394Y-89537052D01*
X166067688Y-89760370D01*
X166067687Y-89760371D01*
X165900825Y-89954881D01*
X165749738Y-90073455D01*
X163744315Y-91351050D01*
X163658656Y-91394460D01*
X163572999Y-91437870D01*
X163519059Y-91452955D01*
X163326194Y-91506895D01*
X163070667Y-91526444D01*
X163070666Y-91526444D01*
X162816239Y-91495768D01*
X162809889Y-91493689D01*
X162572678Y-91416043D01*
X162457216Y-91351050D01*
X162349350Y-91290333D01*
X162154846Y-91123476D01*
X162134129Y-91097078D01*
X161996625Y-90921870D01*
X161967842Y-90865075D01*
X161880778Y-90693278D01*
X161880777Y-90693275D01*
X161811752Y-90446471D01*
X161792203Y-90190944D01*
X161792203Y-90190943D01*
X161822879Y-89936516D01*
X161880537Y-89760370D01*
X161902604Y-89692955D01*
X161990361Y-89537052D01*
X162028314Y-89469627D01*
X162195174Y-89275120D01*
X162292750Y-89198543D01*
X162346262Y-89156546D01*
X164351684Y-87878950D01*
X164479931Y-87813957D01*
X164523000Y-87792130D01*
X164576940Y-87777045D01*
X164769805Y-87723105D01*
X165025333Y-87703556D01*
X165025334Y-87703556D01*
X165279761Y-87734232D01*
X165279761Y-87734232D01*
G37*
G36*
X184329761Y-87734232D02*
G01*
X184329764Y-87734233D01*
X184573322Y-87813957D01*
X184796647Y-87939666D01*
X184991157Y-88106528D01*
X185149375Y-88308130D01*
X185265223Y-88536725D01*
X185321867Y-88739264D01*
X185334247Y-88783529D01*
X185353797Y-89039059D01*
X185323121Y-89293485D01*
X185243394Y-89537052D01*
X185117688Y-89760370D01*
X185117687Y-89760371D01*
X184950825Y-89954881D01*
X184799738Y-90073455D01*
X182794315Y-91351050D01*
X182708656Y-91394460D01*
X182622999Y-91437870D01*
X182569059Y-91452955D01*
X182376194Y-91506895D01*
X182120667Y-91526444D01*
X182120666Y-91526444D01*
X181866239Y-91495768D01*
X181859889Y-91493689D01*
X181622678Y-91416043D01*
X181507216Y-91351050D01*
X181399350Y-91290333D01*
X181204846Y-91123476D01*
X181184129Y-91097078D01*
X181046625Y-90921870D01*
X181017842Y-90865075D01*
X180930778Y-90693278D01*
X180930777Y-90693275D01*
X180861752Y-90446471D01*
X180842203Y-90190944D01*
X180842203Y-90190943D01*
X180872879Y-89936516D01*
X180930537Y-89760370D01*
X180952604Y-89692955D01*
X181040361Y-89537052D01*
X181078314Y-89469627D01*
X181245174Y-89275120D01*
X181342750Y-89198543D01*
X181396262Y-89156546D01*
X183401684Y-87878950D01*
X183529931Y-87813957D01*
X183573000Y-87792130D01*
X183626940Y-87777045D01*
X183819805Y-87723105D01*
X184075333Y-87703556D01*
X184075334Y-87703556D01*
X184329761Y-87734232D01*
X184329761Y-87734232D01*
G37*
G36*
X203379761Y-87734232D02*
G01*
X203379764Y-87734233D01*
X203623322Y-87813957D01*
X203846647Y-87939666D01*
X204041157Y-88106528D01*
X204199375Y-88308130D01*
X204315223Y-88536725D01*
X204371867Y-88739264D01*
X204384247Y-88783529D01*
X204403797Y-89039059D01*
X204373121Y-89293485D01*
X204293394Y-89537052D01*
X204167688Y-89760370D01*
X204167687Y-89760371D01*
X204000825Y-89954881D01*
X203849738Y-90073455D01*
X201844315Y-91351050D01*
X201758656Y-91394460D01*
X201672999Y-91437870D01*
X201619059Y-91452955D01*
X201426194Y-91506895D01*
X201170667Y-91526444D01*
X201170666Y-91526444D01*
X200916239Y-91495768D01*
X200909889Y-91493689D01*
X200672678Y-91416043D01*
X200557216Y-91351050D01*
X200449350Y-91290333D01*
X200254846Y-91123476D01*
X200234129Y-91097078D01*
X200096625Y-90921870D01*
X200067842Y-90865075D01*
X199980778Y-90693278D01*
X199980777Y-90693275D01*
X199911752Y-90446471D01*
X199892203Y-90190944D01*
X199892203Y-90190943D01*
X199922879Y-89936516D01*
X199980537Y-89760370D01*
X200002604Y-89692955D01*
X200090361Y-89537052D01*
X200128314Y-89469627D01*
X200295174Y-89275120D01*
X200392750Y-89198543D01*
X200446262Y-89156546D01*
X202451684Y-87878950D01*
X202579931Y-87813957D01*
X202623000Y-87792130D01*
X202676940Y-87777045D01*
X202869805Y-87723105D01*
X203125333Y-87703556D01*
X203125334Y-87703556D01*
X203379761Y-87734232D01*
X203379761Y-87734232D01*
G37*
G36*
X176517000Y-88811000D02*
G01*
X174715000Y-88811000D01*
X174715000Y-87709000D01*
X176517000Y-87709000D01*
X176517000Y-88811000D01*
X176517000Y-88811000D01*
G37*
G36*
X170217000Y-88811000D02*
G01*
X168415000Y-88811000D01*
X168415000Y-87709000D01*
X170217000Y-87709000D01*
X170217000Y-88811000D01*
X170217000Y-88811000D01*
G37*
G36*
X142074474Y-84393684D02*
G01*
X142261034Y-84470960D01*
X142446623Y-84547833D01*
X142781548Y-84771623D01*
X143066377Y-85056452D01*
X143290167Y-85391377D01*
X143290167Y-85391378D01*
X143444316Y-85763526D01*
X143522900Y-86158594D01*
X143522900Y-86561406D01*
X143444316Y-86956474D01*
X143354017Y-87174474D01*
X143290167Y-87328623D01*
X143066377Y-87663548D01*
X142781548Y-87948377D01*
X142446623Y-88172167D01*
X142292474Y-88236017D01*
X142074474Y-88326316D01*
X141679406Y-88404900D01*
X141276594Y-88404900D01*
X140881526Y-88326316D01*
X140663526Y-88236017D01*
X140509377Y-88172167D01*
X140174452Y-87948377D01*
X139889623Y-87663548D01*
X139665833Y-87328623D01*
X139601983Y-87174474D01*
X139511684Y-86956474D01*
X139433100Y-86561406D01*
X139433100Y-86158594D01*
X139511684Y-85763526D01*
X139665833Y-85391378D01*
X139665833Y-85391377D01*
X139889623Y-85056452D01*
X140174452Y-84771623D01*
X140509377Y-84547833D01*
X140694966Y-84470960D01*
X140881526Y-84393684D01*
X141276594Y-84315100D01*
X141679406Y-84315100D01*
X142074474Y-84393684D01*
X142074474Y-84393684D01*
G37*
G36*
X161124474Y-84393684D02*
G01*
X161311034Y-84470960D01*
X161496623Y-84547833D01*
X161831548Y-84771623D01*
X162116377Y-85056452D01*
X162340167Y-85391377D01*
X162340167Y-85391378D01*
X162494316Y-85763526D01*
X162572900Y-86158594D01*
X162572900Y-86561406D01*
X162494316Y-86956474D01*
X162404017Y-87174474D01*
X162340167Y-87328623D01*
X162116377Y-87663548D01*
X161831548Y-87948377D01*
X161496623Y-88172167D01*
X161342474Y-88236017D01*
X161124474Y-88326316D01*
X160729406Y-88404900D01*
X160326594Y-88404900D01*
X159931526Y-88326316D01*
X159713526Y-88236017D01*
X159559377Y-88172167D01*
X159224452Y-87948377D01*
X158939623Y-87663548D01*
X158715833Y-87328623D01*
X158651983Y-87174474D01*
X158561684Y-86956474D01*
X158483100Y-86561406D01*
X158483100Y-86158594D01*
X158561684Y-85763526D01*
X158715833Y-85391378D01*
X158715833Y-85391377D01*
X158939623Y-85056452D01*
X159224452Y-84771623D01*
X159559377Y-84547833D01*
X159744966Y-84470960D01*
X159931526Y-84393684D01*
X160326594Y-84315100D01*
X160729406Y-84315100D01*
X161124474Y-84393684D01*
X161124474Y-84393684D01*
G37*
G36*
X180174474Y-84393684D02*
G01*
X180361034Y-84470960D01*
X180546623Y-84547833D01*
X180881548Y-84771623D01*
X181166377Y-85056452D01*
X181390167Y-85391377D01*
X181390167Y-85391378D01*
X181544316Y-85763526D01*
X181622900Y-86158594D01*
X181622900Y-86561406D01*
X181544316Y-86956474D01*
X181454017Y-87174474D01*
X181390167Y-87328623D01*
X181166377Y-87663548D01*
X180881548Y-87948377D01*
X180546623Y-88172167D01*
X180392474Y-88236017D01*
X180174474Y-88326316D01*
X179779406Y-88404900D01*
X179376594Y-88404900D01*
X178981526Y-88326316D01*
X178763526Y-88236017D01*
X178609377Y-88172167D01*
X178274452Y-87948377D01*
X177989623Y-87663548D01*
X177765833Y-87328623D01*
X177701983Y-87174474D01*
X177611684Y-86956474D01*
X177533100Y-86561406D01*
X177533100Y-86158594D01*
X177611684Y-85763526D01*
X177765833Y-85391378D01*
X177765833Y-85391377D01*
X177989623Y-85056452D01*
X178274452Y-84771623D01*
X178609377Y-84547833D01*
X178794966Y-84470960D01*
X178981526Y-84393684D01*
X179376594Y-84315100D01*
X179779406Y-84315100D01*
X180174474Y-84393684D01*
X180174474Y-84393684D01*
G37*
G36*
X199224474Y-84393684D02*
G01*
X199411034Y-84470960D01*
X199596623Y-84547833D01*
X199931548Y-84771623D01*
X200216377Y-85056452D01*
X200440167Y-85391377D01*
X200440167Y-85391378D01*
X200594316Y-85763526D01*
X200672900Y-86158594D01*
X200672900Y-86561406D01*
X200594316Y-86956474D01*
X200504017Y-87174474D01*
X200440167Y-87328623D01*
X200216377Y-87663548D01*
X199931548Y-87948377D01*
X199596623Y-88172167D01*
X199442474Y-88236017D01*
X199224474Y-88326316D01*
X198829406Y-88404900D01*
X198426594Y-88404900D01*
X198031526Y-88326316D01*
X197813526Y-88236017D01*
X197659377Y-88172167D01*
X197324452Y-87948377D01*
X197039623Y-87663548D01*
X196815833Y-87328623D01*
X196751983Y-87174474D01*
X196661684Y-86956474D01*
X196583100Y-86561406D01*
X196583100Y-86158594D01*
X196661684Y-85763526D01*
X196815833Y-85391378D01*
X196815833Y-85391377D01*
X197039623Y-85056452D01*
X197324452Y-84771623D01*
X197659377Y-84547833D01*
X197844966Y-84470960D01*
X198031526Y-84393684D01*
X198426594Y-84315100D01*
X198829406Y-84315100D01*
X199224474Y-84393684D01*
X199224474Y-84393684D01*
G37*
G36*
X146724572Y-82523724D02*
G01*
X146908421Y-82566085D01*
X146974303Y-82581265D01*
X147208010Y-82686420D01*
X147260450Y-82723791D01*
X147416712Y-82835148D01*
X147572243Y-83000340D01*
X147592387Y-83021735D01*
X147728287Y-83239009D01*
X147819187Y-83478621D01*
X147861594Y-83731362D01*
X147853880Y-83987519D01*
X147796339Y-84237251D01*
X147691184Y-84470958D01*
X147653813Y-84523398D01*
X147542456Y-84679660D01*
X147367004Y-84844851D01*
X147355869Y-84855335D01*
X147138595Y-84991235D01*
X146898983Y-85082135D01*
X146736787Y-85109350D01*
X146709572Y-85113916D01*
X146003392Y-85162058D01*
X145811428Y-85156276D01*
X145561701Y-85098736D01*
X145561697Y-85098735D01*
X145327990Y-84993580D01*
X145275550Y-84956209D01*
X145119288Y-84844852D01*
X144943613Y-84658265D01*
X144807714Y-84440992D01*
X144807713Y-84440991D01*
X144716813Y-84201379D01*
X144674406Y-83948638D01*
X144682120Y-83692481D01*
X144739661Y-83442749D01*
X144844816Y-83209042D01*
X144882187Y-83156602D01*
X144993544Y-83000340D01*
X145180131Y-82824665D01*
X145397405Y-82688765D01*
X145637017Y-82597865D01*
X145826429Y-82566084D01*
X146289072Y-82534545D01*
X146532606Y-82517942D01*
X146724572Y-82523724D01*
X146724572Y-82523724D01*
G37*
G36*
X165774572Y-82523724D02*
G01*
X165958421Y-82566085D01*
X166024303Y-82581265D01*
X166258010Y-82686420D01*
X166310450Y-82723791D01*
X166466712Y-82835148D01*
X166622243Y-83000340D01*
X166642387Y-83021735D01*
X166778287Y-83239009D01*
X166869187Y-83478621D01*
X166911594Y-83731362D01*
X166903880Y-83987519D01*
X166846339Y-84237251D01*
X166741184Y-84470958D01*
X166703813Y-84523398D01*
X166592456Y-84679660D01*
X166417004Y-84844851D01*
X166405869Y-84855335D01*
X166188595Y-84991235D01*
X165948983Y-85082135D01*
X165786787Y-85109350D01*
X165759572Y-85113916D01*
X165053392Y-85162058D01*
X164861428Y-85156276D01*
X164611701Y-85098736D01*
X164611697Y-85098735D01*
X164377990Y-84993580D01*
X164325550Y-84956209D01*
X164169288Y-84844852D01*
X163993613Y-84658265D01*
X163857714Y-84440992D01*
X163857713Y-84440991D01*
X163766813Y-84201379D01*
X163724406Y-83948638D01*
X163732120Y-83692481D01*
X163789661Y-83442749D01*
X163894816Y-83209042D01*
X163932187Y-83156602D01*
X164043544Y-83000340D01*
X164230131Y-82824665D01*
X164447405Y-82688765D01*
X164687017Y-82597865D01*
X164876429Y-82566084D01*
X165339072Y-82534545D01*
X165582606Y-82517942D01*
X165774572Y-82523724D01*
X165774572Y-82523724D01*
G37*
G36*
X203874572Y-82523724D02*
G01*
X204058421Y-82566085D01*
X204124303Y-82581265D01*
X204358010Y-82686420D01*
X204410450Y-82723791D01*
X204566712Y-82835148D01*
X204722243Y-83000340D01*
X204742387Y-83021735D01*
X204878287Y-83239009D01*
X204969187Y-83478621D01*
X205011594Y-83731362D01*
X205003880Y-83987519D01*
X204946339Y-84237251D01*
X204841184Y-84470958D01*
X204803813Y-84523398D01*
X204692456Y-84679660D01*
X204517004Y-84844851D01*
X204505869Y-84855335D01*
X204288595Y-84991235D01*
X204048983Y-85082135D01*
X203886787Y-85109350D01*
X203859572Y-85113916D01*
X203153392Y-85162058D01*
X202961428Y-85156276D01*
X202711701Y-85098736D01*
X202711697Y-85098735D01*
X202477990Y-84993580D01*
X202425550Y-84956209D01*
X202269288Y-84844852D01*
X202093613Y-84658265D01*
X201957714Y-84440992D01*
X201957713Y-84440991D01*
X201866813Y-84201379D01*
X201824406Y-83948638D01*
X201832120Y-83692481D01*
X201889661Y-83442749D01*
X201994816Y-83209042D01*
X202032187Y-83156602D01*
X202143544Y-83000340D01*
X202330131Y-82824665D01*
X202547405Y-82688765D01*
X202787017Y-82597865D01*
X202976429Y-82566084D01*
X203439072Y-82534545D01*
X203682606Y-82517942D01*
X203874572Y-82523724D01*
X203874572Y-82523724D01*
G37*
G36*
X184824572Y-82523724D02*
G01*
X185008421Y-82566085D01*
X185074303Y-82581265D01*
X185308010Y-82686420D01*
X185360450Y-82723791D01*
X185516712Y-82835148D01*
X185672243Y-83000340D01*
X185692387Y-83021735D01*
X185828287Y-83239009D01*
X185919187Y-83478621D01*
X185961594Y-83731362D01*
X185953880Y-83987519D01*
X185896339Y-84237251D01*
X185791184Y-84470958D01*
X185753813Y-84523398D01*
X185642456Y-84679660D01*
X185467004Y-84844851D01*
X185455869Y-84855335D01*
X185238595Y-84991235D01*
X184998983Y-85082135D01*
X184836787Y-85109350D01*
X184809572Y-85113916D01*
X184103392Y-85162058D01*
X183911428Y-85156276D01*
X183661701Y-85098736D01*
X183661697Y-85098735D01*
X183427990Y-84993580D01*
X183375550Y-84956209D01*
X183219288Y-84844852D01*
X183043613Y-84658265D01*
X182907714Y-84440992D01*
X182907713Y-84440991D01*
X182816813Y-84201379D01*
X182774406Y-83948638D01*
X182782120Y-83692481D01*
X182839661Y-83442749D01*
X182944816Y-83209042D01*
X182982187Y-83156602D01*
X183093544Y-83000340D01*
X183280131Y-82824665D01*
X183497405Y-82688765D01*
X183737017Y-82597865D01*
X183926429Y-82566084D01*
X184389072Y-82534545D01*
X184632606Y-82517942D01*
X184824572Y-82523724D01*
X184824572Y-82523724D01*
G37*
G36*
X170217000Y-85011000D02*
G01*
X168415000Y-85011000D01*
X168415000Y-83909000D01*
X170217000Y-83909000D01*
X170217000Y-85011000D01*
X170217000Y-85011000D01*
G37*
G36*
X176517000Y-85011000D02*
G01*
X174715000Y-85011000D01*
X174715000Y-83909000D01*
X176517000Y-83909000D01*
X176517000Y-85011000D01*
X176517000Y-85011000D01*
G37*
G36*
X179753952Y-80395430D02*
G01*
X179841075Y-80412759D01*
X179950498Y-80458084D01*
X180005211Y-80480747D01*
X180151933Y-80578783D01*
X180152928Y-80579448D01*
X180278552Y-80705072D01*
X180278554Y-80705075D01*
X180377253Y-80852789D01*
X180377253Y-80852790D01*
X180445241Y-81016925D01*
X180479900Y-81191171D01*
X180479900Y-81368829D01*
X180445241Y-81543075D01*
X180399916Y-81652498D01*
X180377253Y-81707211D01*
X180279217Y-81853933D01*
X180278552Y-81854928D01*
X180152928Y-81980552D01*
X180152925Y-81980554D01*
X180005211Y-82079253D01*
X179950498Y-82101916D01*
X179841075Y-82147241D01*
X179753952Y-82164571D01*
X179666831Y-82181900D01*
X179489169Y-82181900D01*
X179402048Y-82164571D01*
X179314925Y-82147241D01*
X179205502Y-82101916D01*
X179150789Y-82079253D01*
X179003075Y-81980554D01*
X179003072Y-81980552D01*
X178877448Y-81854928D01*
X178876783Y-81853933D01*
X178778747Y-81707211D01*
X178756084Y-81652498D01*
X178710759Y-81543075D01*
X178676100Y-81368829D01*
X178676100Y-81191171D01*
X178710759Y-81016925D01*
X178778747Y-80852790D01*
X178778747Y-80852789D01*
X178877446Y-80705075D01*
X178877448Y-80705072D01*
X179003072Y-80579448D01*
X179004067Y-80578783D01*
X179150789Y-80480747D01*
X179205502Y-80458084D01*
X179314925Y-80412759D01*
X179402048Y-80395430D01*
X179489169Y-80378100D01*
X179666831Y-80378100D01*
X179753952Y-80395430D01*
X179753952Y-80395430D01*
G37*
G36*
X160703952Y-80395430D02*
G01*
X160791075Y-80412759D01*
X160900498Y-80458084D01*
X160955211Y-80480747D01*
X161101933Y-80578783D01*
X161102928Y-80579448D01*
X161228552Y-80705072D01*
X161228554Y-80705075D01*
X161327253Y-80852789D01*
X161327253Y-80852790D01*
X161395241Y-81016925D01*
X161429900Y-81191171D01*
X161429900Y-81368829D01*
X161395241Y-81543075D01*
X161349916Y-81652498D01*
X161327253Y-81707211D01*
X161229217Y-81853933D01*
X161228552Y-81854928D01*
X161102928Y-81980552D01*
X161102925Y-81980554D01*
X160955211Y-82079253D01*
X160900498Y-82101916D01*
X160791075Y-82147241D01*
X160703952Y-82164571D01*
X160616831Y-82181900D01*
X160439169Y-82181900D01*
X160352048Y-82164571D01*
X160264925Y-82147241D01*
X160155502Y-82101916D01*
X160100789Y-82079253D01*
X159953075Y-81980554D01*
X159953072Y-81980552D01*
X159827448Y-81854928D01*
X159826783Y-81853933D01*
X159728747Y-81707211D01*
X159706084Y-81652498D01*
X159660759Y-81543075D01*
X159626100Y-81368829D01*
X159626100Y-81191171D01*
X159660759Y-81016925D01*
X159728747Y-80852790D01*
X159728747Y-80852789D01*
X159827446Y-80705075D01*
X159827448Y-80705072D01*
X159953072Y-80579448D01*
X159954067Y-80578783D01*
X160100789Y-80480747D01*
X160155502Y-80458084D01*
X160264925Y-80412759D01*
X160352048Y-80395430D01*
X160439169Y-80378100D01*
X160616831Y-80378100D01*
X160703952Y-80395430D01*
X160703952Y-80395430D01*
G37*
G36*
X198803952Y-80395430D02*
G01*
X198891075Y-80412759D01*
X199000498Y-80458084D01*
X199055211Y-80480747D01*
X199201933Y-80578783D01*
X199202928Y-80579448D01*
X199328552Y-80705072D01*
X199328554Y-80705075D01*
X199427253Y-80852789D01*
X199427253Y-80852790D01*
X199495241Y-81016925D01*
X199529900Y-81191171D01*
X199529900Y-81368829D01*
X199495241Y-81543075D01*
X199449916Y-81652498D01*
X199427253Y-81707211D01*
X199329217Y-81853933D01*
X199328552Y-81854928D01*
X199202928Y-81980552D01*
X199202925Y-81980554D01*
X199055211Y-82079253D01*
X199000498Y-82101916D01*
X198891075Y-82147241D01*
X198803952Y-82164571D01*
X198716831Y-82181900D01*
X198539169Y-82181900D01*
X198452048Y-82164571D01*
X198364925Y-82147241D01*
X198255502Y-82101916D01*
X198200789Y-82079253D01*
X198053075Y-81980554D01*
X198053072Y-81980552D01*
X197927448Y-81854928D01*
X197926783Y-81853933D01*
X197828747Y-81707211D01*
X197806084Y-81652498D01*
X197760759Y-81543075D01*
X197726100Y-81368829D01*
X197726100Y-81191171D01*
X197760759Y-81016925D01*
X197828747Y-80852790D01*
X197828747Y-80852789D01*
X197927446Y-80705075D01*
X197927448Y-80705072D01*
X198053072Y-80579448D01*
X198054067Y-80578783D01*
X198200789Y-80480747D01*
X198255502Y-80458084D01*
X198364925Y-80412759D01*
X198452048Y-80395430D01*
X198539169Y-80378100D01*
X198716831Y-80378100D01*
X198803952Y-80395430D01*
X198803952Y-80395430D01*
G37*
G36*
X141653952Y-80395430D02*
G01*
X141741075Y-80412759D01*
X141850498Y-80458084D01*
X141905211Y-80480747D01*
X142051933Y-80578783D01*
X142052928Y-80579448D01*
X142178552Y-80705072D01*
X142178554Y-80705075D01*
X142277253Y-80852789D01*
X142277253Y-80852790D01*
X142345241Y-81016925D01*
X142379900Y-81191171D01*
X142379900Y-81368829D01*
X142345241Y-81543075D01*
X142299916Y-81652498D01*
X142277253Y-81707211D01*
X142179217Y-81853933D01*
X142178552Y-81854928D01*
X142052928Y-81980552D01*
X142052925Y-81980554D01*
X141905211Y-82079253D01*
X141850498Y-82101916D01*
X141741075Y-82147241D01*
X141653952Y-82164571D01*
X141566831Y-82181900D01*
X141389169Y-82181900D01*
X141302048Y-82164571D01*
X141214925Y-82147241D01*
X141105502Y-82101916D01*
X141050789Y-82079253D01*
X140903075Y-81980554D01*
X140903072Y-81980552D01*
X140777448Y-81854928D01*
X140776783Y-81853933D01*
X140678747Y-81707211D01*
X140656084Y-81652498D01*
X140610759Y-81543075D01*
X140576100Y-81368829D01*
X140576100Y-81191171D01*
X140610759Y-81016925D01*
X140678747Y-80852790D01*
X140678747Y-80852789D01*
X140777446Y-80705075D01*
X140777448Y-80705072D01*
X140903072Y-80579448D01*
X140904067Y-80578783D01*
X141050789Y-80480747D01*
X141105502Y-80458084D01*
X141214925Y-80412759D01*
X141302048Y-80395430D01*
X141389169Y-80378100D01*
X141566831Y-80378100D01*
X141653952Y-80395430D01*
X141653952Y-80395430D01*
G37*
G36*
X136138228Y-77921703D02*
G01*
X136293100Y-77985853D01*
X136432481Y-78078985D01*
X136551015Y-78197519D01*
X136644147Y-78336900D01*
X136708297Y-78491772D01*
X136741000Y-78656184D01*
X136741000Y-78823816D01*
X136708297Y-78988228D01*
X136644147Y-79143100D01*
X136551015Y-79282481D01*
X136432481Y-79401015D01*
X136293100Y-79494147D01*
X136138228Y-79558297D01*
X135973816Y-79591000D01*
X135806184Y-79591000D01*
X135641772Y-79558297D01*
X135486900Y-79494147D01*
X135347519Y-79401015D01*
X135228985Y-79282481D01*
X135135853Y-79143100D01*
X135071703Y-78988228D01*
X135039000Y-78823816D01*
X135039000Y-78656184D01*
X135071703Y-78491772D01*
X135135853Y-78336900D01*
X135228985Y-78197519D01*
X135347519Y-78078985D01*
X135486900Y-77985853D01*
X135641772Y-77921703D01*
X135806184Y-77889000D01*
X135973816Y-77889000D01*
X136138228Y-77921703D01*
X136138228Y-77921703D01*
G37*
G36*
X164078228Y-77921703D02*
G01*
X164233100Y-77985853D01*
X164372481Y-78078985D01*
X164491015Y-78197519D01*
X164584147Y-78336900D01*
X164648297Y-78491772D01*
X164681000Y-78656184D01*
X164681000Y-78823816D01*
X164648297Y-78988228D01*
X164584147Y-79143100D01*
X164491015Y-79282481D01*
X164372481Y-79401015D01*
X164233100Y-79494147D01*
X164078228Y-79558297D01*
X163913816Y-79591000D01*
X163746184Y-79591000D01*
X163581772Y-79558297D01*
X163426900Y-79494147D01*
X163287519Y-79401015D01*
X163168985Y-79282481D01*
X163075853Y-79143100D01*
X163011703Y-78988228D01*
X162979000Y-78823816D01*
X162979000Y-78656184D01*
X163011703Y-78491772D01*
X163075853Y-78336900D01*
X163168985Y-78197519D01*
X163287519Y-78078985D01*
X163426900Y-77985853D01*
X163581772Y-77921703D01*
X163746184Y-77889000D01*
X163913816Y-77889000D01*
X164078228Y-77921703D01*
X164078228Y-77921703D01*
G37*
G36*
X161538228Y-77921703D02*
G01*
X161693100Y-77985853D01*
X161832481Y-78078985D01*
X161951015Y-78197519D01*
X162044147Y-78336900D01*
X162108297Y-78491772D01*
X162141000Y-78656184D01*
X162141000Y-78823816D01*
X162108297Y-78988228D01*
X162044147Y-79143100D01*
X161951015Y-79282481D01*
X161832481Y-79401015D01*
X161693100Y-79494147D01*
X161538228Y-79558297D01*
X161373816Y-79591000D01*
X161206184Y-79591000D01*
X161041772Y-79558297D01*
X160886900Y-79494147D01*
X160747519Y-79401015D01*
X160628985Y-79282481D01*
X160535853Y-79143100D01*
X160471703Y-78988228D01*
X160439000Y-78823816D01*
X160439000Y-78656184D01*
X160471703Y-78491772D01*
X160535853Y-78336900D01*
X160628985Y-78197519D01*
X160747519Y-78078985D01*
X160886900Y-77985853D01*
X161041772Y-77921703D01*
X161206184Y-77889000D01*
X161373816Y-77889000D01*
X161538228Y-77921703D01*
X161538228Y-77921703D01*
G37*
G36*
X158998228Y-77921703D02*
G01*
X159153100Y-77985853D01*
X159292481Y-78078985D01*
X159411015Y-78197519D01*
X159504147Y-78336900D01*
X159568297Y-78491772D01*
X159601000Y-78656184D01*
X159601000Y-78823816D01*
X159568297Y-78988228D01*
X159504147Y-79143100D01*
X159411015Y-79282481D01*
X159292481Y-79401015D01*
X159153100Y-79494147D01*
X158998228Y-79558297D01*
X158833816Y-79591000D01*
X158666184Y-79591000D01*
X158501772Y-79558297D01*
X158346900Y-79494147D01*
X158207519Y-79401015D01*
X158088985Y-79282481D01*
X157995853Y-79143100D01*
X157931703Y-78988228D01*
X157899000Y-78823816D01*
X157899000Y-78656184D01*
X157931703Y-78491772D01*
X157995853Y-78336900D01*
X158088985Y-78197519D01*
X158207519Y-78078985D01*
X158346900Y-77985853D01*
X158501772Y-77921703D01*
X158666184Y-77889000D01*
X158833816Y-77889000D01*
X158998228Y-77921703D01*
X158998228Y-77921703D01*
G37*
G36*
X156458228Y-77921703D02*
G01*
X156613100Y-77985853D01*
X156752481Y-78078985D01*
X156871015Y-78197519D01*
X156964147Y-78336900D01*
X157028297Y-78491772D01*
X157061000Y-78656184D01*
X157061000Y-78823816D01*
X157028297Y-78988228D01*
X156964147Y-79143100D01*
X156871015Y-79282481D01*
X156752481Y-79401015D01*
X156613100Y-79494147D01*
X156458228Y-79558297D01*
X156293816Y-79591000D01*
X156126184Y-79591000D01*
X155961772Y-79558297D01*
X155806900Y-79494147D01*
X155667519Y-79401015D01*
X155548985Y-79282481D01*
X155455853Y-79143100D01*
X155391703Y-78988228D01*
X155359000Y-78823816D01*
X155359000Y-78656184D01*
X155391703Y-78491772D01*
X155455853Y-78336900D01*
X155548985Y-78197519D01*
X155667519Y-78078985D01*
X155806900Y-77985853D01*
X155961772Y-77921703D01*
X156126184Y-77889000D01*
X156293816Y-77889000D01*
X156458228Y-77921703D01*
X156458228Y-77921703D01*
G37*
G36*
X153918228Y-77921703D02*
G01*
X154073100Y-77985853D01*
X154212481Y-78078985D01*
X154331015Y-78197519D01*
X154424147Y-78336900D01*
X154488297Y-78491772D01*
X154521000Y-78656184D01*
X154521000Y-78823816D01*
X154488297Y-78988228D01*
X154424147Y-79143100D01*
X154331015Y-79282481D01*
X154212481Y-79401015D01*
X154073100Y-79494147D01*
X153918228Y-79558297D01*
X153753816Y-79591000D01*
X153586184Y-79591000D01*
X153421772Y-79558297D01*
X153266900Y-79494147D01*
X153127519Y-79401015D01*
X153008985Y-79282481D01*
X152915853Y-79143100D01*
X152851703Y-78988228D01*
X152819000Y-78823816D01*
X152819000Y-78656184D01*
X152851703Y-78491772D01*
X152915853Y-78336900D01*
X153008985Y-78197519D01*
X153127519Y-78078985D01*
X153266900Y-77985853D01*
X153421772Y-77921703D01*
X153586184Y-77889000D01*
X153753816Y-77889000D01*
X153918228Y-77921703D01*
X153918228Y-77921703D01*
G37*
G36*
X138678228Y-77921703D02*
G01*
X138833100Y-77985853D01*
X138972481Y-78078985D01*
X139091015Y-78197519D01*
X139184147Y-78336900D01*
X139248297Y-78491772D01*
X139281000Y-78656184D01*
X139281000Y-78823816D01*
X139248297Y-78988228D01*
X139184147Y-79143100D01*
X139091015Y-79282481D01*
X138972481Y-79401015D01*
X138833100Y-79494147D01*
X138678228Y-79558297D01*
X138513816Y-79591000D01*
X138346184Y-79591000D01*
X138181772Y-79558297D01*
X138026900Y-79494147D01*
X137887519Y-79401015D01*
X137768985Y-79282481D01*
X137675853Y-79143100D01*
X137611703Y-78988228D01*
X137579000Y-78823816D01*
X137579000Y-78656184D01*
X137611703Y-78491772D01*
X137675853Y-78336900D01*
X137768985Y-78197519D01*
X137887519Y-78078985D01*
X138026900Y-77985853D01*
X138181772Y-77921703D01*
X138346184Y-77889000D01*
X138513816Y-77889000D01*
X138678228Y-77921703D01*
X138678228Y-77921703D01*
G37*
G36*
X151378228Y-77921703D02*
G01*
X151533100Y-77985853D01*
X151672481Y-78078985D01*
X151791015Y-78197519D01*
X151884147Y-78336900D01*
X151948297Y-78491772D01*
X151981000Y-78656184D01*
X151981000Y-78823816D01*
X151948297Y-78988228D01*
X151884147Y-79143100D01*
X151791015Y-79282481D01*
X151672481Y-79401015D01*
X151533100Y-79494147D01*
X151378228Y-79558297D01*
X151213816Y-79591000D01*
X151046184Y-79591000D01*
X150881772Y-79558297D01*
X150726900Y-79494147D01*
X150587519Y-79401015D01*
X150468985Y-79282481D01*
X150375853Y-79143100D01*
X150311703Y-78988228D01*
X150279000Y-78823816D01*
X150279000Y-78656184D01*
X150311703Y-78491772D01*
X150375853Y-78336900D01*
X150468985Y-78197519D01*
X150587519Y-78078985D01*
X150726900Y-77985853D01*
X150881772Y-77921703D01*
X151046184Y-77889000D01*
X151213816Y-77889000D01*
X151378228Y-77921703D01*
X151378228Y-77921703D01*
G37*
G36*
X148838228Y-77921703D02*
G01*
X148993100Y-77985853D01*
X149132481Y-78078985D01*
X149251015Y-78197519D01*
X149344147Y-78336900D01*
X149408297Y-78491772D01*
X149441000Y-78656184D01*
X149441000Y-78823816D01*
X149408297Y-78988228D01*
X149344147Y-79143100D01*
X149251015Y-79282481D01*
X149132481Y-79401015D01*
X148993100Y-79494147D01*
X148838228Y-79558297D01*
X148673816Y-79591000D01*
X148506184Y-79591000D01*
X148341772Y-79558297D01*
X148186900Y-79494147D01*
X148047519Y-79401015D01*
X147928985Y-79282481D01*
X147835853Y-79143100D01*
X147771703Y-78988228D01*
X147739000Y-78823816D01*
X147739000Y-78656184D01*
X147771703Y-78491772D01*
X147835853Y-78336900D01*
X147928985Y-78197519D01*
X148047519Y-78078985D01*
X148186900Y-77985853D01*
X148341772Y-77921703D01*
X148506184Y-77889000D01*
X148673816Y-77889000D01*
X148838228Y-77921703D01*
X148838228Y-77921703D01*
G37*
G36*
X146298228Y-77921703D02*
G01*
X146453100Y-77985853D01*
X146592481Y-78078985D01*
X146711015Y-78197519D01*
X146804147Y-78336900D01*
X146868297Y-78491772D01*
X146901000Y-78656184D01*
X146901000Y-78823816D01*
X146868297Y-78988228D01*
X146804147Y-79143100D01*
X146711015Y-79282481D01*
X146592481Y-79401015D01*
X146453100Y-79494147D01*
X146298228Y-79558297D01*
X146133816Y-79591000D01*
X145966184Y-79591000D01*
X145801772Y-79558297D01*
X145646900Y-79494147D01*
X145507519Y-79401015D01*
X145388985Y-79282481D01*
X145295853Y-79143100D01*
X145231703Y-78988228D01*
X145199000Y-78823816D01*
X145199000Y-78656184D01*
X145231703Y-78491772D01*
X145295853Y-78336900D01*
X145388985Y-78197519D01*
X145507519Y-78078985D01*
X145646900Y-77985853D01*
X145801772Y-77921703D01*
X145966184Y-77889000D01*
X146133816Y-77889000D01*
X146298228Y-77921703D01*
X146298228Y-77921703D01*
G37*
G36*
X143758228Y-77921703D02*
G01*
X143913100Y-77985853D01*
X144052481Y-78078985D01*
X144171015Y-78197519D01*
X144264147Y-78336900D01*
X144328297Y-78491772D01*
X144361000Y-78656184D01*
X144361000Y-78823816D01*
X144328297Y-78988228D01*
X144264147Y-79143100D01*
X144171015Y-79282481D01*
X144052481Y-79401015D01*
X143913100Y-79494147D01*
X143758228Y-79558297D01*
X143593816Y-79591000D01*
X143426184Y-79591000D01*
X143261772Y-79558297D01*
X143106900Y-79494147D01*
X142967519Y-79401015D01*
X142848985Y-79282481D01*
X142755853Y-79143100D01*
X142691703Y-78988228D01*
X142659000Y-78823816D01*
X142659000Y-78656184D01*
X142691703Y-78491772D01*
X142755853Y-78336900D01*
X142848985Y-78197519D01*
X142967519Y-78078985D01*
X143106900Y-77985853D01*
X143261772Y-77921703D01*
X143426184Y-77889000D01*
X143593816Y-77889000D01*
X143758228Y-77921703D01*
X143758228Y-77921703D01*
G37*
G36*
X141218228Y-77921703D02*
G01*
X141373100Y-77985853D01*
X141512481Y-78078985D01*
X141631015Y-78197519D01*
X141724147Y-78336900D01*
X141788297Y-78491772D01*
X141821000Y-78656184D01*
X141821000Y-78823816D01*
X141788297Y-78988228D01*
X141724147Y-79143100D01*
X141631015Y-79282481D01*
X141512481Y-79401015D01*
X141373100Y-79494147D01*
X141218228Y-79558297D01*
X141053816Y-79591000D01*
X140886184Y-79591000D01*
X140721772Y-79558297D01*
X140566900Y-79494147D01*
X140427519Y-79401015D01*
X140308985Y-79282481D01*
X140215853Y-79143100D01*
X140151703Y-78988228D01*
X140119000Y-78823816D01*
X140119000Y-78656184D01*
X140151703Y-78491772D01*
X140215853Y-78336900D01*
X140308985Y-78197519D01*
X140427519Y-78078985D01*
X140566900Y-77985853D01*
X140721772Y-77921703D01*
X140886184Y-77889000D01*
X141053816Y-77889000D01*
X141218228Y-77921703D01*
X141218228Y-77921703D01*
G37*
G36*
X190375714Y-76026389D02*
G01*
X190456645Y-76059912D01*
X190529480Y-76108579D01*
X190591421Y-76170520D01*
X190640088Y-76243355D01*
X190673611Y-76324286D01*
X190690700Y-76410201D01*
X190690700Y-76497799D01*
X190673611Y-76583714D01*
X190640088Y-76664645D01*
X190591421Y-76737480D01*
X190529480Y-76799421D01*
X190456645Y-76848088D01*
X190456644Y-76848089D01*
X190456643Y-76848089D01*
X190375714Y-76881611D01*
X190289801Y-76898700D01*
X190202199Y-76898700D01*
X190116286Y-76881611D01*
X190035357Y-76848089D01*
X190035356Y-76848089D01*
X190035355Y-76848088D01*
X189962520Y-76799421D01*
X189900579Y-76737480D01*
X189851912Y-76664645D01*
X189818389Y-76583714D01*
X189801300Y-76497799D01*
X189801300Y-76410201D01*
X189818389Y-76324286D01*
X189851912Y-76243355D01*
X189900579Y-76170520D01*
X189962520Y-76108579D01*
X190035355Y-76059912D01*
X190116286Y-76026389D01*
X190202199Y-76009300D01*
X190289801Y-76009300D01*
X190375714Y-76026389D01*
X190375714Y-76026389D01*
G37*
G36*
X147449714Y-76026389D02*
G01*
X147530645Y-76059912D01*
X147603480Y-76108579D01*
X147665421Y-76170520D01*
X147714088Y-76243355D01*
X147747611Y-76324286D01*
X147764700Y-76410201D01*
X147764700Y-76497799D01*
X147747611Y-76583714D01*
X147714088Y-76664645D01*
X147665421Y-76737480D01*
X147603480Y-76799421D01*
X147530645Y-76848088D01*
X147530644Y-76848089D01*
X147530643Y-76848089D01*
X147449714Y-76881611D01*
X147363801Y-76898700D01*
X147276199Y-76898700D01*
X147190286Y-76881611D01*
X147109357Y-76848089D01*
X147109356Y-76848089D01*
X147109355Y-76848088D01*
X147036520Y-76799421D01*
X146974579Y-76737480D01*
X146925912Y-76664645D01*
X146892389Y-76583714D01*
X146875300Y-76497799D01*
X146875300Y-76410201D01*
X146892389Y-76324286D01*
X146925912Y-76243355D01*
X146974579Y-76170520D01*
X147036520Y-76108579D01*
X147109355Y-76059912D01*
X147190286Y-76026389D01*
X147276199Y-76009300D01*
X147363801Y-76009300D01*
X147449714Y-76026389D01*
X147449714Y-76026389D01*
G37*
G36*
X148719714Y-76026389D02*
G01*
X148800645Y-76059912D01*
X148873480Y-76108579D01*
X148935421Y-76170520D01*
X148984088Y-76243355D01*
X149017611Y-76324286D01*
X149034700Y-76410201D01*
X149034700Y-76497799D01*
X149017611Y-76583714D01*
X148984088Y-76664645D01*
X148935421Y-76737480D01*
X148873480Y-76799421D01*
X148800645Y-76848088D01*
X148800644Y-76848089D01*
X148800643Y-76848089D01*
X148719714Y-76881611D01*
X148633801Y-76898700D01*
X148546199Y-76898700D01*
X148460286Y-76881611D01*
X148379357Y-76848089D01*
X148379356Y-76848089D01*
X148379355Y-76848088D01*
X148306520Y-76799421D01*
X148244579Y-76737480D01*
X148195912Y-76664645D01*
X148162389Y-76583714D01*
X148145300Y-76497799D01*
X148145300Y-76410201D01*
X148162389Y-76324286D01*
X148195912Y-76243355D01*
X148244579Y-76170520D01*
X148306520Y-76108579D01*
X148379355Y-76059912D01*
X148460286Y-76026389D01*
X148546199Y-76009300D01*
X148633801Y-76009300D01*
X148719714Y-76026389D01*
X148719714Y-76026389D01*
G37*
G36*
X149989714Y-76026389D02*
G01*
X150070645Y-76059912D01*
X150143480Y-76108579D01*
X150205421Y-76170520D01*
X150254088Y-76243355D01*
X150287611Y-76324286D01*
X150304700Y-76410201D01*
X150304700Y-76497799D01*
X150287611Y-76583714D01*
X150254088Y-76664645D01*
X150205421Y-76737480D01*
X150143480Y-76799421D01*
X150070645Y-76848088D01*
X150070644Y-76848089D01*
X150070643Y-76848089D01*
X149989714Y-76881611D01*
X149903801Y-76898700D01*
X149816199Y-76898700D01*
X149730286Y-76881611D01*
X149649357Y-76848089D01*
X149649356Y-76848089D01*
X149649355Y-76848088D01*
X149576520Y-76799421D01*
X149514579Y-76737480D01*
X149465912Y-76664645D01*
X149432389Y-76583714D01*
X149415300Y-76497799D01*
X149415300Y-76410201D01*
X149432389Y-76324286D01*
X149465912Y-76243355D01*
X149514579Y-76170520D01*
X149576520Y-76108579D01*
X149649355Y-76059912D01*
X149730286Y-76026389D01*
X149816199Y-76009300D01*
X149903801Y-76009300D01*
X149989714Y-76026389D01*
X149989714Y-76026389D01*
G37*
G36*
X146179714Y-76026389D02*
G01*
X146260645Y-76059912D01*
X146333480Y-76108579D01*
X146395421Y-76170520D01*
X146444088Y-76243355D01*
X146477611Y-76324286D01*
X146494700Y-76410201D01*
X146494700Y-76497799D01*
X146477611Y-76583714D01*
X146444088Y-76664645D01*
X146395421Y-76737480D01*
X146333480Y-76799421D01*
X146260645Y-76848088D01*
X146260644Y-76848089D01*
X146260643Y-76848089D01*
X146179714Y-76881611D01*
X146093801Y-76898700D01*
X146006199Y-76898700D01*
X145920286Y-76881611D01*
X145839357Y-76848089D01*
X145839356Y-76848089D01*
X145839355Y-76848088D01*
X145766520Y-76799421D01*
X145704579Y-76737480D01*
X145655912Y-76664645D01*
X145622389Y-76583714D01*
X145605300Y-76497799D01*
X145605300Y-76410201D01*
X145622389Y-76324286D01*
X145655912Y-76243355D01*
X145704579Y-76170520D01*
X145766520Y-76108579D01*
X145839355Y-76059912D01*
X145920286Y-76026389D01*
X146006199Y-76009300D01*
X146093801Y-76009300D01*
X146179714Y-76026389D01*
X146179714Y-76026389D01*
G37*
G36*
X144909714Y-76026389D02*
G01*
X144990645Y-76059912D01*
X145063480Y-76108579D01*
X145125421Y-76170520D01*
X145174088Y-76243355D01*
X145207611Y-76324286D01*
X145224700Y-76410201D01*
X145224700Y-76497799D01*
X145207611Y-76583714D01*
X145174088Y-76664645D01*
X145125421Y-76737480D01*
X145063480Y-76799421D01*
X144990645Y-76848088D01*
X144990644Y-76848089D01*
X144990643Y-76848089D01*
X144909714Y-76881611D01*
X144823801Y-76898700D01*
X144736199Y-76898700D01*
X144650286Y-76881611D01*
X144569357Y-76848089D01*
X144569356Y-76848089D01*
X144569355Y-76848088D01*
X144496520Y-76799421D01*
X144434579Y-76737480D01*
X144385912Y-76664645D01*
X144352389Y-76583714D01*
X144335300Y-76497799D01*
X144335300Y-76410201D01*
X144352389Y-76324286D01*
X144385912Y-76243355D01*
X144434579Y-76170520D01*
X144496520Y-76108579D01*
X144569355Y-76059912D01*
X144650286Y-76026389D01*
X144736199Y-76009300D01*
X144823801Y-76009300D01*
X144909714Y-76026389D01*
X144909714Y-76026389D01*
G37*
G36*
X191645714Y-76026389D02*
G01*
X191726645Y-76059912D01*
X191799480Y-76108579D01*
X191861421Y-76170520D01*
X191910088Y-76243355D01*
X191943611Y-76324286D01*
X191960700Y-76410201D01*
X191960700Y-76497799D01*
X191943611Y-76583714D01*
X191910088Y-76664645D01*
X191861421Y-76737480D01*
X191799480Y-76799421D01*
X191726645Y-76848088D01*
X191726644Y-76848089D01*
X191726643Y-76848089D01*
X191645714Y-76881611D01*
X191559801Y-76898700D01*
X191472199Y-76898700D01*
X191386286Y-76881611D01*
X191305357Y-76848089D01*
X191305356Y-76848089D01*
X191305355Y-76848088D01*
X191232520Y-76799421D01*
X191170579Y-76737480D01*
X191121912Y-76664645D01*
X191088389Y-76583714D01*
X191071300Y-76497799D01*
X191071300Y-76410201D01*
X191088389Y-76324286D01*
X191121912Y-76243355D01*
X191170579Y-76170520D01*
X191232520Y-76108579D01*
X191305355Y-76059912D01*
X191386286Y-76026389D01*
X191472199Y-76009300D01*
X191559801Y-76009300D01*
X191645714Y-76026389D01*
X191645714Y-76026389D01*
G37*
G36*
X195455714Y-76026389D02*
G01*
X195536645Y-76059912D01*
X195609480Y-76108579D01*
X195671421Y-76170520D01*
X195720088Y-76243355D01*
X195753611Y-76324286D01*
X195770700Y-76410201D01*
X195770700Y-76497799D01*
X195753611Y-76583714D01*
X195720088Y-76664645D01*
X195671421Y-76737480D01*
X195609480Y-76799421D01*
X195536645Y-76848088D01*
X195536644Y-76848089D01*
X195536643Y-76848089D01*
X195455714Y-76881611D01*
X195369801Y-76898700D01*
X195282199Y-76898700D01*
X195196286Y-76881611D01*
X195115357Y-76848089D01*
X195115356Y-76848089D01*
X195115355Y-76848088D01*
X195042520Y-76799421D01*
X194980579Y-76737480D01*
X194931912Y-76664645D01*
X194898389Y-76583714D01*
X194881300Y-76497799D01*
X194881300Y-76410201D01*
X194898389Y-76324286D01*
X194931912Y-76243355D01*
X194980579Y-76170520D01*
X195042520Y-76108579D01*
X195115355Y-76059912D01*
X195196286Y-76026389D01*
X195282199Y-76009300D01*
X195369801Y-76009300D01*
X195455714Y-76026389D01*
X195455714Y-76026389D01*
G37*
G36*
X194185714Y-76026389D02*
G01*
X194266645Y-76059912D01*
X194339480Y-76108579D01*
X194401421Y-76170520D01*
X194450088Y-76243355D01*
X194483611Y-76324286D01*
X194500700Y-76410201D01*
X194500700Y-76497799D01*
X194483611Y-76583714D01*
X194450088Y-76664645D01*
X194401421Y-76737480D01*
X194339480Y-76799421D01*
X194266645Y-76848088D01*
X194266644Y-76848089D01*
X194266643Y-76848089D01*
X194185714Y-76881611D01*
X194099801Y-76898700D01*
X194012199Y-76898700D01*
X193926286Y-76881611D01*
X193845357Y-76848089D01*
X193845356Y-76848089D01*
X193845355Y-76848088D01*
X193772520Y-76799421D01*
X193710579Y-76737480D01*
X193661912Y-76664645D01*
X193628389Y-76583714D01*
X193611300Y-76497799D01*
X193611300Y-76410201D01*
X193628389Y-76324286D01*
X193661912Y-76243355D01*
X193710579Y-76170520D01*
X193772520Y-76108579D01*
X193845355Y-76059912D01*
X193926286Y-76026389D01*
X194012199Y-76009300D01*
X194099801Y-76009300D01*
X194185714Y-76026389D01*
X194185714Y-76026389D01*
G37*
G36*
X192915714Y-76026389D02*
G01*
X192996645Y-76059912D01*
X193069480Y-76108579D01*
X193131421Y-76170520D01*
X193180088Y-76243355D01*
X193213611Y-76324286D01*
X193230700Y-76410201D01*
X193230700Y-76497799D01*
X193213611Y-76583714D01*
X193180088Y-76664645D01*
X193131421Y-76737480D01*
X193069480Y-76799421D01*
X192996645Y-76848088D01*
X192996644Y-76848089D01*
X192996643Y-76848089D01*
X192915714Y-76881611D01*
X192829801Y-76898700D01*
X192742199Y-76898700D01*
X192656286Y-76881611D01*
X192575357Y-76848089D01*
X192575356Y-76848089D01*
X192575355Y-76848088D01*
X192502520Y-76799421D01*
X192440579Y-76737480D01*
X192391912Y-76664645D01*
X192358389Y-76583714D01*
X192341300Y-76497799D01*
X192341300Y-76410201D01*
X192358389Y-76324286D01*
X192391912Y-76243355D01*
X192440579Y-76170520D01*
X192502520Y-76108579D01*
X192575355Y-76059912D01*
X192656286Y-76026389D01*
X192742199Y-76009300D01*
X192829801Y-76009300D01*
X192915714Y-76026389D01*
X192915714Y-76026389D01*
G37*
G36*
X130471241Y-70232760D02*
G01*
X130735305Y-70342139D01*
X130972958Y-70500934D01*
X131175066Y-70703042D01*
X131333861Y-70940695D01*
X131443240Y-71204759D01*
X131499000Y-71485088D01*
X131499000Y-71770912D01*
X131443240Y-72051241D01*
X131333861Y-72315305D01*
X131175066Y-72552958D01*
X130972958Y-72755066D01*
X130735305Y-72913861D01*
X130471241Y-73023240D01*
X130190912Y-73079000D01*
X129905088Y-73079000D01*
X129624759Y-73023240D01*
X129360695Y-72913861D01*
X129123042Y-72755066D01*
X128920934Y-72552958D01*
X128762139Y-72315305D01*
X128652760Y-72051241D01*
X128597000Y-71770912D01*
X128597000Y-71485088D01*
X128652760Y-71204759D01*
X128762139Y-70940695D01*
X128920934Y-70703042D01*
X129123042Y-70500934D01*
X129360695Y-70342139D01*
X129624759Y-70232760D01*
X129905088Y-70177000D01*
X130190912Y-70177000D01*
X130471241Y-70232760D01*
X130471241Y-70232760D01*
G37*
G36*
X209719241Y-70232760D02*
G01*
X209983305Y-70342139D01*
X210220958Y-70500934D01*
X210423066Y-70703042D01*
X210581861Y-70940695D01*
X210691240Y-71204759D01*
X210747000Y-71485088D01*
X210747000Y-71770912D01*
X210691240Y-72051241D01*
X210581861Y-72315305D01*
X210423066Y-72552958D01*
X210220958Y-72755066D01*
X209983305Y-72913861D01*
X209719241Y-73023240D01*
X209438912Y-73079000D01*
X209153088Y-73079000D01*
X208872759Y-73023240D01*
X208608695Y-72913861D01*
X208371042Y-72755066D01*
X208168934Y-72552958D01*
X208010139Y-72315305D01*
X207900760Y-72051241D01*
X207845000Y-71770912D01*
X207845000Y-71485088D01*
X207900760Y-71204759D01*
X208010139Y-70940695D01*
X208168934Y-70703042D01*
X208371042Y-70500934D01*
X208608695Y-70342139D01*
X208872759Y-70232760D01*
X209153088Y-70177000D01*
X209438912Y-70177000D01*
X209719241Y-70232760D01*
X209719241Y-70232760D01*
G37*
G36*
X173064254Y-59241818D02*
G01*
X173437511Y-59396426D01*
X173437513Y-59396427D01*
X173773436Y-59620884D01*
X174059116Y-59906564D01*
X174283574Y-60242489D01*
X174438182Y-60615746D01*
X174517000Y-61011993D01*
X174517000Y-61416007D01*
X174438182Y-61812254D01*
X174283574Y-62185511D01*
X174283573Y-62185513D01*
X174059116Y-62521436D01*
X173773436Y-62807116D01*
X173437513Y-63031573D01*
X173437512Y-63031574D01*
X173437511Y-63031574D01*
X173064254Y-63186182D01*
X172668007Y-63265000D01*
X172263993Y-63265000D01*
X171867746Y-63186182D01*
X171494489Y-63031574D01*
X171494488Y-63031574D01*
X171494487Y-63031573D01*
X171158564Y-62807116D01*
X170872884Y-62521436D01*
X170648427Y-62185513D01*
X170648426Y-62185511D01*
X170493818Y-61812254D01*
X170415000Y-61416007D01*
X170415000Y-61011993D01*
X170493818Y-60615746D01*
X170648426Y-60242489D01*
X170872884Y-59906564D01*
X171158564Y-59620884D01*
X171494487Y-59396427D01*
X171494489Y-59396426D01*
X171867746Y-59241818D01*
X172263993Y-59163000D01*
X172668007Y-59163000D01*
X173064254Y-59241818D01*
X173064254Y-59241818D01*
G37*
G36*
X130471241Y-49150760D02*
G01*
X130735305Y-49260139D01*
X130972958Y-49418934D01*
X131175066Y-49621042D01*
X131333861Y-49858695D01*
X131443240Y-50122759D01*
X131499000Y-50403088D01*
X131499000Y-50688912D01*
X131443240Y-50969241D01*
X131333861Y-51233305D01*
X131175066Y-51470958D01*
X130972958Y-51673066D01*
X130735305Y-51831861D01*
X130471241Y-51941240D01*
X130190912Y-51997000D01*
X129905088Y-51997000D01*
X129624759Y-51941240D01*
X129360695Y-51831861D01*
X129123042Y-51673066D01*
X128920934Y-51470958D01*
X128762139Y-51233305D01*
X128652760Y-50969241D01*
X128597000Y-50688912D01*
X128597000Y-50403088D01*
X128652760Y-50122759D01*
X128762139Y-49858695D01*
X128920934Y-49621042D01*
X129123042Y-49418934D01*
X129360695Y-49260139D01*
X129624759Y-49150760D01*
X129905088Y-49095000D01*
X130190912Y-49095000D01*
X130471241Y-49150760D01*
X130471241Y-49150760D01*
G37*
G36*
X209719241Y-49150760D02*
G01*
X209983305Y-49260139D01*
X210220958Y-49418934D01*
X210423066Y-49621042D01*
X210581861Y-49858695D01*
X210691240Y-50122759D01*
X210747000Y-50403088D01*
X210747000Y-50688912D01*
X210691240Y-50969241D01*
X210581861Y-51233305D01*
X210423066Y-51470958D01*
X210220958Y-51673066D01*
X209983305Y-51831861D01*
X209719241Y-51941240D01*
X209438912Y-51997000D01*
X209153088Y-51997000D01*
X208872759Y-51941240D01*
X208608695Y-51831861D01*
X208371042Y-51673066D01*
X208168934Y-51470958D01*
X208010139Y-51233305D01*
X207900760Y-50969241D01*
X207845000Y-50688912D01*
X207845000Y-50403088D01*
X207900760Y-50122759D01*
X208010139Y-49858695D01*
X208168934Y-49621042D01*
X208371042Y-49418934D01*
X208608695Y-49260139D01*
X208872759Y-49150760D01*
X209153088Y-49095000D01*
X209438912Y-49095000D01*
X209719241Y-49150760D01*
X209719241Y-49150760D01*
G37*
M02*
