G04 #@! TF.GenerationSoftware,KiCad,Pcbnew,(5.1.4-0-10_14)*
G04 #@! TF.CreationDate,2021-02-23T13:16:56-08:00*
G04 #@! TF.ProjectId,fourkey,666f7572-6b65-4792-9e6b-696361645f70,rev?*
G04 #@! TF.SameCoordinates,Original*
G04 #@! TF.FileFunction,Copper,L2,Bot*
G04 #@! TF.FilePolarity,Positive*
%FSLAX46Y46*%
G04 Gerber Fmt 4.6, Leading zero omitted, Abs format (unit mm)*
G04 Created by KiCad (PCBNEW (5.1.4-0-10_14)) date 2021-02-23 13:16:56*
%MOMM*%
%LPD*%
G04 APERTURE LIST*
%ADD10C,4.000000*%
%ADD11C,2.800000*%
%ADD12C,2.500000*%
%ADD13C,2.500000*%
%ADD14C,1.600000*%
%ADD15R,1.600000X1.600000*%
%ADD16C,0.254000*%
G04 APERTURE END LIST*
D10*
X172466000Y-62230000D03*
D11*
X130048000Y-121142000D03*
X209296000Y-121142000D03*
X130048000Y-100060000D03*
X209296000Y-100060000D03*
X130048000Y-72644000D03*
X130048000Y-51562000D03*
X209296000Y-51562000D03*
X209296000Y-72644000D03*
D12*
X144998000Y-89615000D03*
D13*
X144049185Y-90219462D02*
X145946815Y-89010538D01*
D12*
X146268000Y-83840000D03*
D13*
X145978672Y-83859724D02*
X146557328Y-83820276D01*
D14*
X135890000Y-78740000D03*
X138430000Y-78740000D03*
X140970000Y-78740000D03*
X143510000Y-78740000D03*
X146050000Y-78740000D03*
X148590000Y-78740000D03*
X151130000Y-78740000D03*
X153670000Y-78740000D03*
X156210000Y-78740000D03*
X158750000Y-78740000D03*
X161290000Y-78740000D03*
X163830000Y-78740000D03*
X163830000Y-93980000D03*
X161290000Y-93980000D03*
X158750000Y-93980000D03*
X156210000Y-93980000D03*
X153670000Y-93980000D03*
X151130000Y-93980000D03*
X148590000Y-93980000D03*
X146050000Y-93980000D03*
X143510000Y-93980000D03*
X140970000Y-93980000D03*
X138430000Y-93980000D03*
D15*
X135890000Y-93980000D03*
D12*
X165318000Y-83840000D03*
D13*
X165028672Y-83859724D02*
X165607328Y-83820276D01*
D12*
X164048000Y-89615000D03*
D13*
X163099185Y-90219462D02*
X164996815Y-89010538D01*
D12*
X183098000Y-89615000D03*
D13*
X182149185Y-90219462D02*
X184046815Y-89010538D01*
D12*
X184368000Y-83840000D03*
D13*
X184078672Y-83859724D02*
X184657328Y-83820276D01*
D12*
X203418000Y-83840000D03*
D13*
X203128672Y-83859724D02*
X203707328Y-83820276D01*
D12*
X202148000Y-89615000D03*
D13*
X201199185Y-90219462D02*
X203096815Y-89010538D01*
D16*
G36*
X194838728Y-77111622D02*
G01*
X195025939Y-77189167D01*
X195224682Y-77228700D01*
X195427318Y-77228700D01*
X195626061Y-77189167D01*
X195813272Y-77111622D01*
X195893378Y-77058097D01*
X195903439Y-77068371D01*
X195910540Y-77074245D01*
X195986160Y-77135921D01*
X196036025Y-77169052D01*
X196085350Y-77202825D01*
X196093445Y-77207202D01*
X196093448Y-77207204D01*
X196093451Y-77207205D01*
X196093456Y-77207208D01*
X196179617Y-77253020D01*
X196234909Y-77275809D01*
X196289898Y-77299378D01*
X196298701Y-77302103D01*
X196392119Y-77330308D01*
X196450826Y-77341933D01*
X196509316Y-77354365D01*
X196518470Y-77355327D01*
X196518476Y-77355328D01*
X196518481Y-77355328D01*
X196615598Y-77364850D01*
X196647581Y-77368000D01*
X207620001Y-77368000D01*
X207620000Y-95352000D01*
X196647581Y-95352000D01*
X196615100Y-95355199D01*
X196608617Y-95355199D01*
X196599453Y-95356163D01*
X196557242Y-95360897D01*
X196550617Y-95361550D01*
X196550143Y-95361694D01*
X196502478Y-95367040D01*
X196443984Y-95379473D01*
X196385284Y-95391096D01*
X196376481Y-95393821D01*
X196283465Y-95423327D01*
X196228487Y-95446891D01*
X196173175Y-95469689D01*
X196165069Y-95474072D01*
X196079558Y-95521083D01*
X196030236Y-95554855D01*
X195980378Y-95587980D01*
X195973278Y-95593854D01*
X195898525Y-95656579D01*
X195893338Y-95661876D01*
X195813272Y-95608378D01*
X195626061Y-95530833D01*
X195427318Y-95491300D01*
X195224682Y-95491300D01*
X195025939Y-95530833D01*
X194838728Y-95608378D01*
X194691000Y-95707087D01*
X194543272Y-95608378D01*
X194356061Y-95530833D01*
X194157318Y-95491300D01*
X193954682Y-95491300D01*
X193755939Y-95530833D01*
X193568728Y-95608378D01*
X193421000Y-95707087D01*
X193273272Y-95608378D01*
X193086061Y-95530833D01*
X192887318Y-95491300D01*
X192684682Y-95491300D01*
X192485939Y-95530833D01*
X192298728Y-95608378D01*
X192151000Y-95707087D01*
X192003272Y-95608378D01*
X191816061Y-95530833D01*
X191617318Y-95491300D01*
X191414682Y-95491300D01*
X191215939Y-95530833D01*
X191028728Y-95608378D01*
X190881000Y-95707087D01*
X190733272Y-95608378D01*
X190546061Y-95530833D01*
X190347318Y-95491300D01*
X190144682Y-95491300D01*
X189945939Y-95530833D01*
X189758728Y-95608378D01*
X189739436Y-95621269D01*
X189693834Y-95584077D01*
X189644026Y-95550984D01*
X189594652Y-95517177D01*
X189586546Y-95512794D01*
X189500386Y-95466982D01*
X189445077Y-95444185D01*
X189390102Y-95420623D01*
X189381299Y-95417898D01*
X189287881Y-95389693D01*
X189229174Y-95378068D01*
X189170684Y-95365636D01*
X189161530Y-95364674D01*
X189161524Y-95364673D01*
X189161519Y-95364673D01*
X189066632Y-95355370D01*
X189032419Y-95352000D01*
X164267533Y-95352000D01*
X164509727Y-95251680D01*
X164744759Y-95094637D01*
X164944637Y-94894759D01*
X165101680Y-94659727D01*
X165209853Y-94398574D01*
X165265000Y-94121335D01*
X165265000Y-93838665D01*
X165209853Y-93561426D01*
X165101680Y-93300273D01*
X164944637Y-93065241D01*
X164744759Y-92865363D01*
X164509727Y-92708320D01*
X164248574Y-92600147D01*
X163971335Y-92545000D01*
X163688665Y-92545000D01*
X163411426Y-92600147D01*
X163150273Y-92708320D01*
X162915241Y-92865363D01*
X162715363Y-93065241D01*
X162560000Y-93297759D01*
X162404637Y-93065241D01*
X162204759Y-92865363D01*
X161969727Y-92708320D01*
X161708574Y-92600147D01*
X161508943Y-92560437D01*
X161682174Y-92387206D01*
X161844788Y-92143838D01*
X161956798Y-91873421D01*
X161982353Y-91744946D01*
X162012763Y-91771034D01*
X162336336Y-91953172D01*
X162689223Y-92068683D01*
X163057865Y-92113131D01*
X163428096Y-92084806D01*
X163785686Y-91984796D01*
X164033899Y-91859007D01*
X164921328Y-91293652D01*
X178092100Y-91293652D01*
X178092100Y-91586348D01*
X178149202Y-91873421D01*
X178261212Y-92143838D01*
X178423826Y-92387206D01*
X178630794Y-92594174D01*
X178874162Y-92756788D01*
X179144579Y-92868798D01*
X179431652Y-92925900D01*
X179724348Y-92925900D01*
X180011421Y-92868798D01*
X180281838Y-92756788D01*
X180525206Y-92594174D01*
X180732174Y-92387206D01*
X180894788Y-92143838D01*
X181006798Y-91873421D01*
X181032353Y-91744946D01*
X181062763Y-91771034D01*
X181386336Y-91953172D01*
X181739223Y-92068683D01*
X182107865Y-92113131D01*
X182478096Y-92084806D01*
X182835686Y-91984796D01*
X183083899Y-91859007D01*
X183971328Y-91293652D01*
X197142100Y-91293652D01*
X197142100Y-91586348D01*
X197199202Y-91873421D01*
X197311212Y-92143838D01*
X197473826Y-92387206D01*
X197680794Y-92594174D01*
X197924162Y-92756788D01*
X198194579Y-92868798D01*
X198481652Y-92925900D01*
X198774348Y-92925900D01*
X199061421Y-92868798D01*
X199331838Y-92756788D01*
X199575206Y-92594174D01*
X199782174Y-92387206D01*
X199944788Y-92143838D01*
X200056798Y-91873421D01*
X200082353Y-91744946D01*
X200112763Y-91771034D01*
X200436336Y-91953172D01*
X200789223Y-92068683D01*
X201157865Y-92113131D01*
X201528096Y-92084806D01*
X201885686Y-91984796D01*
X202133899Y-91859007D01*
X204187720Y-90550578D01*
X204406623Y-90378782D01*
X204648387Y-90096961D01*
X204830524Y-89773389D01*
X204946036Y-89420501D01*
X204990483Y-89051859D01*
X204962158Y-88681627D01*
X204862149Y-88324037D01*
X204694299Y-87992829D01*
X204465058Y-87700730D01*
X204183237Y-87458966D01*
X203859664Y-87276829D01*
X203506777Y-87161317D01*
X203138134Y-87116869D01*
X202767903Y-87145195D01*
X202410312Y-87245204D01*
X202162100Y-87370994D01*
X200108280Y-88679422D01*
X199889377Y-88851218D01*
X199647613Y-89133040D01*
X199465475Y-89456613D01*
X199349964Y-89809500D01*
X199313076Y-90115441D01*
X199061421Y-90011202D01*
X198774348Y-89954100D01*
X198481652Y-89954100D01*
X198194579Y-90011202D01*
X197924162Y-90123212D01*
X197680794Y-90285826D01*
X197473826Y-90492794D01*
X197311212Y-90736162D01*
X197199202Y-91006579D01*
X197142100Y-91293652D01*
X183971328Y-91293652D01*
X185137720Y-90550578D01*
X185356623Y-90378782D01*
X185598387Y-90096961D01*
X185780524Y-89773389D01*
X185896036Y-89420501D01*
X185940483Y-89051859D01*
X185912158Y-88681627D01*
X185812149Y-88324037D01*
X185644299Y-87992829D01*
X185415058Y-87700730D01*
X185133237Y-87458966D01*
X184809664Y-87276829D01*
X184456777Y-87161317D01*
X184088134Y-87116869D01*
X183717903Y-87145195D01*
X183360312Y-87245204D01*
X183112100Y-87370994D01*
X181058280Y-88679422D01*
X180839377Y-88851218D01*
X180597613Y-89133040D01*
X180415475Y-89456613D01*
X180299964Y-89809500D01*
X180263076Y-90115441D01*
X180011421Y-90011202D01*
X179724348Y-89954100D01*
X179431652Y-89954100D01*
X179144579Y-90011202D01*
X178874162Y-90123212D01*
X178630794Y-90285826D01*
X178423826Y-90492794D01*
X178261212Y-90736162D01*
X178149202Y-91006579D01*
X178092100Y-91293652D01*
X164921328Y-91293652D01*
X166087720Y-90550578D01*
X166306623Y-90378782D01*
X166548387Y-90096961D01*
X166730524Y-89773389D01*
X166846036Y-89420501D01*
X166890483Y-89051859D01*
X166862158Y-88681627D01*
X166762149Y-88324037D01*
X166594299Y-87992829D01*
X166365058Y-87700730D01*
X166083237Y-87458966D01*
X165759664Y-87276829D01*
X165406777Y-87161317D01*
X165038134Y-87116869D01*
X164667903Y-87145195D01*
X164310312Y-87245204D01*
X164062100Y-87370994D01*
X162008280Y-88679422D01*
X161789377Y-88851218D01*
X161547613Y-89133040D01*
X161365475Y-89456613D01*
X161249964Y-89809500D01*
X161213076Y-90115441D01*
X160961421Y-90011202D01*
X160674348Y-89954100D01*
X160381652Y-89954100D01*
X160094579Y-90011202D01*
X159824162Y-90123212D01*
X159580794Y-90285826D01*
X159373826Y-90492794D01*
X159211212Y-90736162D01*
X159099202Y-91006579D01*
X159042100Y-91293652D01*
X159042100Y-91586348D01*
X159099202Y-91873421D01*
X159211212Y-92143838D01*
X159373826Y-92387206D01*
X159580794Y-92594174D01*
X159824162Y-92756788D01*
X160094579Y-92868798D01*
X160325811Y-92914793D01*
X160175363Y-93065241D01*
X160020000Y-93297759D01*
X159864637Y-93065241D01*
X159664759Y-92865363D01*
X159429727Y-92708320D01*
X159168574Y-92600147D01*
X158891335Y-92545000D01*
X158608665Y-92545000D01*
X158331426Y-92600147D01*
X158070273Y-92708320D01*
X157835241Y-92865363D01*
X157635363Y-93065241D01*
X157480000Y-93297759D01*
X157324637Y-93065241D01*
X157124759Y-92865363D01*
X156889727Y-92708320D01*
X156628574Y-92600147D01*
X156351335Y-92545000D01*
X156068665Y-92545000D01*
X155791426Y-92600147D01*
X155530273Y-92708320D01*
X155295241Y-92865363D01*
X155095363Y-93065241D01*
X154940000Y-93297759D01*
X154784637Y-93065241D01*
X154584759Y-92865363D01*
X154349727Y-92708320D01*
X154088574Y-92600147D01*
X153811335Y-92545000D01*
X153528665Y-92545000D01*
X153251426Y-92600147D01*
X152990273Y-92708320D01*
X152755241Y-92865363D01*
X152555363Y-93065241D01*
X152400000Y-93297759D01*
X152244637Y-93065241D01*
X152044759Y-92865363D01*
X151809727Y-92708320D01*
X151548574Y-92600147D01*
X151271335Y-92545000D01*
X150988665Y-92545000D01*
X150711426Y-92600147D01*
X150450273Y-92708320D01*
X150215241Y-92865363D01*
X150015363Y-93065241D01*
X149860000Y-93297759D01*
X149704637Y-93065241D01*
X149504759Y-92865363D01*
X149269727Y-92708320D01*
X149008574Y-92600147D01*
X148731335Y-92545000D01*
X148448665Y-92545000D01*
X148171426Y-92600147D01*
X147910273Y-92708320D01*
X147675241Y-92865363D01*
X147475363Y-93065241D01*
X147320000Y-93297759D01*
X147164637Y-93065241D01*
X146964759Y-92865363D01*
X146729727Y-92708320D01*
X146468574Y-92600147D01*
X146191335Y-92545000D01*
X145908665Y-92545000D01*
X145631426Y-92600147D01*
X145370273Y-92708320D01*
X145135241Y-92865363D01*
X144935363Y-93065241D01*
X144779085Y-93299128D01*
X144746671Y-93238486D01*
X144502702Y-93166903D01*
X143689605Y-93980000D01*
X144502702Y-94793097D01*
X144746671Y-94721514D01*
X144777194Y-94657008D01*
X144778320Y-94659727D01*
X144935363Y-94894759D01*
X145135241Y-95094637D01*
X145370273Y-95251680D01*
X145631426Y-95359853D01*
X145908665Y-95415000D01*
X146191335Y-95415000D01*
X146468574Y-95359853D01*
X146729727Y-95251680D01*
X146964759Y-95094637D01*
X147164637Y-94894759D01*
X147320000Y-94662241D01*
X147475363Y-94894759D01*
X147675241Y-95094637D01*
X147910273Y-95251680D01*
X148171426Y-95359853D01*
X148448665Y-95415000D01*
X148731335Y-95415000D01*
X149008574Y-95359853D01*
X149269727Y-95251680D01*
X149504759Y-95094637D01*
X149704637Y-94894759D01*
X149860000Y-94662241D01*
X150015363Y-94894759D01*
X150215241Y-95094637D01*
X150450273Y-95251680D01*
X150711426Y-95359853D01*
X150847933Y-95387006D01*
X150827284Y-95391095D01*
X150818481Y-95393820D01*
X150725465Y-95423326D01*
X150670505Y-95446882D01*
X150615178Y-95469686D01*
X150607072Y-95474069D01*
X150521559Y-95521080D01*
X150472208Y-95554872D01*
X150422374Y-95587982D01*
X150415274Y-95593856D01*
X150375494Y-95627236D01*
X150347272Y-95608378D01*
X150160061Y-95530833D01*
X149961318Y-95491300D01*
X149758682Y-95491300D01*
X149559939Y-95530833D01*
X149372728Y-95608378D01*
X149225000Y-95707087D01*
X149077272Y-95608378D01*
X148890061Y-95530833D01*
X148691318Y-95491300D01*
X148488682Y-95491300D01*
X148289939Y-95530833D01*
X148102728Y-95608378D01*
X147955000Y-95707087D01*
X147807272Y-95608378D01*
X147620061Y-95530833D01*
X147421318Y-95491300D01*
X147218682Y-95491300D01*
X147019939Y-95530833D01*
X146832728Y-95608378D01*
X146685000Y-95707087D01*
X146537272Y-95608378D01*
X146350061Y-95530833D01*
X146151318Y-95491300D01*
X145948682Y-95491300D01*
X145749939Y-95530833D01*
X145562728Y-95608378D01*
X145415000Y-95707087D01*
X145267272Y-95608378D01*
X145080061Y-95530833D01*
X144881318Y-95491300D01*
X144678682Y-95491300D01*
X144479939Y-95530833D01*
X144292728Y-95608378D01*
X144260244Y-95630083D01*
X144203839Y-95584079D01*
X144154034Y-95550988D01*
X144104650Y-95517174D01*
X144096544Y-95512792D01*
X144010383Y-95466980D01*
X143955091Y-95444191D01*
X143900102Y-95420622D01*
X143891299Y-95417897D01*
X143797881Y-95389692D01*
X143793023Y-95388730D01*
X143860130Y-95378787D01*
X144126292Y-95283603D01*
X144251514Y-95216671D01*
X144323097Y-94972702D01*
X143510000Y-94159605D01*
X142696903Y-94972702D01*
X142768486Y-95216671D01*
X143023996Y-95337571D01*
X143081559Y-95352000D01*
X141395034Y-95352000D01*
X141586292Y-95283603D01*
X141711514Y-95216671D01*
X141783097Y-94972702D01*
X140970000Y-94159605D01*
X140156903Y-94972702D01*
X140228486Y-95216671D01*
X140483996Y-95337571D01*
X140541559Y-95352000D01*
X138867533Y-95352000D01*
X139109727Y-95251680D01*
X139344759Y-95094637D01*
X139544637Y-94894759D01*
X139700915Y-94660872D01*
X139733329Y-94721514D01*
X139977298Y-94793097D01*
X140790395Y-93980000D01*
X141149605Y-93980000D01*
X141962702Y-94793097D01*
X142206671Y-94721514D01*
X142237971Y-94655364D01*
X142273329Y-94721514D01*
X142517298Y-94793097D01*
X143330395Y-93980000D01*
X142517298Y-93166903D01*
X142273329Y-93238486D01*
X142242029Y-93304636D01*
X142206671Y-93238486D01*
X141962702Y-93166903D01*
X141149605Y-93980000D01*
X140790395Y-93980000D01*
X139977298Y-93166903D01*
X139733329Y-93238486D01*
X139702806Y-93302992D01*
X139701680Y-93300273D01*
X139544637Y-93065241D01*
X139344759Y-92865363D01*
X139109727Y-92708320D01*
X138848574Y-92600147D01*
X138571335Y-92545000D01*
X138288665Y-92545000D01*
X138011426Y-92600147D01*
X137750273Y-92708320D01*
X137515241Y-92865363D01*
X137316643Y-93063961D01*
X137315812Y-93055518D01*
X137279502Y-92935820D01*
X137220537Y-92825506D01*
X137141185Y-92728815D01*
X137044494Y-92649463D01*
X136934180Y-92590498D01*
X136814482Y-92554188D01*
X136690000Y-92541928D01*
X135090000Y-92541928D01*
X134965518Y-92554188D01*
X134845820Y-92590498D01*
X134735506Y-92649463D01*
X134638815Y-92728815D01*
X134559463Y-92825506D01*
X134500498Y-92935820D01*
X134464188Y-93055518D01*
X134451928Y-93180000D01*
X134451928Y-94780000D01*
X134464188Y-94904482D01*
X134500498Y-95024180D01*
X134559463Y-95134494D01*
X134638815Y-95231185D01*
X134735506Y-95310537D01*
X134813077Y-95352000D01*
X132486000Y-95352000D01*
X132486000Y-91293652D01*
X139992100Y-91293652D01*
X139992100Y-91586348D01*
X140049202Y-91873421D01*
X140161212Y-92143838D01*
X140323826Y-92387206D01*
X140530794Y-92594174D01*
X140549213Y-92606481D01*
X140353708Y-92676397D01*
X140228486Y-92743329D01*
X140156903Y-92987298D01*
X140970000Y-93800395D01*
X141783097Y-92987298D01*
X142696903Y-92987298D01*
X143510000Y-93800395D01*
X144323097Y-92987298D01*
X144251514Y-92743329D01*
X143996004Y-92622429D01*
X143721816Y-92553700D01*
X143439488Y-92539783D01*
X143159870Y-92581213D01*
X142893708Y-92676397D01*
X142768486Y-92743329D01*
X142696903Y-92987298D01*
X141783097Y-92987298D01*
X141757322Y-92899450D01*
X141911421Y-92868798D01*
X142181838Y-92756788D01*
X142425206Y-92594174D01*
X142632174Y-92387206D01*
X142794788Y-92143838D01*
X142906798Y-91873421D01*
X142932353Y-91744946D01*
X142962763Y-91771034D01*
X143286336Y-91953172D01*
X143639223Y-92068683D01*
X144007865Y-92113131D01*
X144378096Y-92084806D01*
X144735686Y-91984796D01*
X144983899Y-91859007D01*
X147037720Y-90550578D01*
X147256623Y-90378782D01*
X147498387Y-90096961D01*
X147680524Y-89773389D01*
X147796036Y-89420501D01*
X147840483Y-89051859D01*
X147812158Y-88681627D01*
X147712149Y-88324037D01*
X147544299Y-87992829D01*
X147315058Y-87700730D01*
X147033237Y-87458966D01*
X146709664Y-87276829D01*
X146356777Y-87161317D01*
X145988134Y-87116869D01*
X145617903Y-87145195D01*
X145260312Y-87245204D01*
X145012100Y-87370994D01*
X142958280Y-88679422D01*
X142739377Y-88851218D01*
X142497613Y-89133040D01*
X142315475Y-89456613D01*
X142199964Y-89809500D01*
X142163076Y-90115441D01*
X141911421Y-90011202D01*
X141624348Y-89954100D01*
X141331652Y-89954100D01*
X141044579Y-90011202D01*
X140774162Y-90123212D01*
X140530794Y-90285826D01*
X140323826Y-90492794D01*
X140161212Y-90736162D01*
X140049202Y-91006579D01*
X139992100Y-91293652D01*
X132486000Y-91293652D01*
X132486000Y-86101076D01*
X138849100Y-86101076D01*
X138849100Y-86618924D01*
X138950127Y-87126822D01*
X139148299Y-87605251D01*
X139436000Y-88035826D01*
X139802174Y-88402000D01*
X140232749Y-88689701D01*
X140711178Y-88887873D01*
X141219076Y-88988900D01*
X141736924Y-88988900D01*
X142244822Y-88887873D01*
X142723251Y-88689701D01*
X143153826Y-88402000D01*
X143520000Y-88035826D01*
X143807701Y-87605251D01*
X144005873Y-87126822D01*
X144106900Y-86618924D01*
X144106900Y-86101076D01*
X157899100Y-86101076D01*
X157899100Y-86618924D01*
X158000127Y-87126822D01*
X158198299Y-87605251D01*
X158486000Y-88035826D01*
X158852174Y-88402000D01*
X159282749Y-88689701D01*
X159761178Y-88887873D01*
X160269076Y-88988900D01*
X160786924Y-88988900D01*
X161294822Y-88887873D01*
X161773251Y-88689701D01*
X162203826Y-88402000D01*
X162570000Y-88035826D01*
X162857701Y-87605251D01*
X163055873Y-87126822D01*
X163156900Y-86618924D01*
X163156900Y-86101076D01*
X176949100Y-86101076D01*
X176949100Y-86618924D01*
X177050127Y-87126822D01*
X177248299Y-87605251D01*
X177536000Y-88035826D01*
X177902174Y-88402000D01*
X178332749Y-88689701D01*
X178811178Y-88887873D01*
X179319076Y-88988900D01*
X179836924Y-88988900D01*
X180344822Y-88887873D01*
X180823251Y-88689701D01*
X181253826Y-88402000D01*
X181620000Y-88035826D01*
X181907701Y-87605251D01*
X182105873Y-87126822D01*
X182206900Y-86618924D01*
X182206900Y-86101076D01*
X195999100Y-86101076D01*
X195999100Y-86618924D01*
X196100127Y-87126822D01*
X196298299Y-87605251D01*
X196586000Y-88035826D01*
X196952174Y-88402000D01*
X197382749Y-88689701D01*
X197861178Y-88887873D01*
X198369076Y-88988900D01*
X198886924Y-88988900D01*
X199394822Y-88887873D01*
X199873251Y-88689701D01*
X200303826Y-88402000D01*
X200670000Y-88035826D01*
X200957701Y-87605251D01*
X201155873Y-87126822D01*
X201256900Y-86618924D01*
X201256900Y-86101076D01*
X201155873Y-85593178D01*
X200957701Y-85114749D01*
X200670000Y-84684174D01*
X200303826Y-84318000D01*
X199873251Y-84030299D01*
X199772461Y-83988550D01*
X201238939Y-83988550D01*
X201300382Y-84354743D01*
X201432085Y-84701913D01*
X201628989Y-85016719D01*
X201883523Y-85287061D01*
X202185908Y-85502552D01*
X202524523Y-85654910D01*
X202886355Y-85738279D01*
X203164495Y-85746656D01*
X203927916Y-85694613D01*
X204202347Y-85648566D01*
X204549517Y-85516863D01*
X204864323Y-85319959D01*
X205134665Y-85065425D01*
X205350156Y-84763040D01*
X205502514Y-84424425D01*
X205585883Y-84062593D01*
X205597061Y-83691450D01*
X205535618Y-83325257D01*
X205403914Y-82978087D01*
X205207011Y-82663281D01*
X204952477Y-82392939D01*
X204650092Y-82177448D01*
X204311477Y-82025090D01*
X203949645Y-81941721D01*
X203671504Y-81933344D01*
X202908084Y-81985387D01*
X202633653Y-82031434D01*
X202286483Y-82163137D01*
X201971677Y-82360041D01*
X201701335Y-82614575D01*
X201485844Y-82916960D01*
X201333486Y-83255575D01*
X201250117Y-83617407D01*
X201238939Y-83988550D01*
X199772461Y-83988550D01*
X199394822Y-83832127D01*
X198886924Y-83731100D01*
X198369076Y-83731100D01*
X197861178Y-83832127D01*
X197382749Y-84030299D01*
X196952174Y-84318000D01*
X196586000Y-84684174D01*
X196298299Y-85114749D01*
X196100127Y-85593178D01*
X195999100Y-86101076D01*
X182206900Y-86101076D01*
X182105873Y-85593178D01*
X181907701Y-85114749D01*
X181620000Y-84684174D01*
X181253826Y-84318000D01*
X180823251Y-84030299D01*
X180722461Y-83988550D01*
X182188939Y-83988550D01*
X182250382Y-84354743D01*
X182382085Y-84701913D01*
X182578989Y-85016719D01*
X182833523Y-85287061D01*
X183135908Y-85502552D01*
X183474523Y-85654910D01*
X183836355Y-85738279D01*
X184114495Y-85746656D01*
X184877916Y-85694613D01*
X185152347Y-85648566D01*
X185499517Y-85516863D01*
X185814323Y-85319959D01*
X186084665Y-85065425D01*
X186300156Y-84763040D01*
X186452514Y-84424425D01*
X186535883Y-84062593D01*
X186547061Y-83691450D01*
X186485618Y-83325257D01*
X186353914Y-82978087D01*
X186157011Y-82663281D01*
X185902477Y-82392939D01*
X185600092Y-82177448D01*
X185261477Y-82025090D01*
X184899645Y-81941721D01*
X184621504Y-81933344D01*
X183858084Y-81985387D01*
X183583653Y-82031434D01*
X183236483Y-82163137D01*
X182921677Y-82360041D01*
X182651335Y-82614575D01*
X182435844Y-82916960D01*
X182283486Y-83255575D01*
X182200117Y-83617407D01*
X182188939Y-83988550D01*
X180722461Y-83988550D01*
X180344822Y-83832127D01*
X179836924Y-83731100D01*
X179319076Y-83731100D01*
X178811178Y-83832127D01*
X178332749Y-84030299D01*
X177902174Y-84318000D01*
X177536000Y-84684174D01*
X177248299Y-85114749D01*
X177050127Y-85593178D01*
X176949100Y-86101076D01*
X163156900Y-86101076D01*
X163055873Y-85593178D01*
X162857701Y-85114749D01*
X162570000Y-84684174D01*
X162203826Y-84318000D01*
X161773251Y-84030299D01*
X161672461Y-83988550D01*
X163138939Y-83988550D01*
X163200382Y-84354743D01*
X163332085Y-84701913D01*
X163528989Y-85016719D01*
X163783523Y-85287061D01*
X164085908Y-85502552D01*
X164424523Y-85654910D01*
X164786355Y-85738279D01*
X165064495Y-85746656D01*
X165827916Y-85694613D01*
X166102347Y-85648566D01*
X166449517Y-85516863D01*
X166764323Y-85319959D01*
X167034665Y-85065425D01*
X167250156Y-84763040D01*
X167402514Y-84424425D01*
X167485883Y-84062593D01*
X167497061Y-83691450D01*
X167435618Y-83325257D01*
X167303914Y-82978087D01*
X167107011Y-82663281D01*
X166852477Y-82392939D01*
X166550092Y-82177448D01*
X166211477Y-82025090D01*
X165849645Y-81941721D01*
X165571504Y-81933344D01*
X164808084Y-81985387D01*
X164533653Y-82031434D01*
X164186483Y-82163137D01*
X163871677Y-82360041D01*
X163601335Y-82614575D01*
X163385844Y-82916960D01*
X163233486Y-83255575D01*
X163150117Y-83617407D01*
X163138939Y-83988550D01*
X161672461Y-83988550D01*
X161294822Y-83832127D01*
X160786924Y-83731100D01*
X160269076Y-83731100D01*
X159761178Y-83832127D01*
X159282749Y-84030299D01*
X158852174Y-84318000D01*
X158486000Y-84684174D01*
X158198299Y-85114749D01*
X158000127Y-85593178D01*
X157899100Y-86101076D01*
X144106900Y-86101076D01*
X144005873Y-85593178D01*
X143807701Y-85114749D01*
X143520000Y-84684174D01*
X143153826Y-84318000D01*
X142723251Y-84030299D01*
X142622461Y-83988550D01*
X144088939Y-83988550D01*
X144150382Y-84354743D01*
X144282085Y-84701913D01*
X144478989Y-85016719D01*
X144733523Y-85287061D01*
X145035908Y-85502552D01*
X145374523Y-85654910D01*
X145736355Y-85738279D01*
X146014495Y-85746656D01*
X146777916Y-85694613D01*
X147052347Y-85648566D01*
X147399517Y-85516863D01*
X147714323Y-85319959D01*
X147984665Y-85065425D01*
X148200156Y-84763040D01*
X148352514Y-84424425D01*
X148435883Y-84062593D01*
X148447061Y-83691450D01*
X148385618Y-83325257D01*
X148253914Y-82978087D01*
X148057011Y-82663281D01*
X147802477Y-82392939D01*
X147500092Y-82177448D01*
X147161477Y-82025090D01*
X146799645Y-81941721D01*
X146521504Y-81933344D01*
X145758084Y-81985387D01*
X145483653Y-82031434D01*
X145136483Y-82163137D01*
X144821677Y-82360041D01*
X144551335Y-82614575D01*
X144335844Y-82916960D01*
X144183486Y-83255575D01*
X144100117Y-83617407D01*
X144088939Y-83988550D01*
X142622461Y-83988550D01*
X142244822Y-83832127D01*
X141736924Y-83731100D01*
X141219076Y-83731100D01*
X140711178Y-83832127D01*
X140232749Y-84030299D01*
X139802174Y-84318000D01*
X139436000Y-84684174D01*
X139148299Y-85114749D01*
X138950127Y-85593178D01*
X138849100Y-86101076D01*
X132486000Y-86101076D01*
X132486000Y-77368000D01*
X135452467Y-77368000D01*
X135210273Y-77468320D01*
X134975241Y-77625363D01*
X134775363Y-77825241D01*
X134618320Y-78060273D01*
X134510147Y-78321426D01*
X134455000Y-78598665D01*
X134455000Y-78881335D01*
X134510147Y-79158574D01*
X134618320Y-79419727D01*
X134775363Y-79654759D01*
X134975241Y-79854637D01*
X135210273Y-80011680D01*
X135471426Y-80119853D01*
X135748665Y-80175000D01*
X136031335Y-80175000D01*
X136308574Y-80119853D01*
X136569727Y-80011680D01*
X136804759Y-79854637D01*
X136926694Y-79732702D01*
X137616903Y-79732702D01*
X137688486Y-79976671D01*
X137943996Y-80097571D01*
X138218184Y-80166300D01*
X138500512Y-80180217D01*
X138780130Y-80138787D01*
X139046292Y-80043603D01*
X139171514Y-79976671D01*
X139243097Y-79732702D01*
X138430000Y-78919605D01*
X137616903Y-79732702D01*
X136926694Y-79732702D01*
X137004637Y-79654759D01*
X137160915Y-79420872D01*
X137193329Y-79481514D01*
X137437298Y-79553097D01*
X138250395Y-78740000D01*
X137437298Y-77926903D01*
X137193329Y-77998486D01*
X137162806Y-78062992D01*
X137161680Y-78060273D01*
X137004637Y-77825241D01*
X136804759Y-77625363D01*
X136569727Y-77468320D01*
X136327533Y-77368000D01*
X138004966Y-77368000D01*
X137813708Y-77436397D01*
X137688486Y-77503329D01*
X137616903Y-77747298D01*
X138430000Y-78560395D01*
X139243097Y-77747298D01*
X139171514Y-77503329D01*
X138916004Y-77382429D01*
X138858441Y-77368000D01*
X140532467Y-77368000D01*
X140290273Y-77468320D01*
X140055241Y-77625363D01*
X139855363Y-77825241D01*
X139699085Y-78059128D01*
X139666671Y-77998486D01*
X139422702Y-77926903D01*
X138609605Y-78740000D01*
X139422702Y-79553097D01*
X139666671Y-79481514D01*
X139697194Y-79417008D01*
X139698320Y-79419727D01*
X139855363Y-79654759D01*
X140055241Y-79854637D01*
X140290273Y-80011680D01*
X140544208Y-80116863D01*
X140530794Y-80125826D01*
X140323826Y-80332794D01*
X140161212Y-80576162D01*
X140049202Y-80846579D01*
X139992100Y-81133652D01*
X139992100Y-81426348D01*
X140049202Y-81713421D01*
X140161212Y-81983838D01*
X140323826Y-82227206D01*
X140530794Y-82434174D01*
X140774162Y-82596788D01*
X141044579Y-82708798D01*
X141331652Y-82765900D01*
X141624348Y-82765900D01*
X141911421Y-82708798D01*
X142181838Y-82596788D01*
X142425206Y-82434174D01*
X142632174Y-82227206D01*
X142794788Y-81983838D01*
X142906798Y-81713421D01*
X142963900Y-81426348D01*
X142963900Y-81133652D01*
X142906798Y-80846579D01*
X142794788Y-80576162D01*
X142632174Y-80332794D01*
X142425206Y-80125826D01*
X142181838Y-79963212D01*
X141911421Y-79851202D01*
X141892048Y-79847348D01*
X142084637Y-79654759D01*
X142240000Y-79422241D01*
X142395363Y-79654759D01*
X142595241Y-79854637D01*
X142830273Y-80011680D01*
X143091426Y-80119853D01*
X143368665Y-80175000D01*
X143651335Y-80175000D01*
X143928574Y-80119853D01*
X144189727Y-80011680D01*
X144424759Y-79854637D01*
X144624637Y-79654759D01*
X144780000Y-79422241D01*
X144935363Y-79654759D01*
X145135241Y-79854637D01*
X145370273Y-80011680D01*
X145631426Y-80119853D01*
X145908665Y-80175000D01*
X146191335Y-80175000D01*
X146468574Y-80119853D01*
X146729727Y-80011680D01*
X146964759Y-79854637D01*
X147164637Y-79654759D01*
X147320000Y-79422241D01*
X147475363Y-79654759D01*
X147675241Y-79854637D01*
X147910273Y-80011680D01*
X148171426Y-80119853D01*
X148448665Y-80175000D01*
X148731335Y-80175000D01*
X149008574Y-80119853D01*
X149269727Y-80011680D01*
X149504759Y-79854637D01*
X149704637Y-79654759D01*
X149860000Y-79422241D01*
X150015363Y-79654759D01*
X150215241Y-79854637D01*
X150450273Y-80011680D01*
X150711426Y-80119853D01*
X150988665Y-80175000D01*
X151271335Y-80175000D01*
X151548574Y-80119853D01*
X151809727Y-80011680D01*
X152044759Y-79854637D01*
X152244637Y-79654759D01*
X152400000Y-79422241D01*
X152555363Y-79654759D01*
X152755241Y-79854637D01*
X152990273Y-80011680D01*
X153251426Y-80119853D01*
X153528665Y-80175000D01*
X153811335Y-80175000D01*
X154088574Y-80119853D01*
X154349727Y-80011680D01*
X154584759Y-79854637D01*
X154784637Y-79654759D01*
X154940000Y-79422241D01*
X155095363Y-79654759D01*
X155295241Y-79854637D01*
X155530273Y-80011680D01*
X155791426Y-80119853D01*
X156068665Y-80175000D01*
X156351335Y-80175000D01*
X156628574Y-80119853D01*
X156889727Y-80011680D01*
X157124759Y-79854637D01*
X157324637Y-79654759D01*
X157480000Y-79422241D01*
X157635363Y-79654759D01*
X157835241Y-79854637D01*
X158070273Y-80011680D01*
X158331426Y-80119853D01*
X158608665Y-80175000D01*
X158891335Y-80175000D01*
X159168574Y-80119853D01*
X159429727Y-80011680D01*
X159664759Y-79854637D01*
X159864637Y-79654759D01*
X160020000Y-79422241D01*
X160175363Y-79654759D01*
X160325811Y-79805207D01*
X160094579Y-79851202D01*
X159824162Y-79963212D01*
X159580794Y-80125826D01*
X159373826Y-80332794D01*
X159211212Y-80576162D01*
X159099202Y-80846579D01*
X159042100Y-81133652D01*
X159042100Y-81426348D01*
X159099202Y-81713421D01*
X159211212Y-81983838D01*
X159373826Y-82227206D01*
X159580794Y-82434174D01*
X159824162Y-82596788D01*
X160094579Y-82708798D01*
X160381652Y-82765900D01*
X160674348Y-82765900D01*
X160961421Y-82708798D01*
X161231838Y-82596788D01*
X161475206Y-82434174D01*
X161682174Y-82227206D01*
X161844788Y-81983838D01*
X161956798Y-81713421D01*
X162013900Y-81426348D01*
X162013900Y-81133652D01*
X178092100Y-81133652D01*
X178092100Y-81426348D01*
X178149202Y-81713421D01*
X178261212Y-81983838D01*
X178423826Y-82227206D01*
X178630794Y-82434174D01*
X178874162Y-82596788D01*
X179144579Y-82708798D01*
X179431652Y-82765900D01*
X179724348Y-82765900D01*
X180011421Y-82708798D01*
X180281838Y-82596788D01*
X180525206Y-82434174D01*
X180732174Y-82227206D01*
X180894788Y-81983838D01*
X181006798Y-81713421D01*
X181063900Y-81426348D01*
X181063900Y-81133652D01*
X197142100Y-81133652D01*
X197142100Y-81426348D01*
X197199202Y-81713421D01*
X197311212Y-81983838D01*
X197473826Y-82227206D01*
X197680794Y-82434174D01*
X197924162Y-82596788D01*
X198194579Y-82708798D01*
X198481652Y-82765900D01*
X198774348Y-82765900D01*
X199061421Y-82708798D01*
X199331838Y-82596788D01*
X199575206Y-82434174D01*
X199782174Y-82227206D01*
X199944788Y-81983838D01*
X200056798Y-81713421D01*
X200113900Y-81426348D01*
X200113900Y-81133652D01*
X200056798Y-80846579D01*
X199944788Y-80576162D01*
X199782174Y-80332794D01*
X199575206Y-80125826D01*
X199331838Y-79963212D01*
X199061421Y-79851202D01*
X198774348Y-79794100D01*
X198481652Y-79794100D01*
X198194579Y-79851202D01*
X197924162Y-79963212D01*
X197680794Y-80125826D01*
X197473826Y-80332794D01*
X197311212Y-80576162D01*
X197199202Y-80846579D01*
X197142100Y-81133652D01*
X181063900Y-81133652D01*
X181006798Y-80846579D01*
X180894788Y-80576162D01*
X180732174Y-80332794D01*
X180525206Y-80125826D01*
X180281838Y-79963212D01*
X180011421Y-79851202D01*
X179724348Y-79794100D01*
X179431652Y-79794100D01*
X179144579Y-79851202D01*
X178874162Y-79963212D01*
X178630794Y-80125826D01*
X178423826Y-80332794D01*
X178261212Y-80576162D01*
X178149202Y-80846579D01*
X178092100Y-81133652D01*
X162013900Y-81133652D01*
X161956798Y-80846579D01*
X161844788Y-80576162D01*
X161682174Y-80332794D01*
X161508943Y-80159563D01*
X161708574Y-80119853D01*
X161969727Y-80011680D01*
X162204759Y-79854637D01*
X162404637Y-79654759D01*
X162560000Y-79422241D01*
X162715363Y-79654759D01*
X162915241Y-79854637D01*
X163150273Y-80011680D01*
X163411426Y-80119853D01*
X163688665Y-80175000D01*
X163971335Y-80175000D01*
X164248574Y-80119853D01*
X164509727Y-80011680D01*
X164744759Y-79854637D01*
X164944637Y-79654759D01*
X165101680Y-79419727D01*
X165209853Y-79158574D01*
X165265000Y-78881335D01*
X165265000Y-78598665D01*
X165209853Y-78321426D01*
X165101680Y-78060273D01*
X164944637Y-77825241D01*
X164744759Y-77625363D01*
X164509727Y-77468320D01*
X164267533Y-77368000D01*
X189032419Y-77368000D01*
X189064890Y-77364802D01*
X189071383Y-77364802D01*
X189080547Y-77363838D01*
X189122831Y-77359095D01*
X189129383Y-77358450D01*
X189129852Y-77358308D01*
X189177522Y-77352961D01*
X189236002Y-77340531D01*
X189294717Y-77328905D01*
X189303520Y-77326180D01*
X189396535Y-77296674D01*
X189451495Y-77273118D01*
X189506822Y-77250314D01*
X189514928Y-77245931D01*
X189600440Y-77198920D01*
X189649771Y-77165143D01*
X189699626Y-77132019D01*
X189706719Y-77126149D01*
X189706723Y-77126147D01*
X189706726Y-77126144D01*
X189739413Y-77098716D01*
X189758728Y-77111622D01*
X189945939Y-77189167D01*
X190144682Y-77228700D01*
X190347318Y-77228700D01*
X190546061Y-77189167D01*
X190733272Y-77111622D01*
X190881000Y-77012913D01*
X191028728Y-77111622D01*
X191215939Y-77189167D01*
X191414682Y-77228700D01*
X191617318Y-77228700D01*
X191816061Y-77189167D01*
X192003272Y-77111622D01*
X192151000Y-77012913D01*
X192298728Y-77111622D01*
X192485939Y-77189167D01*
X192684682Y-77228700D01*
X192887318Y-77228700D01*
X193086061Y-77189167D01*
X193273272Y-77111622D01*
X193421000Y-77012913D01*
X193568728Y-77111622D01*
X193755939Y-77189167D01*
X193954682Y-77228700D01*
X194157318Y-77228700D01*
X194356061Y-77189167D01*
X194543272Y-77111622D01*
X194691000Y-77012913D01*
X194838728Y-77111622D01*
X194838728Y-77111622D01*
G37*
X194838728Y-77111622D02*
X195025939Y-77189167D01*
X195224682Y-77228700D01*
X195427318Y-77228700D01*
X195626061Y-77189167D01*
X195813272Y-77111622D01*
X195893378Y-77058097D01*
X195903439Y-77068371D01*
X195910540Y-77074245D01*
X195986160Y-77135921D01*
X196036025Y-77169052D01*
X196085350Y-77202825D01*
X196093445Y-77207202D01*
X196093448Y-77207204D01*
X196093451Y-77207205D01*
X196093456Y-77207208D01*
X196179617Y-77253020D01*
X196234909Y-77275809D01*
X196289898Y-77299378D01*
X196298701Y-77302103D01*
X196392119Y-77330308D01*
X196450826Y-77341933D01*
X196509316Y-77354365D01*
X196518470Y-77355327D01*
X196518476Y-77355328D01*
X196518481Y-77355328D01*
X196615598Y-77364850D01*
X196647581Y-77368000D01*
X207620001Y-77368000D01*
X207620000Y-95352000D01*
X196647581Y-95352000D01*
X196615100Y-95355199D01*
X196608617Y-95355199D01*
X196599453Y-95356163D01*
X196557242Y-95360897D01*
X196550617Y-95361550D01*
X196550143Y-95361694D01*
X196502478Y-95367040D01*
X196443984Y-95379473D01*
X196385284Y-95391096D01*
X196376481Y-95393821D01*
X196283465Y-95423327D01*
X196228487Y-95446891D01*
X196173175Y-95469689D01*
X196165069Y-95474072D01*
X196079558Y-95521083D01*
X196030236Y-95554855D01*
X195980378Y-95587980D01*
X195973278Y-95593854D01*
X195898525Y-95656579D01*
X195893338Y-95661876D01*
X195813272Y-95608378D01*
X195626061Y-95530833D01*
X195427318Y-95491300D01*
X195224682Y-95491300D01*
X195025939Y-95530833D01*
X194838728Y-95608378D01*
X194691000Y-95707087D01*
X194543272Y-95608378D01*
X194356061Y-95530833D01*
X194157318Y-95491300D01*
X193954682Y-95491300D01*
X193755939Y-95530833D01*
X193568728Y-95608378D01*
X193421000Y-95707087D01*
X193273272Y-95608378D01*
X193086061Y-95530833D01*
X192887318Y-95491300D01*
X192684682Y-95491300D01*
X192485939Y-95530833D01*
X192298728Y-95608378D01*
X192151000Y-95707087D01*
X192003272Y-95608378D01*
X191816061Y-95530833D01*
X191617318Y-95491300D01*
X191414682Y-95491300D01*
X191215939Y-95530833D01*
X191028728Y-95608378D01*
X190881000Y-95707087D01*
X190733272Y-95608378D01*
X190546061Y-95530833D01*
X190347318Y-95491300D01*
X190144682Y-95491300D01*
X189945939Y-95530833D01*
X189758728Y-95608378D01*
X189739436Y-95621269D01*
X189693834Y-95584077D01*
X189644026Y-95550984D01*
X189594652Y-95517177D01*
X189586546Y-95512794D01*
X189500386Y-95466982D01*
X189445077Y-95444185D01*
X189390102Y-95420623D01*
X189381299Y-95417898D01*
X189287881Y-95389693D01*
X189229174Y-95378068D01*
X189170684Y-95365636D01*
X189161530Y-95364674D01*
X189161524Y-95364673D01*
X189161519Y-95364673D01*
X189066632Y-95355370D01*
X189032419Y-95352000D01*
X164267533Y-95352000D01*
X164509727Y-95251680D01*
X164744759Y-95094637D01*
X164944637Y-94894759D01*
X165101680Y-94659727D01*
X165209853Y-94398574D01*
X165265000Y-94121335D01*
X165265000Y-93838665D01*
X165209853Y-93561426D01*
X165101680Y-93300273D01*
X164944637Y-93065241D01*
X164744759Y-92865363D01*
X164509727Y-92708320D01*
X164248574Y-92600147D01*
X163971335Y-92545000D01*
X163688665Y-92545000D01*
X163411426Y-92600147D01*
X163150273Y-92708320D01*
X162915241Y-92865363D01*
X162715363Y-93065241D01*
X162560000Y-93297759D01*
X162404637Y-93065241D01*
X162204759Y-92865363D01*
X161969727Y-92708320D01*
X161708574Y-92600147D01*
X161508943Y-92560437D01*
X161682174Y-92387206D01*
X161844788Y-92143838D01*
X161956798Y-91873421D01*
X161982353Y-91744946D01*
X162012763Y-91771034D01*
X162336336Y-91953172D01*
X162689223Y-92068683D01*
X163057865Y-92113131D01*
X163428096Y-92084806D01*
X163785686Y-91984796D01*
X164033899Y-91859007D01*
X164921328Y-91293652D01*
X178092100Y-91293652D01*
X178092100Y-91586348D01*
X178149202Y-91873421D01*
X178261212Y-92143838D01*
X178423826Y-92387206D01*
X178630794Y-92594174D01*
X178874162Y-92756788D01*
X179144579Y-92868798D01*
X179431652Y-92925900D01*
X179724348Y-92925900D01*
X180011421Y-92868798D01*
X180281838Y-92756788D01*
X180525206Y-92594174D01*
X180732174Y-92387206D01*
X180894788Y-92143838D01*
X181006798Y-91873421D01*
X181032353Y-91744946D01*
X181062763Y-91771034D01*
X181386336Y-91953172D01*
X181739223Y-92068683D01*
X182107865Y-92113131D01*
X182478096Y-92084806D01*
X182835686Y-91984796D01*
X183083899Y-91859007D01*
X183971328Y-91293652D01*
X197142100Y-91293652D01*
X197142100Y-91586348D01*
X197199202Y-91873421D01*
X197311212Y-92143838D01*
X197473826Y-92387206D01*
X197680794Y-92594174D01*
X197924162Y-92756788D01*
X198194579Y-92868798D01*
X198481652Y-92925900D01*
X198774348Y-92925900D01*
X199061421Y-92868798D01*
X199331838Y-92756788D01*
X199575206Y-92594174D01*
X199782174Y-92387206D01*
X199944788Y-92143838D01*
X200056798Y-91873421D01*
X200082353Y-91744946D01*
X200112763Y-91771034D01*
X200436336Y-91953172D01*
X200789223Y-92068683D01*
X201157865Y-92113131D01*
X201528096Y-92084806D01*
X201885686Y-91984796D01*
X202133899Y-91859007D01*
X204187720Y-90550578D01*
X204406623Y-90378782D01*
X204648387Y-90096961D01*
X204830524Y-89773389D01*
X204946036Y-89420501D01*
X204990483Y-89051859D01*
X204962158Y-88681627D01*
X204862149Y-88324037D01*
X204694299Y-87992829D01*
X204465058Y-87700730D01*
X204183237Y-87458966D01*
X203859664Y-87276829D01*
X203506777Y-87161317D01*
X203138134Y-87116869D01*
X202767903Y-87145195D01*
X202410312Y-87245204D01*
X202162100Y-87370994D01*
X200108280Y-88679422D01*
X199889377Y-88851218D01*
X199647613Y-89133040D01*
X199465475Y-89456613D01*
X199349964Y-89809500D01*
X199313076Y-90115441D01*
X199061421Y-90011202D01*
X198774348Y-89954100D01*
X198481652Y-89954100D01*
X198194579Y-90011202D01*
X197924162Y-90123212D01*
X197680794Y-90285826D01*
X197473826Y-90492794D01*
X197311212Y-90736162D01*
X197199202Y-91006579D01*
X197142100Y-91293652D01*
X183971328Y-91293652D01*
X185137720Y-90550578D01*
X185356623Y-90378782D01*
X185598387Y-90096961D01*
X185780524Y-89773389D01*
X185896036Y-89420501D01*
X185940483Y-89051859D01*
X185912158Y-88681627D01*
X185812149Y-88324037D01*
X185644299Y-87992829D01*
X185415058Y-87700730D01*
X185133237Y-87458966D01*
X184809664Y-87276829D01*
X184456777Y-87161317D01*
X184088134Y-87116869D01*
X183717903Y-87145195D01*
X183360312Y-87245204D01*
X183112100Y-87370994D01*
X181058280Y-88679422D01*
X180839377Y-88851218D01*
X180597613Y-89133040D01*
X180415475Y-89456613D01*
X180299964Y-89809500D01*
X180263076Y-90115441D01*
X180011421Y-90011202D01*
X179724348Y-89954100D01*
X179431652Y-89954100D01*
X179144579Y-90011202D01*
X178874162Y-90123212D01*
X178630794Y-90285826D01*
X178423826Y-90492794D01*
X178261212Y-90736162D01*
X178149202Y-91006579D01*
X178092100Y-91293652D01*
X164921328Y-91293652D01*
X166087720Y-90550578D01*
X166306623Y-90378782D01*
X166548387Y-90096961D01*
X166730524Y-89773389D01*
X166846036Y-89420501D01*
X166890483Y-89051859D01*
X166862158Y-88681627D01*
X166762149Y-88324037D01*
X166594299Y-87992829D01*
X166365058Y-87700730D01*
X166083237Y-87458966D01*
X165759664Y-87276829D01*
X165406777Y-87161317D01*
X165038134Y-87116869D01*
X164667903Y-87145195D01*
X164310312Y-87245204D01*
X164062100Y-87370994D01*
X162008280Y-88679422D01*
X161789377Y-88851218D01*
X161547613Y-89133040D01*
X161365475Y-89456613D01*
X161249964Y-89809500D01*
X161213076Y-90115441D01*
X160961421Y-90011202D01*
X160674348Y-89954100D01*
X160381652Y-89954100D01*
X160094579Y-90011202D01*
X159824162Y-90123212D01*
X159580794Y-90285826D01*
X159373826Y-90492794D01*
X159211212Y-90736162D01*
X159099202Y-91006579D01*
X159042100Y-91293652D01*
X159042100Y-91586348D01*
X159099202Y-91873421D01*
X159211212Y-92143838D01*
X159373826Y-92387206D01*
X159580794Y-92594174D01*
X159824162Y-92756788D01*
X160094579Y-92868798D01*
X160325811Y-92914793D01*
X160175363Y-93065241D01*
X160020000Y-93297759D01*
X159864637Y-93065241D01*
X159664759Y-92865363D01*
X159429727Y-92708320D01*
X159168574Y-92600147D01*
X158891335Y-92545000D01*
X158608665Y-92545000D01*
X158331426Y-92600147D01*
X158070273Y-92708320D01*
X157835241Y-92865363D01*
X157635363Y-93065241D01*
X157480000Y-93297759D01*
X157324637Y-93065241D01*
X157124759Y-92865363D01*
X156889727Y-92708320D01*
X156628574Y-92600147D01*
X156351335Y-92545000D01*
X156068665Y-92545000D01*
X155791426Y-92600147D01*
X155530273Y-92708320D01*
X155295241Y-92865363D01*
X155095363Y-93065241D01*
X154940000Y-93297759D01*
X154784637Y-93065241D01*
X154584759Y-92865363D01*
X154349727Y-92708320D01*
X154088574Y-92600147D01*
X153811335Y-92545000D01*
X153528665Y-92545000D01*
X153251426Y-92600147D01*
X152990273Y-92708320D01*
X152755241Y-92865363D01*
X152555363Y-93065241D01*
X152400000Y-93297759D01*
X152244637Y-93065241D01*
X152044759Y-92865363D01*
X151809727Y-92708320D01*
X151548574Y-92600147D01*
X151271335Y-92545000D01*
X150988665Y-92545000D01*
X150711426Y-92600147D01*
X150450273Y-92708320D01*
X150215241Y-92865363D01*
X150015363Y-93065241D01*
X149860000Y-93297759D01*
X149704637Y-93065241D01*
X149504759Y-92865363D01*
X149269727Y-92708320D01*
X149008574Y-92600147D01*
X148731335Y-92545000D01*
X148448665Y-92545000D01*
X148171426Y-92600147D01*
X147910273Y-92708320D01*
X147675241Y-92865363D01*
X147475363Y-93065241D01*
X147320000Y-93297759D01*
X147164637Y-93065241D01*
X146964759Y-92865363D01*
X146729727Y-92708320D01*
X146468574Y-92600147D01*
X146191335Y-92545000D01*
X145908665Y-92545000D01*
X145631426Y-92600147D01*
X145370273Y-92708320D01*
X145135241Y-92865363D01*
X144935363Y-93065241D01*
X144779085Y-93299128D01*
X144746671Y-93238486D01*
X144502702Y-93166903D01*
X143689605Y-93980000D01*
X144502702Y-94793097D01*
X144746671Y-94721514D01*
X144777194Y-94657008D01*
X144778320Y-94659727D01*
X144935363Y-94894759D01*
X145135241Y-95094637D01*
X145370273Y-95251680D01*
X145631426Y-95359853D01*
X145908665Y-95415000D01*
X146191335Y-95415000D01*
X146468574Y-95359853D01*
X146729727Y-95251680D01*
X146964759Y-95094637D01*
X147164637Y-94894759D01*
X147320000Y-94662241D01*
X147475363Y-94894759D01*
X147675241Y-95094637D01*
X147910273Y-95251680D01*
X148171426Y-95359853D01*
X148448665Y-95415000D01*
X148731335Y-95415000D01*
X149008574Y-95359853D01*
X149269727Y-95251680D01*
X149504759Y-95094637D01*
X149704637Y-94894759D01*
X149860000Y-94662241D01*
X150015363Y-94894759D01*
X150215241Y-95094637D01*
X150450273Y-95251680D01*
X150711426Y-95359853D01*
X150847933Y-95387006D01*
X150827284Y-95391095D01*
X150818481Y-95393820D01*
X150725465Y-95423326D01*
X150670505Y-95446882D01*
X150615178Y-95469686D01*
X150607072Y-95474069D01*
X150521559Y-95521080D01*
X150472208Y-95554872D01*
X150422374Y-95587982D01*
X150415274Y-95593856D01*
X150375494Y-95627236D01*
X150347272Y-95608378D01*
X150160061Y-95530833D01*
X149961318Y-95491300D01*
X149758682Y-95491300D01*
X149559939Y-95530833D01*
X149372728Y-95608378D01*
X149225000Y-95707087D01*
X149077272Y-95608378D01*
X148890061Y-95530833D01*
X148691318Y-95491300D01*
X148488682Y-95491300D01*
X148289939Y-95530833D01*
X148102728Y-95608378D01*
X147955000Y-95707087D01*
X147807272Y-95608378D01*
X147620061Y-95530833D01*
X147421318Y-95491300D01*
X147218682Y-95491300D01*
X147019939Y-95530833D01*
X146832728Y-95608378D01*
X146685000Y-95707087D01*
X146537272Y-95608378D01*
X146350061Y-95530833D01*
X146151318Y-95491300D01*
X145948682Y-95491300D01*
X145749939Y-95530833D01*
X145562728Y-95608378D01*
X145415000Y-95707087D01*
X145267272Y-95608378D01*
X145080061Y-95530833D01*
X144881318Y-95491300D01*
X144678682Y-95491300D01*
X144479939Y-95530833D01*
X144292728Y-95608378D01*
X144260244Y-95630083D01*
X144203839Y-95584079D01*
X144154034Y-95550988D01*
X144104650Y-95517174D01*
X144096544Y-95512792D01*
X144010383Y-95466980D01*
X143955091Y-95444191D01*
X143900102Y-95420622D01*
X143891299Y-95417897D01*
X143797881Y-95389692D01*
X143793023Y-95388730D01*
X143860130Y-95378787D01*
X144126292Y-95283603D01*
X144251514Y-95216671D01*
X144323097Y-94972702D01*
X143510000Y-94159605D01*
X142696903Y-94972702D01*
X142768486Y-95216671D01*
X143023996Y-95337571D01*
X143081559Y-95352000D01*
X141395034Y-95352000D01*
X141586292Y-95283603D01*
X141711514Y-95216671D01*
X141783097Y-94972702D01*
X140970000Y-94159605D01*
X140156903Y-94972702D01*
X140228486Y-95216671D01*
X140483996Y-95337571D01*
X140541559Y-95352000D01*
X138867533Y-95352000D01*
X139109727Y-95251680D01*
X139344759Y-95094637D01*
X139544637Y-94894759D01*
X139700915Y-94660872D01*
X139733329Y-94721514D01*
X139977298Y-94793097D01*
X140790395Y-93980000D01*
X141149605Y-93980000D01*
X141962702Y-94793097D01*
X142206671Y-94721514D01*
X142237971Y-94655364D01*
X142273329Y-94721514D01*
X142517298Y-94793097D01*
X143330395Y-93980000D01*
X142517298Y-93166903D01*
X142273329Y-93238486D01*
X142242029Y-93304636D01*
X142206671Y-93238486D01*
X141962702Y-93166903D01*
X141149605Y-93980000D01*
X140790395Y-93980000D01*
X139977298Y-93166903D01*
X139733329Y-93238486D01*
X139702806Y-93302992D01*
X139701680Y-93300273D01*
X139544637Y-93065241D01*
X139344759Y-92865363D01*
X139109727Y-92708320D01*
X138848574Y-92600147D01*
X138571335Y-92545000D01*
X138288665Y-92545000D01*
X138011426Y-92600147D01*
X137750273Y-92708320D01*
X137515241Y-92865363D01*
X137316643Y-93063961D01*
X137315812Y-93055518D01*
X137279502Y-92935820D01*
X137220537Y-92825506D01*
X137141185Y-92728815D01*
X137044494Y-92649463D01*
X136934180Y-92590498D01*
X136814482Y-92554188D01*
X136690000Y-92541928D01*
X135090000Y-92541928D01*
X134965518Y-92554188D01*
X134845820Y-92590498D01*
X134735506Y-92649463D01*
X134638815Y-92728815D01*
X134559463Y-92825506D01*
X134500498Y-92935820D01*
X134464188Y-93055518D01*
X134451928Y-93180000D01*
X134451928Y-94780000D01*
X134464188Y-94904482D01*
X134500498Y-95024180D01*
X134559463Y-95134494D01*
X134638815Y-95231185D01*
X134735506Y-95310537D01*
X134813077Y-95352000D01*
X132486000Y-95352000D01*
X132486000Y-91293652D01*
X139992100Y-91293652D01*
X139992100Y-91586348D01*
X140049202Y-91873421D01*
X140161212Y-92143838D01*
X140323826Y-92387206D01*
X140530794Y-92594174D01*
X140549213Y-92606481D01*
X140353708Y-92676397D01*
X140228486Y-92743329D01*
X140156903Y-92987298D01*
X140970000Y-93800395D01*
X141783097Y-92987298D01*
X142696903Y-92987298D01*
X143510000Y-93800395D01*
X144323097Y-92987298D01*
X144251514Y-92743329D01*
X143996004Y-92622429D01*
X143721816Y-92553700D01*
X143439488Y-92539783D01*
X143159870Y-92581213D01*
X142893708Y-92676397D01*
X142768486Y-92743329D01*
X142696903Y-92987298D01*
X141783097Y-92987298D01*
X141757322Y-92899450D01*
X141911421Y-92868798D01*
X142181838Y-92756788D01*
X142425206Y-92594174D01*
X142632174Y-92387206D01*
X142794788Y-92143838D01*
X142906798Y-91873421D01*
X142932353Y-91744946D01*
X142962763Y-91771034D01*
X143286336Y-91953172D01*
X143639223Y-92068683D01*
X144007865Y-92113131D01*
X144378096Y-92084806D01*
X144735686Y-91984796D01*
X144983899Y-91859007D01*
X147037720Y-90550578D01*
X147256623Y-90378782D01*
X147498387Y-90096961D01*
X147680524Y-89773389D01*
X147796036Y-89420501D01*
X147840483Y-89051859D01*
X147812158Y-88681627D01*
X147712149Y-88324037D01*
X147544299Y-87992829D01*
X147315058Y-87700730D01*
X147033237Y-87458966D01*
X146709664Y-87276829D01*
X146356777Y-87161317D01*
X145988134Y-87116869D01*
X145617903Y-87145195D01*
X145260312Y-87245204D01*
X145012100Y-87370994D01*
X142958280Y-88679422D01*
X142739377Y-88851218D01*
X142497613Y-89133040D01*
X142315475Y-89456613D01*
X142199964Y-89809500D01*
X142163076Y-90115441D01*
X141911421Y-90011202D01*
X141624348Y-89954100D01*
X141331652Y-89954100D01*
X141044579Y-90011202D01*
X140774162Y-90123212D01*
X140530794Y-90285826D01*
X140323826Y-90492794D01*
X140161212Y-90736162D01*
X140049202Y-91006579D01*
X139992100Y-91293652D01*
X132486000Y-91293652D01*
X132486000Y-86101076D01*
X138849100Y-86101076D01*
X138849100Y-86618924D01*
X138950127Y-87126822D01*
X139148299Y-87605251D01*
X139436000Y-88035826D01*
X139802174Y-88402000D01*
X140232749Y-88689701D01*
X140711178Y-88887873D01*
X141219076Y-88988900D01*
X141736924Y-88988900D01*
X142244822Y-88887873D01*
X142723251Y-88689701D01*
X143153826Y-88402000D01*
X143520000Y-88035826D01*
X143807701Y-87605251D01*
X144005873Y-87126822D01*
X144106900Y-86618924D01*
X144106900Y-86101076D01*
X157899100Y-86101076D01*
X157899100Y-86618924D01*
X158000127Y-87126822D01*
X158198299Y-87605251D01*
X158486000Y-88035826D01*
X158852174Y-88402000D01*
X159282749Y-88689701D01*
X159761178Y-88887873D01*
X160269076Y-88988900D01*
X160786924Y-88988900D01*
X161294822Y-88887873D01*
X161773251Y-88689701D01*
X162203826Y-88402000D01*
X162570000Y-88035826D01*
X162857701Y-87605251D01*
X163055873Y-87126822D01*
X163156900Y-86618924D01*
X163156900Y-86101076D01*
X176949100Y-86101076D01*
X176949100Y-86618924D01*
X177050127Y-87126822D01*
X177248299Y-87605251D01*
X177536000Y-88035826D01*
X177902174Y-88402000D01*
X178332749Y-88689701D01*
X178811178Y-88887873D01*
X179319076Y-88988900D01*
X179836924Y-88988900D01*
X180344822Y-88887873D01*
X180823251Y-88689701D01*
X181253826Y-88402000D01*
X181620000Y-88035826D01*
X181907701Y-87605251D01*
X182105873Y-87126822D01*
X182206900Y-86618924D01*
X182206900Y-86101076D01*
X195999100Y-86101076D01*
X195999100Y-86618924D01*
X196100127Y-87126822D01*
X196298299Y-87605251D01*
X196586000Y-88035826D01*
X196952174Y-88402000D01*
X197382749Y-88689701D01*
X197861178Y-88887873D01*
X198369076Y-88988900D01*
X198886924Y-88988900D01*
X199394822Y-88887873D01*
X199873251Y-88689701D01*
X200303826Y-88402000D01*
X200670000Y-88035826D01*
X200957701Y-87605251D01*
X201155873Y-87126822D01*
X201256900Y-86618924D01*
X201256900Y-86101076D01*
X201155873Y-85593178D01*
X200957701Y-85114749D01*
X200670000Y-84684174D01*
X200303826Y-84318000D01*
X199873251Y-84030299D01*
X199772461Y-83988550D01*
X201238939Y-83988550D01*
X201300382Y-84354743D01*
X201432085Y-84701913D01*
X201628989Y-85016719D01*
X201883523Y-85287061D01*
X202185908Y-85502552D01*
X202524523Y-85654910D01*
X202886355Y-85738279D01*
X203164495Y-85746656D01*
X203927916Y-85694613D01*
X204202347Y-85648566D01*
X204549517Y-85516863D01*
X204864323Y-85319959D01*
X205134665Y-85065425D01*
X205350156Y-84763040D01*
X205502514Y-84424425D01*
X205585883Y-84062593D01*
X205597061Y-83691450D01*
X205535618Y-83325257D01*
X205403914Y-82978087D01*
X205207011Y-82663281D01*
X204952477Y-82392939D01*
X204650092Y-82177448D01*
X204311477Y-82025090D01*
X203949645Y-81941721D01*
X203671504Y-81933344D01*
X202908084Y-81985387D01*
X202633653Y-82031434D01*
X202286483Y-82163137D01*
X201971677Y-82360041D01*
X201701335Y-82614575D01*
X201485844Y-82916960D01*
X201333486Y-83255575D01*
X201250117Y-83617407D01*
X201238939Y-83988550D01*
X199772461Y-83988550D01*
X199394822Y-83832127D01*
X198886924Y-83731100D01*
X198369076Y-83731100D01*
X197861178Y-83832127D01*
X197382749Y-84030299D01*
X196952174Y-84318000D01*
X196586000Y-84684174D01*
X196298299Y-85114749D01*
X196100127Y-85593178D01*
X195999100Y-86101076D01*
X182206900Y-86101076D01*
X182105873Y-85593178D01*
X181907701Y-85114749D01*
X181620000Y-84684174D01*
X181253826Y-84318000D01*
X180823251Y-84030299D01*
X180722461Y-83988550D01*
X182188939Y-83988550D01*
X182250382Y-84354743D01*
X182382085Y-84701913D01*
X182578989Y-85016719D01*
X182833523Y-85287061D01*
X183135908Y-85502552D01*
X183474523Y-85654910D01*
X183836355Y-85738279D01*
X184114495Y-85746656D01*
X184877916Y-85694613D01*
X185152347Y-85648566D01*
X185499517Y-85516863D01*
X185814323Y-85319959D01*
X186084665Y-85065425D01*
X186300156Y-84763040D01*
X186452514Y-84424425D01*
X186535883Y-84062593D01*
X186547061Y-83691450D01*
X186485618Y-83325257D01*
X186353914Y-82978087D01*
X186157011Y-82663281D01*
X185902477Y-82392939D01*
X185600092Y-82177448D01*
X185261477Y-82025090D01*
X184899645Y-81941721D01*
X184621504Y-81933344D01*
X183858084Y-81985387D01*
X183583653Y-82031434D01*
X183236483Y-82163137D01*
X182921677Y-82360041D01*
X182651335Y-82614575D01*
X182435844Y-82916960D01*
X182283486Y-83255575D01*
X182200117Y-83617407D01*
X182188939Y-83988550D01*
X180722461Y-83988550D01*
X180344822Y-83832127D01*
X179836924Y-83731100D01*
X179319076Y-83731100D01*
X178811178Y-83832127D01*
X178332749Y-84030299D01*
X177902174Y-84318000D01*
X177536000Y-84684174D01*
X177248299Y-85114749D01*
X177050127Y-85593178D01*
X176949100Y-86101076D01*
X163156900Y-86101076D01*
X163055873Y-85593178D01*
X162857701Y-85114749D01*
X162570000Y-84684174D01*
X162203826Y-84318000D01*
X161773251Y-84030299D01*
X161672461Y-83988550D01*
X163138939Y-83988550D01*
X163200382Y-84354743D01*
X163332085Y-84701913D01*
X163528989Y-85016719D01*
X163783523Y-85287061D01*
X164085908Y-85502552D01*
X164424523Y-85654910D01*
X164786355Y-85738279D01*
X165064495Y-85746656D01*
X165827916Y-85694613D01*
X166102347Y-85648566D01*
X166449517Y-85516863D01*
X166764323Y-85319959D01*
X167034665Y-85065425D01*
X167250156Y-84763040D01*
X167402514Y-84424425D01*
X167485883Y-84062593D01*
X167497061Y-83691450D01*
X167435618Y-83325257D01*
X167303914Y-82978087D01*
X167107011Y-82663281D01*
X166852477Y-82392939D01*
X166550092Y-82177448D01*
X166211477Y-82025090D01*
X165849645Y-81941721D01*
X165571504Y-81933344D01*
X164808084Y-81985387D01*
X164533653Y-82031434D01*
X164186483Y-82163137D01*
X163871677Y-82360041D01*
X163601335Y-82614575D01*
X163385844Y-82916960D01*
X163233486Y-83255575D01*
X163150117Y-83617407D01*
X163138939Y-83988550D01*
X161672461Y-83988550D01*
X161294822Y-83832127D01*
X160786924Y-83731100D01*
X160269076Y-83731100D01*
X159761178Y-83832127D01*
X159282749Y-84030299D01*
X158852174Y-84318000D01*
X158486000Y-84684174D01*
X158198299Y-85114749D01*
X158000127Y-85593178D01*
X157899100Y-86101076D01*
X144106900Y-86101076D01*
X144005873Y-85593178D01*
X143807701Y-85114749D01*
X143520000Y-84684174D01*
X143153826Y-84318000D01*
X142723251Y-84030299D01*
X142622461Y-83988550D01*
X144088939Y-83988550D01*
X144150382Y-84354743D01*
X144282085Y-84701913D01*
X144478989Y-85016719D01*
X144733523Y-85287061D01*
X145035908Y-85502552D01*
X145374523Y-85654910D01*
X145736355Y-85738279D01*
X146014495Y-85746656D01*
X146777916Y-85694613D01*
X147052347Y-85648566D01*
X147399517Y-85516863D01*
X147714323Y-85319959D01*
X147984665Y-85065425D01*
X148200156Y-84763040D01*
X148352514Y-84424425D01*
X148435883Y-84062593D01*
X148447061Y-83691450D01*
X148385618Y-83325257D01*
X148253914Y-82978087D01*
X148057011Y-82663281D01*
X147802477Y-82392939D01*
X147500092Y-82177448D01*
X147161477Y-82025090D01*
X146799645Y-81941721D01*
X146521504Y-81933344D01*
X145758084Y-81985387D01*
X145483653Y-82031434D01*
X145136483Y-82163137D01*
X144821677Y-82360041D01*
X144551335Y-82614575D01*
X144335844Y-82916960D01*
X144183486Y-83255575D01*
X144100117Y-83617407D01*
X144088939Y-83988550D01*
X142622461Y-83988550D01*
X142244822Y-83832127D01*
X141736924Y-83731100D01*
X141219076Y-83731100D01*
X140711178Y-83832127D01*
X140232749Y-84030299D01*
X139802174Y-84318000D01*
X139436000Y-84684174D01*
X139148299Y-85114749D01*
X138950127Y-85593178D01*
X138849100Y-86101076D01*
X132486000Y-86101076D01*
X132486000Y-77368000D01*
X135452467Y-77368000D01*
X135210273Y-77468320D01*
X134975241Y-77625363D01*
X134775363Y-77825241D01*
X134618320Y-78060273D01*
X134510147Y-78321426D01*
X134455000Y-78598665D01*
X134455000Y-78881335D01*
X134510147Y-79158574D01*
X134618320Y-79419727D01*
X134775363Y-79654759D01*
X134975241Y-79854637D01*
X135210273Y-80011680D01*
X135471426Y-80119853D01*
X135748665Y-80175000D01*
X136031335Y-80175000D01*
X136308574Y-80119853D01*
X136569727Y-80011680D01*
X136804759Y-79854637D01*
X136926694Y-79732702D01*
X137616903Y-79732702D01*
X137688486Y-79976671D01*
X137943996Y-80097571D01*
X138218184Y-80166300D01*
X138500512Y-80180217D01*
X138780130Y-80138787D01*
X139046292Y-80043603D01*
X139171514Y-79976671D01*
X139243097Y-79732702D01*
X138430000Y-78919605D01*
X137616903Y-79732702D01*
X136926694Y-79732702D01*
X137004637Y-79654759D01*
X137160915Y-79420872D01*
X137193329Y-79481514D01*
X137437298Y-79553097D01*
X138250395Y-78740000D01*
X137437298Y-77926903D01*
X137193329Y-77998486D01*
X137162806Y-78062992D01*
X137161680Y-78060273D01*
X137004637Y-77825241D01*
X136804759Y-77625363D01*
X136569727Y-77468320D01*
X136327533Y-77368000D01*
X138004966Y-77368000D01*
X137813708Y-77436397D01*
X137688486Y-77503329D01*
X137616903Y-77747298D01*
X138430000Y-78560395D01*
X139243097Y-77747298D01*
X139171514Y-77503329D01*
X138916004Y-77382429D01*
X138858441Y-77368000D01*
X140532467Y-77368000D01*
X140290273Y-77468320D01*
X140055241Y-77625363D01*
X139855363Y-77825241D01*
X139699085Y-78059128D01*
X139666671Y-77998486D01*
X139422702Y-77926903D01*
X138609605Y-78740000D01*
X139422702Y-79553097D01*
X139666671Y-79481514D01*
X139697194Y-79417008D01*
X139698320Y-79419727D01*
X139855363Y-79654759D01*
X140055241Y-79854637D01*
X140290273Y-80011680D01*
X140544208Y-80116863D01*
X140530794Y-80125826D01*
X140323826Y-80332794D01*
X140161212Y-80576162D01*
X140049202Y-80846579D01*
X139992100Y-81133652D01*
X139992100Y-81426348D01*
X140049202Y-81713421D01*
X140161212Y-81983838D01*
X140323826Y-82227206D01*
X140530794Y-82434174D01*
X140774162Y-82596788D01*
X141044579Y-82708798D01*
X141331652Y-82765900D01*
X141624348Y-82765900D01*
X141911421Y-82708798D01*
X142181838Y-82596788D01*
X142425206Y-82434174D01*
X142632174Y-82227206D01*
X142794788Y-81983838D01*
X142906798Y-81713421D01*
X142963900Y-81426348D01*
X142963900Y-81133652D01*
X142906798Y-80846579D01*
X142794788Y-80576162D01*
X142632174Y-80332794D01*
X142425206Y-80125826D01*
X142181838Y-79963212D01*
X141911421Y-79851202D01*
X141892048Y-79847348D01*
X142084637Y-79654759D01*
X142240000Y-79422241D01*
X142395363Y-79654759D01*
X142595241Y-79854637D01*
X142830273Y-80011680D01*
X143091426Y-80119853D01*
X143368665Y-80175000D01*
X143651335Y-80175000D01*
X143928574Y-80119853D01*
X144189727Y-80011680D01*
X144424759Y-79854637D01*
X144624637Y-79654759D01*
X144780000Y-79422241D01*
X144935363Y-79654759D01*
X145135241Y-79854637D01*
X145370273Y-80011680D01*
X145631426Y-80119853D01*
X145908665Y-80175000D01*
X146191335Y-80175000D01*
X146468574Y-80119853D01*
X146729727Y-80011680D01*
X146964759Y-79854637D01*
X147164637Y-79654759D01*
X147320000Y-79422241D01*
X147475363Y-79654759D01*
X147675241Y-79854637D01*
X147910273Y-80011680D01*
X148171426Y-80119853D01*
X148448665Y-80175000D01*
X148731335Y-80175000D01*
X149008574Y-80119853D01*
X149269727Y-80011680D01*
X149504759Y-79854637D01*
X149704637Y-79654759D01*
X149860000Y-79422241D01*
X150015363Y-79654759D01*
X150215241Y-79854637D01*
X150450273Y-80011680D01*
X150711426Y-80119853D01*
X150988665Y-80175000D01*
X151271335Y-80175000D01*
X151548574Y-80119853D01*
X151809727Y-80011680D01*
X152044759Y-79854637D01*
X152244637Y-79654759D01*
X152400000Y-79422241D01*
X152555363Y-79654759D01*
X152755241Y-79854637D01*
X152990273Y-80011680D01*
X153251426Y-80119853D01*
X153528665Y-80175000D01*
X153811335Y-80175000D01*
X154088574Y-80119853D01*
X154349727Y-80011680D01*
X154584759Y-79854637D01*
X154784637Y-79654759D01*
X154940000Y-79422241D01*
X155095363Y-79654759D01*
X155295241Y-79854637D01*
X155530273Y-80011680D01*
X155791426Y-80119853D01*
X156068665Y-80175000D01*
X156351335Y-80175000D01*
X156628574Y-80119853D01*
X156889727Y-80011680D01*
X157124759Y-79854637D01*
X157324637Y-79654759D01*
X157480000Y-79422241D01*
X157635363Y-79654759D01*
X157835241Y-79854637D01*
X158070273Y-80011680D01*
X158331426Y-80119853D01*
X158608665Y-80175000D01*
X158891335Y-80175000D01*
X159168574Y-80119853D01*
X159429727Y-80011680D01*
X159664759Y-79854637D01*
X159864637Y-79654759D01*
X160020000Y-79422241D01*
X160175363Y-79654759D01*
X160325811Y-79805207D01*
X160094579Y-79851202D01*
X159824162Y-79963212D01*
X159580794Y-80125826D01*
X159373826Y-80332794D01*
X159211212Y-80576162D01*
X159099202Y-80846579D01*
X159042100Y-81133652D01*
X159042100Y-81426348D01*
X159099202Y-81713421D01*
X159211212Y-81983838D01*
X159373826Y-82227206D01*
X159580794Y-82434174D01*
X159824162Y-82596788D01*
X160094579Y-82708798D01*
X160381652Y-82765900D01*
X160674348Y-82765900D01*
X160961421Y-82708798D01*
X161231838Y-82596788D01*
X161475206Y-82434174D01*
X161682174Y-82227206D01*
X161844788Y-81983838D01*
X161956798Y-81713421D01*
X162013900Y-81426348D01*
X162013900Y-81133652D01*
X178092100Y-81133652D01*
X178092100Y-81426348D01*
X178149202Y-81713421D01*
X178261212Y-81983838D01*
X178423826Y-82227206D01*
X178630794Y-82434174D01*
X178874162Y-82596788D01*
X179144579Y-82708798D01*
X179431652Y-82765900D01*
X179724348Y-82765900D01*
X180011421Y-82708798D01*
X180281838Y-82596788D01*
X180525206Y-82434174D01*
X180732174Y-82227206D01*
X180894788Y-81983838D01*
X181006798Y-81713421D01*
X181063900Y-81426348D01*
X181063900Y-81133652D01*
X197142100Y-81133652D01*
X197142100Y-81426348D01*
X197199202Y-81713421D01*
X197311212Y-81983838D01*
X197473826Y-82227206D01*
X197680794Y-82434174D01*
X197924162Y-82596788D01*
X198194579Y-82708798D01*
X198481652Y-82765900D01*
X198774348Y-82765900D01*
X199061421Y-82708798D01*
X199331838Y-82596788D01*
X199575206Y-82434174D01*
X199782174Y-82227206D01*
X199944788Y-81983838D01*
X200056798Y-81713421D01*
X200113900Y-81426348D01*
X200113900Y-81133652D01*
X200056798Y-80846579D01*
X199944788Y-80576162D01*
X199782174Y-80332794D01*
X199575206Y-80125826D01*
X199331838Y-79963212D01*
X199061421Y-79851202D01*
X198774348Y-79794100D01*
X198481652Y-79794100D01*
X198194579Y-79851202D01*
X197924162Y-79963212D01*
X197680794Y-80125826D01*
X197473826Y-80332794D01*
X197311212Y-80576162D01*
X197199202Y-80846579D01*
X197142100Y-81133652D01*
X181063900Y-81133652D01*
X181006798Y-80846579D01*
X180894788Y-80576162D01*
X180732174Y-80332794D01*
X180525206Y-80125826D01*
X180281838Y-79963212D01*
X180011421Y-79851202D01*
X179724348Y-79794100D01*
X179431652Y-79794100D01*
X179144579Y-79851202D01*
X178874162Y-79963212D01*
X178630794Y-80125826D01*
X178423826Y-80332794D01*
X178261212Y-80576162D01*
X178149202Y-80846579D01*
X178092100Y-81133652D01*
X162013900Y-81133652D01*
X161956798Y-80846579D01*
X161844788Y-80576162D01*
X161682174Y-80332794D01*
X161508943Y-80159563D01*
X161708574Y-80119853D01*
X161969727Y-80011680D01*
X162204759Y-79854637D01*
X162404637Y-79654759D01*
X162560000Y-79422241D01*
X162715363Y-79654759D01*
X162915241Y-79854637D01*
X163150273Y-80011680D01*
X163411426Y-80119853D01*
X163688665Y-80175000D01*
X163971335Y-80175000D01*
X164248574Y-80119853D01*
X164509727Y-80011680D01*
X164744759Y-79854637D01*
X164944637Y-79654759D01*
X165101680Y-79419727D01*
X165209853Y-79158574D01*
X165265000Y-78881335D01*
X165265000Y-78598665D01*
X165209853Y-78321426D01*
X165101680Y-78060273D01*
X164944637Y-77825241D01*
X164744759Y-77625363D01*
X164509727Y-77468320D01*
X164267533Y-77368000D01*
X189032419Y-77368000D01*
X189064890Y-77364802D01*
X189071383Y-77364802D01*
X189080547Y-77363838D01*
X189122831Y-77359095D01*
X189129383Y-77358450D01*
X189129852Y-77358308D01*
X189177522Y-77352961D01*
X189236002Y-77340531D01*
X189294717Y-77328905D01*
X189303520Y-77326180D01*
X189396535Y-77296674D01*
X189451495Y-77273118D01*
X189506822Y-77250314D01*
X189514928Y-77245931D01*
X189600440Y-77198920D01*
X189649771Y-77165143D01*
X189699626Y-77132019D01*
X189706719Y-77126149D01*
X189706723Y-77126147D01*
X189706726Y-77126144D01*
X189739413Y-77098716D01*
X189758728Y-77111622D01*
X189945939Y-77189167D01*
X190144682Y-77228700D01*
X190347318Y-77228700D01*
X190546061Y-77189167D01*
X190733272Y-77111622D01*
X190881000Y-77012913D01*
X191028728Y-77111622D01*
X191215939Y-77189167D01*
X191414682Y-77228700D01*
X191617318Y-77228700D01*
X191816061Y-77189167D01*
X192003272Y-77111622D01*
X192151000Y-77012913D01*
X192298728Y-77111622D01*
X192485939Y-77189167D01*
X192684682Y-77228700D01*
X192887318Y-77228700D01*
X193086061Y-77189167D01*
X193273272Y-77111622D01*
X193421000Y-77012913D01*
X193568728Y-77111622D01*
X193755939Y-77189167D01*
X193954682Y-77228700D01*
X194157318Y-77228700D01*
X194356061Y-77189167D01*
X194543272Y-77111622D01*
X194691000Y-77012913D01*
X194838728Y-77111622D01*
M02*
