G04 #@! TF.GenerationSoftware,KiCad,Pcbnew,(5.1.4-0-10_14)*
G04 #@! TF.CreationDate,2021-02-22T23:38:52-08:00*
G04 #@! TF.ProjectId,fourkey,666f7572-6b65-4792-9e6b-696361645f70,rev?*
G04 #@! TF.SameCoordinates,Original*
G04 #@! TF.FileFunction,Legend,Top*
G04 #@! TF.FilePolarity,Positive*
%FSLAX46Y46*%
G04 Gerber Fmt 4.6, Leading zero omitted, Abs format (unit mm)*
G04 Created by KiCad (PCBNEW (5.1.4-0-10_14)) date 2021-02-22 23:38:52*
%MOMM*%
%LPD*%
G04 APERTURE LIST*
%ADD10C,0.150000*%
%ADD11C,0.120000*%
%ADD12C,0.200000*%
%ADD13C,0.203200*%
G04 APERTURE END LIST*
D10*
X162560000Y-79248000D02*
X162560000Y-97028000D01*
X132080000Y-79248000D02*
X162560000Y-79248000D01*
X132080000Y-84328000D02*
X132080000Y-79248000D01*
X129540000Y-84328000D02*
X132080000Y-84328000D01*
X129540000Y-91948000D02*
X129540000Y-84328000D01*
X132080000Y-91948000D02*
X129540000Y-91948000D01*
X132080000Y-97028000D02*
X132080000Y-91948000D01*
X132080000Y-97028000D02*
X162560000Y-97028000D01*
D11*
X168226000Y-90438000D02*
X168676000Y-90888000D01*
X171626000Y-90438000D02*
X171176000Y-90888000D01*
X171626000Y-85838000D02*
X171176000Y-85388000D01*
X168226000Y-85838000D02*
X168676000Y-85388000D01*
X172676000Y-87138000D02*
X172676000Y-89138000D01*
X168676000Y-90888000D02*
X171176000Y-90888000D01*
X167176000Y-87138000D02*
X167176000Y-89138000D01*
X168676000Y-85388000D02*
X171176000Y-85388000D01*
D12*
X135072380Y-88876095D02*
X134072380Y-88876095D01*
X135072380Y-88304666D02*
X134500952Y-88733238D01*
X134072380Y-88304666D02*
X134643809Y-88876095D01*
X135072380Y-87352285D02*
X135072380Y-87923714D01*
X135072380Y-87638000D02*
X134072380Y-87638000D01*
X134215238Y-87733238D01*
X134310476Y-87828476D01*
X134358095Y-87923714D01*
D13*
X146158857Y-89067523D02*
X146158857Y-90095619D01*
X146231428Y-90216571D01*
X146304000Y-90277047D01*
X146449142Y-90337523D01*
X146739428Y-90337523D01*
X146884571Y-90277047D01*
X146957142Y-90216571D01*
X147029714Y-90095619D01*
X147029714Y-89067523D01*
X148553714Y-90337523D02*
X147682857Y-90337523D01*
X148118285Y-90337523D02*
X148118285Y-89067523D01*
X147973142Y-89248952D01*
X147828000Y-89369904D01*
X147682857Y-89430380D01*
D12*
X154122380Y-88876095D02*
X153122380Y-88876095D01*
X154122380Y-88304666D02*
X153550952Y-88733238D01*
X153122380Y-88304666D02*
X153693809Y-88876095D01*
X153217619Y-87923714D02*
X153170000Y-87876095D01*
X153122380Y-87780857D01*
X153122380Y-87542761D01*
X153170000Y-87447523D01*
X153217619Y-87399904D01*
X153312857Y-87352285D01*
X153408095Y-87352285D01*
X153550952Y-87399904D01*
X154122380Y-87971333D01*
X154122380Y-87352285D01*
X173172380Y-88876095D02*
X172172380Y-88876095D01*
X173172380Y-88304666D02*
X172600952Y-88733238D01*
X172172380Y-88304666D02*
X172743809Y-88876095D01*
X172172380Y-87971333D02*
X172172380Y-87352285D01*
X172553333Y-87685619D01*
X172553333Y-87542761D01*
X172600952Y-87447523D01*
X172648571Y-87399904D01*
X172743809Y-87352285D01*
X172981904Y-87352285D01*
X173077142Y-87399904D01*
X173124761Y-87447523D01*
X173172380Y-87542761D01*
X173172380Y-87828476D01*
X173124761Y-87923714D01*
X173077142Y-87971333D01*
X192222380Y-88876095D02*
X191222380Y-88876095D01*
X192222380Y-88304666D02*
X191650952Y-88733238D01*
X191222380Y-88304666D02*
X191793809Y-88876095D01*
X191555714Y-87447523D02*
X192222380Y-87447523D01*
X191174761Y-87685619D02*
X191889047Y-87923714D01*
X191889047Y-87304666D01*
D10*
X168592666Y-84792761D02*
X168735523Y-84840380D01*
X168973619Y-84840380D01*
X169068857Y-84792761D01*
X169116476Y-84745142D01*
X169164095Y-84649904D01*
X169164095Y-84554666D01*
X169116476Y-84459428D01*
X169068857Y-84411809D01*
X168973619Y-84364190D01*
X168783142Y-84316571D01*
X168687904Y-84268952D01*
X168640285Y-84221333D01*
X168592666Y-84126095D01*
X168592666Y-84030857D01*
X168640285Y-83935619D01*
X168687904Y-83888000D01*
X168783142Y-83840380D01*
X169021238Y-83840380D01*
X169164095Y-83888000D01*
X169497428Y-83840380D02*
X169735523Y-84840380D01*
X169926000Y-84126095D01*
X170116476Y-84840380D01*
X170354571Y-83840380D01*
X171259333Y-84840380D02*
X170687904Y-84840380D01*
X170973619Y-84840380D02*
X170973619Y-83840380D01*
X170878380Y-83983238D01*
X170783142Y-84078476D01*
X170687904Y-84126095D01*
M02*
