M48
; DRILL file {KiCad (5.1.4-0-10_14)} date Tuesday, February 23, 2021 at 07:21:16 PM
; FORMAT={-:-/ absolute / inch / decimal}
; #@! TF.CreationDate,2021-02-23T19:21:16-08:00
; #@! TF.GenerationSoftware,Kicad,Pcbnew,(5.1.4-0-10_14)
FMAT,2
INCH
T1C0.0433
T2C0.0591
T3C0.1102
T4C0.1260
T5C0.0310
T6C0.0670
T7C0.1570
%
G90
G05
T1
X2.85Y-2.83
X2.85Y-3.43
X2.95Y-2.83
X2.95Y-3.43
X3.05Y-2.83
X3.05Y-3.43
X3.15Y-2.83
X3.15Y-3.43
X3.25Y-2.83
X3.25Y-3.43
X3.35Y-2.83
X3.35Y-3.43
X3.45Y-2.83
X3.45Y-3.43
X3.55Y-2.83
X3.55Y-3.43
X3.65Y-2.83
X3.65Y-3.43
X3.75Y-2.83
X3.75Y-3.43
X3.85Y-2.83
X3.85Y-3.43
X3.95Y-2.83
X3.95Y-3.43
T3
X5.7419Y-3.7075
X2.6181Y-3.7075
X5.7419Y-4.5413
X2.6181Y-4.5413
X2.6181Y-2.5525
X5.7419Y-1.7187
X5.7419Y-2.5525
X2.6181Y-1.7187
T4
X4.29Y-2.14
T5
X5.03Y-3.52
X5.08Y-3.52
X5.13Y-3.52
X5.18Y-3.52
X5.23Y-3.52
X3.1283Y-2.69
X3.1783Y-2.69
X3.2283Y-2.69
X3.2783Y-2.69
X3.3283Y-2.69
X3.1283Y-3.57
X3.1783Y-3.57
X3.2283Y-3.57
X3.2783Y-3.57
X3.3283Y-3.57
X3.1283Y-3.52
X5.18Y-2.69
X5.13Y-3.57
X3.1783Y-3.52
X3.2283Y-3.52
X3.2783Y-3.52
X3.3283Y-3.52
X3.1283Y-2.74
X3.1783Y-2.74
X3.2283Y-2.74
X3.2783Y-2.74
X3.3283Y-2.74
X5.03Y-2.74
X5.08Y-2.74
X5.13Y-2.74
X5.18Y-2.74
X5.23Y-2.74
X5.23Y-2.69
X5.18Y-3.57
X5.03Y-2.69
X5.08Y-2.69
X5.13Y-2.69
X5.03Y-3.57
X5.08Y-3.57
X5.23Y-3.57
T6
X4.57Y-2.93
X4.57Y-3.33
X3.07Y-2.93
X3.07Y-3.33
X5.32Y-2.93
X5.32Y-3.33
X3.82Y-2.93
X3.82Y-3.33
T7
X3.82Y-3.13
X4.57Y-3.13
X3.07Y-3.13
X5.32Y-3.13
T2
G00X3.1712Y-3.2819
M15
G01X3.2459Y-3.2344
M16
G05
G00X3.2472Y-3.0316
M15
G01X3.27Y-3.03
M16
G05
G00X3.9212Y-3.2819
M15
G01X3.9959Y-3.2344
M16
G05
G00X3.9972Y-3.0316
M15
G01X4.02Y-3.03
M16
G05
G00X4.6712Y-3.2819
M15
G01X4.7459Y-3.2344
M16
G05
G00X4.7472Y-3.0316
M15
G01X4.77Y-3.03
M16
G05
G00X5.4212Y-3.2819
M15
G01X5.4959Y-3.2344
M16
G05
G00X5.4972Y-3.0316
M15
G01X5.52Y-3.03
M16
G05
T0
M30
