M48
; DRILL file {KiCad (5.1.4-0-10_14)} date Wednesday, February 24, 2021 at 11:56:52 AM
; FORMAT={-:-/ absolute / inch / decimal}
; #@! TF.CreationDate,2021-02-24T11:56:52-08:00
; #@! TF.GenerationSoftware,Kicad,Pcbnew,(5.1.4-0-10_14)
FMAT,2
INCH
T1C0.0433
T2C0.0591
T3C0.1260
T4C0.0310
T5C0.0670
T6C0.0866
T7C0.1570
%
G90
G05
T1
X2.85Y-2.83
X2.85Y-3.43
X2.95Y-2.83
X2.95Y-3.43
X3.05Y-2.83
X3.05Y-3.43
X3.15Y-2.83
X3.15Y-3.43
X3.25Y-2.83
X3.25Y-3.43
X3.35Y-2.83
X3.35Y-3.43
X3.45Y-2.83
X3.45Y-3.43
X3.55Y-2.83
X3.55Y-3.43
X3.65Y-2.83
X3.65Y-3.43
X3.75Y-2.83
X3.75Y-3.43
X3.85Y-2.83
X3.85Y-3.43
X3.95Y-2.83
X3.95Y-3.43
T3
X4.29Y-2.14
T4
X5.03Y-3.53
X5.08Y-3.53
X5.13Y-3.53
X5.18Y-3.53
X5.23Y-3.53
X3.1283Y-3.53
X3.1783Y-3.53
X3.2283Y-3.53
X3.2783Y-3.53
X3.3283Y-3.53
X3.1283Y-2.73
X3.1783Y-2.73
X3.2283Y-2.73
X3.2783Y-2.73
X3.3283Y-2.73
X5.03Y-2.73
X5.08Y-2.73
X5.13Y-2.73
X5.18Y-2.73
X5.23Y-2.73
T5
X4.555Y-2.93
X4.555Y-3.33
X3.055Y-2.93
X3.055Y-3.33
X5.305Y-2.93
X5.305Y-3.33
X3.805Y-2.93
X3.805Y-3.33
T6
X2.6181Y-3.7075
X5.7419Y-4.5413
X4.18Y-2.5525
X5.7419Y-2.5525
X2.6181Y-4.5413
X4.18Y-1.7187
X4.18Y-3.7075
X2.6181Y-1.7187
X4.18Y-4.5413
X5.7419Y-1.7187
X2.6181Y-2.5525
X5.7419Y-3.7075
T7
X4.555Y-3.13
X3.055Y-3.13
X5.305Y-3.13
X3.805Y-3.13
T2
G00X3.1562Y-3.2819
M15
G01X3.2309Y-3.2344
M16
G05
G00X3.2322Y-3.0316
M15
G01X3.255Y-3.03
M16
G05
G00X5.4062Y-3.2819
M15
G01X5.4809Y-3.2344
M16
G05
G00X5.4822Y-3.0316
M15
G01X5.505Y-3.03
M16
G05
G00X3.9062Y-3.2819
M15
G01X3.9809Y-3.2344
M16
G05
G00X3.9822Y-3.0316
M15
G01X4.005Y-3.03
M16
G05
G00X4.6562Y-3.2819
M15
G01X4.7309Y-3.2344
M16
G05
G00X4.7322Y-3.0316
M15
G01X4.755Y-3.03
M16
G05
T0
M30
