G04 #@! TF.GenerationSoftware,KiCad,Pcbnew,(5.1.4-0-10_14)*
G04 #@! TF.CreationDate,2021-02-24T11:56:57-08:00*
G04 #@! TF.ProjectId,fourkey,666f7572-6b65-4792-9e6b-696361645f70,rev?*
G04 #@! TF.SameCoordinates,Original*
G04 #@! TF.FileFunction,Profile,NP*
%FSLAX46Y46*%
G04 Gerber Fmt 4.6, Leading zero omitted, Abs format (unit mm)*
G04 Created by KiCad (PCBNEW (5.1.4-0-10_14)) date 2021-02-24 11:56:57*
%MOMM*%
%LPD*%
G04 APERTURE LIST*
%ADD10C,0.200000*%
%ADD11C,0.050000*%
G04 APERTURE END LIST*
D10*
X127643000Y-98298000D02*
X127643000Y-111297999D01*
X141643000Y-111297999D02*
X141643000Y-98298000D01*
X141143000Y-97798000D02*
X128143000Y-97798000D01*
X127643000Y-98298000D02*
G75*
G02X128143000Y-97798000I500000J0D01*
G01*
X141143000Y-97798000D02*
G75*
G02X141643000Y-98298000I0J-500000D01*
G01*
X109093000Y-111797999D02*
X122093000Y-111797999D01*
X108593000Y-98298000D02*
G75*
G02X109093000Y-97798000I500000J0D01*
G01*
X84492999Y-111297999D02*
G75*
G02X83992999Y-111797999I-500000J0D01*
G01*
X84492999Y-111297999D02*
X84492999Y-98298000D01*
X70993000Y-111797999D02*
G75*
G02X70493000Y-111297999I0J500000D01*
G01*
X122093000Y-97798000D02*
G75*
G02X122593000Y-98298000I0J-500000D01*
G01*
X122593000Y-111297999D02*
G75*
G02X122093000Y-111797999I-500000J0D01*
G01*
X103043000Y-97798000D02*
G75*
G02X103543000Y-98298000I0J-500000D01*
G01*
X103543000Y-111297999D02*
G75*
G02X103043000Y-111797999I-500000J0D01*
G01*
X70993000Y-111797999D02*
X83992999Y-111797999D01*
X109093000Y-111797999D02*
G75*
G02X108593000Y-111297999I0J500000D01*
G01*
X89543000Y-98298000D02*
X89543000Y-111297999D01*
X70493000Y-98298000D02*
X70493000Y-111297999D01*
X103543000Y-111297999D02*
X103543000Y-98298000D01*
X103043000Y-97798000D02*
X90043000Y-97798000D01*
X83992999Y-97798000D02*
X70993000Y-97798000D01*
X70493000Y-98298000D02*
G75*
G02X70993000Y-97798000I500000J0D01*
G01*
X83992999Y-97798000D02*
G75*
G02X84492999Y-98298000I0J-500000D01*
G01*
X122593000Y-111297999D02*
X122593000Y-98298000D01*
X122093000Y-97798000D02*
X109093000Y-97798000D01*
X141643000Y-111297999D02*
G75*
G02X141143000Y-111797999I-500000J0D01*
G01*
X128143000Y-111797999D02*
G75*
G02X127643000Y-111297999I0J500000D01*
G01*
X108593000Y-98298000D02*
X108593000Y-111297999D01*
X90043000Y-111797999D02*
G75*
G02X89543000Y-111297999I0J500000D01*
G01*
X90043000Y-111797999D02*
X103043000Y-111797999D01*
X89543000Y-98298000D02*
G75*
G02X90043000Y-97798000I500000J0D01*
G01*
X128143000Y-111797999D02*
X141143000Y-111797999D01*
D11*
X147844000Y-67834000D02*
G75*
G03X148844000Y-66834000I0J1000000D01*
G01*
X148844000Y-41656000D02*
G75*
G03X147844000Y-40656000I-1000000J0D01*
G01*
X63500000Y-41656000D02*
G75*
G02X64500000Y-40656000I1000000J0D01*
G01*
X64500000Y-67834000D02*
G75*
G02X63500000Y-66834000I0J1000000D01*
G01*
X147844000Y-91170000D02*
G75*
G02X148844000Y-92170000I0J-1000000D01*
G01*
X147844000Y-118348000D02*
G75*
G03X148844000Y-117348000I0J1000000D01*
G01*
X64500000Y-118348000D02*
G75*
G02X63500000Y-117348000I0J1000000D01*
G01*
X63500000Y-92170000D02*
G75*
G02X64500000Y-91170000I1000000J0D01*
G01*
X86000000Y-69834000D02*
G75*
G02X86000000Y-67834000I0J1000000D01*
G01*
X78000000Y-69834000D02*
G75*
G03X78000000Y-67834000I0J1000000D01*
G01*
X134344000Y-69834000D02*
G75*
G02X134344000Y-67834000I0J1000000D01*
G01*
X126344000Y-69834000D02*
G75*
G03X126344000Y-67834000I0J1000000D01*
G01*
X134344000Y-91170000D02*
G75*
G02X134344000Y-89170000I0J1000000D01*
G01*
X126344000Y-91170000D02*
G75*
G03X126344000Y-89170000I0J1000000D01*
G01*
X86000000Y-91170000D02*
G75*
G02X86000000Y-89170000I0J1000000D01*
G01*
X78000000Y-91170000D02*
G75*
G03X78000000Y-89170000I0J1000000D01*
G01*
X147844000Y-118348000D02*
X64500000Y-118348000D01*
X148844000Y-92170000D02*
X148844000Y-117348000D01*
X64500000Y-91170000D02*
X78000000Y-91170000D01*
X63500000Y-92170000D02*
X63500000Y-117348000D01*
X134344000Y-91170000D02*
X147844000Y-91170000D01*
X86000000Y-91170000D02*
X126344000Y-91170000D01*
X134344000Y-89170000D02*
X144780000Y-89170000D01*
X86000000Y-89170000D02*
X126344000Y-89170000D01*
X126344000Y-69834000D02*
X86000000Y-69834000D01*
X134344000Y-67834000D02*
X147844000Y-67834000D01*
X78000000Y-69834000D02*
X67564000Y-69834000D01*
X86000000Y-67834000D02*
X126344000Y-67834000D01*
X147844000Y-40656000D02*
X64500000Y-40656000D01*
X63500000Y-41656000D02*
X63500000Y-66834000D01*
X64500000Y-67834000D02*
X78000000Y-67834000D01*
X148844000Y-66834000D02*
X148844000Y-41656000D01*
X144780000Y-89170000D02*
X144780000Y-69834000D01*
X67564000Y-89170000D02*
X78000000Y-89170000D01*
X67564000Y-69834000D02*
X67564000Y-89170000D01*
X144780000Y-69834000D02*
X134344000Y-69834000D01*
M02*
