G04 #@! TF.GenerationSoftware,KiCad,Pcbnew,(5.1.4-0-10_14)*
G04 #@! TF.CreationDate,2021-02-23T13:16:56-08:00*
G04 #@! TF.ProjectId,fourkey,666f7572-6b65-4792-9e6b-696361645f70,rev?*
G04 #@! TF.SameCoordinates,Original*
G04 #@! TF.FileFunction,Profile,NP*
%FSLAX46Y46*%
G04 Gerber Fmt 4.6, Leading zero omitted, Abs format (unit mm)*
G04 Created by KiCad (PCBNEW (5.1.4-0-10_14)) date 2021-02-23 13:16:56*
%MOMM*%
%LPD*%
G04 APERTURE LIST*
%ADD10C,0.050000*%
G04 APERTURE END LIST*
D10*
X211344000Y-75708000D02*
G75*
G03X212344000Y-74708000I0J1000000D01*
G01*
X212344000Y-49530000D02*
G75*
G03X211344000Y-48530000I-1000000J0D01*
G01*
X127000000Y-49530000D02*
G75*
G02X128000000Y-48530000I1000000J0D01*
G01*
X128000000Y-75708000D02*
G75*
G02X127000000Y-74708000I0J1000000D01*
G01*
X211344000Y-97012000D02*
G75*
G02X212344000Y-98012000I0J-1000000D01*
G01*
X211344000Y-124190000D02*
G75*
G03X212344000Y-123190000I0J1000000D01*
G01*
X128000000Y-124190000D02*
G75*
G02X127000000Y-123190000I0J1000000D01*
G01*
X127000000Y-98012000D02*
G75*
G02X128000000Y-97012000I1000000J0D01*
G01*
X151122000Y-76708000D02*
G75*
G02X151122000Y-75708000I0J500000D01*
G01*
X143510000Y-76708000D02*
G75*
G03X143510000Y-75708000I0J500000D01*
G01*
X196680000Y-76708000D02*
G75*
G02X196680000Y-75708000I0J500000D01*
G01*
X189000000Y-76708000D02*
G75*
G03X189000000Y-75708000I0J500000D01*
G01*
X196680000Y-97011999D02*
G75*
G02X196680000Y-96012001I0J499999D01*
G01*
X189000000Y-97011999D02*
G75*
G03X189000000Y-96012001I0J499999D01*
G01*
X151122000Y-97012000D02*
G75*
G02X151122000Y-96012000I0J500000D01*
G01*
X143510000Y-97012000D02*
G75*
G03X143510000Y-96012000I0J500000D01*
G01*
X211344000Y-124190000D02*
X128000000Y-124190000D01*
X212344000Y-98012000D02*
X212344000Y-123190000D01*
X128000000Y-97012000D02*
X143510000Y-97012000D01*
X127000000Y-98012000D02*
X127000000Y-123190000D01*
X196680000Y-97012000D02*
X211344000Y-97012000D01*
X151122000Y-97012000D02*
X189000000Y-97012000D01*
X196680000Y-96012000D02*
X208280000Y-96012000D01*
X151122000Y-96012000D02*
X189000000Y-96012000D01*
X189000000Y-76708000D02*
X151122000Y-76708000D01*
X196680000Y-75708000D02*
X211344000Y-75708000D01*
X143510000Y-76708000D02*
X131826000Y-76708000D01*
X151122000Y-75708000D02*
X189000000Y-75708000D01*
X211344000Y-48530000D02*
X128000000Y-48530000D01*
X127000000Y-49530000D02*
X127000000Y-74708000D01*
X128000000Y-75708000D02*
X143510000Y-75708000D01*
X212344000Y-74708000D02*
X212344000Y-49530000D01*
X208280000Y-96012000D02*
X208280000Y-76708000D01*
X131826000Y-96012000D02*
X143510000Y-96012000D01*
X131826000Y-76708000D02*
X131826000Y-96012000D01*
X208280000Y-76708000D02*
X196680000Y-76708000D01*
M02*
