G04 #@! TF.GenerationSoftware,KiCad,Pcbnew,(5.1.4-0-10_14)*
G04 #@! TF.CreationDate,2021-02-23T19:21:18-08:00*
G04 #@! TF.ProjectId,fourkey,666f7572-6b65-4792-9e6b-696361645f70,rev?*
G04 #@! TF.SameCoordinates,Original*
G04 #@! TF.FileFunction,Copper,L2,Bot*
G04 #@! TF.FilePolarity,Positive*
%FSLAX46Y46*%
G04 Gerber Fmt 4.6, Leading zero omitted, Abs format (unit mm)*
G04 Created by KiCad (PCBNEW (5.1.4-0-10_14)) date 2021-02-23 19:21:18*
%MOMM*%
%LPD*%
G04 APERTURE LIST*
%ADD10C,4.000000*%
%ADD11C,2.800000*%
%ADD12C,2.500000*%
%ADD13C,2.500000*%
%ADD14C,1.600000*%
%ADD15R,1.600000X1.600000*%
%ADD16C,0.254000*%
G04 APERTURE END LIST*
D10*
X108966000Y-54356000D03*
D11*
X66500000Y-115348000D03*
X145844000Y-115348000D03*
X66500000Y-94170000D03*
X145844000Y-94170000D03*
X66500000Y-64834000D03*
X66500000Y-43656000D03*
X145844000Y-43656000D03*
X145844000Y-64834000D03*
D12*
X81498000Y-82757000D03*
D13*
X80549185Y-83361462D02*
X82446815Y-82152538D01*
D12*
X82768000Y-76982000D03*
D13*
X82478672Y-77001724D02*
X83057328Y-76962276D01*
D14*
X72390000Y-71882000D03*
X74930000Y-71882000D03*
X77470000Y-71882000D03*
X80010000Y-71882000D03*
X82550000Y-71882000D03*
X85090000Y-71882000D03*
X87630000Y-71882000D03*
X90170000Y-71882000D03*
X92710000Y-71882000D03*
X95250000Y-71882000D03*
X97790000Y-71882000D03*
X100330000Y-71882000D03*
X100330000Y-87122000D03*
X97790000Y-87122000D03*
X95250000Y-87122000D03*
X92710000Y-87122000D03*
X90170000Y-87122000D03*
X87630000Y-87122000D03*
X85090000Y-87122000D03*
X82550000Y-87122000D03*
X80010000Y-87122000D03*
X77470000Y-87122000D03*
X74930000Y-87122000D03*
D15*
X72390000Y-87122000D03*
D12*
X101818000Y-76982000D03*
D13*
X101528672Y-77001724D02*
X102107328Y-76962276D01*
D12*
X100548000Y-82757000D03*
D13*
X99599185Y-83361462D02*
X101496815Y-82152538D01*
D12*
X119598000Y-82757000D03*
D13*
X118649185Y-83361462D02*
X120546815Y-82152538D01*
D12*
X120868000Y-76982000D03*
D13*
X120578672Y-77001724D02*
X121157328Y-76962276D01*
D12*
X139918000Y-76982000D03*
D13*
X139628672Y-77001724D02*
X140207328Y-76962276D01*
D12*
X138648000Y-82757000D03*
D13*
X137699185Y-83361462D02*
X139596815Y-82152538D01*
D16*
G36*
X133653080Y-70341292D02*
G01*
X133708392Y-70364090D01*
X133763366Y-70387652D01*
X133772169Y-70390377D01*
X133959006Y-70446786D01*
X134017686Y-70458405D01*
X134076196Y-70470842D01*
X134085361Y-70471805D01*
X134279594Y-70490850D01*
X134279598Y-70490850D01*
X134311581Y-70494000D01*
X144120001Y-70494000D01*
X144120000Y-88510000D01*
X134311581Y-88510000D01*
X134278613Y-88513247D01*
X134265633Y-88513247D01*
X134256468Y-88514210D01*
X134062518Y-88535965D01*
X134004019Y-88548400D01*
X133945325Y-88560022D01*
X133936522Y-88562747D01*
X133750491Y-88621760D01*
X133695509Y-88645326D01*
X133640206Y-88668120D01*
X133632100Y-88672503D01*
X133586418Y-88697617D01*
X133497758Y-88608957D01*
X133329272Y-88496378D01*
X133142061Y-88418833D01*
X132943318Y-88379300D01*
X132740682Y-88379300D01*
X132541939Y-88418833D01*
X132354728Y-88496378D01*
X132207000Y-88595087D01*
X132059272Y-88496378D01*
X131872061Y-88418833D01*
X131673318Y-88379300D01*
X131470682Y-88379300D01*
X131271939Y-88418833D01*
X131084728Y-88496378D01*
X130937000Y-88595087D01*
X130789272Y-88496378D01*
X130602061Y-88418833D01*
X130403318Y-88379300D01*
X130200682Y-88379300D01*
X130001939Y-88418833D01*
X129814728Y-88496378D01*
X129667000Y-88595087D01*
X129519272Y-88496378D01*
X129332061Y-88418833D01*
X129133318Y-88379300D01*
X128930682Y-88379300D01*
X128731939Y-88418833D01*
X128544728Y-88496378D01*
X128397000Y-88595087D01*
X128249272Y-88496378D01*
X128062061Y-88418833D01*
X127863318Y-88379300D01*
X127660682Y-88379300D01*
X127461939Y-88418833D01*
X127274728Y-88496378D01*
X127106242Y-88608957D01*
X127046392Y-88668807D01*
X127034921Y-88662708D01*
X126979606Y-88639909D01*
X126924634Y-88616348D01*
X126915831Y-88613623D01*
X126728995Y-88557214D01*
X126670307Y-88545594D01*
X126611804Y-88533158D01*
X126602639Y-88532195D01*
X126408405Y-88513150D01*
X126408402Y-88513150D01*
X126376419Y-88510000D01*
X100707617Y-88510000D01*
X100748574Y-88501853D01*
X101009727Y-88393680D01*
X101244759Y-88236637D01*
X101444637Y-88036759D01*
X101601680Y-87801727D01*
X101709853Y-87540574D01*
X101765000Y-87263335D01*
X101765000Y-86980665D01*
X101709853Y-86703426D01*
X101601680Y-86442273D01*
X101444637Y-86207241D01*
X101244759Y-86007363D01*
X101009727Y-85850320D01*
X100748574Y-85742147D01*
X100471335Y-85687000D01*
X100188665Y-85687000D01*
X99911426Y-85742147D01*
X99650273Y-85850320D01*
X99415241Y-86007363D01*
X99215363Y-86207241D01*
X99060000Y-86439759D01*
X98904637Y-86207241D01*
X98704759Y-86007363D01*
X98469727Y-85850320D01*
X98208574Y-85742147D01*
X98008943Y-85702437D01*
X98182174Y-85529206D01*
X98344788Y-85285838D01*
X98456798Y-85015421D01*
X98482353Y-84886946D01*
X98512763Y-84913034D01*
X98836336Y-85095172D01*
X99189223Y-85210683D01*
X99557865Y-85255131D01*
X99928096Y-85226806D01*
X100285686Y-85126796D01*
X100533899Y-85001007D01*
X101421328Y-84435652D01*
X114592100Y-84435652D01*
X114592100Y-84728348D01*
X114649202Y-85015421D01*
X114761212Y-85285838D01*
X114923826Y-85529206D01*
X115130794Y-85736174D01*
X115374162Y-85898788D01*
X115644579Y-86010798D01*
X115931652Y-86067900D01*
X116224348Y-86067900D01*
X116511421Y-86010798D01*
X116781838Y-85898788D01*
X117025206Y-85736174D01*
X117232174Y-85529206D01*
X117394788Y-85285838D01*
X117506798Y-85015421D01*
X117532353Y-84886946D01*
X117562763Y-84913034D01*
X117886336Y-85095172D01*
X118239223Y-85210683D01*
X118607865Y-85255131D01*
X118978096Y-85226806D01*
X119335686Y-85126796D01*
X119583899Y-85001007D01*
X120471328Y-84435652D01*
X133642100Y-84435652D01*
X133642100Y-84728348D01*
X133699202Y-85015421D01*
X133811212Y-85285838D01*
X133973826Y-85529206D01*
X134180794Y-85736174D01*
X134424162Y-85898788D01*
X134694579Y-86010798D01*
X134981652Y-86067900D01*
X135274348Y-86067900D01*
X135561421Y-86010798D01*
X135831838Y-85898788D01*
X136075206Y-85736174D01*
X136282174Y-85529206D01*
X136444788Y-85285838D01*
X136556798Y-85015421D01*
X136582353Y-84886946D01*
X136612763Y-84913034D01*
X136936336Y-85095172D01*
X137289223Y-85210683D01*
X137657865Y-85255131D01*
X138028096Y-85226806D01*
X138385686Y-85126796D01*
X138633899Y-85001007D01*
X140687720Y-83692578D01*
X140906623Y-83520782D01*
X141148387Y-83238961D01*
X141330524Y-82915389D01*
X141446036Y-82562501D01*
X141490483Y-82193859D01*
X141462158Y-81823627D01*
X141362149Y-81466037D01*
X141194299Y-81134829D01*
X140965058Y-80842730D01*
X140683237Y-80600966D01*
X140359664Y-80418829D01*
X140006777Y-80303317D01*
X139638134Y-80258869D01*
X139267903Y-80287195D01*
X138910312Y-80387204D01*
X138662100Y-80512994D01*
X136608280Y-81821422D01*
X136389377Y-81993218D01*
X136147613Y-82275040D01*
X135965475Y-82598613D01*
X135849964Y-82951500D01*
X135813076Y-83257441D01*
X135561421Y-83153202D01*
X135274348Y-83096100D01*
X134981652Y-83096100D01*
X134694579Y-83153202D01*
X134424162Y-83265212D01*
X134180794Y-83427826D01*
X133973826Y-83634794D01*
X133811212Y-83878162D01*
X133699202Y-84148579D01*
X133642100Y-84435652D01*
X120471328Y-84435652D01*
X121637720Y-83692578D01*
X121856623Y-83520782D01*
X122098387Y-83238961D01*
X122280524Y-82915389D01*
X122396036Y-82562501D01*
X122440483Y-82193859D01*
X122412158Y-81823627D01*
X122312149Y-81466037D01*
X122144299Y-81134829D01*
X121915058Y-80842730D01*
X121633237Y-80600966D01*
X121309664Y-80418829D01*
X120956777Y-80303317D01*
X120588134Y-80258869D01*
X120217903Y-80287195D01*
X119860312Y-80387204D01*
X119612100Y-80512994D01*
X117558280Y-81821422D01*
X117339377Y-81993218D01*
X117097613Y-82275040D01*
X116915475Y-82598613D01*
X116799964Y-82951500D01*
X116763076Y-83257441D01*
X116511421Y-83153202D01*
X116224348Y-83096100D01*
X115931652Y-83096100D01*
X115644579Y-83153202D01*
X115374162Y-83265212D01*
X115130794Y-83427826D01*
X114923826Y-83634794D01*
X114761212Y-83878162D01*
X114649202Y-84148579D01*
X114592100Y-84435652D01*
X101421328Y-84435652D01*
X102587720Y-83692578D01*
X102806623Y-83520782D01*
X103048387Y-83238961D01*
X103230524Y-82915389D01*
X103346036Y-82562501D01*
X103390483Y-82193859D01*
X103362158Y-81823627D01*
X103262149Y-81466037D01*
X103094299Y-81134829D01*
X102865058Y-80842730D01*
X102583237Y-80600966D01*
X102259664Y-80418829D01*
X101906777Y-80303317D01*
X101538134Y-80258869D01*
X101167903Y-80287195D01*
X100810312Y-80387204D01*
X100562100Y-80512994D01*
X98508280Y-81821422D01*
X98289377Y-81993218D01*
X98047613Y-82275040D01*
X97865475Y-82598613D01*
X97749964Y-82951500D01*
X97713076Y-83257441D01*
X97461421Y-83153202D01*
X97174348Y-83096100D01*
X96881652Y-83096100D01*
X96594579Y-83153202D01*
X96324162Y-83265212D01*
X96080794Y-83427826D01*
X95873826Y-83634794D01*
X95711212Y-83878162D01*
X95599202Y-84148579D01*
X95542100Y-84435652D01*
X95542100Y-84728348D01*
X95599202Y-85015421D01*
X95711212Y-85285838D01*
X95873826Y-85529206D01*
X96080794Y-85736174D01*
X96324162Y-85898788D01*
X96594579Y-86010798D01*
X96825811Y-86056793D01*
X96675363Y-86207241D01*
X96520000Y-86439759D01*
X96364637Y-86207241D01*
X96164759Y-86007363D01*
X95929727Y-85850320D01*
X95668574Y-85742147D01*
X95391335Y-85687000D01*
X95108665Y-85687000D01*
X94831426Y-85742147D01*
X94570273Y-85850320D01*
X94335241Y-86007363D01*
X94135363Y-86207241D01*
X93980000Y-86439759D01*
X93824637Y-86207241D01*
X93624759Y-86007363D01*
X93389727Y-85850320D01*
X93128574Y-85742147D01*
X92851335Y-85687000D01*
X92568665Y-85687000D01*
X92291426Y-85742147D01*
X92030273Y-85850320D01*
X91795241Y-86007363D01*
X91595363Y-86207241D01*
X91440000Y-86439759D01*
X91284637Y-86207241D01*
X91084759Y-86007363D01*
X90849727Y-85850320D01*
X90588574Y-85742147D01*
X90311335Y-85687000D01*
X90028665Y-85687000D01*
X89751426Y-85742147D01*
X89490273Y-85850320D01*
X89255241Y-86007363D01*
X89055363Y-86207241D01*
X88900000Y-86439759D01*
X88744637Y-86207241D01*
X88544759Y-86007363D01*
X88309727Y-85850320D01*
X88048574Y-85742147D01*
X87771335Y-85687000D01*
X87488665Y-85687000D01*
X87211426Y-85742147D01*
X86950273Y-85850320D01*
X86715241Y-86007363D01*
X86515363Y-86207241D01*
X86360000Y-86439759D01*
X86204637Y-86207241D01*
X86004759Y-86007363D01*
X85769727Y-85850320D01*
X85508574Y-85742147D01*
X85231335Y-85687000D01*
X84948665Y-85687000D01*
X84671426Y-85742147D01*
X84410273Y-85850320D01*
X84175241Y-86007363D01*
X83975363Y-86207241D01*
X83820000Y-86439759D01*
X83664637Y-86207241D01*
X83464759Y-86007363D01*
X83229727Y-85850320D01*
X82968574Y-85742147D01*
X82691335Y-85687000D01*
X82408665Y-85687000D01*
X82131426Y-85742147D01*
X81870273Y-85850320D01*
X81635241Y-86007363D01*
X81435363Y-86207241D01*
X81279085Y-86441128D01*
X81246671Y-86380486D01*
X81002702Y-86308903D01*
X80189605Y-87122000D01*
X81002702Y-87935097D01*
X81246671Y-87863514D01*
X81277194Y-87799008D01*
X81278320Y-87801727D01*
X81435363Y-88036759D01*
X81635241Y-88236637D01*
X81860206Y-88386953D01*
X81699939Y-88418833D01*
X81512728Y-88496378D01*
X81365000Y-88595087D01*
X81217272Y-88496378D01*
X81030061Y-88418833D01*
X80831318Y-88379300D01*
X80712920Y-88379300D01*
X80751514Y-88358671D01*
X80823097Y-88114702D01*
X80010000Y-87301605D01*
X79196903Y-88114702D01*
X79268486Y-88358671D01*
X79325875Y-88385826D01*
X79159939Y-88418833D01*
X78972728Y-88496378D01*
X78804242Y-88608957D01*
X78729812Y-88683387D01*
X78690921Y-88662708D01*
X78635606Y-88639909D01*
X78580634Y-88616348D01*
X78571831Y-88613623D01*
X78384995Y-88557214D01*
X78326307Y-88545594D01*
X78267804Y-88533158D01*
X78258639Y-88532195D01*
X78064405Y-88513150D01*
X78064402Y-88513150D01*
X78032419Y-88510000D01*
X77850294Y-88510000D01*
X78086292Y-88425603D01*
X78211514Y-88358671D01*
X78283097Y-88114702D01*
X77470000Y-87301605D01*
X76656903Y-88114702D01*
X76728486Y-88358671D01*
X76983996Y-88479571D01*
X77105390Y-88510000D01*
X75307617Y-88510000D01*
X75348574Y-88501853D01*
X75609727Y-88393680D01*
X75844759Y-88236637D01*
X76044637Y-88036759D01*
X76200915Y-87802872D01*
X76233329Y-87863514D01*
X76477298Y-87935097D01*
X77290395Y-87122000D01*
X77649605Y-87122000D01*
X78462702Y-87935097D01*
X78706671Y-87863514D01*
X78737971Y-87797364D01*
X78773329Y-87863514D01*
X79017298Y-87935097D01*
X79830395Y-87122000D01*
X79017298Y-86308903D01*
X78773329Y-86380486D01*
X78742029Y-86446636D01*
X78706671Y-86380486D01*
X78462702Y-86308903D01*
X77649605Y-87122000D01*
X77290395Y-87122000D01*
X76477298Y-86308903D01*
X76233329Y-86380486D01*
X76202806Y-86444992D01*
X76201680Y-86442273D01*
X76044637Y-86207241D01*
X75844759Y-86007363D01*
X75609727Y-85850320D01*
X75348574Y-85742147D01*
X75071335Y-85687000D01*
X74788665Y-85687000D01*
X74511426Y-85742147D01*
X74250273Y-85850320D01*
X74015241Y-86007363D01*
X73816643Y-86205961D01*
X73815812Y-86197518D01*
X73779502Y-86077820D01*
X73720537Y-85967506D01*
X73641185Y-85870815D01*
X73544494Y-85791463D01*
X73434180Y-85732498D01*
X73314482Y-85696188D01*
X73190000Y-85683928D01*
X71590000Y-85683928D01*
X71465518Y-85696188D01*
X71345820Y-85732498D01*
X71235506Y-85791463D01*
X71138815Y-85870815D01*
X71059463Y-85967506D01*
X71000498Y-86077820D01*
X70964188Y-86197518D01*
X70951928Y-86322000D01*
X70951928Y-87922000D01*
X70964188Y-88046482D01*
X71000498Y-88166180D01*
X71059463Y-88276494D01*
X71138815Y-88373185D01*
X71235506Y-88452537D01*
X71343010Y-88510000D01*
X68986000Y-88510000D01*
X68986000Y-84435652D01*
X76492100Y-84435652D01*
X76492100Y-84728348D01*
X76549202Y-85015421D01*
X76661212Y-85285838D01*
X76823826Y-85529206D01*
X77030794Y-85736174D01*
X77049213Y-85748481D01*
X76853708Y-85818397D01*
X76728486Y-85885329D01*
X76656903Y-86129298D01*
X77470000Y-86942395D01*
X78283097Y-86129298D01*
X79196903Y-86129298D01*
X80010000Y-86942395D01*
X80823097Y-86129298D01*
X80751514Y-85885329D01*
X80496004Y-85764429D01*
X80221816Y-85695700D01*
X79939488Y-85681783D01*
X79659870Y-85723213D01*
X79393708Y-85818397D01*
X79268486Y-85885329D01*
X79196903Y-86129298D01*
X78283097Y-86129298D01*
X78257322Y-86041450D01*
X78411421Y-86010798D01*
X78681838Y-85898788D01*
X78925206Y-85736174D01*
X79132174Y-85529206D01*
X79294788Y-85285838D01*
X79406798Y-85015421D01*
X79432353Y-84886946D01*
X79462763Y-84913034D01*
X79786336Y-85095172D01*
X80139223Y-85210683D01*
X80507865Y-85255131D01*
X80878096Y-85226806D01*
X81235686Y-85126796D01*
X81483899Y-85001007D01*
X83537720Y-83692578D01*
X83756623Y-83520782D01*
X83998387Y-83238961D01*
X84180524Y-82915389D01*
X84296036Y-82562501D01*
X84340483Y-82193859D01*
X84312158Y-81823627D01*
X84212149Y-81466037D01*
X84044299Y-81134829D01*
X83815058Y-80842730D01*
X83533237Y-80600966D01*
X83209664Y-80418829D01*
X82856777Y-80303317D01*
X82488134Y-80258869D01*
X82117903Y-80287195D01*
X81760312Y-80387204D01*
X81512100Y-80512994D01*
X79458280Y-81821422D01*
X79239377Y-81993218D01*
X78997613Y-82275040D01*
X78815475Y-82598613D01*
X78699964Y-82951500D01*
X78663076Y-83257441D01*
X78411421Y-83153202D01*
X78124348Y-83096100D01*
X77831652Y-83096100D01*
X77544579Y-83153202D01*
X77274162Y-83265212D01*
X77030794Y-83427826D01*
X76823826Y-83634794D01*
X76661212Y-83878162D01*
X76549202Y-84148579D01*
X76492100Y-84435652D01*
X68986000Y-84435652D01*
X68986000Y-79243076D01*
X75349100Y-79243076D01*
X75349100Y-79760924D01*
X75450127Y-80268822D01*
X75648299Y-80747251D01*
X75936000Y-81177826D01*
X76302174Y-81544000D01*
X76732749Y-81831701D01*
X77211178Y-82029873D01*
X77719076Y-82130900D01*
X78236924Y-82130900D01*
X78744822Y-82029873D01*
X79223251Y-81831701D01*
X79653826Y-81544000D01*
X80020000Y-81177826D01*
X80307701Y-80747251D01*
X80505873Y-80268822D01*
X80606900Y-79760924D01*
X80606900Y-79243076D01*
X94399100Y-79243076D01*
X94399100Y-79760924D01*
X94500127Y-80268822D01*
X94698299Y-80747251D01*
X94986000Y-81177826D01*
X95352174Y-81544000D01*
X95782749Y-81831701D01*
X96261178Y-82029873D01*
X96769076Y-82130900D01*
X97286924Y-82130900D01*
X97794822Y-82029873D01*
X98273251Y-81831701D01*
X98703826Y-81544000D01*
X99070000Y-81177826D01*
X99357701Y-80747251D01*
X99555873Y-80268822D01*
X99656900Y-79760924D01*
X99656900Y-79243076D01*
X113449100Y-79243076D01*
X113449100Y-79760924D01*
X113550127Y-80268822D01*
X113748299Y-80747251D01*
X114036000Y-81177826D01*
X114402174Y-81544000D01*
X114832749Y-81831701D01*
X115311178Y-82029873D01*
X115819076Y-82130900D01*
X116336924Y-82130900D01*
X116844822Y-82029873D01*
X117323251Y-81831701D01*
X117753826Y-81544000D01*
X118120000Y-81177826D01*
X118407701Y-80747251D01*
X118605873Y-80268822D01*
X118706900Y-79760924D01*
X118706900Y-79243076D01*
X132499100Y-79243076D01*
X132499100Y-79760924D01*
X132600127Y-80268822D01*
X132798299Y-80747251D01*
X133086000Y-81177826D01*
X133452174Y-81544000D01*
X133882749Y-81831701D01*
X134361178Y-82029873D01*
X134869076Y-82130900D01*
X135386924Y-82130900D01*
X135894822Y-82029873D01*
X136373251Y-81831701D01*
X136803826Y-81544000D01*
X137170000Y-81177826D01*
X137457701Y-80747251D01*
X137655873Y-80268822D01*
X137756900Y-79760924D01*
X137756900Y-79243076D01*
X137655873Y-78735178D01*
X137457701Y-78256749D01*
X137170000Y-77826174D01*
X136803826Y-77460000D01*
X136373251Y-77172299D01*
X136272461Y-77130550D01*
X137738939Y-77130550D01*
X137800382Y-77496743D01*
X137932085Y-77843913D01*
X138128989Y-78158719D01*
X138383523Y-78429061D01*
X138685908Y-78644552D01*
X139024523Y-78796910D01*
X139386355Y-78880279D01*
X139664495Y-78888656D01*
X140427916Y-78836613D01*
X140702347Y-78790566D01*
X141049517Y-78658863D01*
X141364323Y-78461959D01*
X141634665Y-78207425D01*
X141850156Y-77905040D01*
X142002514Y-77566425D01*
X142085883Y-77204593D01*
X142097061Y-76833450D01*
X142035618Y-76467257D01*
X141903914Y-76120087D01*
X141707011Y-75805281D01*
X141452477Y-75534939D01*
X141150092Y-75319448D01*
X140811477Y-75167090D01*
X140449645Y-75083721D01*
X140171504Y-75075344D01*
X139408084Y-75127387D01*
X139133653Y-75173434D01*
X138786483Y-75305137D01*
X138471677Y-75502041D01*
X138201335Y-75756575D01*
X137985844Y-76058960D01*
X137833486Y-76397575D01*
X137750117Y-76759407D01*
X137738939Y-77130550D01*
X136272461Y-77130550D01*
X135894822Y-76974127D01*
X135386924Y-76873100D01*
X134869076Y-76873100D01*
X134361178Y-76974127D01*
X133882749Y-77172299D01*
X133452174Y-77460000D01*
X133086000Y-77826174D01*
X132798299Y-78256749D01*
X132600127Y-78735178D01*
X132499100Y-79243076D01*
X118706900Y-79243076D01*
X118605873Y-78735178D01*
X118407701Y-78256749D01*
X118120000Y-77826174D01*
X117753826Y-77460000D01*
X117323251Y-77172299D01*
X117222461Y-77130550D01*
X118688939Y-77130550D01*
X118750382Y-77496743D01*
X118882085Y-77843913D01*
X119078989Y-78158719D01*
X119333523Y-78429061D01*
X119635908Y-78644552D01*
X119974523Y-78796910D01*
X120336355Y-78880279D01*
X120614495Y-78888656D01*
X121377916Y-78836613D01*
X121652347Y-78790566D01*
X121999517Y-78658863D01*
X122314323Y-78461959D01*
X122584665Y-78207425D01*
X122800156Y-77905040D01*
X122952514Y-77566425D01*
X123035883Y-77204593D01*
X123047061Y-76833450D01*
X122985618Y-76467257D01*
X122853914Y-76120087D01*
X122657011Y-75805281D01*
X122402477Y-75534939D01*
X122100092Y-75319448D01*
X121761477Y-75167090D01*
X121399645Y-75083721D01*
X121121504Y-75075344D01*
X120358084Y-75127387D01*
X120083653Y-75173434D01*
X119736483Y-75305137D01*
X119421677Y-75502041D01*
X119151335Y-75756575D01*
X118935844Y-76058960D01*
X118783486Y-76397575D01*
X118700117Y-76759407D01*
X118688939Y-77130550D01*
X117222461Y-77130550D01*
X116844822Y-76974127D01*
X116336924Y-76873100D01*
X115819076Y-76873100D01*
X115311178Y-76974127D01*
X114832749Y-77172299D01*
X114402174Y-77460000D01*
X114036000Y-77826174D01*
X113748299Y-78256749D01*
X113550127Y-78735178D01*
X113449100Y-79243076D01*
X99656900Y-79243076D01*
X99555873Y-78735178D01*
X99357701Y-78256749D01*
X99070000Y-77826174D01*
X98703826Y-77460000D01*
X98273251Y-77172299D01*
X98172461Y-77130550D01*
X99638939Y-77130550D01*
X99700382Y-77496743D01*
X99832085Y-77843913D01*
X100028989Y-78158719D01*
X100283523Y-78429061D01*
X100585908Y-78644552D01*
X100924523Y-78796910D01*
X101286355Y-78880279D01*
X101564495Y-78888656D01*
X102327916Y-78836613D01*
X102602347Y-78790566D01*
X102949517Y-78658863D01*
X103264323Y-78461959D01*
X103534665Y-78207425D01*
X103750156Y-77905040D01*
X103902514Y-77566425D01*
X103985883Y-77204593D01*
X103997061Y-76833450D01*
X103935618Y-76467257D01*
X103803914Y-76120087D01*
X103607011Y-75805281D01*
X103352477Y-75534939D01*
X103050092Y-75319448D01*
X102711477Y-75167090D01*
X102349645Y-75083721D01*
X102071504Y-75075344D01*
X101308084Y-75127387D01*
X101033653Y-75173434D01*
X100686483Y-75305137D01*
X100371677Y-75502041D01*
X100101335Y-75756575D01*
X99885844Y-76058960D01*
X99733486Y-76397575D01*
X99650117Y-76759407D01*
X99638939Y-77130550D01*
X98172461Y-77130550D01*
X97794822Y-76974127D01*
X97286924Y-76873100D01*
X96769076Y-76873100D01*
X96261178Y-76974127D01*
X95782749Y-77172299D01*
X95352174Y-77460000D01*
X94986000Y-77826174D01*
X94698299Y-78256749D01*
X94500127Y-78735178D01*
X94399100Y-79243076D01*
X80606900Y-79243076D01*
X80505873Y-78735178D01*
X80307701Y-78256749D01*
X80020000Y-77826174D01*
X79653826Y-77460000D01*
X79223251Y-77172299D01*
X79122461Y-77130550D01*
X80588939Y-77130550D01*
X80650382Y-77496743D01*
X80782085Y-77843913D01*
X80978989Y-78158719D01*
X81233523Y-78429061D01*
X81535908Y-78644552D01*
X81874523Y-78796910D01*
X82236355Y-78880279D01*
X82514495Y-78888656D01*
X83277916Y-78836613D01*
X83552347Y-78790566D01*
X83899517Y-78658863D01*
X84214323Y-78461959D01*
X84484665Y-78207425D01*
X84700156Y-77905040D01*
X84852514Y-77566425D01*
X84935883Y-77204593D01*
X84947061Y-76833450D01*
X84885618Y-76467257D01*
X84753914Y-76120087D01*
X84557011Y-75805281D01*
X84302477Y-75534939D01*
X84000092Y-75319448D01*
X83661477Y-75167090D01*
X83299645Y-75083721D01*
X83021504Y-75075344D01*
X82258084Y-75127387D01*
X81983653Y-75173434D01*
X81636483Y-75305137D01*
X81321677Y-75502041D01*
X81051335Y-75756575D01*
X80835844Y-76058960D01*
X80683486Y-76397575D01*
X80600117Y-76759407D01*
X80588939Y-77130550D01*
X79122461Y-77130550D01*
X78744822Y-76974127D01*
X78236924Y-76873100D01*
X77719076Y-76873100D01*
X77211178Y-76974127D01*
X76732749Y-77172299D01*
X76302174Y-77460000D01*
X75936000Y-77826174D01*
X75648299Y-78256749D01*
X75450127Y-78735178D01*
X75349100Y-79243076D01*
X68986000Y-79243076D01*
X68986000Y-70494000D01*
X72012383Y-70494000D01*
X71971426Y-70502147D01*
X71710273Y-70610320D01*
X71475241Y-70767363D01*
X71275363Y-70967241D01*
X71118320Y-71202273D01*
X71010147Y-71463426D01*
X70955000Y-71740665D01*
X70955000Y-72023335D01*
X71010147Y-72300574D01*
X71118320Y-72561727D01*
X71275363Y-72796759D01*
X71475241Y-72996637D01*
X71710273Y-73153680D01*
X71971426Y-73261853D01*
X72248665Y-73317000D01*
X72531335Y-73317000D01*
X72808574Y-73261853D01*
X73069727Y-73153680D01*
X73304759Y-72996637D01*
X73426694Y-72874702D01*
X74116903Y-72874702D01*
X74188486Y-73118671D01*
X74443996Y-73239571D01*
X74718184Y-73308300D01*
X75000512Y-73322217D01*
X75280130Y-73280787D01*
X75546292Y-73185603D01*
X75671514Y-73118671D01*
X75743097Y-72874702D01*
X74930000Y-72061605D01*
X74116903Y-72874702D01*
X73426694Y-72874702D01*
X73504637Y-72796759D01*
X73660915Y-72562872D01*
X73693329Y-72623514D01*
X73937298Y-72695097D01*
X74750395Y-71882000D01*
X73937298Y-71068903D01*
X73693329Y-71140486D01*
X73662806Y-71204992D01*
X73661680Y-71202273D01*
X73504637Y-70967241D01*
X73304759Y-70767363D01*
X73069727Y-70610320D01*
X72808574Y-70502147D01*
X72767617Y-70494000D01*
X74549706Y-70494000D01*
X74313708Y-70578397D01*
X74188486Y-70645329D01*
X74116903Y-70889298D01*
X74930000Y-71702395D01*
X75743097Y-70889298D01*
X75671514Y-70645329D01*
X75416004Y-70524429D01*
X75294610Y-70494000D01*
X77092383Y-70494000D01*
X77051426Y-70502147D01*
X76790273Y-70610320D01*
X76555241Y-70767363D01*
X76355363Y-70967241D01*
X76199085Y-71201128D01*
X76166671Y-71140486D01*
X75922702Y-71068903D01*
X75109605Y-71882000D01*
X75922702Y-72695097D01*
X76166671Y-72623514D01*
X76197194Y-72559008D01*
X76198320Y-72561727D01*
X76355363Y-72796759D01*
X76555241Y-72996637D01*
X76790273Y-73153680D01*
X77044208Y-73258863D01*
X77030794Y-73267826D01*
X76823826Y-73474794D01*
X76661212Y-73718162D01*
X76549202Y-73988579D01*
X76492100Y-74275652D01*
X76492100Y-74568348D01*
X76549202Y-74855421D01*
X76661212Y-75125838D01*
X76823826Y-75369206D01*
X77030794Y-75576174D01*
X77274162Y-75738788D01*
X77544579Y-75850798D01*
X77831652Y-75907900D01*
X78124348Y-75907900D01*
X78411421Y-75850798D01*
X78681838Y-75738788D01*
X78925206Y-75576174D01*
X79132174Y-75369206D01*
X79294788Y-75125838D01*
X79406798Y-74855421D01*
X79463900Y-74568348D01*
X79463900Y-74275652D01*
X79406798Y-73988579D01*
X79294788Y-73718162D01*
X79132174Y-73474794D01*
X78925206Y-73267826D01*
X78681838Y-73105212D01*
X78411421Y-72993202D01*
X78392048Y-72989348D01*
X78584637Y-72796759D01*
X78740000Y-72564241D01*
X78895363Y-72796759D01*
X79095241Y-72996637D01*
X79330273Y-73153680D01*
X79591426Y-73261853D01*
X79868665Y-73317000D01*
X80151335Y-73317000D01*
X80428574Y-73261853D01*
X80689727Y-73153680D01*
X80924759Y-72996637D01*
X81124637Y-72796759D01*
X81280000Y-72564241D01*
X81435363Y-72796759D01*
X81635241Y-72996637D01*
X81870273Y-73153680D01*
X82131426Y-73261853D01*
X82408665Y-73317000D01*
X82691335Y-73317000D01*
X82968574Y-73261853D01*
X83229727Y-73153680D01*
X83464759Y-72996637D01*
X83664637Y-72796759D01*
X83820000Y-72564241D01*
X83975363Y-72796759D01*
X84175241Y-72996637D01*
X84410273Y-73153680D01*
X84671426Y-73261853D01*
X84948665Y-73317000D01*
X85231335Y-73317000D01*
X85508574Y-73261853D01*
X85769727Y-73153680D01*
X86004759Y-72996637D01*
X86204637Y-72796759D01*
X86360000Y-72564241D01*
X86515363Y-72796759D01*
X86715241Y-72996637D01*
X86950273Y-73153680D01*
X87211426Y-73261853D01*
X87488665Y-73317000D01*
X87771335Y-73317000D01*
X88048574Y-73261853D01*
X88309727Y-73153680D01*
X88544759Y-72996637D01*
X88744637Y-72796759D01*
X88900000Y-72564241D01*
X89055363Y-72796759D01*
X89255241Y-72996637D01*
X89490273Y-73153680D01*
X89751426Y-73261853D01*
X90028665Y-73317000D01*
X90311335Y-73317000D01*
X90588574Y-73261853D01*
X90849727Y-73153680D01*
X91084759Y-72996637D01*
X91284637Y-72796759D01*
X91440000Y-72564241D01*
X91595363Y-72796759D01*
X91795241Y-72996637D01*
X92030273Y-73153680D01*
X92291426Y-73261853D01*
X92568665Y-73317000D01*
X92851335Y-73317000D01*
X93128574Y-73261853D01*
X93389727Y-73153680D01*
X93624759Y-72996637D01*
X93824637Y-72796759D01*
X93980000Y-72564241D01*
X94135363Y-72796759D01*
X94335241Y-72996637D01*
X94570273Y-73153680D01*
X94831426Y-73261853D01*
X95108665Y-73317000D01*
X95391335Y-73317000D01*
X95668574Y-73261853D01*
X95929727Y-73153680D01*
X96164759Y-72996637D01*
X96364637Y-72796759D01*
X96520000Y-72564241D01*
X96675363Y-72796759D01*
X96825811Y-72947207D01*
X96594579Y-72993202D01*
X96324162Y-73105212D01*
X96080794Y-73267826D01*
X95873826Y-73474794D01*
X95711212Y-73718162D01*
X95599202Y-73988579D01*
X95542100Y-74275652D01*
X95542100Y-74568348D01*
X95599202Y-74855421D01*
X95711212Y-75125838D01*
X95873826Y-75369206D01*
X96080794Y-75576174D01*
X96324162Y-75738788D01*
X96594579Y-75850798D01*
X96881652Y-75907900D01*
X97174348Y-75907900D01*
X97461421Y-75850798D01*
X97731838Y-75738788D01*
X97975206Y-75576174D01*
X98182174Y-75369206D01*
X98344788Y-75125838D01*
X98456798Y-74855421D01*
X98513900Y-74568348D01*
X98513900Y-74275652D01*
X114592100Y-74275652D01*
X114592100Y-74568348D01*
X114649202Y-74855421D01*
X114761212Y-75125838D01*
X114923826Y-75369206D01*
X115130794Y-75576174D01*
X115374162Y-75738788D01*
X115644579Y-75850798D01*
X115931652Y-75907900D01*
X116224348Y-75907900D01*
X116511421Y-75850798D01*
X116781838Y-75738788D01*
X117025206Y-75576174D01*
X117232174Y-75369206D01*
X117394788Y-75125838D01*
X117506798Y-74855421D01*
X117563900Y-74568348D01*
X117563900Y-74275652D01*
X133642100Y-74275652D01*
X133642100Y-74568348D01*
X133699202Y-74855421D01*
X133811212Y-75125838D01*
X133973826Y-75369206D01*
X134180794Y-75576174D01*
X134424162Y-75738788D01*
X134694579Y-75850798D01*
X134981652Y-75907900D01*
X135274348Y-75907900D01*
X135561421Y-75850798D01*
X135831838Y-75738788D01*
X136075206Y-75576174D01*
X136282174Y-75369206D01*
X136444788Y-75125838D01*
X136556798Y-74855421D01*
X136613900Y-74568348D01*
X136613900Y-74275652D01*
X136556798Y-73988579D01*
X136444788Y-73718162D01*
X136282174Y-73474794D01*
X136075206Y-73267826D01*
X135831838Y-73105212D01*
X135561421Y-72993202D01*
X135274348Y-72936100D01*
X134981652Y-72936100D01*
X134694579Y-72993202D01*
X134424162Y-73105212D01*
X134180794Y-73267826D01*
X133973826Y-73474794D01*
X133811212Y-73718162D01*
X133699202Y-73988579D01*
X133642100Y-74275652D01*
X117563900Y-74275652D01*
X117506798Y-73988579D01*
X117394788Y-73718162D01*
X117232174Y-73474794D01*
X117025206Y-73267826D01*
X116781838Y-73105212D01*
X116511421Y-72993202D01*
X116224348Y-72936100D01*
X115931652Y-72936100D01*
X115644579Y-72993202D01*
X115374162Y-73105212D01*
X115130794Y-73267826D01*
X114923826Y-73474794D01*
X114761212Y-73718162D01*
X114649202Y-73988579D01*
X114592100Y-74275652D01*
X98513900Y-74275652D01*
X98456798Y-73988579D01*
X98344788Y-73718162D01*
X98182174Y-73474794D01*
X98008943Y-73301563D01*
X98208574Y-73261853D01*
X98469727Y-73153680D01*
X98704759Y-72996637D01*
X98904637Y-72796759D01*
X99060000Y-72564241D01*
X99215363Y-72796759D01*
X99415241Y-72996637D01*
X99650273Y-73153680D01*
X99911426Y-73261853D01*
X100188665Y-73317000D01*
X100471335Y-73317000D01*
X100748574Y-73261853D01*
X101009727Y-73153680D01*
X101244759Y-72996637D01*
X101444637Y-72796759D01*
X101601680Y-72561727D01*
X101709853Y-72300574D01*
X101765000Y-72023335D01*
X101765000Y-71740665D01*
X101709853Y-71463426D01*
X101601680Y-71202273D01*
X101444637Y-70967241D01*
X101244759Y-70767363D01*
X101009727Y-70610320D01*
X100748574Y-70502147D01*
X100707617Y-70494000D01*
X126376419Y-70494000D01*
X126409387Y-70490753D01*
X126422367Y-70490753D01*
X126431532Y-70489790D01*
X126625481Y-70468035D01*
X126683966Y-70455603D01*
X126742676Y-70443978D01*
X126751479Y-70441253D01*
X126937509Y-70382240D01*
X126992519Y-70358662D01*
X127047288Y-70336089D01*
X127106242Y-70395043D01*
X127274728Y-70507622D01*
X127461939Y-70585167D01*
X127660682Y-70624700D01*
X127863318Y-70624700D01*
X128062061Y-70585167D01*
X128249272Y-70507622D01*
X128397000Y-70408913D01*
X128544728Y-70507622D01*
X128731939Y-70585167D01*
X128930682Y-70624700D01*
X129133318Y-70624700D01*
X129332061Y-70585167D01*
X129519272Y-70507622D01*
X129667000Y-70408913D01*
X129814728Y-70507622D01*
X130001939Y-70585167D01*
X130200682Y-70624700D01*
X130403318Y-70624700D01*
X130602061Y-70585167D01*
X130789272Y-70507622D01*
X130937000Y-70408913D01*
X131084728Y-70507622D01*
X131271939Y-70585167D01*
X131470682Y-70624700D01*
X131673318Y-70624700D01*
X131872061Y-70585167D01*
X132059272Y-70507622D01*
X132207000Y-70408913D01*
X132354728Y-70507622D01*
X132541939Y-70585167D01*
X132740682Y-70624700D01*
X132943318Y-70624700D01*
X133142061Y-70585167D01*
X133329272Y-70507622D01*
X133497758Y-70395043D01*
X133586768Y-70306033D01*
X133653080Y-70341292D01*
X133653080Y-70341292D01*
G37*
X133653080Y-70341292D02*
X133708392Y-70364090D01*
X133763366Y-70387652D01*
X133772169Y-70390377D01*
X133959006Y-70446786D01*
X134017686Y-70458405D01*
X134076196Y-70470842D01*
X134085361Y-70471805D01*
X134279594Y-70490850D01*
X134279598Y-70490850D01*
X134311581Y-70494000D01*
X144120001Y-70494000D01*
X144120000Y-88510000D01*
X134311581Y-88510000D01*
X134278613Y-88513247D01*
X134265633Y-88513247D01*
X134256468Y-88514210D01*
X134062518Y-88535965D01*
X134004019Y-88548400D01*
X133945325Y-88560022D01*
X133936522Y-88562747D01*
X133750491Y-88621760D01*
X133695509Y-88645326D01*
X133640206Y-88668120D01*
X133632100Y-88672503D01*
X133586418Y-88697617D01*
X133497758Y-88608957D01*
X133329272Y-88496378D01*
X133142061Y-88418833D01*
X132943318Y-88379300D01*
X132740682Y-88379300D01*
X132541939Y-88418833D01*
X132354728Y-88496378D01*
X132207000Y-88595087D01*
X132059272Y-88496378D01*
X131872061Y-88418833D01*
X131673318Y-88379300D01*
X131470682Y-88379300D01*
X131271939Y-88418833D01*
X131084728Y-88496378D01*
X130937000Y-88595087D01*
X130789272Y-88496378D01*
X130602061Y-88418833D01*
X130403318Y-88379300D01*
X130200682Y-88379300D01*
X130001939Y-88418833D01*
X129814728Y-88496378D01*
X129667000Y-88595087D01*
X129519272Y-88496378D01*
X129332061Y-88418833D01*
X129133318Y-88379300D01*
X128930682Y-88379300D01*
X128731939Y-88418833D01*
X128544728Y-88496378D01*
X128397000Y-88595087D01*
X128249272Y-88496378D01*
X128062061Y-88418833D01*
X127863318Y-88379300D01*
X127660682Y-88379300D01*
X127461939Y-88418833D01*
X127274728Y-88496378D01*
X127106242Y-88608957D01*
X127046392Y-88668807D01*
X127034921Y-88662708D01*
X126979606Y-88639909D01*
X126924634Y-88616348D01*
X126915831Y-88613623D01*
X126728995Y-88557214D01*
X126670307Y-88545594D01*
X126611804Y-88533158D01*
X126602639Y-88532195D01*
X126408405Y-88513150D01*
X126408402Y-88513150D01*
X126376419Y-88510000D01*
X100707617Y-88510000D01*
X100748574Y-88501853D01*
X101009727Y-88393680D01*
X101244759Y-88236637D01*
X101444637Y-88036759D01*
X101601680Y-87801727D01*
X101709853Y-87540574D01*
X101765000Y-87263335D01*
X101765000Y-86980665D01*
X101709853Y-86703426D01*
X101601680Y-86442273D01*
X101444637Y-86207241D01*
X101244759Y-86007363D01*
X101009727Y-85850320D01*
X100748574Y-85742147D01*
X100471335Y-85687000D01*
X100188665Y-85687000D01*
X99911426Y-85742147D01*
X99650273Y-85850320D01*
X99415241Y-86007363D01*
X99215363Y-86207241D01*
X99060000Y-86439759D01*
X98904637Y-86207241D01*
X98704759Y-86007363D01*
X98469727Y-85850320D01*
X98208574Y-85742147D01*
X98008943Y-85702437D01*
X98182174Y-85529206D01*
X98344788Y-85285838D01*
X98456798Y-85015421D01*
X98482353Y-84886946D01*
X98512763Y-84913034D01*
X98836336Y-85095172D01*
X99189223Y-85210683D01*
X99557865Y-85255131D01*
X99928096Y-85226806D01*
X100285686Y-85126796D01*
X100533899Y-85001007D01*
X101421328Y-84435652D01*
X114592100Y-84435652D01*
X114592100Y-84728348D01*
X114649202Y-85015421D01*
X114761212Y-85285838D01*
X114923826Y-85529206D01*
X115130794Y-85736174D01*
X115374162Y-85898788D01*
X115644579Y-86010798D01*
X115931652Y-86067900D01*
X116224348Y-86067900D01*
X116511421Y-86010798D01*
X116781838Y-85898788D01*
X117025206Y-85736174D01*
X117232174Y-85529206D01*
X117394788Y-85285838D01*
X117506798Y-85015421D01*
X117532353Y-84886946D01*
X117562763Y-84913034D01*
X117886336Y-85095172D01*
X118239223Y-85210683D01*
X118607865Y-85255131D01*
X118978096Y-85226806D01*
X119335686Y-85126796D01*
X119583899Y-85001007D01*
X120471328Y-84435652D01*
X133642100Y-84435652D01*
X133642100Y-84728348D01*
X133699202Y-85015421D01*
X133811212Y-85285838D01*
X133973826Y-85529206D01*
X134180794Y-85736174D01*
X134424162Y-85898788D01*
X134694579Y-86010798D01*
X134981652Y-86067900D01*
X135274348Y-86067900D01*
X135561421Y-86010798D01*
X135831838Y-85898788D01*
X136075206Y-85736174D01*
X136282174Y-85529206D01*
X136444788Y-85285838D01*
X136556798Y-85015421D01*
X136582353Y-84886946D01*
X136612763Y-84913034D01*
X136936336Y-85095172D01*
X137289223Y-85210683D01*
X137657865Y-85255131D01*
X138028096Y-85226806D01*
X138385686Y-85126796D01*
X138633899Y-85001007D01*
X140687720Y-83692578D01*
X140906623Y-83520782D01*
X141148387Y-83238961D01*
X141330524Y-82915389D01*
X141446036Y-82562501D01*
X141490483Y-82193859D01*
X141462158Y-81823627D01*
X141362149Y-81466037D01*
X141194299Y-81134829D01*
X140965058Y-80842730D01*
X140683237Y-80600966D01*
X140359664Y-80418829D01*
X140006777Y-80303317D01*
X139638134Y-80258869D01*
X139267903Y-80287195D01*
X138910312Y-80387204D01*
X138662100Y-80512994D01*
X136608280Y-81821422D01*
X136389377Y-81993218D01*
X136147613Y-82275040D01*
X135965475Y-82598613D01*
X135849964Y-82951500D01*
X135813076Y-83257441D01*
X135561421Y-83153202D01*
X135274348Y-83096100D01*
X134981652Y-83096100D01*
X134694579Y-83153202D01*
X134424162Y-83265212D01*
X134180794Y-83427826D01*
X133973826Y-83634794D01*
X133811212Y-83878162D01*
X133699202Y-84148579D01*
X133642100Y-84435652D01*
X120471328Y-84435652D01*
X121637720Y-83692578D01*
X121856623Y-83520782D01*
X122098387Y-83238961D01*
X122280524Y-82915389D01*
X122396036Y-82562501D01*
X122440483Y-82193859D01*
X122412158Y-81823627D01*
X122312149Y-81466037D01*
X122144299Y-81134829D01*
X121915058Y-80842730D01*
X121633237Y-80600966D01*
X121309664Y-80418829D01*
X120956777Y-80303317D01*
X120588134Y-80258869D01*
X120217903Y-80287195D01*
X119860312Y-80387204D01*
X119612100Y-80512994D01*
X117558280Y-81821422D01*
X117339377Y-81993218D01*
X117097613Y-82275040D01*
X116915475Y-82598613D01*
X116799964Y-82951500D01*
X116763076Y-83257441D01*
X116511421Y-83153202D01*
X116224348Y-83096100D01*
X115931652Y-83096100D01*
X115644579Y-83153202D01*
X115374162Y-83265212D01*
X115130794Y-83427826D01*
X114923826Y-83634794D01*
X114761212Y-83878162D01*
X114649202Y-84148579D01*
X114592100Y-84435652D01*
X101421328Y-84435652D01*
X102587720Y-83692578D01*
X102806623Y-83520782D01*
X103048387Y-83238961D01*
X103230524Y-82915389D01*
X103346036Y-82562501D01*
X103390483Y-82193859D01*
X103362158Y-81823627D01*
X103262149Y-81466037D01*
X103094299Y-81134829D01*
X102865058Y-80842730D01*
X102583237Y-80600966D01*
X102259664Y-80418829D01*
X101906777Y-80303317D01*
X101538134Y-80258869D01*
X101167903Y-80287195D01*
X100810312Y-80387204D01*
X100562100Y-80512994D01*
X98508280Y-81821422D01*
X98289377Y-81993218D01*
X98047613Y-82275040D01*
X97865475Y-82598613D01*
X97749964Y-82951500D01*
X97713076Y-83257441D01*
X97461421Y-83153202D01*
X97174348Y-83096100D01*
X96881652Y-83096100D01*
X96594579Y-83153202D01*
X96324162Y-83265212D01*
X96080794Y-83427826D01*
X95873826Y-83634794D01*
X95711212Y-83878162D01*
X95599202Y-84148579D01*
X95542100Y-84435652D01*
X95542100Y-84728348D01*
X95599202Y-85015421D01*
X95711212Y-85285838D01*
X95873826Y-85529206D01*
X96080794Y-85736174D01*
X96324162Y-85898788D01*
X96594579Y-86010798D01*
X96825811Y-86056793D01*
X96675363Y-86207241D01*
X96520000Y-86439759D01*
X96364637Y-86207241D01*
X96164759Y-86007363D01*
X95929727Y-85850320D01*
X95668574Y-85742147D01*
X95391335Y-85687000D01*
X95108665Y-85687000D01*
X94831426Y-85742147D01*
X94570273Y-85850320D01*
X94335241Y-86007363D01*
X94135363Y-86207241D01*
X93980000Y-86439759D01*
X93824637Y-86207241D01*
X93624759Y-86007363D01*
X93389727Y-85850320D01*
X93128574Y-85742147D01*
X92851335Y-85687000D01*
X92568665Y-85687000D01*
X92291426Y-85742147D01*
X92030273Y-85850320D01*
X91795241Y-86007363D01*
X91595363Y-86207241D01*
X91440000Y-86439759D01*
X91284637Y-86207241D01*
X91084759Y-86007363D01*
X90849727Y-85850320D01*
X90588574Y-85742147D01*
X90311335Y-85687000D01*
X90028665Y-85687000D01*
X89751426Y-85742147D01*
X89490273Y-85850320D01*
X89255241Y-86007363D01*
X89055363Y-86207241D01*
X88900000Y-86439759D01*
X88744637Y-86207241D01*
X88544759Y-86007363D01*
X88309727Y-85850320D01*
X88048574Y-85742147D01*
X87771335Y-85687000D01*
X87488665Y-85687000D01*
X87211426Y-85742147D01*
X86950273Y-85850320D01*
X86715241Y-86007363D01*
X86515363Y-86207241D01*
X86360000Y-86439759D01*
X86204637Y-86207241D01*
X86004759Y-86007363D01*
X85769727Y-85850320D01*
X85508574Y-85742147D01*
X85231335Y-85687000D01*
X84948665Y-85687000D01*
X84671426Y-85742147D01*
X84410273Y-85850320D01*
X84175241Y-86007363D01*
X83975363Y-86207241D01*
X83820000Y-86439759D01*
X83664637Y-86207241D01*
X83464759Y-86007363D01*
X83229727Y-85850320D01*
X82968574Y-85742147D01*
X82691335Y-85687000D01*
X82408665Y-85687000D01*
X82131426Y-85742147D01*
X81870273Y-85850320D01*
X81635241Y-86007363D01*
X81435363Y-86207241D01*
X81279085Y-86441128D01*
X81246671Y-86380486D01*
X81002702Y-86308903D01*
X80189605Y-87122000D01*
X81002702Y-87935097D01*
X81246671Y-87863514D01*
X81277194Y-87799008D01*
X81278320Y-87801727D01*
X81435363Y-88036759D01*
X81635241Y-88236637D01*
X81860206Y-88386953D01*
X81699939Y-88418833D01*
X81512728Y-88496378D01*
X81365000Y-88595087D01*
X81217272Y-88496378D01*
X81030061Y-88418833D01*
X80831318Y-88379300D01*
X80712920Y-88379300D01*
X80751514Y-88358671D01*
X80823097Y-88114702D01*
X80010000Y-87301605D01*
X79196903Y-88114702D01*
X79268486Y-88358671D01*
X79325875Y-88385826D01*
X79159939Y-88418833D01*
X78972728Y-88496378D01*
X78804242Y-88608957D01*
X78729812Y-88683387D01*
X78690921Y-88662708D01*
X78635606Y-88639909D01*
X78580634Y-88616348D01*
X78571831Y-88613623D01*
X78384995Y-88557214D01*
X78326307Y-88545594D01*
X78267804Y-88533158D01*
X78258639Y-88532195D01*
X78064405Y-88513150D01*
X78064402Y-88513150D01*
X78032419Y-88510000D01*
X77850294Y-88510000D01*
X78086292Y-88425603D01*
X78211514Y-88358671D01*
X78283097Y-88114702D01*
X77470000Y-87301605D01*
X76656903Y-88114702D01*
X76728486Y-88358671D01*
X76983996Y-88479571D01*
X77105390Y-88510000D01*
X75307617Y-88510000D01*
X75348574Y-88501853D01*
X75609727Y-88393680D01*
X75844759Y-88236637D01*
X76044637Y-88036759D01*
X76200915Y-87802872D01*
X76233329Y-87863514D01*
X76477298Y-87935097D01*
X77290395Y-87122000D01*
X77649605Y-87122000D01*
X78462702Y-87935097D01*
X78706671Y-87863514D01*
X78737971Y-87797364D01*
X78773329Y-87863514D01*
X79017298Y-87935097D01*
X79830395Y-87122000D01*
X79017298Y-86308903D01*
X78773329Y-86380486D01*
X78742029Y-86446636D01*
X78706671Y-86380486D01*
X78462702Y-86308903D01*
X77649605Y-87122000D01*
X77290395Y-87122000D01*
X76477298Y-86308903D01*
X76233329Y-86380486D01*
X76202806Y-86444992D01*
X76201680Y-86442273D01*
X76044637Y-86207241D01*
X75844759Y-86007363D01*
X75609727Y-85850320D01*
X75348574Y-85742147D01*
X75071335Y-85687000D01*
X74788665Y-85687000D01*
X74511426Y-85742147D01*
X74250273Y-85850320D01*
X74015241Y-86007363D01*
X73816643Y-86205961D01*
X73815812Y-86197518D01*
X73779502Y-86077820D01*
X73720537Y-85967506D01*
X73641185Y-85870815D01*
X73544494Y-85791463D01*
X73434180Y-85732498D01*
X73314482Y-85696188D01*
X73190000Y-85683928D01*
X71590000Y-85683928D01*
X71465518Y-85696188D01*
X71345820Y-85732498D01*
X71235506Y-85791463D01*
X71138815Y-85870815D01*
X71059463Y-85967506D01*
X71000498Y-86077820D01*
X70964188Y-86197518D01*
X70951928Y-86322000D01*
X70951928Y-87922000D01*
X70964188Y-88046482D01*
X71000498Y-88166180D01*
X71059463Y-88276494D01*
X71138815Y-88373185D01*
X71235506Y-88452537D01*
X71343010Y-88510000D01*
X68986000Y-88510000D01*
X68986000Y-84435652D01*
X76492100Y-84435652D01*
X76492100Y-84728348D01*
X76549202Y-85015421D01*
X76661212Y-85285838D01*
X76823826Y-85529206D01*
X77030794Y-85736174D01*
X77049213Y-85748481D01*
X76853708Y-85818397D01*
X76728486Y-85885329D01*
X76656903Y-86129298D01*
X77470000Y-86942395D01*
X78283097Y-86129298D01*
X79196903Y-86129298D01*
X80010000Y-86942395D01*
X80823097Y-86129298D01*
X80751514Y-85885329D01*
X80496004Y-85764429D01*
X80221816Y-85695700D01*
X79939488Y-85681783D01*
X79659870Y-85723213D01*
X79393708Y-85818397D01*
X79268486Y-85885329D01*
X79196903Y-86129298D01*
X78283097Y-86129298D01*
X78257322Y-86041450D01*
X78411421Y-86010798D01*
X78681838Y-85898788D01*
X78925206Y-85736174D01*
X79132174Y-85529206D01*
X79294788Y-85285838D01*
X79406798Y-85015421D01*
X79432353Y-84886946D01*
X79462763Y-84913034D01*
X79786336Y-85095172D01*
X80139223Y-85210683D01*
X80507865Y-85255131D01*
X80878096Y-85226806D01*
X81235686Y-85126796D01*
X81483899Y-85001007D01*
X83537720Y-83692578D01*
X83756623Y-83520782D01*
X83998387Y-83238961D01*
X84180524Y-82915389D01*
X84296036Y-82562501D01*
X84340483Y-82193859D01*
X84312158Y-81823627D01*
X84212149Y-81466037D01*
X84044299Y-81134829D01*
X83815058Y-80842730D01*
X83533237Y-80600966D01*
X83209664Y-80418829D01*
X82856777Y-80303317D01*
X82488134Y-80258869D01*
X82117903Y-80287195D01*
X81760312Y-80387204D01*
X81512100Y-80512994D01*
X79458280Y-81821422D01*
X79239377Y-81993218D01*
X78997613Y-82275040D01*
X78815475Y-82598613D01*
X78699964Y-82951500D01*
X78663076Y-83257441D01*
X78411421Y-83153202D01*
X78124348Y-83096100D01*
X77831652Y-83096100D01*
X77544579Y-83153202D01*
X77274162Y-83265212D01*
X77030794Y-83427826D01*
X76823826Y-83634794D01*
X76661212Y-83878162D01*
X76549202Y-84148579D01*
X76492100Y-84435652D01*
X68986000Y-84435652D01*
X68986000Y-79243076D01*
X75349100Y-79243076D01*
X75349100Y-79760924D01*
X75450127Y-80268822D01*
X75648299Y-80747251D01*
X75936000Y-81177826D01*
X76302174Y-81544000D01*
X76732749Y-81831701D01*
X77211178Y-82029873D01*
X77719076Y-82130900D01*
X78236924Y-82130900D01*
X78744822Y-82029873D01*
X79223251Y-81831701D01*
X79653826Y-81544000D01*
X80020000Y-81177826D01*
X80307701Y-80747251D01*
X80505873Y-80268822D01*
X80606900Y-79760924D01*
X80606900Y-79243076D01*
X94399100Y-79243076D01*
X94399100Y-79760924D01*
X94500127Y-80268822D01*
X94698299Y-80747251D01*
X94986000Y-81177826D01*
X95352174Y-81544000D01*
X95782749Y-81831701D01*
X96261178Y-82029873D01*
X96769076Y-82130900D01*
X97286924Y-82130900D01*
X97794822Y-82029873D01*
X98273251Y-81831701D01*
X98703826Y-81544000D01*
X99070000Y-81177826D01*
X99357701Y-80747251D01*
X99555873Y-80268822D01*
X99656900Y-79760924D01*
X99656900Y-79243076D01*
X113449100Y-79243076D01*
X113449100Y-79760924D01*
X113550127Y-80268822D01*
X113748299Y-80747251D01*
X114036000Y-81177826D01*
X114402174Y-81544000D01*
X114832749Y-81831701D01*
X115311178Y-82029873D01*
X115819076Y-82130900D01*
X116336924Y-82130900D01*
X116844822Y-82029873D01*
X117323251Y-81831701D01*
X117753826Y-81544000D01*
X118120000Y-81177826D01*
X118407701Y-80747251D01*
X118605873Y-80268822D01*
X118706900Y-79760924D01*
X118706900Y-79243076D01*
X132499100Y-79243076D01*
X132499100Y-79760924D01*
X132600127Y-80268822D01*
X132798299Y-80747251D01*
X133086000Y-81177826D01*
X133452174Y-81544000D01*
X133882749Y-81831701D01*
X134361178Y-82029873D01*
X134869076Y-82130900D01*
X135386924Y-82130900D01*
X135894822Y-82029873D01*
X136373251Y-81831701D01*
X136803826Y-81544000D01*
X137170000Y-81177826D01*
X137457701Y-80747251D01*
X137655873Y-80268822D01*
X137756900Y-79760924D01*
X137756900Y-79243076D01*
X137655873Y-78735178D01*
X137457701Y-78256749D01*
X137170000Y-77826174D01*
X136803826Y-77460000D01*
X136373251Y-77172299D01*
X136272461Y-77130550D01*
X137738939Y-77130550D01*
X137800382Y-77496743D01*
X137932085Y-77843913D01*
X138128989Y-78158719D01*
X138383523Y-78429061D01*
X138685908Y-78644552D01*
X139024523Y-78796910D01*
X139386355Y-78880279D01*
X139664495Y-78888656D01*
X140427916Y-78836613D01*
X140702347Y-78790566D01*
X141049517Y-78658863D01*
X141364323Y-78461959D01*
X141634665Y-78207425D01*
X141850156Y-77905040D01*
X142002514Y-77566425D01*
X142085883Y-77204593D01*
X142097061Y-76833450D01*
X142035618Y-76467257D01*
X141903914Y-76120087D01*
X141707011Y-75805281D01*
X141452477Y-75534939D01*
X141150092Y-75319448D01*
X140811477Y-75167090D01*
X140449645Y-75083721D01*
X140171504Y-75075344D01*
X139408084Y-75127387D01*
X139133653Y-75173434D01*
X138786483Y-75305137D01*
X138471677Y-75502041D01*
X138201335Y-75756575D01*
X137985844Y-76058960D01*
X137833486Y-76397575D01*
X137750117Y-76759407D01*
X137738939Y-77130550D01*
X136272461Y-77130550D01*
X135894822Y-76974127D01*
X135386924Y-76873100D01*
X134869076Y-76873100D01*
X134361178Y-76974127D01*
X133882749Y-77172299D01*
X133452174Y-77460000D01*
X133086000Y-77826174D01*
X132798299Y-78256749D01*
X132600127Y-78735178D01*
X132499100Y-79243076D01*
X118706900Y-79243076D01*
X118605873Y-78735178D01*
X118407701Y-78256749D01*
X118120000Y-77826174D01*
X117753826Y-77460000D01*
X117323251Y-77172299D01*
X117222461Y-77130550D01*
X118688939Y-77130550D01*
X118750382Y-77496743D01*
X118882085Y-77843913D01*
X119078989Y-78158719D01*
X119333523Y-78429061D01*
X119635908Y-78644552D01*
X119974523Y-78796910D01*
X120336355Y-78880279D01*
X120614495Y-78888656D01*
X121377916Y-78836613D01*
X121652347Y-78790566D01*
X121999517Y-78658863D01*
X122314323Y-78461959D01*
X122584665Y-78207425D01*
X122800156Y-77905040D01*
X122952514Y-77566425D01*
X123035883Y-77204593D01*
X123047061Y-76833450D01*
X122985618Y-76467257D01*
X122853914Y-76120087D01*
X122657011Y-75805281D01*
X122402477Y-75534939D01*
X122100092Y-75319448D01*
X121761477Y-75167090D01*
X121399645Y-75083721D01*
X121121504Y-75075344D01*
X120358084Y-75127387D01*
X120083653Y-75173434D01*
X119736483Y-75305137D01*
X119421677Y-75502041D01*
X119151335Y-75756575D01*
X118935844Y-76058960D01*
X118783486Y-76397575D01*
X118700117Y-76759407D01*
X118688939Y-77130550D01*
X117222461Y-77130550D01*
X116844822Y-76974127D01*
X116336924Y-76873100D01*
X115819076Y-76873100D01*
X115311178Y-76974127D01*
X114832749Y-77172299D01*
X114402174Y-77460000D01*
X114036000Y-77826174D01*
X113748299Y-78256749D01*
X113550127Y-78735178D01*
X113449100Y-79243076D01*
X99656900Y-79243076D01*
X99555873Y-78735178D01*
X99357701Y-78256749D01*
X99070000Y-77826174D01*
X98703826Y-77460000D01*
X98273251Y-77172299D01*
X98172461Y-77130550D01*
X99638939Y-77130550D01*
X99700382Y-77496743D01*
X99832085Y-77843913D01*
X100028989Y-78158719D01*
X100283523Y-78429061D01*
X100585908Y-78644552D01*
X100924523Y-78796910D01*
X101286355Y-78880279D01*
X101564495Y-78888656D01*
X102327916Y-78836613D01*
X102602347Y-78790566D01*
X102949517Y-78658863D01*
X103264323Y-78461959D01*
X103534665Y-78207425D01*
X103750156Y-77905040D01*
X103902514Y-77566425D01*
X103985883Y-77204593D01*
X103997061Y-76833450D01*
X103935618Y-76467257D01*
X103803914Y-76120087D01*
X103607011Y-75805281D01*
X103352477Y-75534939D01*
X103050092Y-75319448D01*
X102711477Y-75167090D01*
X102349645Y-75083721D01*
X102071504Y-75075344D01*
X101308084Y-75127387D01*
X101033653Y-75173434D01*
X100686483Y-75305137D01*
X100371677Y-75502041D01*
X100101335Y-75756575D01*
X99885844Y-76058960D01*
X99733486Y-76397575D01*
X99650117Y-76759407D01*
X99638939Y-77130550D01*
X98172461Y-77130550D01*
X97794822Y-76974127D01*
X97286924Y-76873100D01*
X96769076Y-76873100D01*
X96261178Y-76974127D01*
X95782749Y-77172299D01*
X95352174Y-77460000D01*
X94986000Y-77826174D01*
X94698299Y-78256749D01*
X94500127Y-78735178D01*
X94399100Y-79243076D01*
X80606900Y-79243076D01*
X80505873Y-78735178D01*
X80307701Y-78256749D01*
X80020000Y-77826174D01*
X79653826Y-77460000D01*
X79223251Y-77172299D01*
X79122461Y-77130550D01*
X80588939Y-77130550D01*
X80650382Y-77496743D01*
X80782085Y-77843913D01*
X80978989Y-78158719D01*
X81233523Y-78429061D01*
X81535908Y-78644552D01*
X81874523Y-78796910D01*
X82236355Y-78880279D01*
X82514495Y-78888656D01*
X83277916Y-78836613D01*
X83552347Y-78790566D01*
X83899517Y-78658863D01*
X84214323Y-78461959D01*
X84484665Y-78207425D01*
X84700156Y-77905040D01*
X84852514Y-77566425D01*
X84935883Y-77204593D01*
X84947061Y-76833450D01*
X84885618Y-76467257D01*
X84753914Y-76120087D01*
X84557011Y-75805281D01*
X84302477Y-75534939D01*
X84000092Y-75319448D01*
X83661477Y-75167090D01*
X83299645Y-75083721D01*
X83021504Y-75075344D01*
X82258084Y-75127387D01*
X81983653Y-75173434D01*
X81636483Y-75305137D01*
X81321677Y-75502041D01*
X81051335Y-75756575D01*
X80835844Y-76058960D01*
X80683486Y-76397575D01*
X80600117Y-76759407D01*
X80588939Y-77130550D01*
X79122461Y-77130550D01*
X78744822Y-76974127D01*
X78236924Y-76873100D01*
X77719076Y-76873100D01*
X77211178Y-76974127D01*
X76732749Y-77172299D01*
X76302174Y-77460000D01*
X75936000Y-77826174D01*
X75648299Y-78256749D01*
X75450127Y-78735178D01*
X75349100Y-79243076D01*
X68986000Y-79243076D01*
X68986000Y-70494000D01*
X72012383Y-70494000D01*
X71971426Y-70502147D01*
X71710273Y-70610320D01*
X71475241Y-70767363D01*
X71275363Y-70967241D01*
X71118320Y-71202273D01*
X71010147Y-71463426D01*
X70955000Y-71740665D01*
X70955000Y-72023335D01*
X71010147Y-72300574D01*
X71118320Y-72561727D01*
X71275363Y-72796759D01*
X71475241Y-72996637D01*
X71710273Y-73153680D01*
X71971426Y-73261853D01*
X72248665Y-73317000D01*
X72531335Y-73317000D01*
X72808574Y-73261853D01*
X73069727Y-73153680D01*
X73304759Y-72996637D01*
X73426694Y-72874702D01*
X74116903Y-72874702D01*
X74188486Y-73118671D01*
X74443996Y-73239571D01*
X74718184Y-73308300D01*
X75000512Y-73322217D01*
X75280130Y-73280787D01*
X75546292Y-73185603D01*
X75671514Y-73118671D01*
X75743097Y-72874702D01*
X74930000Y-72061605D01*
X74116903Y-72874702D01*
X73426694Y-72874702D01*
X73504637Y-72796759D01*
X73660915Y-72562872D01*
X73693329Y-72623514D01*
X73937298Y-72695097D01*
X74750395Y-71882000D01*
X73937298Y-71068903D01*
X73693329Y-71140486D01*
X73662806Y-71204992D01*
X73661680Y-71202273D01*
X73504637Y-70967241D01*
X73304759Y-70767363D01*
X73069727Y-70610320D01*
X72808574Y-70502147D01*
X72767617Y-70494000D01*
X74549706Y-70494000D01*
X74313708Y-70578397D01*
X74188486Y-70645329D01*
X74116903Y-70889298D01*
X74930000Y-71702395D01*
X75743097Y-70889298D01*
X75671514Y-70645329D01*
X75416004Y-70524429D01*
X75294610Y-70494000D01*
X77092383Y-70494000D01*
X77051426Y-70502147D01*
X76790273Y-70610320D01*
X76555241Y-70767363D01*
X76355363Y-70967241D01*
X76199085Y-71201128D01*
X76166671Y-71140486D01*
X75922702Y-71068903D01*
X75109605Y-71882000D01*
X75922702Y-72695097D01*
X76166671Y-72623514D01*
X76197194Y-72559008D01*
X76198320Y-72561727D01*
X76355363Y-72796759D01*
X76555241Y-72996637D01*
X76790273Y-73153680D01*
X77044208Y-73258863D01*
X77030794Y-73267826D01*
X76823826Y-73474794D01*
X76661212Y-73718162D01*
X76549202Y-73988579D01*
X76492100Y-74275652D01*
X76492100Y-74568348D01*
X76549202Y-74855421D01*
X76661212Y-75125838D01*
X76823826Y-75369206D01*
X77030794Y-75576174D01*
X77274162Y-75738788D01*
X77544579Y-75850798D01*
X77831652Y-75907900D01*
X78124348Y-75907900D01*
X78411421Y-75850798D01*
X78681838Y-75738788D01*
X78925206Y-75576174D01*
X79132174Y-75369206D01*
X79294788Y-75125838D01*
X79406798Y-74855421D01*
X79463900Y-74568348D01*
X79463900Y-74275652D01*
X79406798Y-73988579D01*
X79294788Y-73718162D01*
X79132174Y-73474794D01*
X78925206Y-73267826D01*
X78681838Y-73105212D01*
X78411421Y-72993202D01*
X78392048Y-72989348D01*
X78584637Y-72796759D01*
X78740000Y-72564241D01*
X78895363Y-72796759D01*
X79095241Y-72996637D01*
X79330273Y-73153680D01*
X79591426Y-73261853D01*
X79868665Y-73317000D01*
X80151335Y-73317000D01*
X80428574Y-73261853D01*
X80689727Y-73153680D01*
X80924759Y-72996637D01*
X81124637Y-72796759D01*
X81280000Y-72564241D01*
X81435363Y-72796759D01*
X81635241Y-72996637D01*
X81870273Y-73153680D01*
X82131426Y-73261853D01*
X82408665Y-73317000D01*
X82691335Y-73317000D01*
X82968574Y-73261853D01*
X83229727Y-73153680D01*
X83464759Y-72996637D01*
X83664637Y-72796759D01*
X83820000Y-72564241D01*
X83975363Y-72796759D01*
X84175241Y-72996637D01*
X84410273Y-73153680D01*
X84671426Y-73261853D01*
X84948665Y-73317000D01*
X85231335Y-73317000D01*
X85508574Y-73261853D01*
X85769727Y-73153680D01*
X86004759Y-72996637D01*
X86204637Y-72796759D01*
X86360000Y-72564241D01*
X86515363Y-72796759D01*
X86715241Y-72996637D01*
X86950273Y-73153680D01*
X87211426Y-73261853D01*
X87488665Y-73317000D01*
X87771335Y-73317000D01*
X88048574Y-73261853D01*
X88309727Y-73153680D01*
X88544759Y-72996637D01*
X88744637Y-72796759D01*
X88900000Y-72564241D01*
X89055363Y-72796759D01*
X89255241Y-72996637D01*
X89490273Y-73153680D01*
X89751426Y-73261853D01*
X90028665Y-73317000D01*
X90311335Y-73317000D01*
X90588574Y-73261853D01*
X90849727Y-73153680D01*
X91084759Y-72996637D01*
X91284637Y-72796759D01*
X91440000Y-72564241D01*
X91595363Y-72796759D01*
X91795241Y-72996637D01*
X92030273Y-73153680D01*
X92291426Y-73261853D01*
X92568665Y-73317000D01*
X92851335Y-73317000D01*
X93128574Y-73261853D01*
X93389727Y-73153680D01*
X93624759Y-72996637D01*
X93824637Y-72796759D01*
X93980000Y-72564241D01*
X94135363Y-72796759D01*
X94335241Y-72996637D01*
X94570273Y-73153680D01*
X94831426Y-73261853D01*
X95108665Y-73317000D01*
X95391335Y-73317000D01*
X95668574Y-73261853D01*
X95929727Y-73153680D01*
X96164759Y-72996637D01*
X96364637Y-72796759D01*
X96520000Y-72564241D01*
X96675363Y-72796759D01*
X96825811Y-72947207D01*
X96594579Y-72993202D01*
X96324162Y-73105212D01*
X96080794Y-73267826D01*
X95873826Y-73474794D01*
X95711212Y-73718162D01*
X95599202Y-73988579D01*
X95542100Y-74275652D01*
X95542100Y-74568348D01*
X95599202Y-74855421D01*
X95711212Y-75125838D01*
X95873826Y-75369206D01*
X96080794Y-75576174D01*
X96324162Y-75738788D01*
X96594579Y-75850798D01*
X96881652Y-75907900D01*
X97174348Y-75907900D01*
X97461421Y-75850798D01*
X97731838Y-75738788D01*
X97975206Y-75576174D01*
X98182174Y-75369206D01*
X98344788Y-75125838D01*
X98456798Y-74855421D01*
X98513900Y-74568348D01*
X98513900Y-74275652D01*
X114592100Y-74275652D01*
X114592100Y-74568348D01*
X114649202Y-74855421D01*
X114761212Y-75125838D01*
X114923826Y-75369206D01*
X115130794Y-75576174D01*
X115374162Y-75738788D01*
X115644579Y-75850798D01*
X115931652Y-75907900D01*
X116224348Y-75907900D01*
X116511421Y-75850798D01*
X116781838Y-75738788D01*
X117025206Y-75576174D01*
X117232174Y-75369206D01*
X117394788Y-75125838D01*
X117506798Y-74855421D01*
X117563900Y-74568348D01*
X117563900Y-74275652D01*
X133642100Y-74275652D01*
X133642100Y-74568348D01*
X133699202Y-74855421D01*
X133811212Y-75125838D01*
X133973826Y-75369206D01*
X134180794Y-75576174D01*
X134424162Y-75738788D01*
X134694579Y-75850798D01*
X134981652Y-75907900D01*
X135274348Y-75907900D01*
X135561421Y-75850798D01*
X135831838Y-75738788D01*
X136075206Y-75576174D01*
X136282174Y-75369206D01*
X136444788Y-75125838D01*
X136556798Y-74855421D01*
X136613900Y-74568348D01*
X136613900Y-74275652D01*
X136556798Y-73988579D01*
X136444788Y-73718162D01*
X136282174Y-73474794D01*
X136075206Y-73267826D01*
X135831838Y-73105212D01*
X135561421Y-72993202D01*
X135274348Y-72936100D01*
X134981652Y-72936100D01*
X134694579Y-72993202D01*
X134424162Y-73105212D01*
X134180794Y-73267826D01*
X133973826Y-73474794D01*
X133811212Y-73718162D01*
X133699202Y-73988579D01*
X133642100Y-74275652D01*
X117563900Y-74275652D01*
X117506798Y-73988579D01*
X117394788Y-73718162D01*
X117232174Y-73474794D01*
X117025206Y-73267826D01*
X116781838Y-73105212D01*
X116511421Y-72993202D01*
X116224348Y-72936100D01*
X115931652Y-72936100D01*
X115644579Y-72993202D01*
X115374162Y-73105212D01*
X115130794Y-73267826D01*
X114923826Y-73474794D01*
X114761212Y-73718162D01*
X114649202Y-73988579D01*
X114592100Y-74275652D01*
X98513900Y-74275652D01*
X98456798Y-73988579D01*
X98344788Y-73718162D01*
X98182174Y-73474794D01*
X98008943Y-73301563D01*
X98208574Y-73261853D01*
X98469727Y-73153680D01*
X98704759Y-72996637D01*
X98904637Y-72796759D01*
X99060000Y-72564241D01*
X99215363Y-72796759D01*
X99415241Y-72996637D01*
X99650273Y-73153680D01*
X99911426Y-73261853D01*
X100188665Y-73317000D01*
X100471335Y-73317000D01*
X100748574Y-73261853D01*
X101009727Y-73153680D01*
X101244759Y-72996637D01*
X101444637Y-72796759D01*
X101601680Y-72561727D01*
X101709853Y-72300574D01*
X101765000Y-72023335D01*
X101765000Y-71740665D01*
X101709853Y-71463426D01*
X101601680Y-71202273D01*
X101444637Y-70967241D01*
X101244759Y-70767363D01*
X101009727Y-70610320D01*
X100748574Y-70502147D01*
X100707617Y-70494000D01*
X126376419Y-70494000D01*
X126409387Y-70490753D01*
X126422367Y-70490753D01*
X126431532Y-70489790D01*
X126625481Y-70468035D01*
X126683966Y-70455603D01*
X126742676Y-70443978D01*
X126751479Y-70441253D01*
X126937509Y-70382240D01*
X126992519Y-70358662D01*
X127047288Y-70336089D01*
X127106242Y-70395043D01*
X127274728Y-70507622D01*
X127461939Y-70585167D01*
X127660682Y-70624700D01*
X127863318Y-70624700D01*
X128062061Y-70585167D01*
X128249272Y-70507622D01*
X128397000Y-70408913D01*
X128544728Y-70507622D01*
X128731939Y-70585167D01*
X128930682Y-70624700D01*
X129133318Y-70624700D01*
X129332061Y-70585167D01*
X129519272Y-70507622D01*
X129667000Y-70408913D01*
X129814728Y-70507622D01*
X130001939Y-70585167D01*
X130200682Y-70624700D01*
X130403318Y-70624700D01*
X130602061Y-70585167D01*
X130789272Y-70507622D01*
X130937000Y-70408913D01*
X131084728Y-70507622D01*
X131271939Y-70585167D01*
X131470682Y-70624700D01*
X131673318Y-70624700D01*
X131872061Y-70585167D01*
X132059272Y-70507622D01*
X132207000Y-70408913D01*
X132354728Y-70507622D01*
X132541939Y-70585167D01*
X132740682Y-70624700D01*
X132943318Y-70624700D01*
X133142061Y-70585167D01*
X133329272Y-70507622D01*
X133497758Y-70395043D01*
X133586768Y-70306033D01*
X133653080Y-70341292D01*
M02*
