G04 #@! TF.GenerationSoftware,KiCad,Pcbnew,(5.1.9-0-10_14)*
G04 #@! TF.CreationDate,2021-03-08T20:11:56-08:00*
G04 #@! TF.ProjectId,fourkey,666f7572-6b65-4792-9e6b-696361645f70,rev?*
G04 #@! TF.SameCoordinates,Original*
G04 #@! TF.FileFunction,Legend,Bot*
G04 #@! TF.FilePolarity,Positive*
%FSLAX46Y46*%
G04 Gerber Fmt 4.6, Leading zero omitted, Abs format (unit mm)*
G04 Created by KiCad (PCBNEW (5.1.9-0-10_14)) date 2021-03-08 20:11:56*
%MOMM*%
%LPD*%
G01*
G04 APERTURE LIST*
%ADD10C,0.150000*%
%ADD11C,0.381000*%
G04 APERTURE END LIST*
D10*
X125674380Y-73978190D02*
X125007714Y-73978190D01*
X125102952Y-73978190D02*
X125055333Y-74025809D01*
X125007714Y-74121047D01*
X125007714Y-74263904D01*
X125055333Y-74359142D01*
X125150571Y-74406761D01*
X125674380Y-74406761D01*
X125150571Y-74406761D02*
X125055333Y-74454380D01*
X125007714Y-74549619D01*
X125007714Y-74692476D01*
X125055333Y-74787714D01*
X125150571Y-74835333D01*
X125674380Y-74835333D01*
X125674380Y-75740095D02*
X125150571Y-75740095D01*
X125055333Y-75692476D01*
X125007714Y-75597238D01*
X125007714Y-75406761D01*
X125055333Y-75311523D01*
X125626761Y-75740095D02*
X125674380Y-75644857D01*
X125674380Y-75406761D01*
X125626761Y-75311523D01*
X125531523Y-75263904D01*
X125436285Y-75263904D01*
X125341047Y-75311523D01*
X125293428Y-75406761D01*
X125293428Y-75644857D01*
X125245809Y-75740095D01*
X125674380Y-76644857D02*
X124674380Y-76644857D01*
X125626761Y-76644857D02*
X125674380Y-76549619D01*
X125674380Y-76359142D01*
X125626761Y-76263904D01*
X125579142Y-76216285D01*
X125483904Y-76168666D01*
X125198190Y-76168666D01*
X125102952Y-76216285D01*
X125055333Y-76263904D01*
X125007714Y-76359142D01*
X125007714Y-76549619D01*
X125055333Y-76644857D01*
X125626761Y-77502000D02*
X125674380Y-77406761D01*
X125674380Y-77216285D01*
X125626761Y-77121047D01*
X125531523Y-77073428D01*
X125150571Y-77073428D01*
X125055333Y-77121047D01*
X125007714Y-77216285D01*
X125007714Y-77406761D01*
X125055333Y-77502000D01*
X125150571Y-77549619D01*
X125245809Y-77549619D01*
X125341047Y-77073428D01*
X125674380Y-78740095D02*
X124674380Y-78740095D01*
X125055333Y-78740095D02*
X125007714Y-78835333D01*
X125007714Y-79025809D01*
X125055333Y-79121047D01*
X125102952Y-79168666D01*
X125198190Y-79216285D01*
X125483904Y-79216285D01*
X125579142Y-79168666D01*
X125626761Y-79121047D01*
X125674380Y-79025809D01*
X125674380Y-78835333D01*
X125626761Y-78740095D01*
X125007714Y-79549619D02*
X125674380Y-79787714D01*
X125007714Y-80025809D02*
X125674380Y-79787714D01*
X125912476Y-79692476D01*
X125960095Y-79644857D01*
X126007714Y-79549619D01*
X125674380Y-81168666D02*
X124674380Y-81168666D01*
X125293428Y-81263904D02*
X125674380Y-81549619D01*
X125007714Y-81549619D02*
X125388666Y-81168666D01*
X125674380Y-82406761D02*
X125150571Y-82406761D01*
X125055333Y-82359142D01*
X125007714Y-82263904D01*
X125007714Y-82073428D01*
X125055333Y-81978190D01*
X125626761Y-82406761D02*
X125674380Y-82311523D01*
X125674380Y-82073428D01*
X125626761Y-81978190D01*
X125531523Y-81930571D01*
X125436285Y-81930571D01*
X125341047Y-81978190D01*
X125293428Y-82073428D01*
X125293428Y-82311523D01*
X125245809Y-82406761D01*
X125674380Y-82882952D02*
X125007714Y-82882952D01*
X124674380Y-82882952D02*
X124722000Y-82835333D01*
X124769619Y-82882952D01*
X124722000Y-82930571D01*
X124674380Y-82882952D01*
X124769619Y-82882952D01*
X125674380Y-83502000D02*
X125626761Y-83406761D01*
X125531523Y-83359142D01*
X124674380Y-83359142D01*
X125626761Y-84263904D02*
X125674380Y-84168666D01*
X125674380Y-83978190D01*
X125626761Y-83882952D01*
X125531523Y-83835333D01*
X125150571Y-83835333D01*
X125055333Y-83882952D01*
X125007714Y-83978190D01*
X125007714Y-84168666D01*
X125055333Y-84263904D01*
X125150571Y-84311523D01*
X125245809Y-84311523D01*
X125341047Y-83835333D01*
X125007714Y-84644857D02*
X125674380Y-84882952D01*
X125007714Y-85121047D02*
X125674380Y-84882952D01*
X125912476Y-84787714D01*
X125960095Y-84740095D01*
X126007714Y-84644857D01*
X113752285Y-53292285D02*
X113085619Y-53054190D01*
X113752285Y-52816095D01*
X113990380Y-52482761D02*
X114038000Y-52435142D01*
X114085619Y-52339904D01*
X114085619Y-52101809D01*
X114038000Y-52006571D01*
X113990380Y-51958952D01*
X113895142Y-51911333D01*
X113799904Y-51911333D01*
X113657047Y-51958952D01*
X113085619Y-52530380D01*
X113085619Y-51911333D01*
X133035858Y-96083238D02*
X133035858Y-98083238D01*
X133535858Y-96654666D01*
X134035858Y-98083238D01*
X134035858Y-96083238D01*
X134750143Y-96083238D02*
X134750143Y-98083238D01*
X136321572Y-96273714D02*
X136250143Y-96178476D01*
X136035858Y-96083238D01*
X135893001Y-96083238D01*
X135678715Y-96178476D01*
X135535858Y-96368952D01*
X135464429Y-96559428D01*
X135393001Y-96940380D01*
X135393001Y-97226095D01*
X135464429Y-97607047D01*
X135535858Y-97797523D01*
X135678715Y-97988000D01*
X135893001Y-98083238D01*
X136035858Y-98083238D01*
X136250143Y-97988000D01*
X136321572Y-97892761D01*
X75100142Y-98083238D02*
X75600142Y-96083238D01*
X76100142Y-98083238D01*
X76600142Y-96083238D02*
X76600142Y-98083238D01*
X77314428Y-97130857D02*
X77814428Y-97130857D01*
X78028714Y-96083238D02*
X77314428Y-96083238D01*
X77314428Y-98083238D01*
X78028714Y-98083238D01*
X78528714Y-98083238D02*
X78885857Y-96083238D01*
X79171571Y-97511809D01*
X79457285Y-96083238D01*
X79814428Y-98083238D01*
X93435858Y-96273714D02*
X93364429Y-96178476D01*
X93150143Y-96083238D01*
X93007286Y-96083238D01*
X92793001Y-96178476D01*
X92650143Y-96368952D01*
X92578715Y-96559428D01*
X92507286Y-96940380D01*
X92507286Y-97226095D01*
X92578715Y-97607047D01*
X92650143Y-97797523D01*
X92793001Y-97988000D01*
X93007286Y-98083238D01*
X93150143Y-98083238D01*
X93364429Y-97988000D01*
X93435858Y-97892761D01*
X94007286Y-96654666D02*
X94721572Y-96654666D01*
X93864429Y-96083238D02*
X94364429Y-98083238D01*
X94864429Y-96083238D01*
X95364429Y-96083238D02*
X95364429Y-98083238D01*
X95864429Y-96654666D01*
X96364429Y-98083238D01*
X96364429Y-96083238D01*
X97078715Y-97130857D02*
X97578715Y-97130857D01*
X97793001Y-96083238D02*
X97078715Y-96083238D01*
X97078715Y-98083238D01*
X97793001Y-98083238D01*
X99293001Y-96083238D02*
X98793001Y-97035619D01*
X98435858Y-96083238D02*
X98435858Y-98083238D01*
X99007286Y-98083238D01*
X99150143Y-97988000D01*
X99221572Y-97892761D01*
X99293001Y-97702285D01*
X99293001Y-97416571D01*
X99221572Y-97226095D01*
X99150143Y-97130857D01*
X99007286Y-97035619D01*
X98435858Y-97035619D01*
X99864429Y-96654666D02*
X100578715Y-96654666D01*
X99721572Y-96083238D02*
X100221572Y-98083238D01*
X100721572Y-96083238D01*
X112985858Y-96083238D02*
X112985858Y-98083238D01*
X112985858Y-97130857D02*
X113843001Y-97130857D01*
X113843001Y-96083238D02*
X113843001Y-98083238D01*
X114485858Y-96654666D02*
X115200143Y-96654666D01*
X114343001Y-96083238D02*
X114843001Y-98083238D01*
X115343001Y-96083238D01*
X115843001Y-96083238D02*
X115843001Y-98083238D01*
X116700143Y-96083238D01*
X116700143Y-98083238D01*
X117414429Y-96083238D02*
X117414429Y-98083238D01*
X117771572Y-98083238D01*
X117985858Y-97988000D01*
X118128715Y-97797523D01*
X118200143Y-97607047D01*
X118271572Y-97226095D01*
X118271572Y-96940380D01*
X118200143Y-96559428D01*
X118128715Y-96368952D01*
X117985858Y-96178476D01*
X117771572Y-96083238D01*
X117414429Y-96083238D01*
X136250142Y-118466761D02*
X136250142Y-116466761D01*
X135750142Y-117895333D01*
X135250142Y-116466761D01*
X135250142Y-118466761D01*
X134535857Y-118466761D02*
X134535857Y-116466761D01*
X132964428Y-118276285D02*
X133035857Y-118371523D01*
X133250142Y-118466761D01*
X133393000Y-118466761D01*
X133607285Y-118371523D01*
X133750142Y-118181047D01*
X133821571Y-117990571D01*
X133893000Y-117609619D01*
X133893000Y-117323904D01*
X133821571Y-116942952D01*
X133750142Y-116752476D01*
X133607285Y-116562000D01*
X133393000Y-116466761D01*
X133250142Y-116466761D01*
X133035857Y-116562000D01*
X132964428Y-116657238D01*
X118200142Y-118466761D02*
X118200142Y-116466761D01*
X118200142Y-117419142D02*
X117343000Y-117419142D01*
X117343000Y-118466761D02*
X117343000Y-116466761D01*
X116700142Y-117895333D02*
X115985857Y-117895333D01*
X116843000Y-118466761D02*
X116343000Y-116466761D01*
X115843000Y-118466761D01*
X115343000Y-118466761D02*
X115343000Y-116466761D01*
X114485857Y-118466761D01*
X114485857Y-116466761D01*
X113771571Y-118466761D02*
X113771571Y-116466761D01*
X113414428Y-116466761D01*
X113200142Y-116562000D01*
X113057285Y-116752476D01*
X112985857Y-116942952D01*
X112914428Y-117323904D01*
X112914428Y-117609619D01*
X112985857Y-117990571D01*
X113057285Y-118181047D01*
X113200142Y-118371523D01*
X113414428Y-118466761D01*
X113771571Y-118466761D01*
X99650142Y-118276285D02*
X99721571Y-118371523D01*
X99935857Y-118466761D01*
X100078714Y-118466761D01*
X100293000Y-118371523D01*
X100435857Y-118181047D01*
X100507285Y-117990571D01*
X100578714Y-117609619D01*
X100578714Y-117323904D01*
X100507285Y-116942952D01*
X100435857Y-116752476D01*
X100293000Y-116562000D01*
X100078714Y-116466761D01*
X99935857Y-116466761D01*
X99721571Y-116562000D01*
X99650142Y-116657238D01*
X99078714Y-117895333D02*
X98364428Y-117895333D01*
X99221571Y-118466761D02*
X98721571Y-116466761D01*
X98221571Y-118466761D01*
X97721571Y-118466761D02*
X97721571Y-116466761D01*
X97221571Y-117895333D01*
X96721571Y-116466761D01*
X96721571Y-118466761D01*
X96007285Y-117419142D02*
X95507285Y-117419142D01*
X95293000Y-118466761D02*
X96007285Y-118466761D01*
X96007285Y-116466761D01*
X95293000Y-116466761D01*
X93793000Y-118466761D02*
X94293000Y-117514380D01*
X94650142Y-118466761D02*
X94650142Y-116466761D01*
X94078714Y-116466761D01*
X93935857Y-116562000D01*
X93864428Y-116657238D01*
X93793000Y-116847714D01*
X93793000Y-117133428D01*
X93864428Y-117323904D01*
X93935857Y-117419142D01*
X94078714Y-117514380D01*
X94650142Y-117514380D01*
X93221571Y-117895333D02*
X92507285Y-117895333D01*
X93364428Y-118466761D02*
X92864428Y-116466761D01*
X92364428Y-118466761D01*
X79885856Y-116466761D02*
X79385856Y-118466761D01*
X78885856Y-116466761D01*
X78385856Y-118466761D02*
X78385856Y-116466761D01*
X77671570Y-117419142D02*
X77171570Y-117419142D01*
X76957284Y-118466761D02*
X77671570Y-118466761D01*
X77671570Y-116466761D01*
X76957284Y-116466761D01*
X76457284Y-116466761D02*
X76100141Y-118466761D01*
X75814427Y-117038190D01*
X75528713Y-118466761D01*
X75171570Y-116466761D01*
X104007142Y-51927428D02*
X104007142Y-53546476D01*
X104078571Y-53736952D01*
X104150000Y-53832190D01*
X104292857Y-53927428D01*
X104507142Y-53927428D01*
X104650000Y-53832190D01*
X104007142Y-53165523D02*
X104150000Y-53260761D01*
X104435714Y-53260761D01*
X104578571Y-53165523D01*
X104650000Y-53070285D01*
X104721428Y-52879809D01*
X104721428Y-52308380D01*
X104650000Y-52117904D01*
X104578571Y-52022666D01*
X104435714Y-51927428D01*
X104150000Y-51927428D01*
X104007142Y-52022666D01*
X103292857Y-53260761D02*
X103292857Y-51927428D01*
X103292857Y-51260761D02*
X103364285Y-51356000D01*
X103292857Y-51451238D01*
X103221428Y-51356000D01*
X103292857Y-51260761D01*
X103292857Y-51451238D01*
X102792857Y-51927428D02*
X102221428Y-51927428D01*
X102578571Y-51260761D02*
X102578571Y-52975047D01*
X102507142Y-53165523D01*
X102364285Y-53260761D01*
X102221428Y-53260761D01*
X101721428Y-53260761D02*
X101721428Y-51260761D01*
X101078571Y-53260761D02*
X101078571Y-52213142D01*
X101150000Y-52022666D01*
X101292857Y-51927428D01*
X101507142Y-51927428D01*
X101650000Y-52022666D01*
X101721428Y-52117904D01*
X99721428Y-51927428D02*
X99721428Y-53260761D01*
X100364285Y-51927428D02*
X100364285Y-52975047D01*
X100292857Y-53165523D01*
X100150000Y-53260761D01*
X99935714Y-53260761D01*
X99792857Y-53165523D01*
X99721428Y-53070285D01*
X99007142Y-53260761D02*
X99007142Y-51260761D01*
X99007142Y-52022666D02*
X98864285Y-51927428D01*
X98578571Y-51927428D01*
X98435714Y-52022666D01*
X98364285Y-52117904D01*
X98292857Y-52308380D01*
X98292857Y-52879809D01*
X98364285Y-53070285D01*
X98435714Y-53165523D01*
X98578571Y-53260761D01*
X98864285Y-53260761D01*
X99007142Y-53165523D01*
X97650000Y-53070285D02*
X97578571Y-53165523D01*
X97650000Y-53260761D01*
X97721428Y-53165523D01*
X97650000Y-53070285D01*
X97650000Y-53260761D01*
X96292857Y-53165523D02*
X96435714Y-53260761D01*
X96721428Y-53260761D01*
X96864285Y-53165523D01*
X96935714Y-53070285D01*
X97007142Y-52879809D01*
X97007142Y-52308380D01*
X96935714Y-52117904D01*
X96864285Y-52022666D01*
X96721428Y-51927428D01*
X96435714Y-51927428D01*
X96292857Y-52022666D01*
X95435714Y-53260761D02*
X95578571Y-53165523D01*
X95650000Y-53070285D01*
X95721428Y-52879809D01*
X95721428Y-52308380D01*
X95650000Y-52117904D01*
X95578571Y-52022666D01*
X95435714Y-51927428D01*
X95221428Y-51927428D01*
X95078571Y-52022666D01*
X95007142Y-52117904D01*
X94935714Y-52308380D01*
X94935714Y-52879809D01*
X95007142Y-53070285D01*
X95078571Y-53165523D01*
X95221428Y-53260761D01*
X95435714Y-53260761D01*
X94292857Y-53260761D02*
X94292857Y-51927428D01*
X94292857Y-52117904D02*
X94221428Y-52022666D01*
X94078571Y-51927428D01*
X93864285Y-51927428D01*
X93721428Y-52022666D01*
X93650000Y-52213142D01*
X93650000Y-53260761D01*
X93650000Y-52213142D02*
X93578571Y-52022666D01*
X93435714Y-51927428D01*
X93221428Y-51927428D01*
X93078571Y-52022666D01*
X93007142Y-52213142D01*
X93007142Y-53260761D01*
X91221428Y-51165523D02*
X92507142Y-53736952D01*
X90935714Y-51927428D02*
X90364285Y-51927428D01*
X90721428Y-51260761D02*
X90721428Y-52975047D01*
X90650000Y-53165523D01*
X90507142Y-53260761D01*
X90364285Y-53260761D01*
X89864285Y-53260761D02*
X89864285Y-51927428D01*
X89864285Y-52308380D02*
X89792857Y-52117904D01*
X89721428Y-52022666D01*
X89578571Y-51927428D01*
X89435714Y-51927428D01*
X88364285Y-53165523D02*
X88507142Y-53260761D01*
X88792857Y-53260761D01*
X88935714Y-53165523D01*
X89007142Y-52975047D01*
X89007142Y-52213142D01*
X88935714Y-52022666D01*
X88792857Y-51927428D01*
X88507142Y-51927428D01*
X88364285Y-52022666D01*
X88292857Y-52213142D01*
X88292857Y-52403619D01*
X89007142Y-52594095D01*
X87650000Y-51927428D02*
X87650000Y-53927428D01*
X87650000Y-52022666D02*
X87507142Y-51927428D01*
X87221428Y-51927428D01*
X87078571Y-52022666D01*
X87007142Y-52117904D01*
X86935714Y-52308380D01*
X86935714Y-52879809D01*
X87007142Y-53070285D01*
X87078571Y-53165523D01*
X87221428Y-53260761D01*
X87507142Y-53260761D01*
X87650000Y-53165523D01*
X86292857Y-53260761D02*
X86292857Y-51927428D01*
X86292857Y-52117904D02*
X86221428Y-52022666D01*
X86078571Y-51927428D01*
X85864285Y-51927428D01*
X85721428Y-52022666D01*
X85650000Y-52213142D01*
X85650000Y-53260761D01*
X85650000Y-52213142D02*
X85578571Y-52022666D01*
X85435714Y-51927428D01*
X85221428Y-51927428D01*
X85078571Y-52022666D01*
X85007142Y-52213142D01*
X85007142Y-53260761D01*
X83650000Y-53260761D02*
X83650000Y-52213142D01*
X83721428Y-52022666D01*
X83864285Y-51927428D01*
X84150000Y-51927428D01*
X84292857Y-52022666D01*
X83650000Y-53165523D02*
X83792857Y-53260761D01*
X84150000Y-53260761D01*
X84292857Y-53165523D01*
X84364285Y-52975047D01*
X84364285Y-52784571D01*
X84292857Y-52594095D01*
X84150000Y-52498857D01*
X83792857Y-52498857D01*
X83650000Y-52403619D01*
X82721428Y-53260761D02*
X82864285Y-53165523D01*
X82935714Y-52975047D01*
X82935714Y-51260761D01*
X81078571Y-51165523D02*
X82364285Y-53736952D01*
X80792857Y-51927428D02*
X80221428Y-51927428D01*
X80578571Y-53260761D02*
X80578571Y-51546476D01*
X80507142Y-51356000D01*
X80364285Y-51260761D01*
X80221428Y-51260761D01*
X79507142Y-53260761D02*
X79650000Y-53165523D01*
X79721428Y-53070285D01*
X79792857Y-52879809D01*
X79792857Y-52308380D01*
X79721428Y-52117904D01*
X79650000Y-52022666D01*
X79507142Y-51927428D01*
X79292857Y-51927428D01*
X79150000Y-52022666D01*
X79078571Y-52117904D01*
X79007142Y-52308380D01*
X79007142Y-52879809D01*
X79078571Y-53070285D01*
X79150000Y-53165523D01*
X79292857Y-53260761D01*
X79507142Y-53260761D01*
X77721428Y-51927428D02*
X77721428Y-53260761D01*
X78364285Y-51927428D02*
X78364285Y-52975047D01*
X78292857Y-53165523D01*
X78150000Y-53260761D01*
X77935714Y-53260761D01*
X77792857Y-53165523D01*
X77721428Y-53070285D01*
X77007142Y-53260761D02*
X77007142Y-51927428D01*
X77007142Y-52308380D02*
X76935714Y-52117904D01*
X76864285Y-52022666D01*
X76721428Y-51927428D01*
X76578571Y-51927428D01*
X76078571Y-53260761D02*
X76078571Y-51260761D01*
X75935714Y-52498857D02*
X75507142Y-53260761D01*
X75507142Y-51927428D02*
X76078571Y-52689333D01*
X74292857Y-53165523D02*
X74435714Y-53260761D01*
X74721428Y-53260761D01*
X74864285Y-53165523D01*
X74935714Y-52975047D01*
X74935714Y-52213142D01*
X74864285Y-52022666D01*
X74721428Y-51927428D01*
X74435714Y-51927428D01*
X74292857Y-52022666D01*
X74221428Y-52213142D01*
X74221428Y-52403619D01*
X74935714Y-52594095D01*
X73721428Y-51927428D02*
X73364285Y-53260761D01*
X73007142Y-51927428D02*
X73364285Y-53260761D01*
X73507142Y-53736952D01*
X73578571Y-53832190D01*
X73721428Y-53927428D01*
D11*
X102997000Y-85852000D02*
X102997000Y-84074000D01*
X102997000Y-74930000D02*
X102997000Y-73152000D01*
X102997000Y-73152000D02*
X101219000Y-73152000D01*
X92075000Y-73152000D02*
X90297000Y-73152000D01*
X90297000Y-73152000D02*
X90297000Y-74930000D01*
X90297000Y-84074000D02*
X90297000Y-85852000D01*
X90297000Y-85852000D02*
X92075000Y-85852000D01*
X101219000Y-85852000D02*
X102997000Y-85852000D01*
X82169000Y-85852000D02*
X83947000Y-85852000D01*
X71247000Y-85852000D02*
X73025000Y-85852000D01*
X71247000Y-84074000D02*
X71247000Y-85852000D01*
X71247000Y-73152000D02*
X71247000Y-74930000D01*
X73025000Y-73152000D02*
X71247000Y-73152000D01*
X83947000Y-73152000D02*
X82169000Y-73152000D01*
X83947000Y-74930000D02*
X83947000Y-73152000D01*
X83947000Y-85852000D02*
X83947000Y-84074000D01*
D10*
X101600000Y-88392000D02*
X101600000Y-70612000D01*
X71120000Y-88392000D02*
X101600000Y-88392000D01*
X71120000Y-83312000D02*
X71120000Y-88392000D01*
X68580000Y-83312000D02*
X71120000Y-83312000D01*
X68580000Y-75692000D02*
X68580000Y-83312000D01*
X71120000Y-75692000D02*
X68580000Y-75692000D01*
X71120000Y-70612000D02*
X71120000Y-75692000D01*
X71120000Y-70612000D02*
X101600000Y-70612000D01*
D11*
X120269000Y-85852000D02*
X122047000Y-85852000D01*
X109347000Y-85852000D02*
X111125000Y-85852000D01*
X109347000Y-84074000D02*
X109347000Y-85852000D01*
X109347000Y-73152000D02*
X109347000Y-74930000D01*
X111125000Y-73152000D02*
X109347000Y-73152000D01*
X122047000Y-73152000D02*
X120269000Y-73152000D01*
X122047000Y-74930000D02*
X122047000Y-73152000D01*
X122047000Y-85852000D02*
X122047000Y-84074000D01*
X141097000Y-85852000D02*
X141097000Y-84074000D01*
X141097000Y-74930000D02*
X141097000Y-73152000D01*
X141097000Y-73152000D02*
X139319000Y-73152000D01*
X130175000Y-73152000D02*
X128397000Y-73152000D01*
X128397000Y-73152000D02*
X128397000Y-74930000D01*
X128397000Y-84074000D02*
X128397000Y-85852000D01*
X128397000Y-85852000D02*
X130175000Y-85852000D01*
X139319000Y-85852000D02*
X141097000Y-85852000D01*
M02*
