G04 #@! TF.GenerationSoftware,KiCad,Pcbnew,(5.1.4-0-10_14)*
G04 #@! TF.CreationDate,2021-02-24T09:48:51-08:00*
G04 #@! TF.ProjectId,fourkey,666f7572-6b65-4792-9e6b-696361645f70,rev?*
G04 #@! TF.SameCoordinates,Original*
G04 #@! TF.FileFunction,Copper,L1,Top*
G04 #@! TF.FilePolarity,Positive*
%FSLAX46Y46*%
G04 Gerber Fmt 4.6, Leading zero omitted, Abs format (unit mm)*
G04 Created by KiCad (PCBNEW (5.1.4-0-10_14)) date 2021-02-24 09:48:51*
%MOMM*%
%LPD*%
G04 APERTURE LIST*
%ADD10C,2.500000*%
%ADD11C,2.500000*%
%ADD12C,4.000000*%
%ADD13C,1.600000*%
%ADD14R,1.600000X1.600000*%
%ADD15R,1.700000X1.000000*%
%ADD16C,0.250000*%
%ADD17C,0.254000*%
G04 APERTURE END LIST*
D10*
X101437000Y-76982000D03*
D11*
X101147672Y-77001724D02*
X101726328Y-76962276D01*
D10*
X100167000Y-82757000D03*
D11*
X99218185Y-83361462D02*
X101115815Y-82152538D01*
D12*
X108966000Y-54356000D03*
D10*
X81117000Y-82757000D03*
D11*
X80168185Y-83361462D02*
X82065815Y-82152538D01*
D10*
X82387000Y-76982000D03*
D11*
X82097672Y-77001724D02*
X82676328Y-76962276D01*
D13*
X72390000Y-87122000D03*
X74930000Y-87122000D03*
X77470000Y-87122000D03*
X80010000Y-87122000D03*
X82550000Y-87122000D03*
X85090000Y-87122000D03*
X87630000Y-87122000D03*
X90170000Y-87122000D03*
X92710000Y-87122000D03*
X95250000Y-87122000D03*
X97790000Y-87122000D03*
X100330000Y-87122000D03*
X100330000Y-71882000D03*
X97790000Y-71882000D03*
X95250000Y-71882000D03*
X92710000Y-71882000D03*
X90170000Y-71882000D03*
X87630000Y-71882000D03*
X85090000Y-71882000D03*
X82550000Y-71882000D03*
X80010000Y-71882000D03*
X77470000Y-71882000D03*
X74930000Y-71882000D03*
D14*
X72390000Y-71882000D03*
D10*
X119217000Y-82757000D03*
D11*
X118268185Y-83361462D02*
X120165815Y-82152538D01*
D10*
X120487000Y-76982000D03*
D11*
X120197672Y-77001724D02*
X120776328Y-76962276D01*
D10*
X139537000Y-76982000D03*
D11*
X139247672Y-77001724D02*
X139826328Y-76962276D01*
D10*
X138267000Y-82757000D03*
D11*
X137318185Y-83361462D02*
X139215815Y-82152538D01*
D15*
X112116000Y-81402000D03*
X105816000Y-81402000D03*
X112116000Y-77602000D03*
X105816000Y-77602000D03*
D16*
X88345000Y-82757000D02*
X92710000Y-87122000D01*
X81117000Y-82757000D02*
X88345000Y-82757000D01*
X95250000Y-85990630D02*
X95250000Y-87122000D01*
X96313000Y-82757000D02*
X95250000Y-83820000D01*
X95250000Y-83820000D02*
X95250000Y-85990630D01*
X100167000Y-82757000D02*
X96313000Y-82757000D01*
X119217000Y-82757000D02*
X113839000Y-82757000D01*
X113839000Y-82757000D02*
X111252000Y-85344000D01*
X99568000Y-85344000D02*
X97790000Y-87122000D01*
X111252000Y-85344000D02*
X99568000Y-85344000D01*
X100362469Y-75907469D02*
X101437000Y-76982000D01*
X82387000Y-72100000D02*
X82169000Y-71882000D01*
X98208999Y-72681999D02*
X97409000Y-71882000D01*
X98589999Y-72681999D02*
X97790000Y-71882000D01*
X98915001Y-73007001D02*
X98589999Y-72681999D01*
X121267001Y-73007001D02*
X98915001Y-73007001D01*
X131017000Y-82757000D02*
X121267001Y-73007001D01*
X138267000Y-82757000D02*
X131017000Y-82757000D01*
X100203000Y-79756000D02*
X102689000Y-79756000D01*
X76200000Y-82804000D02*
X76962000Y-82042000D01*
X88646000Y-78994000D02*
X91440000Y-78994000D01*
X87630000Y-80010000D02*
X88646000Y-78994000D01*
X91440000Y-78994000D02*
X94488000Y-82042000D01*
X81153000Y-80010000D02*
X87630000Y-80010000D01*
X97917000Y-82042000D02*
X100203000Y-79756000D01*
X76200000Y-85852000D02*
X76200000Y-82804000D01*
X79121000Y-82042000D02*
X81153000Y-80010000D01*
X76962000Y-82042000D02*
X79121000Y-82042000D01*
X102689000Y-79756000D02*
X104335000Y-81402000D01*
X94488000Y-82042000D02*
X97917000Y-82042000D01*
X106535000Y-81402000D02*
X111735000Y-81402000D01*
X104335000Y-81402000D02*
X106535000Y-81402000D01*
X77470000Y-87122000D02*
X76200000Y-85852000D01*
X104335000Y-77602000D02*
X105435000Y-77602000D01*
X105435000Y-77602000D02*
X111735000Y-77602000D01*
X102689000Y-79248000D02*
X104335000Y-77602000D01*
X97917000Y-76962000D02*
X100203000Y-79248000D01*
X86868000Y-76962000D02*
X97917000Y-76962000D01*
X84836000Y-78994000D02*
X86868000Y-76962000D01*
X76200000Y-73152000D02*
X76200000Y-76244667D01*
X79121000Y-76962000D02*
X81153000Y-78994000D01*
X76917333Y-76962000D02*
X79121000Y-76962000D01*
X100203000Y-79248000D02*
X102689000Y-79248000D01*
X76200000Y-76244667D02*
X76917333Y-76962000D01*
X81153000Y-78994000D02*
X84836000Y-78994000D01*
X77470000Y-71882000D02*
X76200000Y-73152000D01*
D17*
G36*
X86515363Y-88036759D02*
G01*
X86715241Y-88236637D01*
X86950273Y-88393680D01*
X87211426Y-88501853D01*
X87252383Y-88510000D01*
X85967581Y-88510000D01*
X85934613Y-88513247D01*
X85921633Y-88513247D01*
X85912468Y-88514210D01*
X85718518Y-88535965D01*
X85660019Y-88548400D01*
X85601325Y-88560022D01*
X85592522Y-88562747D01*
X85406491Y-88621760D01*
X85351509Y-88645326D01*
X85296206Y-88668120D01*
X85288100Y-88672503D01*
X85117075Y-88766525D01*
X85084658Y-88788722D01*
X85027272Y-88750378D01*
X84840061Y-88672833D01*
X84641318Y-88633300D01*
X84438682Y-88633300D01*
X84239939Y-88672833D01*
X84052728Y-88750378D01*
X83905000Y-88849087D01*
X83757272Y-88750378D01*
X83570061Y-88672833D01*
X83371318Y-88633300D01*
X83168682Y-88633300D01*
X82969939Y-88672833D01*
X82782728Y-88750378D01*
X82635000Y-88849087D01*
X82487272Y-88750378D01*
X82300061Y-88672833D01*
X82101318Y-88633300D01*
X81898682Y-88633300D01*
X81699939Y-88672833D01*
X81512728Y-88750378D01*
X81365000Y-88849087D01*
X81217272Y-88750378D01*
X81030061Y-88672833D01*
X80831318Y-88633300D01*
X80628682Y-88633300D01*
X80429939Y-88672833D01*
X80242728Y-88750378D01*
X80095000Y-88849087D01*
X79947272Y-88750378D01*
X79760061Y-88672833D01*
X79561318Y-88633300D01*
X79358682Y-88633300D01*
X79159939Y-88672833D01*
X78972728Y-88750378D01*
X78915256Y-88788780D01*
X78871349Y-88758716D01*
X78863243Y-88754333D01*
X78690921Y-88662708D01*
X78635606Y-88639909D01*
X78580634Y-88616348D01*
X78571831Y-88613623D01*
X78384995Y-88557214D01*
X78326307Y-88545594D01*
X78267804Y-88533158D01*
X78258639Y-88532195D01*
X78064405Y-88513150D01*
X78064402Y-88513150D01*
X78032419Y-88510000D01*
X77847617Y-88510000D01*
X77888574Y-88501853D01*
X78149727Y-88393680D01*
X78384759Y-88236637D01*
X78584637Y-88036759D01*
X78740000Y-87804241D01*
X78895363Y-88036759D01*
X79095241Y-88236637D01*
X79330273Y-88393680D01*
X79591426Y-88501853D01*
X79868665Y-88557000D01*
X80151335Y-88557000D01*
X80428574Y-88501853D01*
X80689727Y-88393680D01*
X80924759Y-88236637D01*
X81124637Y-88036759D01*
X81280000Y-87804241D01*
X81435363Y-88036759D01*
X81635241Y-88236637D01*
X81870273Y-88393680D01*
X82131426Y-88501853D01*
X82408665Y-88557000D01*
X82691335Y-88557000D01*
X82968574Y-88501853D01*
X83229727Y-88393680D01*
X83464759Y-88236637D01*
X83664637Y-88036759D01*
X83820000Y-87804241D01*
X83975363Y-88036759D01*
X84175241Y-88236637D01*
X84410273Y-88393680D01*
X84671426Y-88501853D01*
X84948665Y-88557000D01*
X85231335Y-88557000D01*
X85508574Y-88501853D01*
X85769727Y-88393680D01*
X86004759Y-88236637D01*
X86204637Y-88036759D01*
X86360000Y-87804241D01*
X86515363Y-88036759D01*
X86515363Y-88036759D01*
G37*
X86515363Y-88036759D02*
X86715241Y-88236637D01*
X86950273Y-88393680D01*
X87211426Y-88501853D01*
X87252383Y-88510000D01*
X85967581Y-88510000D01*
X85934613Y-88513247D01*
X85921633Y-88513247D01*
X85912468Y-88514210D01*
X85718518Y-88535965D01*
X85660019Y-88548400D01*
X85601325Y-88560022D01*
X85592522Y-88562747D01*
X85406491Y-88621760D01*
X85351509Y-88645326D01*
X85296206Y-88668120D01*
X85288100Y-88672503D01*
X85117075Y-88766525D01*
X85084658Y-88788722D01*
X85027272Y-88750378D01*
X84840061Y-88672833D01*
X84641318Y-88633300D01*
X84438682Y-88633300D01*
X84239939Y-88672833D01*
X84052728Y-88750378D01*
X83905000Y-88849087D01*
X83757272Y-88750378D01*
X83570061Y-88672833D01*
X83371318Y-88633300D01*
X83168682Y-88633300D01*
X82969939Y-88672833D01*
X82782728Y-88750378D01*
X82635000Y-88849087D01*
X82487272Y-88750378D01*
X82300061Y-88672833D01*
X82101318Y-88633300D01*
X81898682Y-88633300D01*
X81699939Y-88672833D01*
X81512728Y-88750378D01*
X81365000Y-88849087D01*
X81217272Y-88750378D01*
X81030061Y-88672833D01*
X80831318Y-88633300D01*
X80628682Y-88633300D01*
X80429939Y-88672833D01*
X80242728Y-88750378D01*
X80095000Y-88849087D01*
X79947272Y-88750378D01*
X79760061Y-88672833D01*
X79561318Y-88633300D01*
X79358682Y-88633300D01*
X79159939Y-88672833D01*
X78972728Y-88750378D01*
X78915256Y-88788780D01*
X78871349Y-88758716D01*
X78863243Y-88754333D01*
X78690921Y-88662708D01*
X78635606Y-88639909D01*
X78580634Y-88616348D01*
X78571831Y-88613623D01*
X78384995Y-88557214D01*
X78326307Y-88545594D01*
X78267804Y-88533158D01*
X78258639Y-88532195D01*
X78064405Y-88513150D01*
X78064402Y-88513150D01*
X78032419Y-88510000D01*
X77847617Y-88510000D01*
X77888574Y-88501853D01*
X78149727Y-88393680D01*
X78384759Y-88236637D01*
X78584637Y-88036759D01*
X78740000Y-87804241D01*
X78895363Y-88036759D01*
X79095241Y-88236637D01*
X79330273Y-88393680D01*
X79591426Y-88501853D01*
X79868665Y-88557000D01*
X80151335Y-88557000D01*
X80428574Y-88501853D01*
X80689727Y-88393680D01*
X80924759Y-88236637D01*
X81124637Y-88036759D01*
X81280000Y-87804241D01*
X81435363Y-88036759D01*
X81635241Y-88236637D01*
X81870273Y-88393680D01*
X82131426Y-88501853D01*
X82408665Y-88557000D01*
X82691335Y-88557000D01*
X82968574Y-88501853D01*
X83229727Y-88393680D01*
X83464759Y-88236637D01*
X83664637Y-88036759D01*
X83820000Y-87804241D01*
X83975363Y-88036759D01*
X84175241Y-88236637D01*
X84410273Y-88393680D01*
X84671426Y-88501853D01*
X84948665Y-88557000D01*
X85231335Y-88557000D01*
X85508574Y-88501853D01*
X85769727Y-88393680D01*
X86004759Y-88236637D01*
X86204637Y-88036759D01*
X86360000Y-87804241D01*
X86515363Y-88036759D01*
G36*
X132354728Y-70253622D02*
G01*
X132541939Y-70331167D01*
X132740682Y-70370700D01*
X132943318Y-70370700D01*
X133142061Y-70331167D01*
X133329272Y-70253622D01*
X133407768Y-70201172D01*
X133423277Y-70211477D01*
X133472651Y-70245284D01*
X133480757Y-70249667D01*
X133653080Y-70341292D01*
X133708392Y-70364090D01*
X133763366Y-70387652D01*
X133772169Y-70390377D01*
X133959006Y-70446786D01*
X134017686Y-70458405D01*
X134076196Y-70470842D01*
X134085361Y-70471805D01*
X134279594Y-70490850D01*
X134279598Y-70490850D01*
X134311581Y-70494000D01*
X144120001Y-70494000D01*
X144120000Y-88510000D01*
X134311581Y-88510000D01*
X134278613Y-88513247D01*
X134265633Y-88513247D01*
X134256468Y-88514210D01*
X134062518Y-88535965D01*
X134004019Y-88548400D01*
X133945325Y-88560022D01*
X133936522Y-88562747D01*
X133750491Y-88621760D01*
X133695509Y-88645326D01*
X133640206Y-88668120D01*
X133632100Y-88672503D01*
X133461075Y-88766525D01*
X133411752Y-88800298D01*
X133407856Y-88802886D01*
X133329272Y-88750378D01*
X133142061Y-88672833D01*
X132943318Y-88633300D01*
X132740682Y-88633300D01*
X132541939Y-88672833D01*
X132354728Y-88750378D01*
X132207000Y-88849087D01*
X132059272Y-88750378D01*
X131872061Y-88672833D01*
X131673318Y-88633300D01*
X131470682Y-88633300D01*
X131271939Y-88672833D01*
X131084728Y-88750378D01*
X130937000Y-88849087D01*
X130789272Y-88750378D01*
X130602061Y-88672833D01*
X130403318Y-88633300D01*
X130200682Y-88633300D01*
X130001939Y-88672833D01*
X129814728Y-88750378D01*
X129667000Y-88849087D01*
X129519272Y-88750378D01*
X129332061Y-88672833D01*
X129133318Y-88633300D01*
X128930682Y-88633300D01*
X128731939Y-88672833D01*
X128544728Y-88750378D01*
X128397000Y-88849087D01*
X128249272Y-88750378D01*
X128062061Y-88672833D01*
X127863318Y-88633300D01*
X127660682Y-88633300D01*
X127461939Y-88672833D01*
X127274728Y-88750378D01*
X127238512Y-88774576D01*
X127215349Y-88758716D01*
X127207243Y-88754333D01*
X127034921Y-88662708D01*
X126979606Y-88639909D01*
X126924634Y-88616348D01*
X126915831Y-88613623D01*
X126728995Y-88557214D01*
X126670307Y-88545594D01*
X126611804Y-88533158D01*
X126602639Y-88532195D01*
X126408405Y-88513150D01*
X126408402Y-88513150D01*
X126376419Y-88510000D01*
X100707617Y-88510000D01*
X100748574Y-88501853D01*
X101009727Y-88393680D01*
X101244759Y-88236637D01*
X101444637Y-88036759D01*
X101601680Y-87801727D01*
X101709853Y-87540574D01*
X101765000Y-87263335D01*
X101765000Y-86980665D01*
X101709853Y-86703426D01*
X101601680Y-86442273D01*
X101444637Y-86207241D01*
X101341396Y-86104000D01*
X111214678Y-86104000D01*
X111252000Y-86107676D01*
X111289322Y-86104000D01*
X111289333Y-86104000D01*
X111400986Y-86093003D01*
X111544247Y-86049546D01*
X111676276Y-85978974D01*
X111792001Y-85884001D01*
X111815804Y-85854997D01*
X114153803Y-83517000D01*
X114660620Y-83517000D01*
X114542826Y-83634794D01*
X114380212Y-83878162D01*
X114268202Y-84148579D01*
X114211100Y-84435652D01*
X114211100Y-84728348D01*
X114268202Y-85015421D01*
X114380212Y-85285838D01*
X114542826Y-85529206D01*
X114749794Y-85736174D01*
X114993162Y-85898788D01*
X115263579Y-86010798D01*
X115550652Y-86067900D01*
X115843348Y-86067900D01*
X116130421Y-86010798D01*
X116400838Y-85898788D01*
X116644206Y-85736174D01*
X116851174Y-85529206D01*
X117013788Y-85285838D01*
X117125798Y-85015421D01*
X117151353Y-84886946D01*
X117181763Y-84913034D01*
X117505336Y-85095172D01*
X117858223Y-85210683D01*
X118226865Y-85255131D01*
X118597096Y-85226806D01*
X118954686Y-85126796D01*
X119202899Y-85001007D01*
X121256720Y-83692578D01*
X121475623Y-83520782D01*
X121717387Y-83238961D01*
X121899524Y-82915389D01*
X122015036Y-82562501D01*
X122059483Y-82193859D01*
X122031158Y-81823627D01*
X121931149Y-81466037D01*
X121763299Y-81134829D01*
X121534058Y-80842730D01*
X121252237Y-80600966D01*
X120928664Y-80418829D01*
X120575777Y-80303317D01*
X120207134Y-80258869D01*
X119836903Y-80287195D01*
X119479312Y-80387204D01*
X119231100Y-80512994D01*
X117177280Y-81821422D01*
X116958377Y-81993218D01*
X116955133Y-81997000D01*
X116543184Y-81997000D01*
X116942251Y-81831701D01*
X117372826Y-81544000D01*
X117739000Y-81177826D01*
X118026701Y-80747251D01*
X118224873Y-80268822D01*
X118325900Y-79760924D01*
X118325900Y-79243076D01*
X118224873Y-78735178D01*
X118026701Y-78256749D01*
X117739000Y-77826174D01*
X117372826Y-77460000D01*
X116942251Y-77172299D01*
X116841461Y-77130550D01*
X118307939Y-77130550D01*
X118369382Y-77496743D01*
X118501085Y-77843913D01*
X118697989Y-78158719D01*
X118952523Y-78429061D01*
X119254908Y-78644552D01*
X119593523Y-78796910D01*
X119955355Y-78880279D01*
X120233495Y-78888656D01*
X120996916Y-78836613D01*
X121271347Y-78790566D01*
X121618517Y-78658863D01*
X121933323Y-78461959D01*
X122203665Y-78207425D01*
X122419156Y-77905040D01*
X122571514Y-77566425D01*
X122654883Y-77204593D01*
X122666061Y-76833450D01*
X122604618Y-76467257D01*
X122472914Y-76120087D01*
X122276011Y-75805281D01*
X122021477Y-75534939D01*
X121719092Y-75319448D01*
X121380477Y-75167090D01*
X121018645Y-75083721D01*
X120740504Y-75075344D01*
X119977084Y-75127387D01*
X119702653Y-75173434D01*
X119355483Y-75305137D01*
X119040677Y-75502041D01*
X118770335Y-75756575D01*
X118554844Y-76058960D01*
X118402486Y-76397575D01*
X118319117Y-76759407D01*
X118307939Y-77130550D01*
X116841461Y-77130550D01*
X116463822Y-76974127D01*
X115955924Y-76873100D01*
X115438076Y-76873100D01*
X114930178Y-76974127D01*
X114451749Y-77172299D01*
X114021174Y-77460000D01*
X113655000Y-77826174D01*
X113604072Y-77902393D01*
X113604072Y-77102000D01*
X113591812Y-76977518D01*
X113555502Y-76857820D01*
X113496537Y-76747506D01*
X113417185Y-76650815D01*
X113320494Y-76571463D01*
X113210180Y-76512498D01*
X113090482Y-76476188D01*
X112966000Y-76463928D01*
X111266000Y-76463928D01*
X111141518Y-76476188D01*
X111021820Y-76512498D01*
X110911506Y-76571463D01*
X110814815Y-76650815D01*
X110735463Y-76747506D01*
X110684954Y-76842000D01*
X107247046Y-76842000D01*
X107196537Y-76747506D01*
X107117185Y-76650815D01*
X107020494Y-76571463D01*
X106910180Y-76512498D01*
X106790482Y-76476188D01*
X106666000Y-76463928D01*
X104966000Y-76463928D01*
X104841518Y-76476188D01*
X104721820Y-76512498D01*
X104611506Y-76571463D01*
X104514815Y-76650815D01*
X104435463Y-76747506D01*
X104384954Y-76842000D01*
X104372333Y-76842000D01*
X104335000Y-76838323D01*
X104297667Y-76842000D01*
X104186014Y-76852997D01*
X104042753Y-76896454D01*
X103910724Y-76967026D01*
X103794999Y-77061999D01*
X103771201Y-77090997D01*
X103589099Y-77273100D01*
X103604883Y-77204593D01*
X103616061Y-76833450D01*
X103554618Y-76467257D01*
X103422914Y-76120087D01*
X103226011Y-75805281D01*
X102971477Y-75534939D01*
X102669092Y-75319448D01*
X102330477Y-75167090D01*
X101968645Y-75083721D01*
X101690504Y-75075344D01*
X100927084Y-75127387D01*
X100652653Y-75173434D01*
X100611839Y-75188917D01*
X100511454Y-75158467D01*
X100362469Y-75143793D01*
X100213484Y-75158467D01*
X100070223Y-75201923D01*
X99938193Y-75272495D01*
X99822468Y-75367468D01*
X99727495Y-75483193D01*
X99656923Y-75615223D01*
X99613467Y-75758484D01*
X99598793Y-75907469D01*
X99600494Y-75924740D01*
X99504844Y-76058960D01*
X99352486Y-76397575D01*
X99269117Y-76759407D01*
X99257939Y-77130550D01*
X99277614Y-77247813D01*
X98480804Y-76451003D01*
X98457001Y-76421999D01*
X98341276Y-76327026D01*
X98209247Y-76256454D01*
X98065986Y-76212997D01*
X97954333Y-76202000D01*
X97954322Y-76202000D01*
X97917000Y-76198324D01*
X97879678Y-76202000D01*
X86905323Y-76202000D01*
X86868000Y-76198324D01*
X86830677Y-76202000D01*
X86830667Y-76202000D01*
X86719014Y-76212997D01*
X86575753Y-76256454D01*
X86443723Y-76327026D01*
X86362540Y-76393652D01*
X86327999Y-76421999D01*
X86304201Y-76450997D01*
X84521199Y-78234000D01*
X84075440Y-78234000D01*
X84103665Y-78207425D01*
X84319156Y-77905040D01*
X84471514Y-77566425D01*
X84554883Y-77204593D01*
X84566061Y-76833450D01*
X84504618Y-76467257D01*
X84372914Y-76120087D01*
X84176011Y-75805281D01*
X83921477Y-75534939D01*
X83619092Y-75319448D01*
X83280477Y-75167090D01*
X82918645Y-75083721D01*
X82640504Y-75075344D01*
X81877084Y-75127387D01*
X81602653Y-75173434D01*
X81255483Y-75305137D01*
X80940677Y-75502041D01*
X80670335Y-75756575D01*
X80454844Y-76058960D01*
X80302486Y-76397575D01*
X80219117Y-76759407D01*
X80212512Y-76978711D01*
X79684804Y-76451003D01*
X79661001Y-76421999D01*
X79545276Y-76327026D01*
X79413247Y-76256454D01*
X79269986Y-76212997D01*
X79158333Y-76202000D01*
X79158322Y-76202000D01*
X79121000Y-76198324D01*
X79083678Y-76202000D01*
X77232135Y-76202000D01*
X76960000Y-75929866D01*
X76960000Y-75766473D01*
X77163579Y-75850798D01*
X77450652Y-75907900D01*
X77743348Y-75907900D01*
X78030421Y-75850798D01*
X78300838Y-75738788D01*
X78544206Y-75576174D01*
X78751174Y-75369206D01*
X78913788Y-75125838D01*
X79025798Y-74855421D01*
X79082900Y-74568348D01*
X79082900Y-74275652D01*
X79025798Y-73988579D01*
X78913788Y-73718162D01*
X78751174Y-73474794D01*
X78544206Y-73267826D01*
X78300838Y-73105212D01*
X78252333Y-73085121D01*
X78384759Y-72996637D01*
X78584637Y-72796759D01*
X78740000Y-72564241D01*
X78895363Y-72796759D01*
X79095241Y-72996637D01*
X79330273Y-73153680D01*
X79591426Y-73261853D01*
X79868665Y-73317000D01*
X80151335Y-73317000D01*
X80428574Y-73261853D01*
X80689727Y-73153680D01*
X80924759Y-72996637D01*
X81124637Y-72796759D01*
X81280000Y-72564241D01*
X81435363Y-72796759D01*
X81635241Y-72996637D01*
X81870273Y-73153680D01*
X82131426Y-73261853D01*
X82408665Y-73317000D01*
X82691335Y-73317000D01*
X82968574Y-73261853D01*
X83229727Y-73153680D01*
X83464759Y-72996637D01*
X83664637Y-72796759D01*
X83820000Y-72564241D01*
X83975363Y-72796759D01*
X84175241Y-72996637D01*
X84410273Y-73153680D01*
X84671426Y-73261853D01*
X84948665Y-73317000D01*
X85231335Y-73317000D01*
X85508574Y-73261853D01*
X85769727Y-73153680D01*
X86004759Y-72996637D01*
X86204637Y-72796759D01*
X86360000Y-72564241D01*
X86515363Y-72796759D01*
X86715241Y-72996637D01*
X86950273Y-73153680D01*
X87211426Y-73261853D01*
X87488665Y-73317000D01*
X87771335Y-73317000D01*
X88048574Y-73261853D01*
X88309727Y-73153680D01*
X88544759Y-72996637D01*
X88744637Y-72796759D01*
X88900000Y-72564241D01*
X89055363Y-72796759D01*
X89255241Y-72996637D01*
X89490273Y-73153680D01*
X89751426Y-73261853D01*
X90028665Y-73317000D01*
X90311335Y-73317000D01*
X90588574Y-73261853D01*
X90849727Y-73153680D01*
X91084759Y-72996637D01*
X91284637Y-72796759D01*
X91440000Y-72564241D01*
X91595363Y-72796759D01*
X91795241Y-72996637D01*
X92030273Y-73153680D01*
X92291426Y-73261853D01*
X92568665Y-73317000D01*
X92851335Y-73317000D01*
X93128574Y-73261853D01*
X93389727Y-73153680D01*
X93624759Y-72996637D01*
X93824637Y-72796759D01*
X93980000Y-72564241D01*
X94135363Y-72796759D01*
X94335241Y-72996637D01*
X94570273Y-73153680D01*
X94831426Y-73261853D01*
X95108665Y-73317000D01*
X95391335Y-73317000D01*
X95668574Y-73261853D01*
X95774231Y-73218088D01*
X95699794Y-73267826D01*
X95492826Y-73474794D01*
X95330212Y-73718162D01*
X95218202Y-73988579D01*
X95161100Y-74275652D01*
X95161100Y-74568348D01*
X95218202Y-74855421D01*
X95330212Y-75125838D01*
X95492826Y-75369206D01*
X95699794Y-75576174D01*
X95943162Y-75738788D01*
X96213579Y-75850798D01*
X96500652Y-75907900D01*
X96793348Y-75907900D01*
X97080421Y-75850798D01*
X97350838Y-75738788D01*
X97594206Y-75576174D01*
X97801174Y-75369206D01*
X97963788Y-75125838D01*
X98075798Y-74855421D01*
X98132900Y-74568348D01*
X98132900Y-74275652D01*
X98075798Y-73988579D01*
X97963788Y-73718162D01*
X97801174Y-73474794D01*
X97642068Y-73315688D01*
X97648665Y-73317000D01*
X97784774Y-73317000D01*
X97916752Y-73387544D01*
X98060012Y-73431001D01*
X98208998Y-73445675D01*
X98272609Y-73439410D01*
X98351197Y-73517998D01*
X98375000Y-73547002D01*
X98490725Y-73641975D01*
X98622754Y-73712547D01*
X98766015Y-73756004D01*
X98877668Y-73767001D01*
X98877677Y-73767001D01*
X98915000Y-73770677D01*
X98952323Y-73767001D01*
X114359982Y-73767001D01*
X114268202Y-73988579D01*
X114211100Y-74275652D01*
X114211100Y-74568348D01*
X114268202Y-74855421D01*
X114380212Y-75125838D01*
X114542826Y-75369206D01*
X114749794Y-75576174D01*
X114993162Y-75738788D01*
X115263579Y-75850798D01*
X115550652Y-75907900D01*
X115843348Y-75907900D01*
X116130421Y-75850798D01*
X116400838Y-75738788D01*
X116644206Y-75576174D01*
X116851174Y-75369206D01*
X117013788Y-75125838D01*
X117125798Y-74855421D01*
X117182900Y-74568348D01*
X117182900Y-74275652D01*
X117125798Y-73988579D01*
X117034018Y-73767001D01*
X120952200Y-73767001D01*
X130453200Y-83268002D01*
X130476999Y-83297001D01*
X130592724Y-83391974D01*
X130724753Y-83462546D01*
X130868014Y-83506003D01*
X130979667Y-83517000D01*
X130979677Y-83517000D01*
X131017000Y-83520676D01*
X131054323Y-83517000D01*
X133710620Y-83517000D01*
X133592826Y-83634794D01*
X133430212Y-83878162D01*
X133318202Y-84148579D01*
X133261100Y-84435652D01*
X133261100Y-84728348D01*
X133318202Y-85015421D01*
X133430212Y-85285838D01*
X133592826Y-85529206D01*
X133799794Y-85736174D01*
X134043162Y-85898788D01*
X134313579Y-86010798D01*
X134600652Y-86067900D01*
X134893348Y-86067900D01*
X135180421Y-86010798D01*
X135450838Y-85898788D01*
X135694206Y-85736174D01*
X135901174Y-85529206D01*
X136063788Y-85285838D01*
X136175798Y-85015421D01*
X136201353Y-84886946D01*
X136231763Y-84913034D01*
X136555336Y-85095172D01*
X136908223Y-85210683D01*
X137276865Y-85255131D01*
X137647096Y-85226806D01*
X138004686Y-85126796D01*
X138252899Y-85001007D01*
X140306720Y-83692578D01*
X140525623Y-83520782D01*
X140767387Y-83238961D01*
X140949524Y-82915389D01*
X141065036Y-82562501D01*
X141109483Y-82193859D01*
X141081158Y-81823627D01*
X140981149Y-81466037D01*
X140813299Y-81134829D01*
X140584058Y-80842730D01*
X140302237Y-80600966D01*
X139978664Y-80418829D01*
X139625777Y-80303317D01*
X139257134Y-80258869D01*
X138886903Y-80287195D01*
X138529312Y-80387204D01*
X138281100Y-80512994D01*
X136227280Y-81821422D01*
X136008377Y-81993218D01*
X136005133Y-81997000D01*
X135593184Y-81997000D01*
X135992251Y-81831701D01*
X136422826Y-81544000D01*
X136789000Y-81177826D01*
X137076701Y-80747251D01*
X137274873Y-80268822D01*
X137375900Y-79760924D01*
X137375900Y-79243076D01*
X137274873Y-78735178D01*
X137076701Y-78256749D01*
X136789000Y-77826174D01*
X136422826Y-77460000D01*
X135992251Y-77172299D01*
X135891461Y-77130550D01*
X137357939Y-77130550D01*
X137419382Y-77496743D01*
X137551085Y-77843913D01*
X137747989Y-78158719D01*
X138002523Y-78429061D01*
X138304908Y-78644552D01*
X138643523Y-78796910D01*
X139005355Y-78880279D01*
X139283495Y-78888656D01*
X140046916Y-78836613D01*
X140321347Y-78790566D01*
X140668517Y-78658863D01*
X140983323Y-78461959D01*
X141253665Y-78207425D01*
X141469156Y-77905040D01*
X141621514Y-77566425D01*
X141704883Y-77204593D01*
X141716061Y-76833450D01*
X141654618Y-76467257D01*
X141522914Y-76120087D01*
X141326011Y-75805281D01*
X141071477Y-75534939D01*
X140769092Y-75319448D01*
X140430477Y-75167090D01*
X140068645Y-75083721D01*
X139790504Y-75075344D01*
X139027084Y-75127387D01*
X138752653Y-75173434D01*
X138405483Y-75305137D01*
X138090677Y-75502041D01*
X137820335Y-75756575D01*
X137604844Y-76058960D01*
X137452486Y-76397575D01*
X137369117Y-76759407D01*
X137357939Y-77130550D01*
X135891461Y-77130550D01*
X135513822Y-76974127D01*
X135005924Y-76873100D01*
X134488076Y-76873100D01*
X133980178Y-76974127D01*
X133501749Y-77172299D01*
X133071174Y-77460000D01*
X132705000Y-77826174D01*
X132417299Y-78256749D01*
X132219127Y-78735178D01*
X132118100Y-79243076D01*
X132118100Y-79760924D01*
X132219127Y-80268822D01*
X132417299Y-80747251D01*
X132705000Y-81177826D01*
X133071174Y-81544000D01*
X133501749Y-81831701D01*
X133900816Y-81997000D01*
X131331802Y-81997000D01*
X123610454Y-74275652D01*
X133261100Y-74275652D01*
X133261100Y-74568348D01*
X133318202Y-74855421D01*
X133430212Y-75125838D01*
X133592826Y-75369206D01*
X133799794Y-75576174D01*
X134043162Y-75738788D01*
X134313579Y-75850798D01*
X134600652Y-75907900D01*
X134893348Y-75907900D01*
X135180421Y-75850798D01*
X135450838Y-75738788D01*
X135694206Y-75576174D01*
X135901174Y-75369206D01*
X136063788Y-75125838D01*
X136175798Y-74855421D01*
X136232900Y-74568348D01*
X136232900Y-74275652D01*
X136175798Y-73988579D01*
X136063788Y-73718162D01*
X135901174Y-73474794D01*
X135694206Y-73267826D01*
X135450838Y-73105212D01*
X135180421Y-72993202D01*
X134893348Y-72936100D01*
X134600652Y-72936100D01*
X134313579Y-72993202D01*
X134043162Y-73105212D01*
X133799794Y-73267826D01*
X133592826Y-73474794D01*
X133430212Y-73718162D01*
X133318202Y-73988579D01*
X133261100Y-74275652D01*
X123610454Y-74275652D01*
X121830805Y-72496004D01*
X121807002Y-72467000D01*
X121691277Y-72372027D01*
X121559248Y-72301455D01*
X121415987Y-72257998D01*
X121304334Y-72247001D01*
X121304323Y-72247001D01*
X121267001Y-72243325D01*
X121229679Y-72247001D01*
X101720509Y-72247001D01*
X101765000Y-72023335D01*
X101765000Y-71740665D01*
X101709853Y-71463426D01*
X101601680Y-71202273D01*
X101444637Y-70967241D01*
X101244759Y-70767363D01*
X101009727Y-70610320D01*
X100748574Y-70502147D01*
X100707617Y-70494000D01*
X126376419Y-70494000D01*
X126409387Y-70490753D01*
X126422367Y-70490753D01*
X126431532Y-70489790D01*
X126625481Y-70468035D01*
X126683966Y-70455603D01*
X126742676Y-70443978D01*
X126751479Y-70441253D01*
X126937509Y-70382240D01*
X126992519Y-70358662D01*
X127047794Y-70335880D01*
X127055900Y-70331497D01*
X127226925Y-70237475D01*
X127238599Y-70229481D01*
X127274728Y-70253622D01*
X127461939Y-70331167D01*
X127660682Y-70370700D01*
X127863318Y-70370700D01*
X128062061Y-70331167D01*
X128249272Y-70253622D01*
X128397000Y-70154913D01*
X128544728Y-70253622D01*
X128731939Y-70331167D01*
X128930682Y-70370700D01*
X129133318Y-70370700D01*
X129332061Y-70331167D01*
X129519272Y-70253622D01*
X129667000Y-70154913D01*
X129814728Y-70253622D01*
X130001939Y-70331167D01*
X130200682Y-70370700D01*
X130403318Y-70370700D01*
X130602061Y-70331167D01*
X130789272Y-70253622D01*
X130937000Y-70154913D01*
X131084728Y-70253622D01*
X131271939Y-70331167D01*
X131470682Y-70370700D01*
X131673318Y-70370700D01*
X131872061Y-70331167D01*
X132059272Y-70253622D01*
X132207000Y-70154913D01*
X132354728Y-70253622D01*
X132354728Y-70253622D01*
G37*
X132354728Y-70253622D02*
X132541939Y-70331167D01*
X132740682Y-70370700D01*
X132943318Y-70370700D01*
X133142061Y-70331167D01*
X133329272Y-70253622D01*
X133407768Y-70201172D01*
X133423277Y-70211477D01*
X133472651Y-70245284D01*
X133480757Y-70249667D01*
X133653080Y-70341292D01*
X133708392Y-70364090D01*
X133763366Y-70387652D01*
X133772169Y-70390377D01*
X133959006Y-70446786D01*
X134017686Y-70458405D01*
X134076196Y-70470842D01*
X134085361Y-70471805D01*
X134279594Y-70490850D01*
X134279598Y-70490850D01*
X134311581Y-70494000D01*
X144120001Y-70494000D01*
X144120000Y-88510000D01*
X134311581Y-88510000D01*
X134278613Y-88513247D01*
X134265633Y-88513247D01*
X134256468Y-88514210D01*
X134062518Y-88535965D01*
X134004019Y-88548400D01*
X133945325Y-88560022D01*
X133936522Y-88562747D01*
X133750491Y-88621760D01*
X133695509Y-88645326D01*
X133640206Y-88668120D01*
X133632100Y-88672503D01*
X133461075Y-88766525D01*
X133411752Y-88800298D01*
X133407856Y-88802886D01*
X133329272Y-88750378D01*
X133142061Y-88672833D01*
X132943318Y-88633300D01*
X132740682Y-88633300D01*
X132541939Y-88672833D01*
X132354728Y-88750378D01*
X132207000Y-88849087D01*
X132059272Y-88750378D01*
X131872061Y-88672833D01*
X131673318Y-88633300D01*
X131470682Y-88633300D01*
X131271939Y-88672833D01*
X131084728Y-88750378D01*
X130937000Y-88849087D01*
X130789272Y-88750378D01*
X130602061Y-88672833D01*
X130403318Y-88633300D01*
X130200682Y-88633300D01*
X130001939Y-88672833D01*
X129814728Y-88750378D01*
X129667000Y-88849087D01*
X129519272Y-88750378D01*
X129332061Y-88672833D01*
X129133318Y-88633300D01*
X128930682Y-88633300D01*
X128731939Y-88672833D01*
X128544728Y-88750378D01*
X128397000Y-88849087D01*
X128249272Y-88750378D01*
X128062061Y-88672833D01*
X127863318Y-88633300D01*
X127660682Y-88633300D01*
X127461939Y-88672833D01*
X127274728Y-88750378D01*
X127238512Y-88774576D01*
X127215349Y-88758716D01*
X127207243Y-88754333D01*
X127034921Y-88662708D01*
X126979606Y-88639909D01*
X126924634Y-88616348D01*
X126915831Y-88613623D01*
X126728995Y-88557214D01*
X126670307Y-88545594D01*
X126611804Y-88533158D01*
X126602639Y-88532195D01*
X126408405Y-88513150D01*
X126408402Y-88513150D01*
X126376419Y-88510000D01*
X100707617Y-88510000D01*
X100748574Y-88501853D01*
X101009727Y-88393680D01*
X101244759Y-88236637D01*
X101444637Y-88036759D01*
X101601680Y-87801727D01*
X101709853Y-87540574D01*
X101765000Y-87263335D01*
X101765000Y-86980665D01*
X101709853Y-86703426D01*
X101601680Y-86442273D01*
X101444637Y-86207241D01*
X101341396Y-86104000D01*
X111214678Y-86104000D01*
X111252000Y-86107676D01*
X111289322Y-86104000D01*
X111289333Y-86104000D01*
X111400986Y-86093003D01*
X111544247Y-86049546D01*
X111676276Y-85978974D01*
X111792001Y-85884001D01*
X111815804Y-85854997D01*
X114153803Y-83517000D01*
X114660620Y-83517000D01*
X114542826Y-83634794D01*
X114380212Y-83878162D01*
X114268202Y-84148579D01*
X114211100Y-84435652D01*
X114211100Y-84728348D01*
X114268202Y-85015421D01*
X114380212Y-85285838D01*
X114542826Y-85529206D01*
X114749794Y-85736174D01*
X114993162Y-85898788D01*
X115263579Y-86010798D01*
X115550652Y-86067900D01*
X115843348Y-86067900D01*
X116130421Y-86010798D01*
X116400838Y-85898788D01*
X116644206Y-85736174D01*
X116851174Y-85529206D01*
X117013788Y-85285838D01*
X117125798Y-85015421D01*
X117151353Y-84886946D01*
X117181763Y-84913034D01*
X117505336Y-85095172D01*
X117858223Y-85210683D01*
X118226865Y-85255131D01*
X118597096Y-85226806D01*
X118954686Y-85126796D01*
X119202899Y-85001007D01*
X121256720Y-83692578D01*
X121475623Y-83520782D01*
X121717387Y-83238961D01*
X121899524Y-82915389D01*
X122015036Y-82562501D01*
X122059483Y-82193859D01*
X122031158Y-81823627D01*
X121931149Y-81466037D01*
X121763299Y-81134829D01*
X121534058Y-80842730D01*
X121252237Y-80600966D01*
X120928664Y-80418829D01*
X120575777Y-80303317D01*
X120207134Y-80258869D01*
X119836903Y-80287195D01*
X119479312Y-80387204D01*
X119231100Y-80512994D01*
X117177280Y-81821422D01*
X116958377Y-81993218D01*
X116955133Y-81997000D01*
X116543184Y-81997000D01*
X116942251Y-81831701D01*
X117372826Y-81544000D01*
X117739000Y-81177826D01*
X118026701Y-80747251D01*
X118224873Y-80268822D01*
X118325900Y-79760924D01*
X118325900Y-79243076D01*
X118224873Y-78735178D01*
X118026701Y-78256749D01*
X117739000Y-77826174D01*
X117372826Y-77460000D01*
X116942251Y-77172299D01*
X116841461Y-77130550D01*
X118307939Y-77130550D01*
X118369382Y-77496743D01*
X118501085Y-77843913D01*
X118697989Y-78158719D01*
X118952523Y-78429061D01*
X119254908Y-78644552D01*
X119593523Y-78796910D01*
X119955355Y-78880279D01*
X120233495Y-78888656D01*
X120996916Y-78836613D01*
X121271347Y-78790566D01*
X121618517Y-78658863D01*
X121933323Y-78461959D01*
X122203665Y-78207425D01*
X122419156Y-77905040D01*
X122571514Y-77566425D01*
X122654883Y-77204593D01*
X122666061Y-76833450D01*
X122604618Y-76467257D01*
X122472914Y-76120087D01*
X122276011Y-75805281D01*
X122021477Y-75534939D01*
X121719092Y-75319448D01*
X121380477Y-75167090D01*
X121018645Y-75083721D01*
X120740504Y-75075344D01*
X119977084Y-75127387D01*
X119702653Y-75173434D01*
X119355483Y-75305137D01*
X119040677Y-75502041D01*
X118770335Y-75756575D01*
X118554844Y-76058960D01*
X118402486Y-76397575D01*
X118319117Y-76759407D01*
X118307939Y-77130550D01*
X116841461Y-77130550D01*
X116463822Y-76974127D01*
X115955924Y-76873100D01*
X115438076Y-76873100D01*
X114930178Y-76974127D01*
X114451749Y-77172299D01*
X114021174Y-77460000D01*
X113655000Y-77826174D01*
X113604072Y-77902393D01*
X113604072Y-77102000D01*
X113591812Y-76977518D01*
X113555502Y-76857820D01*
X113496537Y-76747506D01*
X113417185Y-76650815D01*
X113320494Y-76571463D01*
X113210180Y-76512498D01*
X113090482Y-76476188D01*
X112966000Y-76463928D01*
X111266000Y-76463928D01*
X111141518Y-76476188D01*
X111021820Y-76512498D01*
X110911506Y-76571463D01*
X110814815Y-76650815D01*
X110735463Y-76747506D01*
X110684954Y-76842000D01*
X107247046Y-76842000D01*
X107196537Y-76747506D01*
X107117185Y-76650815D01*
X107020494Y-76571463D01*
X106910180Y-76512498D01*
X106790482Y-76476188D01*
X106666000Y-76463928D01*
X104966000Y-76463928D01*
X104841518Y-76476188D01*
X104721820Y-76512498D01*
X104611506Y-76571463D01*
X104514815Y-76650815D01*
X104435463Y-76747506D01*
X104384954Y-76842000D01*
X104372333Y-76842000D01*
X104335000Y-76838323D01*
X104297667Y-76842000D01*
X104186014Y-76852997D01*
X104042753Y-76896454D01*
X103910724Y-76967026D01*
X103794999Y-77061999D01*
X103771201Y-77090997D01*
X103589099Y-77273100D01*
X103604883Y-77204593D01*
X103616061Y-76833450D01*
X103554618Y-76467257D01*
X103422914Y-76120087D01*
X103226011Y-75805281D01*
X102971477Y-75534939D01*
X102669092Y-75319448D01*
X102330477Y-75167090D01*
X101968645Y-75083721D01*
X101690504Y-75075344D01*
X100927084Y-75127387D01*
X100652653Y-75173434D01*
X100611839Y-75188917D01*
X100511454Y-75158467D01*
X100362469Y-75143793D01*
X100213484Y-75158467D01*
X100070223Y-75201923D01*
X99938193Y-75272495D01*
X99822468Y-75367468D01*
X99727495Y-75483193D01*
X99656923Y-75615223D01*
X99613467Y-75758484D01*
X99598793Y-75907469D01*
X99600494Y-75924740D01*
X99504844Y-76058960D01*
X99352486Y-76397575D01*
X99269117Y-76759407D01*
X99257939Y-77130550D01*
X99277614Y-77247813D01*
X98480804Y-76451003D01*
X98457001Y-76421999D01*
X98341276Y-76327026D01*
X98209247Y-76256454D01*
X98065986Y-76212997D01*
X97954333Y-76202000D01*
X97954322Y-76202000D01*
X97917000Y-76198324D01*
X97879678Y-76202000D01*
X86905323Y-76202000D01*
X86868000Y-76198324D01*
X86830677Y-76202000D01*
X86830667Y-76202000D01*
X86719014Y-76212997D01*
X86575753Y-76256454D01*
X86443723Y-76327026D01*
X86362540Y-76393652D01*
X86327999Y-76421999D01*
X86304201Y-76450997D01*
X84521199Y-78234000D01*
X84075440Y-78234000D01*
X84103665Y-78207425D01*
X84319156Y-77905040D01*
X84471514Y-77566425D01*
X84554883Y-77204593D01*
X84566061Y-76833450D01*
X84504618Y-76467257D01*
X84372914Y-76120087D01*
X84176011Y-75805281D01*
X83921477Y-75534939D01*
X83619092Y-75319448D01*
X83280477Y-75167090D01*
X82918645Y-75083721D01*
X82640504Y-75075344D01*
X81877084Y-75127387D01*
X81602653Y-75173434D01*
X81255483Y-75305137D01*
X80940677Y-75502041D01*
X80670335Y-75756575D01*
X80454844Y-76058960D01*
X80302486Y-76397575D01*
X80219117Y-76759407D01*
X80212512Y-76978711D01*
X79684804Y-76451003D01*
X79661001Y-76421999D01*
X79545276Y-76327026D01*
X79413247Y-76256454D01*
X79269986Y-76212997D01*
X79158333Y-76202000D01*
X79158322Y-76202000D01*
X79121000Y-76198324D01*
X79083678Y-76202000D01*
X77232135Y-76202000D01*
X76960000Y-75929866D01*
X76960000Y-75766473D01*
X77163579Y-75850798D01*
X77450652Y-75907900D01*
X77743348Y-75907900D01*
X78030421Y-75850798D01*
X78300838Y-75738788D01*
X78544206Y-75576174D01*
X78751174Y-75369206D01*
X78913788Y-75125838D01*
X79025798Y-74855421D01*
X79082900Y-74568348D01*
X79082900Y-74275652D01*
X79025798Y-73988579D01*
X78913788Y-73718162D01*
X78751174Y-73474794D01*
X78544206Y-73267826D01*
X78300838Y-73105212D01*
X78252333Y-73085121D01*
X78384759Y-72996637D01*
X78584637Y-72796759D01*
X78740000Y-72564241D01*
X78895363Y-72796759D01*
X79095241Y-72996637D01*
X79330273Y-73153680D01*
X79591426Y-73261853D01*
X79868665Y-73317000D01*
X80151335Y-73317000D01*
X80428574Y-73261853D01*
X80689727Y-73153680D01*
X80924759Y-72996637D01*
X81124637Y-72796759D01*
X81280000Y-72564241D01*
X81435363Y-72796759D01*
X81635241Y-72996637D01*
X81870273Y-73153680D01*
X82131426Y-73261853D01*
X82408665Y-73317000D01*
X82691335Y-73317000D01*
X82968574Y-73261853D01*
X83229727Y-73153680D01*
X83464759Y-72996637D01*
X83664637Y-72796759D01*
X83820000Y-72564241D01*
X83975363Y-72796759D01*
X84175241Y-72996637D01*
X84410273Y-73153680D01*
X84671426Y-73261853D01*
X84948665Y-73317000D01*
X85231335Y-73317000D01*
X85508574Y-73261853D01*
X85769727Y-73153680D01*
X86004759Y-72996637D01*
X86204637Y-72796759D01*
X86360000Y-72564241D01*
X86515363Y-72796759D01*
X86715241Y-72996637D01*
X86950273Y-73153680D01*
X87211426Y-73261853D01*
X87488665Y-73317000D01*
X87771335Y-73317000D01*
X88048574Y-73261853D01*
X88309727Y-73153680D01*
X88544759Y-72996637D01*
X88744637Y-72796759D01*
X88900000Y-72564241D01*
X89055363Y-72796759D01*
X89255241Y-72996637D01*
X89490273Y-73153680D01*
X89751426Y-73261853D01*
X90028665Y-73317000D01*
X90311335Y-73317000D01*
X90588574Y-73261853D01*
X90849727Y-73153680D01*
X91084759Y-72996637D01*
X91284637Y-72796759D01*
X91440000Y-72564241D01*
X91595363Y-72796759D01*
X91795241Y-72996637D01*
X92030273Y-73153680D01*
X92291426Y-73261853D01*
X92568665Y-73317000D01*
X92851335Y-73317000D01*
X93128574Y-73261853D01*
X93389727Y-73153680D01*
X93624759Y-72996637D01*
X93824637Y-72796759D01*
X93980000Y-72564241D01*
X94135363Y-72796759D01*
X94335241Y-72996637D01*
X94570273Y-73153680D01*
X94831426Y-73261853D01*
X95108665Y-73317000D01*
X95391335Y-73317000D01*
X95668574Y-73261853D01*
X95774231Y-73218088D01*
X95699794Y-73267826D01*
X95492826Y-73474794D01*
X95330212Y-73718162D01*
X95218202Y-73988579D01*
X95161100Y-74275652D01*
X95161100Y-74568348D01*
X95218202Y-74855421D01*
X95330212Y-75125838D01*
X95492826Y-75369206D01*
X95699794Y-75576174D01*
X95943162Y-75738788D01*
X96213579Y-75850798D01*
X96500652Y-75907900D01*
X96793348Y-75907900D01*
X97080421Y-75850798D01*
X97350838Y-75738788D01*
X97594206Y-75576174D01*
X97801174Y-75369206D01*
X97963788Y-75125838D01*
X98075798Y-74855421D01*
X98132900Y-74568348D01*
X98132900Y-74275652D01*
X98075798Y-73988579D01*
X97963788Y-73718162D01*
X97801174Y-73474794D01*
X97642068Y-73315688D01*
X97648665Y-73317000D01*
X97784774Y-73317000D01*
X97916752Y-73387544D01*
X98060012Y-73431001D01*
X98208998Y-73445675D01*
X98272609Y-73439410D01*
X98351197Y-73517998D01*
X98375000Y-73547002D01*
X98490725Y-73641975D01*
X98622754Y-73712547D01*
X98766015Y-73756004D01*
X98877668Y-73767001D01*
X98877677Y-73767001D01*
X98915000Y-73770677D01*
X98952323Y-73767001D01*
X114359982Y-73767001D01*
X114268202Y-73988579D01*
X114211100Y-74275652D01*
X114211100Y-74568348D01*
X114268202Y-74855421D01*
X114380212Y-75125838D01*
X114542826Y-75369206D01*
X114749794Y-75576174D01*
X114993162Y-75738788D01*
X115263579Y-75850798D01*
X115550652Y-75907900D01*
X115843348Y-75907900D01*
X116130421Y-75850798D01*
X116400838Y-75738788D01*
X116644206Y-75576174D01*
X116851174Y-75369206D01*
X117013788Y-75125838D01*
X117125798Y-74855421D01*
X117182900Y-74568348D01*
X117182900Y-74275652D01*
X117125798Y-73988579D01*
X117034018Y-73767001D01*
X120952200Y-73767001D01*
X130453200Y-83268002D01*
X130476999Y-83297001D01*
X130592724Y-83391974D01*
X130724753Y-83462546D01*
X130868014Y-83506003D01*
X130979667Y-83517000D01*
X130979677Y-83517000D01*
X131017000Y-83520676D01*
X131054323Y-83517000D01*
X133710620Y-83517000D01*
X133592826Y-83634794D01*
X133430212Y-83878162D01*
X133318202Y-84148579D01*
X133261100Y-84435652D01*
X133261100Y-84728348D01*
X133318202Y-85015421D01*
X133430212Y-85285838D01*
X133592826Y-85529206D01*
X133799794Y-85736174D01*
X134043162Y-85898788D01*
X134313579Y-86010798D01*
X134600652Y-86067900D01*
X134893348Y-86067900D01*
X135180421Y-86010798D01*
X135450838Y-85898788D01*
X135694206Y-85736174D01*
X135901174Y-85529206D01*
X136063788Y-85285838D01*
X136175798Y-85015421D01*
X136201353Y-84886946D01*
X136231763Y-84913034D01*
X136555336Y-85095172D01*
X136908223Y-85210683D01*
X137276865Y-85255131D01*
X137647096Y-85226806D01*
X138004686Y-85126796D01*
X138252899Y-85001007D01*
X140306720Y-83692578D01*
X140525623Y-83520782D01*
X140767387Y-83238961D01*
X140949524Y-82915389D01*
X141065036Y-82562501D01*
X141109483Y-82193859D01*
X141081158Y-81823627D01*
X140981149Y-81466037D01*
X140813299Y-81134829D01*
X140584058Y-80842730D01*
X140302237Y-80600966D01*
X139978664Y-80418829D01*
X139625777Y-80303317D01*
X139257134Y-80258869D01*
X138886903Y-80287195D01*
X138529312Y-80387204D01*
X138281100Y-80512994D01*
X136227280Y-81821422D01*
X136008377Y-81993218D01*
X136005133Y-81997000D01*
X135593184Y-81997000D01*
X135992251Y-81831701D01*
X136422826Y-81544000D01*
X136789000Y-81177826D01*
X137076701Y-80747251D01*
X137274873Y-80268822D01*
X137375900Y-79760924D01*
X137375900Y-79243076D01*
X137274873Y-78735178D01*
X137076701Y-78256749D01*
X136789000Y-77826174D01*
X136422826Y-77460000D01*
X135992251Y-77172299D01*
X135891461Y-77130550D01*
X137357939Y-77130550D01*
X137419382Y-77496743D01*
X137551085Y-77843913D01*
X137747989Y-78158719D01*
X138002523Y-78429061D01*
X138304908Y-78644552D01*
X138643523Y-78796910D01*
X139005355Y-78880279D01*
X139283495Y-78888656D01*
X140046916Y-78836613D01*
X140321347Y-78790566D01*
X140668517Y-78658863D01*
X140983323Y-78461959D01*
X141253665Y-78207425D01*
X141469156Y-77905040D01*
X141621514Y-77566425D01*
X141704883Y-77204593D01*
X141716061Y-76833450D01*
X141654618Y-76467257D01*
X141522914Y-76120087D01*
X141326011Y-75805281D01*
X141071477Y-75534939D01*
X140769092Y-75319448D01*
X140430477Y-75167090D01*
X140068645Y-75083721D01*
X139790504Y-75075344D01*
X139027084Y-75127387D01*
X138752653Y-75173434D01*
X138405483Y-75305137D01*
X138090677Y-75502041D01*
X137820335Y-75756575D01*
X137604844Y-76058960D01*
X137452486Y-76397575D01*
X137369117Y-76759407D01*
X137357939Y-77130550D01*
X135891461Y-77130550D01*
X135513822Y-76974127D01*
X135005924Y-76873100D01*
X134488076Y-76873100D01*
X133980178Y-76974127D01*
X133501749Y-77172299D01*
X133071174Y-77460000D01*
X132705000Y-77826174D01*
X132417299Y-78256749D01*
X132219127Y-78735178D01*
X132118100Y-79243076D01*
X132118100Y-79760924D01*
X132219127Y-80268822D01*
X132417299Y-80747251D01*
X132705000Y-81177826D01*
X133071174Y-81544000D01*
X133501749Y-81831701D01*
X133900816Y-81997000D01*
X131331802Y-81997000D01*
X123610454Y-74275652D01*
X133261100Y-74275652D01*
X133261100Y-74568348D01*
X133318202Y-74855421D01*
X133430212Y-75125838D01*
X133592826Y-75369206D01*
X133799794Y-75576174D01*
X134043162Y-75738788D01*
X134313579Y-75850798D01*
X134600652Y-75907900D01*
X134893348Y-75907900D01*
X135180421Y-75850798D01*
X135450838Y-75738788D01*
X135694206Y-75576174D01*
X135901174Y-75369206D01*
X136063788Y-75125838D01*
X136175798Y-74855421D01*
X136232900Y-74568348D01*
X136232900Y-74275652D01*
X136175798Y-73988579D01*
X136063788Y-73718162D01*
X135901174Y-73474794D01*
X135694206Y-73267826D01*
X135450838Y-73105212D01*
X135180421Y-72993202D01*
X134893348Y-72936100D01*
X134600652Y-72936100D01*
X134313579Y-72993202D01*
X134043162Y-73105212D01*
X133799794Y-73267826D01*
X133592826Y-73474794D01*
X133430212Y-73718162D01*
X133318202Y-73988579D01*
X133261100Y-74275652D01*
X123610454Y-74275652D01*
X121830805Y-72496004D01*
X121807002Y-72467000D01*
X121691277Y-72372027D01*
X121559248Y-72301455D01*
X121415987Y-72257998D01*
X121304334Y-72247001D01*
X121304323Y-72247001D01*
X121267001Y-72243325D01*
X121229679Y-72247001D01*
X101720509Y-72247001D01*
X101765000Y-72023335D01*
X101765000Y-71740665D01*
X101709853Y-71463426D01*
X101601680Y-71202273D01*
X101444637Y-70967241D01*
X101244759Y-70767363D01*
X101009727Y-70610320D01*
X100748574Y-70502147D01*
X100707617Y-70494000D01*
X126376419Y-70494000D01*
X126409387Y-70490753D01*
X126422367Y-70490753D01*
X126431532Y-70489790D01*
X126625481Y-70468035D01*
X126683966Y-70455603D01*
X126742676Y-70443978D01*
X126751479Y-70441253D01*
X126937509Y-70382240D01*
X126992519Y-70358662D01*
X127047794Y-70335880D01*
X127055900Y-70331497D01*
X127226925Y-70237475D01*
X127238599Y-70229481D01*
X127274728Y-70253622D01*
X127461939Y-70331167D01*
X127660682Y-70370700D01*
X127863318Y-70370700D01*
X128062061Y-70331167D01*
X128249272Y-70253622D01*
X128397000Y-70154913D01*
X128544728Y-70253622D01*
X128731939Y-70331167D01*
X128930682Y-70370700D01*
X129133318Y-70370700D01*
X129332061Y-70331167D01*
X129519272Y-70253622D01*
X129667000Y-70154913D01*
X129814728Y-70253622D01*
X130001939Y-70331167D01*
X130200682Y-70370700D01*
X130403318Y-70370700D01*
X130602061Y-70331167D01*
X130789272Y-70253622D01*
X130937000Y-70154913D01*
X131084728Y-70253622D01*
X131271939Y-70331167D01*
X131470682Y-70370700D01*
X131673318Y-70370700D01*
X131872061Y-70331167D01*
X132059272Y-70253622D01*
X132207000Y-70154913D01*
X132354728Y-70253622D01*
G36*
X99215363Y-88036759D02*
G01*
X99415241Y-88236637D01*
X99650273Y-88393680D01*
X99911426Y-88501853D01*
X99952383Y-88510000D01*
X98167617Y-88510000D01*
X98208574Y-88501853D01*
X98469727Y-88393680D01*
X98704759Y-88236637D01*
X98904637Y-88036759D01*
X99060000Y-87804241D01*
X99215363Y-88036759D01*
X99215363Y-88036759D01*
G37*
X99215363Y-88036759D02*
X99415241Y-88236637D01*
X99650273Y-88393680D01*
X99911426Y-88501853D01*
X99952383Y-88510000D01*
X98167617Y-88510000D01*
X98208574Y-88501853D01*
X98469727Y-88393680D01*
X98704759Y-88236637D01*
X98904637Y-88036759D01*
X99060000Y-87804241D01*
X99215363Y-88036759D01*
G36*
X96675363Y-88036759D02*
G01*
X96875241Y-88236637D01*
X97110273Y-88393680D01*
X97371426Y-88501853D01*
X97412383Y-88510000D01*
X95627617Y-88510000D01*
X95668574Y-88501853D01*
X95929727Y-88393680D01*
X96164759Y-88236637D01*
X96364637Y-88036759D01*
X96520000Y-87804241D01*
X96675363Y-88036759D01*
X96675363Y-88036759D01*
G37*
X96675363Y-88036759D02*
X96875241Y-88236637D01*
X97110273Y-88393680D01*
X97371426Y-88501853D01*
X97412383Y-88510000D01*
X95627617Y-88510000D01*
X95668574Y-88501853D01*
X95929727Y-88393680D01*
X96164759Y-88236637D01*
X96364637Y-88036759D01*
X96520000Y-87804241D01*
X96675363Y-88036759D01*
G36*
X91595363Y-88036759D02*
G01*
X91795241Y-88236637D01*
X92030273Y-88393680D01*
X92291426Y-88501853D01*
X92332383Y-88510000D01*
X90547617Y-88510000D01*
X90588574Y-88501853D01*
X90849727Y-88393680D01*
X91084759Y-88236637D01*
X91284637Y-88036759D01*
X91440000Y-87804241D01*
X91595363Y-88036759D01*
X91595363Y-88036759D01*
G37*
X91595363Y-88036759D02*
X91795241Y-88236637D01*
X92030273Y-88393680D01*
X92291426Y-88501853D01*
X92332383Y-88510000D01*
X90547617Y-88510000D01*
X90588574Y-88501853D01*
X90849727Y-88393680D01*
X91084759Y-88236637D01*
X91284637Y-88036759D01*
X91440000Y-87804241D01*
X91595363Y-88036759D01*
G36*
X76355363Y-88036759D02*
G01*
X76555241Y-88236637D01*
X76790273Y-88393680D01*
X77051426Y-88501853D01*
X77092383Y-88510000D01*
X75307617Y-88510000D01*
X75348574Y-88501853D01*
X75609727Y-88393680D01*
X75844759Y-88236637D01*
X76044637Y-88036759D01*
X76200000Y-87804241D01*
X76355363Y-88036759D01*
X76355363Y-88036759D01*
G37*
X76355363Y-88036759D02*
X76555241Y-88236637D01*
X76790273Y-88393680D01*
X77051426Y-88501853D01*
X77092383Y-88510000D01*
X75307617Y-88510000D01*
X75348574Y-88501853D01*
X75609727Y-88393680D01*
X75844759Y-88236637D01*
X76044637Y-88036759D01*
X76200000Y-87804241D01*
X76355363Y-88036759D01*
G36*
X94135363Y-88036759D02*
G01*
X94335241Y-88236637D01*
X94570273Y-88393680D01*
X94831426Y-88501853D01*
X94872383Y-88510000D01*
X93087617Y-88510000D01*
X93128574Y-88501853D01*
X93389727Y-88393680D01*
X93624759Y-88236637D01*
X93824637Y-88036759D01*
X93980000Y-87804241D01*
X94135363Y-88036759D01*
X94135363Y-88036759D01*
G37*
X94135363Y-88036759D02*
X94335241Y-88236637D01*
X94570273Y-88393680D01*
X94831426Y-88501853D01*
X94872383Y-88510000D01*
X93087617Y-88510000D01*
X93128574Y-88501853D01*
X93389727Y-88393680D01*
X93624759Y-88236637D01*
X93824637Y-88036759D01*
X93980000Y-87804241D01*
X94135363Y-88036759D01*
G36*
X73815363Y-88036759D02*
G01*
X74015241Y-88236637D01*
X74250273Y-88393680D01*
X74511426Y-88501853D01*
X74552383Y-88510000D01*
X72767617Y-88510000D01*
X72808574Y-88501853D01*
X73069727Y-88393680D01*
X73304759Y-88236637D01*
X73504637Y-88036759D01*
X73660000Y-87804241D01*
X73815363Y-88036759D01*
X73815363Y-88036759D01*
G37*
X73815363Y-88036759D02*
X74015241Y-88236637D01*
X74250273Y-88393680D01*
X74511426Y-88501853D01*
X74552383Y-88510000D01*
X72767617Y-88510000D01*
X72808574Y-88501853D01*
X73069727Y-88393680D01*
X73304759Y-88236637D01*
X73504637Y-88036759D01*
X73660000Y-87804241D01*
X73815363Y-88036759D01*
G36*
X89055363Y-88036759D02*
G01*
X89255241Y-88236637D01*
X89490273Y-88393680D01*
X89751426Y-88501853D01*
X89792383Y-88510000D01*
X88007617Y-88510000D01*
X88048574Y-88501853D01*
X88309727Y-88393680D01*
X88544759Y-88236637D01*
X88744637Y-88036759D01*
X88900000Y-87804241D01*
X89055363Y-88036759D01*
X89055363Y-88036759D01*
G37*
X89055363Y-88036759D02*
X89255241Y-88236637D01*
X89490273Y-88393680D01*
X89751426Y-88501853D01*
X89792383Y-88510000D01*
X88007617Y-88510000D01*
X88048574Y-88501853D01*
X88309727Y-88393680D01*
X88544759Y-88236637D01*
X88744637Y-88036759D01*
X88900000Y-87804241D01*
X89055363Y-88036759D01*
G36*
X71235506Y-70551463D02*
G01*
X71138815Y-70630815D01*
X71059463Y-70727506D01*
X71000498Y-70837820D01*
X70964188Y-70957518D01*
X70951928Y-71082000D01*
X70951928Y-72682000D01*
X70964188Y-72806482D01*
X71000498Y-72926180D01*
X71059463Y-73036494D01*
X71138815Y-73133185D01*
X71235506Y-73212537D01*
X71345820Y-73271502D01*
X71465518Y-73307812D01*
X71590000Y-73320072D01*
X73190000Y-73320072D01*
X73314482Y-73307812D01*
X73434180Y-73271502D01*
X73544494Y-73212537D01*
X73641185Y-73133185D01*
X73720537Y-73036494D01*
X73779502Y-72926180D01*
X73815812Y-72806482D01*
X73816643Y-72798039D01*
X74015241Y-72996637D01*
X74250273Y-73153680D01*
X74511426Y-73261853D01*
X74788665Y-73317000D01*
X75071335Y-73317000D01*
X75348574Y-73261853D01*
X75440000Y-73223983D01*
X75440001Y-76207335D01*
X75436324Y-76244667D01*
X75450998Y-76393652D01*
X75494454Y-76536913D01*
X75565026Y-76668943D01*
X75582105Y-76689753D01*
X75660000Y-76784668D01*
X75688998Y-76808466D01*
X76172560Y-77292029D01*
X75921174Y-77460000D01*
X75555000Y-77826174D01*
X75267299Y-78256749D01*
X75069127Y-78735178D01*
X74968100Y-79243076D01*
X74968100Y-79760924D01*
X75069127Y-80268822D01*
X75267299Y-80747251D01*
X75555000Y-81177826D01*
X75921174Y-81544000D01*
X76199336Y-81729862D01*
X75688998Y-82240201D01*
X75660000Y-82263999D01*
X75636202Y-82292997D01*
X75636201Y-82292998D01*
X75565026Y-82379724D01*
X75494454Y-82511754D01*
X75450998Y-82655015D01*
X75436324Y-82804000D01*
X75440001Y-82841332D01*
X75440000Y-85780017D01*
X75348574Y-85742147D01*
X75071335Y-85687000D01*
X74788665Y-85687000D01*
X74511426Y-85742147D01*
X74250273Y-85850320D01*
X74015241Y-86007363D01*
X73815363Y-86207241D01*
X73660000Y-86439759D01*
X73504637Y-86207241D01*
X73304759Y-86007363D01*
X73069727Y-85850320D01*
X72808574Y-85742147D01*
X72531335Y-85687000D01*
X72248665Y-85687000D01*
X71971426Y-85742147D01*
X71710273Y-85850320D01*
X71475241Y-86007363D01*
X71275363Y-86207241D01*
X71118320Y-86442273D01*
X71010147Y-86703426D01*
X70955000Y-86980665D01*
X70955000Y-87263335D01*
X71010147Y-87540574D01*
X71118320Y-87801727D01*
X71275363Y-88036759D01*
X71475241Y-88236637D01*
X71710273Y-88393680D01*
X71971426Y-88501853D01*
X72012383Y-88510000D01*
X68224000Y-88510000D01*
X68224000Y-70494000D01*
X71343010Y-70494000D01*
X71235506Y-70551463D01*
X71235506Y-70551463D01*
G37*
X71235506Y-70551463D02*
X71138815Y-70630815D01*
X71059463Y-70727506D01*
X71000498Y-70837820D01*
X70964188Y-70957518D01*
X70951928Y-71082000D01*
X70951928Y-72682000D01*
X70964188Y-72806482D01*
X71000498Y-72926180D01*
X71059463Y-73036494D01*
X71138815Y-73133185D01*
X71235506Y-73212537D01*
X71345820Y-73271502D01*
X71465518Y-73307812D01*
X71590000Y-73320072D01*
X73190000Y-73320072D01*
X73314482Y-73307812D01*
X73434180Y-73271502D01*
X73544494Y-73212537D01*
X73641185Y-73133185D01*
X73720537Y-73036494D01*
X73779502Y-72926180D01*
X73815812Y-72806482D01*
X73816643Y-72798039D01*
X74015241Y-72996637D01*
X74250273Y-73153680D01*
X74511426Y-73261853D01*
X74788665Y-73317000D01*
X75071335Y-73317000D01*
X75348574Y-73261853D01*
X75440000Y-73223983D01*
X75440001Y-76207335D01*
X75436324Y-76244667D01*
X75450998Y-76393652D01*
X75494454Y-76536913D01*
X75565026Y-76668943D01*
X75582105Y-76689753D01*
X75660000Y-76784668D01*
X75688998Y-76808466D01*
X76172560Y-77292029D01*
X75921174Y-77460000D01*
X75555000Y-77826174D01*
X75267299Y-78256749D01*
X75069127Y-78735178D01*
X74968100Y-79243076D01*
X74968100Y-79760924D01*
X75069127Y-80268822D01*
X75267299Y-80747251D01*
X75555000Y-81177826D01*
X75921174Y-81544000D01*
X76199336Y-81729862D01*
X75688998Y-82240201D01*
X75660000Y-82263999D01*
X75636202Y-82292997D01*
X75636201Y-82292998D01*
X75565026Y-82379724D01*
X75494454Y-82511754D01*
X75450998Y-82655015D01*
X75436324Y-82804000D01*
X75440001Y-82841332D01*
X75440000Y-85780017D01*
X75348574Y-85742147D01*
X75071335Y-85687000D01*
X74788665Y-85687000D01*
X74511426Y-85742147D01*
X74250273Y-85850320D01*
X74015241Y-86007363D01*
X73815363Y-86207241D01*
X73660000Y-86439759D01*
X73504637Y-86207241D01*
X73304759Y-86007363D01*
X73069727Y-85850320D01*
X72808574Y-85742147D01*
X72531335Y-85687000D01*
X72248665Y-85687000D01*
X71971426Y-85742147D01*
X71710273Y-85850320D01*
X71475241Y-86007363D01*
X71275363Y-86207241D01*
X71118320Y-86442273D01*
X71010147Y-86703426D01*
X70955000Y-86980665D01*
X70955000Y-87263335D01*
X71010147Y-87540574D01*
X71118320Y-87801727D01*
X71275363Y-88036759D01*
X71475241Y-88236637D01*
X71710273Y-88393680D01*
X71971426Y-88501853D01*
X72012383Y-88510000D01*
X68224000Y-88510000D01*
X68224000Y-70494000D01*
X71343010Y-70494000D01*
X71235506Y-70551463D01*
G36*
X93924201Y-82553003D02*
G01*
X93947999Y-82582001D01*
X93976997Y-82605799D01*
X94063723Y-82676974D01*
X94195753Y-82747546D01*
X94339014Y-82791003D01*
X94450667Y-82802000D01*
X94450677Y-82802000D01*
X94488000Y-82805676D01*
X94525323Y-82802000D01*
X95193199Y-82802000D01*
X94739002Y-83256196D01*
X94709999Y-83279999D01*
X94677055Y-83320142D01*
X94615026Y-83395724D01*
X94550202Y-83517000D01*
X94544454Y-83527754D01*
X94500997Y-83671015D01*
X94490000Y-83782668D01*
X94490000Y-83782678D01*
X94486324Y-83820000D01*
X94490000Y-83857323D01*
X94490001Y-85903956D01*
X94335241Y-86007363D01*
X94135363Y-86207241D01*
X93980000Y-86439759D01*
X93824637Y-86207241D01*
X93624759Y-86007363D01*
X93389727Y-85850320D01*
X93128574Y-85742147D01*
X92851335Y-85687000D01*
X92568665Y-85687000D01*
X92386114Y-85723312D01*
X88908804Y-82246003D01*
X88885001Y-82216999D01*
X88769276Y-82122026D01*
X88637247Y-82051454D01*
X88493986Y-82007997D01*
X88382333Y-81997000D01*
X88382322Y-81997000D01*
X88345000Y-81993324D01*
X88307678Y-81997000D01*
X83944422Y-81997000D01*
X83931158Y-81823627D01*
X83831149Y-81466037D01*
X83663299Y-81134829D01*
X83434058Y-80842730D01*
X83349278Y-80770000D01*
X87592678Y-80770000D01*
X87630000Y-80773676D01*
X87667322Y-80770000D01*
X87667333Y-80770000D01*
X87778986Y-80759003D01*
X87922247Y-80715546D01*
X88054276Y-80644974D01*
X88170001Y-80550001D01*
X88193804Y-80520998D01*
X88960802Y-79754000D01*
X91125199Y-79754000D01*
X93924201Y-82553003D01*
X93924201Y-82553003D01*
G37*
X93924201Y-82553003D02*
X93947999Y-82582001D01*
X93976997Y-82605799D01*
X94063723Y-82676974D01*
X94195753Y-82747546D01*
X94339014Y-82791003D01*
X94450667Y-82802000D01*
X94450677Y-82802000D01*
X94488000Y-82805676D01*
X94525323Y-82802000D01*
X95193199Y-82802000D01*
X94739002Y-83256196D01*
X94709999Y-83279999D01*
X94677055Y-83320142D01*
X94615026Y-83395724D01*
X94550202Y-83517000D01*
X94544454Y-83527754D01*
X94500997Y-83671015D01*
X94490000Y-83782668D01*
X94490000Y-83782678D01*
X94486324Y-83820000D01*
X94490000Y-83857323D01*
X94490001Y-85903956D01*
X94335241Y-86007363D01*
X94135363Y-86207241D01*
X93980000Y-86439759D01*
X93824637Y-86207241D01*
X93624759Y-86007363D01*
X93389727Y-85850320D01*
X93128574Y-85742147D01*
X92851335Y-85687000D01*
X92568665Y-85687000D01*
X92386114Y-85723312D01*
X88908804Y-82246003D01*
X88885001Y-82216999D01*
X88769276Y-82122026D01*
X88637247Y-82051454D01*
X88493986Y-82007997D01*
X88382333Y-81997000D01*
X88382322Y-81997000D01*
X88345000Y-81993324D01*
X88307678Y-81997000D01*
X83944422Y-81997000D01*
X83931158Y-81823627D01*
X83831149Y-81466037D01*
X83663299Y-81134829D01*
X83434058Y-80842730D01*
X83349278Y-80770000D01*
X87592678Y-80770000D01*
X87630000Y-80773676D01*
X87667322Y-80770000D01*
X87667333Y-80770000D01*
X87778986Y-80759003D01*
X87922247Y-80715546D01*
X88054276Y-80644974D01*
X88170001Y-80550001D01*
X88193804Y-80520998D01*
X88960802Y-79754000D01*
X91125199Y-79754000D01*
X93924201Y-82553003D01*
G36*
X90200198Y-85687000D02*
G01*
X90028665Y-85687000D01*
X89751426Y-85742147D01*
X89490273Y-85850320D01*
X89255241Y-86007363D01*
X89055363Y-86207241D01*
X88900000Y-86439759D01*
X88744637Y-86207241D01*
X88544759Y-86007363D01*
X88309727Y-85850320D01*
X88048574Y-85742147D01*
X87771335Y-85687000D01*
X87488665Y-85687000D01*
X87211426Y-85742147D01*
X86950273Y-85850320D01*
X86715241Y-86007363D01*
X86515363Y-86207241D01*
X86360000Y-86439759D01*
X86204637Y-86207241D01*
X86004759Y-86007363D01*
X85769727Y-85850320D01*
X85508574Y-85742147D01*
X85231335Y-85687000D01*
X84948665Y-85687000D01*
X84671426Y-85742147D01*
X84410273Y-85850320D01*
X84175241Y-86007363D01*
X83975363Y-86207241D01*
X83820000Y-86439759D01*
X83664637Y-86207241D01*
X83464759Y-86007363D01*
X83229727Y-85850320D01*
X82968574Y-85742147D01*
X82691335Y-85687000D01*
X82408665Y-85687000D01*
X82131426Y-85742147D01*
X81870273Y-85850320D01*
X81635241Y-86007363D01*
X81435363Y-86207241D01*
X81280000Y-86439759D01*
X81124637Y-86207241D01*
X80924759Y-86007363D01*
X80689727Y-85850320D01*
X80428574Y-85742147D01*
X80151335Y-85687000D01*
X79868665Y-85687000D01*
X79591426Y-85742147D01*
X79330273Y-85850320D01*
X79095241Y-86007363D01*
X78895363Y-86207241D01*
X78740000Y-86439759D01*
X78584637Y-86207241D01*
X78384759Y-86007363D01*
X78252333Y-85918879D01*
X78300838Y-85898788D01*
X78544206Y-85736174D01*
X78751174Y-85529206D01*
X78913788Y-85285838D01*
X79025798Y-85015421D01*
X79051353Y-84886946D01*
X79081763Y-84913034D01*
X79405336Y-85095172D01*
X79758223Y-85210683D01*
X80126865Y-85255131D01*
X80497096Y-85226806D01*
X80854686Y-85126796D01*
X81102899Y-85001007D01*
X83156720Y-83692578D01*
X83375623Y-83520782D01*
X83378867Y-83517000D01*
X88030199Y-83517000D01*
X90200198Y-85687000D01*
X90200198Y-85687000D01*
G37*
X90200198Y-85687000D02*
X90028665Y-85687000D01*
X89751426Y-85742147D01*
X89490273Y-85850320D01*
X89255241Y-86007363D01*
X89055363Y-86207241D01*
X88900000Y-86439759D01*
X88744637Y-86207241D01*
X88544759Y-86007363D01*
X88309727Y-85850320D01*
X88048574Y-85742147D01*
X87771335Y-85687000D01*
X87488665Y-85687000D01*
X87211426Y-85742147D01*
X86950273Y-85850320D01*
X86715241Y-86007363D01*
X86515363Y-86207241D01*
X86360000Y-86439759D01*
X86204637Y-86207241D01*
X86004759Y-86007363D01*
X85769727Y-85850320D01*
X85508574Y-85742147D01*
X85231335Y-85687000D01*
X84948665Y-85687000D01*
X84671426Y-85742147D01*
X84410273Y-85850320D01*
X84175241Y-86007363D01*
X83975363Y-86207241D01*
X83820000Y-86439759D01*
X83664637Y-86207241D01*
X83464759Y-86007363D01*
X83229727Y-85850320D01*
X82968574Y-85742147D01*
X82691335Y-85687000D01*
X82408665Y-85687000D01*
X82131426Y-85742147D01*
X81870273Y-85850320D01*
X81635241Y-86007363D01*
X81435363Y-86207241D01*
X81280000Y-86439759D01*
X81124637Y-86207241D01*
X80924759Y-86007363D01*
X80689727Y-85850320D01*
X80428574Y-85742147D01*
X80151335Y-85687000D01*
X79868665Y-85687000D01*
X79591426Y-85742147D01*
X79330273Y-85850320D01*
X79095241Y-86007363D01*
X78895363Y-86207241D01*
X78740000Y-86439759D01*
X78584637Y-86207241D01*
X78384759Y-86007363D01*
X78252333Y-85918879D01*
X78300838Y-85898788D01*
X78544206Y-85736174D01*
X78751174Y-85529206D01*
X78913788Y-85285838D01*
X79025798Y-85015421D01*
X79051353Y-84886946D01*
X79081763Y-84913034D01*
X79405336Y-85095172D01*
X79758223Y-85210683D01*
X80126865Y-85255131D01*
X80497096Y-85226806D01*
X80854686Y-85126796D01*
X81102899Y-85001007D01*
X83156720Y-83692578D01*
X83375623Y-83520782D01*
X83378867Y-83517000D01*
X88030199Y-83517000D01*
X90200198Y-85687000D01*
G36*
X96213579Y-86010798D02*
G01*
X96500652Y-86067900D01*
X96793348Y-86067900D01*
X96820007Y-86062597D01*
X96675363Y-86207241D01*
X96520000Y-86439759D01*
X96364637Y-86207241D01*
X96164759Y-86007363D01*
X96098660Y-85963197D01*
X96213579Y-86010798D01*
X96213579Y-86010798D01*
G37*
X96213579Y-86010798D02*
X96500652Y-86067900D01*
X96793348Y-86067900D01*
X96820007Y-86062597D01*
X96675363Y-86207241D01*
X96520000Y-86439759D01*
X96364637Y-86207241D01*
X96164759Y-86007363D01*
X96098660Y-85963197D01*
X96213579Y-86010798D01*
G36*
X98131763Y-84913034D02*
G01*
X98455336Y-85095172D01*
X98671326Y-85165872D01*
X98113886Y-85723312D01*
X97931335Y-85687000D01*
X97648665Y-85687000D01*
X97642068Y-85688312D01*
X97801174Y-85529206D01*
X97963788Y-85285838D01*
X98075798Y-85015421D01*
X98101353Y-84886946D01*
X98131763Y-84913034D01*
X98131763Y-84913034D01*
G37*
X98131763Y-84913034D02*
X98455336Y-85095172D01*
X98671326Y-85165872D01*
X98113886Y-85723312D01*
X97931335Y-85687000D01*
X97648665Y-85687000D01*
X97642068Y-85688312D01*
X97801174Y-85529206D01*
X97963788Y-85285838D01*
X98075798Y-85015421D01*
X98101353Y-84886946D01*
X98131763Y-84913034D01*
G36*
X103771201Y-81913003D02*
G01*
X103794999Y-81942001D01*
X103823997Y-81965799D01*
X103910724Y-82036974D01*
X104042753Y-82107546D01*
X104186014Y-82151003D01*
X104335000Y-82165677D01*
X104372333Y-82162000D01*
X104384954Y-82162000D01*
X104435463Y-82256494D01*
X104514815Y-82353185D01*
X104611506Y-82432537D01*
X104721820Y-82491502D01*
X104841518Y-82527812D01*
X104966000Y-82540072D01*
X106666000Y-82540072D01*
X106790482Y-82527812D01*
X106910180Y-82491502D01*
X107020494Y-82432537D01*
X107117185Y-82353185D01*
X107196537Y-82256494D01*
X107247046Y-82162000D01*
X110684954Y-82162000D01*
X110735463Y-82256494D01*
X110814815Y-82353185D01*
X110911506Y-82432537D01*
X111021820Y-82491502D01*
X111141518Y-82527812D01*
X111266000Y-82540072D01*
X112966000Y-82540072D01*
X112982778Y-82538420D01*
X110937199Y-84584000D01*
X100807469Y-84584000D01*
X102206720Y-83692578D01*
X102425623Y-83520782D01*
X102667387Y-83238961D01*
X102849524Y-82915389D01*
X102965036Y-82562501D01*
X103009483Y-82193859D01*
X102981158Y-81823627D01*
X102881149Y-81466037D01*
X102713299Y-81134829D01*
X102484058Y-80842730D01*
X102202237Y-80600966D01*
X102051292Y-80516000D01*
X102374199Y-80516000D01*
X103771201Y-81913003D01*
X103771201Y-81913003D01*
G37*
X103771201Y-81913003D02*
X103794999Y-81942001D01*
X103823997Y-81965799D01*
X103910724Y-82036974D01*
X104042753Y-82107546D01*
X104186014Y-82151003D01*
X104335000Y-82165677D01*
X104372333Y-82162000D01*
X104384954Y-82162000D01*
X104435463Y-82256494D01*
X104514815Y-82353185D01*
X104611506Y-82432537D01*
X104721820Y-82491502D01*
X104841518Y-82527812D01*
X104966000Y-82540072D01*
X106666000Y-82540072D01*
X106790482Y-82527812D01*
X106910180Y-82491502D01*
X107020494Y-82432537D01*
X107117185Y-82353185D01*
X107196537Y-82256494D01*
X107247046Y-82162000D01*
X110684954Y-82162000D01*
X110735463Y-82256494D01*
X110814815Y-82353185D01*
X110911506Y-82432537D01*
X111021820Y-82491502D01*
X111141518Y-82527812D01*
X111266000Y-82540072D01*
X112966000Y-82540072D01*
X112982778Y-82538420D01*
X110937199Y-84584000D01*
X100807469Y-84584000D01*
X102206720Y-83692578D01*
X102425623Y-83520782D01*
X102667387Y-83238961D01*
X102849524Y-82915389D01*
X102965036Y-82562501D01*
X103009483Y-82193859D01*
X102981158Y-81823627D01*
X102881149Y-81466037D01*
X102713299Y-81134829D01*
X102484058Y-80842730D01*
X102202237Y-80600966D01*
X102051292Y-80516000D01*
X102374199Y-80516000D01*
X103771201Y-81913003D01*
G36*
X78318964Y-82951500D02*
G01*
X78282076Y-83257441D01*
X78030421Y-83153202D01*
X77743348Y-83096100D01*
X77450652Y-83096100D01*
X77163579Y-83153202D01*
X76960000Y-83237527D01*
X76960000Y-83118801D01*
X77276802Y-82802000D01*
X78367900Y-82802000D01*
X78318964Y-82951500D01*
X78318964Y-82951500D01*
G37*
X78318964Y-82951500D02*
X78282076Y-83257441D01*
X78030421Y-83153202D01*
X77743348Y-83096100D01*
X77450652Y-83096100D01*
X77163579Y-83153202D01*
X76960000Y-83237527D01*
X76960000Y-83118801D01*
X77276802Y-82802000D01*
X78367900Y-82802000D01*
X78318964Y-82951500D01*
G36*
X113655000Y-81177826D02*
G01*
X114021174Y-81544000D01*
X114451749Y-81831701D01*
X114850816Y-81997000D01*
X113876322Y-81997000D01*
X113838999Y-81993324D01*
X113801676Y-81997000D01*
X113801667Y-81997000D01*
X113690014Y-82007997D01*
X113588036Y-82038931D01*
X113591812Y-82026482D01*
X113604072Y-81902000D01*
X113604072Y-81101607D01*
X113655000Y-81177826D01*
X113655000Y-81177826D01*
G37*
X113655000Y-81177826D02*
X114021174Y-81544000D01*
X114451749Y-81831701D01*
X114850816Y-81997000D01*
X113876322Y-81997000D01*
X113838999Y-81993324D01*
X113801676Y-81997000D01*
X113801667Y-81997000D01*
X113690014Y-82007997D01*
X113588036Y-82038931D01*
X113591812Y-82026482D01*
X113604072Y-81902000D01*
X113604072Y-81101607D01*
X113655000Y-81177826D01*
G36*
X94605000Y-77826174D02*
G01*
X94317299Y-78256749D01*
X94119127Y-78735178D01*
X94018100Y-79243076D01*
X94018100Y-79760924D01*
X94119127Y-80268822D01*
X94317299Y-80747251D01*
X94416465Y-80895663D01*
X92003804Y-78483003D01*
X91980001Y-78453999D01*
X91864276Y-78359026D01*
X91732247Y-78288454D01*
X91588986Y-78244997D01*
X91477333Y-78234000D01*
X91477322Y-78234000D01*
X91440000Y-78230324D01*
X91402678Y-78234000D01*
X88683322Y-78234000D01*
X88646000Y-78230324D01*
X88608677Y-78234000D01*
X88608667Y-78234000D01*
X88497014Y-78244997D01*
X88353753Y-78288454D01*
X88221723Y-78359026D01*
X88138083Y-78427668D01*
X88105999Y-78453999D01*
X88082201Y-78482997D01*
X87315199Y-79250000D01*
X85654801Y-79250000D01*
X87182802Y-77722000D01*
X94709174Y-77722000D01*
X94605000Y-77826174D01*
X94605000Y-77826174D01*
G37*
X94605000Y-77826174D02*
X94317299Y-78256749D01*
X94119127Y-78735178D01*
X94018100Y-79243076D01*
X94018100Y-79760924D01*
X94119127Y-80268822D01*
X94317299Y-80747251D01*
X94416465Y-80895663D01*
X92003804Y-78483003D01*
X91980001Y-78453999D01*
X91864276Y-78359026D01*
X91732247Y-78288454D01*
X91588986Y-78244997D01*
X91477333Y-78234000D01*
X91477322Y-78234000D01*
X91440000Y-78230324D01*
X91402678Y-78234000D01*
X88683322Y-78234000D01*
X88646000Y-78230324D01*
X88608677Y-78234000D01*
X88608667Y-78234000D01*
X88497014Y-78244997D01*
X88353753Y-78288454D01*
X88221723Y-78359026D01*
X88138083Y-78427668D01*
X88105999Y-78453999D01*
X88082201Y-78482997D01*
X87315199Y-79250000D01*
X85654801Y-79250000D01*
X87182802Y-77722000D01*
X94709174Y-77722000D01*
X94605000Y-77826174D01*
G36*
X110735463Y-78456494D02*
G01*
X110814815Y-78553185D01*
X110911506Y-78632537D01*
X111021820Y-78691502D01*
X111141518Y-78727812D01*
X111266000Y-78740072D01*
X112966000Y-78740072D01*
X113090482Y-78727812D01*
X113183918Y-78699468D01*
X113169127Y-78735178D01*
X113068100Y-79243076D01*
X113068100Y-79760924D01*
X113169127Y-80268822D01*
X113183918Y-80304532D01*
X113090482Y-80276188D01*
X112966000Y-80263928D01*
X111266000Y-80263928D01*
X111141518Y-80276188D01*
X111021820Y-80312498D01*
X110911506Y-80371463D01*
X110814815Y-80450815D01*
X110735463Y-80547506D01*
X110684954Y-80642000D01*
X107247046Y-80642000D01*
X107196537Y-80547506D01*
X107117185Y-80450815D01*
X107020494Y-80371463D01*
X106910180Y-80312498D01*
X106790482Y-80276188D01*
X106666000Y-80263928D01*
X104966000Y-80263928D01*
X104841518Y-80276188D01*
X104721820Y-80312498D01*
X104611506Y-80371463D01*
X104514815Y-80450815D01*
X104489483Y-80481682D01*
X103509801Y-79502000D01*
X104489483Y-78522318D01*
X104514815Y-78553185D01*
X104611506Y-78632537D01*
X104721820Y-78691502D01*
X104841518Y-78727812D01*
X104966000Y-78740072D01*
X106666000Y-78740072D01*
X106790482Y-78727812D01*
X106910180Y-78691502D01*
X107020494Y-78632537D01*
X107117185Y-78553185D01*
X107196537Y-78456494D01*
X107247046Y-78362000D01*
X110684954Y-78362000D01*
X110735463Y-78456494D01*
X110735463Y-78456494D01*
G37*
X110735463Y-78456494D02*
X110814815Y-78553185D01*
X110911506Y-78632537D01*
X111021820Y-78691502D01*
X111141518Y-78727812D01*
X111266000Y-78740072D01*
X112966000Y-78740072D01*
X113090482Y-78727812D01*
X113183918Y-78699468D01*
X113169127Y-78735178D01*
X113068100Y-79243076D01*
X113068100Y-79760924D01*
X113169127Y-80268822D01*
X113183918Y-80304532D01*
X113090482Y-80276188D01*
X112966000Y-80263928D01*
X111266000Y-80263928D01*
X111141518Y-80276188D01*
X111021820Y-80312498D01*
X110911506Y-80371463D01*
X110814815Y-80450815D01*
X110735463Y-80547506D01*
X110684954Y-80642000D01*
X107247046Y-80642000D01*
X107196537Y-80547506D01*
X107117185Y-80450815D01*
X107020494Y-80371463D01*
X106910180Y-80312498D01*
X106790482Y-80276188D01*
X106666000Y-80263928D01*
X104966000Y-80263928D01*
X104841518Y-80276188D01*
X104721820Y-80312498D01*
X104611506Y-80371463D01*
X104514815Y-80450815D01*
X104489483Y-80481682D01*
X103509801Y-79502000D01*
X104489483Y-78522318D01*
X104514815Y-78553185D01*
X104611506Y-78632537D01*
X104721820Y-78691502D01*
X104841518Y-78727812D01*
X104966000Y-78740072D01*
X106666000Y-78740072D01*
X106790482Y-78727812D01*
X106910180Y-78691502D01*
X107020494Y-78632537D01*
X107117185Y-78553185D01*
X107196537Y-78456494D01*
X107247046Y-78362000D01*
X110684954Y-78362000D01*
X110735463Y-78456494D01*
G36*
X80586198Y-79502000D02*
G01*
X80200729Y-79887470D01*
X80225900Y-79760924D01*
X80225900Y-79243076D01*
X80200729Y-79116530D01*
X80586198Y-79502000D01*
X80586198Y-79502000D01*
G37*
X80586198Y-79502000D02*
X80200729Y-79887470D01*
X80225900Y-79760924D01*
X80225900Y-79243076D01*
X80200729Y-79116530D01*
X80586198Y-79502000D01*
G36*
X99382198Y-79502000D02*
G01*
X99275900Y-79608298D01*
X99275900Y-79395702D01*
X99382198Y-79502000D01*
X99382198Y-79502000D01*
G37*
X99382198Y-79502000D02*
X99275900Y-79608298D01*
X99275900Y-79395702D01*
X99382198Y-79502000D01*
G36*
X96675363Y-72796759D02*
G01*
X96820007Y-72941403D01*
X96793348Y-72936100D01*
X96500652Y-72936100D01*
X96213579Y-72993202D01*
X96098660Y-73040803D01*
X96164759Y-72996637D01*
X96364637Y-72796759D01*
X96520000Y-72564241D01*
X96675363Y-72796759D01*
X96675363Y-72796759D01*
G37*
X96675363Y-72796759D02*
X96820007Y-72941403D01*
X96793348Y-72936100D01*
X96500652Y-72936100D01*
X96213579Y-72993202D01*
X96098660Y-73040803D01*
X96164759Y-72996637D01*
X96364637Y-72796759D01*
X96520000Y-72564241D01*
X96675363Y-72796759D01*
G36*
X99911426Y-70502147D02*
G01*
X99650273Y-70610320D01*
X99415241Y-70767363D01*
X99215363Y-70967241D01*
X99060000Y-71199759D01*
X98904637Y-70967241D01*
X98704759Y-70767363D01*
X98469727Y-70610320D01*
X98208574Y-70502147D01*
X98167617Y-70494000D01*
X99952383Y-70494000D01*
X99911426Y-70502147D01*
X99911426Y-70502147D01*
G37*
X99911426Y-70502147D02*
X99650273Y-70610320D01*
X99415241Y-70767363D01*
X99215363Y-70967241D01*
X99060000Y-71199759D01*
X98904637Y-70967241D01*
X98704759Y-70767363D01*
X98469727Y-70610320D01*
X98208574Y-70502147D01*
X98167617Y-70494000D01*
X99952383Y-70494000D01*
X99911426Y-70502147D01*
G36*
X89751426Y-70502147D02*
G01*
X89490273Y-70610320D01*
X89255241Y-70767363D01*
X89055363Y-70967241D01*
X88900000Y-71199759D01*
X88744637Y-70967241D01*
X88544759Y-70767363D01*
X88309727Y-70610320D01*
X88048574Y-70502147D01*
X88007617Y-70494000D01*
X89792383Y-70494000D01*
X89751426Y-70502147D01*
X89751426Y-70502147D01*
G37*
X89751426Y-70502147D02*
X89490273Y-70610320D01*
X89255241Y-70767363D01*
X89055363Y-70967241D01*
X88900000Y-71199759D01*
X88744637Y-70967241D01*
X88544759Y-70767363D01*
X88309727Y-70610320D01*
X88048574Y-70502147D01*
X88007617Y-70494000D01*
X89792383Y-70494000D01*
X89751426Y-70502147D01*
G36*
X97371426Y-70502147D02*
G01*
X97110273Y-70610320D01*
X96875241Y-70767363D01*
X96675363Y-70967241D01*
X96520000Y-71199759D01*
X96364637Y-70967241D01*
X96164759Y-70767363D01*
X95929727Y-70610320D01*
X95668574Y-70502147D01*
X95627617Y-70494000D01*
X97412383Y-70494000D01*
X97371426Y-70502147D01*
X97371426Y-70502147D01*
G37*
X97371426Y-70502147D02*
X97110273Y-70610320D01*
X96875241Y-70767363D01*
X96675363Y-70967241D01*
X96520000Y-71199759D01*
X96364637Y-70967241D01*
X96164759Y-70767363D01*
X95929727Y-70610320D01*
X95668574Y-70502147D01*
X95627617Y-70494000D01*
X97412383Y-70494000D01*
X97371426Y-70502147D01*
G36*
X94831426Y-70502147D02*
G01*
X94570273Y-70610320D01*
X94335241Y-70767363D01*
X94135363Y-70967241D01*
X93980000Y-71199759D01*
X93824637Y-70967241D01*
X93624759Y-70767363D01*
X93389727Y-70610320D01*
X93128574Y-70502147D01*
X93087617Y-70494000D01*
X94872383Y-70494000D01*
X94831426Y-70502147D01*
X94831426Y-70502147D01*
G37*
X94831426Y-70502147D02*
X94570273Y-70610320D01*
X94335241Y-70767363D01*
X94135363Y-70967241D01*
X93980000Y-71199759D01*
X93824637Y-70967241D01*
X93624759Y-70767363D01*
X93389727Y-70610320D01*
X93128574Y-70502147D01*
X93087617Y-70494000D01*
X94872383Y-70494000D01*
X94831426Y-70502147D01*
G36*
X92291426Y-70502147D02*
G01*
X92030273Y-70610320D01*
X91795241Y-70767363D01*
X91595363Y-70967241D01*
X91440000Y-71199759D01*
X91284637Y-70967241D01*
X91084759Y-70767363D01*
X90849727Y-70610320D01*
X90588574Y-70502147D01*
X90547617Y-70494000D01*
X92332383Y-70494000D01*
X92291426Y-70502147D01*
X92291426Y-70502147D01*
G37*
X92291426Y-70502147D02*
X92030273Y-70610320D01*
X91795241Y-70767363D01*
X91595363Y-70967241D01*
X91440000Y-71199759D01*
X91284637Y-70967241D01*
X91084759Y-70767363D01*
X90849727Y-70610320D01*
X90588574Y-70502147D01*
X90547617Y-70494000D01*
X92332383Y-70494000D01*
X92291426Y-70502147D01*
G36*
X84052728Y-70253622D02*
G01*
X84239939Y-70331167D01*
X84438682Y-70370700D01*
X84641318Y-70370700D01*
X84840061Y-70331167D01*
X85027272Y-70253622D01*
X85084744Y-70215220D01*
X85128651Y-70245284D01*
X85136757Y-70249667D01*
X85309080Y-70341292D01*
X85364392Y-70364090D01*
X85419366Y-70387652D01*
X85428169Y-70390377D01*
X85615006Y-70446786D01*
X85673686Y-70458405D01*
X85732196Y-70470842D01*
X85741361Y-70471805D01*
X85935594Y-70490850D01*
X85935598Y-70490850D01*
X85967581Y-70494000D01*
X87252383Y-70494000D01*
X87211426Y-70502147D01*
X86950273Y-70610320D01*
X86715241Y-70767363D01*
X86515363Y-70967241D01*
X86360000Y-71199759D01*
X86204637Y-70967241D01*
X86004759Y-70767363D01*
X85769727Y-70610320D01*
X85508574Y-70502147D01*
X85231335Y-70447000D01*
X84948665Y-70447000D01*
X84671426Y-70502147D01*
X84410273Y-70610320D01*
X84175241Y-70767363D01*
X83975363Y-70967241D01*
X83820000Y-71199759D01*
X83664637Y-70967241D01*
X83464759Y-70767363D01*
X83229727Y-70610320D01*
X82968574Y-70502147D01*
X82691335Y-70447000D01*
X82408665Y-70447000D01*
X82131426Y-70502147D01*
X81870273Y-70610320D01*
X81635241Y-70767363D01*
X81435363Y-70967241D01*
X81280000Y-71199759D01*
X81124637Y-70967241D01*
X80924759Y-70767363D01*
X80689727Y-70610320D01*
X80428574Y-70502147D01*
X80151335Y-70447000D01*
X79868665Y-70447000D01*
X79591426Y-70502147D01*
X79330273Y-70610320D01*
X79095241Y-70767363D01*
X78895363Y-70967241D01*
X78740000Y-71199759D01*
X78584637Y-70967241D01*
X78384759Y-70767363D01*
X78149727Y-70610320D01*
X77888574Y-70502147D01*
X77847617Y-70494000D01*
X78032419Y-70494000D01*
X78065387Y-70490753D01*
X78078367Y-70490753D01*
X78087532Y-70489790D01*
X78281481Y-70468035D01*
X78339966Y-70455603D01*
X78398676Y-70443978D01*
X78407479Y-70441253D01*
X78593509Y-70382240D01*
X78648519Y-70358662D01*
X78703794Y-70335880D01*
X78711900Y-70331497D01*
X78882925Y-70237475D01*
X78915342Y-70215278D01*
X78972728Y-70253622D01*
X79159939Y-70331167D01*
X79358682Y-70370700D01*
X79561318Y-70370700D01*
X79760061Y-70331167D01*
X79947272Y-70253622D01*
X80095000Y-70154913D01*
X80242728Y-70253622D01*
X80429939Y-70331167D01*
X80628682Y-70370700D01*
X80831318Y-70370700D01*
X81030061Y-70331167D01*
X81217272Y-70253622D01*
X81365000Y-70154913D01*
X81512728Y-70253622D01*
X81699939Y-70331167D01*
X81898682Y-70370700D01*
X82101318Y-70370700D01*
X82300061Y-70331167D01*
X82487272Y-70253622D01*
X82635000Y-70154913D01*
X82782728Y-70253622D01*
X82969939Y-70331167D01*
X83168682Y-70370700D01*
X83371318Y-70370700D01*
X83570061Y-70331167D01*
X83757272Y-70253622D01*
X83905000Y-70154913D01*
X84052728Y-70253622D01*
X84052728Y-70253622D01*
G37*
X84052728Y-70253622D02*
X84239939Y-70331167D01*
X84438682Y-70370700D01*
X84641318Y-70370700D01*
X84840061Y-70331167D01*
X85027272Y-70253622D01*
X85084744Y-70215220D01*
X85128651Y-70245284D01*
X85136757Y-70249667D01*
X85309080Y-70341292D01*
X85364392Y-70364090D01*
X85419366Y-70387652D01*
X85428169Y-70390377D01*
X85615006Y-70446786D01*
X85673686Y-70458405D01*
X85732196Y-70470842D01*
X85741361Y-70471805D01*
X85935594Y-70490850D01*
X85935598Y-70490850D01*
X85967581Y-70494000D01*
X87252383Y-70494000D01*
X87211426Y-70502147D01*
X86950273Y-70610320D01*
X86715241Y-70767363D01*
X86515363Y-70967241D01*
X86360000Y-71199759D01*
X86204637Y-70967241D01*
X86004759Y-70767363D01*
X85769727Y-70610320D01*
X85508574Y-70502147D01*
X85231335Y-70447000D01*
X84948665Y-70447000D01*
X84671426Y-70502147D01*
X84410273Y-70610320D01*
X84175241Y-70767363D01*
X83975363Y-70967241D01*
X83820000Y-71199759D01*
X83664637Y-70967241D01*
X83464759Y-70767363D01*
X83229727Y-70610320D01*
X82968574Y-70502147D01*
X82691335Y-70447000D01*
X82408665Y-70447000D01*
X82131426Y-70502147D01*
X81870273Y-70610320D01*
X81635241Y-70767363D01*
X81435363Y-70967241D01*
X81280000Y-71199759D01*
X81124637Y-70967241D01*
X80924759Y-70767363D01*
X80689727Y-70610320D01*
X80428574Y-70502147D01*
X80151335Y-70447000D01*
X79868665Y-70447000D01*
X79591426Y-70502147D01*
X79330273Y-70610320D01*
X79095241Y-70767363D01*
X78895363Y-70967241D01*
X78740000Y-71199759D01*
X78584637Y-70967241D01*
X78384759Y-70767363D01*
X78149727Y-70610320D01*
X77888574Y-70502147D01*
X77847617Y-70494000D01*
X78032419Y-70494000D01*
X78065387Y-70490753D01*
X78078367Y-70490753D01*
X78087532Y-70489790D01*
X78281481Y-70468035D01*
X78339966Y-70455603D01*
X78398676Y-70443978D01*
X78407479Y-70441253D01*
X78593509Y-70382240D01*
X78648519Y-70358662D01*
X78703794Y-70335880D01*
X78711900Y-70331497D01*
X78882925Y-70237475D01*
X78915342Y-70215278D01*
X78972728Y-70253622D01*
X79159939Y-70331167D01*
X79358682Y-70370700D01*
X79561318Y-70370700D01*
X79760061Y-70331167D01*
X79947272Y-70253622D01*
X80095000Y-70154913D01*
X80242728Y-70253622D01*
X80429939Y-70331167D01*
X80628682Y-70370700D01*
X80831318Y-70370700D01*
X81030061Y-70331167D01*
X81217272Y-70253622D01*
X81365000Y-70154913D01*
X81512728Y-70253622D01*
X81699939Y-70331167D01*
X81898682Y-70370700D01*
X82101318Y-70370700D01*
X82300061Y-70331167D01*
X82487272Y-70253622D01*
X82635000Y-70154913D01*
X82782728Y-70253622D01*
X82969939Y-70331167D01*
X83168682Y-70370700D01*
X83371318Y-70370700D01*
X83570061Y-70331167D01*
X83757272Y-70253622D01*
X83905000Y-70154913D01*
X84052728Y-70253622D01*
G36*
X77051426Y-70502147D02*
G01*
X76790273Y-70610320D01*
X76555241Y-70767363D01*
X76355363Y-70967241D01*
X76200000Y-71199759D01*
X76044637Y-70967241D01*
X75844759Y-70767363D01*
X75609727Y-70610320D01*
X75348574Y-70502147D01*
X75307617Y-70494000D01*
X77092383Y-70494000D01*
X77051426Y-70502147D01*
X77051426Y-70502147D01*
G37*
X77051426Y-70502147D02*
X76790273Y-70610320D01*
X76555241Y-70767363D01*
X76355363Y-70967241D01*
X76200000Y-71199759D01*
X76044637Y-70967241D01*
X75844759Y-70767363D01*
X75609727Y-70610320D01*
X75348574Y-70502147D01*
X75307617Y-70494000D01*
X77092383Y-70494000D01*
X77051426Y-70502147D01*
G36*
X74511426Y-70502147D02*
G01*
X74250273Y-70610320D01*
X74015241Y-70767363D01*
X73816643Y-70965961D01*
X73815812Y-70957518D01*
X73779502Y-70837820D01*
X73720537Y-70727506D01*
X73641185Y-70630815D01*
X73544494Y-70551463D01*
X73436990Y-70494000D01*
X74552383Y-70494000D01*
X74511426Y-70502147D01*
X74511426Y-70502147D01*
G37*
X74511426Y-70502147D02*
X74250273Y-70610320D01*
X74015241Y-70767363D01*
X73816643Y-70965961D01*
X73815812Y-70957518D01*
X73779502Y-70837820D01*
X73720537Y-70727506D01*
X73641185Y-70630815D01*
X73544494Y-70551463D01*
X73436990Y-70494000D01*
X74552383Y-70494000D01*
X74511426Y-70502147D01*
M02*
