G04 #@! TF.GenerationSoftware,KiCad,Pcbnew,(5.1.4-0-10_14)*
G04 #@! TF.CreationDate,2021-02-23T13:51:13-08:00*
G04 #@! TF.ProjectId,fourkey,666f7572-6b65-4792-9e6b-696361645f70,rev?*
G04 #@! TF.SameCoordinates,Original*
G04 #@! TF.FileFunction,Legend,Top*
G04 #@! TF.FilePolarity,Positive*
%FSLAX46Y46*%
G04 Gerber Fmt 4.6, Leading zero omitted, Abs format (unit mm)*
G04 Created by KiCad (PCBNEW (5.1.4-0-10_14)) date 2021-02-23 13:51:13*
%MOMM*%
%LPD*%
G04 APERTURE LIST*
%ADD10C,0.150000*%
%ADD11C,0.120000*%
%ADD12C,0.200000*%
%ADD13C,0.203200*%
G04 APERTURE END LIST*
D10*
X165100000Y-77470000D02*
X165100000Y-95250000D01*
X134620000Y-77470000D02*
X165100000Y-77470000D01*
X134620000Y-82550000D02*
X134620000Y-77470000D01*
X132080000Y-82550000D02*
X134620000Y-82550000D01*
X132080000Y-90170000D02*
X132080000Y-82550000D01*
X134620000Y-90170000D02*
X132080000Y-90170000D01*
X134620000Y-95250000D02*
X134620000Y-90170000D01*
X134620000Y-95250000D02*
X165100000Y-95250000D01*
D11*
X170766000Y-88660000D02*
X171216000Y-89110000D01*
X174166000Y-88660000D02*
X173716000Y-89110000D01*
X174166000Y-84060000D02*
X173716000Y-83610000D01*
X170766000Y-84060000D02*
X171216000Y-83610000D01*
X175216000Y-85360000D02*
X175216000Y-87360000D01*
X171216000Y-89110000D02*
X173716000Y-89110000D01*
X169716000Y-85360000D02*
X169716000Y-87360000D01*
X171216000Y-83610000D02*
X173716000Y-83610000D01*
D12*
X137612380Y-87098095D02*
X136612380Y-87098095D01*
X137612380Y-86526666D02*
X137040952Y-86955238D01*
X136612380Y-86526666D02*
X137183809Y-87098095D01*
X137612380Y-85574285D02*
X137612380Y-86145714D01*
X137612380Y-85860000D02*
X136612380Y-85860000D01*
X136755238Y-85955238D01*
X136850476Y-86050476D01*
X136898095Y-86145714D01*
D13*
X148698857Y-87289523D02*
X148698857Y-88317619D01*
X148771428Y-88438571D01*
X148844000Y-88499047D01*
X148989142Y-88559523D01*
X149279428Y-88559523D01*
X149424571Y-88499047D01*
X149497142Y-88438571D01*
X149569714Y-88317619D01*
X149569714Y-87289523D01*
X151093714Y-88559523D02*
X150222857Y-88559523D01*
X150658285Y-88559523D02*
X150658285Y-87289523D01*
X150513142Y-87470952D01*
X150368000Y-87591904D01*
X150222857Y-87652380D01*
D12*
X156662380Y-87098095D02*
X155662380Y-87098095D01*
X156662380Y-86526666D02*
X156090952Y-86955238D01*
X155662380Y-86526666D02*
X156233809Y-87098095D01*
X155757619Y-86145714D02*
X155710000Y-86098095D01*
X155662380Y-86002857D01*
X155662380Y-85764761D01*
X155710000Y-85669523D01*
X155757619Y-85621904D01*
X155852857Y-85574285D01*
X155948095Y-85574285D01*
X156090952Y-85621904D01*
X156662380Y-86193333D01*
X156662380Y-85574285D01*
X175712380Y-87098095D02*
X174712380Y-87098095D01*
X175712380Y-86526666D02*
X175140952Y-86955238D01*
X174712380Y-86526666D02*
X175283809Y-87098095D01*
X174712380Y-86193333D02*
X174712380Y-85574285D01*
X175093333Y-85907619D01*
X175093333Y-85764761D01*
X175140952Y-85669523D01*
X175188571Y-85621904D01*
X175283809Y-85574285D01*
X175521904Y-85574285D01*
X175617142Y-85621904D01*
X175664761Y-85669523D01*
X175712380Y-85764761D01*
X175712380Y-86050476D01*
X175664761Y-86145714D01*
X175617142Y-86193333D01*
X194762380Y-87098095D02*
X193762380Y-87098095D01*
X194762380Y-86526666D02*
X194190952Y-86955238D01*
X193762380Y-86526666D02*
X194333809Y-87098095D01*
X194095714Y-85669523D02*
X194762380Y-85669523D01*
X193714761Y-85907619D02*
X194429047Y-86145714D01*
X194429047Y-85526666D01*
D10*
X171132666Y-83014761D02*
X171275523Y-83062380D01*
X171513619Y-83062380D01*
X171608857Y-83014761D01*
X171656476Y-82967142D01*
X171704095Y-82871904D01*
X171704095Y-82776666D01*
X171656476Y-82681428D01*
X171608857Y-82633809D01*
X171513619Y-82586190D01*
X171323142Y-82538571D01*
X171227904Y-82490952D01*
X171180285Y-82443333D01*
X171132666Y-82348095D01*
X171132666Y-82252857D01*
X171180285Y-82157619D01*
X171227904Y-82110000D01*
X171323142Y-82062380D01*
X171561238Y-82062380D01*
X171704095Y-82110000D01*
X172037428Y-82062380D02*
X172275523Y-83062380D01*
X172466000Y-82348095D01*
X172656476Y-83062380D01*
X172894571Y-82062380D01*
X173799333Y-83062380D02*
X173227904Y-83062380D01*
X173513619Y-83062380D02*
X173513619Y-82062380D01*
X173418380Y-82205238D01*
X173323142Y-82300476D01*
X173227904Y-82348095D01*
M02*
